<?xml version="1.0" encoding="utf-8"?>
<!-- Generator: Adobe Illustrator 16.0.0, SVG Export Plug-In . SVG Version: 6.00 Build 0)  -->
<!DOCTYPE svg PUBLIC "-//W3C//DTD SVG 1.1//EN" "http://www.w3.org/Graphics/SVG/1.1/DTD/svg11.dtd">
<svg version="1.1" id="Ebene_1" xmlns="http://www.w3.org/2000/svg" xmlns:xlink="http://www.w3.org/1999/xlink" x="0px" y="0px"
	 width="151.382px" height="151.381px" viewBox="234.866 319.773 151.382 151.381"
	 enable-background="new 234.866 319.773 151.382 151.381" xml:space="preserve">
<g id="Ebene_1_1_">
</g>
<g>
	<circle fill="#FFFFFF" stroke="#CDA5B4" stroke-width="1.1952" stroke-miterlimit="10" cx="310.869" cy="395.553" r="70.492"/>
	<path fill="#DEC0CA" stroke="#CDA5B4" stroke-width="1.1952" stroke-miterlimit="10" d="M310.557,320.371
		c-41.455,0-75.093,33.638-75.093,75.093s33.637,75.093,75.093,75.093c41.455,0,75.094-33.638,75.094-75.093
		S352.012,320.371,310.557,320.371z M310.557,463.9c-37.792,0-68.437-30.646-68.437-68.438s30.645-68.392,68.437-68.392
		c37.792,0,68.393,30.645,68.393,68.392C378.948,433.211,348.304,463.9,310.557,463.9z"/>
</g>
<rect x="330.033" y="367.857" fill="#666666" width="31.313" height="52.801"/>
<rect x="331.597" y="373.173" fill="#F0F0F0" width="28.145" height="41.009"/>
<g>
	<path d="M342.005,371.297h7.326c0.269,0,0.491-0.224,0.491-0.492l0,0c0-0.268-0.224-0.491-0.491-0.491h-7.326
		c-0.268,0-0.491,0.223-0.491,0.491l0,0C341.514,371.073,341.737,371.297,342.005,371.297z"/>
	<circle cx="345.668" cy="417.532" r="1.876"/>
</g>
<g>
	<rect x="268.833" y="347.71" fill="#666666" width="55.213" height="93.141"/>
	<rect x="271.603" y="357.091" fill="#F0F0F0" width="49.674" height="72.368"/>
</g>
<g>
	<path fill="#DEC0CA" stroke="#CDA5B4" stroke-width="1.3788" stroke-miterlimit="10" d="M296.977,380.454
		c-1.072,0-2.725,0-3.574-0.536c-0.849-0.536-4.11-1.832-6.924-0.089s-4.557,5.405-4.199,7.639c0.402,2.233,1.966,5.36,4.557,5.852
		c2.591,0.536,6.12-1.206,7.326-1.832c1.206-0.626,3.663-0.625,5.092,0.313c1.43,0.938,6.12,2.904,8.845-0.134
		c2.726-3.038,2.592-6.031,2.367-7.147c-0.223-1.117-1.429-6.12-6.388-5.808c0,0-2.725,0.134-4.021,1.162
		C300.014,379.874,298.048,380.365,296.977,380.454z"/>
	<path fill="#CDA5B4" d="M296.351,384.609c-4.69,0-8.488,2.725-8.488,6.075s3.797,6.076,8.488,6.076s8.487-2.725,8.487-6.076
		S301.042,384.609,296.351,384.609z M296.351,395.375c-3.663,0-6.611-2.1-6.611-4.69s2.948-4.69,6.611-4.69s6.611,2.1,6.611,4.69
		S300.014,395.375,296.351,395.375z"/>
	
		<ellipse fill="#FFFFFF" stroke="#CDA5B4" stroke-width="1.0244" stroke-miterlimit="10" cx="296.262" cy="386.261" rx="5.227" ry="3.976"/>
</g>
<rect x="277.098" y="407.213" fill="#74AB71" stroke="#FFFFFF" stroke-width="1.4758" stroke-miterlimit="10" width="38.686" height="15.366"/>
<g enable-background="new    ">
	<path fill="#FFFFFF" d="M291.929,411.456c-0.045-0.044-0.09-0.089-0.134-0.089c-0.044-0.045-0.134-0.045-0.179-0.09
		c-0.044-0.044-0.134-0.044-0.223-0.089c-0.089-0.046-0.179-0.046-0.224-0.046c-0.223,0-0.357,0.046-0.491,0.135
		c-0.089,0.09-0.134,0.179-0.134,0.356c0,0.09,0,0.135,0.045,0.179c0.044,0.046,0.089,0.091,0.134,0.135
		c0.045,0.045,0.134,0.045,0.224,0.09c0.09,0.045,0.223,0.045,0.313,0.089c0.134,0.045,0.268,0.09,0.402,0.09
		c0.134,0.045,0.223,0.089,0.313,0.134c0.09,0.045,0.134,0.135,0.179,0.225c0.044,0.089,0.044,0.179,0.044,0.313
		s-0.044,0.27-0.089,0.357c-0.044,0.09-0.134,0.179-0.223,0.224c-0.089,0.045-0.179,0.134-0.313,0.134
		c-0.134,0.045-0.268,0.045-0.402,0.045c-0.223,0-0.402-0.045-0.625-0.09c-0.179-0.089-0.357-0.179-0.536-0.313l0.179-0.313
		c0.044,0.045,0.089,0.089,0.178,0.135c0.089,0.045,0.134,0.09,0.224,0.134c0.089,0.045,0.179,0.045,0.268,0.09
		c0.089,0,0.223,0.045,0.313,0.045c0.179,0,0.357-0.045,0.447-0.09c0.089-0.089,0.179-0.179,0.179-0.313c0-0.09,0-0.134-0.044-0.179
		c-0.045-0.045-0.089-0.09-0.134-0.134c-0.089-0.045-0.134-0.09-0.268-0.09c-0.089-0.045-0.223-0.045-0.357-0.089
		c-0.134-0.045-0.268-0.091-0.357-0.091c-0.089,0-0.179-0.089-0.268-0.134c-0.089-0.045-0.134-0.134-0.179-0.224
		c-0.045-0.089-0.045-0.179-0.045-0.269c0-0.134,0.045-0.269,0.089-0.356c0.045-0.09,0.134-0.179,0.224-0.27
		c0.089-0.089,0.178-0.134,0.313-0.179c0.134-0.044,0.268-0.044,0.402-0.044c0.179,0,0.357,0.044,0.536,0.089
		c0.134,0.045,0.268,0.134,0.402,0.225L291.929,411.456z"/>
	<path fill="#FFFFFF" d="M294.743,411.188h-0.983v2.502h-0.357v-2.502h-0.983v-0.313h2.278v0.313H294.743z"/>
	<path fill="#FFFFFF" d="M295.726,410.876h0.313l1.162,2.813h-0.402l-0.313-0.805h-1.206l-0.313,0.805h-0.402L295.726,410.876z
		 M296.396,412.573l-0.491-1.296l-0.536,1.296H296.396z"/>
	<path fill="#FFFFFF" d="M297.557,413.689v-2.813h1.206c0.134,0,0.223,0.044,0.357,0.089c0.089,0.045,0.179,0.134,0.268,0.225
		c0.089,0.089,0.134,0.179,0.179,0.268c0.044,0.09,0.044,0.224,0.044,0.313c0,0.09,0,0.179-0.044,0.269
		c-0.045,0.089-0.089,0.179-0.134,0.268c-0.044,0.091-0.134,0.136-0.179,0.18c-0.089,0.045-0.134,0.09-0.223,0.135l0.67,1.071
		h-0.402l-0.625-1.027h-0.759v1.027h-0.358V413.689z M297.915,412.35h0.849c0.089,0,0.134,0,0.179-0.045
		c0.045-0.044,0.089-0.089,0.134-0.134c0.044-0.045,0.089-0.134,0.089-0.179c0.045-0.089,0.045-0.134,0.045-0.224
		s0-0.135-0.045-0.224c-0.044-0.09-0.044-0.134-0.089-0.179s-0.089-0.09-0.179-0.134c-0.045-0.045-0.134-0.045-0.179-0.045h-0.849
		v1.16h0.045V412.35z"/>
	<path fill="#FFFFFF" d="M302.158,411.188h-0.983v2.502h-0.357v-2.502h-0.983v-0.313h2.278v0.313H302.158z"/>
</g>
<g enable-background="new    ">
	<path fill="#FFFFFF" d="M284.2,418.246c0,0.09,0,0.224-0.044,0.313c-0.045,0.09-0.089,0.18-0.179,0.224
		c-0.089,0.045-0.179,0.134-0.268,0.134c-0.089,0.045-0.224,0.045-0.313,0.045h-1.34v-2.813h1.385c0.089,0,0.179,0,0.268,0.045
		s0.134,0.09,0.223,0.179c0.045,0.09,0.089,0.134,0.134,0.224c0.044,0.089,0.044,0.18,0.044,0.269c0,0.135-0.044,0.269-0.089,0.401
		c-0.044,0.135-0.179,0.225-0.313,0.269c0.179,0.045,0.268,0.135,0.402,0.269C284.245,417.934,284.2,418.067,284.2,418.246z
		 M282.369,416.46v0.938h0.894c0.044,0,0.134,0,0.179-0.046c0.044-0.044,0.089-0.044,0.134-0.089
		c0.045-0.045,0.089-0.09,0.089-0.134c0.045-0.045,0.045-0.134,0.045-0.179s0-0.134-0.045-0.179c0-0.046-0.044-0.091-0.089-0.135
		c-0.044-0.045-0.089-0.09-0.134-0.09s-0.089-0.045-0.179-0.045h-0.894V416.46z M283.843,418.157c0-0.045,0-0.134-0.044-0.179
		c-0.045-0.046-0.045-0.091-0.089-0.18c-0.045-0.045-0.089-0.09-0.134-0.09c-0.044-0.044-0.089-0.044-0.179-0.044h-0.982v0.982
		h0.982c0.045,0,0.134,0,0.179-0.046c0.045-0.044,0.089-0.044,0.134-0.089c0.044-0.045,0.089-0.09,0.089-0.134
		C283.798,418.291,283.843,418.246,283.843,418.157z"/>
	<path fill="#FFFFFF" d="M285.496,416.146h0.313l1.161,2.813h-0.402l-0.313-0.804h-1.162l-0.313,0.804h-0.402L285.496,416.146z
		 M286.121,417.845l-0.491-1.296l-0.536,1.296H286.121z"/>
	<path fill="#FFFFFF" d="M289.472,418.246c0,0.09,0,0.224-0.045,0.313c-0.044,0.09-0.089,0.18-0.179,0.224
		c-0.089,0.045-0.179,0.134-0.268,0.134c-0.089,0.045-0.223,0.045-0.313,0.045h-1.34v-2.813h1.385c0.089,0,0.179,0,0.268,0.045
		s0.134,0.09,0.224,0.179c0.044,0.09,0.089,0.134,0.134,0.224c0.045,0.089,0.045,0.18,0.045,0.269c0,0.135-0.045,0.269-0.089,0.401
		c-0.045,0.135-0.179,0.225-0.313,0.269c0.179,0.045,0.268,0.135,0.402,0.269C289.516,417.934,289.472,418.067,289.472,418.246z
		 M287.64,416.46v0.938h0.893c0.045,0,0.134,0,0.179-0.046c0.045-0.044,0.089-0.044,0.134-0.089c0.044-0.045,0.089-0.09,0.089-0.134
		c0.044-0.045,0.044-0.134,0.044-0.179s0-0.134-0.044-0.179c0-0.046-0.045-0.091-0.089-0.135c-0.045-0.045-0.089-0.09-0.134-0.09
		c-0.044,0-0.089-0.045-0.179-0.045h-0.893V416.46z M289.114,418.157c0-0.045,0-0.134-0.045-0.179
		c-0.044-0.046-0.044-0.091-0.089-0.18c-0.044-0.045-0.089-0.09-0.134-0.09c-0.045-0.044-0.089-0.044-0.179-0.044h-0.983v0.982
		h0.983c0.044,0,0.134,0,0.179-0.046c0.044-0.044,0.089-0.044,0.134-0.089s0.089-0.09,0.089-0.134
		C289.069,418.291,289.114,418.246,289.114,418.157z"/>
	<path fill="#FFFFFF" d="M289.963,416.146l0.849,1.475l0.849-1.475h0.402l-1.072,1.786v1.027h-0.357v-1.027l-1.072-1.786H289.963z"
		/>
	<path fill="#FFFFFF" d="M294.921,416.728c-0.044-0.045-0.089-0.089-0.134-0.089c-0.045-0.045-0.134-0.045-0.179-0.09
		s-0.134-0.045-0.224-0.089c-0.089-0.045-0.179-0.045-0.223-0.045c-0.224,0-0.357,0.045-0.491,0.134
		c-0.089,0.09-0.134,0.179-0.134,0.357c0,0.09,0,0.134,0.045,0.179c0.044,0.045,0.089,0.089,0.134,0.134
		c0.045,0.045,0.134,0.045,0.223,0.09c0.089,0.044,0.224,0.044,0.313,0.09c0.134,0.045,0.268,0.09,0.402,0.09
		c0.134,0.044,0.224,0.089,0.313,0.134c0.089,0.045,0.134,0.134,0.179,0.224c0.044,0.089,0.044,0.18,0.044,0.313
		s-0.044,0.268-0.089,0.356c-0.044,0.089-0.134,0.18-0.223,0.225c-0.089,0.044-0.179,0.134-0.313,0.134
		c-0.134,0.044-0.268,0.044-0.402,0.044c-0.224,0-0.402-0.044-0.625-0.089c-0.179-0.089-0.357-0.179-0.536-0.313l0.179-0.313
		c0.045,0.044,0.089,0.089,0.179,0.134c0.09,0.045,0.134,0.089,0.224,0.134s0.178,0.045,0.268,0.09c0.089,0,0.224,0.045,0.313,0.045
		c0.179,0,0.357-0.045,0.447-0.09c0.089-0.09,0.179-0.179,0.179-0.313c0-0.09,0-0.135-0.045-0.179
		c-0.044-0.045-0.089-0.091-0.134-0.136c-0.089-0.044-0.134-0.089-0.268-0.089c-0.089-0.045-0.224-0.045-0.357-0.09
		c-0.134-0.044-0.268-0.089-0.357-0.089s-0.179-0.09-0.268-0.134c-0.089-0.045-0.134-0.136-0.179-0.225
		c-0.044-0.09-0.044-0.179-0.044-0.268c0-0.135,0.044-0.27,0.089-0.357c0.044-0.09,0.134-0.179,0.223-0.269
		c0.089-0.089,0.179-0.134,0.313-0.179c0.134-0.045,0.268-0.045,0.402-0.045c0.179,0,0.357,0.045,0.536,0.09
		c0.134,0.045,0.268,0.134,0.402,0.224L294.921,416.728z"/>
	<path fill="#FFFFFF" d="M297.736,416.46h-0.983v2.501h-0.357v-2.501h-0.982v-0.313h2.278v0.313H297.736z"/>
	<path fill="#FFFFFF" d="M298.719,416.146h0.313l1.162,2.813h-0.402l-0.313-0.804h-1.162l-0.313,0.804h-0.402L298.719,416.146z
		 M299.344,417.845l-0.491-1.296l-0.536,1.296H299.344z"/>
	<path fill="#FFFFFF" d="M302.292,416.46h-0.983v2.501h-0.357v-2.501h-0.983v-0.313h2.278v0.313H302.292z"/>
	<path fill="#FFFFFF" d="M302.694,418.961v-2.813h0.357v2.813H302.694z"/>
	<path fill="#FFFFFF" d="M304.883,418.961c-0.179,0-0.357-0.045-0.536-0.134c-0.179-0.089-0.313-0.179-0.402-0.313
		c-0.134-0.134-0.224-0.269-0.268-0.446c-0.045-0.18-0.089-0.357-0.089-0.536c0-0.18,0.044-0.357,0.089-0.535
		c0.044-0.179,0.179-0.313,0.268-0.447c0.134-0.134,0.268-0.224,0.402-0.313c0.179-0.09,0.357-0.135,0.536-0.135
		c0.179,0,0.357,0.045,0.536,0.135c0.179,0.089,0.313,0.179,0.402,0.313c0.134,0.134,0.224,0.27,0.269,0.447
		c0.044,0.178,0.089,0.355,0.089,0.535c0,0.179-0.045,0.356-0.089,0.536c-0.045,0.179-0.179,0.313-0.269,0.446
		c-0.134,0.135-0.268,0.225-0.402,0.313C305.285,418.916,305.062,418.961,304.883,418.961z M303.9,417.576
		c0,0.134,0.045,0.269,0.089,0.401c0.045,0.135,0.089,0.269,0.179,0.357c0.089,0.089,0.179,0.179,0.313,0.224
		c0.134,0.044,0.268,0.09,0.402,0.09c0.134,0,0.268-0.046,0.402-0.09c0.134-0.045,0.224-0.135,0.313-0.269
		c0.089-0.134,0.134-0.224,0.179-0.357c0.044-0.134,0.044-0.268,0.044-0.401c0-0.135-0.044-0.269-0.089-0.401
		c-0.044-0.134-0.134-0.269-0.179-0.356c-0.089-0.091-0.179-0.18-0.313-0.225c-0.134-0.045-0.268-0.089-0.402-0.089
		c-0.134,0-0.268,0.044-0.402,0.089c-0.134,0.045-0.224,0.134-0.313,0.27c-0.089,0.134-0.134,0.223-0.179,0.355
		C303.945,417.264,303.9,417.397,303.9,417.576z"/>
	<path fill="#FFFFFF" d="M307.027,416.817v2.144h-0.357v-2.813h0.27l1.741,2.188v-2.188h0.357v2.813h-0.313L307.027,416.817z"/>
</g>
<g>
	<path d="M289.695,353.785h13.491c0.313,0,0.581-0.268,0.581-0.581v-0.581c0-0.313-0.268-0.581-0.581-0.581h-13.491
		c-0.313,0-0.581,0.268-0.581,0.581v0.581C289.114,353.518,289.382,353.785,289.695,353.785z"/>
	<circle cx="296.44" cy="435.355" r="3.306"/>
</g>
<path fill="#666666" stroke="#000000" stroke-miterlimit="10" d="M339.414,399.797h12.821v-4.154c0,0-0.091-1.697-1.698-1.876
	c-1.607-0.179-2.456-0.492-2.546-1.251c-0.045-0.67-0.134-1.474,0.179-1.832c0.313-0.358,1.117-0.759,1.117-1.921
	c0-1.162-0.27-3.261-3.038-3.261s-3.484,1.832-3.484,3.127s0.85,1.742,0.982,2.188c0.179,0.447,0.356,0.938,0.179,1.608
	c-0.134,0.536-0.58,1.43-2.188,1.43C339.995,393.9,339.191,394.437,339.414,399.797z"/>
<rect x="325.432" y="362.407" opacity="0.4" fill="#FFFFFF" enable-background="new    " width="42.572" height="64.729"/>
<g id="Ebene_3">
</g>
</svg>
