<?xml version="1.0" encoding="utf-8"?>
<!-- Generator: Adobe Illustrator 16.0.0, SVG Export Plug-In . SVG Version: 6.00 Build 0)  -->
<!DOCTYPE svg PUBLIC "-//W3C//DTD SVG 1.1//EN" "http://www.w3.org/Graphics/SVG/1.1/DTD/svg11.dtd">
<svg version="1.1" id="Ebene_1" xmlns="http://www.w3.org/2000/svg" xmlns:xlink="http://www.w3.org/1999/xlink" x="0px" y="0px"
	 width="156.486px" height="102.393px" viewBox="39.845 342.705 156.486 102.393"
	 enable-background="new 39.845 342.705 156.486 102.393" xml:space="preserve">
<g id="Ebene_1_1_">
</g>
<g>
	<g>
		<circle fill="#FFFFFF" stroke="#CDA5B4" stroke-width="0.8083" stroke-miterlimit="10" cx="91.264" cy="393.945" r="47.664"/>
		<path fill="#DEC0CA" stroke="#CDA5B4" stroke-width="0.8083" stroke-miterlimit="10" d="M91.041,343.109
			c-28.054,0-50.792,22.738-50.792,50.792c0,28.054,22.738,50.792,50.792,50.792s50.792-22.738,50.792-50.792
			C141.833,365.847,119.05,343.109,91.041,343.109z M91.041,440.18c-25.552,0-46.235-20.728-46.235-46.234
			c0-25.508,20.683-46.28,46.235-46.28c25.552,0,46.235,20.728,46.235,46.235C137.275,419.408,116.548,440.18,91.041,440.18z"/>
	</g>
	<g>
		<rect x="151.615" y="356.555" fill="#666666" width="44.716" height="75.406"/>
		<rect x="153.894" y="364.149" fill="#F0F0F0" width="40.204" height="58.564"/>
		<g>
			<path d="M168.635,361.469h10.676c0.313,0,0.581-0.268,0.581-0.581v-0.223c0-0.313-0.268-0.581-0.581-0.581h-10.676
				c-0.313,0-0.581,0.268-0.581,0.581v0.223C168.054,361.201,168.322,361.469,168.635,361.469z"/>
			<circle cx="173.996" cy="427.538" r="2.681"/>
		</g>
	</g>
	<g>
		<rect x="69.598" y="356.555" fill="#666666" width="44.716" height="75.406"/>
		
			<rect x="71.832" y="364.149" fill="#F0F0F0" stroke="#666666" stroke-width="0.88" stroke-miterlimit="10" width="40.204" height="58.564"/>
		<g>
			<path d="M86.618,361.469h10.676c0.313,0,0.581-0.268,0.581-0.581v-0.223c0-0.313-0.268-0.581-0.581-0.581H86.618
				c-0.313,0-0.581,0.268-0.581,0.581v0.223C85.993,361.201,86.261,361.469,86.618,361.469z"/>
			<circle cx="91.934" cy="427.538" r="2.681"/>
		</g>
	</g>
	
		<rect x="76.299" y="413.512" fill="#FFFFFF" stroke="#666666" stroke-width="0.8446" stroke-miterlimit="10" width="31.315" height="6.209"/>
	<g enable-background="new    ">
		<path fill="#666666" d="M83.134,415.521h0.223l0.938,2.277h-0.313l-0.268-0.67h-0.938l-0.268,0.67h-0.313L83.134,415.521z
			 M83.67,416.906l-0.402-1.072l-0.402,1.072H83.67z"/>
		<path fill="#666666" d="M84.608,417.8v-2.278h0.804c0.179,0,0.357,0.046,0.491,0.09c0.134,0.045,0.268,0.135,0.357,0.224
			c0.089,0.09,0.179,0.224,0.223,0.357c0.045,0.134,0.089,0.269,0.089,0.446c0,0.179-0.044,0.313-0.089,0.491
			c-0.044,0.134-0.134,0.269-0.223,0.357c-0.089,0.089-0.223,0.179-0.357,0.223c-0.134,0.045-0.268,0.09-0.447,0.09H84.608
			L84.608,417.8z M86.216,416.639c0-0.135,0-0.269-0.044-0.356c-0.044-0.09-0.089-0.179-0.179-0.27
			c-0.089-0.089-0.134-0.134-0.268-0.179c-0.089-0.045-0.223-0.045-0.357-0.045h-0.491v1.742h0.491c0.134,0,0.268-0.044,0.357-0.089
			s0.179-0.091,0.268-0.18c0.089-0.09,0.134-0.179,0.134-0.268C86.171,416.906,86.216,416.772,86.216,416.639z"/>
		<path fill="#666666" d="M86.886,417.8v-2.278h0.804c0.179,0,0.357,0.046,0.491,0.09c0.134,0.045,0.268,0.135,0.357,0.224
			c0.089,0.09,0.179,0.224,0.223,0.357c0.045,0.134,0.089,0.269,0.089,0.446c0,0.179-0.044,0.313-0.089,0.491
			c-0.044,0.134-0.134,0.269-0.223,0.357s-0.224,0.179-0.357,0.223c-0.134,0.045-0.268,0.09-0.447,0.09H86.886L86.886,417.8z
			 M88.494,416.639c0-0.135,0-0.269-0.044-0.356c-0.045-0.09-0.089-0.179-0.179-0.27c-0.089-0.089-0.134-0.134-0.268-0.179
			c-0.089-0.045-0.223-0.045-0.357-0.045h-0.491v1.742h0.491c0.134,0,0.268-0.044,0.357-0.089s0.179-0.091,0.268-0.18
			c0.089-0.09,0.134-0.179,0.134-0.268C88.494,416.906,88.494,416.772,88.494,416.639z"/>
		<path fill="#666666" d="M90.013,417.8v-2.278h0.804c0.179,0,0.357,0.046,0.491,0.09c0.134,0.045,0.268,0.135,0.357,0.224
			c0.089,0.09,0.179,0.224,0.223,0.357c0.045,0.134,0.089,0.269,0.089,0.446c0,0.179-0.044,0.313-0.089,0.491
			c-0.044,0.134-0.134,0.269-0.223,0.357s-0.223,0.179-0.357,0.223c-0.134,0.045-0.268,0.09-0.447,0.09H90.013L90.013,417.8z
			 M91.621,416.639c0-0.135,0-0.269-0.044-0.356c-0.045-0.09-0.089-0.179-0.179-0.27c-0.089-0.089-0.134-0.134-0.268-0.179
			c-0.089-0.045-0.223-0.045-0.357-0.045h-0.491v1.742h0.491c0.134,0,0.268-0.044,0.357-0.089c0.089-0.045,0.179-0.091,0.268-0.18
			c0.089-0.09,0.134-0.179,0.134-0.268C91.577,416.906,91.621,416.772,91.621,416.639z"/>
		<path fill="#666666" d="M93.855,417.531v0.269h-1.563v-2.277h1.519v0.268h-1.206v0.715h1.072v0.224h-1.072v0.805h1.25V417.531z"/>
		<path fill="#666666" d="M94.302,415.521l0.759,1.921l0.759-1.921h0.313l-0.938,2.277h-0.268l-0.938-2.277H94.302z"/>
		<path fill="#666666" d="M96.401,417.8v-2.278h0.268v2.278H96.401z"/>
		<path fill="#666666" d="M97.116,416.639c0-0.135,0.045-0.269,0.089-0.401c0.045-0.135,0.134-0.27,0.224-0.357
			c0.089-0.09,0.223-0.179,0.357-0.269c0.134-0.044,0.268-0.089,0.447-0.089c0.223,0,0.357,0.045,0.536,0.134
			c0.134,0.09,0.268,0.224,0.313,0.356l-0.224,0.135c-0.044-0.09-0.089-0.135-0.134-0.18c-0.045-0.044-0.089-0.089-0.179-0.134
			c-0.045-0.045-0.134-0.045-0.179-0.045c-0.045,0-0.134,0-0.179,0c-0.134,0-0.223,0.045-0.313,0.09s-0.179,0.134-0.224,0.224
			c-0.044,0.09-0.134,0.18-0.134,0.269c0,0.09-0.045,0.224-0.045,0.313c0,0.136,0,0.225,0.045,0.357
			c0.044,0.134,0.089,0.224,0.179,0.269c0.089,0.044,0.134,0.135,0.268,0.18c0.089,0.044,0.179,0.089,0.313,0.089
			c0.045,0,0.134,0,0.179,0s0.134-0.045,0.179-0.089c0.044-0.045,0.089-0.09,0.179-0.136c0.089-0.044,0.089-0.089,0.134-0.179
			l0.224,0.135c-0.045,0.09-0.089,0.18-0.134,0.224c-0.044,0.045-0.134,0.135-0.223,0.179c-0.089,0.045-0.179,0.09-0.268,0.09
			s-0.179,0.045-0.268,0.045c-0.134,0-0.313-0.045-0.447-0.09c-0.134-0.089-0.223-0.179-0.357-0.268
			c-0.134-0.09-0.179-0.225-0.223-0.357C97.116,416.951,97.116,416.772,97.116,416.639z"/>
		<path fill="#666666" d="M101.002,417.531v0.269h-1.563v-2.277h1.519v0.268h-1.206v0.715h1.072v0.224h-1.072v0.805h1.25V417.531z"
			/>
	</g>
	
		<rect x="158.316" y="413.512" fill="#FFFFFF" stroke="#666666" stroke-width="0.8446" stroke-miterlimit="10" width="31.315" height="6.209"/>
	<g enable-background="new    ">
		<path fill="#666666" d="M168.501,415.521h0.224l0.938,2.277h-0.313l-0.268-0.67h-0.938l-0.268,0.67h-0.313L168.501,415.521z
			 M169.037,416.906l-0.402-1.072l-0.402,1.072H169.037z"/>
		<path fill="#666666" d="M169.752,416.639c0-0.135,0.044-0.269,0.089-0.401c0.044-0.135,0.134-0.27,0.223-0.357
			c0.089-0.09,0.224-0.179,0.357-0.269c0.134-0.044,0.268-0.089,0.447-0.089c0.223,0,0.357,0.045,0.536,0.134
			c0.134,0.09,0.268,0.224,0.313,0.356l-0.223,0.135c-0.045-0.09-0.089-0.135-0.134-0.18c-0.044-0.044-0.089-0.089-0.179-0.134
			c-0.044-0.045-0.134-0.045-0.179-0.045c-0.044,0-0.134,0-0.179,0c-0.134,0-0.223,0.045-0.313,0.09
			c-0.09,0.045-0.179,0.134-0.223,0.224c-0.045,0.09-0.134,0.18-0.134,0.269c0,0.09-0.044,0.224-0.044,0.313
			c0,0.136,0,0.225,0.044,0.357c0.045,0.134,0.089,0.224,0.179,0.269c0.089,0.044,0.134,0.135,0.268,0.18
			c0.089,0.044,0.179,0.089,0.313,0.089c0.045,0,0.134,0,0.179,0c0.045,0,0.134-0.045,0.179-0.089
			c0.045-0.045,0.089-0.09,0.179-0.136c0.089-0.044,0.089-0.089,0.134-0.179l0.223,0.135c-0.044,0.09-0.089,0.18-0.134,0.224
			c-0.045,0.045-0.134,0.135-0.224,0.179c-0.089,0.045-0.179,0.09-0.268,0.09c-0.089,0-0.179,0.045-0.268,0.045
			c-0.134,0-0.313-0.045-0.446-0.09c-0.134-0.089-0.224-0.179-0.357-0.268c-0.134-0.09-0.179-0.225-0.224-0.357
			C169.796,416.951,169.752,416.772,169.752,416.639z"/>
		<path fill="#666666" d="M171.941,416.639c0-0.135,0.044-0.269,0.089-0.401c0.044-0.135,0.134-0.27,0.223-0.357
			c0.089-0.09,0.223-0.179,0.357-0.269c0.134-0.044,0.268-0.089,0.447-0.089c0.223,0,0.357,0.045,0.536,0.134
			c0.134,0.09,0.268,0.224,0.313,0.356l-0.223,0.135c-0.045-0.09-0.089-0.135-0.134-0.18c-0.044-0.044-0.089-0.089-0.179-0.134
			c-0.044-0.045-0.134-0.045-0.179-0.045c-0.044,0-0.134,0-0.179,0c-0.134,0-0.223,0.045-0.313,0.09
			c-0.09,0.045-0.179,0.134-0.224,0.224c-0.044,0.09-0.134,0.18-0.134,0.269c0,0.09-0.044,0.224-0.044,0.313
			c0,0.136,0,0.225,0.044,0.357c0.045,0.134,0.089,0.224,0.179,0.269c0.089,0.044,0.134,0.135,0.268,0.18
			c0.089,0.044,0.179,0.089,0.313,0.089c0.045,0,0.134,0,0.179,0c0.045,0,0.134-0.045,0.179-0.089
			c0.045-0.045,0.089-0.09,0.179-0.136c0.089-0.044,0.089-0.089,0.134-0.179l0.223,0.135c-0.044,0.09-0.089,0.18-0.134,0.224
			c-0.045,0.045-0.134,0.135-0.224,0.179c-0.089,0.045-0.179,0.09-0.268,0.09c-0.089,0-0.179,0.045-0.268,0.045
			c-0.134,0-0.313-0.045-0.447-0.09c-0.134-0.089-0.223-0.179-0.357-0.268c-0.134-0.09-0.179-0.225-0.224-0.357
			C171.941,416.951,171.941,416.772,171.941,416.639z"/>
		<path fill="#666666" d="M175.783,417.531v0.269h-1.564v-2.277h1.519v0.268h-1.206v0.715h1.072v0.224h-1.072v0.805h1.251V417.531z"
			/>
		<path fill="#666666" d="M176.185,417.8v-2.278h0.938c0.089,0,0.179,0,0.268,0.046c0.089,0.044,0.179,0.089,0.224,0.179
			c0.044,0.089,0.089,0.134,0.134,0.223c0.044,0.09,0.044,0.18,0.044,0.27c0,0.089,0,0.179-0.044,0.268
			c-0.045,0.09-0.089,0.179-0.134,0.225c-0.045,0.09-0.134,0.134-0.224,0.179c-0.09,0.045-0.179,0.045-0.268,0.045h-0.67v0.804
			L176.185,417.8L176.185,417.8z M176.497,416.728h0.67c0.044,0,0.134,0,0.179-0.045c0.044-0.044,0.089-0.044,0.134-0.089
			s0.045-0.09,0.089-0.134c0.045-0.045,0.045-0.135,0.045-0.179c0-0.045,0-0.135-0.045-0.18c-0.044-0.045-0.044-0.09-0.089-0.135
			c-0.044-0.044-0.089-0.089-0.134-0.089c-0.045-0.045-0.089-0.045-0.179-0.045h-0.625v0.894L176.497,416.728L176.497,416.728z"/>
		<path fill="#666666" d="M179.848,415.789h-0.804v2.011h-0.268v-2.011h-0.804v-0.268h1.876V415.789L179.848,415.789z"/>
	</g>
	<g>
		<g>
			<rect x="161.488" y="386.842" fill="none" stroke="#666666" stroke-miterlimit="10" width="24.569" height="15.635"/>
			<polygon fill="#BCBEBE" stroke="#666666" stroke-linejoin="round" stroke-miterlimit="10" points="161.488,386.842 
				174.487,394.705 186.28,386.842 			"/>
		</g>
		<g>
			<circle fill="#DEC0CA" stroke="#CDA5B4" stroke-width="0.88" stroke-miterlimit="10" cx="186.28" cy="384.653" r="4.958"/>
			<g enable-background="new    ">
				<path d="M188.246,385.859v1.028h-3.439v-1.028h1.206v-2.546c-0.044,0.089-0.134,0.134-0.223,0.223s-0.224,0.134-0.357,0.179
					c-0.134,0.044-0.268,0.134-0.402,0.134c-0.134,0.045-0.268,0.045-0.357,0.045v-1.072c0.09,0,0.224-0.044,0.357-0.089
					c0.134-0.044,0.268-0.134,0.447-0.223c0.134-0.089,0.268-0.179,0.357-0.268c0.089-0.089,0.179-0.134,0.179-0.224h1.162v3.797
					h1.072v0.044H188.246z"/>
			</g>
		</g>
	</g>
	<polygon fill="#BCBEBE" stroke="#666666" stroke-miterlimit="10" points="146.299,391.756 138.258,391.756 138.258,384.162 
		130.217,384.162 130.217,391.756 122.624,391.756 122.624,399.797 130.217,399.797 130.217,407.392 138.258,407.392 
		138.258,399.797 146.299,399.797 	"/>
	<g enable-background="new    ">
		<path d="M94.034,383.358c-0.76,0.402-1.563,0.581-2.502,0.581c-2.278,0-4.244-1.697-4.244-4.377c0-2.904,2.01-5.361,5.093-5.361
			c2.457,0,4.065,1.698,4.065,4.065c0,2.099-1.162,3.35-2.501,3.35c-0.581,0-1.072-0.357-1.027-1.251l0,0
			c-0.492,0.804-1.117,1.251-1.966,1.251c-0.804,0-1.519-0.67-1.519-1.742c0-1.742,1.385-3.306,3.306-3.306
			c0.581,0,1.117,0.134,1.519,0.313l-0.491,2.546c-0.224,1.072-0.045,1.563,0.402,1.563c0.715,0,1.519-0.938,1.519-2.546
			c0-2.01-1.206-3.484-3.395-3.484c-2.278,0-4.199,1.787-4.199,4.646c0,2.323,1.519,3.797,3.618,3.797
			c0.804,0,1.519-0.179,2.1-0.492L94.034,383.358z M93.274,377.327c-0.134-0.044-0.357-0.089-0.714-0.089
			c-1.251,0-2.234,1.162-2.234,2.502c0,0.625,0.313,1.072,0.938,1.072c0.804,0,1.563-1.027,1.697-1.921L93.274,377.327z"/>
	</g>
	<g>
		
			<linearGradient id="SVGID_1_" gradientUnits="userSpaceOnUse" x1="204.4663" y1="602.8555" x2="204.4663" y2="624.3859" gradientTransform="matrix(0.4467 0 0 0.4467 0.5535 128.9824)">
			<stop  offset="0" style="stop-color:#42BCE8"/>
			<stop  offset="1" style="stop-color:#23A7DC"/>
		</linearGradient>
		<circle fill="url(#SVGID_1_)" cx="91.889" cy="403.103" r="4.825"/>
		<g>
			<path fill="#FFFFFF" d="M94.212,401.048l-0.849,4.333c0,0-0.134,0.313-0.446,0.179l-2.01-1.519l-0.715-0.357l-1.206-0.401
				c0,0-0.179-0.045-0.224-0.224c0-0.135,0.224-0.224,0.224-0.224l4.824-1.921C93.81,400.959,94.212,400.78,94.212,401.048z"/>
			<path fill="#D2E5F1" d="M90.772,405.336c0,0-0.044,0-0.134-0.223c-0.089-0.225-0.447-1.431-0.447-1.431l2.904-1.876
				c0,0,0.178-0.09,0.178,0c0,0,0.045,0-0.044,0.09s-2.278,2.055-2.278,2.055"/>
			<path fill="#B5CFE4" d="M91.666,404.621l-0.804,0.715c0,0-0.044,0.045-0.134,0l0.134-1.34"/>
		</g>
	</g>
	<g>
		<g>
			<g>
				<g>
					<g>
						<g>
							<defs>
								<path id="SVGID_2_" d="M91.889,394.838L91.889,394.838c-0.67,0-1.34-0.179-1.921-0.536l-0.134-0.089l-1.43,0.357
									l0.402-1.385l-0.089-0.134c-0.357-0.625-0.581-1.295-0.581-2.01c0-2.1,1.698-3.797,3.797-3.797
									c1.027,0,1.965,0.402,2.68,1.117c0.715,0.714,1.117,1.653,1.117,2.68C95.687,393.096,93.989,394.838,91.889,394.838z"/>
							</defs>
							<clipPath id="SVGID_3_">
								<use xlink:href="#SVGID_2_"  overflow="visible"/>
							</clipPath>
							<g clip-path="url(#SVGID_3_)" enable-background="new    ">
								<g>
									<g>
										
											<linearGradient id="SVGID_4_" gradientUnits="userSpaceOnUse" x1="204.2441" y1="-5758.7969" x2="204.2441" y2="-5787.271" gradientTransform="matrix(0.4467 0 0 -0.4467 0.5428 -2187.7637)">
											<stop  offset="0" style="stop-color:#61FD7D"/>
											<stop  offset="1" style="stop-color:#2BB826"/>
										</linearGradient>
										<path id="SVGID_9_" fill="url(#SVGID_4_)" d="M98.099,394.302c0,0.089,0,0.224,0,0.357c0,0.268-0.044,0.67-0.089,0.804
											c-0.044,0.268-0.134,0.491-0.223,0.67c-0.134,0.225-0.268,0.447-0.447,0.626c-0.179,0.18-0.402,0.313-0.625,0.446
											c-0.179,0.09-0.447,0.179-0.67,0.224c-0.179,0.045-0.536,0.045-0.804,0.045c-0.134,0-0.268,0-0.357,0H88.63
											c-0.089,0-0.224,0-0.357,0c-0.268,0-0.67-0.045-0.804-0.09c-0.268-0.045-0.491-0.134-0.67-0.224
											c-0.224-0.134-0.447-0.269-0.625-0.446c-0.178-0.178-0.313-0.401-0.447-0.625c-0.089-0.179-0.179-0.447-0.223-0.67
											c-0.045-0.179-0.045-0.536-0.045-0.804c0-0.134,0-0.268,0-0.357v-6.254c0-0.089,0-0.224,0-0.357
											c0-0.268,0.045-0.67,0.089-0.804c0.045-0.268,0.134-0.491,0.224-0.67c0.134-0.224,0.268-0.447,0.446-0.625
											c0.179-0.179,0.402-0.313,0.625-0.447c0.179-0.089,0.447-0.179,0.67-0.223c0.179-0.045,0.536-0.045,0.804-0.045
											c0.134,0,0.268,0,0.357,0h6.254c0.089,0,0.223,0,0.357,0c0.268,0,0.67,0.045,0.804,0.089
											c0.268,0.045,0.492,0.134,0.67,0.224c0.223,0.134,0.446,0.268,0.625,0.446c0.179,0.179,0.313,0.402,0.447,0.625
											c0.089,0.179,0.179,0.447,0.224,0.67c0.044,0.178,0.044,0.536,0.044,0.804c0,0.134,0,0.268,0,0.357V394.302z"/>
									</g>
								</g>
							</g>
						</g>
					</g>
				</g>
			</g>
		</g>
		<g id="logo_8_">
			<g>
				<g>
					<path fill="#FFFFFF" stroke="#FFFFFF" stroke-width="0.1167" stroke-miterlimit="10" d="M95.105,387.78
						c-0.849-0.849-2.01-1.34-3.216-1.34c-2.501,0-4.556,2.055-4.556,4.556c0,0.804,0.223,1.608,0.625,2.278l-0.625,2.368
						l2.412-0.625c0.67,0.357,1.43,0.536,2.189,0.536l0,0l0,0c2.501,0,4.557-2.055,4.557-4.557
						C96.446,389.791,95.999,388.674,95.105,387.78z M91.889,394.838L91.889,394.838c-0.67,0-1.34-0.179-1.921-0.536l-0.134-0.089
						l-1.43,0.357l0.402-1.385l-0.089-0.134c-0.357-0.625-0.581-1.295-0.581-2.01c0-2.1,1.698-3.797,3.797-3.797
						c1.027,0,1.965,0.402,2.68,1.117c0.715,0.714,1.117,1.653,1.117,2.68C95.687,393.096,93.989,394.838,91.889,394.838z
						 M93.989,391.979c-0.134-0.044-0.67-0.313-0.759-0.357s-0.179-0.044-0.268,0.045c-0.089,0.134-0.313,0.357-0.357,0.447
						c-0.044,0.089-0.134,0.089-0.268,0.044c-0.134-0.044-0.491-0.179-0.938-0.581c-0.357-0.313-0.581-0.67-0.625-0.804
						c-0.044-0.134,0-0.179,0.045-0.224c0.044-0.044,0.134-0.134,0.179-0.178c0.044-0.045,0.089-0.134,0.134-0.179
						c0.045-0.089,0-0.134,0-0.179c-0.044-0.045-0.268-0.625-0.357-0.849c-0.089-0.223-0.179-0.179-0.268-0.179
						c-0.044,0-0.134,0-0.223,0c-0.089,0-0.179,0.045-0.313,0.134c-0.134,0.089-0.402,0.402-0.402,0.938
						c0,0.581,0.402,1.117,0.447,1.162c0.044,0.089,0.804,1.206,1.965,1.742c0.268,0.134,0.492,0.179,0.67,0.223
						c0.268,0.089,0.536,0.089,0.714,0.045c0.224-0.045,0.67-0.268,0.76-0.536s0.089-0.491,0.044-0.536
						C94.167,392.069,94.078,392.024,93.989,391.979z"/>
				</g>
			</g>
		</g>
	</g>
	<g id="Ebene_3">
	</g>
</g>
</svg>
