<?xml version="1.0" encoding="utf-8"?>
<!-- Generator: Adobe Illustrator 16.0.0, SVG Export Plug-In . SVG Version: 6.00 Build 0)  -->
<!DOCTYPE svg PUBLIC "-//W3C//DTD SVG 1.1//EN" "http://www.w3.org/Graphics/SVG/1.1/DTD/svg11.dtd">
<svg version="1.1" id="Ebene_1" xmlns="http://www.w3.org/2000/svg" xmlns:xlink="http://www.w3.org/1999/xlink" x="0px" y="0px"
	 width="151.963px" height="151.381px" viewBox="412.122 319.773 151.963 151.381"
	 enable-background="new 412.122 319.773 151.963 151.381" xml:space="preserve">
<g id="Ebene_1_1_">
</g>
<g>
	<circle fill="#FFFFFF" stroke="#CDA5B4" stroke-width="1.1952" stroke-miterlimit="10" cx="488.707" cy="395.553" r="70.492"/>
	<path fill="#DEC0CA" stroke="#CDA5B4" stroke-width="1.1952" stroke-miterlimit="10" d="M488.394,320.371
		c-41.454,0-75.093,33.638-75.093,75.093s33.639,75.093,75.094,75.093s75.093-33.638,75.093-75.093S529.849,320.371,488.394,320.371
		z M488.394,463.9c-37.792,0-68.392-30.646-68.392-68.393c0-37.748,30.646-68.392,68.392-68.392
		c37.748,0,68.394,30.645,68.394,68.392C556.786,433.256,526.186,463.9,488.394,463.9z"/>
</g>
<rect x="439.657" y="367.857" fill="#666666" width="31.313" height="52.801"/>
<rect x="441.266" y="373.173" fill="#F0F0F0" width="28.144" height="41.009"/>
<g>
	<path d="M451.629,371.297h7.326c0.269,0,0.491-0.224,0.491-0.492l0,0c0-0.268-0.224-0.491-0.491-0.491h-7.326
		c-0.268,0-0.491,0.223-0.491,0.491l0,0C451.138,371.073,451.361,371.297,451.629,371.297z"/>
	<circle cx="455.292" cy="417.532" r="1.876"/>
</g>
<path fill="#DEC0CA" stroke="#CDA5B4" stroke-width="1.1952" stroke-miterlimit="10" d="M487.813,320.371
	c-41.454,0-75.093,33.638-75.093,75.093s33.639,75.093,75.093,75.093c41.455,0,75.094-33.638,75.094-75.093
	S529.313,320.371,487.813,320.371z M487.813,463.9c-37.791,0-68.393-30.646-68.393-68.393c0-37.748,30.646-68.437,68.393-68.437
	s68.393,30.645,68.393,68.392C556.205,433.211,525.605,463.9,487.813,463.9z"/>
<g>
	<rect x="477.628" y="347.71" fill="#666666" width="55.214" height="93.141"/>
	<rect x="480.397" y="357.091" fill="#F0F0F0" width="49.675" height="72.368"/>
</g>
<g>
	<path fill="#DEC0CA" stroke="#CDA5B4" stroke-width="0.7487" stroke-miterlimit="10" d="M455.516,390.059
		c-0.581,0-1.475,0-1.966-0.268c-0.446-0.268-2.232-0.983-3.752-0.044c-1.519,0.938-2.502,2.948-2.278,4.154
		c0.225,1.206,1.072,2.903,2.502,3.172c1.43,0.268,3.307-0.67,3.977-0.983c0.67-0.312,2.01-0.312,2.77,0.179
		c0.805,0.492,3.307,1.563,4.824-0.089c1.476-1.653,1.43-3.261,1.296-3.887c-0.135-0.625-0.805-3.306-3.483-3.127
		c0,0-1.476,0.089-2.189,0.625C457.169,389.746,456.097,390.014,455.516,390.059z"/>
	<path fill="#CDA5B4" d="M455.158,392.337c-2.546,0-4.603,1.474-4.603,3.306c0,1.832,2.057,3.306,4.603,3.306
		s4.602-1.475,4.602-3.306C459.804,393.811,457.749,392.337,455.158,392.337z M455.158,398.188c-1.966,0-3.573-1.16-3.573-2.545
		c0-1.43,1.607-2.546,3.573-2.546s3.574,1.162,3.574,2.546C458.776,397.027,457.169,398.188,455.158,398.188z"/>
	
		<ellipse fill="#FFFFFF" stroke="#CDA5B4" stroke-width="0.5563" stroke-miterlimit="10" cx="455.203" cy="393.23" rx="2.813" ry="2.144"/>
</g>
<g>
	<path d="M498.534,353.785h13.491c0.313,0,0.58-0.268,0.58-0.581v-0.581c0-0.313-0.269-0.581-0.58-0.581h-13.491
		c-0.313,0-0.581,0.268-0.581,0.581v0.581C497.909,353.518,498.177,353.785,498.534,353.785z"/>
	<circle cx="505.235" cy="435.355" r="3.306"/>
</g>
<rect x="486.25" y="407.168" fill="#4E5880" stroke="#FFFFFF" stroke-width="1.4758" stroke-miterlimit="10" width="38.015" height="15.322"/>
<g enable-background="new    ">
	<path fill="#FFFFFF" d="M495.631,412.707c0-0.179,0.045-0.357,0.089-0.491c0.045-0.179,0.134-0.313,0.27-0.446
		c0.134-0.135,0.268-0.224,0.445-0.313c0.18-0.089,0.357-0.134,0.581-0.134c0.269,0,0.491,0.045,0.67,0.179
		c0.18,0.134,0.313,0.27,0.402,0.446l-0.269,0.179c-0.044-0.089-0.089-0.179-0.135-0.223c-0.045-0.045-0.134-0.09-0.179-0.135
		c-0.089-0.045-0.134-0.045-0.224-0.09c-0.089-0.045-0.134-0.045-0.224-0.045c-0.179,0-0.313,0.045-0.401,0.09
		c-0.134,0.045-0.225,0.135-0.313,0.269c-0.09,0.09-0.135,0.224-0.179,0.356c-0.045,0.135-0.045,0.27-0.045,0.402
		s0.045,0.313,0.089,0.446c0.045,0.134,0.135,0.269,0.224,0.356c0.091,0.09,0.18,0.18,0.313,0.27
		c0.135,0.089,0.269,0.089,0.402,0.089c0.089,0,0.134,0,0.224-0.045c0.089,0,0.134-0.044,0.223-0.089
		c0.09-0.045,0.136-0.09,0.225-0.18c0.045-0.045,0.134-0.134,0.134-0.224l0.313,0.179c-0.045,0.09-0.09,0.225-0.179,0.27
		c-0.09,0.089-0.179,0.134-0.269,0.223c-0.089,0.045-0.225,0.09-0.313,0.135c-0.134,0.044-0.224,0.044-0.356,0.044
		c-0.18,0-0.357-0.044-0.536-0.134c-0.18-0.089-0.313-0.179-0.402-0.356c-0.134-0.135-0.223-0.313-0.268-0.491
		C495.631,413.064,495.631,412.886,495.631,412.707z"/>
	<path fill="#FFFFFF" d="M499.651,414.182c-0.18,0-0.402-0.045-0.536-0.135c-0.18-0.089-0.313-0.179-0.402-0.313
		c-0.089-0.135-0.224-0.269-0.268-0.446c-0.045-0.179-0.09-0.357-0.09-0.536s0.045-0.357,0.09-0.536
		c0.089-0.179,0.179-0.313,0.268-0.446c0.09-0.135,0.27-0.224,0.447-0.313c0.179-0.089,0.356-0.134,0.535-0.134
		s0.401,0.045,0.536,0.134c0.135,0.09,0.313,0.179,0.401,0.313c0.09,0.135,0.225,0.313,0.27,0.446
		c0.044,0.179,0.089,0.357,0.089,0.536s-0.045,0.357-0.089,0.536c-0.09,0.179-0.18,0.313-0.27,0.446
		c-0.134,0.134-0.268,0.224-0.446,0.313C500.053,414.137,499.874,414.182,499.651,414.182z M498.668,412.707
		c0,0.134,0.045,0.269,0.09,0.402c0.045,0.133,0.134,0.268,0.179,0.356c0.09,0.089,0.18,0.179,0.313,0.269s0.268,0.09,0.402,0.09
		c0.134,0,0.268-0.045,0.4-0.09c0.135-0.045,0.225-0.135,0.313-0.269c0.089-0.09,0.134-0.224,0.179-0.356
		c0.044-0.135,0.044-0.27,0.044-0.402s-0.044-0.268-0.089-0.402c-0.045-0.134-0.134-0.268-0.179-0.356
		c-0.09-0.089-0.18-0.179-0.313-0.269c-0.135-0.045-0.269-0.09-0.401-0.09c-0.134,0-0.269,0.045-0.402,0.09
		s-0.223,0.135-0.313,0.269c-0.089,0.09-0.134,0.224-0.179,0.356C498.713,412.439,498.668,412.573,498.668,412.707z"/>
	<path fill="#FFFFFF" d="M501.885,411.992v2.188h-0.356v-2.858h0.268l1.787,2.232v-2.232h0.357v2.858h-0.313L501.885,411.992z"/>
	<path fill="#FFFFFF" d="M504.967,411.992v2.188h-0.356v-2.858h0.269l1.786,2.232v-2.232h0.357v2.858h-0.313L504.967,411.992z"/>
	<path fill="#FFFFFF" d="M509.613,413.824v0.313h-1.921v-2.858h1.876v0.313h-1.521v0.938h1.341v0.313h-1.341v0.983L509.613,413.824
		L509.613,413.824z"/>
	<path fill="#FFFFFF" d="M509.881,412.707c0-0.179,0.045-0.357,0.09-0.491c0.044-0.179,0.135-0.313,0.269-0.446
		c0.134-0.135,0.268-0.224,0.445-0.313c0.18-0.089,0.357-0.134,0.581-0.134c0.27,0,0.491,0.045,0.67,0.179
		c0.18,0.134,0.313,0.27,0.402,0.446l-0.268,0.179c-0.045-0.089-0.09-0.179-0.136-0.223c-0.045-0.045-0.134-0.09-0.179-0.135
		c-0.089-0.045-0.134-0.045-0.223-0.09c-0.09,0-0.135-0.045-0.225-0.045c-0.179,0-0.313,0.045-0.401,0.09
		c-0.134,0.045-0.225,0.135-0.313,0.269c-0.09,0.09-0.134,0.224-0.179,0.356c-0.045,0.134-0.045,0.27-0.045,0.402
		s0.045,0.313,0.09,0.446c0.044,0.134,0.134,0.269,0.223,0.356c0.091,0.09,0.18,0.18,0.313,0.27
		c0.134,0.089,0.268,0.089,0.401,0.089c0.09,0,0.135,0,0.224-0.045c0.089,0,0.134-0.044,0.224-0.089
		c0.089-0.045,0.134-0.09,0.224-0.18c0.045-0.045,0.135-0.134,0.135-0.224l0.313,0.179c-0.045,0.09-0.09,0.225-0.179,0.27
		c-0.09,0.089-0.179,0.134-0.269,0.223c-0.09,0.045-0.224,0.09-0.313,0.135c-0.089,0.044-0.223,0.044-0.356,0.044
		c-0.18,0-0.357-0.044-0.536-0.134c-0.18-0.089-0.313-0.179-0.401-0.356c-0.135-0.135-0.224-0.313-0.269-0.491
		C509.926,413.064,509.881,412.886,509.881,412.707z"/>
	<path fill="#FFFFFF" d="M514.84,411.635h-0.982v2.547H513.5v-2.547h-0.982v-0.313h2.323L514.84,411.635L514.84,411.635z"/>
</g>
<g enable-background="new    ">
	<path fill="#FFFFFF" d="M499.025,416.46h-0.982v2.546h-0.357v-2.546h-0.981v-0.357h2.322L499.025,416.46L499.025,416.46z"/>
	<path fill="#FFFFFF" d="M500.5,419.006c-0.179,0-0.402-0.045-0.536-0.134c-0.179-0.09-0.313-0.179-0.402-0.313
		c-0.089-0.135-0.223-0.269-0.268-0.446c-0.045-0.179-0.09-0.357-0.09-0.536s0.045-0.357,0.09-0.536
		c0.089-0.179,0.179-0.313,0.268-0.446c0.091-0.134,0.27-0.224,0.447-0.313c0.179-0.09,0.357-0.135,0.536-0.135
		s0.401,0.045,0.535,0.135c0.179,0.089,0.313,0.179,0.402,0.313s0.224,0.313,0.269,0.446c0.044,0.179,0.089,0.357,0.089,0.536
		s-0.045,0.356-0.089,0.536c-0.09,0.179-0.179,0.313-0.269,0.446c-0.135,0.135-0.269,0.224-0.446,0.313
		C500.857,418.961,500.679,419.006,500.5,419.006z M499.517,417.531c0,0.135,0.046,0.269,0.091,0.401
		c0.045,0.134,0.134,0.27,0.179,0.357c0.089,0.09,0.179,0.179,0.313,0.269c0.135,0.09,0.27,0.09,0.402,0.09s0.268-0.046,0.402-0.09
		c0.134-0.045,0.223-0.135,0.313-0.269c0.089-0.089,0.134-0.224,0.179-0.357s0.045-0.268,0.045-0.401s-0.045-0.269-0.09-0.401
		s-0.134-0.269-0.179-0.356c-0.09-0.091-0.179-0.18-0.313-0.27c-0.135-0.044-0.27-0.089-0.402-0.089s-0.269,0.045-0.402,0.089
		c-0.134,0.045-0.223,0.135-0.313,0.27c-0.089,0.089-0.134,0.224-0.179,0.356C499.563,417.264,499.517,417.397,499.517,417.531z"/>
	<path fill="#FFFFFF" d="M505.548,418.246c0,0.09,0,0.224-0.045,0.313c-0.045,0.09-0.089,0.18-0.179,0.224
		c-0.089,0.045-0.18,0.134-0.269,0.134c-0.09,0.045-0.224,0.045-0.313,0.045h-1.341v-2.858h1.43c0.089,0,0.179,0,0.268,0.045
		c0.091,0.045,0.136,0.09,0.225,0.179c0.045,0.09,0.09,0.135,0.134,0.224c0.045,0.09,0.045,0.179,0.045,0.27
		c0,0.134-0.045,0.268-0.089,0.4c-0.045,0.134-0.179,0.225-0.313,0.27c0.18,0.044,0.313,0.134,0.402,0.268
		C505.503,417.889,505.548,418.067,505.548,418.246z M503.716,416.415v0.938h0.895c0.045,0,0.135,0,0.179-0.044
		c0.045-0.045,0.09-0.045,0.134-0.09c0.045-0.045,0.09-0.089,0.09-0.134c0.045-0.045,0.045-0.134,0.045-0.179s0-0.134-0.045-0.18
		c0-0.045-0.045-0.089-0.09-0.134c-0.044-0.045-0.089-0.09-0.134-0.09c-0.044-0.044-0.089-0.044-0.179-0.044h-0.895V416.415z
		 M505.19,418.157c0-0.045,0-0.134-0.046-0.179c-0.045-0.046-0.045-0.135-0.089-0.18c-0.045-0.045-0.09-0.09-0.135-0.09
		c-0.044-0.044-0.134-0.044-0.178-0.044h-1.028v0.982h0.983c0.044,0,0.134,0,0.179-0.046c0.044-0.044,0.089-0.044,0.134-0.089
		s0.089-0.09,0.089-0.134C505.101,418.336,505.19,418.246,505.19,418.157z"/>
	<path fill="#FFFFFF" d="M506.843,416.103h0.313l1.161,2.858h-0.402l-0.357-0.849h-1.206l-0.313,0.849h-0.402L506.843,416.103z
		 M507.514,417.845l-0.536-1.296l-0.535,1.296H507.514z"/>
	<path fill="#FFFFFF" d="M510.908,418.246c0,0.09,0,0.224-0.045,0.313c-0.044,0.09-0.089,0.18-0.18,0.224
		c-0.089,0.045-0.179,0.134-0.268,0.134c-0.09,0.045-0.224,0.045-0.313,0.045h-1.341v-2.858h1.431c0.09,0,0.179,0,0.269,0.045
		c0.089,0.045,0.134,0.09,0.223,0.179c0.045,0.09,0.091,0.135,0.136,0.224c0.044,0.09,0.044,0.179,0.044,0.27
		c0,0.134-0.044,0.268-0.089,0.4s-0.18,0.225-0.313,0.27c0.179,0.044,0.313,0.134,0.401,0.268
		C510.863,417.889,510.908,418.067,510.908,418.246z M509.077,416.415v0.938h0.894c0.044,0,0.135,0,0.179-0.044
		c0.045-0.045,0.09-0.045,0.135-0.09s0.089-0.089,0.089-0.134c0.045-0.045,0.045-0.134,0.045-0.179s0-0.134-0.045-0.18
		c0-0.045-0.045-0.089-0.089-0.134c-0.045-0.045-0.09-0.09-0.135-0.09c-0.044-0.044-0.09-0.044-0.179-0.044h-0.894V416.415z
		 M510.551,418.157c0-0.045,0-0.134-0.045-0.179c-0.044-0.046-0.044-0.135-0.089-0.18s-0.089-0.09-0.134-0.09
		c-0.045-0.044-0.135-0.044-0.18-0.044h-1.026v0.982h0.981c0.045,0,0.135,0,0.18-0.046c0.045-0.044,0.089-0.044,0.134-0.089
		s0.09-0.09,0.09-0.134C510.462,418.336,510.551,418.246,510.551,418.157z"/>
	<path fill="#FFFFFF" d="M511.399,416.103l0.849,1.475l0.894-1.475h0.402l-1.072,1.831v1.027h-0.356v-1.027l-1.072-1.786h0.357
		L511.399,416.103L511.399,416.103z"/>
</g>
<path fill="#666666" stroke="#000000" stroke-width="2" stroke-miterlimit="10" d="M491.298,398.233h28.232v-8.623
	c0,0-0.09-3.797-3.574-4.154s-5.405-1.072-5.539-2.814c-0.134-1.474-0.224-3.306,0.402-4.021c0.625-0.714,2.501-1.653,2.501-4.244
	s-0.625-7.237-6.79-7.237c-6.164,0-7.685,4.065-7.685,6.924s1.832,3.886,2.189,4.914c0.356,1.028,0.759,2.055,0.356,3.574
	c-0.313,1.206-1.341,2.814-4.913,2.814C492.638,385.413,490.851,387.065,491.298,398.233z"/>
<rect x="433.537" y="362.407" opacity="0.4" fill="#FFFFFF" enable-background="new    " width="42.572" height="64.729"/>
<g id="Ebene_3">
</g>
</svg>
