<?xml version="1.0" encoding="utf-8"?>
<!-- Generator: Adobe Illustrator 20.1.0, SVG Export Plug-In . SVG Version: 6.00 Build 0)  -->
<!DOCTYPE svg PUBLIC "-//W3C//DTD SVG 1.1//EN" "http://www.w3.org/Graphics/SVG/1.1/DTD/svg11.dtd">
<svg version="1.1" id="Ebene_1" xmlns="http://www.w3.org/2000/svg" xmlns:xlink="http://www.w3.org/1999/xlink" x="0px" y="0px"
	 viewBox="0 0 106.7 87.4" style="enable-background:new 0 0 106.7 87.4;" xml:space="preserve">
<style type="text/css">
	.st0{fill:#000000;}
</style>
<path class="st0" d="M101.3,30.4H76V7.7c0-4.1-3.5-7.3-7.5-7.3H8.1C4.2,0.4,1,3.7,1,7.7v35.8c0,4.1,3.2,8.9,7.1,8.9H12V62
	c0,3.2,2.7,6.2,5.7,6.2c1.3,0,3.3-0.8,19.5-15.8H43v14c0,2.8,1.6,6,4.4,6h29.1c0,0,15,14.9,16.4,14.9s2.1-1.5,2.1-2.7V72.4h6.3
	c2.8,0,4.7-3.2,4.7-6V35.3C106,32.5,104.1,30.4,101.3,30.4z M96,42c0,1.3-1.1,2.4-2.4,2.4H55.4c-1.3,0-2.4-1.1-2.4-2.4v-0.2
	c0-1.3,1.1-2.4,2.4-2.4h38.2c1.3,0,2.4,1.1,2.4,2.4V42z M82.2,47.9c0,1.3-1.1,2.5-2.4,2.5H55.1c-1.3,0-2.4-1.2-2.4-2.5
	c0-1.3,1.1-2.5,2.4-2.5h24.7C81.1,45.4,82.2,46.6,82.2,47.9z M34.8,45.4l-1.3,0.8C27.9,51.8,22,57.9,18,60.5V45.4H8.1
	c-0.7,0-2.1-1-2.1-1.9V7.7c0-0.8,1.4-1.3,2.1-1.3h60.4c0.7,0,0.5,0.5,0.5,1.3v22.7H47.4c-2.8,0-4.4,2.1-4.4,4.9v10.1H34.8z
	 M92.9,65.4H76.4c-1.3,0-2.4-1.7-2.4-3c0-1.3,1.1-3,2.4-3h16.5c1.3,0,2.4,1.7,2.4,3C95.3,63.7,94.2,65.4,92.9,65.4z M92.9,58.4H55.1
	c-1.3,0-2.4-1.2-2.4-2.5c0-1.3,1.1-2.5,2.4-2.5h37.9c1.3,0,2.4,1.2,2.4,2.5C95.3,57.2,94.2,58.4,92.9,58.4z"/>
</svg>
