<?xml version="1.0" encoding="utf-8"?>
<!-- Generator: Adobe Illustrator 19.2.1, SVG Export Plug-In . SVG Version: 6.00 Build 0)  -->
<!DOCTYPE svg PUBLIC "-//W3C//DTD SVG 1.1//EN" "http://www.w3.org/Graphics/SVG/1.1/DTD/svg11.dtd">
<svg version="1.1" id="Ebene_1" xmlns="http://www.w3.org/2000/svg" xmlns:xlink="http://www.w3.org/1999/xlink" x="0px" y="0px"
	 viewBox="0 0 106.7 87.4" style="enable-background:new 0 0 106.7 87.4;" xml:space="preserve">
<style type="text/css">
	.st0{fill:#FFFFFF;}
</style>
<path class="st0" d="M7.4,6C6.7,6,6,6.8,6,7.6v36.2c0,0.8,0.7,1.8,1.4,1.8h10.9V61c3.2-2.7,9.5-8.9,15.1-14.5l0.9-0.9h10.1
	l-0.1-14.5h25.5V7.6C69.7,6.8,69,6,68.3,6H7.4z M17.6,68.1c-3.1,0-5.3-2.4-5.3-5.6V51.5h-5c-4,0-7.4-3.5-7.4-7.7V7.6
	C0,3.5,3.4,0,7.4,0h60.9c4,0,7.4,3.5,7.4,7.6V37H50.2l0.1,14.5H36.7C20.4,68.1,19,68.1,17.6,68.1 M95.2,41.4c0,1.4-1.1,2.4-2.4,2.4
	h-38c-1.4,0-2.4-1.1-2.4-2.4v-0.2c0-1.4,1.1-2.4,2.4-2.4h38c1.3,0,2.4,1.1,2.4,2.4V41.4z M52.3,47.9c0-1.3,1.1-2.3,2.4-2.3h24.9
	c1.3,0,2.4,1,2.4,2.3c0,1.3-1.1,2.3-2.4,2.3H54.7C53.4,50.2,52.3,49.2,52.3,47.9 M92.9,57.9H54.7c-1.3,0-2.4-1.2-2.4-2.6
	c0-1.3,1.1-2.6,2.4-2.6h38.2c1.3,0,2.4,1.2,2.4,2.6C95.4,56.7,94.3,57.9,92.9,57.9 M92.9,65.1H76.3c-1.3,0-2.4-1.2-2.4-2.6
	s1.1-2.6,2.4-2.6h16.7c1.3,0,2.4,1.2,2.4,2.6S94.3,65.1,92.9,65.1 M101.4,30.2H47c-2.8,0-4.9,2.4-4.9,5.3v31.4c0,2.8,2.1,5,4.9,5
	h29.4c0,0,15.2,15.5,16.7,15.5c1.5,0,2.2-1,2.2-2.2V71.9h6.2c2.8,0,5.3-2.2,5.3-5V35.5C106.7,32.7,104.2,30.2,101.4,30.2"/>
</svg>
