<?xml version="1.0" encoding="utf-8"?>
<!-- Generator: Adobe Illustrator 19.2.1, SVG Export Plug-In . SVG Version: 6.00 Build 0)  -->
<!DOCTYPE svg PUBLIC "-//W3C//DTD SVG 1.1//EN" "http://www.w3.org/Graphics/SVG/1.1/DTD/svg11.dtd">
<svg version="1.1" id="Ebene_1" xmlns="http://www.w3.org/2000/svg" xmlns:xlink="http://www.w3.org/1999/xlink" x="0px" y="0px"
	 viewBox="0 0 89.8 94.5" style="enable-background:new 0 0 89.8 94.5;" xml:space="preserve">
<style type="text/css">
	.st0{fill:#000000;}
</style>
<path class="st0" d="M54.4,24.3c-6.7,0-12.2-5.4-12.2-12.2C42.3,5.4,47.7,0,54.4,0s12.2,5.4,12.2,12.2
	C66.6,18.9,61.2,24.3,54.4,24.3 M24.8,47.2c-2.4,0-4.3-1.9-4.3-4.3c0-2.4,1.9-4.3,4.3-4.3c2.4,0,4.3,1.9,4.3,4.3
	C29.1,45.2,27.2,47.2,24.8,47.2 M82.4,31.5c-7.4-9-15.6-11.2-15.6-11.2c-0.5,2.7-5.1,4.9-5.1,4.9s3,1.2,4,1.8c1,0.6,1.7,2.3,0.6,3.4
	s-2.7,0.6-3.8,0c-1.1-0.6-5.7-1.9-8.9-2.4c-3.2-0.4-10.4,0.3-11.5,0.4c-1.2,0.1-2.2-0.3-2.2-2.6s4.3-2.1,4.3-2.1
	c-3.1-2.9-4-6.1-4-6.1l-3.8,0.6c-4.3-2-14.7-3.4-17.4-3.5s-5.3,0.4-5,3.3c0.3,2.9,4.7,9.4,4.7,9.4C10.1,33.7,8.5,41.4,8.5,41.4
	s-4.6,0.1-6.1,0.3c-1.5,0.2-2.3,2.5-2.3,2.5s-0.1,7.5,0,10.4c0.1,2.9,0.9,3.2,2.1,4.2c1.2,1,6.1,3,6.1,3c6,13.8,15.5,18.6,15.5,18.6
	v10c0,3.7,4.2,3.8,4.2,3.8s7.4,0.1,9.8-0.4c2.4-0.5,4.6-7.3,4.6-7.3C52.6,87.5,57.9,86,57.9,86l-0.4,5c-0.1,2.4,3.2,3.5,3.2,3.5h9.9
	c2,0,3.2-3,3.2-3l6.8-13.1c6.5-10.7,8.6-19.8,9-23.9S89.8,40.5,82.4,31.5"/>
</svg>
