<?xml version="1.0" encoding="utf-8"?>
<!-- Generator: Adobe Illustrator 19.2.1, SVG Export Plug-In . SVG Version: 6.00 Build 0)  -->
<!DOCTYPE svg PUBLIC "-//W3C//DTD SVG 1.1//EN" "http://www.w3.org/Graphics/SVG/1.1/DTD/svg11.dtd">
<svg version="1.1" id="Ebene_1" xmlns="http://www.w3.org/2000/svg" xmlns:xlink="http://www.w3.org/1999/xlink" x="0px" y="0px"
	 viewBox="0 0 130 130" style="enable-background:new 0 0 130 130;" xml:space="preserve">
<style type="text/css">
	.st0{fill:#E0C2CB;}
	.st1{fill:#FFFFFF;}
</style>
<path class="st0" d="M65,130c35.9,0,65-29.1,65-65S100.9,0,65,0S0,29.1,0,65S29.1,130,65,130"/>
<path class="st1" d="M64.6,45.8c0-0.6,0.3-0.8,0.8-0.8c4.1,0.1,7.9,1.3,11.1,3.4c0.4,0.3,0.5,0.8,0.2,1.2l-10.6,14
	c-0.5,0.6-1.5,0.3-1.5-0.5V45.8 M95.6,65.5c0,16.9-13.7,30.6-30.6,30.6c-16.9,0-30.6-13.7-30.6-30.6c0-9.4,4.3-17.8,11-23.5
	c0,0-0.1-0.1-0.1-0.1l-2.3-4.1c-0.2-0.4-0.1-0.9,0.3-1.1l5.7-3.3c0.4-0.2,0.9-0.1,1.1,0.3l2.3,3.9c3.9-1.8,8.2-2.8,12.7-2.8
	c4.3,0,8.3,0.9,12,2.5l1.9-3.3l-3.2-1.8c-0.4-0.2-0.5-0.7-0.3-1.1l1.9-3.4c0.2-0.4,0.7-0.5,1.1-0.3l10.7,6.2
	c0.4,0.2,0.5,0.7,0.3,1.1l-1.9,3.4c-0.2,0.4-0.7,0.5-1.1,0.3l-3.2-1.8l-1.8,3.2C89.9,45.2,95.6,54.7,95.6,65.5z M89.5,65.5
	c0-13.5-11-24.4-24.4-24.4c-13.5,0-24.4,11-24.4,24.4C40.6,79,51.5,90,65,90C78.5,90,89.5,79,89.5,65.5z"/>
</svg>
