<svg id="Ebene_4" data-name="Ebene 4" xmlns="http://www.w3.org/2000/svg" width="450" height="450" viewBox="0 0 450 450"><defs><style>.cls-1{fill:#bcbebe;}.cls-2{fill:#fff;}.cls-3{fill:#666;}.cls-4{fill:#dec0ca;}.cls-5{fill:#1d1d1b;}</style></defs><title>gonimo-Vorteile</title><path class="cls-1" d="M217,230.74s0.27,3.05-5.31,4.84a57.65,57.65,0,0,1-11.6,2.23L188.69,253l6,7.59s-7.14,13.84-9.15,19.42-8.7,23-5.58,42.85c0,0,4.24,17,5.36,19.64,0,0,1.34,3.57-11.16,6.7,0,0-6,1.12-9.15-2.68,0,0-9.6-45.53-10.49-51.33S157,267.49,141.15,267c0,0-13.39.22-16.07,7.14a18.08,18.08,0,0,0-21.38,6.63c-11.49,4.86-12.46,14.35-7.86,24.39,0,0,3.57,8,18.3,12.27,0,0,12.27,9.15,18.3,19.64s7.59,16.29,9.37,24.33,4.91,21.42,12.27,21.42,8.7-.45,14.06-6,8.48-6.7,13.17-8.93,13.61-4.91,17.18-4,10.27,3.35,10.27,3.35,20.53,11.16,46.87-2c0,0,4.69-1.34,11.38,1.34s17.85,5.8,17.85,5.8,7.14,8.7,13.84,8.7,9.15-2,12.5-8.7,14.28-35.26,17.63-41.06,11.83-20.53,14.28-23,10.94-8,12.94-12.72,3.57-12.5-1.56-19c0,0-2.68-4.91-6.7-3.79,0,0-6.25-12.94-20.53-7.59,0,0-11-6.25-19.46,3.79,0,0-2.63,1.34-3.3,11.83s-5.8,60.93-8.26,64.5-11.16,10.49-19.64,4.69c0,0-2.9-1.79-.67-6.47s13.84-22.76,14.06-31.47,0-22.32-8.7-41.29-13.76-29.46-15.47-34.37Z"/><path d="M358.41,284.76a16.83,16.83,0,0,0-1.15-4.47,17.91,17.91,0,0,0-2.34-3.93,9.47,9.47,0,0,0-.58-0.87,10.21,10.21,0,0,0-.68-0.83,8.77,8.77,0,0,0-1.63-1.44,6.16,6.16,0,0,0-1-.53,5.76,5.76,0,0,0-1.07-.35l-0.56-.08a3.1,3.1,0,0,0-.57,0,3.31,3.31,0,0,0-.81.1,15.08,15.08,0,0,0-1.46-2.34,18.17,18.17,0,0,0-2.06-2.31c-0.38-.35-0.79-0.68-1.18-1s-0.85-.6-1.28-0.89-0.91-.5-1.36-0.76a10.2,10.2,0,0,0-1.43-.62l-0.73-.28-0.76-.19a11.17,11.17,0,0,0-1.53-.32l-1.55-.16c-0.52,0-1,0-1.55,0a8,8,0,0,0-1.54.14l-1.52.28a11.27,11.27,0,0,0-1.48.43l-1.31.43a13.91,13.91,0,0,0-2.36-1,19.68,19.68,0,0,0-2.67-.69c-0.45-.08-0.91-0.13-1.37-0.19s-0.92,0-1.39-.06-0.93,0-1.39.07a9.1,9.1,0,0,0-1.38.19,8,8,0,0,0-1.36.31c-0.44.15-.9,0.25-1.32,0.43l-1.27.58a9.49,9.49,0,0,0-1.2.7,8.52,8.52,0,0,0-1.15.78l-1.06.89a8.83,8.83,0,0,0-1,1l-0.93,1a3.17,3.17,0,0,0-.66.66,6.77,6.77,0,0,0-.5.78,11.42,11.42,0,0,0-.73,1.65,22,22,0,0,0-.89,3.42,57.47,57.47,0,0,0-.77,6.94c-0.36,4.6-.81,9.21-1.26,13.8-0.93,9.2-1.94,18.39-3.11,27.56-0.59,4.58-1.21,9.16-2,13.72a64.36,64.36,0,0,1-1.4,6.72c-0.09.25-.17,0.52-0.27,0.75l-0.15.3-0.24.32a12,12,0,0,1-1.09,1.26,18.92,18.92,0,0,1-2.56,2.17,16.49,16.49,0,0,1-6.08,2.68,11.34,11.34,0,0,1-6.46-.65,8,8,0,0,1-1.48-.73,6.25,6.25,0,0,1-1.29-.86,3.5,3.5,0,0,1-.86-2.73,8.29,8.29,0,0,1,1-3c0.52-1,1.08-2,1.65-3,2.28-4,4.59-8,6.69-12.19,1.06-2.07,2.06-4.17,3-6.33a40.14,40.14,0,0,0,2.26-6.68,17.91,17.91,0,0,0,.46-3.58c0-1.15,0-2.32,0-3.49,0-2.33-.1-4.66-0.31-7a82.75,82.75,0,0,0-2.38-13.78,97.57,97.57,0,0,0-4.48-13.24c-1.83-4.3-3.81-8.45-5.73-12.67s-3.87-8.4-5.84-12.58-4-8.33-5.78-12.56l0,0-0.11-.27-0.26,0-49.3-5.79,0,0.52a2.74,2.74,0,0,1-.3.94,4.18,4.18,0,0,1-.61.86,7.07,7.07,0,0,1-1.75,1.32,12.15,12.15,0,0,1-2.11.86c-0.72.25-1.54,0.4-2.28,0.6A37.5,37.5,0,0,1,200,237h0l-0.2.2-0.12.34-11.38,15.18-0.21.28,0.21,0.27,5.85,7.36c-2.46,4.74-4.88,9.5-7.13,14.36q-0.86,1.85-1.64,3.76c-0.51,1.29-1,2.55-1.43,3.84s-0.89,2.58-1.3,3.88-0.79,2.62-1.15,3.93-0.7,2.64-1,4-0.56,2.68-.81,4-0.44,2.7-.62,4.06-0.33,2.72-.41,4.09l-0.15,2-0.06,2.05c-0.07,1.37,0,2.74,0,4.11s0.17,2.74.25,4.11,0.33,2.72.5,4.09V323q1.33,5.35,2.73,10.69c0.47,1.78.94,3.56,1.45,5.33,0.25,0.89.5,1.77,0.8,2.67,0.07,0.22.14,0.45,0.23,0.68l0.12,0.33v0h0a0.4,0.4,0,0,0,0,.05,1.56,1.56,0,0,1-.33.84,6.07,6.07,0,0,1-1.81,1.59,10.09,10.09,0,0,1-1.14.64c-0.38.21-.79,0.38-1.2,0.56-0.81.36-1.66,0.65-2.51,0.94s-1.71.56-2.59,0.79l-0.65.18-0.33.09-0.25,0a12,12,0,0,1-1.29.11,14.1,14.1,0,0,1-2.59-.14,8.93,8.93,0,0,1-2.45-.74,7.38,7.38,0,0,1-2-1.43l-5.21-25.8-2.63-13L156.32,301c-0.41-2.16-.87-4.34-1.16-6.46s-0.1-4.34-.16-6.54a63.12,63.12,0,0,0-.44-6.67,28.16,28.16,0,0,0-1.59-6.59,15.47,15.47,0,0,0-1.58-3.08,11.52,11.52,0,0,0-2.33-2.63,12.11,12.11,0,0,0-6.42-2.67c-0.59,0-1.12-.11-1.76-0.1s-1.13.06-1.7,0.11a30.81,30.81,0,0,0-3.34.47,22.25,22.25,0,0,0-6.45,2.15,9.72,9.72,0,0,0-4.54,4.6,16.73,16.73,0,0,0-2.54-.81c-0.5-.13-1-0.19-1.53-0.28l-1.55-.16c-0.52,0-1,0-1.56,0l-1.56.12c-0.52.07-1,.17-1.54,0.26a14.45,14.45,0,0,0-1.52.39c-0.25.08-.51,0.13-0.75,0.22l-0.72.31a11.43,11.43,0,0,0-1.42.66l-1.36.78c-0.44.27-.84,0.61-1.26,0.92a9.16,9.16,0,0,0-1.18,1l-1.1,1.1a11.45,11.45,0,0,0-1,1.2l-0.86,1.15a25.28,25.28,0,0,0-2.85,1.41,19.25,19.25,0,0,0-2.75,1.88l-1.24,1.14-1.09,1.29c-0.33.45-.62,0.94-0.93,1.41s-0.5,1-.75,1.52-0.37,1.07-.56,1.6-0.24,1.1-.36,1.65a17.46,17.46,0,0,0-.18,3.36,20.33,20.33,0,0,0,.42,3.31,13.9,13.9,0,0,0,.39,1.62c0.15,0.53.28,1.07,0.48,1.59,0.34,1.05.77,2.07,1.2,3.08a13,13,0,0,0,1.87,2.86,21.72,21.72,0,0,0,2.33,2.4,26.17,26.17,0,0,0,2.62,2c0.9,0.64,1.86,1.19,2.81,1.75s2,1,3,1.42,2,0.82,3.07,1.18,2.05,0.61,3.07.91c2.26,1.77,4.43,3.68,6.51,5.66a80.59,80.59,0,0,1,6,6.31,51,51,0,0,1,5,7c1.46,2.5,2.8,5.08,4,7.69a64.7,64.7,0,0,1,3.17,8c0.88,2.75,1.54,5.57,2.16,8.41s1.25,5.73,2.07,8.57a40.84,40.84,0,0,0,3.26,8.34,15.42,15.42,0,0,0,2.79,3.73,7.62,7.62,0,0,0,4.42,2.15c0.91,0.07,1.53,0,2.3,0s1.49,0,2.25-.08a12.9,12.9,0,0,0,4.59-1,14.56,14.56,0,0,0,3.82-2.69c1.11-1,2.13-2.11,3.14-3.12a31.6,31.6,0,0,1,6.62-5.27c1.22-.71,2.51-1.32,3.82-1.94s2.64-1.26,3.94-1.77a54.2,54.2,0,0,1,8.2-2.53,25.08,25.08,0,0,1,4.15-.6,7.81,7.81,0,0,1,1.9.11c0.28,0.05.69,0.17,1,.26l1,0.3c2.75,0.83,5.51,1.78,8.23,2.75a27.93,27.93,0,0,0,2.78,1.21c1,0.39,2,.68,2.94,1s2,0.59,3,.79,2,0.47,3,.61,2,0.36,3.06.44,2,0.25,3.08.26l3.09,0.1,3.09-.1c1,0,2-.19,3.07-0.28a25.75,25.75,0,0,0,3.05-.43l3-.58c1-.25,2-0.54,3-0.81a25.82,25.82,0,0,0,2.94-.91l2.89-1.05c1-.32,1.87-0.82,2.81-1.23L255.9,366a11.13,11.13,0,0,1,1.67-.26,17.24,17.24,0,0,1,1.81-.05,19.62,19.62,0,0,1,3.62.43c0.6,0.13,1.2.26,1.78,0.44s1.17,0.37,1.75.58c1.18,0.44,2.39.88,3.59,1.29,4.79,1.61,9.62,3,14.48,4.33a31.77,31.77,0,0,0,6.44,6.24,17.49,17.49,0,0,0,4.1,2.23,11.82,11.82,0,0,0,2.33.61l1.25,0.1h1.12a14.36,14.36,0,0,0,4.69-.8,9.67,9.67,0,0,0,2.18-1.15,11.19,11.19,0,0,0,1.79-1.65,21.26,21.26,0,0,0,2.6-3.88c0.37-.67.71-1.34,1-2s0.64-1.35.94-2c1.22-2.76,2.36-5.51,3.5-8.28L320,353.8c2.25-5.53,4.49-11.06,6.87-16.52,0.6-1.36,1.21-2.71,1.85-4s1.39-2.58,2.14-3.87l4.5-7.73c1.52-2.57,3.05-5.12,4.64-7.63,0.8-1.25,1.6-2.5,2.46-3.69a12.72,12.72,0,0,1,1.33-1.63c0.54-.53,1.07-0.95,1.65-1.44,2.3-1.87,4.68-3.73,6.88-5.81a25.21,25.21,0,0,0,3.07-3.41,11.79,11.79,0,0,0,1.21-2c0.18-.38.29-0.7,0.43-1.06l0.38-1.1A21.44,21.44,0,0,0,358.41,284.76Zm-2.2,8.69-0.37,1c-0.14.33-.28,0.72-0.43,1a10.52,10.52,0,0,1-1.1,1.78,25.89,25.89,0,0,1-2.95,3.2c-2.15,2-4.49,3.82-6.83,5.71-0.57.47-1.2,1-1.73,1.49a10.28,10.28,0,0,0-.82.9l-0.7.92c-0.89,1.23-1.71,2.49-2.52,3.75-1.61,2.53-3.16,5.08-4.7,7.65l-4.55,7.73c-0.75,1.29-1.52,2.57-2.21,4s-1.29,2.72-1.9,4.09c-2.42,5.48-4.69,11-7,16.52L315,361.44c-1.15,2.75-2.31,5.51-3.51,8.2-0.29.67-.61,1.34-0.94,2s-0.66,1.31-1,1.94a19.57,19.57,0,0,1-2.39,3.54c-1.77,2.17-4.5,2.94-7.35,3l-1.12,0-1-.07a10.12,10.12,0,0,1-2-.49,18.42,18.42,0,0,1-3.82-1.89,39.24,39.24,0,0,1-6.69-5.66l-0.11-.12L285,372h0c-4.84-1.46-9.66-3-14.39-4.74-1.18-.43-2.34-0.9-3.52-1.37-0.6-.24-1.21-0.47-1.84-0.66s-1.25-.37-1.89-0.52a21.17,21.17,0,0,0-3.9-.52,18.83,18.83,0,0,0-2,0,12.17,12.17,0,0,0-2,.3h0l-0.1,0-2.74,1.21c-0.92.38-1.8,0.86-2.76,1.15l-2.82,1a24.59,24.59,0,0,1-2.86.84c-1,.24-1.92.51-2.89,0.74l-2.94.51a27.92,27.92,0,0,1-3,.39c-1,.08-2,0.25-3,0.25l-3,.09-3-.11c-1,0-2-.19-3-0.27s-2-.28-2.94-0.44-1.94-.39-2.91-0.6-1.91-.52-2.86-0.77-1.88-.6-2.79-1a26.57,26.57,0,0,1-2.65-1.17l-0.09,0,0,0c-2.77-1-5.52-2-8.35-2.84l-1.08-.31c-0.39-.1-0.67-0.19-1.11-0.28a9.76,9.76,0,0,0-2.46-.15,27.06,27.06,0,0,0-4.51.67,56.21,56.21,0,0,0-8.52,2.66c-1.42.56-2.72,1.21-4,1.83s-2.67,1.27-4,2a33.62,33.62,0,0,0-7,5.63c-1,1.06-2,2.1-3.06,3.07a12.66,12.66,0,0,1-3.29,2.36,11,11,0,0,1-3.91.86c-0.7,0-1.42.07-2.13,0.08s-1.53,0-2.08,0a5.71,5.71,0,0,1-3.3-1.63,13.57,13.57,0,0,1-2.46-3.24,39.1,39.1,0,0,1-3.18-7.92c-0.83-2.76-1.48-5.59-2.13-8.44s-1.36-5.72-2.29-8.53a66.25,66.25,0,0,0-3.33-8.21c-1.29-2.65-2.71-5.23-4.24-7.74a52.25,52.25,0,0,0-5.31-7.1,81.68,81.68,0,0,0-6.18-6.29c-2.17-2-4.4-3.88-6.76-5.65l-0.05,0-0.09,0h0c-1-.37-2-0.68-3-1.09s-2-.78-2.94-1.26-1.9-1-2.84-1.46-1.83-1.08-2.68-1.71a24.84,24.84,0,0,1-2.48-2,21.35,21.35,0,0,1-2.2-2.24,11.8,11.8,0,0,1-1.71-2.54c-0.43-1-.85-1.95-1.18-3-0.19-.49-0.33-1-0.47-1.51a13,13,0,0,1-.38-1.54,19.1,19.1,0,0,1-.42-3.12,16.27,16.27,0,0,1,.14-3.12c0.11-.51.17-1,0.32-1.52s0.29-1,.5-1.47,0.42-.95.68-1.39,0.54-.88.84-1.3l1-1.21,1.13-1.09a18.25,18.25,0,0,1,2.55-1.85,15.75,15.75,0,0,1,2-1.09l-0.1.28c-0.15.47-.32,1-0.46,1.71a15.21,15.21,0,0,0-.34,2.28,18.05,18.05,0,0,0,0,2.75,14.26,14.26,0,0,0,.6,3,10.62,10.62,0,0,0,.57,1.54,10.89,10.89,0,0,0,.76,1.5l0.21,0.37,0.05,0.09,0.07,0.11,0.11,0.17,0.46,0.67c0.29,0.45.68,0.89,1,1.34a54.38,54.38,0,0,0,8.91,8.26c2.64,2,4.52,3.14,4.52,3.14l0.5-.74-1.19-.9c-0.76-.57-1.82-1.42-3.08-2.45s-2.69-2.27-4.17-3.66a44.59,44.59,0,0,1-4.34-4.57c-0.32-.42-0.66-0.8-1-1.26l-0.47-.66-0.12-.17,0-.06,0-.08-0.19-.33a9.54,9.54,0,0,1-.7-1.34,9.28,9.28,0,0,1-.53-1.38,16,16,0,0,1-.61-2.74,16.77,16.77,0,0,1-.09-2.54,19.32,19.32,0,0,1,.21-2.15c0.09-.64.22-1.19,0.33-1.64s0.22-.8.29-1l0.12-.35h0l0.73-.8a11.59,11.59,0,0,1,1-1.06l1.09-1a8.26,8.26,0,0,1,1.15-.89c0.41-.27.77-0.59,1.19-0.83l1.26-.7a10.23,10.23,0,0,1,1.32-.58,9.31,9.31,0,0,1,1.36-.49,13.06,13.06,0,0,1,1.39-.38c0.47-.08.95-0.19,1.42-0.26l1.44-.13,1.45,0,1.46,0.08c0.48,0.07,1,.11,1.45.19a17.36,17.36,0,0,1,2.39.55c-0.09.21-.19,0.48-0.31,0.82a21.52,21.52,0,0,0-.8,3.5c-0.07.74-.19,1.54-0.19,2.39l0,1.31,0.07,1.36c0,0.93.24,1.87,0.36,2.84s0.4,1.92.67,2.87,0.55,1.9.94,2.79,0.71,1.79,1.15,2.6l1.26,2.34,1.3,2,0.58,0.88c0.19,0.27.4,0.51,0.59,0.74l1,1.2,0.85,1,0.7-.55-0.7-1.11-0.81-1.26c-0.32-.48-0.66-1-1-1.66l-1.13-2-1.11-2.3c-0.39-.79-0.68-1.66-1-2.51s-0.58-1.77-.9-2.65-0.47-1.81-.68-2.71-0.35-1.8-.39-2.67l-0.13-1.28,0-1.23c0-.8,0-1.56,0-2.26s0.1-1.34.21-1.9,0.19-1,.26-1.45,0.17-.89.23-1.08,0.1-.5.1-0.5h0v0.25a9.14,9.14,0,0,1,4.5-4.05,24,24,0,0,1,6.11-1.84c1.06-.2,2.13-0.32,3.2-0.43,0.53-.05,1.08-0.09,1.6-0.11s1,0.06,1.54.09a10.57,10.57,0,0,1,5.63,2.3,10,10,0,0,1,2.05,2.3,14,14,0,0,1,1.45,2.79,26.74,26.74,0,0,1,1.53,6.23,61.83,61.83,0,0,1,.46,6.52c0.08,2.21,0,4.36.21,6.68s0.79,4.38,1.21,6.55l1.32,6.49,2.69,13,5.58,25.85,0.11,2c0.07,1.18.19,2.76,0.24,4.33a40.88,40.88,0,0,1-.11,4.31c-0.05.58-.1,1.07-0.16,1.4l-0.07.53,0.87,0.2,0.14-.55c0.09-.35.19-0.85,0.3-1.46a28,28,0,0,0,.3-4.46c0-.81,0-1.62-0.09-2.38s-0.13-1.46-.23-2.06c0-.16,0-0.31-0.07-0.46a8.25,8.25,0,0,0,1.09.79,9.12,9.12,0,0,0,2.75,1,12.41,12.41,0,0,0,2.89.29A13.52,13.52,0,0,0,174,350a3.82,3.82,0,0,0,.43-0.07l0.34-.09,0.68-.18c0.9-.22,1.8-0.48,2.69-0.78s1.77-.61,2.64-1c0.43-.19.87-0.38,1.29-0.61a11.52,11.52,0,0,0,1.26-.72,7.5,7.5,0,0,0,2.26-2.05l0.16-.26a9.17,9.17,0,0,0,1.24-1.8,10.42,10.42,0,0,0,.59-1.36,6.89,6.89,0,0,0,.3-1.25,4.86,4.86,0,0,0,0-1.26l-0.87-.18a3,3,0,0,0-.17.29c-0.11.18-.22,0.45-0.37,0.76s-0.3.68-.46,1.07l-0.31.73c-0.28-.85-0.54-1.73-0.79-2.6-0.51-1.76-1-3.53-1.46-5.3Q182,328,180.69,322.7c-0.16-1.32-.36-2.64-0.5-4s-0.24-2.68-.26-4-0.1-2.69,0-4l0-2,0.13-2c0.07-1.34.24-2.68,0.38-4s0.37-2.67.59-4,0.48-2.65.78-4,0.62-2.62.94-3.93,0.72-2.6,1.12-3.89,0.82-2.57,1.26-3.85,0.89-2.58,1.36-3.81,1-2.49,1.57-3.73c2.21-4.94,4.6-9.82,7-14.67l0.13-.26-0.18-.23h0l-5.82-7.34L200.4,238a32.4,32.4,0,0,0,4.61-.34,44.46,44.46,0,0,0,4.83-.84l1.2-.33c0.38-.12.78-0.21,1.18-0.37a13.57,13.57,0,0,0,2.33-1.06,7.38,7.38,0,0,0,2-1.73,4.39,4.39,0,0,0,.67-1.19,3.8,3.8,0,0,0,.2-0.89l48.09,5.64c0.68,2.16,1.51,4.25,2.37,6.32s1.81,4.27,2.77,6.37c1.88,4.23,3.85,8.42,5.79,12.61s3.94,8.39,5.74,12.6a96,96,0,0,1,4.44,13A81.21,81.21,0,0,1,289,301.33c0.21,2.28.31,4.57,0.32,6.87,0,1.15,0,2.29,0,3.45a16.34,16.34,0,0,1-.42,3.29,39.44,39.44,0,0,1-2.15,6.45c-0.88,2.11-1.85,4.2-2.89,6.25-2.06,4.12-4.33,8.14-6.59,12.18-0.55,1-1.15,2-1.66,3.08a9.52,9.52,0,0,0-1.09,3.53,4.75,4.75,0,0,0,1.22,3.68,3.15,3.15,0,0,0,.79.62l0.78,0.46a9,9,0,0,0,1.63.79,12.55,12.55,0,0,0,7.15.68,17.64,17.64,0,0,0,6.51-2.91q1-.74,1.91-1.58c-0.25.63-.51,1.31-0.76,2.07a31.34,31.34,0,0,0-1.47,6.2c-0.05.51-.1,1-0.12,1.48s0,0.92,0,1.34,0.08,0.8.13,1.13a5.87,5.87,0,0,0,.19.86c0.12,0.47.21,0.73,0.21,0.73l0.88-.14s0-.27.05-0.72,0.09-1.09.12-1.85,0.16-1.65.27-2.61,0.29-2,.49-3,0.44-2,.68-3,0.5-1.83.71-2.59c0.28-1,.52-1.74.65-2.16l0.18-.24,0.24-.47c0.13-.3.21-0.59,0.31-0.88a67.81,67.81,0,0,0,1.4-6.86c0.74-4.58,1.35-9.17,1.93-13.76,1.14-9.19,2.13-18.39,3-27.6,0.45-4.61.88-9.21,1.23-13.83a56.52,56.52,0,0,1,.74-6.84,21.11,21.11,0,0,1,.85-3.29,10.56,10.56,0,0,1,.66-1.52,5.9,5.9,0,0,1,.43-0.68,2.68,2.68,0,0,1,.46-0.48l0.09-.06,0,0,0,0,0.92-.94a8.15,8.15,0,0,1,.94-0.9l1-.81a7.71,7.71,0,0,1,1.08-.72,8.62,8.62,0,0,1,1.13-.64l1.18-.52c0.4-.16.82-0.26,1.23-0.39a7.14,7.14,0,0,1,1.26-.28,8.19,8.19,0,0,1,1.28-.17c0.43,0,.86-0.08,1.29,0s0.86,0,1.3.06,0.86,0.09,1.29.15a18.65,18.65,0,0,1,2.54.61,17.32,17.32,0,0,1,2.34.91l0.11,0.19a8.65,8.65,0,0,1,.39.78,13.42,13.42,0,0,1,.48,1.29,11.69,11.69,0,0,1,.4,1.75,16.32,16.32,0,0,1,.24,2.12c0,0.38,0,.77,0,1.17a10,10,0,0,1-.05,1.22l-0.12,1.27c0,0.43-.16.85-0.23,1.29a20,20,0,0,1-.64,2.6,23.73,23.73,0,0,1-.88,2.54,22.69,22.69,0,0,1-1,2.41c-0.36.77-.68,1.53-1.08,2.21l-1.06,1.94c-0.31.61-.68,1.13-1,1.6l-0.77,1.22-0.67,1.07,0.73,0.51,0.73-1,0.84-1.2c0.31-.47.71-1,1.06-1.58l1.15-1.94c0.43-.68.78-1.45,1.17-2.23a23.74,23.74,0,0,0,1.12-2.46,24.8,24.8,0,0,0,.94-2.64,21.26,21.26,0,0,0,.7-2.73c0.08-.46.2-0.91,0.25-1.36l0.14-1.35a8.54,8.54,0,0,0,.06-1.32c0-.43,0-0.85,0-1.26a15.85,15.85,0,0,0-.32-2.3,12.93,12.93,0,0,0-.58-1.89,9.33,9.33,0,0,0-.67-1.38c-0.14-.24-0.26-0.43-0.38-0.59l0.85-.25a10.54,10.54,0,0,1,1.42-.37l1.45-.23a7.29,7.29,0,0,1,1.45-.12c0.48,0,1-.06,1.45,0l1.44,0.16a10.17,10.17,0,0,1,1.41.31l0.7,0.18,0.67,0.27a9.2,9.2,0,0,1,1.32.58c0.42,0.24.86,0.44,1.26,0.72s0.8,0.55,1.19.84,0.75,0.61,1.11.94,0.7,0.67,1,1,0.67,0.71,1,1.1,0.6,0.77.88,1.17,0.54,0.81.76,1.21a1.77,1.77,0,0,1,.05.22,4.59,4.59,0,0,1,.07.76,7.43,7.43,0,0,1-.07,1.23,15.05,15.05,0,0,1-.32,1.59,16.77,16.77,0,0,1-.65,1.84,19,19,0,0,1-.93,2c-0.34.69-.79,1.35-1.19,2l-1.4,2-1.53,1.93c-0.52.63-1.07,1.21-1.58,1.8s-1,1.13-1.53,1.63l-1.4,1.44c-0.89.87-1.66,1.57-2.18,2.08l-0.83.79,0.59,0.67,0.86-.77c0.54-.49,1.34-1.18,2.26-2s2-1.89,3-3.08c0.53-.59,1.09-1.18,1.62-1.82l1.58-2,1.46-2.07c0.43-.72.9-1.4,1.26-2.12a19.32,19.32,0,0,0,1-2.09,17.86,17.86,0,0,0,.67-2,11.53,11.53,0,0,0,.29-1.77,6.46,6.46,0,0,0,0-1.41,5,5,0,0,0-.13-0.74,2,2,0,0,1,.5,0,2.31,2.31,0,0,1,.46,0l0.46,0.07a4.83,4.83,0,0,1,.88.31,5.22,5.22,0,0,1,.82.47,7.81,7.81,0,0,1,1.43,1.3,9.24,9.24,0,0,1,.61.77,8.43,8.43,0,0,1,.52.81l0,0,0,0a16.89,16.89,0,0,1,2.16,3.74,15.72,15.72,0,0,1,1,4.19A20.25,20.25,0,0,1,356.21,293.45Z"/><path class="cls-2" d="M227.74,296.28s8.18-14.43,23.51-6.25c0,0-1.76,6.23-12.94,9.22C230,301.49,227.74,296.28,227.74,296.28Z"/><path class="cls-2" d="M226.7,296.28s-5.5-5.8-16.36-1.49-15.47,14.73-16.22,17.71a23.83,23.83,0,0,1,10.71-4.61c6-.74,13.54,0,17.71-5.8A52.47,52.47,0,0,0,226.7,296.28Z"/><path d="M254.47,326.06a47.32,47.32,0,0,0-17.69-5.5c-1.12-1.63-2.94-6.37-3.95-9.38l-4-12.74a6.38,6.38,0,0,0,1.06.79,6.92,6.92,0,0,0,1.73.76,5.8,5.8,0,0,0,.92.22,5.49,5.49,0,0,0,.93.13,12.42,12.42,0,0,0,1.86,0,17.4,17.4,0,0,0,1.85-.24l0.86-.19,0.46-.11,0.43-.13c0.58-.18,1.16-0.33,1.73-0.52l1.7-.63c0.55-.25,1.11-0.48,1.66-0.74s1.08-.56,1.59-0.88,1-.64,1.52-1a14.2,14.2,0,0,0,2.68-2.51,10.59,10.59,0,0,0,1.06-1.51,8.34,8.34,0,0,0,.77-1.74h0l0.11-.36-0.33-.15-1.57-.72a14.82,14.82,0,0,0-1.59-.68l-1.66-.5c-0.28-.08-0.55-0.18-0.83-0.23l-0.86-.13c-0.57-.08-1.14-0.2-1.72-0.23h-1.74a11,11,0,0,0-1.73.18l-0.86.13-0.84.24a10.3,10.3,0,0,0-1.65.55,16.13,16.13,0,0,0-1.58.73c-0.5.3-1,.56-1.49,0.89s-0.95.66-1.4,1-0.89.74-1.3,1.15-0.83.8-1.2,1.25-0.75.88-1.1,1.34-0.66.91-.95,1.39H227l0,0a9.82,9.82,0,0,0-2.25-1.58,12.86,12.86,0,0,0-2.52-1,9.65,9.65,0,0,0-1.32-.31,10,10,0,0,0-1.34-.19,9.47,9.47,0,0,0-1.35-.07,9.83,9.83,0,0,0-1.35,0,20.42,20.42,0,0,0-2.66.36c-0.44.09-.86,0.22-1.3,0.33a10.51,10.51,0,0,0-1.28.38l-1.26.44c-0.45.16-.81,0.35-1.23,0.53a22.31,22.31,0,0,0-2.38,1.2c-0.79.43-1.51,0.95-2.25,1.44s-1.43,1.06-2.08,1.67-1.3,1.2-1.93,1.84-1.2,1.31-1.74,2-1.05,1.42-1.56,2.15-0.92,1.5-1.35,2.28-0.75,1.58-1.11,2.39a6.72,6.72,0,0,0-.76,2.54h0l-0.53,1.28,0.93-.83,0.44-.31,0.16,0.08h0c0-.07,0-0.13,0-0.2,0.43-.3.87-0.59,1.32-0.86,0.67-.4,1.36-0.77,2.07-1.11a24.36,24.36,0,0,1,4.37-1.6,20,20,0,0,1,2.27-.41c0.8-.09,1.57-0.16,2.36-0.21,1.58-.12,3.18-0.21,4.79-0.39,0.8-.09,1.61-0.22,2.41-0.38a20.82,20.82,0,0,0,2.38-.63,15.1,15.1,0,0,0,2.29-1c0.36-.22.73-0.42,1.07-0.67s0.68-.51,1-0.79,0.61-.59.89-0.9l0.79-1c0.46-.57,1-1.25,1.44-1.89s1.09-1.51,1.6-2.3l0.31,0.68c4.2,8.27,3,18.15,2.5,21.36a60.47,60.47,0,0,0-23.23,5.74l-1.77.94h52.32Zm-25.41-30.91c0.33-.44.68-0.87,1.05-1.28s0.76-.8,1.15-1.2,0.83-.73,1.24-1.1,0.89-.65,1.33-1,0.95-.56,1.42-0.85a15.24,15.24,0,0,1,1.49-.69,9.54,9.54,0,0,1,1.56-.52l0.79-.23,0.81-.12a10.23,10.23,0,0,1,1.63-.18h1.65c0.55,0,1.09.16,1.63,0.23l0.82,0.13c0.27,0,.54.15,0.8,0.23l1.6,0.49a14.43,14.43,0,0,1,1.55.66l1.3,0.58c-0.18.35-.54,0.7-0.76,1a15.84,15.84,0,0,1-1.15,1.32,15.39,15.39,0,0,1-1.21,1.18c-0.45.35-.87,0.73-1.34,1a17.1,17.1,0,0,1-1.43.93c-0.48.3-1,.54-1.51,0.82s-1,.48-1.57.72l-1.62.61c-0.54.19-1.1,0.34-1.66,0.52l-0.42.13-0.4.1-0.86.2c-0.57.12-1.1,0.18-1.66,0.25a11.22,11.22,0,0,1-1.67,0,4.57,4.57,0,0,1-.82-0.09,4.81,4.81,0,0,1-.81-0.17,5.27,5.27,0,0,1-.78-0.26,4.55,4.55,0,0,1-.74-0.34,5.9,5.9,0,0,1-1.32-1,5.07,5.07,0,0,1-.86-1.07C228.52,295.9,228.77,295.52,229.05,295.15ZM225,298c-0.47.63-1,1.26-1.45,1.88L222,301.74l-0.72.87c-0.26.27-.54,0.52-0.8,0.79a12.58,12.58,0,0,1-1.83,1.3,13.84,13.84,0,0,1-2.07.94,19.59,19.59,0,0,1-2.23.61q-1.14.23-2.31,0.38c-1.56.2-3.14,0.3-4.73,0.43-0.8.07-1.61,0.14-2.39,0.24a21,21,0,0,0-2.42.46,23,23,0,0,0-2.32.76,23.59,23.59,0,0,0-2.2,1c-0.72.37-1.37,0.77-2.06,1.21-0.25.16-.47,0.33-0.7,0.49,0.11-.35.24-0.69,0.39-1,0.35-.79.5-1.56,0.92-2.32s0.87-1.49,1.34-2.22,1-1.42,1.53-2.09,1.11-1.32,1.69-2,1.21-1.24,1.87-1.79,1.34-1.09,2-1.63,1.42-1,2.17-1.4a21.3,21.3,0,0,1,2.31-1.18c0.39-.17.81-0.38,1.19-0.52l1.22-.43a21.94,21.94,0,0,1,2.49-.68,19.59,19.59,0,0,1,2.55-.33,9.17,9.17,0,0,1,1.28,0,8.8,8.8,0,0,1,1.28.08,9.26,9.26,0,0,1,1.26.19,8.9,8.9,0,0,1,1.24.3,12,12,0,0,1,2.35,1,9.06,9.06,0,0,1,1.28.85H225l0.54,1.19C225.38,297.46,225.19,297.73,225,298Z"/><path d="M223,298.17c-2.39.48-4.78,1.06-7.12,1.75-1.17.34-2.33,0.73-3.46,1.16-0.57.21-1.12,0.46-1.66,0.71l-0.79.41-0.74.47h0l-0.18.11-0.16,0a9.14,9.14,0,0,0-1.52-.18,9.48,9.48,0,0,0-1.56.07,7.17,7.17,0,0,0-1.52.37,5.35,5.35,0,0,0-.72.32,6.24,6.24,0,0,0-.67.41l-0.14-.18a6.53,6.53,0,0,1,.66-0.5,5.72,5.72,0,0,1,.72-0.42,7.64,7.64,0,0,1,1.57-.56,10.11,10.11,0,0,1,1.65-.25,9.8,9.8,0,0,1,1.69,0l-0.34.08h0l0.82-.52,0.84-.44c0.57-.26,1.14-0.52,1.73-0.74,1.16-.45,2.34-0.84,3.53-1.19,2.38-.7,4.77-1.28,7.2-1.77Z"/><path d="M210.85,301.53a5,5,0,0,1-.24.8,8.16,8.16,0,0,1-.81,1.54,8.84,8.84,0,0,1-1.08,1.32c-0.32.33-.56,0.53-0.56,0.53L208,305.6s0.2-.23.46-0.59a8.44,8.44,0,0,0,.83-1.4,7.51,7.51,0,0,0,.52-1.51,3.87,3.87,0,0,0,.1-0.68Z"/><path d="M214.47,300.18s-0.27-.21-0.72-0.49a10.56,10.56,0,0,0-1.73-.88,7.25,7.25,0,0,0-1-.31,5.33,5.33,0,0,0-.89-0.11,3.31,3.31,0,0,0-.63.06l-0.24,0-0.07-.19,0.25-.08a3.58,3.58,0,0,1,.67-0.14,5.69,5.69,0,0,1,1,0,7.74,7.74,0,0,1,1.09.2,11.94,11.94,0,0,1,2.78,1.16Z"/><path d="M219,298.76a10.64,10.64,0,0,1-.66,2.28,5,5,0,0,1-.85,1.39,2.59,2.59,0,0,1-.4.36l-0.17.12-0.09-.12,0.14-.13a2.38,2.38,0,0,0,.31-0.38,4.62,4.62,0,0,0,.56-1.4,9.26,9.26,0,0,0,.23-1.5c0-.42,0-0.68,0-0.68Z"/><path d="M229.71,295.92a18.58,18.58,0,0,1,1.91-1.17,26.73,26.73,0,0,1,4.48-1.93,24.69,24.69,0,0,1,2.51-.68c0.4-.1.8-0.16,1.17-0.22s0.73-.12,1.06-0.15c0.66-.09,1.21-0.12,1.59-0.14l0.6,0v0.22l-0.6.06c-0.38,0-.92.09-1.56,0.21-0.32,0-.67.11-1,0.2s-0.75.16-1.14,0.28a24.2,24.2,0,0,0-2.42.79,26,26,0,0,0-4.27,2.08,17.57,17.57,0,0,0-1.77,1.2Z"/><path d="M237.65,292.38s0.69-.88,1.47-1.69a11,11,0,0,1,1.13-1.05,3.28,3.28,0,0,1,.61-0.39l0.11,0.22a3,3,0,0,0-.53.4,10.63,10.63,0,0,0-1,1.09c-0.7.84-1.31,1.75-1.31,1.75Z"/><path d="M236.12,292.83s0.25,0.19.66,0.45a10.64,10.64,0,0,0,1.59.82,7.48,7.48,0,0,0,.9.3,5.58,5.58,0,0,0,.81.13,3.34,3.34,0,0,0,.58,0l0.22,0,0.06,0.24-0.23.06a3.66,3.66,0,0,1-.63.1,6,6,0,0,1-.89,0,8,8,0,0,1-1-.2,11.31,11.31,0,0,1-1.78-.67c-0.47-.22-0.78-0.4-0.78-0.4Z"/><path d="M232.83,294.17s0.1-.21.26-0.47a8.88,8.88,0,0,1,.66-0.93,8.59,8.59,0,0,1,1.14-1.17l0.22,0.22a8.22,8.22,0,0,0-1.3,2.24c-0.1.27-.15,0.43-0.15,0.43Z"/><path class="cls-3" d="M164.95,211.08c-3.2-.58-7.67-1-10,0.62-3.79,2.68-19.19,13.84-16.51,27.67a24.93,24.93,0,0,0,1.27,4.82l1.84,3.57,2.77-3.67a12.7,12.7,0,0,1-2.76-6.28c-0.45-3.68,4.46-16.29,15.29-22.88,0,0,4.83-1.81,8.72,1l3-3.92Z"/><path d="M164.86,211.54c-1-.18-2-0.32-3-0.41a19.47,19.47,0,0,0-3-.06,8.71,8.71,0,0,0-2.83.6,16.47,16.47,0,0,0-2.45,1.65c-0.81.61-1.61,1.24-2.39,1.9s-1.55,1.32-2.29,2-1.47,1.4-2.16,2.14-1.34,1.51-2,2.27-1.27,1.58-1.81,2.43l-0.83,1.26c-0.27.42-.49,0.88-0.74,1.31a22.89,22.89,0,0,0-1.28,2.72,10.86,10.86,0,0,0-.48,1.42c-0.13.48-.32,0.95-0.41,1.44l-0.25,1.47c0,0.25-.09.49-0.12,0.74l0,0.74,0,1.49c0,0.49.11,1,.16,1.48s0.09,1,.19,1.5,0.19,1,.31,1.47a25,25,0,0,0,.85,2.89l0-.06c0.61,1.19.79,2.39,1.79,3.6h0l-0.76,0L144,244h0l0,0.48a13.62,13.62,0,0,1-1.28-2,14,14,0,0,1-.94-2.1,12,12,0,0,1-.56-2.23l0-.29c0-.16,0-0.21,0-0.31V237c0-.39.07-0.8,0.14-1.18l0.23-1.11,0.3-1.09c0.24-.71.46-1.43,0.75-2.12s0.58-1.38.9-2.05,0.68-1.33,1-2,0.76-1.28,1.14-1.92,0.83-1.24,1.26-1.85,0.89-1.2,1.37-1.77,1-1.15,1.47-1.69,1-1.09,1.57-1.59,1.1-1,1.68-1.49,1.17-.93,1.77-1.37l1.87-1.24,0,0h0a9.55,9.55,0,0,1,1.16-.32c0.38-.09.77-0.15,1.16-0.2a11.53,11.53,0,0,1,2.36,0,9.92,9.92,0,0,1,1.18.17c0.2,0,.39.1,0.58,0.15a4.24,4.24,0,0,1,.57.18,7.12,7.12,0,0,1,1.1.48,10,10,0,0,1,1,.62h0l-0.62.09,3-3.91h0l0.25,0.7Zm0.19-.92,3.63,1,0.65,0.17-0.4.53h0l-3,3.91-0.25.33-0.37-.24h0a9.16,9.16,0,0,0-.92-0.56,6.26,6.26,0,0,0-1-.43,3.62,3.62,0,0,0-.51-0.16c-0.17,0-.34-0.1-0.52-0.13a9,9,0,0,0-1.07-.16,10.64,10.64,0,0,0-2.18,0c-0.36,0-.72.1-1.08,0.18a8.83,8.83,0,0,0-1,.28l0.07,0-1.82,1.2c-0.59.43-1.15,0.89-1.73,1.33s-1.09,1-1.63,1.45-1,1-1.54,1.55-1,1.1-1.44,1.65-0.89,1.15-1.34,1.73-0.82,1.2-1.24,1.8-0.77,1.24-1.12,1.88-0.71,1.27-1,1.94-0.62,1.32-.88,2-0.5,1.36-.74,2l-0.29,1L142.12,236c-0.06.35-.08,0.68-0.13,1v0.55c0,0.08,0,.22,0,0.24l0,0.26a10.2,10.2,0,0,0,.52,2.06,12.94,12.94,0,0,0,.9,1.94,10.84,10.84,0,0,0,1.21,1.74l0.24,0.28-0.22.29h0L141.95,248l-0.51.55L141,248h0c0-1.17-1.19-2.35-1.81-3.54l0,0v0a26,26,0,0,1-.93-3c-0.12-.51-0.22-1-0.31-1.54s-0.13-1-.19-1.55-0.14-1.05-.16-1.58l0.05-1.58,0-.79c0-.26.09-0.52,0.13-0.78l0.27-1.56c0.1-.52.29-1,0.44-1.51a11.72,11.72,0,0,1,.51-1.49,23.9,23.9,0,0,1,1.35-2.83c0.26-.45.49-0.92,0.77-1.36l0.87-1.3c0.56-.88,1.25-1.66,1.87-2.5s1.34-1.59,2.08-2.32,1.45-1.48,2.21-2.18,1.54-1.38,2.33-2,1.61-1.3,2.44-1.92l1.25-.91a7,7,0,0,1,1.4-.84,9.63,9.63,0,0,1,3.16-.67,26.63,26.63,0,0,1,6.23.5h0Z"/><path class="cls-1" d="M162.13,220.53l-4.61-2.73s3-5.06.37-9.82-12.27-10.86-24.18-4.46S119.58,214.53,120,222s3.65,12.8,7.51,14,10.64,2.75,19.19-5.88l6.71,2.08Z"/><path d="M158.1,217.63a12.14,12.14,0,0,0,1.31-5.87,9.58,9.58,0,0,0-.71-3.2,10.65,10.65,0,0,0-1.76-2.76,17.53,17.53,0,0,0-11.35-5.51,19.1,19.1,0,0,0-6.39.51,25.16,25.16,0,0,0-6,2.32c-1.82,1-3.67,2.05-5.41,3.24a27.35,27.35,0,0,0-4.87,4.13,15.62,15.62,0,0,0-1.92,2.62,13.14,13.14,0,0,0-1.22,3,19.47,19.47,0,0,0-.45,6.41,23.73,23.73,0,0,0,1.24,6.28,15,15,0,0,0,3.3,5.58,8.49,8.49,0,0,0,2.75,1.92,13.53,13.53,0,0,0,1.56.51c0.52,0.15,1,.27,1.57.38a17.79,17.79,0,0,0,3.24.32,15.38,15.38,0,0,0,3.24-.38,18.1,18.1,0,0,0,5.93-2.55,22.11,22.11,0,0,0,3.9-3.25l0.84-.73,6.29,1.95,0.3,0.09,0.19-.25,9.07-12Zm-4.9,14-5.48-1.7,0.78-.74a44.86,44.86,0,0,0,3.45-3.7,25.25,25.25,0,0,0,1.73-2.31,12.63,12.63,0,0,0,1.37-2.69,11.79,11.79,0,0,0,.72-3,10.12,10.12,0,0,0-.93-5.61,10.43,10.43,0,0,0-1.39-2.06,12.85,12.85,0,0,0-1.49-1.45c-0.48-.38-0.93-0.69-1.29-0.94l-1.19-.7-0.43.78,1.11,0.69c0.33,0.24.74,0.54,1.18,0.9a11.86,11.86,0,0,1,1.33,1.36,10.58,10.58,0,0,1,1.21,1.87,8.79,8.79,0,0,1,.74,2.36,10.22,10.22,0,0,1-.62,5.32,11.45,11.45,0,0,1-1.29,2.47,24.08,24.08,0,0,1-1.67,2.19c-1.17,1.37-2.35,2.58-3.37,3.61l-1.92,1.9a49.36,49.36,0,0,1-4.27,3.24,16.78,16.78,0,0,1-5.49,2.39,14.07,14.07,0,0,1-3,.36,16.52,16.52,0,0,1-3-.29c-0.49-.1-1-0.21-1.47-0.35a12.42,12.42,0,0,1-1.42-.45,7.23,7.23,0,0,1-2.34-1.63,13.74,13.74,0,0,1-3-5.1,22.47,22.47,0,0,1-1.19-6,18.29,18.29,0,0,1,.4-6,11.93,11.93,0,0,1,1.1-2.76,14.45,14.45,0,0,1,1.76-2.42,26.21,26.21,0,0,1,4.64-4c1.7-1.16,3.47-2.19,5.31-3.2a24,24,0,0,1,5.66-2.22,18,18,0,0,1,6-.5,16.53,16.53,0,0,1,10.69,5.07,9.72,9.72,0,0,1,1.62,2.47,8.61,8.61,0,0,1,.66,2.87,11.37,11.37,0,0,1-1.33,5.77h0l-0.22.39,0.37,0.22,4.18,2.48Z"/><path class="cls-1" d="M202.15,175.32s-4,14.88-3.57,20.23-0.15,14.22,13.09,29.35c4.11,4.7,8.46,8.73,10.65,10.92a10.5,10.5,0,0,0,6.91,3.18c2.23,0.3,9.94,1.14,13.21-5.85l0.4-4-0.4,4c0.63,2.31,2.93,4.79,5.83,6,5.5,2.35,8.78,1.37,12.05,0s16.69-8.73,19.34-11.34c19.49-19.19,1.42-34.69-2.44-50.71l-11.33-50.79-15.85,26.07s-9.6.48-11.83,0.82-7.48-.89-9-4.58-3.35-4.69-3-11.94-1.67-36.27-9.82-47.42-16.51-28.9-42.85-47.2c0,0-9.15-7.14-11.16,3.12s0.67,32.58,1.34,36.6,9.15,40.62,10.94,45.75,6.47,14.06,12.05,18.08,14.51,10.79,16.29,14.21S206.58,164.25,202.15,175.32Z"/><path class="cls-4" d="M219.41,154.49s0.6-32.43-8.63-53.56S188.17,57.78,181,53s-14.58-8-14.58,0,5.2,44.12,7.74,52.67c2.83,9.52,9.82,28,15.18,33s22.91,21.13,22.91,21.13"/><path d="M218.89,154.48s0.08-3.91-.28-10.76c-0.19-3.42-.5-7.58-1-12.32a146.9,146.9,0,0,0-2.7-15.78c-0.3-1.44-.7-2.88-1.11-4.35s-0.86-3-1.36-4.45a87.13,87.13,0,0,0-3.66-9.06c-2.79-6.13-6-12.47-9.59-18.89-1.81-3.2-3.69-6.43-5.73-9.61s-4.17-6.36-6.54-9.38L185,57.67c-0.66-.69-1.26-1.45-2-2.09l-1-1-1.11-.86c-0.76-.56-1.61-1.07-2.42-1.58a32.7,32.7,0,0,0-5.12-2.63,11,11,0,0,0-2.68-.71,3.33,3.33,0,0,0-2.37.45,3.24,3.24,0,0,0-1.12,2.13,12.33,12.33,0,0,0-.1,2.8c0.08,1.94.27,3.86,0.46,5.81,0.4,3.88.89,7.75,1.39,11.57,1,7.66,2.17,15.18,3.45,22.42,0.66,3.61,1.3,7.18,2.18,10.56s2.08,6.65,3.22,9.81a133.51,133.51,0,0,0,7.55,17.33,27.1,27.1,0,0,0,4.72,6.69l5.61,5.17,9.12,8.4c5.08,4.63,7.8,7.48,7.8,7.48l-0.72.77s-3.06-2.48-8.09-7.17l-9.11-8.41-5.6-5.18a20.28,20.28,0,0,1-1.46-1.56c-0.42-.57-0.9-1.13-1.27-1.74-0.81-1.2-1.55-2.46-2.26-3.77a134.84,134.84,0,0,1-7.61-17.54c-1.14-3.19-2.29-6.47-3.24-9.93s-1.53-7.05-2.18-10.69c-1.27-7.27-2.4-14.81-3.42-22.48-0.5-3.84-1-7.71-1.38-11.62-0.18-1.94-.37-3.93-0.45-5.91a13.45,13.45,0,0,1,.12-3.07,4.49,4.49,0,0,1,1.63-2.92,4.57,4.57,0,0,1,3.26-.69,12.21,12.21,0,0,1,3,.79,33.88,33.88,0,0,1,5.32,2.74c0.84,0.53,1.67,1,2.48,1.63l1.21,0.94,1.08,1c0.74,0.68,1.35,1.45,2,2.16l1.87,2.27c2.4,3.07,4.55,6.28,6.59,9.49s3.94,6.45,5.74,9.67c3.59,6.45,6.81,12.83,9.6,19a88.38,88.38,0,0,1,3.69,9.17c0.5,1.52,1,3,1.37,4.51s0.81,2.95,1.11,4.4a147.92,147.92,0,0,1,2.69,15.91c0.54,4.77.84,8.95,1,12.39,0.35,6.88.27,10.83,0.27,10.83h-1.05Z"/><path class="cls-4" d="M238.38,222.19a3,3,0,0,0,0,2.45c0.6,1.34,4.46,4.46,4.46,4.46s5.73-2,6-3.46,0.22-3.31-2-4.13S239.2,220,238.38,222.19Z"/><path class="cls-3" d="M154.36,212.15l0.64-.45c2.29-1.61,6.76-1.2,10-.62l3.62,0.93-3,3.92c-3.89-2.8-8.72-1-8.72-1q-0.82.5-1.6,1A13,13,0,0,0,154.36,212.15Z"/><ellipse cx="218.48" cy="267.03" rx="0.5" ry="1.89" transform="translate(-125.97 247.26) rotate(-47.43)"/><ellipse cx="224.19" cy="259.29" rx="0.5" ry="1.89" transform="translate(-101.97 364.7) rotate(-67.06)"/><ellipse cx="226.7" cy="254.71" rx="0.5" ry="1.89" transform="translate(-38.69 468.8) rotate(-87.22)"/><ellipse cx="234.17" cy="256.22" rx="0.5" ry="1.89" transform="translate(-93.05 372.01) rotate(-67.06)"/><ellipse cx="211.48" cy="276.25" rx="0.5" ry="1.89" transform="translate(-109.79 142.75) rotate(-30)"/><ellipse cx="203.39" cy="284.42" rx="0.5" ry="1.89" transform="translate(-66.6 62.23) rotate(-14.98)"/><ellipse cx="213.66" cy="288.06" rx="0.5" ry="1.89" transform="translate(-22.82 18.42) rotate(-4.69)"/><ellipse cx="254.66" cy="286.17" rx="0.5" ry="1.89" transform="translate(-22.53 21.77) rotate(-4.69)"/><ellipse cx="240.91" cy="283.43" rx="0.5" ry="1.89" transform="translate(-22.36 20.63) rotate(-4.69)"/><ellipse cx="252.37" cy="276.25" rx="0.5" ry="1.89" transform="translate(-73.9 93.08) rotate(-18.28)"/><ellipse cx="203.92" cy="294.33" rx="0.5" ry="1.89" transform="translate(-23.37 17.65) rotate(-4.69)"/><ellipse cx="223.66" cy="274.09" rx="0.5" ry="1.89" transform="matrix(0.8, -0.59, 0.59, 0.8, -119.12, 186.61)"/><ellipse cx="232.05" cy="265.48" rx="0.5" ry="1.89" transform="matrix(0.8, -0.59, 0.59, 0.8, -112.36, 189.91)"/><ellipse cx="242.06" cy="260.5" rx="0.5" ry="1.89" transform="translate(-107.44 194.88) rotate(-36.47)"/><ellipse cx="226.7" cy="279.53" rx="0.5" ry="1.89" transform="translate(-86.12 101.57) rotate(-21.32)"/><ellipse cx="237.34" cy="274.92" rx="0.5" ry="1.89" transform="translate(-83.72 105.12) rotate(-21.32)"/><ellipse cx="248.18" cy="268.79" rx="0.5" ry="1.89" transform="matrix(0.93, -0.36, 0.36, 0.93, -80.75, 108.64)"/><ellipse cx="228.4" cy="287.06" rx="0.5" ry="1.89" transform="translate(-45.3 42.81) rotate(-9.75)"/><path class="cls-4" d="M253.86,151.52l19.15,7.7s-4.13-20.14-4.72-22.87c-1.37-6.32-3.27-6-5.52-3.65Z"/><path class="cls-1" d="M242.85,229.11l-0.4,4c0.63,2.31,2.93,4.79,5.83,6"/><path d="M243.29,229.15l-0.4,4V233a9.65,9.65,0,0,0,2.31,3.26,15.56,15.56,0,0,0,1.56,1.3l0.83,0.59,0.86,0.58-0.35.82a8.3,8.3,0,0,1-3.86-2.34,9.15,9.15,0,0,1-1.4-1.82,6.39,6.39,0,0,1-.51-1,6.09,6.09,0,0,1-.32-1.12l0-.1v-0.06l0.4-4Z"/><path class="cls-5" d="M226.64,191.42a8.73,8.73,0,0,0-7.93-5.67,9.52,9.52,0,0,0-3.28.36c-0.74.25-.34-0.15,0.13,0.06l-1.49-.64a1,1,0,1,0-.82,1.91,4.38,4.38,0,0,0,3.21.49,6.92,6.92,0,0,1,8.26,4.2,1,1,0,0,0,1.92-.72h0Z"/><path class="cls-5" d="M262.66,193.3a7.27,7.27,0,0,1,3.92-3.88c2.22-.86,3.93,0,6,0.6a5.08,5.08,0,0,0,2.8-.17,1,1,0,1,0-.45-2,3.44,3.44,0,0,1-2.13,0,21.8,21.8,0,0,0-3.07-.83,8.33,8.33,0,0,0-5,1,9.79,9.79,0,0,0-4,4.67c-0.51,1.25,1.47,1.81,2,.64h0Z"/><path d="M289.25,207.88a32.91,32.91,0,0,0-2.23-9.36c-2.27-6-5.52-11.41-7.75-17.22a39.88,39.88,0,0,1-1.39-4.41l-1-4.61-2.07-9.21-8.42-36.82v0l-0.24-1.07-0.57.93-8,13-4,6.51-2,3.25-1,1.63a13.52,13.52,0,0,0-.77,1.39l-0.15,0a21.58,21.58,0,0,0-3.83,0,21.28,21.28,0,0,0-3.15.48l-2.25.14c-0.79.06-1.63,0.13-2.4,0.22a7.74,7.74,0,0,1-2.22-.15,10.19,10.19,0,0,1-4.13-1.74,5.8,5.8,0,0,1-1.5-1.57c-0.38-.57-0.65-1.33-1-2.08a21,21,0,0,1-1.9-4.26,17.5,17.5,0,0,1-.49-4.59c0-1.56.1-3.19,0.05-4.81A156.19,156.19,0,0,0,225,114.27c-0.53-3.17-1.07-6.34-1.85-9.46-0.34-1.57-.83-3.11-1.24-4.67s-1-3.08-1.61-4.57a39.08,39.08,0,0,0-2.06-4.42l-1.32-2.08-1.38-2c-1.81-2.61-3.55-5.3-5.32-8a149.35,149.35,0,0,0-11.54-15.41A124.62,124.62,0,0,0,185,50.18l-1.84-1.56c-0.62-.51-1.26-1-1.89-1.5-1.27-1-2.51-2-3.82-2.93l-3.9-2.82A13.41,13.41,0,0,0,169,39.25a6.37,6.37,0,0,0-2.63-.1A4.64,4.64,0,0,0,164,40.38,8.62,8.62,0,0,0,161.78,45c-0.15.84-.27,1.59-0.37,2.4s-0.17,1.63-.23,2.44l-0.12,2.42,0,2.41a189.3,189.3,0,0,0,1.08,19.22c0.17,1.59.34,3.19,0.54,4.78s0.41,3.22.75,4.78c0.66,3.16,1.36,6.27,2.07,9.39q2.13,9.36,4.38,18.69l2.3,9.32c0.4,1.55.79,3.1,1.23,4.65,0.21,0.78.45,1.55,0.7,2.34s0.56,1.51.88,2.26a53.91,53.91,0,0,0,4.59,8.54,30,30,0,0,0,6.5,7.28c2.6,1.9,5.15,3.78,7.65,5.77a68,68,0,0,1,7.1,6.3,13,13,0,0,1,1.42,1.79c0.37,0.6.78,1.4,1.16,2.06a6.76,6.76,0,0,1,.88,4.27,22,22,0,0,1-1,4.54c-0.47,1.5-1,3-1.62,4.47v0.07c-1,3.73-1.87,7.47-2.61,11.26-0.36,1.9-.68,3.8-0.89,5.74a20.43,20.43,0,0,0-.13,3c0,1,.12,1.92.18,2.89a37.59,37.59,0,0,0,.8,5.79c0,0.19.1,0.39,0.14,0.58-1-.18-1.9-0.33-2.78-0.45-1.95-.27-3.5-0.35-4.65-0.4l-1.63,0V204l1.61,0.05c1.13,0.07,2.58.17,4.5,0.46,1,0.14,2,.32,3.09.55a34,34,0,0,0,1.49,4.36,42.92,42.92,0,0,0,2.61,5.22c0.48,0.85,1,1.65,1.53,2.48s1.1,1.59,1.65,2.39q1.06,1.44,2.18,2.84c-0.74.09-1.48,0.18-2.2,0.29l-2.89.64-2.64.82c-0.83.28-1.58,0.64-2.29,0.93a17.76,17.76,0,0,0-1.89.86l-1.42.75-1.24.65,0.34,0.62,1.25-.57,1.43-.66a17.18,17.18,0,0,1,1.89-.75c0.71-.24,1.45-0.55,2.27-0.79l2.58-.72,2.81-.53c1-.11,1.95-0.21,2.93-0.29h0.09l0.39,0.48c1.22,1.49,2.53,2.92,3.85,4.33s2.68,2.77,4,4.13l4.13,4a10.74,10.74,0,0,0,5.32,2.86,22.63,22.63,0,0,0,5.91.41,12.09,12.09,0,0,0,5.73-1.81,9.66,9.66,0,0,0,3.34-3.67,9.91,9.91,0,0,0,2.24,3.13,12.44,12.44,0,0,0,4.15,2.62,16.41,16.41,0,0,0,4.76,1.19,13,13,0,0,0,4.92-.59,28.06,28.06,0,0,0,4.46-1.87q2.13-1.07,4.21-2.2,1.87-1,3.72-2.06c0.79,0.33,1.51.77,2.26,1.15s1.42,0.86,2.11,1.26,1.29,0.9,1.89,1.32,1.13,0.87,1.63,1.27,1,0.76,1.33,1.13l1,0.93,0.85,0.81,0.3-.28-0.83-.85-1-1c-0.36-.39-0.83-0.75-1.31-1.19a20.82,20.82,0,0,0-1.61-1.34c-0.6-.44-1.21-0.94-1.89-1.38s-1.37-.92-2.12-1.34-1.2-.67-1.81-1c1.24-.71,2.48-1.44,3.7-2.2s2.68-1.7,4-2.7a11.81,11.81,0,0,0,1-.85l0.82-.85,0.82-.85,0.79-.92a29.15,29.15,0,0,0,5.08-8.23A21.81,21.81,0,0,0,289.25,207.88ZM207.56,218.7c-1.11-1.54-2.16-3.12-3.12-4.76a41.63,41.63,0,0,1-2.54-5.06,33.56,33.56,0,0,1-1.26-3.53c0.64,0.15,1.3.31,2,.5a64.45,64.45,0,0,1,7.2,2.46,72.56,72.56,0,0,1,10.9,5.56l0,0.08-0.89,1.78-0.72,1.86-0.05.19c-0.72-.35-1.46-0.69-2.22-1-0.59-.22-1.16-0.46-1.75-0.65s-1.15-.4-1.73-0.53-1.11-.31-1.64-0.4-1-.21-1.49-0.26l-1.27-.14c-0.38,0-.71,0-1,0l-0.86,0V215l0.84,0.09c0.27,0,.59,0,1,0.11l1.23,0.23c0.45,0.07.92,0.24,1.43,0.36s1,0.31,1.57.48,1.09,0.4,1.65.61,1.11,0.48,1.67.72c0.8,0.37,1.57.77,2.31,1.17l-0.19.71-0.3,2,0,1.26c-0.84-.16-1.72-0.35-2.65-0.43a26.58,26.58,0,0,0-3-.21,21.55,21.55,0,0,0-2.31,0Q208.87,220.47,207.56,218.7Zm11.34,12.85c-1.36-1.34-2.7-2.7-4-4.09s-2.39-2.59-3.51-3.94c0.39,0,.77,0,1.16,0a25.21,25.21,0,0,1,2.83.24c0.92,0.09,1.78.3,2.61,0.46l0.26,0.07c0,0.4.08,0.8,0.12,1.21a16.2,16.2,0,0,0,.38,2c0.07,0.32.14,0.65,0.22,1l0.31,0.94c0.22,0.62.39,1.27,0.66,1.87l0.8,1.81c0.07,0.17.16,0.33,0.24,0.49Zm24-3c-1.52-1.25-3.71-3.23-4.08-4.08a2.43,2.43,0,0,1,0-2l0-.18c0.36-1,2.1-1.25,3.16-1.25h0.06a14.58,14.58,0,0,1,4.59.89c1.52,0.56,2.05,1.8,1.67,3.65C248.22,226.21,245.5,227.59,242.95,228.51Zm23.44,6.71c-0.88.49-1.77,0.95-2.66,1.41a12.09,12.09,0,0,0,1.77-3.24c0.09-.25.17-0.52,0.25-0.78l0.45,0.13c0.76,0.24,1.54.49,2.32,0.8l0.49,0.2C268.13,234.24,267.26,234.74,266.39,235.22Zm21.18-22.7a21.55,21.55,0,0,1-1.19,4.38,27.63,27.63,0,0,1-4.83,7.74l-0.74.87-0.82.85-0.82.85c-0.25.22-.51,0.47-0.81,0.69-1.2.92-2.52,1.76-3.84,2.58q-2.27,1.4-4.59,2.73c-0.36-.16-0.72-0.32-1.09-0.46-0.79-.34-1.58-0.62-2.36-0.88l-0.49-.15a20,20,0,0,0,.44-2.58c0.08-.83.11-1.67,0.11-2.53l0.67,0,1.2,0.16c0.38,0.06.74,0.16,1.07,0.23a13.86,13.86,0,0,1,1.57.45l0.59,0.19,0.28-.75-0.61-.2a14.6,14.6,0,0,0-1.64-.49c-0.35-.08-0.72-0.18-1.12-0.25l-1.27-.18-0.78,0c0-.4,0-0.8,0-1.21a39.91,39.91,0,0,0-.63-4.65,13.37,13.37,0,0,0-.37-1.59c0.39-.24.78-0.47,1.18-0.69a16,16,0,0,1,1.87-.85,13.38,13.38,0,0,1,1.9-.57,11,11,0,0,1,1.83-.22,9.77,9.77,0,0,1,1.65.09l0.72,0.13,0.64,0.18c0.4,0.12.73,0.28,1,.39l0.84,0.44,0.24-.39-0.86-.5c-0.29-.12-0.63-0.31-1.05-0.45l-0.67-.22-0.77-.18a9.87,9.87,0,0,0-1.76-.17,11.69,11.69,0,0,0-2,.18,14.17,14.17,0,0,0-2,.55,16.76,16.76,0,0,0-2,.84c-0.36.18-.71,0.37-1.06,0.57-0.23-.7-0.49-1.39-0.72-2.07-0.52-1.45-1.05-2.85-1.57-4.22L260,203.75l-3-7.17-0.83.33,2.77,7.24,2.83,7.43c0.5,1.36,1,2.77,1.52,4.21,0.26,0.78.54,1.56,0.78,2.33a31,31,0,0,0-4.25,3.34,17.1,17.1,0,0,0-2.4,2.67l0.69,0.56,0.67-.68c0.43-.43,1-1.06,1.77-1.79a30.35,30.35,0,0,1,3.78-3.18,10.86,10.86,0,0,1,.22,1.07,42.7,42.7,0,0,1,.63,5.63l-0.72,0c-0.47.07-1,.1-1.41,0.2a11.75,11.75,0,0,0-1.34.33,12,12,0,0,0-2.27.93,11,11,0,0,0-1.47.94c-0.33.26-.53,0.45-0.52,0.44l0.61,0.65a5.68,5.68,0,0,1,.46-0.37,10.13,10.13,0,0,1,1.35-.85,11.51,11.51,0,0,1,2.1-.88,10.85,10.85,0,0,1,1.25-.32c0.43-.1.88-0.13,1.32-0.2l0.67,0a23.47,23.47,0,0,1-.08,2.4,18.2,18.2,0,0,1-.39,2.34l-0.56-.16c-0.73-.17-1.41-0.36-2.06-0.47a22.8,22.8,0,0,0-3.14-.43c-0.38,0-.69,0-0.9,0H257.8v0.89a39.07,39.07,0,0,1,4.18.53c0.63,0.09,1.3.26,2,.41l0.55,0.14c-0.07.23-.12,0.48-0.19,0.71a10.9,10.9,0,0,1-1.66,3.14,9.48,9.48,0,0,1-2.17,2.06,4.39,4.39,0,0,1-.39.26c-0.7.31-1.4,0.59-2.1,0.82a11.53,11.53,0,0,1-4.38.63,15.12,15.12,0,0,1-4.39-1,11.28,11.28,0,0,1-3.88-2.24,8.32,8.32,0,0,1-2.47-3.56l0.36-3.6c1.62-.59,5.81-2.25,6.13-3.79,0.61-3-.94-4.26-2.34-4.77a15.55,15.55,0,0,0-4.95-.93H242c-2.25,0-3.68.71-4.13,1.89a3.74,3.74,0,0,0,0,3c0.58,1.31,3.68,3.9,4.47,4.54L242,233a10.48,10.48,0,0,1-3.64,3.89,11.48,11.48,0,0,1-5.15,1.58,21.39,21.39,0,0,1-5.54-.39,9.36,9.36,0,0,1-4.59-2.45c-0.52-1-1.09-1.95-1.53-3l-0.77-1.76c-0.26-.59-0.42-1.21-0.63-1.81l-0.3-.91c-0.08-.31-0.14-0.62-0.21-0.93a15.3,15.3,0,0,1-.35-1.87c0-.28-0.05-0.55-0.08-0.83,0.36,0.1.71,0.2,1,.31,0.7,0.23,1.33.45,1.89,0.66s1,0.39,1.45.53l1.26,0.47,0.48-.76a2.49,2.49,0,0,0-.29-0.24,10.62,10.62,0,0,0-.88-0.62,12.11,12.11,0,0,0-1.45-.76,15.69,15.69,0,0,0-2-.73c-0.49-.16-1-0.3-1.57-0.43l0-1.4,0.28-1.87,0.12-.44c1,0.56,1.88,1.13,2.64,1.64s1.38,0.95,1.84,1.21,0.74,0.4.74,0.4l0.55-.7a5.51,5.51,0,0,0-.62-0.62,13,13,0,0,0-1.86-1.3c-0.85-.52-1.88-1.11-3-1.69l0.09-.32,0.69-1.77,0.85-1.71,0,0,0.85,0.56c1.61,1.08,2.92,2,3.79,2.73,0.42,0.36.77,0.64,1,.83a0.26,0.26,0,0,0,.08.07,0.1,0.1,0,0,1,0,0l0.05,0.11,0.85-.26,0-.11a2,2,0,0,0-.13-0.22,1.72,1.72,0,0,0-.19-0.23,9.79,9.79,0,0,0-1-.94,38.48,38.48,0,0,0-3.86-2.8l-0.91-.57,0.47-.79,1.07-1.61q1.11-1.58,2.29-3.13l2.37-3.1a31.2,31.2,0,0,0,2.22-3.28l0.9-1.78,0.72-1.86a28,28,0,0,0,1-3.83c0.15-.64.22-1.3,0.31-2s0.15-1.31.19-2,0.08-1.31.08-2,0-1.32,0-2c0-1.31-.16-2.62-0.31-3.93a38.61,38.61,0,0,0-.69-3.89l-0.87.21a37.79,37.79,0,0,1,.66,3.79c0.14,1.28.26,2.56,0.29,3.85,0,0.64,0,1.29,0,1.93s0,1.28-.09,1.92-0.09,1.28-.19,1.91-0.16,1.27-.3,1.9a27.06,27.06,0,0,1-1,3.7l-0.69,1.78-0.87,1.7a30.19,30.19,0,0,1-2.16,3.17l-2.37,3.1q-1.19,1.55-2.33,3.16l-1.09,1.64-0.48.8a73.15,73.15,0,0,0-11.08-5.45,64.85,64.85,0,0,0-7.3-2.38c-0.81-.21-1.59-0.39-2.36-0.55-0.1-.38-0.2-0.76-0.28-1.15a36.24,36.24,0,0,1-.78-5.6c-0.06-.95-0.15-1.94-0.18-2.85a19.25,19.25,0,0,1,.12-2.78c0.19-1.88.51-3.76,0.86-5.63,0.72-3.74,1.59-7.47,2.56-11.16,0.58-1.48,1.15-3,1.63-4.5a23.06,23.06,0,0,0,1.09-4.8,8.55,8.55,0,0,0-.1-2.57,8.42,8.42,0,0,0-.92-2.4c-0.42-.73-0.73-1.36-1.2-2.12a14.1,14.1,0,0,0-1.56-2,69,69,0,0,0-7.24-6.43c-2.51-2-5.11-3.91-7.68-5.78a28.82,28.82,0,0,1-6.21-7,52.71,52.71,0,0,1-4.48-8.34c-0.31-.72-0.59-1.45-0.86-2.21s-0.47-1.48-.67-2.25c-0.43-1.53-.83-3.08-1.22-4.62l-2.3-9.31q-2.24-9.32-4.38-18.68c-0.71-3.11-1.42-6.25-2.07-9.35-0.34-1.57-.53-3.1-0.74-4.7s-0.37-3.17-.54-4.75a188.11,188.11,0,0,1-1.08-19.09l0-2.38,0.12-2.37c0.05-.79.14-1.56,0.21-2.34s0.24-1.61.36-2.34a7.48,7.48,0,0,1,1.85-3.94,4.1,4.1,0,0,1,3.93-.83,12.23,12.23,0,0,1,4.1,1.93l3.88,2.81c1.31,0.91,2.53,1.93,3.79,2.91,0.62,0.49,1.26,1,1.87,1.48l1.82,1.55a123.39,123.39,0,0,1,13.56,13.42,148.11,148.11,0,0,1,11.45,15.29c1.77,2.66,3.51,5.34,5.34,8l1.38,2,1.25,2a37.85,37.85,0,0,1,2,4.27c0.63,1.45,1.06,3,1.58,4.47s0.89,3,1.23,4.6c0.77,3.08,1.31,6.23,1.83,9.37a155.07,155.07,0,0,1,1.75,19c0,1.58,0,3.15-.05,4.79a18.68,18.68,0,0,0,.54,4.92,22,22,0,0,0,2,4.49,24,24,0,0,0,1.1,2.2,7,7,0,0,0,1.8,1.88,11.26,11.26,0,0,0,4.64,2,9,9,0,0,0,2.56.13c0.82-.11,1.57-0.18,2.37-0.26l3.13-.24h2.25c1.07,0,2.32,0,3.62.08a9.9,9.9,0,0,1,1.89.34c0.69,0.23,1.32.47,2,.73l10.8,4.29,0.36-.81s-1.3-.66-3.28-1.6c-1-.48-2.15-1-3.4-1.57s-2.58-1.16-3.94-1.71c-0.67-.27-1.4-0.56-2.06-0.78a8.71,8.71,0,0,0-1-.26c0.22-.32.42-0.65,0.63-1l1-1.63,2-3.26,3.94-6.52,7.28-12.1,7.79,35.83,2,9.22,1,4.61a41.07,41.07,0,0,0,1.43,4.6c2.27,6,5.5,11.42,7.67,17.24a31.45,31.45,0,0,1,2.1,8.95A21.32,21.32,0,0,1,287.56,212.52Z"/><circle class="cls-5" cx="231.53" cy="220.97" r="0.58" transform="translate(-61.19 350.39) rotate(-67.51)"/><circle class="cls-5" cx="228.28" cy="224.46" r="0.44" transform="translate(-66.42 349.54) rotate(-67.51)"/><circle class="cls-5" cx="231.65" cy="226.91" r="0.53" transform="translate(-66.6 354.16) rotate(-67.51)"/><circle class="cls-5" cx="253.24" cy="225.97" r="0.58" transform="translate(-67.17 114.03) rotate(-22.49)"/><circle class="cls-5" cx="255.49" cy="229.46" r="0.44" transform="translate(-68.34 115.16) rotate(-22.49)"/><circle class="cls-5" cx="253.12" cy="231.91" r="0.53" transform="translate(-69.45 114.44) rotate(-22.49)"/><path class="cls-1" d="M253.86,151.52s7.87-17.64,9-18.82c3.94-4.13,4.69.22,5.58,3.65S280,205.1,294,216.61c10.12,8.3,14.37-21.05,13.78-37s-0.52-31.76-3.5-40.69S280,115.59,270.37,118.86c-8.73,3-18,28.24-19.3,32.08"/><path d="M253.45,151.33l0.31-.75c0.2-.49.51-1.22,0.93-2.17,0.83-1.89,2.06-4.66,3.7-8.16,0.82-1.75,1.72-3.68,2.78-5.77,0.27-.52.54-1,0.87-1.6a4.91,4.91,0,0,1,.29-0.43,3.65,3.65,0,0,1,.36-0.39,9.1,9.1,0,0,1,.73-0.67,3.76,3.76,0,0,1,2-1,1.93,1.93,0,0,1,1.29.38,3.07,3.07,0,0,1,.8.92,16.72,16.72,0,0,1,1.38,4.08c0.36,1.43.59,2.86,0.88,4.35l1.81,9.3c1.3,6.47,2.79,13.47,4.56,20.82s3.82,15.06,6.42,22.88A124,124,0,0,0,287,204.86a58.12,58.12,0,0,0,2.9,5.64,24.27,24.27,0,0,0,3.79,5,11.73,11.73,0,0,0,1.19,1,5.83,5.83,0,0,0,1.27.68,3.1,3.1,0,0,0,2.64-.14,6.45,6.45,0,0,0,2.13-2,16.77,16.77,0,0,0,1.52-2.77,53.4,53.4,0,0,0,3.34-12.56,111,111,0,0,0,1.28-13c0.09-2.18.11-4.36,0-6.52l-0.21-6.53c-0.29-8.66-.41-17.21-1.39-25.36a59.8,59.8,0,0,0-1-6l-0.35-1.45-0.42-1.42c-0.06-.24-0.15-0.45-0.24-0.68s-0.17-.42-0.28-0.63a13.3,13.3,0,0,0-.69-1.25,35.12,35.12,0,0,0-7.84-8.25,56.36,56.36,0,0,0-9.14-5.92,33.82,33.82,0,0,0-9.49-3.4,12.9,12.9,0,0,0-4.6,0,8.08,8.08,0,0,0-3.76,2,30.48,30.48,0,0,0-5.25,6.49,96.48,96.48,0,0,0-6.39,12.23c-1.56,3.51-2.66,6.32-3.44,8.22s-1.15,2.93-1.15,2.93l-0.85-.28A89.81,89.81,0,0,1,255,139.43a97.6,97.6,0,0,1,6.46-12.4,31.61,31.61,0,0,1,5.48-6.76,9.32,9.32,0,0,1,4.32-2.28,14.11,14.11,0,0,1,5.05,0,35,35,0,0,1,9.86,3.51,57.6,57.6,0,0,1,9.35,6,36.28,36.28,0,0,1,8.14,8.57,14.59,14.59,0,0,1,.75,1.37c0.11,0.23.22,0.48,0.33,0.74s0.19,0.49.26,0.74l0.44,1.48,0.37,1.5a61,61,0,0,1,1,6.12c1,8.26,1.13,16.82,1.43,25.48l0.22,6.52c0.07,2.2,0,4.41,0,6.61a112,112,0,0,1-1.29,13.21,54.6,54.6,0,0,1-3.46,12.88,18,18,0,0,1-1.65,3,7.69,7.69,0,0,1-2.59,2.43,4.42,4.42,0,0,1-3.69.2,7.06,7.06,0,0,1-1.59-.86,13.12,13.12,0,0,1-1.31-1.09,25.46,25.46,0,0,1-4-5.29,59.32,59.32,0,0,1-3-5.77,125.27,125.27,0,0,1-4.51-11.81c-2.6-7.87-4.63-15.62-6.4-23s-3.25-14.39-4.54-20.87l-1.79-9.32c-0.29-1.47-.52-2.94-0.86-4.28a16.11,16.11,0,0,0-1.24-3.78,1.19,1.19,0,0,0-1-.76,2.77,2.77,0,0,0-1.38.7,7.82,7.82,0,0,0-.65.59,2.66,2.66,0,0,0-.27.28c-0.06.08-.14,0.21-0.21,0.33-0.29.49-.57,1-0.83,1.53-1,2.05-2,4-2.78,5.73l-3.77,8.11c-0.43.94-.77,1.65-1,2.13l-0.35.73Z"/><polygon class="cls-3" points="201.16 340.98 212.35 383 247.38 383 253.86 362 260.11 341 262 341 262 327 198 327 198 340.95 201.16 340.98"/><path d="M262.33,326.19c-2.68-.22-5.58-0.23-8.25-0.22l-8,0L230,326l-16.07,0-16.07.11h-0.42l0,0.44c-0.08,1.19-.13,2.39-0.16,3.58s0,2.39-.06,3.58,0,2.39,0,3.58,0.08,2.39.18,3.58l0,0.45h0.41l2.89,0c1.7,6.92,3.51,13.81,5.39,20.69L209,372.53c0.94,3.5,1.94,7,2.92,10.46l0.09,0.32h0.34q4.38,0.12,8.76.17l8.76,0.05,8.76,0q4.38,0,8.76-.18l0.33,0,0.09-.33,6.46-21,6.22-21H263V326.22Zm-64,14.31c0.08-1,.12-2.09.15-3.13,0-1.19,0-2.39,0-3.58s0-2.39-.05-3.58-0.07-2.09-.14-3.13l15.6,0.11,16.08,0,16.09,0,8.08,0c2.59,0,5.25,0,7.84-.2V340h-2.23l-0.08.49-8.83.35c-2.77.1-6,.23-9.45,0.31s-7.15.19-10.83,0.22-7.38.06-10.83,0l-5-.09c-1.58,0-3.08-.08-4.46-0.15-2.76-.12-5.05-0.26-6.66-0.4-1.1-.09-1.85-0.18-2.22-0.23v0Zm55.11,21.29-6.37,20.63q-4.22-.12-8.43-0.17l-8.76,0-8.76.05c-2.8,0-5.61.09-8.41,0.16-0.86-3.4-1.72-6.8-2.63-10.18l-2.77-10.5q-2.68-10.17-5.6-20.27c0.43,0.07,1.06.16,1.85,0.25,1.61,0.19,3.92.46,6.69,0.62s6,0.34,9.48.39,7.17,0.09,10.87,0c1.85,0,3.7-.07,5.52-0.12s3.61-.1,5.34-0.17c3.46-.13,6.69-0.32,9.46-0.47s5.07-.35,6.68-0.46l1.83-.13Z"/><path class="cls-1" d="M271.26,278s7.14,23.5,5.8,28.82-2.9,13.36-5.8,16.26c0,0-6.7-8.26-9.82-5.13s-5.44,8,1.41,15.85c0,0-7,12.05-8.1,15.18s-2.68,13.17.89,16.29,8.7,4.69,14.51-8.48,7.09-15.59,7.09-15.59"/><path d="M271.47,277.92q1.71,5.62,3.19,11.31c1,3.8,1.9,7.61,2.5,11.5l0.21,1.46,0.14,1.48a12.61,12.61,0,0,1-.07,3c-0.19,1-.45,1.91-0.66,2.87l-0.69,2.86c-0.48,1.9-1,3.8-1.65,5.67a24.13,24.13,0,0,1-1.16,2.75,10.33,10.33,0,0,1-1.71,2.54l-0.34.35-0.32-.39h0a29.82,29.82,0,0,0-2.59-2.63,17.4,17.4,0,0,0-2.91-2.16,6.11,6.11,0,0,0-1.58-.64,2.21,2.21,0,0,0-1.44.09,1.93,1.93,0,0,0-.56.41c-0.21.23-.45,0.46-0.62,0.68a10.13,10.13,0,0,0-1,1.42,5.58,5.58,0,0,0-.41.77,5,5,0,0,0-.32.8,4.93,4.93,0,0,0-.23.83,4.87,4.87,0,0,0-.13.85,5.1,5.1,0,0,0,0,.86,4.38,4.38,0,0,0,.07.87,9.33,9.33,0,0,0,.39,1.71,14,14,0,0,0,.68,1.66,16.07,16.07,0,0,0,.86,1.6c0.32,0.52.68,1,1,1.53l1.12,1.47h0l0.2,0.25-0.15.27c-1.47,2.6-2.89,5.23-4.32,7.85-0.71,1.31-1.41,2.63-2.09,4a25.12,25.12,0,0,0-1.76,4,29.75,29.75,0,0,0-.81,4.3,32.12,32.12,0,0,0-.22,4.38,13.74,13.74,0,0,0,.67,4.23,5.43,5.43,0,0,0,1,1.75l0.32,0.35,0.43,0.36c0.29,0.26.57,0.42,0.85,0.63a5.38,5.38,0,0,0,3.85,1,7.09,7.09,0,0,0,3.53-2.09,15.2,15.2,0,0,0,1.4-1.66,20.14,20.14,0,0,0,1.23-1.82,38.78,38.78,0,0,0,2.07-3.92c0.64-1.34,1.21-2.73,1.83-4.09l1.82-4.1,1.84-4.1c0.64-1.36,1.2-2.73,2-4.06l0.79,0.42c-0.58,1.34-1.26,2.69-1.88,4l-1.87,4.08-3.67,8.19a39.69,39.69,0,0,1-2.07,4,21.09,21.09,0,0,1-1.26,1.91,16.19,16.19,0,0,1-1.47,1.78,8.09,8.09,0,0,1-4.06,2.43,6.45,6.45,0,0,1-4.65-1.09c-0.32-.23-0.68-0.46-1-0.69l-0.44-.35c-0.17-.16-0.3-0.31-0.45-0.47a6.55,6.55,0,0,1-1.23-2.11,14.85,14.85,0,0,1-.78-4.59,28.39,28.39,0,0,1,.24-4.57,30.59,30.59,0,0,1,.9-4.5,26.14,26.14,0,0,1,1.86-4.17c0.69-1.33,1.41-2.65,2.13-4,1.44-2.63,3-5.2,4.49-7.78l0.05,0.52h0l-1.27-1.43c-0.39-.51-0.79-1-1.15-1.55a17.29,17.29,0,0,1-1-1.67,12,12,0,0,1-.78-1.8,10.55,10.55,0,0,1-.46-1.94,8.7,8.7,0,0,1-.06-2,6,6,0,0,1,.16-1,8.72,8.72,0,0,1,.66-1.91,6.69,6.69,0,0,1,.48-0.88,11.32,11.32,0,0,1,1.19-1.61c0.22-.26.43-0.46,0.65-0.7a3.18,3.18,0,0,1,.95-0.68,3.37,3.37,0,0,1,2.24-.14,7.25,7.25,0,0,1,1.88.81,16.67,16.67,0,0,1,3,2.4,30.71,30.71,0,0,1,2.57,2.83h0l-0.66,0a9.51,9.51,0,0,0,1.58-2.3,23.23,23.23,0,0,0,1.14-2.64c0.66-1.82,1.19-3.69,1.68-5.58l0.71-2.84c0.22-.95.49-1.91,0.69-2.84a12.1,12.1,0,0,0,.08-2.82l-0.13-1.45-0.2-1.44c-0.56-3.85-1.45-7.67-2.38-11.46s-2-7.57-3.06-11.32Z"/><polygon class="cls-3" points="136.75 254.18 169.27 277.98 184.23 259.68 191.37 265.26 199.63 281.55 219.64 252.99 202.86 253.88 192.65 247.7 205.87 230.74 173.51 205.45 136.75 254.18"/><path d="M219.61,252.54c-2.79.24-5.59,0.36-8.38,0.55s-5.5.28-8.26,0.34c-0.83-.45-1.65-0.94-2.47-1.42s-1.7-1-2.55-1.55c-1.55-1-3.11-1.9-4.65-2.88L206.23,231l0.27-.34-0.34-.28q-4-3.26-8-6.43c-2.69-2.12-5.35-4.27-8.06-6.36L182,211.33c-2.7-2.1-5.43-4.17-8.16-6.23l-0.35-.26-0.28.35q-2.55,3.17-5,6.39l0-.06,0,0.06a11.81,11.81,0,0,0-3-.76V210.6h0a26.35,26.35,0,0,0-5.55-.52,12.23,12.23,0,0,0-2.83.37,5.33,5.33,0,0,0-.7.22,6.14,6.14,0,0,0-.7.32c-0.22.13-.37,0.22-0.61,0.39l-0.87.64,0.19,0.35a6.7,6.7,0,0,1,.57,1.74,19.05,19.05,0,0,1,.3,1.9l0.08,0.75,0.62-.42h0l1.52-1a8.81,8.81,0,0,1,1-.28c0.36-.08.72-0.14,1.08-0.19s0.73-.08,1.1-0.08a7.89,7.89,0,0,1,1.1,0,9.19,9.19,0,0,1,1.08.17c0.18,0,.35.1,0.53,0.14a3.63,3.63,0,0,1,.51.17,6.1,6.1,0,0,1,1,.45,2.83,2.83,0,0,1,.35.21l-1,1.31-9.16,12.2-9.15,12.21c-3.06,4.06-6.06,8.17-9.09,12.26l-0.26.35,0.35,0.28c2.62,2.11,5.28,4.16,8,6.19s5.38,4,8.07,6,5.44,3.94,8.17,5.91,5.51,3.84,8.34,5.67l0.35,0.22,0.26-.3q1.95-2.23,3.85-4.49c1.27-1.5,2.51-3,3.77-4.55l3.71-4.6q1.69-2.13,3.34-4.31c1,0.91,2.06,1.78,3.13,2.63a39,39,0,0,0,3.6,2.6c1.31,2.71,2.67,5.39,4,8.08,0.69,1.36,1.35,2.73,2.06,4.07s1.39,2.71,2.13,4l0.36,0.64,0.41-.59,10-14.3,5-7.15c1.66-2.38,3.32-4.77,5-7.11l0.57-.78Zm-55.88-38a4.15,4.15,0,0,0-.57-0.17c-0.19,0-.38-0.11-0.58-0.14a9.93,9.93,0,0,0-1.17-.16,11.94,11.94,0,0,0-2.35,0c-0.39,0-.78.1-1.16,0.19a9.51,9.51,0,0,0-1.15.31h0l0,0-1,.65c-0.06-.44-0.13-0.87-0.23-1.3a8.63,8.63,0,0,0-.51-1.61l0.28-.19c0.14-.09.38-0.24,0.56-0.33a5.6,5.6,0,0,1,.56-0.24,5.48,5.48,0,0,1,.61-0.2,11.31,11.31,0,0,1,2.6-.34,29.81,29.81,0,0,1,5.35.45l0-.12a21.2,21.2,0,0,0,2.93.62l-2.46,3.3a2.13,2.13,0,0,0-.47-0.28A7.43,7.43,0,0,0,163.73,214.51Zm50.58,45.39-5,7.13-9.59,13.64c-0.54-1.15-1.11-2.29-1.67-3.43-0.66-1.37-1.38-2.71-2.07-4.07-1.39-2.71-2.77-5.42-4.19-8.11l0-.06-0.09-.09a38.46,38.46,0,0,0-3.46-2.93c-1.2-.92-2.41-1.82-3.68-2.65l-0.35-.23-0.27.3q-2,2.22-3.85,4.48l-3.77,4.55c-1.23,1.54-2.48,3.06-3.7,4.6s-2.25,2.87-3.36,4.32c-2.49-2-5-4-7.59-6s-5.37-4-8.1-6-5.43-4-8.19-5.87-5.26-3.67-7.93-5.45c3-3.91,6-7.8,9-11.73l9.23-12.15L164.85,218c3-3.95,5.89-7.92,8.75-11.94,2.54,2.06,5.08,4.11,7.66,6.13l8.05,6.37c2.68,2.13,5.41,4.19,8.12,6.29s5.19,4,7.81,6l-12.94,16.6-0.32.41,0.44,0.25c1.73,1,3.43,2,5.14,3,0.85,0.51,1.72,1,2.55,1.54s1.69,1,2.52,1.6l0.11,0.08h0.14c2.79-.24,5.59-0.36,8.38-0.55,2.5-.1,5-0.24,7.5-0.31C217.31,255.63,215.81,257.76,214.31,259.9Z"/></svg>