<svg id="Ebene_1" data-name="Ebene 1" xmlns="http://www.w3.org/2000/svg" width="450" height="450" viewBox="0 0 450 450"><defs><style>.cls-1,.cls-3{fill:#666;}.cls-1{stroke:#000;stroke-miterlimit:10;}.cls-2{fill:#bcbebe;}.cls-4{fill:#fff;}.cls-5{fill:#dec0ca;}.cls-6{fill:#1d1d1b;}</style></defs><title>gonimo-Vorteile</title><polygon class="cls-1" points="234.49 211.45 230.74 221.3 256.87 220.93 234.49 211.45"/><path class="cls-2" d="M179.87,332.93s1.25,10.5,6.5,16c0,0,0,8.25-2,10.75s-12,3-12,3-4-6.5-7.25-7-7.75,1.25-7.75,1.25-5.75-7.5-10-7-11.25,1.25-14,5.5c0,0-9.25-3.75-13.75,2.5s-6.5,21.75-5.25,27.5,3.25,9.5,6.25,10,8,1,10-1.25c0,0,11.5,7.75,23.75.5,0,0,6.25,3,9.25,1.5s7.5-6.5,9.75-7.5,11.25-5,18.5-6.5,10-4.25,9.75-7.25-3.25-5.9-3.75-8.83a13,13,0,0,1,.75-7.67s9.75,6,19,5.5,18.25-2.25,22.5-4a5.92,5.92,0,0,1,2.25,6.17c-0.75,4.33-4.18,7.58-4.47,10.08s-1.29,7.75,4.59,9.25,22.38,7,22.38,7,3,6.25,7,6.75,8.5-.75,10.5-2.5c0,0,6.25,3.47,10.75,2.61s10-6.36,10.5-7.36c0,0,4,6,8.75,4s9-11.5,8-19-6.25-25-17.75-20.25c0,0-10.62-10.25-22,1.38,0,0-8.87-2.75-12.37,5.88,0,0-4.87-.87-7,0.75a11.78,11.78,0,0,1-5-8.87l-0.37-6s11.75-13.62,13.62-17.75Z"/><path d="M321.09,377.41a32.18,32.18,0,0,0-.68-4q-0.44-2-1-3.86a35.7,35.7,0,0,0-3.2-7.35,20.22,20.22,0,0,0-2.39-3.29,11.9,11.9,0,0,0-3.22-2.57,8.49,8.49,0,0,0-4-1,10.28,10.28,0,0,0-3.77.76,12.76,12.76,0,0,0-1-.86c-0.42-.33-0.84-0.64-1.29-0.93s-0.92-.54-1.38-0.81-1-.45-1.45-0.68-1-.36-1.52-0.53l-1.58-.36c-0.53-.09-1.08-0.12-1.61-0.18a11.23,11.23,0,0,0-1.63,0,8.13,8.13,0,0,0-1.61.22,8.3,8.3,0,0,0-1.57.39l-1.53.54c-0.48.24-.95,0.5-1.42,0.76l-0.7.38-0.64.47-1.28.95c-0.42.32-.76,0.73-1.15,1.08l-0.94.94a11.57,11.57,0,0,0-1.64-.33c-0.32,0-.65-0.06-1-0.08s-0.66,0-1,0-0.66.05-1,.08-0.65.11-1,.16a7.31,7.31,0,0,0-1,.26,5.18,5.18,0,0,0-.94.35,5.83,5.83,0,0,0-.89.46c-0.28.18-.57,0.35-0.84,0.55l-0.76.65a12.27,12.27,0,0,0-1.31,1.5l-0.54.83a5.88,5.88,0,0,0-.44.88l-0.24.54a11.09,11.09,0,0,0-1.45-.28,10.78,10.78,0,0,0-1.86-.07,7.64,7.64,0,0,0-1.89.3,3.69,3.69,0,0,0-.47.16,4.52,4.52,0,0,0-.46.2,4.31,4.31,0,0,0-.6.39l-0.48-.39c-0.25-.22-0.48-0.44-0.71-0.68a12.63,12.63,0,0,1-1.24-1.53,10.93,10.93,0,0,1-1-1.7c-0.15-.29-0.25-0.6-0.37-0.91s-0.19-.62-0.29-0.94a11.65,11.65,0,0,1-.32-1.93c0-.32,0-0.68-0.07-1l-0.06-1c-0.07-1.32-.15-2.64-0.33-4,1.26-1.29,2.47-2.62,3.64-4s2.4-2.86,3.55-4.34,2.3-2.95,3.38-4.49c0.54-.77,1.09-1.53,1.58-2.34,0.26-.39.5-0.81,0.73-1.22a13.46,13.46,0,0,0,.66-1.3l0,0,0.35-.71h-0.81l-90.14.88,0,0.56a27.87,27.87,0,0,0,.62,4.41,34.92,34.92,0,0,0,1.23,4.29c0.27,0.7.54,1.39,0.87,2.07s0.68,1.34,1.05,2a22.07,22.07,0,0,0,1.3,1.86,9.65,9.65,0,0,0,.75.86l0.66,0.65a52.86,52.86,0,0,1-.57,5.6q-0.12.71-.26,1.41c-0.1.47-.22,0.92-0.36,1.37a8.39,8.39,0,0,1-.51,1.24,1.84,1.84,0,0,1-.16.26l-0.08.13,0,0.06,0,0h0a3.94,3.94,0,0,1-.48.44c-0.17.09-.29,0.2-0.49,0.3l-0.61.31c-0.44.16-.87,0.36-1.33,0.49-0.91.27-1.85,0.54-2.8,0.73a37.38,37.38,0,0,1-5.41.9,26.83,26.83,0,0,0-2.57-3.8,18.58,18.58,0,0,0-1.62-1.7,8.83,8.83,0,0,0-.93-0.76,7.27,7.27,0,0,0-1.06-.65l-0.59-.26-0.66-.17c-0.26,0-.4,0-0.6-0.07s-0.41,0-.62,0a13.14,13.14,0,0,0-2.38.21,21.54,21.54,0,0,0-4.15,1.17,28.26,28.26,0,0,0-4.75-4.84,16.52,16.52,0,0,0-1.51-1,8.67,8.67,0,0,0-1.69-.81,4.18,4.18,0,0,0-.94-0.25,3.52,3.52,0,0,0-1-.08,5.75,5.75,0,0,0-.92.07l-0.87.11a35.47,35.47,0,0,0-7,1.47,16.09,16.09,0,0,0-1.68.68,11.1,11.1,0,0,0-1.6.89,10.28,10.28,0,0,0-1.45,1.16c-0.21.23-.43,0.45-0.63,0.69l-0.32.45a19.06,19.06,0,0,0-3.77-.93,14.12,14.12,0,0,0-4.3,0,9.84,9.84,0,0,0-4.06,1.65,10.89,10.89,0,0,0-2.82,3.3,27.09,27.09,0,0,0-1.77,3.9c-0.25.66-.48,1.32-0.67,2s-0.4,1.34-.58,2c-0.36,1.35-.66,2.72-0.91,4.1s-0.47,2.76-.63,4.14-0.28,2.78-.35,4.18a34.11,34.11,0,0,0,0,4.23,18.1,18.1,0,0,0,.29,2.16q0.22,1,.49,2a23.53,23.53,0,0,0,1.46,4,9.31,9.31,0,0,0,2.72,3.55,5.2,5.2,0,0,0,2.22.95c0.67,0.11,1.4.22,2.1,0.29a18.5,18.5,0,0,0,4.31,0,6.5,6.5,0,0,0,3.75-1.66,20.14,20.14,0,0,0,2.42,1.39,25.18,25.18,0,0,0,3,1.2l1.54,0.46c0.52,0.13,1,.23,1.57.34s1.06,0.15,1.6.23a13.72,13.72,0,0,0,1.61.12,13,13,0,0,0,1.62,0c0.54,0,1.08,0,1.62-.1l1.6-.26a11.5,11.5,0,0,0,1.57-.39,13.55,13.55,0,0,0,1.54-.5l1.48-.64a8.82,8.82,0,0,0,1.41-.76l1.16-.71a25.49,25.49,0,0,0,4.07,1.48,9.55,9.55,0,0,0,4.76.22l0.62-.23,0.52-.28c0.33-.19.7-0.42,1-0.64,0.64-.44,1.24-0.92,1.84-1.4,1.18-1,2.31-2,3.44-2.94,0.57-.49,1.14-1,1.72-1.39,0.29-.22.58-0.41,0.88-0.59s0.6-.3,1-0.45q2.06-.9,4.14-1.74c2.78-1.12,5.59-2.16,8.44-3,1.42-.45,2.86-0.83,4.31-1.16l2.2-.49c0.75-.19,1.51-0.4,2.24-0.64a14.91,14.91,0,0,0,4.25-2.09,7.35,7.35,0,0,0,1.75-1.8,5.09,5.09,0,0,0,.84-2.49c0-.22,0-0.44,0-0.66s-0.05-.4-0.08-0.61a8.28,8.28,0,0,0-.33-1.24,15.3,15.3,0,0,0-1-2.16,31.87,31.87,0,0,1-2-3.9,6.49,6.49,0,0,1-.29-1c-0.07-.32-0.13-0.76-0.17-1.09a8.74,8.74,0,0,1-.11-1.54h0s0-.15,0-0.46,0-.76.1-1.3a15.82,15.82,0,0,1,.29-1.82c0-.21.1-0.42,0.16-0.64a41.78,41.78,0,0,0,4.19,2.26q1.24,0.56,2.51,1.06c0.85,0.32,1.71.64,2.58,0.9s1.76,0.49,2.65.7l1.35,0.27,1.37,0.2c0.45,0.08.92,0.1,1.38,0.13a13.11,13.11,0,0,0,1.39.06h1.4l1.34-.09a96.32,96.32,0,0,0,10.73-1.36c1.77-.34,3.54-0.71,5.29-1.18a37.37,37.37,0,0,0,4.91-1.65,5,5,0,0,1,1.55,2.22,6,6,0,0,1,.23,3,16.41,16.41,0,0,1-2.48,5.83,29.08,29.08,0,0,0-1.67,3,5.93,5.93,0,0,0-.5,1.79c-0.07.55-.15,1.1-0.19,1.68a10.22,10.22,0,0,0,.23,3.55,6.09,6.09,0,0,0,2,3.15,8.65,8.65,0,0,0,3.27,1.55c1.08,0.29,2.11.58,3.17,0.9,2.11,0.63,4.22,1.29,6.32,2l3.17,1c1.06,0.32,2.11.67,3.17,1,2.07,0.62,4.14,1.23,6.22,1.79a21.18,21.18,0,0,0,1.21,2.17,16.35,16.35,0,0,0,1.65,2.17,11.92,11.92,0,0,0,1,1,7.85,7.85,0,0,0,1.14.84l0.64,0.35,0.69,0.27a7.13,7.13,0,0,0,1.43.27c0.42,0,.93.07,1.38,0.07s0.91,0,1.37-.05a18.11,18.11,0,0,0,2.7-.44,12.44,12.44,0,0,0,1.31-.39,13.42,13.42,0,0,0,1.28-.51,9.38,9.38,0,0,0,2-1.26,6.19,6.19,0,0,0,1,.78,9.34,9.34,0,0,0,1.41.68,25.84,25.84,0,0,0,3,1,15.45,15.45,0,0,0,3.16.5,9.41,9.41,0,0,0,1.65,0c0.29,0,.53-0.06.86-0.14l0.73-.19a13.4,13.4,0,0,0,1.54-.63,15.86,15.86,0,0,0,1.4-.76,25.11,25.11,0,0,0,2.56-1.79,27.6,27.6,0,0,0,2.3-2.07c0.37-.36.72-0.74,1.07-1.13,0.21-.24.4-0.47,0.59-0.72a13.49,13.49,0,0,0,2.35,2.42,7.61,7.61,0,0,0,3.86,1.7,6.17,6.17,0,0,0,4.1-1.16,11.84,11.84,0,0,0,2.94-3,20.67,20.67,0,0,0,2-3.53,25.08,25.08,0,0,0,2.16-7.78A20.08,20.08,0,0,0,321.09,377.41ZM183.88,359.19h0Zm-55.23,35.5a7.67,7.67,0,0,1-1.87.34,20.4,20.4,0,0,1-4-.1c-0.68-.07-1.32-0.15-2-0.27a3.63,3.63,0,0,1-1.56-.66,7.85,7.85,0,0,1-2.26-3,22.06,22.06,0,0,1-1.38-3.75q-0.26-1-.49-2a16.89,16.89,0,0,1-.27-1.95,32.71,32.71,0,0,1-.07-4.05c0.06-1.36.16-2.72,0.32-4.08s0.34-2.71.59-4.06,0.52-2.69.86-4c0.16-.66.34-1.32,0.55-2s0.4-1.3.64-1.93a26.4,26.4,0,0,1,1.61-3.66l0.55-.88,0.28-.44,0.29-.34a8.08,8.08,0,0,1,.63-0.72l0.72-.63a8.64,8.64,0,0,1,3.52-1.51,13,13,0,0,1,4-.1,18.25,18.25,0,0,1,3.12.68c-0.19.2-.39,0.42-0.64,0.71l-0.6.74-0.63.92a24.25,24.25,0,0,0-1.32,2.32l-0.65,1.38L128,363.27a13.24,13.24,0,0,0-.51,1.64c-0.14.57-.33,1.14-0.45,1.74a35.13,35.13,0,0,0-.57,3.71l-0.18,1.92c0,0.64,0,1.29,0,1.94v1.94l0.15,1.91,0.15,1.88c0.08,0.62.18,1.22,0.27,1.82,0.21,1.19.31,2.36,0.59,3.43l0.7,3c0.19,0.95.47,1.79,0.69,2.54s0.41,1.41.6,1.94A8.57,8.57,0,0,0,130,394,4.28,4.28,0,0,1,128.65,394.69Zm22.64,0.74-1.43.49c-0.47.17-1,.23-1.46,0.37a10.36,10.36,0,0,1-1.47.3l-1.48.22-1.5.09a11.62,11.62,0,0,1-1.5,0,12.38,12.38,0,0,1-1.5-.09c-0.5-.06-1-0.09-1.49-0.19l-1.48-.27-1.47-.35-1.45-.45c-0.47-.18-1-0.34-1.43-0.53a23,23,0,0,1-2.55-1.18,8.28,8.28,0,0,0-.26-1.58c-0.14-.53-0.35-1.17-0.57-1.91s-0.5-1.56-.69-2.49l-0.7-3c-0.28-1-.38-2.19-0.59-3.35-0.09-.58-0.2-1.17-0.28-1.77L127.85,378l-0.15-1.86,0-1.88c0-.63,0-1.25,0-1.88l0.14-1.85a33.78,33.78,0,0,1,.49-3.57c0.1-.58.27-1.12,0.4-1.67a13.77,13.77,0,0,1,.46-1.58l0.5-1.47,0.58-1.33a11.54,11.54,0,0,1,.6-1.19,11.67,11.67,0,0,1,.6-1l0.58-.89,0.54-.71a11.67,11.67,0,0,1,.81-0.93l0.1-.1,0.05,0,0.24-.32h0l0.5-.65c0.18-.2.38-0.39,0.57-0.59a9.22,9.22,0,0,1,1.32-1,11.58,11.58,0,0,1,1.48-.79,15,15,0,0,1,1.58-.62A34.38,34.38,0,0,1,146,350.7c0.56-.05,1.21-0.17,1.69-0.16a2.41,2.41,0,0,1,.75.05,3.13,3.13,0,0,1,.76.2,7.51,7.51,0,0,1,1.48.69,15.35,15.35,0,0,1,1.4.93,25.1,25.1,0,0,1,2.56,2.28c0.69,0.69,1.36,1.42,2,2.16-0.24.19-.6,0.46-1,0.83a19.1,19.1,0,0,0-1.46,1.48,20.83,20.83,0,0,0-1.6,2.18c-0.26.42-.55,0.85-0.81,1.32L151,364.13l-0.7,1.6-0.61,1.72a26.56,26.56,0,0,0-.85,3.72,27.93,27.93,0,0,0-.33,3.91,38.63,38.63,0,0,0,2.64,14,41.88,41.88,0,0,0,1.89,4.3c0.24,0.46.45,0.81,0.62,1.06C152.84,394.79,152.09,395.17,151.3,395.43Zm128.55,2.05a15.47,15.47,0,0,1-2.42.71,16.78,16.78,0,0,1-2.5.36c-0.42,0-.84,0-1.26,0a12.42,12.42,0,0,1-1.25-.05,5.67,5.67,0,0,1-1.15-.2l-0.54-.2-0.52-.28a8,8,0,0,1-1-.7,10.65,10.65,0,0,1-.92-0.84,17.8,17.8,0,0,1-1.61-2,19.84,19.84,0,0,1-1.35-2.13l-0.4-1.94c-0.24-1.19-.58-2.76-0.85-4.33-0.14-.79-0.23-1.58-0.31-2.32a19.45,19.45,0,0,1-.12-2c0-.29,0-0.56,0-0.8a4.28,4.28,0,0,1,0-.61l0.05-.53-1-.23-0.14.58a5.07,5.07,0,0,0-.12.67c0,0.26-.09.55-0.11,0.87a20.71,20.71,0,0,0,0,2.16c0,0.79.14,1.62,0.26,2.44a26.82,26.82,0,0,0,1,4.44c0.11,0.35.21,0.66,0.31,0.92-1.73-.67-3.48-1.31-5.23-1.92-1-.38-2.1-0.71-3.15-1.06l-3.16-1c-2.12-.66-4.23-1.31-6.37-1.93-1.06-.31-2.16-0.62-3.22-0.89a7.1,7.1,0,0,1-2.69-1.23,4.52,4.52,0,0,1-1.51-2.35,8.91,8.91,0,0,1-.23-3c0-.53.1-1.07,0.16-1.62a4.38,4.38,0,0,1,.37-1.4,28.26,28.26,0,0,1,1.54-2.84,26.64,26.64,0,0,0,1.56-3,12.7,12.7,0,0,0,.93-3.35,7.19,7.19,0,0,0-.39-3.54,6,6,0,0,0-2.12-2.75,4.63,4.63,0,0,0-.38-0.53,10.39,10.39,0,0,0-1-1.05c-0.38-.37-0.76-0.73-1.07-1a6.62,6.62,0,0,0-.58-0.41l-0.57.82a5.45,5.45,0,0,1,.41.41c0.26,0.26.62,0.62,1,1s0.58,0.63.84,0.88a43.44,43.44,0,0,1-4.32,1.15q-2.6.56-5.23,1c-3.51.52-7,1-10.58,1.16l-1.34.08-1.28,0a11.76,11.76,0,0,1-1.29,0c-0.43,0-.86,0-1.29-0.11l-1.29-.17-1.28-.24c-0.85-.18-1.7-0.38-2.55-0.62s-1.68-.49-2.52-0.77-1.66-.6-2.47-0.93-1.63-.67-2.43-1-1.34-.64-2-1c0-.11.07-0.22,0.11-0.33,0.11-.34.29-0.62,0.43-0.94s0.35-.56.53-0.83,0.39-.47.61-0.66a6.88,6.88,0,0,1,.63-0.5l0.6-.34a5.16,5.16,0,0,1,.5-0.19l0.45-.16-0.16-1-0.56.1a6.34,6.34,0,0,0-.65.14l-0.81.33a7.89,7.89,0,0,0-.88.55,7.78,7.78,0,0,0-.84.79,12,12,0,0,0-.72,1,7.79,7.79,0,0,0-.57,1.1,12.39,12.39,0,0,0-.73,2.26,16.7,16.7,0,0,0-.3,2c0,0.59-.05,1.09,0,1.44,0,0.17,0,.27,0,0.36a0.3,0.3,0,0,0,0,.09h0a11.82,11.82,0,0,0,.07,1.69c0,0.42.09,0.78,0.16,1.2a8.19,8.19,0,0,0,.33,1.23,31.87,31.87,0,0,0,2.15,4.11,13.88,13.88,0,0,1,.92,1.93,7.19,7.19,0,0,1,.27.93l0.07,0.51c0,0.16,0,.31,0,0.47a4.33,4.33,0,0,1-2,3.18,13.48,13.48,0,0,1-3.81,1.9c-0.69.23-1.39,0.43-2.1,0.61l-2.2.5q-2.23.53-4.4,1.22c-2.9.91-5.73,2-8.53,3.13q-2.1.86-4.17,1.78c-0.34.15-.69,0.3-1.08,0.52s-0.6.39-.88,0.59a19.83,19.83,0,0,0,.69-2,24.44,24.44,0,0,0,.57-3,14.65,14.65,0,0,0,.16-1.53c0-.5.06-1,0.06-1.48s0-.94,0-1.38l-0.06-1.23c0-.76-0.14-1.39-0.18-1.84l-0.09-.69-1,.08v0.69c0,0.44,0,1.06,0,1.8s0,1.61-.08,2.53c0,0.46,0,.94-0.1,1.42s-0.07,1-.14,1.46a24.24,24.24,0,0,1-.48,2.83,17,17,0,0,1-.68,2.38,10.68,10.68,0,0,1-.69,1.58l-0.06.11-3.2,2.8a14.08,14.08,0,0,1-3.53,2.4,8.57,8.57,0,0,1-4.16-.16,24.5,24.5,0,0,1-4-1.38c-0.09-.22-0.31-0.71-0.64-1.44-0.46-1-1.1-2.44-1.73-4.22a41.79,41.79,0,0,1-1.67-6.21,33.52,33.52,0,0,1-.57-7.29,26.23,26.23,0,0,1,.37-3.68,28.75,28.75,0,0,1,.83-3.47l0.57-1.6,0.65-1.49,0.72-1.36c0.24-.43.51-0.83,0.75-1.23s0.51-.75.75-1.09,0.46-.68.7-1l1.19-1.56c0.56-.7.89-1.16,1-1.32a25.31,25.31,0,0,1,4.2-1,14.24,14.24,0,0,1,2.15-.13c0.17,0,.33,0,0.52,0s0.41,0,.53.07l0.44,0.12,0.45,0.21a6,6,0,0,1,.87.55c0.28,0.21.56,0.44,0.83,0.68a17.52,17.52,0,0,1,1.54,1.58,40.18,40.18,0,0,1,2.69,3.44v0.5l0,1.4a13.25,13.25,0,0,0,0,1.38,3.85,3.85,0,0,0,.06.64l1,0.19a1.18,1.18,0,0,0,.09-0.18,2.44,2.44,0,0,0,.17-0.49,4.75,4.75,0,0,0,.14-1.55,7.36,7.36,0,0,0-.17-1.4,43.29,43.29,0,0,0,5.26-.64,23.44,23.44,0,0,0,3-.76c0.49-.13,1-0.31,1.47-0.49l0.73-.34a7.67,7.67,0,0,0,.77-0.48,6.15,6.15,0,0,0,.57-0.51h0l0.06-.07h0l0,0,0,0,0.06-.09,0.12-.18a3,3,0,0,0,.22-0.37,9.66,9.66,0,0,0,.6-1.49c0.14-.5.27-1,0.37-1.49s0.19-1,.25-1.5a38.08,38.08,0,0,0,.29-5.94s0.13-.57.25-1.37,0.27-1.95.37-3.07a29.72,29.72,0,0,0,.09-3.11,12.11,12.11,0,0,0-.12-1.44l-1,.06-0.09,1.36-0.24,3c-0.07,1.1-.16,2.21-0.2,3-0.14-.21-0.27-0.42-0.4-0.63a20.65,20.65,0,0,1-1.06-1.82c-0.3-.64-0.64-1.26-0.9-1.92s-0.54-1.32-.81-2-0.5-1.34-.71-2-0.41-1.37-.62-2.06-0.38-1.39-.56-2.08c-0.14-.51-0.25-1-0.37-1.54l88.12-.86c-0.09.16-.19,0.31-0.3,0.47-0.25.38-.5,0.76-0.78,1.13-0.54.74-1.09,1.49-1.65,2.22l-3.45,4.36-3.51,4.33q-1.24,1.54-2.44,3.11c0-.32,0-0.78,0-1.13,0-1.25-.11-2.62-0.11-2.62h-1s-0.08,1.38-.11,2.63c0,0.63,0,1.31,0,1.78a2.61,2.61,0,0,0,.11.79l0,0,0,0.16a0.27,0.27,0,0,1,0,.05c0,1.38.07,2.75,0.16,4.12l0.07,1c0,0.35,0,.68.08,1a12.81,12.81,0,0,0,.37,2.13c0.11,0.34.19,0.7,0.33,1s0.25,0.68.42,1a12.05,12.05,0,0,0,1.09,1.86,11.92,11.92,0,0,0,1.4,1.63c0.26,0.25.52,0.49,0.8,0.72l0.26,0.2-0.26.16a9.41,9.41,0,0,0-1.29,1.08,8.2,8.2,0,0,0-.94,1.11,6.56,6.56,0,0,0-.55.86c-0.13.21-.19,0.34-0.19,0.34l0.83,0.56s0.1-.09.25-0.26,0.37-.42.64-0.69,0.58-.6.93-0.93,0.73-.65,1.14-1a9.74,9.74,0,0,1,2.41-1.3l0.33-.11c0.35,0,.71-0.08,1.08-0.09,1.12-.07,2.29,0,3.44,0h0.48l0.07-.31,0,0,0.41-.8a5.12,5.12,0,0,1,.44-0.78l0.5-.74a11.21,11.21,0,0,1,1.19-1.31l0.68-.56c0.24-.17.5-0.31,0.75-0.46a4.83,4.83,0,0,1,.79-0.39,4.56,4.56,0,0,1,.82-0.32,6.25,6.25,0,0,1,.85-0.24c0.29-.05.58-0.14,0.87-0.16s0.59-.08.89-0.09,0.6,0,.9,0,0.6,0,.9.05a10.5,10.5,0,0,1,1.65.25l0.19,0.22c0.18,0.2.44,0.54,0.75,1a19,19,0,0,1,1,1.65,23,23,0,0,1,1.12,2.26,28.41,28.41,0,0,1,1,2.82,32,32,0,0,1,.82,3.25c0.11,0.57.17,1.16,0.26,1.75a16.36,16.36,0,0,1,.2,1.81,34.1,34.1,0,0,1,.1,3.71,31.15,31.15,0,0,1-.23,3.71,33.12,33.12,0,0,1-.5,3.57c-0.24,1.15-.4,2.27-0.67,3.31s-0.54,2-.77,2.93-0.49,1.73-.72,2.46l-0.59,1.89-0.44,1.53A9.08,9.08,0,0,1,279.84,397.48Zm22.38-4.74c-0.35.34-.71,0.68-1.09,1-0.75.65-1.53,1.26-2.33,1.84a23.64,23.64,0,0,1-2.47,1.58,14.26,14.26,0,0,1-1.29.63,12.8,12.8,0,0,1-1.28.47l-0.74.18c-0.16,0-.43.06-0.63,0.09a7.71,7.71,0,0,1-1.37,0,13.73,13.73,0,0,1-2.81-.49,24.07,24.07,0,0,1-2.76-.94,13.39,13.39,0,0,0-2.4-.78l0.44-1.09,0.72-1.88a19.61,19.61,0,0,0,.81-2.49c0.26-.92.54-1.93,0.81-3s0.43-2.22.66-3.4a34.35,34.35,0,0,0,.48-3.68,32.38,32.38,0,0,0,.2-3.83,35.38,35.38,0,0,0-.14-3.84,17.28,17.28,0,0,0-.23-1.87c-0.1-.61-0.17-1.23-0.29-1.82a33.22,33.22,0,0,0-.88-3.38,24.5,24.5,0,0,0-1.12-2.92,24.11,24.11,0,0,0-1.24-2.35,20.07,20.07,0,0,0-1.13-1.71c-0.33-.43-0.59-0.75-0.8-1l0.83-.68c0.39-.31.75-0.67,1.17-0.94l1.24-.82,0.62-.41,0.66-.32,1.32-.64,1.38-.46a7.06,7.06,0,0,1,1.41-.32,6.87,6.87,0,0,1,1.43-.17,13.44,13.44,0,0,1,1.45,0c0.48,0,1,.06,1.44.13l1.43,0.3,1.4,0.43c0.45,0.19.92,0.35,1.36,0.56s0.9,0.41,1.32.68,0.86,0.49,1.27.76,0.8,0.55,1.15.83l0.16,0.28c0.13,0.21.3,0.56,0.52,1s0.47,1,.71,1.61,0.52,1.35.78,2.15,0.5,1.68.74,2.6,0.46,1.92.6,3,0.29,2.11.39,3.21,0.08,2.22.14,3.33-0.07,2.23-.12,3.33l-0.37,3.21-0.57,3c-0.19.94-.47,1.81-0.66,2.63s-0.37,1.57-.57,2.22-0.36,1.23-.48,1.71c-0.23.91-.34,1.44-0.36,1.5h0A8.63,8.63,0,0,1,302.22,392.74Zm17.48-11.4a25.4,25.4,0,0,1-.73,3.75,23,23,0,0,1-1.3,3.6,19.31,19.31,0,0,1-1.88,3.31,11.31,11.31,0,0,1-2.53,2.66,4.9,4.9,0,0,1-3.29,1,6.7,6.7,0,0,1-3.29-1.37,12.66,12.66,0,0,1-2.47-2.45c0.11-.23.3-0.62,0.56-1.19s0.44-1,.71-1.68a15.91,15.91,0,0,0,.75-2.25c0.22-.84.51-1.74,0.7-2.72l0.56-3.09,0.35-3.34c0-1.14.08-2.3,0.1-3.47s-0.06-2.33-.22-3.46-0.26-2.25-.5-3.32-0.46-2.09-.71-3.06-0.58-1.86-.88-2.67-0.61-1.55-.92-2.19-0.59-1.19-.82-1.64-0.36-.62-0.49-0.85a9.1,9.1,0,0,1,3.12-.52,7.36,7.36,0,0,1,3.5,1,14.49,14.49,0,0,1,5.09,5.47,34.45,34.45,0,0,1,3,7.11q0.57,1.86,1,3.76a30.88,30.88,0,0,1,.63,3.81A18.71,18.71,0,0,1,319.7,381.34Z"/><polygon class="cls-3" points="156.9 228.43 156.9 333.43 289.9 333.43 289.9 219.43 157.62 219.43 156.9 228.43"/><path d="M158,228.43l0.56,52.25c0.11,8.71.07,17.42,0.11,26.12s-0.13,17.42-.75,26.13l-0.5-.5,33.25-.29L223.9,332l33.25-.06,8.31,0c2.77,0,5.54,0,8.31.06l8.31,0.14c2.77,0.08,5.54.14,8.31,0.25l-0.5.5q-0.13-7.12-.18-14.25l-0.06-14.25,0-28.5,0.06-28.5,0.14-28.5,0.5,0.5H157.62l0.5-.49Zm-1.13,0,0.28-9.5v-0.49H290.9v0.5l0.14,28.5,0.06,28.5,0,28.5-0.06,14.25q0,7.13-.18,14.25v0.48l-0.49,0c-2.77.12-5.54,0.17-8.31,0.25l-8.31.14c-2.77,0-5.54,0-8.31.06l-8.31,0-33.25-.06-33.25-.15-33.25-.29h-0.46l0-.5c-0.62-8.71-.75-17.42-0.75-26.12s0-17.42.11-26.12Z"/><rect class="cls-4" x="215.9" y="221.43" width="21" height="113"/><path d="M216.91,221.43l0.19,27.75,0.07,28.25,0.07,28.25,0,14.13c0,2.35,0,4.71-.09,7.06s-0.13,4.71-.29,7.06l-0.5-.5c0.88-.07,1.75-0.11,2.62-0.16s1.75-.07,2.63-0.1c1.75-.08,3.5-0.07,5.25-0.1s3.5,0,5.25,0,3.5,0.14,5.25.32l-0.5.5c-0.23-4.71-.33-9.42-0.35-14.12s0-9.42,0-14.12l0.07-28.25,0.07-28.25,0.2-28.25,0.5,0.5h-20.5Zm-1-1h22v0.5l0.2,28.25,0.07,28.25,0.07,28.25c0,4.71.06,9.42,0,14.12s-0.12,9.42-.35,14.13l0,0.45-0.48,0c-1.75.18-3.5,0.25-5.25,0.32s-3.5.07-5.25,0-3.5,0-5.25-.1c-0.87,0-1.75-.05-2.62-0.1s-1.75-.09-2.62-0.16l-0.47,0,0-.46c-0.16-2.35-.23-4.71-0.29-7.06s-0.06-4.71-.09-7.06l0-14.12,0.07-28.25,0.07-28.25Z"/><path class="cls-2" d="M147.37,262.18s-4,12.75-3.5,17.25,1.25,15.5,8.25,18.25,9.25-3.5,9-12.25-0.25-20-1.5-23.25S151.62,255.18,147.37,262.18Z"/><path d="M148.15,262.53c-0.1.36-.49,1.71-1,3.87-0.32,1.27-.7,2.81-1.07,4.59a53.87,53.87,0,0,0-1,5.94c-0.06.54-.06,1.07-0.08,1.61l0,0.76,0.1,0.9c0.13,1.21.27,2.44,0.46,3.69a30.57,30.57,0,0,0,2,7.53,13.38,13.38,0,0,0,2.11,3.31,8.26,8.26,0,0,0,3.19,2.14,7.48,7.48,0,0,0,1.92.47,3.93,3.93,0,0,0,1.79-.21,4.63,4.63,0,0,0,2.53-2.7,14.9,14.9,0,0,0,1.07-4.13,32.69,32.69,0,0,0,.27-4.37c0-2.95-.06-5.88-0.1-8.69s-0.08-5.54-.26-8.11c-0.08-1.28-.18-2.53-0.34-3.72a11.53,11.53,0,0,0-.77-3.24l-0.19-.37-0.21-.28a4.13,4.13,0,0,0-.46-0.55A6.07,6.07,0,0,0,157,260a6.79,6.79,0,0,0-2.44-1,5.34,5.34,0,0,0-4,.81,7.73,7.73,0,0,0-1.94,2Zm-1.5-.79,0.68-.94a9.28,9.28,0,0,1,2.44-2.26,6.79,6.79,0,0,1,5.1-.83,8.06,8.06,0,0,1,2.86,1.33,7.44,7.44,0,0,1,1.27,1.14,5.17,5.17,0,0,1,.56.72l0.26,0.41,0.18,0.38a13.64,13.64,0,0,1,.78,3.6c0.15,1.22.25,2.49,0.33,3.78,0.14,2.59.29,5.32,0.38,8.15l0.31,8.7a34.1,34.1,0,0,1-.11,4.56,16.43,16.43,0,0,1-1,4.61c-0.14.38-.35,0.75-0.53,1.12a12.76,12.76,0,0,1-.72,1.06,5.57,5.57,0,0,1-2.14,1.58,5.81,5.81,0,0,1-2.6.42,8.73,8.73,0,0,1-1.3-.18,8.46,8.46,0,0,1-1.12-.31,9.83,9.83,0,0,1-4.13-2.59,15.52,15.52,0,0,1-2.58-3.85,30.06,30.06,0,0,1-2.29-8.11c-0.19-1.31-.34-2.58-0.46-3.79l-0.09-.9,0-1c0-.64.06-1.26,0.14-1.84a49.92,49.92,0,0,1,1.23-6.17c0.46-1.8.9-3.34,1.28-4.62l1.29-4.11Z"/><path class="cls-2" d="M289.9,296.18s5.36,8.31,14.36,2.16,10.05-15.66,9.05-23.66-3.47-10.5-5.47-11.75c0,0-.59-9.25-8.34-11.75s-9.59,1.25-9.59,1.25v43.75Z"/><path d="M290.9,296a10.33,10.33,0,0,0,2.25,2.27,8.43,8.43,0,0,0,2.94,1.42,6.28,6.28,0,0,0,.8.14,3.33,3.33,0,0,0,.8.07h0.81l0.8-.11a9.27,9.27,0,0,0,1.58-.4c0.52-.18,1-0.45,1.52-0.66s1-.58,1.43-0.87,0.92-.68,1.38-1a15.26,15.26,0,0,0,1.28-1.11,13.1,13.1,0,0,0,1.18-1.19,12.42,12.42,0,0,0,1.08-1.29,12.57,12.57,0,0,0,1-1.38,18,18,0,0,0,1.53-3,21.63,21.63,0,0,0,1-3.23c0.13-.55.21-1.11,0.32-1.67l0.21-1.69a32.58,32.58,0,0,0,.13-3.42c0-1.15-.08-2.29-0.21-3.44s-0.28-2.32-.48-3.41a24.34,24.34,0,0,0-.85-3.3,13.3,13.3,0,0,0-1.44-3,8.4,8.4,0,0,0-2.31-2.33h0l-0.16-.09-0.08-.31a28.35,28.35,0,0,0-.86-2.91c-0.17-.47-0.35-0.94-0.55-1.39s-0.42-.9-0.64-1.33a13.4,13.4,0,0,0-1.63-2.4,13.77,13.77,0,0,0-1-1,12.23,12.23,0,0,0-1.16-.84,7.67,7.67,0,0,0-1.27-.67l-0.67-.28c-0.16-.08-0.48-0.15-0.71-0.23l-0.75-.24-0.71-.17c-0.47-.14-1-0.18-1.45-0.28a11.12,11.12,0,0,0-1.46-.08,6.7,6.7,0,0,0-1.41.15,4.16,4.16,0,0,0-1.28.5,3.15,3.15,0,0,0-1,.86h0l0-.2V296Zm-1,.32v-44l0-.09v0a3.73,3.73,0,0,1,1.18-1.44,5.43,5.43,0,0,1,1.58-.83,7.24,7.24,0,0,1,1.7-.37,12.64,12.64,0,0,1,1.71,0,15,15,0,0,1,1.67.21l0.84,0.16,0.77,0.2c0.27,0.08.47,0.11,0.8,0.23l0.8,0.3a9.53,9.53,0,0,1,1.55.75,11.33,11.33,0,0,1,1.42,1,15.52,15.52,0,0,1,1.24,1.2,11.39,11.39,0,0,1,1,1.36,13.42,13.42,0,0,1,.85,1.48,15.14,15.14,0,0,1,.63,1.56,15.76,15.76,0,0,1,.43,1.61,15.46,15.46,0,0,1,.23,1.64,10.11,10.11,0,0,1,0,1.67l-0.23-.4h0a9,9,0,0,1,2.77,2.47,13.16,13.16,0,0,1,1.75,3.24,25.75,25.75,0,0,1,1,3.48,34.56,34.56,0,0,1,.59,3.54c0.15,1.18.23,2.38,0.26,3.58a34.21,34.21,0,0,1-.1,3.61c-0.06.6-.13,1.2-0.21,1.8s-0.21,1.19-.36,1.78a23.29,23.29,0,0,1-1.12,3.47,19.59,19.59,0,0,1-1.69,3.24,14,14,0,0,1-1.05,1.5,13.83,13.83,0,0,1-1.18,1.39,19.64,19.64,0,0,1-2.71,2.46c-0.5.35-.89,0.69-1.48,1s-1,.64-1.6.92-1.13.52-1.72,0.71a10.65,10.65,0,0,1-1.83.42,8.67,8.67,0,0,1-3.76-.24,9.63,9.63,0,0,1-3.3-1.74,11.3,11.3,0,0,1-2.48-2.73Z"/><path d="M308.79,263.18a2.11,2.11,0,0,0,0,.25h0a0.24,0.24,0,0,0-.15-0.29,0.32,0.32,0,0,0-.31-0.06,0.43,0.43,0,0,0-.25.39,0.32,0.32,0,0,0,.09.25l0,0,0,0-0.13-.06c-0.13-.06-0.32-0.15-0.55-0.28-0.47-.24-1.09-0.68-1.88-1.13a22,22,0,0,0-6.16-2.44,13.76,13.76,0,0,0-3.48-.34,11.5,11.5,0,0,0-3,.51,10.22,10.22,0,0,0-2,.87c-0.45.26-.69,0.43-0.69,0.43l-0.58-.81s0.26-.2.74-0.51a11.19,11.19,0,0,1,5.41-1.74,15.07,15.07,0,0,1,3.81.27,23.08,23.08,0,0,1,6.58,2.53,11.56,11.56,0,0,1,1.94,1.28,4.31,4.31,0,0,1,.48.48l0.13,0.16,0.05,0.06,0,0.06a0.47,0.47,0,0,1,.09.28,0.52,0.52,0,0,1-.25.45,0.5,0.5,0,0,1-.31.07c-0.2,0-.15,0-0.15,0h0a0.51,0.51,0,0,0,0,.11Z"/><path class="cls-2" d="M255.87,119.43c-0.16-1-11.31.85-11.31,0.85L237,131.9s-14.61-1.16-18.44,3.87A139.36,139.36,0,0,0,199.63,88.3C184.71,65.2,167.9,52.46,158.95,48.22c0,0-3.3-3-5.18,6.43s-2,30.79,2.2,45.55,10.37,23.72,17.12,32.2,21.84,20.42,21.84,20.42-10.53,12.9-10.84,25.77c0,0,39,31.71,38.8,31.32s58.44-21.92,58.44-23-18.46-67.54-18.46-67.54h-7Z"/><path d="M255.62,119.43l-0.17-.23a0.46,0.46,0,0,0,.08.1,0.34,0.34,0,0,0,.12.07h-0.46l-0.69,0-1.4.11-2.82.31q-2.82.34-5.64,0.73l0.35-.22L237.4,132h0l-0.11.21-0.35,0c-1.59.07-3.2,0-4.79,0.12a46.5,46.5,0,0,0-4.74.49,26.58,26.58,0,0,0-4.55,1.07,13.82,13.82,0,0,0-2,.92l-0.95.54c-0.15.1-.3,0.2-0.46,0.29a5.21,5.21,0,0,1-.47.31h0l-0.66.83-0.23-1.06c-0.49-2.19-1.08-4.38-1.66-6.56s-1.24-4.35-1.92-6.5-1.41-4.29-2.15-6.43-1.57-4.24-2.39-6.34-1.73-4.17-2.71-6.21-2-4.06-3-6.08c-0.52-1-1.09-2-1.63-3s-1.09-2-1.7-2.93l-1.77-2.89L197.25,86c-1.24-1.92-2.59-3.7-3.89-5.55s-2.72-3.62-4.17-5.35-2.91-3.46-4.4-5.17-3.06-3.33-4.67-4.92c-0.78-.82-1.61-1.58-2.43-2.36s-1.64-1.55-2.49-2.3-1.68-1.51-2.55-2.23S170.93,56.72,170,56c-1.76-1.41-3.6-2.72-5.47-4a56.16,56.16,0,0,0-5.83-3.38h0l-0.05,0-0.07-.06a1.35,1.35,0,0,0-1.29-.23,2.6,2.6,0,0,0-1.16,1,11.58,11.58,0,0,0-1.38,3.36,45.34,45.34,0,0,0-1.19,7.45,131,131,0,0,0-.37,15.2c0.1,2.54.23,5.07,0.47,7.6s0.53,5,.91,7.55c0.18,1.25.44,2.49,0.66,3.74s0.51,2.48.84,3.69c0.6,2.44,1.4,4.88,2.21,7.25s1.79,4.73,2.83,7,2.22,4.54,3.49,6.72a102.83,102.83,0,0,0,8.67,12.45,70.8,70.8,0,0,0,5,5.66c1.77,1.81,3.61,3.55,5.46,5.3s3.76,3.42,5.67,5.1,3.84,3.35,5.79,5h0l0.39,0.3-0.31.41c-0.7.92-1.37,1.89-2,2.86s-1.28,2-1.88,3a58.64,58.64,0,0,0-3.25,6.22,46.58,46.58,0,0,0-2.43,6.55,34.07,34.07,0,0,0-.6,3.4,20.27,20.27,0,0,0-.23,3.45h0l-0.35-.4c11.84,9.62,23.59,19.25,35.48,28.8l2.2,1.77,0.54,0.43,0.27,0.21,0.06,0h0c-0.23.3,0.55-.65-0.71,0.58a0.51,0.51,0,0,1,.2-0.56l0.11-.07,0.1-.05c0.47-.22.9-0.39,1.35-0.58l5.33-2.1,10.68-4.11,21.35-8.22,10.64-4.18c1.77-.71,3.53-1.42,5.29-2.16,0.87-.37,1.75-0.74,2.6-1.14l0.62-.31,0.26-.15,0,0,0,0a0.46,0.46,0,0,0-.08.31l0-.18-0.32-1.32c-1.92-7.37-3.95-14.73-5.95-22.08l-12.14-44.12,0.48,0.37h-7.25Zm0.39-1h7.24l0.1,0.37,12.14,44.12c2,7.36,4,14.71,6,22.1l0.18,0.7c0.06,0.25.13,0.52,0.17,0.76l0,0.18a0.63,0.63,0,0,1-.11.39l-0.09.1-0.12.09a3.56,3.56,0,0,1-.36.22l-0.66.33c-0.88.41-1.76,0.79-2.64,1.16-1.76.74-3.53,1.46-5.3,2.17l-10.65,4.19-21.36,8.22-10.67,4.11-5.31,2.1c-0.43.18-.89,0.36-1.28,0.55l-0.06,0,0,0a0.43,0.43,0,0,0,.13-0.5c-1.28,1.24-.53.26-0.78,0.55l-0.05,0-0.08-.06-0.3-.22-0.57-.44-2.24-1.78q-17.85-14.33-35.57-28.8l0-.16,0.17-.24h0A26.31,26.31,0,0,1,184,175a35.58,35.58,0,0,1,.65-3.53,42.58,42.58,0,0,1,2.38-6.77,59.72,59.72,0,0,1,3.37-6.31,51.42,51.42,0,0,1,4.12-5.85l0.07,0.71h0c-4.05-3.13-8-6.38-11.8-9.8q-2.86-2.56-5.58-5.29a72.43,72.43,0,0,1-5.16-5.75,101.65,101.65,0,0,1-8.75-12.66q-1.92-3.35-3.52-6.86c-1.05-2.35-2-4.74-2.85-7.16s-1.6-4.87-2.21-7.38c-0.34-1.24-.56-2.51-0.84-3.77s-0.47-2.53-.65-3.8c-0.38-2.54-.69-5.08-0.89-7.64S152,78,151.91,75.43a119.13,119.13,0,0,1,.5-15.36,46.35,46.35,0,0,1,1.31-7.62,12.54,12.54,0,0,1,1.57-3.66A3.58,3.58,0,0,1,157,47.38a2.35,2.35,0,0,1,2.3.46l-0.12-.08h0a57.17,57.17,0,0,1,6,3.36c1.91,1.26,3.8,2.55,5.61,4,0.91,0.69,1.81,1.4,2.69,2.13s1.76,1.45,2.61,2.22,1.72,1.5,2.54,2.3,1.67,1.56,2.47,2.38c1.63,1.6,3.19,3.27,4.74,4.94s3,3.41,4.47,5.19,2.83,3.58,4.24,5.38,2.72,3.69,4,5.59l1.9,2.84L202.2,91c0.62,1,1.18,2,1.74,3s1.14,2,1.67,3c1,2,2.12,4.05,3.06,6.14s1.87,4.17,2.78,6.27,1.69,4.25,2.45,6.4c0.41,1.07.75,2.16,1.11,3.24s0.69,2.18,1,3.27c0.68,2.18,1.23,4.4,1.75,6.63s1,4.47,1.26,6.75l-0.89-.22h0a5.43,5.43,0,0,1,.33-0.61c0.13-.18.28-0.36,0.43-0.54a6.21,6.21,0,0,1,1-.86,11.42,11.42,0,0,1,2.36-1.09,22.38,22.38,0,0,1,4.9-1.06,44.79,44.79,0,0,1,4.93-.26,31.85,31.85,0,0,1,4.9.28l-0.46.23h0l7.58-11.74,0.12-.19,0.23,0q2.83-.39,5.66-0.74l2.84-.31,1.44-.12,0.73,0h0.39l0.23,0,0.16,0Z"/><path class="cls-5" d="M196.14,147.43A120.51,120.51,0,0,1,170,120.09c-10.51-15.33-11.83-33.42-12.83-44.67s0.75-17,2-17.75,3.75-.5,7.5,3.25,14,10.25,28,37.25,14.63,39.5,14.63,39.5"/><path d="M195.85,147.83s-0.66-.45-1.84-1.35-2.88-2.25-5-4.07-4.56-4.09-7.22-6.87a122.27,122.27,0,0,1-8.48-9.76c-1.46-1.88-2.91-3.85-4.34-6-0.68-1.08-1.41-2.13-2-3.32l-1-1.76c-0.32-.6-0.6-1.21-0.91-1.82a74,74,0,0,1-5.6-16.15,132.64,132.64,0,0,1-2.65-18c-0.27-3.07-.58-6.21-0.57-9.37a34.83,34.83,0,0,1,1.07-9.5,6.56,6.56,0,0,1,1.15-2.33l0.34-.28,0.3-.16a3.29,3.29,0,0,1,.72-0.22,4.19,4.19,0,0,1,1.37,0,10.05,10.05,0,0,1,4.35,2.35c1.23,1.06,2.28,2.18,3.46,3.18s2.33,2.08,3.45,3.16a90.48,90.48,0,0,1,11.69,14A163.16,163.16,0,0,1,193,94.1c2.6,4.76,4.83,9.35,6.84,13.64s3.64,8.3,5,11.89,2.37,6.8,3.12,9.46a63.75,63.75,0,0,1,1.45,6.27c0.12,0.74.2,1.31,0.25,1.69l0.06,0.61-1,.05-0.05-.54c0-.37-0.12-0.92-0.24-1.64a62.78,62.78,0,0,0-1.43-6.17c-0.74-2.63-1.74-5.81-3.1-9.38s-3-7.55-5-11.82-4.25-8.84-6.84-13.56a162.14,162.14,0,0,0-8.83-14.44,89.4,89.4,0,0,0-11.58-13.83c-1.11-1.06-2.25-2.09-3.43-3.12S166,61,164.84,60A9.05,9.05,0,0,0,161,58a3.08,3.08,0,0,0-1,0,2.68,2.68,0,0,0-.4.11,1.1,1.1,0,0,0-.34.21,5.8,5.8,0,0,0-.88,1.89,33.85,33.85,0,0,0-1,9.16c0,3.1.3,6.18,0.59,9.27a131.48,131.48,0,0,0,2.66,17.88,72.76,72.76,0,0,0,5.54,15.88c0.3,0.6.58,1.2,0.89,1.78l1,1.7c0.6,1.14,1.35,2.21,2,3.28,1.39,2.08,2.85,4.06,4.29,5.91a121,121,0,0,0,8.4,9.65c2.66,2.73,5.05,5,7.09,6.86s3.71,3.19,4.83,4.12,1.76,1.39,1.76,1.39Z"/><path d="M217.36,166.9a31.5,31.5,0,0,1,.94,3.71,37.09,37.09,0,0,1,.57,3.89c0.08,0.72.1,1.46,0.15,2.22s0,1.53,0,2.3-0.05,1.54-.17,2.3a21.4,21.4,0,0,1-.32,2.21,17.42,17.42,0,0,1-.46,2,16.09,16.09,0,0,1-.55,1.8l-0.59,1.48-0.6,1.08c-0.35.59-.56,0.92-0.56,0.92l-0.87-.5s0.13-.35.39-0.94l0.49-1.06,0.54-1.41a15.55,15.55,0,0,0,.57-1.7,16.36,16.36,0,0,0,.49-1.94,20.34,20.34,0,0,0,.37-2.12c0.13-.72.15-1.47,0.22-2.22s0.05-1.5.08-2.23,0-1.47-.06-2.17c-0.08-1.41-.23-2.72-0.38-3.84a30.92,30.92,0,0,0-.73-3.69Z"/><path d="M241.8,181.34l0.58,1.79c0.34,1.08.81,2.5,1.3,3.91,0.25,0.7.52,1.39,0.78,2,0.14,0.31.26,0.62,0.39,0.9s0.24,0.56.38,0.78,0.24,0.45.36,0.61a4.64,4.64,0,0,0,.3.42,3.25,3.25,0,0,1,.28.3l-0.52.86s-0.2-.11-0.53-0.35a5.47,5.47,0,0,1-.49-0.48,4.77,4.77,0,0,1-.52-0.67c-0.19-.25-0.33-0.54-0.51-0.83s-0.31-.63-0.47-1a21.58,21.58,0,0,1-.8-2.14,34.12,34.12,0,0,1-1-4.1c-0.2-1.13-.28-1.9-0.28-1.9Z"/><path class="cls-4" d="M222.12,199.43a30.68,30.68,0,0,0-6.75,16.5c-0.75,9.75,12.5,12,15,11.25s7.5-3.75,7.75-13,5.25-12.25,5.75-13.5S235.37,190.68,222.12,199.43Z"/><path d="M222.52,199.86c-0.08.1-.28,0.35-0.59,0.76a27.41,27.41,0,0,0-1.61,2.47,29.88,29.88,0,0,0-3.64,9.78c-0.07.53-.18,1.07-0.23,1.63l-0.07.84,0,0.43-0.23.21s-0.21-.14-0.21-0.06v0l0.21,0.06,0.11,0.11c0,0.3.07,0.6,0.08,0.91a3.16,3.16,0,0,0,.11.86,7,7,0,0,0,.45,1.52l0.34,0.77,0.48,0.72,0.24,0.36,0.3,0.32,0.6,0.65a13.6,13.6,0,0,0,3.1,2.09,18,18,0,0,0,3.74,1.33,15.85,15.85,0,0,0,3.93.46,3.36,3.36,0,0,0,.36,0H230l0.09,0,0.26-.09a7.09,7.09,0,0,0,.86-0.37,8.25,8.25,0,0,0,1.63-1.07,9.87,9.87,0,0,0,2.49-3.1,14.54,14.54,0,0,0,1.36-3.89,20,20,0,0,0,.32-2.08l0.17-2.17a19.12,19.12,0,0,1,2.55-8.53,19.34,19.34,0,0,1,2.61-3.35c0.23-.24.46-0.49,0.64-0.7l0.13-.16,0.06-.1h0a0.39,0.39,0,1,1,0,.13V200.5s0-.1,0,0a0.14,0.14,0,0,0,0,.1l0,0a4.37,4.37,0,0,0-1-1.26,12.72,12.72,0,0,0-6.11-2.9,14.85,14.85,0,0,0-5.84.08,19.39,19.39,0,0,0-4.31,1.47,27.07,27.07,0,0,0-2.58,1.44Zm-0.72-.92,0.93-.56a28.16,28.16,0,0,1,2.73-1.42,24.17,24.17,0,0,1,4.55-1.5,17.7,17.7,0,0,1,6.23-.19,13.9,13.9,0,0,1,6.79,3,5.44,5.44,0,0,1,1.41,1.72,1.73,1.73,0,0,1,.07.18,1.65,1.65,0,0,1,.05.34,0.89,0.89,0,0,1,0,.2v0.06c-0.09.3,0,.11-0.06,0.19l0,0c-0.06.11-.12,0.23-0.18,0.33l-0.17.23c-0.23.3-.45,0.55-0.67,0.8a16.32,16.32,0,0,0-4.31,11,20.16,20.16,0,0,1-1.83,9,12.09,12.09,0,0,1-3,3.82,10.51,10.51,0,0,1-2,1.37,9.6,9.6,0,0,1-1.16.51,5.33,5.33,0,0,1-1.34.3,15.49,15.49,0,0,1-4.66-.52,20.24,20.24,0,0,1-4.21-1.55,14.81,14.81,0,0,1-3.62-2.55c-0.25-.27-0.49-0.56-0.72-0.84l-0.35-.42-0.29-.47-0.56-.94c-0.14-.33-0.27-0.67-0.4-1a8.81,8.81,0,0,1-.5-2.12,4.24,4.24,0,0,1,0-1v-1.22l0-.23,0.06-.46,0.12-.9c0.09-.59.22-1.16,0.33-1.73a32.68,32.68,0,0,1,4.24-10.12,28.64,28.64,0,0,1,1.77-2.52l0.77-.92Z"/><path class="cls-4" d="M240.55,197.34s18.88-22.17,61.35-20.42c0,0,3.22,2,1.72,6.75s-10.5,13.75-10.5,23.5c0,0-48.24-4.66-52-3.08Z"/><path d="M240.17,197a34.77,34.77,0,0,1,3-2.94c0.52-.47,1.06-0.91,1.61-1.35s1.08-.89,1.66-1.29c1.13-.83,2.26-1.65,3.44-2.39,0.59-.38,1.17-0.77,1.76-1.13l1.82-1c0.61-.34,1.2-0.71,1.83-1l1.88-.93,1.88-.92,1.93-.81c1.29-.53,2.56-1.11,3.89-1.53s2.64-.92,4-1.35l4-1.09c1.34-.4,2.71-0.63,4.08-0.91s2.73-.59,4.11-0.77l4.15-.54c0.69-.08,1.38-0.2,2.07-0.25l2.09-.12,4.17-.25c1.39-.07,2.78,0,4.18,0l4.18,0h0.13l0.11,0.07h0a5.21,5.21,0,0,1,1.68,1.65,5.91,5.91,0,0,1,.85,2.19,6.76,6.76,0,0,1,0,2.33,9.57,9.57,0,0,1-.23,1.12l0,0.14-0.06.17-0.09.25-0.17.49a21.13,21.13,0,0,1-1,2c-0.34.64-.7,1.25-1.07,1.85l-2.21,3.56q-1.11,1.76-2.1,3.55c-0.32.6-.68,1.19-1,1.8s-0.63,1.21-.88,1.83a29.46,29.46,0,0,0-1.44,3.76c-0.23.64-.19,1.29-0.38,1.95a8.92,8.92,0,0,0-.2,2h0l-0.17.55-0.59,0c-8.65-.82-17.34-1.58-26-2.24-4.33-.33-8.68-0.63-13-0.86-2.17-.12-4.34-0.22-6.51-0.27-1.08,0-2.17,0-3.24,0-0.54,0-1.08,0-1.6.07a6.58,6.58,0,0,0-1.45.21l-0.64.19-0.05-.61-0.59-7Zm0.89,0.52,0.55,6.53-0.69-.42a4.55,4.55,0,0,1,.92-0.21,7.94,7.94,0,0,1,.85-0.08c0.56,0,1.11-.05,1.66-0.07,1.1,0,2.19,0,3.28,0,2.18,0.05,4.36.15,6.53,0.27,4.35,0.24,8.68.54,13,.87,8.67,0.66,17.48,1.42,26.13,2.24l-0.41.5h0c0-.72-0.24-1.45-0.2-2.18a15.17,15.17,0,0,1,.17-2.17,15.81,15.81,0,0,1,.46-2.12l0.29-1,0.38-1c0.25-.68.54-1.33,0.85-2s0.65-1.27,1-1.91c0.7-1.24,1.44-2.45,2.2-3.64s1.56-2.34,2.32-3.49c0.37-.58.77-1.15,1.12-1.72s0.67-1.12,1-1.69l0.21-.48,0.1-.24s0.05-.13,0-0.07l0-.11a7.89,7.89,0,0,0,.25-0.91,6.55,6.55,0,0,0,.15-1.84,4.53,4.53,0,0,0-.47-1.76,4.78,4.78,0,0,0-1.11-1.44h0l0.24,0.07-4.14,0c-1.38,0-2.76-.06-4.14,0l-4.13.25-2.06.13c-0.69,0-1.37.17-2.05,0.25l-4.1.54c-1.37.18-2.71,0.52-4.06,0.77s-2.71.51-4,.91l-4,1.09-3.91,1.34c-1.32.41-2.57,1-3.84,1.52l-1.9.8-1.85.91-1.85.91c-0.62.31-1.2,0.67-1.8,1l-1.8,1c-0.59.35-1.16,0.74-1.74,1.1-1.17.72-2.29,1.52-3.4,2.33-0.57.39-1.09,0.83-1.63,1.26s-1.08.85-1.58,1.31A34.25,34.25,0,0,0,241.07,197.53Z"/><path class="cls-4" d="M237.66,218.18s35.46,6.49,52.46,38c0,0,9.75,1.25,15.75-14.5,0,0,1.54-13,14.65-18,0,0-5.16-14.55-27.4-16.5s-46.74-3.41-52-3.08C241.12,204.1,237.18,209.18,237.66,218.18Z"/><path d="M238.15,217.79a70.15,70.15,0,0,1,7.73,2.08c2.66,0.88,5.27,1.89,7.83,3a88.29,88.29,0,0,1,14.64,8.19c1.14,0.82,2.29,1.62,3.38,2.51s2.17,1.78,3.23,2.69,2.09,1.87,3.07,2.88l1.48,1.49,1.42,1.55c0.95,1,1.84,2.12,2.73,3.2s1.73,2.2,2.52,3.37,1.56,2.33,2.29,3.52,1.38,2.44,2.08,3.65h0l-0.38-.26a7.22,7.22,0,0,0,1.3-.07,9.72,9.72,0,0,0,1.32-.28,10.13,10.13,0,0,0,1.29-.43c0.43-.15.82-0.38,1.23-0.57s0.78-.47,1.17-0.7,0.73-.55,1.09-0.81,0.68-.61,1-0.91a8.87,8.87,0,0,0,1-1c0.3-.35.63-0.66,0.9-1l0.82-1.11a11.6,11.6,0,0,0,.75-1.16l0.72-1.18c0.41-.83.84-1.65,1.24-2.49l1.07-2.58,0,0.2c0.08-.57.18-1.07,0.3-1.59s0.26-1,.41-1.52,0.33-1,.5-1.49l0.6-1.45,0.68-1.42,0.77-1.37c0.27-.45.57-0.88,0.86-1.32s0.63-.84.94-1.26a10.49,10.49,0,0,1,1-1.2c0.37-.38.72-0.77,1.1-1.13l1.2-1a11.31,11.31,0,0,1,1.28-.92,14,14,0,0,1,1.33-.83l1.39-.73a10.69,10.69,0,0,1,1.44-.59c0.49-.18,1-0.36,1.46-0.52h0l-0.29.63a19.58,19.58,0,0,0-2.76-4.37,24.73,24.73,0,0,0-1.74-1.94l-0.93-.92-1-.85a30.14,30.14,0,0,0-4.26-3,34.05,34.05,0,0,0-4.72-2.23,20.07,20.07,0,0,0-2.48-.86,22.92,22.92,0,0,0-2.53-.7l-2.57-.55-2.61-.35c-1.73-.26-3.53-0.35-5.3-0.53l-5.33-.45q-10.66-.88-21.34-1.58l-10.68-.64-5.34-.33c-1.77-.05-3.57-0.14-5.31-0.14h0l0.36-.11a13.45,13.45,0,0,0-.91,1.54,18.1,18.1,0,0,0-.76,1.65,23.08,23.08,0,0,0-1.09,3.44c-0.12.59-.26,1.18-0.33,1.78s-0.16,1.2-.21,1.8-0.06,1.21-.09,1.81S238.14,217.31,238.15,217.79Zm-1,.42c0-.63,0-1.25,0-1.88s0-1.25.09-1.88,0.12-1.25.22-1.87,0.23-1.23.35-1.85a23.94,23.94,0,0,1,1.14-3.59,18.71,18.71,0,0,1,.8-1.72,13.56,13.56,0,0,1,1-1.65l0.13-.27,0.23-.1h0c1.83,0,3.6,0,5.4.05l5.36,0.2c3.57,0.13,7.14.32,10.7,0.54,7.13,0.42,14.25.92,21.38,1.46l5.34,0.43c1.78,0.17,3.55.25,5.35,0.51l2.69,0.35,2.67,0.56a24.18,24.18,0,0,1,2.63.71,21.3,21.3,0,0,1,2.58.88,32.45,32.45,0,0,1,4.93,2.37,29.15,29.15,0,0,1,4.44,3.21l1,0.92,0.95,1a26,26,0,0,1,1.77,2.1,20.3,20.3,0,0,1,2.68,4.82l0.15,0.41-0.45.23h0c-0.44.24-.87,0.48-1.31,0.7a11.43,11.43,0,0,0-1.29.72l-1.25.78a12.68,12.68,0,0,0-1.18.87,14.43,14.43,0,0,0-1.14.91l-1.08,1c-0.35.33-.67,0.71-1,1.06a11.9,11.9,0,0,0-.95,1.11,14.47,14.47,0,0,0-.88,1.16c-0.27.41-.55,0.8-0.81,1.22l-0.73,1.27-0.64,1.32-0.57,1.35c-0.16.46-.34,0.92-0.48,1.38s-0.28.93-.39,1.41-0.22,1-.28,1.39l0,0.13,0,0.07-1.15,2.68c-0.44.87-.91,1.72-1.36,2.58l-0.79,1.23a12.66,12.66,0,0,1-.83,1.21l-0.9,1.16c-0.3.39-.66,0.73-1,1.09a9.94,9.94,0,0,1-1.06,1,13.66,13.66,0,0,1-1.14.95c-0.41.28-.8,0.58-1.23,0.84s-0.86.5-1.31,0.71-0.9.43-1.38,0.57a11.29,11.29,0,0,1-1.44.42,9.58,9.58,0,0,1-1.48.23,7.94,7.94,0,0,1-1.54,0l-0.25,0-0.13-.23h0c-0.71-1.18-1.36-2.4-2.13-3.55s-1.51-2.31-2.33-3.42-1.65-2.2-2.5-3.29S281,244,280,243l-1.41-1.51-1.47-1.45c-1-1-2-1.88-3-2.8s-2.1-1.78-3.2-2.62-2.2-1.66-3.32-2.47A87,87,0,0,0,253.21,224c-1.26-.56-2.53-1.1-3.82-1.61s-2.58-1-3.89-1.43a68,68,0,0,0-7.94-2.29l-0.4-.09v-0.38Z"/><path class="cls-4" d="M222.12,197.18s-14.25-19.75-48-18.5c0,0-13.25-1.75-11,11.75a26,26,0,0,1,3.25,10,68.83,68.83,0,0,1,.25,9.5s27.1-8.68,53.8-8.22l1.7-2.28,1.5-.93Z"/><path d="M221.71,197.49a26.44,26.44,0,0,0-2.17-2.43c-0.76-.79-1.58-1.51-2.4-2.24s-1.67-1.42-2.57-2l-1.32-1-1.38-.9-1.38-.89L209,187.2a32.46,32.46,0,0,0-2.91-1.53c-1-.45-2-1-3-1.36l-3.06-1.2-3.14-1a30.71,30.71,0,0,0-3.18-.83c-1.07-.23-2.13-0.52-3.21-0.71l-3.25-.49c-0.54-.08-1.08-0.17-1.63-0.24l-1.64-.12-3.28-.24c-1.09-.08-2.2-0.05-3.29-0.07l-3.29,0h-0.08l-0.06,0c-0.34,0-.74,0-1.12,0s-0.77,0-1.15.05a11.92,11.92,0,0,0-2.25.36,8,8,0,0,0-1.07.34,6.51,6.51,0,0,0-1,.45,5.08,5.08,0,0,0-.92.58,4.25,4.25,0,0,0-.8.7l-0.38.37-0.3.44a3.83,3.83,0,0,0-.55.92c-0.13.34-.3,0.66-0.42,1s-0.17.72-.26,1.09a4.59,4.59,0,0,0-.16,1.12L163.55,188c0,0.78.07,1.56,0.07,2.35h0l-0.07-.18a19.37,19.37,0,0,1,1.34,2.22c0.39,0.77.73,1.56,1,2.36a19.61,19.61,0,0,1,.78,2.47,23.23,23.23,0,0,1,.49,2.56c0.13,0.89.15,1.68,0.21,2.55s0,1.69-.05,2.54c0,1.7-.45,3.38-0.45,5.08h0l-0.54-.51c4.38-1.34,8.85-2.47,13.3-3.49,2.23-.5,4.48-1,6.72-1.4,1.12-.23,2.26-0.41,3.38-0.62s2.25-.4,3.38-0.57c2.25-.37,4.52-0.67,6.78-1,1.13-.16,2.27-0.25,3.4-0.38s2.27-.25,3.41-0.32l3.42-.25,3.42-.15c1.14-.06,2.28-0.09,3.43-0.08h3.43l-0.41.2,1.7-2.28,0.06-.08,0.08-.05,1.49-.92h0l-0.07.8-1.54-1.34Zm0.77-.68,1.47,1.32,0.5,0.45-0.57.35h0l-1.49.92,0.14-.13-1.7,2.39-0.15.31h-0.26l-3.4-.1c-1.13,0-2.27,0-3.4,0l-3.4.12-3.39.24c-1.13.07-2.26,0.19-3.39,0.31s-2.26.21-3.38,0.37c-2.25.29-4.5,0.59-6.74,1-1.12.17-2.24,0.36-3.36,0.56s-2.24.39-3.35,0.62c-2.23.43-4.45,0.9-6.67,1.4-4.42,1-8.84,2.14-13.16,3.47l-0.73.19-0.14-.7h0c0-1.65-.07-3.31-0.19-5l-0.13-2.48c-0.06-.8-0.11-1.68-0.19-2.46a25.85,25.85,0,0,0-1-4.73c-0.23-.78-0.49-1.55-0.78-2.32s-0.61-1.53-.93-2.26l-0.05-.12v-0.05h0c-0.16-.81-0.3-1.64-0.42-2.48v-1.28a5.6,5.6,0,0,1,.08-1.29c0.07-.43.14-0.86,0.23-1.29s0.32-.83.48-1.25a5.24,5.24,0,0,1,.66-1.17l0.37-.57,0.47-.49a5.11,5.11,0,0,1,1-.89,6.66,6.66,0,0,1,1.14-.71,8.13,8.13,0,0,1,1.21-.53,9.67,9.67,0,0,1,1.25-.38,13.59,13.59,0,0,1,2.55-.38c0.43,0,.85,0,1.28,0s0.84,0,1.31.08h3.22c1.12,0,2.24,0,3.36.06l3.35,0.27,1.68,0.14c0.56,0.07,1.11.17,1.66,0.25l3.32,0.53c1.1,0.2,2.19.5,3.28,0.75a29,29,0,0,1,3.25.89l3.2,1,3.12,1.27c1.05,0.39,2,1,3,1.44a33.52,33.52,0,0,1,3,1.61l1.45,0.85,1.4,0.94,1.4,0.94,1.34,1c0.91,0.66,1.75,1.41,2.6,2.13s1.67,1.51,2.43,2.33A27.47,27.47,0,0,1,222.48,196.81Z"/><path class="cls-4" d="M166.62,209.93l-21,11.75s2,11.5,2,15.5-1.75,13-1,19,1.23,10.48,5.86,17.73c0,0,18.14-24.75,30.14-34.25s28.28-18.83,33.78-19.83c0,0-2.53-7.74,4-18.13C220.42,201.71,181.68,203.09,166.62,209.93Z"/><path d="M166.84,210.38l-21,11.74,0.25-.52h0c0.44,2.2.83,4.4,1.2,6.61s0.71,4.42.93,6.68a22.56,22.56,0,0,1,.13,3.44c-0.05,1.17-.15,2.27-0.25,3.39-0.2,2.23-.45,4.44-0.61,6.65a47.12,47.12,0,0,0-.1,6.56c0.09,1,.25,2.17.39,3.27s0.32,2.18.51,3.26,0.45,2.13.73,3.17,0.65,2.07,1,3.09,0.85,2,1.33,3,1,2,1.52,2.94h0l-0.82,0q6.12-8.73,12.91-17c1.14-1.37,2.26-2.75,3.43-4.09s2.36-2.67,3.55-4,2.42-2.62,3.69-3.88,2.56-2.51,3.87-3.73,2.74-2.36,4.17-3.41,2.86-2.13,4.32-3.16c2.92-2.05,5.88-4,8.92-5.88s6.15-3.61,9.32-5.24q2.39-1.21,4.86-2.27a24.41,24.41,0,0,1,5.18-1.68h0l-0.39.65a8.1,8.1,0,0,1-.38-1.22,12.17,12.17,0,0,1-.24-1.22,16.09,16.09,0,0,1-.17-2.47,17.42,17.42,0,0,1,.18-2.47,21.07,21.07,0,0,1,.47-2.42l0.34-1.18c0.1-.4.27-0.77,0.4-1.16s0.27-.77.44-1.14l0.52-1.11c0.34-.74.76-1.44,1.15-2.15s0.89-1.36,1.36-2h0l0.44,0.77c-4.54.2-9.08,0.5-13.61,0.88s-9.06.82-13.57,1.38-9,1.23-13.45,2.13c-1.11.23-2.22,0.46-3.32,0.72s-2.2.54-3.29,0.84-2.17.64-3.24,1S167.86,209.93,166.84,210.38Zm-0.43-.91q1.59-.7,3.22-1.27t3.29-1c1.11-.3,2.21-0.6,3.33-0.86s2.23-.51,3.35-0.74c4.48-.91,9-1.6,13.53-2.18s9.07-1,13.62-1.38,9.1-.63,13.66-0.81l0.84,0-0.4.8h0c-0.33.72-.71,1.4-1,2.11s-0.67,1.41-.93,2.14l-0.41,1.09c-0.15.36-.25,0.73-0.37,1.1s-0.25.73-.34,1.1l-0.3,1.11c-0.09.37-.16,0.75-0.24,1.12s-0.14.75-.2,1.13a22.63,22.63,0,0,0-.26,2.28,21.23,21.23,0,0,0-.06,2.29c0,0.38,0,.76.05,1.14s0.08,0.77.13,1.11l0.09,0.57-0.47.08h0a26.61,26.61,0,0,0-4.83,1.86c-1.58.76-3.13,1.59-4.68,2.44-3.09,1.69-6.11,3.53-9.07,5.44s-5.91,3.86-8.77,5.92c-1.43,1-2.85,2.08-4.23,3.16s-2.74,2.19-4.06,3.32-2.58,2.36-3.82,3.62-2.45,2.52-3.67,3.79c-2.39,2.59-4.73,5.24-7,7.91-1.15,1.34-2.3,2.69-3.42,4.05l-3.37,4.1c-2.25,2.73-4.45,5.51-6.63,8.29l-0.42.54-0.4-.56h0a32.87,32.87,0,0,1-3.49-5.85,27.59,27.59,0,0,1-2.07-6.55c-0.22-1.12-.37-2.24-0.52-3.36s-0.28-2.21-.38-3.38a48.77,48.77,0,0,1,.15-6.82c0.19-2.25.44-4.48,0.71-6.69,0.13-1.1.25-2.22,0.33-3.28a20.9,20.9,0,0,0,0-3.25c-0.17-2.2-.44-4.41-0.72-6.62s-0.59-4.42-.91-6.62h0l-0.06-.35,0.31-.17,21-11.76h0Z"/><path class="cls-4" d="M183.18,186.44s19.68,3.68,21.41,4.86,9.66,5.12-.08,6.12h-6.6"/><path d="M183.22,186c5.57,0.84,11.12,1.8,16.65,3,0.69,0.14,1.38.32,2.07,0.48s1.38,0.35,2.08.59a4.7,4.7,0,0,1,1.09.51l0.88,0.53c0.61,0.36,1.22.74,1.82,1.16a7.07,7.07,0,0,1,1.71,1.58,1.92,1.92,0,0,1,.38,1.51,2,2,0,0,1-1,1.21,7,7,0,0,1-2.2.76,18.07,18.07,0,0,1-2.16.22l0-.07h0c-1.1,0-2.2,0-3.3,0s-2.2-.06-3.3-0.16v-0.58c1.1-.1,2.2-0.2,3.3-0.24s2.2-.11,3.3-0.12h-0.07c0.68-.1,1.36-0.18,2-0.33a6.75,6.75,0,0,0,1.77-.59,0.8,0.8,0,0,0,.36-0.35,0.65,0.65,0,0,0-.17-0.47,6,6,0,0,0-1.37-1.27c-0.54-.4-1.13-0.76-1.72-1.13l-0.92-.57a1.83,1.83,0,0,0-.4-0.22l-0.18-.09-0.24-.08c-1.27-.44-2.65-0.76-4-1.1-2.72-.67-5.47-1.28-8.21-1.87l-8.25-1.79Z"/><path class="cls-4" d="M265.31,191.56s-7.49,1.28-10.06,4-0.15,4.53,5,3,14-3.57,19-3.2"/><path d="M265.36,191.85s-0.59.14-1.63,0.42a39.08,39.08,0,0,0-4.19,1.41A14.89,14.89,0,0,0,257,195a7.12,7.12,0,0,0-1.16.93,6.19,6.19,0,0,0-.51.59,3.41,3.41,0,0,0-.32.58,0.73,0.73,0,0,0,.08.9,2.3,2.3,0,0,0,1.26.42,10.8,10.8,0,0,0,3.39-.44c1.16-.32,2.39-0.68,3.57-1s2.36-.58,3.5-0.82c2.28-.47,4.44-0.81,6.3-1,0.93-.12,1.79-0.17,2.55-0.21s1.43,0,2,0,1,0,1.28.07a0.73,0.73,0,0,0,.45-0.08l0,0.53h-0.44c-0.28,0-.7.13-1.23,0.16a44,44,0,0,0-4.4.57c-1.81.28-3.92,0.74-6.16,1.27-1.12.25-2.28,0.56-3.44,0.87s-2.32.67-3.54,1a10.7,10.7,0,0,1-3.89.47,3.52,3.52,0,0,1-2.06-.82,2.44,2.44,0,0,1-.4-0.54,2,2,0,0,1-.17-0.65,2.35,2.35,0,0,1,.21-1.16,4.52,4.52,0,0,1,.53-0.91,7.38,7.38,0,0,1,.6-0.67,7.15,7.15,0,0,1,1.42-1.06,16,16,0,0,1,2.82-1.28,29.76,29.76,0,0,1,4.39-1.15c1.07-.2,1.7-0.27,1.7-0.27Z"/><path class="cls-4" d="M212,209.93c-0.47.08-39,15.17-39,15.17"/><path d="M212.18,210.41l-1.61.69c-1,.44-2.54,1.1-4.36,1.83s-3.92,1.63-6.21,2.51-4.7,1.88-7.15,2.78l-7.18,2.7-6.3,2.28c-3.7,1.31-6.18,2.13-6.18,2.13l-0.19-.48s2.38-1.08,6-2.63l6.17-2.6,7.11-2.89c2.42-1,4.87-1.9,7.15-2.8s4.43-1.67,6.27-2.35,3.39-1.2,4.48-1.58,1.75-.57,1.75-0.57Z"/><line class="cls-4" x1="212.05" y1="214.57" x2="194.61" y2="221.8"/><path d="M212.24,215s-1,.55-2.65,1.32-3.75,1.73-5.94,2.62-4.38,1.75-6.07,2.3-2.85.84-2.85,0.84l-0.26-.63s1-.62,2.6-1.42,3.73-1.78,5.92-2.67,4.39-1.73,6.05-2.35,2.8-.94,2.8-0.94Z"/><path class="cls-4" d="M245.35,208s17.6,1.26,30.63,7.23"/><path d="M245.39,207.47a9.24,9.24,0,0,1,1.38-.05,29.92,29.92,0,0,1,3.59.36c3,0.41,6.87,1.06,10.74,2,1,0.25,1.93.46,2.87,0.73s1.88,0.5,2.76.79,1.76,0.53,2.56.82,1.57,0.54,2.26.82c1.39,0.54,2.54,1,3.33,1.39l1.25,0.56-0.3.65-1.25-.5c-0.79-.34-1.94-0.76-3.34-1.23-0.69-.25-1.46-0.46-2.27-0.71s-1.66-.49-2.55-0.73-1.81-.47-2.75-0.7-1.9-.42-2.86-0.64c-1.92-.41-3.85-0.77-5.67-1.07s-3.52-.54-5-0.71-2.68-.3-3.53-0.46-1.33-.3-1.33-0.3Z"/><path class="cls-6" d="M212.55,176.27a8.86,8.86,0,0,0-8-5.75,9.66,9.66,0,0,0-3.33.36c-0.75.25-.35-0.15,0.14,0.06l-1.52-.65a1.06,1.06,0,0,0-.83,1.94,4.44,4.44,0,0,0,3.26.5A7,7,0,0,1,210.6,177a1.06,1.06,0,0,0,1.95-.73h0Z"/><path class="cls-6" d="M245.09,178.18a7.38,7.38,0,0,1,4-3.94c2.25-.87,4,0,6.13.61a5.16,5.16,0,0,0,2.84-.18,1.06,1.06,0,1,0-.46-2.06,3.49,3.49,0,0,1-2.16,0,22.11,22.11,0,0,0-3.11-.85,8.46,8.46,0,0,0-5.1,1,9.94,9.94,0,0,0-4.1,4.74c-0.52,1.26,1.49,1.83,2,.65h0Z"/><path class="cls-5" d="M244.15,128.77l14,5.61s-3-14.68-3.44-16.67c-1-4.61-2.38-4.36-4-2.66Z"/><path class="cls-2" d="M248,135.09a38.62,38.62,0,0,0-10.77-3.63c13.35-24.19,23.56-23.09,23.56-23.09,18.38-.94,25.76,9.43,25.76,9.43s5.34,23.25,6.44,31.26,0,27.85,0,27.85c-2.2,1.3-29.2,5.74-29.2,5.74L258.86,170c-4.24-11.31-4.65-47.47-4.65-47.47s-2.09-4.06-5.09.44-3.77,5.91-3.77,5.91"/><path d="M247.73,135.54L246.4,135c-0.43-.17-0.86-0.34-1.3-0.5-0.88-.32-1.75-0.64-2.64-0.94s-1.77-.35-2.66-0.63a9.41,9.41,0,0,0-2.68-.54h0l-0.72-.33,0.35-.76,2-3.83c0.33-.64.73-1.26,1.09-1.88l1.12-1.85c0.74-1.23,1.6-2.39,2.4-3.59,0.41-.59.88-1.15,1.32-1.72s0.87-1.15,1.36-1.69l1.44-1.63c0.46-.56,1-1,1.53-1.56l0.78-.77,0.83-.72a20.56,20.56,0,0,1,1.72-1.39,18.13,18.13,0,0,1,1.84-1.25,18.45,18.45,0,0,1,2-1.06,14.93,14.93,0,0,1,2.17-.79,10.69,10.69,0,0,1,1.16-.26,6.59,6.59,0,0,1,1.34-.08h-0.17l1.82,0c0.61,0,1.21,0,1.82,0,1.21,0.09,2.43.08,3.64,0.26l1.82,0.24c0.61,0.07,1.2.24,1.8,0.35s1.2,0.23,1.79.42l1.77,0.51c0.58,0.2,1.15.44,1.72,0.66s1.13,0.49,1.68.75a16.31,16.31,0,0,1,1.62.88,14.34,14.34,0,0,1,1.56,1,21,21,0,0,1,2.85,2.34c0.43,0.44.86,0.88,1.25,1.36a11.86,11.86,0,0,1,1.09,1.52h0l0.05,0.08,0,0.1q1.87,7.25,3.52,14.54c0.55,2.43,1.11,4.86,1.61,7.31s1,4.89,1.41,7.37l0.3,1.87,0.22,1.88c0.11,1.28.19,2.55,0.23,3.8,0.07,2.51.06,5,0,7.52s0.06,5-.07,7.49-0.34,5-.34,7.47h0l-0.25.3-0.33.1a12.25,12.25,0,0,1-1.95.63l-1.86.44c-1.22.27-2.45,0.53-3.67,0.77-2.44.48-4.89,1.08-7.33,1.52-4.88.9-9.78,1.72-14.68,2.72h0l-0.39-.08-0.15-.45c-1-2.37-1.95-4.77-2.88-7.15L259,172.16l-0.7-1.8c-0.24-.68-0.4-1.24-0.6-1.87a17.76,17.76,0,0,1-.5-1.88l-0.44-1.92c-0.22-1.27-.49-2.54-0.66-3.81s-0.37-2.55-.51-3.83-0.3-2.55-.41-3.83c-0.49-5.11-.72-10.23-1-15.35s-0.28-10.24-.28-15.37h0l0,0.22a6.46,6.46,0,0,0-.57-0.51,3.93,3.93,0,0,0-.57-0.41,1.77,1.77,0,0,0-.54-0.19,1.08,1.08,0,0,0-.5,0,2.07,2.07,0,0,0-.54.23,4.31,4.31,0,0,0-.54.45,4.86,4.86,0,0,0-.5.56c-0.16.22-.31,0.4-0.47,0.64l-1.93,2.8-1.9,2.78-0.88-.48c0.26-.54.53-1,0.82-1.53s0.56-1,.86-1.48c0.59-1,1.18-2,1.81-2.9,0.15-.24.35-0.49,0.52-0.74a6.3,6.3,0,0,1,.62-0.72,5.75,5.75,0,0,1,.76-0.65,3.54,3.54,0,0,1,1-.45,2.47,2.47,0,0,1,1.19,0,2.83,2.83,0,0,1,1,.5,3.65,3.65,0,0,1,.69.75,3.84,3.84,0,0,1,.45.88l0.15,0.16,0.1,0.07h0q0,3.83.18,7.66l0.32,7.66c0.28,5.1.61,10.2,1.14,15.28,0.12,1.27.28,2.53,0.43,3.8s0.35,2.52.52,3.78,0.43,2.5.64,3.75l0.41,1.83a16.38,16.38,0,0,0,.47,1.83c0.19,0.59.38,1.26,0.56,1.79l0.68,1.8,1.34,3.6c0.9,2.4,1.75,4.95,2.63,7.35l-0.55-.18h0c4.89-1,9.79-1.77,14.67-2.65,2.44-.44,4.87-1,7.3-1.47,1.21-.25,2.42-0.54,3.63-0.81l1.79-.46,0.87-.26c0.3-.08.73-0.2,1-0.29l0,0.4h0L292.76,162c0-2.48-.14-5-0.24-7.43,0-1.24-.16-2.46-0.26-3.66L292,149l-0.29-1.82c-0.39-2.44-.87-4.88-1.35-7.32L289,132.56,286,117.91l0.08,0.18h0c-0.38-.38-0.82-0.78-1.26-1.14s-0.89-.72-1.35-1.06-0.92-.68-1.41-1-1-.62-1.46-0.89-1-.55-1.5-0.81a14.55,14.55,0,0,0-1.54-.73c-0.52-.23-1-0.49-1.57-0.67l-1.6-.59-1.64-.49a17.11,17.11,0,0,0-1.67-.41c-0.56-.11-1.11-0.27-1.68-0.35l-1.71-.24c-1.13-.18-2.29-0.18-3.44-0.28-0.58,0-1.15,0-1.73,0h-1.81l-0.09,0a6.22,6.22,0,0,0-.79.06,8.57,8.57,0,0,0-.92.2,12.81,12.81,0,0,0-1.84.66,16.34,16.34,0,0,0-1.78.93,16.71,16.71,0,0,0-1.72,1.1,18.75,18.75,0,0,0-1.64,1.24l-0.8.65-0.76.71c-0.5.48-1,.92-1.5,1.44L247.44,118c-0.48.51-.91,1.07-1.36,1.6s-0.92,1.06-1.33,1.63c-0.83,1.13-1.73,2.22-2.52,3.39L241,126.33c-0.39.59-.81,1.16-1.17,1.77l-2.25,3.83-0.37-.51h0a13.36,13.36,0,0,1,2.89.21,25.24,25.24,0,0,1,2.79.67,25.83,25.83,0,0,1,2.69,1,21.64,21.64,0,0,1,2.54,1.34Z"/></svg>