<?xml version="1.0" encoding="utf-8"?>
<!-- Generator: Adobe Illustrator 19.2.1, SVG Export Plug-In . SVG Version: 6.00 Build 0)  -->
<!DOCTYPE svg PUBLIC "-//W3C//DTD SVG 1.1//EN" "http://www.w3.org/Graphics/SVG/1.1/DTD/svg11.dtd">
<svg version="1.1" id="Ebene_2" xmlns="http://www.w3.org/2000/svg" xmlns:xlink="http://www.w3.org/1999/xlink" x="0px" y="0px"
	 viewBox="0 0 450 450" style="enable-background:new 0 0 450 450;" xml:space="preserve">
<style type="text/css">
	.st0{fill:#666666;}
	.st1{fill:#C8C8C8;}
	.st2{fill:#1D1D1B;}
	.st3{fill:#E6CAD4;}
	.st4{fill:#DEC0CA;}
	.st5{fill:#FFFFFF;}
</style>
<title>gonimo-Vorteile</title>
<polygon class="st0" points="154.6,315 161.9,214.9 205.6,159.2 264.7,152.8 298,185.4 298,277.1 "/>
<path class="st1" d="M186,211.4c0,0-25.6,28.9-22.8,70.8s18.4,49.5,42.2,62.7c0,0,11.9,22,34.3,22.3c10.2,0.1,22.4-6,25.8-11.2
	c0,0,11.2,9,17.9,8.3c11.9-1.1,20.7-5.4,27.6-14.9c0,0,6.7,6.8,11-2.2c0,0,4.7,7.5,9.8,3.4c3.4-2.6,5.5-6.5,6-10.7
	c0,0,3.1,5.6,4.8,5.3s-8.1-28.3-9.8-27.8c0,0,6.8-20,2.3-39.6c0,0-17.5-79.6-88.7-89.9c-8-1.7-16.3-2-24.4-0.9
	C222,186.9,181.9,212.6,186,211.4z"/>
<path class="st2" d="M335.7,315c3.1-11.3,3.7-23.1,1.8-34.7c-10-74.1-89.9-106.6-92.8-94.9c-7-1.3-14.1-1.6-21.2-0.8l-41.7,28.1
	c-19.6,24.5-25.2,60-17.8,89.8c3.3,14.4,12.1,26.9,24.5,34.9c4.7,3.1,12.3,5.8,15.6,9.2c3.6,3.7,5.9,8.4,9.9,11.9
	c13.9,12.5,38.6,15.4,51.9,0.3c5.5,4.1,12,7.9,19,7.5c10.4-0.8,20-5.9,26.5-14c3.4,2.5,8.2,1.8,10.8-1.7c6.1,6.3,13.2,1.4,16.2-6
	c1.5,2,4.1,2.9,6.5,2.3C350.9,345.3,345.6,315.2,335.7,315z M339.6,339.3c-0.7-1.2-3.5-2.6-4-0.4c-1.1,5.7-7,14.8-12.1,7.1
	c-0.6-1-1.9-1.3-2.9-0.7c-0.2,0.1-0.4,0.3-0.5,0.4c-1.8,3-5.4,4.6-8.1,2c-0.8-0.8-2-0.8-2.8,0l-0.1,0.1c-5.9,8.2-15,13.3-25,14.1
	c-6.5,0.4-12.6-3.8-17.5-7.6c-0.8-0.8-2-0.8-2.8,0l-0.1,0.1c-8.7,11.3-27.1,12.9-39,6.6c-7.3-3.9-11.6-9.7-16.7-15.9
	c-3.5-4.3-9-6.2-13.9-9.1c-7.2-4-13.5-9.5-18.5-16.1c-13.4-19.5-13-49.3-6.7-71.1c3.7-12.8,9.9-26,18.8-36.1
	c0.7-0.9,7.4-7.6,34.4-25.9c7.9-1.1,16.2,1.3,24,2.9c0.9,0.2,1.8-0.3,2.1-1.1c20,3.9,60,11.4,86.7,86.7c-1-0.2-2,0.4-2.2,1.4
	c-0.1,0.3-0.1,0.6,0,0.8c2.6,12.8,1.8,26.1-2.3,38.5c-0.4,1.4,0.5,2.8,1.8,3.1c0.2,0.1,0.4,0.1,0.6,0.1
	C337.6,318.6,345.5,349.6,339.6,339.3L339.6,339.3L339.6,339.3z"/>
<circle class="st2" cx="232.7" cy="330.8" r="1.2"/>
<circle class="st2" cx="230.5" cy="340.1" r="1.2"/>
<circle class="st2" cx="235.8" cy="347.4" r="1.2"/>
<path class="st2" d="M260.9,339.7l3.1,16.6c0.2,1.2,3.1,0.5,2.9-0.8l-3-16.6C263.6,337.7,260.7,338.4,260.9,339.7L260.9,339.7
	L260.9,339.7z"/>
<path class="st3" d="M245.6,327.1c0.5,2.4,1.3,4.8,2.2,7.1c0.7,1,14.5,5.1,14.5,5.1s11.9-7.5,12.6-9.7c0.5-1.7-2-7.2-2-7.2
	c-4.2-4.6-10.5-6.9-16.8-6C247.6,317.3,245.1,324.2,245.6,327.1z"/>
<path class="st2" d="M244.1,327.7c0.8,3.2,1.1,6.9,4,8.6c4,2.2,8.4,3.7,12.9,4.3c2.3,0.1,3.7-1.2,5.7-2.5c2.8-2,8.2-4.6,9.6-7.9
	c2.8-7-5.6-13.1-11-14.6C256.9,313,242.8,316.7,244.1,327.7c0.2,2,3.3,0.4,3.1-1.3c-1.3-11.4,16.8-9.4,22.5-4.9
	c1.2,0.9,2.2,2.1,2.6,3.6c2,4.8-0.9,6.2-4.5,8.8c-1.9,1.4-3.8,2.8-5.9,4c0.9-0.5,1.4,0.3,0-0.5c-1.1-0.5-2.3-0.9-3.5-1.1
	c-2.8-0.6-5.6-1.5-8.1-2.8c-2.3-1.5-2.5-4.4-3.2-7.1C246.7,324.5,243.7,326.1,244.1,327.7z"/>
<path class="st4" d="M226.4,148c0,0,2.4-21.2,28.9-21.2s27,21.2,27,21.2l15.2,4.8c0,0,1.2-38.9-42.2-38.9s-44.4,36.8-44.4,36.8
	L226.4,148z"/>
<path class="st2" d="M226,147.6c0.2-1.5,0.6-3,1.2-4.5c0.6-1.5,1.3-3,2.2-4.4c1.7-2.8,4-5.3,6.7-7.2c1.3-1,2.8-1.8,4.3-2.4
	c0.7-0.4,1.5-0.6,2.3-0.9s1.6-0.5,2.4-0.7l1.2-0.3l1.2-0.2c0.8-0.2,1.6-0.3,2.4-0.4c1.6-0.2,3.3-0.3,4.9-0.3c1.6,0,3.3,0,4.9,0.2
	c0.8,0.1,1.6,0.2,2.4,0.3s1.6,0.3,2.4,0.5c1.6,0.4,3.2,0.9,4.7,1.6c1.5,0.7,3,1.5,4.3,2.4c2.7,1.9,4.9,4.5,6.5,7.4
	c0.8,1.4,1.5,3,2,4.6c0.5,1.6,0.9,3.2,1,4.8l0,0l-0.4-0.4l15.1,4.8l0,0l-0.6,0.4c0-2.7-0.3-5.3-0.9-7.9c-0.5-2.6-1.3-5.2-2.3-7.6
	c-1.9-5-5-9.4-8.9-13c-1-0.9-2-1.7-3.1-2.5c-1.1-0.8-2.2-1.5-3.4-2.1c-1.1-0.7-2.4-1.2-3.6-1.7s-2.5-1-3.8-1.3l-1.9-0.6l-2-0.4
	c-1.3-0.3-2.6-0.5-3.9-0.7s-2.6-0.2-4-0.4s-2.7-0.1-4-0.1s-2.7,0.1-4,0.1s-2.6,0.2-4,0.3c-2.6,0.3-5.3,0.8-7.8,1.5
	c-2.6,0.7-5.1,1.6-7.4,2.7c-2.4,1.1-4.7,2.5-6.8,4.2c-4.2,3.3-7.6,7.5-10,12.2c-1.2,2.4-2.2,4.9-3,7.4c-0.7,2.6-0.5,5.2-1.5,7.8l0,0
	l-0.3-0.4L226,147.6z M226.7,148.4l-15.7,2.7l-0.8,0.1l-0.2-0.5l0,0c1-2.8,0.9-5.4,1.6-8c0.7-2.6,1.8-5.2,3-7.6
	c2.4-4.9,5.9-9.2,10.2-12.6c2.2-1.7,4.5-3.1,6.9-4.3c2.5-1.2,5-2.1,7.6-2.8c2.6-0.7,5.3-1.2,8-1.5c1.4-0.1,2.7-0.2,4.1-0.3
	s2.7-0.1,4-0.1s2.7,0.1,4.1,0.1s2.7,0.2,4,0.4s2.7,0.4,4,0.7l2,0.4l2,0.6c1.3,0.3,2.6,0.9,3.8,1.4s2.5,1.1,3.7,1.8
	c1.2,0.7,2.3,1.4,3.5,2.2c1.1,0.8,2.2,1.7,3.2,2.6c4,3.7,7.1,8.3,9.1,13.4c1,2.5,1.8,5.1,2.3,7.8c0.5,2.7,0.8,5.4,0.8,8.1v0.6
	l-0.5-0.2l0,0l-15.2-4.8l-0.2-0.1v-0.3l0,0c-0.1-1.6-0.4-3.1-1-4.6c-0.5-1.5-1.1-3-1.9-4.3c-1.5-2.8-3.7-5.1-6.3-6.9
	c-1.3-0.9-2.7-1.6-4.1-2.3c-1.5-0.6-3-1.1-4.5-1.4c-0.8-0.2-1.5-0.3-2.3-0.5s-1.6-0.2-2.4-0.3c-1.6-0.2-3.2-0.2-4.8-0.2
	c-1.6,0-3.2,0.1-4.8,0.3c-0.8,0.1-1.6,0.2-2.4,0.4l-1.2,0.2l-1.1,0.3c-0.8,0.2-1.5,0.4-2.3,0.7s-1.5,0.5-2.2,0.9
	c-1.4,0.6-2.8,1.4-4.1,2.3c-2.6,1.8-4.8,4.1-6.5,6.8c-0.9,1.3-1.6,2.7-2.2,4.2c-0.6,1.5-1,3-1.3,4.5L226.7,148.4z"/>
<path class="st4" d="M336.4,212.2c-2.5-12.3-3-75.5-101.7-66.6c-83,7.5-80.5,95.8-83.9,117.4s-6.4,64-3.8,90.7s24.2,32.2,30.9,34.3
	s35.2,9.8,91.1,8.9s64-16.5,71.6-28.4s8-41.5,8-41.5C347.8,286.8,339,224.5,336.4,212.2z M300.4,227.4c0,0-85.1-15.4-121.7,11.9
	c0,0-10.1,5.9-13.1,22s-8.3,51.9-8.3,51.9s6-132.3,50.9-146.8c20.9-6.8,67.6-9.7,95.1,3.4L300.4,227.4z"/>
<path class="st2" d="M335.5,212.4l-0.1-0.6c-0.1-0.4-0.2-0.9-0.3-1.6c-0.2-1.5-0.5-3.6-1-6.4c-0.6-3.4-1.3-6.7-2.2-10
	c-1.3-4.5-2.9-8.8-5.1-12.9c-2.6-5.1-6-9.8-10-13.9c-4.7-4.8-10.3-8.8-16.4-11.8c-6.9-3.4-14.3-5.8-21.9-7.1
	c-8.4-1.6-17-2.3-25.6-2.3c-2.2,0-4.5,0.1-6.8,0.1s-4.6,0.2-6.9,0.4l-3.5,0.2l-0.9,0.1l-0.9,0.1l-1.8,0.2c-2.4,0.3-4.8,0.5-7.1,1
	c-9.8,1.7-19.3,5.1-27.9,10c-9,5.4-16.8,12.7-22.9,21.3c-6.2,8.8-10.8,19-14.1,29.7c-3.2,11-5.4,22.2-6.5,33.6
	c-0.7,5.8-1.1,11.6-1.8,17.4c-0.3,3-0.9,5.8-1.2,8.8s-0.7,5.9-1,8.8c-1.1,11.8-1.9,23.7-2.3,35.7c-0.2,6-0.3,12-0.3,18
	c0,6,0.2,12,0.6,18l0.4,4.4l0.6,4.5c0.3,1.4,0.7,2.8,1,4.2s1,2.7,1.5,4.1c2.4,5.3,6.2,9.9,10.9,13.3c2.4,1.7,4.9,3.2,7.6,4.3
	c2.7,1.2,5.5,2.2,8.3,3c5.7,1.7,11.4,3,17.2,4c11.5,2,23.2,3.3,34.9,4c11.6,0.8,23,1,34.3,0.9h4.2l4.2-0.1c2.8-0.1,5.6-0.1,8.3-0.4
	c5.5-0.3,10.9-0.9,16.3-1.7l4-0.7l1-0.2l1-0.2l1.9-0.5c1.3-0.3,2.6-0.6,3.9-1l3.8-1.2c4.9-1.6,9.5-3.9,13.8-6.8
	c4-3,7.5-6.6,10.2-10.8l2-3.1l0.5-0.8l0.2-0.4l0.2-0.4l0.9-1.6c0.3-0.5,0.5-1.1,0.8-1.6c0.2-0.5,0.5-1.1,0.7-1.6
	c0.4-1.1,0.8-2.3,1.1-3.4c1.3-4.6,2.2-9.2,2.8-13.9c0.6-4.6,1-9.2,1.3-13.7l0.1-3.4c0-0.5,0-1.1,0-1.6l0-1.7l-0.2-6.5
	c-0.2-4.3-0.4-8.5-0.7-12.6s-0.6-8.1-0.9-12s-0.6-7.7-1-11.3c-0.7-7.3-1.4-14.1-2.1-20.4s-1.4-12.1-2.1-17.3
	c-1.4-10.4-2.7-18.6-3.7-24.2S335.4,212.4,335.5,212.4L335.5,212.4L335.5,212.4z M337.3,212.1c0,0,0.6,3,1.4,8.6s2,13.8,3.3,24.3
	c0.6,5.2,1.4,11,2.2,17.3c0.4,3.2,0.8,6.4,1.1,9.9c0.4,3.4,0.8,7,1.1,10.6s0.7,7.4,1.1,11.3s0.7,7.9,0.9,12s0.5,8.3,0.8,12.7
	l0.2,6.6l0.1,1.7c0,0.6,0,1.1,0,1.7l-0.2,3.4c-0.2,4.5-0.6,9.1-1.2,13.8c-0.6,4.8-1.5,9.5-2.8,14.2c-0.3,1.2-0.8,2.4-1.2,3.5
	c-0.2,0.6-0.5,1.2-0.7,1.8c-0.2,0.6-0.5,1.2-0.8,1.7l-0.9,1.6l-0.3,0.5l-0.2,0.4l-0.5,0.8l-2,3.2c-2.8,4.4-6.4,8.3-10.7,11.4
	c-4.4,3.1-9.2,5.5-14.3,7.1l-3.9,1.2c-1.3,0.4-2.6,0.6-3.9,1l-2,0.5l-1,0.2l-1,0.2l-4,0.7c-5.4,0.9-10.9,1.4-16.5,1.8
	c-2.8,0.3-5.6,0.2-8.4,0.4l-4.2,0.1h-4.2c-11.3,0.1-22.8-0.1-34.5-0.9c-11.8-0.7-23.5-2-35.1-4c-5.9-1-11.8-2.3-17.5-4
	c-5.7-1.7-11.6-3.9-16.6-7.6c-5.1-3.6-9.1-8.6-11.7-14.2c-0.6-1.4-1.1-2.9-1.6-4.4s-0.8-3-1.1-4.5l-0.7-4.6l-0.4-4.6
	c-0.4-6-0.6-12.1-0.6-18.1s0.1-12.1,0.3-18.1c0.5-12,1.4-24,2.8-35.8c0.4-3,0.7-5.9,1.1-8.8s0.9-5.9,1.2-8.7
	c0.6-5.8,1.1-11.7,1.7-17.4c1.2-11.5,3.4-22.8,6.6-33.9c3.3-10.8,7.9-21.2,14.3-30.2c6.1-8.9,14.1-16.3,23.3-21.9
	c8.8-5.1,18.5-8.6,28.5-10.4c2.4-0.6,4.8-0.7,7.2-1.1l1.8-0.2l0.9-0.1l0.9-0.1l3.6-0.3c2.4-0.2,4.7-0.4,7-0.4s4.6-0.2,6.9-0.1
	c8.7-0.1,17.4,0.7,26,2.3c7.8,1.4,15.3,3.9,22.4,7.4c6.3,3.1,12,7.2,16.9,12.2c4.1,4.2,7.6,9.1,10.3,14.3c2.2,4.2,3.9,8.7,5.2,13.3
	c1,3.4,1.7,6.8,2.3,10.3c0.5,2.8,0.8,5,1,6.4c0.1,0.7,0.2,1.2,0.3,1.6L337.3,212.1L337.3,212.1L337.3,212.1z"/>
<path class="st2" d="M300.2,228.3c-5.1-0.9-10.3-1.5-15.4-2.1c-2.6-0.3-5.2-0.5-7.8-0.8s-5.2-0.4-7.8-0.6s-5.2-0.3-7.8-0.4
	s-5.2-0.2-7.8-0.2s-5.2-0.1-7.8,0s-5.2,0.1-7.8,0.2s-5.2,0.3-7.8,0.5s-5.2,0.5-7.7,0.8l-3.9,0.5c-1.3,0.2-2.6,0.4-3.8,0.6
	s-2.6,0.4-3.8,0.7s-2.5,0.5-3.8,0.8l-3.8,0.9l-3.7,1.1c-1.2,0.3-2.4,0.8-3.7,1.2c-0.6,0.2-1.2,0.4-1.8,0.6l-1.8,0.7
	c-1.2,0.5-2.4,1-3.5,1.5l-1.7,0.8l-0.9,0.4l-0.8,0.5c-1.1,0.6-2.2,1.2-3.3,1.9l-3.2,2.1h-0.1l0,0c-1.3,0.9-2.5,1.9-3.6,3
	c-0.6,0.6-1.1,1.2-1.6,1.8s-1,1.2-1.5,1.9l-0.7,1l-0.6,1c-0.4,0.7-0.8,1.4-1.2,2.1c-0.7,1.4-1.4,2.9-1.9,4.4
	c-0.3,0.7-0.5,1.5-0.7,2.3c-0.1,0.4-0.2,0.8-0.3,1.2l-0.3,1.2c-0.4,1.6-0.6,3.2-0.9,4.8c-0.6,3.2-1.1,6.5-1.6,9.7
	c-1.1,6.5-2.1,13-3.1,19.5l-3,19.5l0,0l-1.6-0.1c0.1-2.7,0.2-5.4,0.4-8.1s0.4-5.4,0.6-8.1c0.4-5.4,1-10.7,1.6-16.1
	c1.3-10.7,2.9-21.4,5-32c1-5.3,2.2-10.6,3.4-15.8s2.7-10.4,4.3-15.6c1.6-5.2,3.4-10.3,5.4-15.3c2-5,4.4-9.9,7.1-14.7
	c2.7-4.8,6-9.2,9.7-13.2c3.8-4.1,8.6-7.1,13.8-9l3.9-1.1c1.3-0.4,2.7-0.6,4-1s2.7-0.6,4-0.8s2.7-0.5,4-0.7l4-0.6l4-0.5l2-0.2l2-0.2
	l4-0.3c5.4-0.3,10.8-0.5,16.2-0.3l4.1,0.1l4,0.2c2.7,0.1,5.4,0.5,8.1,0.7c1.4,0.1,2.7,0.4,4,0.6s2.7,0.4,4,0.6l4,0.8l2,0.4l2,0.5
	l3.9,1c1.3,0.4,2.6,0.9,3.9,1.3l1.9,0.6c0.6,0.2,1.3,0.5,1.9,0.8l3.8,1.6l0,0l0.5,0.2v0.6c-0.1,2.4-0.3,4.8-0.4,7.2l-0.4,7.2
	l-0.8,14.4c-0.3,4.8-0.5,9.6-0.7,14.4s-0.4,9.6-0.5,14.4v1L300.2,228.3z M299.5,226.3c0.3-4.5,0.6-8.9,0.9-13.4
	c0.3-4.8,0.6-9.6,0.8-14.4l0.7-14.4l0.3-7.2c0.1-2.4,0.2-4.8,0.3-7.2l0.5,0.8l0,0l-3.7-1.6c-0.6-0.2-1.2-0.5-1.8-0.8l-1.9-0.6
	c-1.3-0.4-2.5-0.9-3.8-1.2l-3.9-1l-1.9-0.5l-2-0.4l-3.9-0.8c-1.3-0.2-2.6-0.4-4-0.6s-2.6-0.4-4-0.5c-2.7-0.2-5.3-0.6-8-0.7l-4-0.2
	l-4-0.1c-5.4-0.1-10.7,0.1-16,0.4l-4,0.3l-2,0.2l-2,0.2l-4,0.5l-4,0.6c-5.3,0.8-10.5,2-15.6,3.5c-4.9,1.8-9.4,4.7-13,8.5
	c-3.6,3.9-6.8,8.1-9.4,12.8c-2.6,4.6-4.9,9.5-6.9,14.4c-2,5-3.8,10-5.3,15.1s-3,10.3-4.2,15.5s-2.4,10.5-3.4,15.7
	c-2,10.5-3.6,21.2-4.9,31.8c-0.7,5.3-1.3,10.7-1.8,16c-0.3,2.7-0.5,5.3-0.8,8c-0.3,2.7-0.5,5.4-0.7,8l-1.6-0.1l0,0l1.4-9.8l1.5-9.8
	c1-6.5,2-13,3.1-19.5c0.5-3.2,1.1-6.5,1.6-9.7c0.3-1.6,0.6-3.2,0.9-4.9l0.3-1.2c0.1-0.4,0.2-0.8,0.4-1.2c0.2-0.8,0.4-1.6,0.8-2.4
	c0.6-1.6,1.2-3.1,2-4.6c0.4-0.7,0.8-1.5,1.2-2.2l0.6-1.1l0.7-1c0.5-0.7,1-1.4,1.5-2s1.1-1.3,1.7-1.9c1.2-1.2,2.5-2.4,3.9-3.3
	l-0.1,0.1l3.3-2.2c1.1-0.7,2.3-1.3,3.4-2l0.9-0.5l0.9-0.4l1.8-0.9c1.2-0.6,2.4-1.1,3.6-1.6l1.8-0.8c0.6-0.2,1.2-0.4,1.9-0.7
	c1.2-0.4,2.5-0.9,3.7-1.3l3.8-1.1l3.8-0.9c1.3-0.3,2.6-0.6,3.8-0.8s2.6-0.5,3.9-0.7s2.6-0.4,3.9-0.6l3.9-0.5
	c2.6-0.3,5.2-0.6,7.8-0.8s5.2-0.3,7.8-0.5s5.2-0.2,7.8-0.2s5.2,0,7.8,0c2.6,0,5.2,0.1,7.8,0.3s5.2,0.3,7.8,0.4s5.2,0.4,7.8,0.6
	s5.2,0.5,7.8,0.8C289.9,224.9,294.7,225.5,299.5,226.3L299.5,226.3z"/>
<path d="M162.1,284.9l3.6-8.9c0.4-0.9-0.1-2-1-2.3c-0.2-0.1-0.4-0.1-0.7-0.1h-5.4c-1,0-1.8,0.8-1.8,1.8c0,0.2,0,0.4,0.1,0.6l3,8.8
	c0.2,0.7,0.1,1.4-0.4,1.9c-1.2,1.4-1.9,3.2-1.8,5.1c0,3.1,1.4,5.7,3.2,5.7s3.2-2.6,3.2-5.7c0.1-1.8-0.5-3.6-1.6-5
	C162,286.2,161.9,285.5,162.1,284.9z"/>
<polygon points="160.9,276.2 162,282.6 157.3,313.4 "/>
<path class="st1" d="M218.1,186.1c0,0-12.3-55.5-39-84.3s-50-44-64.3-43.4s-14.2,9.5-14,12.4s11.5,51.2,27.6,80.7
	s20.5,35.4,25.1,40.4s24.3,19.9,28.4,18.6c0,0,24.9,11.1,37.6-14.2C221.1,193.5,226.6,189.8,218.1,186.1z"/>
<path class="st3" d="M187.9,208.4c0,0,5.9-9,13.7-11.5c-2.5-5.3-4.5-10.9-5.8-16.7c-2.5-10.4-18.1-57.8-39.4-82.4
	s-26.6-27.6-45.2-29.6c0,0,2.6,32.9,11.6,50.2s18.3,46.9,28.9,58.8S187.9,208.4,187.9,208.4z"/>
<path class="st2" d="M203.8,196.2c-6.2-8.4-6.3-21.3-9.7-31.1c-4.8-13.8-10.7-27.2-17.6-40.1c-12.9-24.3-33.6-57.9-64.8-58.3
	c-0.7,0-2.8,0.4-2.8,1.4c0.2,30.2,14.2,59.5,26.9,86.2c5.6,12.4,13.5,23.7,23.2,33.2c8.3,7.8,18.8,13.2,26.8,21.4
	c1,1,5.3-0.3,4.3-1.2c-7.6-7.8-17.4-13.2-25.6-20.3c-10.9-9.6-18.8-22.5-24.9-35.5c-12.2-26-25.4-53.8-26.1-83
	c14.2,1.4,26.1,11.9,35.2,22.2c10.7,12.8,19.8,26.9,26.9,42c5.9,11.7,10.9,23.8,15,36.2c2.9,9,3,20.3,8.8,28.1
	C200.2,198.6,204.6,197.4,203.8,196.2z"/>
<path class="st1" d="M238.9,188c2.6-0.4,44.3,17.7,49.5,21.8c7.6,6,13.7,21.2,17,30c9.2,24.2,23.1,42.6,22.1,38.2
	c0,0,10.9,2.5,12.4-8.1s3.2-42.9,0.8-59.1s-8.7-47.8-25.3-56.3s-32.6-14.9-40.5-12.6s-13.2,7.9-18.9,16.4S240.5,177.4,238.9,188"/>
<path class="st3" d="M249,183.4c0,0,34.2,9.6,39.4,17.3l-7.4-38.6l-1.3-12.6c0,0-3.3-2.7-10.1,3S249,183.4,249,183.4z"/>
<path class="st2" d="M342.8,207.3c-2.6-16.1-6.3-34.2-16.5-47.3c-5.7-7.3-13.9-10.8-22.1-14.5c-7.9-3.5-17.5-7.9-26.4-7.4
	c-9.4,0.6-16.5,8.2-21.7,15.4c-6,8.4-13.5,16.9-17.2,26.7l-1.4,4.4c-5.9-1-11.9-1.1-17.9-0.4c-0.2-1.3-1.1-5.1-1.1-5.1
	c-4.8-18.9-11.9-37.2-21.1-54.4c-8.3-15.1-19.3-27.6-31.8-39.3c-11.4-10.7-24.5-21.8-39.6-27.1c-8.1-2.8-21.2-4-25.9,5.1
	c-3,5.8-0.2,12.8,1.3,18.6c7.8,31.6,20.1,61.9,36.4,90c4.4,7.5,8.7,15.3,14.8,21.6c5.1,5,10.8,9.4,16.8,13.2c2.7,2,2.8,1.9,8.7,5.2
	c2.6,1.4,5.5,2.2,8.5,2.3c0.7-0.9,2.7-2,1-2.8c-1.3-0.6-2.6-1.1-3.9-1.4c-4.2-0.9-13-7-16.1-9.2c-4.3-3-8.4-6.3-12.1-9.9
	c-4.3-4.7-8.1-9.9-11.2-15.5c-15.5-25.4-27.4-52.7-35.5-81.3c-2.1-7.3-5.2-15.5-5.8-23.1c-1.2-13.1,16.6-11.1,24.6-7.9
	c13.4,5.5,25.1,15.5,35.7,25.3c12.2,11.5,22.9,23.5,30.9,38.3c10,18.7,17.3,38.7,21.9,59.4c0.1,0.1,0.1,0.2,0.2,0.3
	c-0.1,1.3,0.8,2.6,2.1,2.4c16.1-2.7,34.3,3.1,49,8.9c2.8,1.1,3.1-2.9,0.8-3.8l0,0c-8.5-3.5-17.2-6.3-26.1-8.3
	c0.4-1.4,0.8-3.1,0.8-3.1c3.5-9.2,10.4-17,16.1-25c7.4-10.4,15.6-17.2,28.7-13.9c10.4,2.7,24.6,7.6,32.5,15.1
	c7,6.6,10.8,16.6,13.5,25.8c4.8,16.5,7,33.6,6.6,50.8c0,8.8-0.5,17.6-1.3,26.3c-0.6,6.8-2.2,14.8-10.9,13c-0.3-0.1-0.6-0.1-0.9,0
	c-1.1-1.4-2.2-3-3.1-4.5c-4.5-7.1-8.5-14.4-12.4-21.8c-11.9-22.5-20.7-46.5-26.5-71.4c-1.5-6.6-2.6-13.3-3.5-20.1
	c-0.2-2,0.2-7.3-1.3-8.6c-1.1-0.9-3.8-0.2-5,0.1c-13.7,3.9-22.2,24.2-27.6,35.3c-0.6,1.3,2.3,1,2.7,0.1c5-10.3,10.5-21.7,19-29.6
	c1.5-1.4,6.2-5.9,8.7-4.5c1.1,0.6,1.8,16.4,2.2,18.6c1.2,7.1,2.8,14.1,4.7,21c3.6,13,8.1,25.7,13.4,38.1
	c6.8,16.4,15.1,32.2,24.9,47.1c0.8,1.2,1.7,2.3,2.9,3.2c1.5,1.8,4.2,1.7,4.2,1.7h0.7c9.9,0.1,11.7-10.4,12.4-19.3
	C344.7,242.7,345.5,224.6,342.8,207.3z"/>
<path class="st5" d="M251.1,320.9c-12.7,5.1-27.3-1.3-32.6-14.4s0.8-27.8,13.6-32.9c7.7-3,16.4-2.1,23.1,2.6
	c-12.8-10.4-31.6-8.6-42,4.2s-8.6,31.6,4.2,42c12.8,10.4,31.6,8.6,42-4.2c3.7-4.5,6-10,6.6-15.7
	C264.5,310.7,258.9,317.7,251.1,320.9z"/>
<path class="st2" d="M250.8,320.4c-12.5,4.7-26.6-1.2-31.8-13.5c-5.1-12,0-26.4,11.7-32.2c7.9-3.8,17.3-3.1,24.6,1.9
	c0.4,0.3,0.3-0.6,0-0.7c-12.9-10.5-31.8-8.7-42.4,4.2c-3.7,4.5-6,10-6.6,15.8c-1,10,2.9,20,10.6,26.5c12.6,10.8,31.6,9.4,42.5-3.2
	c4-4.6,6.4-10.3,7.1-16.4c0-0.3-0.6-1.1-0.7-0.6C264.1,310.3,258.5,317.2,250.8,320.4c-0.3,0.1,0.2,1,0.5,0.8
	c7.8-3.3,13.5-10.2,15.1-18.5l-0.7-0.6c-1.7,16.3-16.4,28.1-32.7,26.4c-4.2-0.4-8.3-1.8-12-4c-8.9-5.3-14.3-15-14.3-25.3
	c0.1-16.4,13.6-29.6,30-29.4c6.7,0.1,13.2,2.4,18.4,6.6v-0.7c-6.7-4.6-15.3-5.6-22.9-2.9c-6.3,2.4-11.4,7.3-14,13.5
	c-5.1,12.6,0.1,27,12,33.6c6.5,3.5,14.2,3.9,21.1,1.2C251.7,321.1,251.2,320.3,250.8,320.4z"/>
<path class="st1" d="M223.8,294.3c-3.2,4-4.8,9-4.6,14.1c0.6,8.3,3.7,9.9,8.4,12.5c0,0,2.4,4.4,6.8,4.5c2,0,4.5-1.2,5.1-2.2
	c0,0,2.2,1.8,3.6,1.7c2.2-0.1,4.2-1.2,5.5-3c0.4,0.5,1.2,0.6,1.8,0.2c0.2-0.2,0.4-0.4,0.4-0.6c0,0,0.9,1.5,2,0.7
	c0.7-0.5,1.1-1.3,1.2-2.2c0,0,0.6,1.1,0.9,1.1s1.6-0.1,1.9-2.8s-3.5-2.9-3.8-2.8c0.8-2.6,1-5.3,0.5-7.9c1.1,0.3,2.2-0.4,2.4-1.4
	c0-0.1,0-0.1,0-0.2c0.5-3.9,0.5-7.9,0.2-11.8c-0.5-3.2-1.7-9.5-5-11.2s-6.5-3-8.1-2.5s-2.6,1.6-3.8,3.3s-3.1,3.9-3.4,6
	c-1.6-0.3-3.2-0.4-4.9-0.2c0,0-2.4-11.1-7.8-16.8s-10-8.8-12.8-8.7s-2.9,1.9-2.8,2.5s2.3,10.2,5.6,16.1s4.1,7.1,5,8.1
	S223,294.5,223.8,294.3z"/>
<path class="st2" d="M227.6,305.1c-1.1-1.1-2.8-1.5-4.2-0.9c-0.5,0.2-0.9,0.4-1.3,0.7c-0.3,0.2-0.2,0,0.1,0h-0.7
	c-0.3,0-0.5,0.2-0.5,0.5s0.2,0.5,0.5,0.5l0,0c0.5,0.1,1-0.1,1.4-0.4c1.2-1,3-0.9,4.1,0.3c0.2,0.2,0.5,0.1,0.6-0.1
	C227.8,305.5,227.8,305.3,227.6,305.1L227.6,305.1z"/>
<path class="st2" d="M241.9,302.9c0.5-0.7,1.2-1.2,2.1-1.3c0.9,0,1.8,0.3,2.6,0.8c0.4,0.2,0.8,0.2,1.2,0.2c0.3,0,0.5-0.2,0.5-0.5
	s-0.2-0.5-0.5-0.5c-0.3,0-0.6,0-0.9-0.2c-0.4-0.3-0.8-0.5-1.2-0.7c-0.7-0.3-1.5-0.3-2.3-0.1c-0.9,0.3-1.7,0.9-2.2,1.6
	C240.8,302.9,241.6,303.3,241.9,302.9L241.9,302.9L241.9,302.9z"/>
<circle class="st2" cx="233.1" cy="318.1" r="0.2"/>
<circle class="st2" cx="232.7" cy="320" r="0.2"/>
<circle class="st2" cx="233.8" cy="321.5" r="0.2"/>
<circle class="st2" cx="244.2" cy="317.2" r="0.2"/>
<circle class="st2" cx="244.9" cy="318.5" r="0.2"/>
<circle class="st2" cx="243.9" cy="320.1" r="0.2"/>
<path class="st2" d="M243,357.6v4.6c0.1,0.9-0.2,1.8-0.8,2.4c-0.5,0.4-1.2,0.7-1.9,0.6c-0.6,0-1.2-0.1-1.8-0.4l0.2-0.7
	c0.5,0.3,1,0.4,1.6,0.4c0.9,0.1,1.7-0.6,1.7-1.5c0-0.1,0-0.3,0-0.4v-0.6l0,0c-0.4,0.6-1,1-1.7,0.9c-1.3-0.1-2.3-1.2-2.3-2.5
	c0,0,0,0,0,0c0,0,0-0.1,0-0.1c-0.2-1.4,0.9-2.7,2.3-2.8h0.1c0.7,0,1.3,0.3,1.7,0.9l0,0v-0.8L243,357.6L243,357.6L243,357.6z
	 M242,359.8c0-0.1,0-0.3-0.1-0.4c-0.2-0.6-0.7-1-1.4-1c-0.9,0-1.6,0.8-1.6,2c-0.1,0.9,0.5,1.8,1.4,1.9h0.2c0.6,0,1.2-0.4,1.4-1
	c0.1-0.2,0.1-0.3,0.1-0.5L242,359.8L242,359.8z"/>
<path class="st2" d="M249.3,360.2c0.1,1.4-0.9,2.7-2.4,2.8c0,0,0,0,0,0h-0.3c-1.4,0-2.6-1.1-2.6-2.5c0-0.1,0-0.2,0-0.3
	c-0.1-1.4,0.9-2.7,2.4-2.8c0,0,0,0,0,0h0.3c1.4,0,2.6,1.1,2.6,2.5C249.3,360,249.3,360.1,249.3,360.2z M245.1,360.3
	c-0.2,0.9,0.3,1.8,1.2,2c0.9,0.2,1.8-0.3,2-1.2c0.1-0.3,0.1-0.5,0-0.8c0.2-0.9-0.3-1.8-1.2-2c-0.9-0.2-1.8,0.3-2,1.2
	C245,359.8,245,360,245.1,360.3L245.1,360.3z"/>
<path class="st2" d="M255.4,360.2c0.1,1.4-0.9,2.7-2.4,2.8c0,0,0,0,0,0h-0.3c-1.4,0-2.6-1.1-2.6-2.5c0-0.1,0-0.2,0-0.3
	c-0.1-1.4,0.9-2.7,2.4-2.8c0,0,0,0,0,0h0.3c1.4,0,2.6,1.1,2.6,2.5C255.4,360,255.4,360.1,255.4,360.2z M251.1,360.3
	c-0.2,0.9,0.3,1.8,1.2,2c0.9,0.2,1.8-0.3,2-1.2c0.1-0.3,0.1-0.5,0-0.8c0.2-0.9-0.3-1.8-1.2-2c-0.9-0.2-1.8,0.3-2,1.2
	C251.1,359.8,251.1,360,251.1,360.3L251.1,360.3z"/>
<path class="st2" d="M261.2,355.1v7.9h-0.9v-0.9l0,0c-0.4,0.7-1.1,1-1.9,1c-1.3-0.1-2.4-1.2-2.3-2.6c0-0.1,0-0.1,0-0.2
	c0-1.8,1.1-2.9,2.4-2.9c0.6,0,1.3,0.3,1.6,0.8l0,0v-3.2L261.2,355.1L261.2,355.1z M260.3,359.8c0-0.1,0-0.3,0-0.4
	c-0.1-0.7-0.7-1.1-1.4-1.1c-1,0-1.6,0.9-1.6,2.1s0.5,2,1.6,2c0.7,0,1.3-0.5,1.4-1.2c0-0.1,0-0.3,0-0.4L260.3,359.8L260.3,359.8
	L260.3,359.8z"/>
<path class="st2" d="M265.2,359v-1.4h0.8l0.1,0.9l0,0c0.4-0.6,1-1,1.8-1c0.7,0,1.9,0.4,1.9,2.3v3.2h-1v-3.1c0-0.9-0.3-1.6-1.2-1.6
	c-0.8,0-1.4,0.7-1.4,1.4v3.2h-1v-3.9L265.2,359z"/>
<path class="st2" d="M272.3,356.1c0,0.3-0.3,0.6-0.6,0.6s-0.6-0.3-0.6-0.6c0-0.3,0.2-0.6,0.6-0.6c0,0,0,0,0,0l0,0
	c0.3,0,0.6,0.2,0.6,0.5C272.3,356,272.3,356.1,272.3,356.1z M271.2,363v-5.3h1v5.3H271.2z"/>
<path class="st2" d="M278.2,357.6v4.6c0.1,0.9-0.2,1.8-0.8,2.4c-0.5,0.4-1.2,0.7-1.9,0.6c-0.6,0-1.2-0.1-1.8-0.4l0.2-0.7
	c0.5,0.3,1,0.4,1.6,0.4c0.9,0.1,1.7-0.6,1.7-1.5c0-0.1,0-0.3,0-0.4v-0.6l0,0c-0.4,0.6-1,1-1.7,0.9c-1.3-0.1-2.3-1.2-2.3-2.5
	c0,0,0,0,0,0c0,0,0-0.1,0-0.1c-0.2-1.4,0.9-2.7,2.3-2.8h0.1c0.7,0,1.3,0.3,1.7,0.9l0,0v-0.8L278.2,357.6L278.2,357.6L278.2,357.6z
	 M277.2,359.8c0-0.1,0-0.3-0.1-0.4c-0.2-0.6-0.7-1-1.4-1c-0.9,0-1.6,0.8-1.6,2c-0.1,0.9,0.5,1.8,1.4,1.9h0.2c0.6,0,1.2-0.4,1.3-1
	c0.1-0.2,0.1-0.3,0.1-0.5L277.2,359.8L277.2,359.8z"/>
<path class="st2" d="M279.7,355.1h1v3.3l0,0c0.2-0.3,0.4-0.5,0.7-0.7c0.3-0.2,0.6-0.3,1-0.3c0.7,0,1.9,0.4,1.9,2.3v3.2h-0.9v-3.1
	c0-0.9-0.3-1.6-1.2-1.6c-0.6,0-1.1,0.4-1.3,0.9c-0.1,0.1-0.1,0.3-0.1,0.5v3.2h-1L279.7,355.1L279.7,355.1L279.7,355.1z"/>
<path class="st2" d="M286.8,356v1.5h1.4v0.7h-1.4v2.9c0,0.7,0.2,1,0.7,1c0.2,0,0.4,0,0.6-0.1v0.7c-0.3,0.1-0.6,0.1-0.9,0.1
	c-0.4,0-0.7-0.1-1-0.4c-0.3-0.4-0.4-0.9-0.4-1.4v-2.9H285v-0.7h0.8v-1.3L286.8,356z"/>
<path class="st2" d="M291.6,359v-1.4h0.9v0.9l0,0c0.3-0.6,1-1,1.7-1c0.7,0,1.3,0.4,1.5,1.1l0,0c0.1-0.3,0.3-0.5,0.6-0.7
	c0.3-0.3,0.8-0.4,1.2-0.4c0.7,0,1.8,0.5,1.8,2.3v3.2h-0.9v-3c0-1-0.4-1.6-1.2-1.6c-0.5,0-1,0.4-1.1,0.9c0,0.2-0.1,0.3-0.1,0.5v3.2
	H295v-3.2c0.1-0.7-0.3-1.3-1-1.4c0,0,0,0,0,0h-0.1c-0.8,0.1-1.3,0.7-1.3,1.5v3.2h-0.9L291.6,359L291.6,359z"/>
<path class="st2" d="M305.6,360.2c0.1,1.4-0.9,2.7-2.4,2.8c0,0,0,0,0,0H303c-1.4,0-2.6-1.1-2.6-2.5c0-0.1,0-0.2,0-0.3
	c-0.1-1.4,0.9-2.7,2.4-2.8c0,0,0,0,0,0h0.2c1.4-0.1,2.6,1,2.6,2.4C305.6,360,305.6,360.1,305.6,360.2z M301.4,360.3
	c-0.2,0.9,0.3,1.8,1.2,2c0.9,0.2,1.8-0.3,2-1.2c0.1-0.3,0.1-0.5,0-0.8c0.2-0.9-0.3-1.8-1.2-2c-0.9-0.2-1.8,0.3-2,1.2
	C301.3,359.8,301.3,360,301.4,360.3L301.4,360.3z"/>
<path class="st2" d="M306.8,359v-1.4h0.9l0.1,0.9l0,0c0.4-0.6,1-1,1.8-1c0.7,0,1.9,0.4,1.9,2.3v3.2h-1v-3.1c0-0.9-0.3-1.6-1.2-1.6
	c-0.8,0-1.4,0.7-1.4,1.4v3.2h-1L306.8,359L306.8,359z"/>
<path class="st2" d="M313.9,356.1c0,0.3-0.3,0.6-0.6,0.6s-0.6-0.3-0.6-0.6c0-0.3,0.2-0.6,0.6-0.6c0,0,0,0,0,0l0,0
	c0.3,0,0.6,0.2,0.6,0.5C313.9,356,313.9,356.1,313.9,356.1z M312.8,363v-5.3h1v5.3H312.8z"/>
<path class="st2" d="M316.4,356v1.5h1.4v0.7h-1.4v2.9c0,0.7,0.2,1,0.7,1c0.2,0,0.4,0,0.6-0.1v0.7c-0.3,0.1-0.6,0.1-0.9,0.1
	c-0.4,0-0.7-0.1-1-0.4c-0.3-0.4-0.4-0.9-0.4-1.4v-2.9h-0.9v-0.7h0.8v-1.3L316.4,356z"/>
<path class="st2" d="M323.5,360.2c0.1,1.4-0.9,2.7-2.4,2.8c0,0,0,0,0,0h-0.3c-1.4,0-2.6-1.1-2.6-2.5c0-0.1,0-0.2,0-0.3
	c-0.1-1.4,0.9-2.7,2.4-2.8c0,0,0,0,0,0h0.3c1.4,0,2.5,1.1,2.6,2.5C323.6,360.1,323.5,360.1,323.5,360.2z M319.3,360.3
	c-0.2,0.9,0.3,1.8,1.2,2c0.9,0.2,1.8-0.3,2-1.2c0.1-0.3,0.1-0.5,0-0.8c0.2-0.9-0.3-1.8-1.2-2c-0.9-0.2-1.8,0.3-2,1.2
	C319.2,359.8,319.2,360,319.3,360.3L319.3,360.3z"/>
<path class="st2" d="M324.7,359.3v-1.7h0.9v1l0,0c0.2-0.7,0.8-1.1,1.5-1.2c0.1,0,0.2,0,0.3,0v0.9c-0.1,0-0.2,0-0.3,0
	c-0.7,0-1.3,0.6-1.3,1.2c0,0.1,0,0.3,0,0.5v2.9h-0.9L324.7,359.3L324.7,359.3L324.7,359.3z"/>
<path class="st2" d="M327.5,362.4c0-0.4,0.3-0.7,0.6-0.7l0,0c0.4,0,0.7,0.3,0.7,0.7c0,0.4-0.3,0.7-0.7,0.7
	C327.8,363.1,327.4,362.8,327.5,362.4L327.5,362.4L327.5,362.4z"/>
<path class="st3" d="M235.7,317.4c0.1,0.5,0.3,1,0.4,1.4c0.9,0.4,1.9,0.7,2.9,1c0.9-0.5,1.8-1.2,2.5-1.9c0-0.5-0.2-1-0.4-1.4
	c-0.8-0.9-2.1-1.4-3.3-1.2C236.7,315.2,235.7,316.2,235.7,317.4L235.7,317.4L235.7,317.4L235.7,317.4z"/>
<path class="st3" d="M225,293.9c0.7-1,1.6-1.8,2.7-2.3c-0.5-1.1-0.9-2.2-1.2-3.3c-0.5-2.1-3.6-11.5-7.9-16.5s-5.3-5.6-9-5.9
	c0,0,0.5,6.6,2.3,10s3.6,9.4,5.8,11.7C220,289.9,222.5,292,225,293.9z"/>
<path class="st2" d="M228.1,291.5c-1.2-1.7-1.3-4.2-1.9-6.2c-1-2.8-2.1-5.4-3.5-8c-2.6-4.8-6.7-11.5-13-11.6c-0.2,0-0.4,0.1-0.6,0.3
	c0,6,2.8,11.9,5.4,17.2c1.1,2.5,2.7,4.7,4.6,6.6c1.7,1.5,3.8,2.6,5.4,4.3c0.2,0.2,1.1-0.1,0.9-0.2c-1.5-1.6-3.5-2.6-5.1-4.1
	c-2.1-2-3.8-4.4-5-7.1c-2.5-5.3-5.2-11-5.2-16.9l-0.6,0.3c3.1,0,5.7,2.3,7.6,4.5c2.1,2.5,3.9,5.3,5.4,8.3c1.2,2.3,2.2,4.7,3,7.2
	c0.6,1.8,0.6,4.1,1.8,5.6C227.4,291.9,228.2,291.7,228.1,291.5L228.1,291.5L228.1,291.5z"/>
<path class="st3" d="M237.9,288.7c0,0,6.8,1.9,7.9,3.4l-1.5-7.7l-0.3-2.5c0,0-0.7-0.5-2,0.6S237.9,288.7,237.9,288.7z"/>
<path class="st2" d="M270.2,320.5c-4.2-1.4-8.6-2.2-13-2.3c-0.1-0.5-0.3-0.9-0.6-1.3c-0.1-0.1-0.2-0.3-0.3-0.4
	c-0.7-0.7-1.7-1.1-2.7-1.1c0.3-1.1,0.5-2.2,0.6-3.4c2.5-0.9,5.1-1.7,7.7-2.2c0.3-0.1,0.2-0.4-0.1-0.3c-2.6,0.5-5.1,1.2-7.6,2.2
	c0-1.1,0-2.1-0.2-3.2c2.1,0.1,2.4-2,2.6-3.8c0.4-3.5,0.3-7-0.1-10.5c-0.5-3.2-1.2-6.8-3.3-9.5c-1.2-1.3-2.7-2.3-4.4-2.9
	c-1.6-0.7-3.5-1.6-5.3-1.5s-3.3,1.6-4.3,3.1c-1.4,1.9-3.1,3.9-3.7,6.2c-0.8-0.1-1.5-0.2-2.3-0.2c-0.6,0-1.3,0-1.9,0.1
	c-1-4.1-2.5-8.1-4.5-11.8c-1.7-2.9-3.8-5.6-6.4-7.9c-2.3-2.1-4.9-4.4-7.9-5.4c-1.6-0.6-4.2-0.8-5.2,1c-0.6,1.1,0,2.6,0.3,3.7
	c1.6,6.3,4,12.4,7.3,18c0.8,1.6,1.8,3,3,4.3c1,1,2.2,1.9,3.4,2.6c0.5,0.4,1.1,0.7,1.7,1c-3.9,4.9-5,11.9-3.6,17.9
	c0.2,0.8,0.5,1.6,0.8,2.3c-4.2-0.2-8.5,0-12.7,0.5c-0.3,0-0.4,0.4,0,0.4c4.3-0.5,8.7-0.7,13-0.5c0.7,1.3,1.6,2.5,2.8,3.4
	c-0.9,0.1-1.9,0.3-2.8,0.6c-0.3,0.1-0.2,0.5,0.1,0.4c1-0.3,2.1-0.5,3.1-0.6c0.2,0.2,0.4,0.3,0.7,0.5c0.8,0.5,1.9,0.9,2.6,1.5
	c-5.9,2.1-11.6,6.2-14.3,11.8c-0.1,0.3,0.4,0.3,0.5,0.1c2.6-5.6,8.3-9.6,14.1-11.6v0.1c0.7,0.7,1.2,1.7,2,2.4
	c2.8,2.5,7.7,3.1,10.3,0c1,0.9,2.4,1.5,3.8,1.5c2.1-0.2,4-1.2,5.3-2.8c0.7,0.5,1.6,0.4,2.1-0.3l0,0c1.2,1.2,2.6,0.3,3.2-1.2
	c0.3,0.4,0.8,0.5,1.3,0.4c1.2-0.3,1.6-1.7,1.7-2.8c0-0.2,0-0.4,0-0.6c4.3,0.2,8.5,0.9,12.5,2.3C270,320.8,270.4,320.5,270.2,320.5z
	 M254.2,316.5c0.6,0.1,1.7,0.4,1.9,1.1c0,0.2,0.1,0.3,0.3,0.3c0,0.1,0,0.2,0,0.3c-2.7,0-5.4,0.2-8,0.7c0.3-0.6,0.7-1,1.2-1.4
	c0.8,0,1.6,0.1,2.4,0.4c0.2,0.1,0.7-0.2,0.4-0.3c-0.7-0.3-1.5-0.4-2.3-0.4C251.3,316.3,252.8,316.1,254.2,316.5L254.2,316.5
	L254.2,316.5z M248.7,315c1.4-1,3-1.9,4.6-2.6c-0.1,1-0.3,2-0.6,3c-1.3,0-2.5,0.3-3.6,1.1l-0.1,0.1C249,316.1,248.8,315.5,248.7,315
	L248.7,315L248.7,315z M224.3,318.9c-1-0.7-1.9-1.5-2.6-2.5c-0.2-0.2-0.3-0.5-0.4-0.7c1.3,0.1,2.6,0.3,3.8,0.5
	c0.6,0.1,1.2,0.2,1.9,0.4c-0.1,0.7-0.1,1.5-0.1,2.2C226.1,318.8,225.2,318.9,224.3,318.9L224.3,318.9z M225.4,319.7l-0.6-0.4
	c0.7-0.1,1.4-0.1,2.1-0.1c0.1,0.5,0.2,1,0.3,1.5C226.8,320.3,226.1,320,225.4,319.7L225.4,319.7z M243.4,324.8
	c-1.3-0.1-2.5-0.6-3.5-1.5l-0.5-2.9c0.2-0.1,0.3-0.2,0.5-0.4c0.8-0.4,1.4-0.9,1.9-1.6c0.6-1.4-1.1-2.6-2.2-2.9
	c-1.6-0.5-4.5,0.2-4.2,2.5c0,0.7,0.3,1.3,0.8,1.7c0.8,0.4,1.7,0.7,2.6,0.9l0,0l0.5,2.8c-1.7,2.2-5.4,2.6-7.8,1.3
	c-1.3-0.8-2.5-1.9-3.3-3.2l-0.1-0.1c0.8-0.2,1.5-0.4,2.2-0.6c0.3-0.1,0.2-0.5-0.1-0.4c-0.7,0.2-1.5,0.4-2.2,0.6
	c-0.2-0.6-0.4-1.1-0.5-1.7c0.6,0,1.1,0.1,1.6,0.2c0.3,0,0.6-0.4,0.2-0.4c-0.6-0.1-1.2-0.2-1.9-0.2c-0.1-0.7-0.1-1.4,0-2.1
	c0.9,0.2,1.8,0.6,2.6,1.1c0.2,0.1,0.7-0.1,0.4-0.3c-0.9-0.6-1.9-1-2.9-1.2v-0.2c0.3-2.6,0.8-5.2,1-7.8c0.4-2.4,0-5-1.3-7.1
	c-0.7-1.2-1.6-2.3-2.6-3.4c-0.1-0.1-0.6,0.1-0.5,0.2c1.1,1.1,2,2.3,2.8,3.7c1.3,2.4,1.3,4.5,1,7.2c-0.3,2.4-0.6,4.8-0.9,7.3
	c-0.5-0.1-1-0.2-1.5-0.3c-1.5-0.3-3-0.5-4.5-0.6c-2-3.9-1.9-9.1-0.7-13c0.7-2.6,2-5.1,3.7-7.2c0.1-0.1,0.1-0.3,0-0.5
	c-0.1-0.2-0.3-0.3-0.4-0.2c-0.9,0.1-2.2-1.1-2.8-1.5c-0.9-0.6-1.7-1.3-2.4-2c-0.9-0.9-1.6-2-2.2-3.1c-3.1-5.1-5.4-10.5-7-16.2
	c-0.5-1.5-0.9-3.1-1.2-4.6c-0.2-2.6,3.3-2.2,4.9-1.6c2.7,1.2,5.1,3,7.1,5.1c2.5,2.2,4.5,4.8,6.2,7.6c2,3.7,3.5,7.7,4.4,11.8
	c0,0.2,0.3,0.4,0.5,0.4c1.2-0.1,2.4-0.1,3.5,0c0.4,0,0.8,0.1,1.2,0.2c1.7,0.4,3.4,1,5.1,1.7c0.6,0.2,0.6-0.6,0.2-0.8
	c-1.5-0.6-3.1-1.1-4.6-1.5c0.6-2.1,2.1-3.8,3.4-5.6c1.5-2.1,3.1-3.4,5.7-2.8c2.1,0.5,4.9,1.5,6.5,3c1.3,1.5,2.2,3.2,2.7,5.1
	c1,3.3,1.4,6.7,1.3,10.1c0,1.8-0.1,3.5-0.2,5.3c-0.1,1.3-0.4,2.9-2.1,2.6c-0.3-0.4-0.6-0.8-0.9-1.2c-0.9-1.4-1.7-2.8-2.5-4.3
	c-2.4-4.5-4.1-9.3-5.3-14.2c-0.3-1.3-0.5-2.7-0.7-4c0-0.6-0.1-1.2-0.2-1.7c-0.3-0.1-0.7-0.1-1,0c-2.8,0.8-4.4,4.8-5.6,7
	c-0.1,0.3,0.4,0.2,0.5,0c0.9-2.2,2.2-4.2,3.8-5.9c0.3-0.3,1.2-1.2,1.7-0.9c0.2,1.2,0.4,2.5,0.4,3.7c0.2,1.4,0.6,2.8,0.9,4.2
	c0.7,2.6,1.6,5.1,2.7,7.6c1.4,3.3,3,6.4,5,9.4c0.1,0.2,0.3,0.4,0.4,0.5c0,0.1,0,0.1,0,0.2c0.3,1.3,0.3,2.7,0.2,4
	c-1.7,0.7-3.3,1.5-4.8,2.6c-1.1-3.5-3-6.6-5.7-9c-0.1-0.1-0.6,0.1-0.5,0.2c2.7,2.5,4.7,5.7,5.7,9.2c-0.6,0.5-1.2,0.9-1.8,1.5
	c-0.2,0.2,0.3,0.3,0.4,0.1c0.4-0.4,0.9-0.8,1.4-1.2c0.1,0.6,0.3,1.1,0.4,1.7l-0.2,0.2c-0.7,0.1-1.3,0.3-1.9,0.6
	c-0.3,0.1,0,0.4,0.2,0.2c0.5-0.2,0.9-0.4,1.4-0.5c-0.3,0.5-0.6,1-0.7,1.5l-1.3,0.3c-0.4,0.1-0.3,0.3,0.1,0.2s0.8-0.2,1.2-0.3
	c-0.3,1.1,0.1,2.2,0.8,3C247,323.7,245.3,324.6,243.4,324.8L243.4,324.8L243.4,324.8z M240.6,316.8c0.2,0.2,0.4,0.4,0.5,0.7
	c0.4,0.9-0.2,1.2-0.9,1.8c-0.4,0.2-0.7,0.5-1.1,0.7H239c-0.2-0.1-0.5-0.2-0.7-0.2c-0.6-0.1-1.1-0.3-1.6-0.6
	c-0.4-0.4-0.6-0.9-0.6-1.4C235.8,315.4,239.4,315.8,240.6,316.8L240.6,316.8L240.6,316.8z M239.2,319.9l15.3,0.3
	c-0.1-0.2-0.7-0.5-0.8-0.1c-0.2,1.1-1.4,2.9-2.4,1.4c-0.1-0.2-0.4-0.2-0.6-0.1l-0.1,0.1c-0.2,0.5-0.8,0.8-1.3,0.6c0,0,0,0-0.1,0
	L249,322l0,0c-0.9-0.7-1.2-1.9-0.7-2.9c2.7-0.5,5.4-0.8,8.2-0.7c0,1.5-1.1,3.6-2,1.9l0,0L239.2,319.9z"/>
<path class="st2" d="M200.6,349.2c0,1-0.2,1.9-0.5,2.8c-0.3,0.8-0.9,1.6-1.5,2.2c-0.7,0.6-1.5,1.1-2.4,1.5c-1,0.4-2,0.5-3.1,0.5
	c-1.2,0-2.4-0.2-3.6-0.5c-1.2-0.4-2.2-1.1-3.1-1.9l1.8-2.2c0.6,0.7,1.4,1.3,2.2,1.7c0.8,0.4,1.8,0.6,2.7,0.6c0.8,0,1.6-0.1,2.4-0.4
	c0.6-0.2,1.1-0.6,1.5-1.1c0.4-0.4,0.6-1,0.8-1.5c0.1-0.6,0.2-1.1,0.2-1.7v-2h-0.1c-0.5,0.8-1.2,1.5-2,1.9c-0.8,0.4-1.8,0.6-2.7,0.6
	c-1,0-1.9-0.2-2.8-0.5c-0.8-0.3-1.6-0.8-2.2-1.5c-0.6-0.6-1.1-1.4-1.4-2.2c-0.4-0.9-0.5-1.8-0.5-2.8c0-0.9,0.2-1.9,0.5-2.8
	c0.3-0.8,0.8-1.6,1.4-2.3c0.6-0.7,1.4-1.2,2.2-1.5c0.9-0.4,1.9-0.6,2.9-0.5c0.9,0,1.8,0.2,2.7,0.6c0.8,0.4,1.5,1,2.1,1.7h0v-1.9h2.6
	L200.6,349.2L200.6,349.2z M193.6,337.7c-0.6,0-1.3,0.1-1.9,0.4c-0.5,0.2-1,0.6-1.4,1c-0.4,0.4-0.7,0.9-0.9,1.5
	c-0.2,0.6-0.3,1.3-0.3,1.9c-0.1,1.2,0.4,2.4,1.2,3.3c1.9,1.7,4.7,1.7,6.6,0c0.8-0.9,1.3-2.1,1.2-3.3c0-0.7-0.1-1.3-0.3-1.9
	c-0.2-0.6-0.5-1.1-0.9-1.5c-0.4-0.4-0.9-0.8-1.4-1C194.8,337.8,194.2,337.7,193.6,337.7L193.6,337.7z"/>
<path class="st2" d="M203.9,342.5c0-1,0.2-1.9,0.6-2.8c1.6-3.7,5.9-5.4,9.6-3.8c1.7,0.7,3.1,2.1,3.8,3.8c0.4,0.9,0.6,1.8,0.6,2.8
	c0,1.9-0.7,3.7-2.1,5.1c-0.7,0.7-1.4,1.2-2.3,1.5c-2.7,1.1-5.9,0.5-8-1.5C204.6,346.2,203.8,344.4,203.9,342.5z M206.6,342.5
	c0,0.7,0.1,1.3,0.3,1.9c0.2,0.6,0.5,1.1,0.9,1.5c0.4,0.4,0.8,0.8,1.4,1c1.2,0.5,2.5,0.5,3.7,0c0.5-0.2,1-0.6,1.4-1
	c0.4-0.4,0.7-0.9,0.9-1.5c0.4-1.2,0.4-2.6,0-3.8c-0.2-0.6-0.5-1.1-0.9-1.5c-0.4-0.4-0.9-0.8-1.4-1c-1.2-0.5-2.5-0.5-3.7,0
	c-0.5,0.2-1,0.6-1.4,1c-0.4,0.4-0.7,0.9-0.9,1.5C206.7,341.2,206.6,341.8,206.6,342.5L206.6,342.5L206.6,342.5z"/>
<path class="st2" d="M221.6,335.7h2.6v2.1h0.1c0.3-0.8,0.9-1.4,1.7-1.8c0.9-0.5,1.8-0.7,2.8-0.7c0.6,0,1.3,0.1,1.9,0.3
	c0.6,0.2,1.1,0.5,1.6,0.9c0.5,0.5,0.8,1,1.1,1.6c0.3,0.7,0.4,1.5,0.4,2.3v8.8H231v-8c0-0.6-0.1-1.1-0.3-1.6
	c-0.1-0.4-0.4-0.8-0.7-1.1c-0.3-0.3-0.6-0.5-1-0.6c-0.4-0.1-0.8-0.2-1.2-0.2c-0.5,0-1,0.1-1.5,0.3c-0.5,0.2-0.9,0.5-1.2,0.8
	c-0.4,0.4-0.6,0.9-0.8,1.4c-0.2,0.6-0.3,1.3-0.3,2v7h-2.6L221.6,335.7L221.6,335.7z"/>
<path class="st2" d="M237.6,335.7h2.6v13.6h-2.6V335.7z"/>
<path class="st2" d="M244.2,335.7h2.4v2.1h0.1c0.1-0.3,0.2-0.5,0.4-0.7c0.3-0.3,0.6-0.6,0.9-0.8c0.4-0.3,0.9-0.5,1.3-0.7
	c0.5-0.2,1.1-0.3,1.7-0.3c0.9,0,1.8,0.2,2.6,0.6c0.7,0.5,1.3,1.1,1.7,1.9c0.4-0.8,1.1-1.5,1.8-1.9c0.7-0.4,1.6-0.6,2.4-0.6
	c0.9,0,1.8,0.1,2.6,0.5c0.6,0.3,1.2,0.8,1.6,1.4c0.4,0.6,0.7,1.2,0.8,1.9c0.1,0.7,0.2,1.5,0.2,2.2v8h-2.6v-7.6c0-0.5,0-1-0.1-1.5
	c-0.1-0.4-0.2-0.9-0.4-1.3c-0.2-0.4-0.5-0.7-0.9-0.9c-1.4-0.6-3.1-0.3-4.2,0.8c-0.6,0.9-0.9,1.9-0.8,3v7.5h-2.6v-7.1
	c0-0.6,0-1.2-0.1-1.8c-0.1-0.5-0.2-1-0.4-1.4c-0.2-0.4-0.5-0.7-0.9-0.9c-0.5-0.2-1-0.4-1.5-0.3c-0.5,0-0.9,0.1-1.3,0.3
	c-0.4,0.2-0.8,0.5-1.1,0.8c-0.4,0.4-0.6,0.9-0.8,1.4c-0.2,0.6-0.3,1.3-0.3,2v7.1h-2.6L244.2,335.7L244.2,335.7z"/>
<path class="st2" d="M267.9,342.5c0-1,0.2-1.9,0.6-2.8c1.6-3.7,5.9-5.4,9.6-3.8c1.7,0.7,3.1,2.1,3.8,3.8c0.4,0.9,0.6,1.8,0.6,2.8
	c0,1.9-0.7,3.7-2.1,5.1c-0.7,0.7-1.4,1.2-2.3,1.5c-2.7,1.1-5.9,0.5-8-1.5C268.7,346.2,267.9,344.4,267.9,342.5z M270.7,342.5
	c0,0.7,0.1,1.3,0.3,1.9c0.2,0.6,0.5,1.1,0.9,1.5c0.4,0.4,0.9,0.8,1.4,1c1.2,0.5,2.5,0.5,3.7,0c0.5-0.2,1-0.6,1.4-1
	c0.4-0.4,0.7-0.9,0.9-1.5c0.4-1.2,0.4-2.6,0-3.8c-0.2-0.6-0.5-1.1-0.9-1.5c-0.4-0.4-0.9-0.8-1.4-1c-1.2-0.5-2.5-0.5-3.7,0
	c-0.5,0.2-1,0.6-1.4,1c-0.4,0.4-0.7,0.9-0.9,1.5C270.8,341.2,270.7,341.8,270.7,342.5L270.7,342.5L270.7,342.5z"/>
<polygon class="st1" points="198.1,207.3 287.8,207 291.7,213.2 211,214.7 199.1,214.1 "/>
</svg>
