<svg id="Ebene_3" data-name="Ebene 3" xmlns="http://www.w3.org/2000/svg" width="450" height="450" viewBox="0 0 450 450"><defs><style>.cls-1{fill:#bcbebe;}.cls-2{fill:#fff;}.cls-3,.cls-6{fill:#666;}.cls-4{fill:#1d1d1b;}.cls-5{fill:none;stroke:#fff;stroke-width:2px;}.cls-5,.cls-6{stroke-miterlimit:10;}.cls-6{stroke:#1d1d1b;}.cls-7{fill:#dec0ca;}</style></defs><title>gonimo-Vorteile</title><path class="cls-1" d="M308.21,222s13.25-1.25,21.25,0a88.52,88.52,0,0,1,18.25-18,16.53,16.53,0,0,1-2.25-12.5c1.5-7.5,6.75-6.75,9.5-4,0,0,12-13.25,24.75-9.5s13.75,17.25,10,23.5-12,15.25-28.75,14c0,0-21.75,17.25-25,19.75s-10.75,2.25-10.75,2.25,5.33,4.08,8.5,12.66c3.34,9.05-1.25,19.09-1.25,19.09l23,17.5,34.75-21.25s3-20.25,15.25-26.25,13.5,3.5,13.5,3.5,12.75-6.42,20,7.41-4.75,23.59-8.75,26.59-52.5,18-68,31.5-18.75-2.5-19.75-5.25-6.75-13.25-18.25-19.75c0,0-8,7.75-16,6.25,0,0-6.75,26.5-12.75,27.25s-45-12-45-12-7.75-4-25.5,17.25c0,0-1.5,19-15.75,25S177,342,186,325.25c0,0,3-6.25,14-13.5,0,0,24.5-17,31-22s12.25-11.75,16.25-9.25,27,17,32.25,17.25a53.69,53.69,0,0,1,2-12.5s-3.75,0-9.25-3.25a4.92,4.92,0,0,1-6.14-1s-1.86,4.13-6.86,2.5-9.75-6.25-9.62-14.5,5.59-9.88,9.3-10.91c0.32,0.62-2.67-6.76-7.38-30.84,0,0-15.79,7.24-18.79,7.49,0,0,3.75,8.75,3.75,14.25,0,0,9.16-2.18,11.75,6.25s-5,11-6.25,11.5a12.87,12.87,0,0,1-10.25,12.75c-10.75,2.75-17.25-2.25-18.25-12.25s5.75-17.09,5.75-17.09-4.75-13.91-5.5-15.91,0.25-4.5,4.75-6.25S247,215,247,215s-1.75-6.25-3.75-7.5-23.5-5.17-31.5-25c0,0-1.75-9.25-6.25-8-7.78,2.16-75.75,8.75-113-25.5,0,0,14.36-9.74,26.61-13.49,0,0-17.61-11.26-21.36-14,0,0,39.25-42,129.75,16,0,0,25.25-9.75,54.25,13.75,0,0,8.07,6.65,11.25,9,3.83,2.83,9.59,5.8,9.67,9a7.71,7.71,0,0,1-1.24,4.63s3.08,6.37,3.08,11.12-1.25,18.5-28,19C276.46,204,305,218.25,308.21,222Z"/><path class="cls-2" d="M272.21,282c5.17-3.44,2.07-11.08,1.36-14.38a4.17,4.17,0,0,0-4-3.3c-0.71-7.07-7.48-5.7-7.48-5.7s-9.16-2.95-12.14,7.46c-2.76,9.64,7.15,20.49,13.2,17.14a10.19,10.19,0,0,0,2.94-2.23S269.29,283.94,272.21,282Z"/><path d="M244.11,161.67l14.35,3.44,0.64,0.15-0.48.75a8,8,0,0,1-1.47,1.62,13.46,13.46,0,0,1-1.72,1.24,20.7,20.7,0,0,1-1.86,1,12,12,0,0,1-2,.78l-0.55-.83a12,12,0,0,1,1.52-1.55,20.78,20.78,0,0,1,1.68-1.31,13.45,13.45,0,0,1,1.82-1.09,8,8,0,0,1,2.07-.71l0.16,0.9-14.35-3.44Z"/><path class="cls-3" d="M158.69,312.5s-4.37-.07-10.92-0.26l-11.19-.38-12.82-.55c-4.37-.17-8.73-0.43-12.82-0.64-2-.12-4-0.2-5.9-0.33L99.75,310c-3.27-.2-6-0.43-7.9-0.57l-3-.25,0-1,3,0c1.91,0,4.64.07,7.92,0.18l5.29,0.16c1.88,0,3.85.15,5.9,0.23,4.09,0.18,8.46.33,12.82,0.58L136.66,310l11.18,0.69c6.54,0.44,10.9.78,10.9,0.78Z"/><path class="cls-3" d="M14.91,290.12l27.41,1.58,60.29,3.76,16.36,1,15.84,1c10.27,0.68,19.86,1.33,28.08,1.93s15.06,1.1,19.85,1.47l7.53,0.58-0.06,1-7.54-.4c-4.8-.25-11.65-0.61-19.88-1.11s-17.81-1.06-28.09-1.71l-15.84-1-16.35-1.1L42.23,293.1l-27.39-2Z"/><path class="cls-3" d="M217.82,285.75l-24.76-2.61-54.44-5.95c-9.9-1.06-19.79-2.19-29.07-3.25L84.21,271c-7.42-.83-13.6-1.59-17.92-2.1l-6.8-.81,0.11-1,6.81,0.7c4.33,0.45,10.53,1.07,17.95,1.89l25.37,2.75c9.28,1,19.18,2.08,29.07,3.22l54.41,6.17,24.72,2.9Z"/><path d="M127.23,208.17s6.84,0.31,17.1.58l8.29,0.19,9.25,0.14,9.89,0.06,10.21-.06c3.42-.07,6.84-0.08,10.21-0.2s6.68-.17,9.88-0.36,6.3-.28,9.23-0.52,5.7-.39,8.24-0.69,4.89-.48,6.93-0.83l2.88-.43,1.28-.19c0.4-.07.78-0.17,1.15-0.25l4.56-1,0.27,1L232,206.63c-0.37.08-.75,0.18-1.16,0.26l-1.29.2-2.9.45c-2.07.36-4.42,0.6-7,.87s-5.34.51-8.28,0.72-6,.38-9.26.54-6.53.23-9.9,0.34-6.8.11-10.23,0.18l-10.23,0-9.9-.08L152.6,210l-8.29-.21c-10.27-.29-17.12-0.62-17.12-0.62Z"/><ellipse class="cls-3" cx="100.81" cy="209.63" rx="26.33" ry="14.66"/><path class="cls-4" d="M75.46,209.54L75.62,211c0.14,0.39.23,0.84,0.46,1.4l0.44,0.9a10.87,10.87,0,0,0,.63,1,15.42,15.42,0,0,0,4.48,4A29.14,29.14,0,0,0,89,221.33a44.2,44.2,0,0,0,9.48,1.5c0.84,0,1.75.08,2.57,0.08s1.84,0,2.73-.07a43.84,43.84,0,0,0,5.43-.64,32.28,32.28,0,0,0,10.69-3.83,16.51,16.51,0,0,0,4.35-3.67l0.79-1.15,0.61-1.24c0.14-.43.26-0.87,0.4-1.31,0-.22,0-0.45.08-0.68l0-.34,0-.17v-0.13s0-.11,0,0l-0.12-1.53-0.34-1.26-0.57-1.29-0.76-1.21a16.77,16.77,0,0,0-4.29-3.91,31.41,31.41,0,0,0-10.79-4.17,42.32,42.32,0,0,0-10.92-.81c-0.88,0-1.72.14-2.56,0.21s-1.66.23-2.48,0.34a42,42,0,0,0-4.6,1.11,28.14,28.14,0,0,0-7.42,3.44A15.91,15.91,0,0,0,77,204.86a11,11,0,0,0-.6,1L76,206.8c-0.22.59-.3,1.11-0.42,1.53l-0.09,1.3v-0.09Zm-2,.09L73.67,208a16.65,16.65,0,0,1,.58-1.87L74.78,205a12.75,12.75,0,0,1,.75-1.15,17.08,17.08,0,0,1,5-4.5,31.2,31.2,0,0,1,7.91-3.3,43.87,43.87,0,0,1,4.76-1c0.83-.11,1.67-0.25,2.54-0.34s1.75-.16,2.64-0.2a49.93,49.93,0,0,1,11.17.72,33.35,33.35,0,0,1,11.31,4.11,18.23,18.23,0,0,1,4.83,4.11l0.93,1.36c0.26,0.49.49,1,.73,1.5s0.34,1.13.49,1.7l0.17,1.53a10.38,10.38,0,0,1-2.15,6.39,18.61,18.61,0,0,1-4.77,4.35,32.62,32.62,0,0,1-11.41,4.45,46.22,46.22,0,0,1-5.81.81c-1,.08-1.85.08-2.76,0.13s-1.87,0-2.79,0a41.77,41.77,0,0,1-10.1-1.7,30.32,30.32,0,0,1-7.94-3.65,17.69,17.69,0,0,1-5-4.77,13,13,0,0,1-.72-1.2l-0.5-1.14a15.47,15.47,0,0,1-.53-2l-0.11-1.47v-0.09Z"/><ellipse class="cls-2" cx="100.88" cy="209.67" rx="2.81" ry="1.4"/><polyline class="cls-5" points="115.71 210.33 100.88 209.67 103.21 214"/><polygon class="cls-6" points="122.85 217.75 129.54 222.5 132.38 219 126.04 214 122.85 217.75"/><polygon class="cls-6" points="135.06 196.07 128.44 189.26 126.17 191.47 128.32 193.68 121.89 199.93 124.09 202.21 130.53 195.95 132.79 198.28 135.06 196.07"/><path class="cls-2" d="M146.71,272s1-7.22,3.5-9.5c3-2.71,10.84-7.75,24.75,4.75,0,0,9.5-1.25,13,9s2.5,17.75,0,20.25-5.5,3.75-11.5,0c0,0,1.5,12.5-3.5,18s-12.25-.25-14.25-2.5c0,0-2.75,9-9,10s-17.75-8.75-9.5-22.5c0,0-11.5,2.25-7.5-14.25S146.71,272,146.71,272Z"/><path d="M146.27,271.42c0.05-.64.11-1.27,0.22-1.9,0.15-.8.3-1.6,0.52-2.38a21.63,21.63,0,0,1,.81-2.34,9.91,9.91,0,0,1,1.29-2.24,10.65,10.65,0,0,1,1.94-1.71,14,14,0,0,1,2.19-1.26,13.89,13.89,0,0,1,2.4-.82l1.25-.23c0.42,0,.84-0.06,1.26-0.09a9,9,0,0,1,1.26,0,7.33,7.33,0,0,1,1.24.13l1.23,0.22c0.4,0.1.79,0.23,1.19,0.34a17.72,17.72,0,0,1,2.31.85,30.49,30.49,0,0,1,6.23,3.77c0.64,0.49,1.29,1,1.88,1.51l1.81,1.71h-0.4a23.07,23.07,0,0,1,3.32,0,14.31,14.31,0,0,1,3.19.84,12.27,12.27,0,0,1,2.85,1.7l0.65,0.52,0.58,0.6c0.19,0.21.39,0.4,0.57,0.62l0.49,0.67c0.16,0.23.34,0.45,0.49,0.68l0.41,0.73a9.46,9.46,0,0,1,.73,1.49c0.2,0.51.45,1,.61,1.54l0.5,1.51c0.3,1,.61,2.08.85,3.13s0.45,2.11.6,3.19a29.51,29.51,0,0,1,.3,3.24,25,25,0,0,1-.08,3.29,17.39,17.39,0,0,1-.64,3.29,8,8,0,0,1-1.73,3.1,9.56,9.56,0,0,1-2.81,2,6.73,6.73,0,0,1-3.53.51,10.73,10.73,0,0,1-3.25-1,17.28,17.28,0,0,1-2.79-1.71h0l0.76-.48a42.22,42.22,0,0,1,.32,4.45c0,0.74,0,1.49,0,2.23s-0.08,1.49-.16,2.23-0.18,1.49-.32,2.23a20.93,20.93,0,0,1-.52,2.21,16.67,16.67,0,0,1-.8,2.15,6.54,6.54,0,0,1-.52,1,10.94,10.94,0,0,1-.61,1l-0.73.94,0,0.06,0,0h0l-0.05.05h0l-0.1.09-0.2.19-0.4.38a6,6,0,0,1-1,.73,6.7,6.7,0,0,1-2.29.93,5.15,5.15,0,0,1-1.21.15,5.94,5.94,0,0,1-1.21,0,7.06,7.06,0,0,1-1.17-.21,13.11,13.11,0,0,1-4.19-1.94,16.71,16.71,0,0,1-1.8-1.39,15,15,0,0,1-1.59-1.63h0l0.85-.19a18.93,18.93,0,0,1-.93,2.68,17.74,17.74,0,0,1-1.3,2.53,15.83,15.83,0,0,1-1.7,2.33,11.38,11.38,0,0,1-2.26,1.91l-0.65.39c-0.22.12-.46,0.21-0.7,0.31a7,7,0,0,1-1.46.47l-0.19,0-0.09,0,0,0.08s0.08,0.08-.1.08h-1.06a13.9,13.9,0,0,1-1.58-.22c-0.51-.11-1-0.3-1.45-0.44s-0.9-.41-1.35-0.61a13.25,13.25,0,0,1-2.44-1.63,8.14,8.14,0,0,1-1.08-1c-0.33-.36-0.69-0.69-1-1.08l-0.87-1.17c-0.27-.4-0.49-0.84-0.72-1.27-0.11-.22-0.24-0.42-0.34-0.65l-0.26-.68a12.2,12.2,0,0,1-.48-1.38,15.5,15.5,0,0,1-.38-5.75,7.06,7.06,0,0,1,.26-1.41l0.34-1.39c0.33-.89.68-1.77,1-2.64l1.37-2.46h0l0.52,0.75a9.61,9.61,0,0,1-2.75,0,7.48,7.48,0,0,1-2.63-.87,7.85,7.85,0,0,1-1.15-.82c-0.33-.33-0.64-0.7-0.94-1.06s-0.47-.81-0.69-1.22l-0.45-1.31a11.66,11.66,0,0,1-.25-1.33l-0.11-.67,0-.67,0-1.34c0-.44.08-0.88,0.12-1.32l0.14-1.32c0.07-.43.17-0.86,0.25-1.29l0.26-1.29,0.07-.32,0-.08,0-.1,0-.16,0.18-.62c0.26-.83.43-1.66,0.76-2.48s0.6-1.67,1-2.46a19.09,19.09,0,0,1,1.27-2.33l0.74-1.11,0.87-1a7.55,7.55,0,0,1,1-.95,6.6,6.6,0,0,1,1.05-.84,9.5,9.5,0,0,1,2.4-1.26,7.24,7.24,0,0,1,1.31-.37,8.81,8.81,0,0,1,1.35-.18A9.31,9.31,0,0,1,146.27,271.42Zm0.28,1.06a7.87,7.87,0,0,0-3.58,0,6.29,6.29,0,0,0-1.17.34,8.47,8.47,0,0,0-2.15,1.14,5.76,5.76,0,0,0-1,.77,6.69,6.69,0,0,0-.87.87l-0.8,1-0.68,1a18,18,0,0,0-1.19,2.21c-0.38.75-.62,1.56-0.93,2.33s-0.49,1.64-.74,2.46l-0.18.62,0,0.16v0s0,0,0,0v0l0,0.08-0.06.31L132.93,287c-0.08.42-.17,0.83-0.24,1.25l-0.12,1.25c0,0.42-.1.84-0.1,1.25l0,1.25v0.62l0.09,0.61a10.61,10.61,0,0,0,.22,1.2l0.38,1.14,0.58,1c0.25,0.3.5,0.6,0.77,0.88a6.12,6.12,0,0,0,3.18,1.46,8.7,8.7,0,0,0,2.4,0l1-.14-0.48.89h0l-1.18,2.42c-0.31.84-.59,1.68-0.87,2.52l-0.25,1.3a7.06,7.06,0,0,0-.19,1.3,14,14,0,0,0,.48,5.16,10.68,10.68,0,0,0,.46,1.21l0.24,0.6c0.09,0.19.21,0.38,0.32,0.56,0.23,0.37.41,0.76,0.66,1.11l0.78,1c0.26,0.35.59,0.63,0.88,0.95a6.8,6.8,0,0,0,1,.86,11.56,11.56,0,0,0,2.15,1.41c0.39,0.17.77,0.37,1.17,0.51s0.81,0.26,1.2.34,0.72,0.13,1.15.13l0.69,0,0.34-.08,0-.07h0c-0.17,0,0,.07-0.08.07l0,0h0.07l0.15,0a5.31,5.31,0,0,0,1.16-.34c0.19-.08.38-0.14,0.56-0.24l0.54-.31a9.72,9.72,0,0,0,2-1.6,15.75,15.75,0,0,0,1.65-2,23.41,23.41,0,0,0,1.38-2.28,25.35,25.35,0,0,0,1.14-2.42l0.33-.81,0.52,0.62h0a18.68,18.68,0,0,0,3.36,2.57,14.41,14.41,0,0,0,1.86,1,11.47,11.47,0,0,0,1.95.64,5.65,5.65,0,0,0,1,.16,4.54,4.54,0,0,0,1,0,3.77,3.77,0,0,0,1-.13,3.39,3.39,0,0,0,.91-0.29,3.53,3.53,0,0,0,.84-0.42,4,4,0,0,0,.78-0.57l0.4-.37,0.2-.19,0.1-.09h0l0,0h0l0,0,0,0,0.62-.79a9.45,9.45,0,0,0,.54-0.87,5.46,5.46,0,0,0,.47-0.92,15.18,15.18,0,0,0,.75-2c0.19-.68.39-1.36,0.53-2.06s0.27-1.4.36-2.11a43.08,43.08,0,0,0,.33-4.3,41.27,41.27,0,0,0-.09-4.32l-0.08-1,0.84,0.53h0a28.76,28.76,0,0,0,2.82,1.26,10.14,10.14,0,0,0,2.85.67,5.55,5.55,0,0,0,2.67-.45,7.1,7.1,0,0,0,1.19-.72c0.2-.14.37-0.29,0.55-0.44s0.4-.37.55-0.52a6.39,6.39,0,0,0,1.33-2.41,15.75,15.75,0,0,0,.59-2.93,23.39,23.39,0,0,0,.09-3.06,27.9,27.9,0,0,0-.27-3.08c-0.13-1-.33-2-0.54-3.06s-0.48-2-.75-3l-0.47-1.52c-0.14-.49-0.36-0.95-0.53-1.42a8.27,8.27,0,0,0-.64-1.37l-0.35-.67c-0.13-.21-0.28-0.41-0.43-0.62l-0.43-.62c-0.15-.2-0.33-0.37-0.49-0.56L184,271l-0.56-.49a11.1,11.1,0,0,0-2.5-1.64,13,13,0,0,0-2.88-.8,16.39,16.39,0,0,0-3-.07h0l-0.21-.1-0.19-.21-1.83-1.52c-0.6-.51-1.24-1-1.88-1.43a22.17,22.17,0,0,0-2-1.31c-0.68-.38-1.31-0.86-2-1.17a21.73,21.73,0,0,0-2.1-1,16.38,16.38,0,0,0-2.17-.75c-0.37-.1-0.73-0.21-1.11-0.29l-1.12-.18a7,7,0,0,0-1.12-.1,7.7,7.7,0,0,0-1.12,0l-1.12.08-1.1.21a12.39,12.39,0,0,0-2.1.73,12.53,12.53,0,0,0-1.93,1.13,9.52,9.52,0,0,0-1.62,1.44,9.24,9.24,0,0,0-1.07,1.89,20.14,20.14,0,0,0-.8,2.15c-0.22.74-.46,1.48-0.66,2.24s-0.4,1.52-.58,2.27l-0.13.55Z"/><path class="cls-7" d="M208.55,167.2s-17.84,3.3-33.59,2-30-4-39.9-8.25a89.61,89.61,0,0,1-17.85-10.5s35.68-19.37,95.87,9"/><path d="M208.64,167.69c-3.94.7-7.88,1.21-11.85,1.62s-7.95.67-11.94,0.75a105.44,105.44,0,0,1-12-.4q-6-.51-11.87-1.4a119.53,119.53,0,0,1-23.25-5.61,72.31,72.31,0,0,1-10.84-5.14,91.86,91.86,0,0,1-10-6.6h0l-0.62-.48,0.69-.35a45,45,0,0,1,5.82-2.35c1-.37,2-0.6,3-0.91l1.5-.43,1.52-.35c1-.23,2-0.48,3-0.69l3.07-.52c2-.41,4.12-0.53,6.18-0.78l1.55-.16,1.55-.07,3.11-.14c2.07-.16,4.15,0,6.22,0,1,0,2.08,0,3.11.08l3.1,0.26,3.1,0.26c0.52,0,1,.08,1.55.14l1.54,0.23,6.15,0.93c2,0.35,4.05.86,6.08,1.29s4.06,0.84,6,1.47l6,1.72,1.49,0.43c0.49,0.15,1,.34,1.47.51L196,152l5.85,2.1c1.92,0.78,3.81,1.63,5.71,2.45l5.7,2.47-0.43.9-5.67-2.47c-1.89-.81-3.77-1.67-5.68-2.44l-5.81-2.1-2.91-1.05c-0.49-.17-1-0.36-1.46-0.51l-1.48-.43-5.93-1.72c-2-.63-4-1-6-1.47s-4-.93-6-1.27l-6.11-.92-1.53-.23c-0.51-.06-1-0.09-1.54-0.14l-3.08-.25-3.08-.25c-1-.06-2.06,0-3.08-0.07-2.06,0-4.11-.15-6.17,0l-3.08.15-1.54.07-1.53.16c-2,.25-4.1.38-6.11,0.78l-3,.52c-1,.2-2,0.46-3,0.68l-1.5.35-1.48.43c-1,.3-2,0.54-2.94.9a44.31,44.31,0,0,0-5.66,2.28l0.07-.83h0a90.93,90.93,0,0,0,9.9,6.49,71.26,71.26,0,0,0,10.7,5,118.47,118.47,0,0,0,23,5.49c3.92,0.58,7.86,1,11.81,1.38a104.25,104.25,0,0,0,11.85.45c4-.07,7.91-0.31,11.86-0.69s7.88-.88,11.78-1.55Z"/><path class="cls-7" d="M301.38,173.88s-2.74-3.57-2.86-5.69,2.86-1.57,2.86-1.57S303.68,168.51,301.38,173.88Z"/><path d="M245.63,210l0.49,0.92c0.3,0.59.7,1.43,1.17,2.45s1,2.24,1.46,3.54,1,2.72,1.47,4.13,0.92,2.84,1.29,4.19,0.68,2.62.9,3.72,0.4,2,.51,2.66,0.16,1,.16,1l-1,.23s-0.49-1.4-1.13-3.53l-2.36-7.77c-0.44-1.41-.92-2.8-1.35-4.12s-0.87-2.53-1.25-3.57c-0.74-2.09-1.3-3.44-1.3-3.44Z"/><path class="cls-2" d="M103.71,273.26s-18.25-8-16.25,10.74c0,0-12.75-1.25-10.75,13.5,0,0-9.5-2.5-6,11S80,318,81.21,314c0,0,22.75,6.75,20-15.5,0,0,7.25,7.5,10.25,4.25s-0.25-18.5-9.25-20.75C102.21,282,111.71,277.76,103.71,273.26Z"/><path d="M103.44,273.83a22.77,22.77,0,0,0-2.93-.92,20.7,20.7,0,0,0-3-.52,13.54,13.54,0,0,0-3,0,8.13,8.13,0,0,0-1.43.31,6.18,6.18,0,0,0-1.32.55,3.85,3.85,0,0,0-.6.37,3.51,3.51,0,0,0-.55.44,3.22,3.22,0,0,0-.49.5,3.37,3.37,0,0,0-.44.55,7.59,7.59,0,0,0-.71,1.25,9.79,9.79,0,0,0-.47,1.4,14.63,14.63,0,0,0-.31,1.48c-0.08.5-.11,1-0.16,1.53l0,1.56,0,1.57h0L88,284.51H87.41a11.41,11.41,0,0,0-2.41.21c-0.4.06-.79,0.18-1.18,0.27s-0.76.25-1.14,0.37l-1.07.51-1,.64-0.88.76-0.74.89c-0.23.31-.39,0.67-0.59,1a5.16,5.16,0,0,0-.46,1.08,5.44,5.44,0,0,0-.36,1.13l-0.24,1.18a11.79,11.79,0,0,0-.12,1.21l-0.09,1.22c0,0.82.06,1.65,0.06,2.48v0.77l-0.63-.2h0c-0.6,0-1.3-.19-1.94-0.16a5.12,5.12,0,0,0-1.84.47,5.59,5.59,0,0,0-.78.5,6.63,6.63,0,0,0-.61.7,5.51,5.51,0,0,0-.45.83c-0.1.31-.22,0.61-0.3,0.92a9.68,9.68,0,0,0-.18,2c0,0.34,0,.68,0,1l0.12,1a15.15,15.15,0,0,0,.37,2l0.22,1,0.29,1c0.2,0.67.38,1.37,0.64,2a16.68,16.68,0,0,0,.78,1.9l0.45,0.92L73.9,315a5.09,5.09,0,0,0,.6.79l0.31,0.38,0.36,0.31,0.36,0.31L75.94,317a2.63,2.63,0,0,0,.84.27,2.67,2.67,0,0,0,1.69-.4,4.5,4.5,0,0,0,1.37-1.3,6.37,6.37,0,0,0,.89-1.73l0.17-.46,0.45,0.13h0a30.15,30.15,0,0,0,3.84.58,25.16,25.16,0,0,0,3.86.1,18.35,18.35,0,0,0,3.75-.55,11.52,11.52,0,0,0,3.37-1.49,5.74,5.74,0,0,0,.74-0.54A5,5,0,0,0,97.6,311a4.9,4.9,0,0,0,.61-0.67,5.88,5.88,0,0,0,.54-0.73c0.16-.26.34-0.51,0.48-0.78l0.4-.83a14.11,14.11,0,0,0,.6-1.77,13.09,13.09,0,0,0,.37-1.86c0.12-.63.11-1.27,0.18-1.91s0-1.29,0-1.94l-0.1-2-0.07-1.47,0.93,1.06h0a28,28,0,0,0,3.54,2.87,10.29,10.29,0,0,0,3.92,1.8,2.12,2.12,0,0,0,1.66-.37l0.15-.15s0.09-.09,0,0l0.09-.12,0.17-.23,0.09-.17a4.43,4.43,0,0,0,.33-0.91,12.34,12.34,0,0,0,.07-4.35,22.43,22.43,0,0,0-3-8.43,14.38,14.38,0,0,0-2.8-3.43,10.79,10.79,0,0,0-1.77-1.3,9.42,9.42,0,0,0-2-.87l-1.33-.44,1.24-.51h0a13.15,13.15,0,0,0,2.49-1.57,5.23,5.23,0,0,0,1.71-2.15,2.58,2.58,0,0,0,.12-0.6,2.34,2.34,0,0,0-.06-0.59,2.67,2.67,0,0,0-.23-0.57,3.46,3.46,0,0,0-.38-0.53,6.18,6.18,0,0,0-1-.94A13.84,13.84,0,0,0,103.44,273.83Zm0.58-1.12a15.1,15.1,0,0,1,1.35.89,7.36,7.36,0,0,1,1.21,1.17,4.63,4.63,0,0,1,.49.73,3.82,3.82,0,0,1,.33.86,3.46,3.46,0,0,1,.07.94,3.7,3.7,0,0,1-.2.9,6.26,6.26,0,0,1-2.11,2.6,14.11,14.11,0,0,1-2.75,1.65h0l-0.08-.94a10.5,10.5,0,0,1,2.32.82,10.38,10.38,0,0,1,2.07,1.33,15.47,15.47,0,0,1,3.2,3.65,22.46,22.46,0,0,1,3.23,9,13.73,13.73,0,0,1-.15,4.92,5.7,5.7,0,0,1-.49,1.27l-0.2.34-0.18.24-0.09.11a1.69,1.69,0,0,1-.17.17c-0.09.08-.18,0.17-0.28,0.25a3.55,3.55,0,0,1-2.76.59,8,8,0,0,1-2.39-.86,15.19,15.19,0,0,1-2-1.31,29,29,0,0,1-3.54-3.18h0l0.86-.41,0.27,2c0,0.68.09,1.35,0.11,2s0,1.37-.1,2a14.51,14.51,0,0,1-.32,2,12.55,12.55,0,0,1-.61,2l-0.45,1c-0.15.32-.36,0.61-0.54,0.92a7.29,7.29,0,0,1-.63.87,10.46,10.46,0,0,1-1.5,1.53,7.16,7.16,0,0,1-.86.64,10.26,10.26,0,0,1-1.88,1,13.91,13.91,0,0,1-2,.66,17.66,17.66,0,0,1-4.1.52,26.57,26.57,0,0,1-4.07-.29,25.31,25.31,0,0,1-4-.93h0l0.62-.33a7.37,7.37,0,0,1-1,2A5.51,5.51,0,0,1,79,317.76a3.71,3.71,0,0,1-2.34.55,3.66,3.66,0,0,1-1.16-.36L75,317.67l-0.45-.37-0.44-.37-0.36-.43A5.94,5.94,0,0,1,73,315.6l-0.58-.94c-0.17-.32-0.32-0.65-0.47-1a17.74,17.74,0,0,1-.82-2c-0.27-.68-0.44-1.36-0.65-2l-0.3-1L70,307.55a16.05,16.05,0,0,1-.38-2.13l-0.13-1.08c0-.36,0-0.73,0-1.1a10.67,10.67,0,0,1,.21-2.21c0.1-.36.24-0.73,0.36-1.09a6.51,6.51,0,0,1,.56-1,7.25,7.25,0,0,1,.78-0.88,6.44,6.44,0,0,1,1-.64,6.14,6.14,0,0,1,2.22-.58c0.76,0,1.49.18,2.26,0.18h0l-0.62.56c-0.13-.86-0.25-1.72-0.35-2.59v-1.32a7.6,7.6,0,0,1,.07-1.33L76.18,291a6.62,6.62,0,0,1,.38-1.3,5.72,5.72,0,0,1,.55-1.25,12.86,12.86,0,0,1,.72-1.17l0.9-1.05,1.06-.89c0.38-.25.78-0.48,1.18-0.71s0.83-.36,1.25-0.53a12.24,12.24,0,0,1,2.61-.58,12.38,12.38,0,0,1,2.67,0l-0.55.55h0l-0.21-1.62c0-.54-0.07-1.09-0.09-1.64s0-1.11.07-1.66a11.45,11.45,0,0,1,.26-1.67,11.31,11.31,0,0,1,.5-1.64,9.14,9.14,0,0,1,.82-1.55,4.61,4.61,0,0,1,.53-0.71,4.54,4.54,0,0,1,.63-0.64,4.9,4.9,0,0,1,.7-0.56,5.26,5.26,0,0,1,.76-0.47,7.76,7.76,0,0,1,1.63-.67,9.45,9.45,0,0,1,1.7-.33,14.46,14.46,0,0,1,3.37,0,22.1,22.1,0,0,1,3.24.66,24,24,0,0,1,3.11,1.09l0,0h0Z"/><path class="cls-4" d="M280.75,186.56s-0.78.1-2,.38a25.69,25.69,0,0,0-4.19,1.38,18.39,18.39,0,0,0-2.11,1,15.46,15.46,0,0,0-1.72,1.12,11.73,11.73,0,0,0-1.14.91l-0.42.36-0.4-.4,0.41-.4a12.13,12.13,0,0,1,1.14-1,16.14,16.14,0,0,1,1.76-1.21,19.13,19.13,0,0,1,2.16-1.15,22.65,22.65,0,0,1,4.32-1.48,15.11,15.11,0,0,1,2.06-.37Z"/><path class="cls-4" d="M439.1,249.2a19.43,19.43,0,0,0-3.62-4.68,15.68,15.68,0,0,0-2.38-1.81,13.93,13.93,0,0,0-8.62-1.91l-0.25,0h0l-0.67,0a19.47,19.47,0,0,0-2.33.4c-0.59.15-1.24,0.35-1.91,0.58a7.91,7.91,0,0,0-.92-2.19,6.43,6.43,0,0,0-2.39-2.23,7.24,7.24,0,0,0-3.16-.8,11.62,11.62,0,0,0-3.15.36,18.63,18.63,0,0,0-2.95,1c-0.49.19-.92,0.42-1.38,0.63s-0.92.49-1.38,0.74a19.73,19.73,0,0,0-2.52,1.81,21.79,21.79,0,0,0-2.22,2.15A35.58,35.58,0,0,0,393,253.75,50.9,50.9,0,0,0,391,259.5a54.65,54.65,0,0,0-1.26,5.69q-8.71,5.07-17.26,10.4l-8.67,5.35c-2.8,1.71-5.57,3.46-8.34,5.21q-2.68-2.16-5.39-4.27l-5.72-4.41-5.76-4.34c-1.75-1.3-3.49-2.59-5.26-3.86l0.07-.17c0.3-.83.59-1.62,0.8-2.36a20.91,20.91,0,0,0,.51-2c0.08-.43.15-0.81,0.2-1.16,0.18-.86.33-1.73,0.45-2.61A23.64,23.64,0,0,0,335,252c-0.08-.37-0.21-0.74-0.31-1.11s-0.22-.68-0.37-1.05c-0.29-.68-0.54-1.38-0.87-2.05s-0.64-1.34-1-2-0.72-1.3-1.12-1.92a31.17,31.17,0,0,0-2.62-3.6c-0.48-.56-1-1.11-1.52-1.64l-0.63-.6a32,32,0,0,0,4.08-.31,18.44,18.44,0,0,0,2.7-.58A10,10,0,0,0,336,236c0.76-.55,1.43-1.1,2.14-1.66l2.12-1.66,4.23-3.32c2.83-2.2,5.61-4.46,8.42-6.69s5.5-4.39,8.23-6.62a34.22,34.22,0,0,0,11.32-.63A29.3,29.3,0,0,0,378,213.5a27.15,27.15,0,0,0,5-3,29.66,29.66,0,0,0,7.68-8.77,15.37,15.37,0,0,0,1.75-5.75,18.74,18.74,0,0,0-.3-5.94,17,17,0,0,0-2.21-5.53,15.81,15.81,0,0,0-4-4.39,17.89,17.89,0,0,0-5.3-2.66,17.26,17.26,0,0,0-5.86-.85,20.68,20.68,0,0,0-5.79,1,27.42,27.42,0,0,0-5.31,2.38,38.14,38.14,0,0,0-8.65,6.84,7.29,7.29,0,0,0-2.63-1.5,5.06,5.06,0,0,0-3.58.16,5.71,5.71,0,0,0-2.55,2.48,9.73,9.73,0,0,0-.71,1.59,14,14,0,0,0-.45,1.65c-0.12.57-.19,1.12-0.28,1.68s-0.12,1.13-.12,1.7a14.93,14.93,0,0,0,0,1.7c0,0.57.12,1.13,0.2,1.69s0.21,1.11.36,1.66a16.68,16.68,0,0,0,.52,1.62,16.48,16.48,0,0,0,.68,1.56c0.19,0.37.4,0.72,0.62,1.08-0.73.56-1.47,1.12-2.18,1.7s-1.68,1.35-2.48,2.06c-1.65,1.39-3.22,2.86-4.77,4.36s-3,3.07-4.46,4.67-2.68,3.11-3.9,4.79a70.15,70.15,0,0,0-10.4-.51c-3.48.05-7,.24-10.43,0.53a12.44,12.44,0,0,0-1.61-1.41c-0.62-.47-1.25-0.91-1.89-1.34-1.28-.85-2.58-1.64-3.89-2.44-2.64-1.55-5.29-3-8-4.46s-5.39-2.8-8.12-4.16c-2.22-1.12-4.45-2.14-6.7-3.17a6.92,6.92,0,0,0,1.38.16c1,0,2.09-.36,3.13-0.48s2.08-.25,3.11-0.41l1.55-.28,1.54-.35a31.35,31.35,0,0,0,6-2.12c0.48-.23.94-0.49,1.41-0.74s0.92-.55,1.35-0.86a19.38,19.38,0,0,0,2.49-2,15.94,15.94,0,0,0,3.62-5.31,17.38,17.38,0,0,0,1.29-6.27,15.63,15.63,0,0,0-.22-3.2,23.33,23.33,0,0,0-.73-3.09,41.34,41.34,0,0,0-2.18-5.61,7.84,7.84,0,0,0,1-2.56,9.72,9.72,0,0,0,.17-1.5,4.46,4.46,0,0,0-.17-1.55,4.75,4.75,0,0,0-.46-1,3.16,3.16,0,0,0-.76-1.1l-0.1-.08h0l-0.33-.35a20.08,20.08,0,0,0-2.23-1.87c-1.54-1.14-3.16-2.16-4.71-3.23s-3-2.25-4.52-3.42l-4.43-3.57c-1.48-1.19-2.9-2.42-4.43-3.59s-3-2.3-4.6-3.4l-2.39-1.57-2.45-1.48c-0.83-.48-1.67-0.92-2.51-1.38s-1.71-.85-2.56-1.28-1.74-.78-2.61-1.18l-2.66-1.06c-1.8-.65-3.61-1.25-5.46-1.74s-3.72-.9-5.6-1.23a55.27,55.27,0,0,0-11.44-.72,50,50,0,0,0-5.72.59,35.14,35.14,0,0,0-5.37,1.3c-2.38-1.54-4.77-3.08-7.19-4.56s-5-3-7.53-4.46q-7.6-4.35-15.56-8c-2.65-1.24-5.33-2.41-8-3.53s-5.44-2.16-8.21-3.12-5.56-1.84-8.37-2.67-5.66-1.54-8.53-2.15A109.4,109.4,0,0,0,146.69,106a89,89,0,0,0-17.6.78,68.93,68.93,0,0,0-17,4.78,54.84,54.84,0,0,0-7.82,4.11,38,38,0,0,0-7,5.49l-0.4.41,0.47,0.34h0c0.85,0.66,1.72,1.29,2.59,1.91s1.75,1.22,2.63,1.82c1.75,1.21,3.53,2.38,5.31,3.55s3.57,2.33,5.37,3.46q2.25,1.41,4.55,2.74l-0.74.25c-0.6.19-1.18,0.44-1.77,0.66-1.18.43-2.33,0.94-3.48,1.42s-2.29,1-3.41,1.59-2.24,1.12-3.35,1.69c-4.44,2.32-8.74,4.86-12.95,7.59l-0.54.35,0.48,0.43h0a91.41,91.41,0,0,0,27.77,17.23,140,140,0,0,0,31.62,8.46,195.56,195.56,0,0,0,32.67,2.16,159.79,159.79,0,0,0,16.37-1c1.36-.17,2.72-0.36,4.1-0.64,0.36-.07.7-0.15,1-0.24a2.24,2.24,0,0,1,.73-0.07,2.34,2.34,0,0,1,1.35.62,8.48,8.48,0,0,1,2,3.09,21.11,21.11,0,0,1,1.13,3.73l0,0.1,0,0.06c0.43,1,.83,2,1.33,2.92,0.23,0.48.48,1,.75,1.42s0.52,0.94.81,1.38c0.56,0.91,1.18,1.79,1.8,2.66s1.32,1.68,2,2.48,1.45,1.57,2.23,2.3,1.57,1.45,2.41,2.11,1.68,1.32,2.56,1.92,1.77,1.19,2.68,1.74A59.52,59.52,0,0,0,239.11,207l3,1a4.81,4.81,0,0,1,.61.25,1.42,1.42,0,0,1,.39.31,6.07,6.07,0,0,1,.79,1.09c0.49,0.83.91,1.75,1.34,2.68l0.85,1.84-0.27,0c-2.06.2-4.18,0.34-6.35,0.52s-4.38.4-6.64,0.45l-6.88.29-3.51.16-3.55,0-7.17.1-3.61,0-3.62-.06c-4.83-.1-9.66-0.12-14.41-0.28l-14-.58-3.37-.13-3.3-.21-6.38-.41-11.68-.74-24.1-1.93-0.1,1,24.07,2.56L162.92,216l6.38,0.5,3.3,0.26,3.37,0.18,14,0.72c4.77,0.18,9.61.23,14.46,0.35l3.63,0.08,3.63,0,7.21-.07,3.57,0,3.53-.15,6.92-.35c2.27-.07,4.5-0.33,6.69-0.51l2.26-.2-1.61.72-6.47,2.94c-4.32,2-8.61,4-12.94,5.89-1.08.48-2.14,0.92-3.27,1.39a10.58,10.58,0,0,0-3.17,2,4.6,4.6,0,0,0-1.51,3.67,4.17,4.17,0,0,0,.22,1l0.3,0.87,0.59,1.68c1.52,4.39,3.09,8.76,4.65,13.13a21.84,21.84,0,0,0-2.23,2.92,26,26,0,0,0-1.87,3.5,22.15,22.15,0,0,0-1.89,7.73c0,0.67,0,1.34,0,2l0.06,1,0.11,1a20.42,20.42,0,0,0,.88,3.93,14.28,14.28,0,0,0,1.8,3.68,11.93,11.93,0,0,0,2.9,3,12.1,12.1,0,0,0,3.76,1.77,15.43,15.43,0,0,0,4.07.54,21.77,21.77,0,0,0,4-.39,20.4,20.4,0,0,0,3.89-1.09,13,13,0,0,0,6.33-5.14,13.52,13.52,0,0,0,1.62-3.78,13.73,13.73,0,0,0,.4-3.76,5.86,5.86,0,0,0,1.43-.56,11.82,11.82,0,0,0,1.68-.85,9.29,9.29,0,0,0,2.72-2.83,8,8,0,0,0,1.12-3.81,10.21,10.21,0,0,0-.11-2,14,14,0,0,0-.42-1.88,11.18,11.18,0,0,0-.74-1.84,9.7,9.7,0,0,0-1.07-1.67,8.62,8.62,0,0,0-3.12-2.44,10.8,10.8,0,0,0-3.78-.93,13.75,13.75,0,0,0-1.92,0c-0.42,0-.83.09-1.25,0.17a11.34,11.34,0,0,0,0-1.31,17.34,17.34,0,0,0-.18-1.9,26.26,26.26,0,0,0-.84-3.69,35.81,35.81,0,0,0-1.24-3.54c-0.39-1-.83-1.89-1.31-2.81l0.62-.15q0.63-.17,1.24-0.38c0.81-.26,1.61-0.56,2.41-0.86,1.59-.6,3.15-1.24,4.72-1.89s3.12-1.31,4.66-2c1.34-.6,2.68-1.21,4-1.85q0.54,3.62,1.23,7.21,0.73,3.92,1.61,7.8c0.59,2.59,1.21,5.18,1.94,7.74,0.36,1.28.75,2.56,1.17,3.82,0.21,0.63.43,1.26,0.66,1.89l0.35,0.94,0.12,0.31a9.91,9.91,0,0,0-1.9.38,10.42,10.42,0,0,0-1.43.52,12.55,12.55,0,0,0-1.31.78,9.46,9.46,0,0,0-2.15,2.13,13.92,13.92,0,0,0-1.48,2.61l-0.5,1.4-0.12.35-0.1.37c-0.06.23-.12,0.45-0.17,0.7a13.79,13.79,0,0,0-.26,3,14.62,14.62,0,0,0,.37,3,17.17,17.17,0,0,0,2.32,5.44,16.07,16.07,0,0,0,4,4.35,10.93,10.93,0,0,0,2.69,1.44,7.21,7.21,0,0,0,3.13.43,4.69,4.69,0,0,0,1.5-.37,5.4,5.4,0,0,0,1.81-.81,6,6,0,0,0,1.57-1.63,6.18,6.18,0,0,0,1,.67,4.86,4.86,0,0,0,.83.39,2.66,2.66,0,0,0,.44.14,3.75,3.75,0,0,0,.45.1,4.75,4.75,0,0,0,1.2.06h0.19a2.89,2.89,0,0,0,.46,0,4.06,4.06,0,0,0,.82-0.23l0.06,0a5.47,5.47,0,0,0,.57-0.25c0.64,0.39,1.28.78,2,1.11a23.46,23.46,0,0,0,2.31,1,20,20,0,0,0,2.43.75c0.42,0.09.83,0.2,1.26,0.26,0.21,0,.43.11,0.64,0.13h0c-0.47,1.83-.88,3.61-1.2,5.5-0.17,1.05-.31,2.11-0.43,3.17-0.09.88-.16,1.75-0.18,2.65a13.28,13.28,0,0,1-2.21-.65c-0.9-.34-1.78-0.74-2.66-1.14-1.76-.82-3.49-1.72-5.2-2.65-3.43-1.85-6.81-3.82-10.16-5.83s-6.68-4.06-10-6.15l-1.24-.78a4.25,4.25,0,0,0-1.61-.6,5.92,5.92,0,0,0-3.2.55,23.75,23.75,0,0,0-5,3.34c-3.06,2.51-5.9,5.12-9.08,7.38s-6.33,4.58-9.53,6.84q-9.58,6.77-19.24,13.45a61.75,61.75,0,0,0-9.29,7.35,36.23,36.23,0,0,0-3.94,4.5c-0.3.41-.58,0.82-0.85,1.26-0.14.22-.26,0.43-0.4,0.67l-0.17.33-0.17.34a24.87,24.87,0,0,0-1.22,2.78,17,17,0,0,0-1.06,6,14.15,14.15,0,0,0,1.42,6A16.53,16.53,0,0,0,193.3,348a22,22,0,0,0,12,1l1.48-.35c0.49-.15,1-0.3,1.48-0.46s0.89-.33,1.4-0.54,0.93-.41,1.38-0.65a21.61,21.61,0,0,0,5-3.5,28.21,28.21,0,0,0,6.67-9.93,39,39,0,0,0,2.79-11.38c0.87-.95,1.71-1.91,2.59-2.83s1.82-1.93,2.76-2.87,1.89-1.86,2.86-2.75,2-1.77,3-2.6a37.71,37.71,0,0,1,6.49-4.35,16.92,16.92,0,0,1,3.57-1.35,9.31,9.31,0,0,1,1.82-.25,5.6,5.6,0,0,1,.88,0,3.25,3.25,0,0,1,.72.17l0.09,0h0q9.23,3,18.52,5.73c6.2,1.82,12.41,3.6,18.74,5.06,1.58,0.36,3.18.69,4.8,0.94a19.08,19.08,0,0,0,2.54.24l0.61,0a3,3,0,0,0,.78-0.17,4.5,4.5,0,0,0,1.23-.71,14.34,14.34,0,0,0,3.12-4,44,44,0,0,0,2.18-4.41c1.28-3,2.43-6.06,3.42-9.15,0.93-2.93,1.76-5.88,2.69-8.86a11.26,11.26,0,0,0,3.89.07,17.07,17.07,0,0,0,4.42-1.31,22.56,22.56,0,0,0,4-2.25c0.62-.44,1.22-0.91,1.79-1.4s0.92-.85,1.36-1.32a48,48,0,0,1,8.59,6.8,48.75,48.75,0,0,1,7,8.91c0.49,0.8.93,1.64,1.34,2.46l0.28,0.61,0.25,0.64,0.42,1.35a22,22,0,0,0,2.4,5.46,9,9,0,0,0,4.78,3.94,7.52,7.52,0,0,0,3.17.28,11,11,0,0,0,3-.77,22.23,22.23,0,0,0,5.15-3c0.82-.6,1.5-1.22,2.27-1.84s1.44-1.2,2.21-1.75a78.86,78.86,0,0,1,9.71-6c6.74-3.6,13.77-6.7,20.85-9.64s14.26-5.68,21.44-8.41c3.59-1.38,7.19-2.71,10.76-4.23,0.45-.18.89-0.4,1.34-0.6a11.82,11.82,0,0,0,1.34-.74c0.86-.63,1.56-1.2,2.32-1.85a33.35,33.35,0,0,0,4.12-4.19,20.37,20.37,0,0,0,4.79-10.71A18.94,18.94,0,0,0,439.1,249.2Zm-138-82.11c0.33,0.38,1.46,2,.11,5.76-0.87-1.27-2.16-3.38-2.23-4.69a0.85,0.85,0,0,1,.26-0.76,2.06,2.06,0,0,1,1.31-.34A4.68,4.68,0,0,1,301.14,167.08Zm-55.72,41.65a7.78,7.78,0,0,0-1.05-1.44,3.21,3.21,0,0,0-.84-0.65,7.07,7.07,0,0,0-.84-0.35l-3-1a57.74,57.74,0,0,1-11.24-5.06c-0.88-.52-1.75-1.08-2.59-1.66s-1.67-1.19-2.46-1.84-1.57-1.31-2.31-2-1.46-1.43-2.14-2.19-1.32-1.55-2-2.36-1.19-1.66-1.73-2.53c-0.29-.42-0.52-0.88-0.78-1.32s-0.5-.89-0.72-1.35c-0.47-.89-0.86-1.82-1.27-2.75a22.62,22.62,0,0,0-1.21-3.94,10,10,0,0,0-2.44-3.7,4,4,0,0,0-2.31-1,3.9,3.9,0,0,0-1.29.13l-0.94.22c-1.29.26-2.63,0.46-4,.63a158.28,158.28,0,0,1-16.19,1.08,194,194,0,0,1-32.42-2,143.82,143.82,0,0,1-31.36-8.21,90.63,90.63,0,0,1-27.09-16.33c1.88-1.25,3.8-2.46,5.75-3.62q3.21-1.9,6.5-3.65c1.11-.57,2.21-1.13,3.33-1.66s2.25-1,3.38-1.56,2.28-1,3.45-1.39c0.58-.21,1.16-0.44,1.75-0.62l1.76-.57h0l0.61-.18,3.82-1c1.44-.29,3.18-0.65,5.19-1s4.3-.66,6.8-0.85l1.91-.19,2-.11c1.35-.07,2.75-0.18,4.19-0.17,2.88-.07,5.92,0,9.06.17s6.38,0.46,9.65.9l2.46,0.32,2.47,0.4c1.65,0.25,3.3.58,4.95,0.9,3.29,0.65,6.56,1.42,9.76,2.25s6.32,1.75,9.32,2.71c6,1.88,11.52,4,16.17,5.89s8.46,3.72,11.1,5,4.1,2.1,4.1,2.1l0.49-.87s-1.47-.86-4.1-2.21-6.44-3.2-11.11-5.17-10.2-4.11-16.24-6c-3-1-6.17-1.86-9.39-2.72s-6.52-1.59-9.85-2.23c-1.66-.31-3.32-0.64-5-0.89l-2.49-.4-2.49-.32c-3.3-.43-6.58-0.71-9.75-0.88s-6.24-.21-9.15-0.13c-1.46,0-2.87.11-4.24,0.19l-2,.12-1.94.2c-2.53.22-4.83,0.63-6.87,0.93s-3.79.76-5.24,1.06L119.15,135c-1.67-1.2-3.37-2.35-5.07-3.49s-3.56-2.34-5.35-3.48l-5.37-3.44c-1.61-1-3.23-2.06-4.82-3.11a40.92,40.92,0,0,1,6.45-4.67,59.07,59.07,0,0,1,7.73-3.82,69.49,69.49,0,0,1,16.64-4.39,87.13,87.13,0,0,1,17.24-.66c2.88,0.18,5.75.47,8.61,0.86s5.7,0.9,8.53,1.5,5.63,1.32,8.42,2.08,5.55,1.64,8.28,2.6,5.44,2,8.14,3,5.36,2.21,8,3.41,5.26,2.44,7.85,3.74,5.16,2.65,7.72,4,5.08,2.81,7.59,4.27,5,3,7.46,4.51h0l0.21,0.13,0.24-.08a33.61,33.61,0,0,1,5.42-1.34,49,49,0,0,1,5.6-.59,54.32,54.32,0,0,1,11.25.67c1.85,0.32,3.7.7,5.52,1.19s3.61,1.07,5.39,1.7l2.63,1c0.86,0.39,1.73.75,2.58,1.15s1.7,0.82,2.53,1.26l2.48,1.36,2.43,1.45,2.37,1.55c1.55,1.08,3.09,2.17,4.57,3.35s2.95,2.39,4.43,3.57l4.44,3.57c1.49,1.18,3,2.38,4.54,3.47s3.16,2.11,4.67,3.24a21.16,21.16,0,0,1,1.74,1.45,2.71,2.71,0,0,0-1.6.58,1.85,1.85,0,0,0-.59,1.57c0.13,2.15,2.6,5.49,2.93,5.92a40.41,40.41,0,0,1,2.07,5.71,25.16,25.16,0,0,1,.65,3,14.3,14.3,0,0,1,.16,3,16.62,16.62,0,0,1-1.25,5.81,14.62,14.62,0,0,1-3.35,4.86,18,18,0,0,1-2.32,1.87,22.44,22.44,0,0,1-2.6,1.51,28.82,28.82,0,0,1-4.4,1.7l-1.08.23-0.7.15c-0.25,0-.51,0-0.79.08l-1.83.16c-0.67,0-1.4,0-2.18-.06a24,24,0,0,1-2.46-.31c-0.87-.12-1.73-0.45-2.66-0.67A20.33,20.33,0,0,1,273,198.4c0.9-1.19,2-2.5,3.15-3.77,1.64-1.8,3.36-3.52,4.66-4.79l2.2-2.09-0.51-.57s-0.93.81-2.24,2.1-3,3-4.64,4.89c-1.14,1.3-2.22,2.64-3.11,3.87a16.7,16.7,0,0,1-4.34-4.87,13.78,13.78,0,0,1-1.87-6.53c0.86-.39,1.75-0.7,2.6-1.07,1-.37,2.08-0.72,3.1-1a54.57,54.57,0,0,1,5.63-1.3c1.67-.29,3.07-0.45,4.05-0.52l1.13-.07h0.4l0-1-0.41,0c-0.28,0-.68,0-1.18.08-1,.08-2.44.25-4.14,0.55-0.85.15-1.77,0.33-2.73,0.57s-2,.52-3,0.82-2.08.7-3.14,1.1c-0.75.34-1.54,0.63-2.3,1,0-.14,0-0.29,0-0.43l0.15-.92,0.15-.92,0.21-1,0.42-1.92c0.12-.65.21-1.32,0.31-2,0.25-1.32.27-2.65,0.39-4,0-.66,0-1.33,0-2v-1l-0.1-1a21.94,21.94,0,0,0-1.9-7.47l-0.83-1.68-1-1.52c-0.18-.24-0.33-0.51-0.53-0.73l-0.61-.66c-0.41-.43-0.79-0.88-1.2-1.27a21.68,21.68,0,0,0-5.41-3.51l-1.35-.58-0.65-.28-0.66-.19-2.47-.73c-1.59-.29-3-0.59-4.11-0.73l-3.62-.32,0,0.47,3.57,0.37c1.13,0.15,2.48.46,4,.77l2.41,0.75,0.64,0.2,0.63,0.28,1.3,0.59a21,21,0,0,1,5.16,3.47c0.39,0.39.75,0.82,1.13,1.24l0.57,0.64c0.19,0.22.32,0.47,0.49,0.71l1,1.46,0.77,1.62a21.55,21.55,0,0,1,1.72,7.19l0.09,0.95v1c0,0.64,0,1.28,0,1.92-0.13,1.28-.17,2.58-0.42,3.85-0.28,2.56-1.31,5-1.36,7.79,0,0,0,.07,0,0.11a27.24,27.24,0,0,0-2.66,1.46l-1.44.87-1.33,1-1.28.94-1.14,1-1.08,1c-0.35.31-.63,0.66-0.93,1-0.58.64-1.13,1.21-1.59,1.74l-1.08,1.46L251.67,198l0.39,0.26L253,197l1.09-1.41c0.46-.51,1-1.06,1.59-1.68,0.3-.3.58-0.64,0.93-0.94l1.08-.92,1.14-1,1.27-.9,1.32-.92,1.43-.83a23.85,23.85,0,0,1,2.31-1.23,15,15,0,0,0,2,6.56,17.91,17.91,0,0,0,4.69,5.23l-0.35.52c-0.26.38-.46,0.76-0.65,1.08a7.59,7.59,0,0,0-.46.86l-0.37.77,0.47,0.2,0.37-.74a7.25,7.25,0,0,1,.46-0.83c0.2-.31.39-0.68,0.66-1l0.34-.48a21.5,21.5,0,0,0,5.51,2.84c0.84,0.21,1.63.47,2.41,0.63l-0.34,0-4.32.36c-1.47.11-2.94,0.19-4.32,0.24l-3.76.09-1.5,0c-0.45,0-.84,0-1.16,0-0.64,0-1,.06-1,0.06l-0.08,1s0.37,0.08,1,.17a22.83,22.83,0,0,0,2.72.25c1.12,0,2.44,0,3.84-.06s2.89-.17,4.38-0.3l0.82-.08-0.06.35h0a2,2,0,0,1,.33-0.25l2.36,1.27a4.71,4.71,0,0,1-.69.45,16.34,16.34,0,0,1-1.79,1,25.23,25.23,0,0,1-2.54,1.1c-1,.33-2,0.81-3.26,1.13s-2.52.73-3.93,1.1l-4.54,1c-1.59.38-3.32,0.58-5.09,0.9l-2.72.45c-0.93.15-1.88,0.23-2.85,0.35l-4.45.54a17.71,17.71,0,0,0-.56-2.28A15.54,15.54,0,0,0,245.42,208.73ZM270.7,265a4,4,0,0,1,1,.52,3.54,3.54,0,0,1,.79.82,3.73,3.73,0,0,1,.47,1.06l0.09,0.32,0.07,0.3,0.16,0.65,0.34,1.28c0.22,0.85.44,1.69,0.6,2.54a18,18,0,0,1,.35,2.55,10,10,0,0,1,0,1.27,9.3,9.3,0,0,1-.13,1.25,8.22,8.22,0,0,1-.32,1.19,5.21,5.21,0,0,1-.54,1.09,5.14,5.14,0,0,1-.72.93,5.29,5.29,0,0,1-.72.62h0l-0.24.17h0a3.89,3.89,0,0,1-.65.3,4.61,4.61,0,0,1-.73.19,4.23,4.23,0,0,1-1.26,0l-0.18,0a6.1,6.1,0,0,1-1.43-.56,6.59,6.59,0,0,1-.67-0.41,6.08,6.08,0,0,1-.61-0.47l-0.06,0-0.43-.39-0.25.5a11.55,11.55,0,0,1-2.17,1.48,5.64,5.64,0,0,1-2.33.87,7.27,7.27,0,0,1-4.78-1.57,15.71,15.71,0,0,1-5.83-8.9,13.2,13.2,0,0,1-.38-2.67,12.57,12.57,0,0,1,.19-2.66,19,19,0,0,1,.78-2.62,12.64,12.64,0,0,1,1.29-2.35,8.17,8.17,0,0,1,.65-0.79,12.94,12.94,0,0,1,1.14-.8A9.23,9.23,0,0,1,259,259c0.89,0,1.88.06,2.92,0.1h0l0.06,0h0.19a8.58,8.58,0,0,1,1.24,0l0.62,0.06c0.21,0,.4.07,0.61,0.11s0.39,0.11.59,0.16,0.37,0.15.56,0.21a3.64,3.64,0,0,1,.53.26,2.64,2.64,0,0,1,.48.32,2.1,2.1,0,0,1,.43.38,3.71,3.71,0,0,1,.39.42l0.34,0.47c0.1,0.17.19,0.35,0.28,0.52a2.65,2.65,0,0,1,.25.55l0.22,0.58c0.12,0.4.21,0.81,0.34,1.22h0l0.07,0.44h0.42A4.25,4.25,0,0,1,270.7,265Zm1.78,17.38h0Zm48.82,2.11c-0.55.45-1.06,0.84-1.54,1.18a33.75,33.75,0,0,1-3.23,1.72,20,20,0,0,1-4,1.36,15.91,15.91,0,0,1-2.07.27,12.47,12.47,0,0,1-1.68,0c1.53-6,3.94-16.14,4.42-21.37l-1-.09c-0.7,7.64-5.62,25.95-5.66,26.11s-2,6.1-3.24,9.76c-0.56,1.41-1.15,2.8-1.76,4.17a46.57,46.57,0,0,1-2.13,4.27,13.16,13.16,0,0,1-2.79,3.61c-1,1-2.56.56-4.14,0.38s-3.13-.58-4.7-0.94c-6.25-1.47-12.45-3.28-18.63-5.12S256.82,306,250.69,304l0.11,0a4.14,4.14,0,0,0-1.21-.33,7.1,7.1,0,0,0-1.12-.06,10.82,10.82,0,0,0-2.14.28,18.43,18.43,0,0,0-3.91,1.46,35.48,35.48,0,0,0-6.77,4.56c-1,.87-2.05,1.76-3,2.69s-1.91,1.9-2.83,2.88-1.82,2-2.68,3-1.72,2.06-2.55,3.11l-0.09.12,0,0.16A42.46,42.46,0,0,1,221.34,333a28.11,28.11,0,0,1-6.44,9.34,21.29,21.29,0,0,1-4.61,3.24c-0.42.22-.85,0.4-1.28,0.6s-0.9.35-1.34,0.52l-1.33.41-1.37.33a20.47,20.47,0,0,1-10-.53l0.84-.05c0.66-.09,1.37-0.15,2.12-0.3s1.53-.28,2.34-0.49,1.63-.44,2.46-0.7,1.65-.62,2.48-0.93,1.62-.76,2.37-1.22a19.38,19.38,0,0,0,2.14-1.45,14.69,14.69,0,0,0,1.82-1.6,12.08,12.08,0,0,0,1.43-1.63l1.05-1.5c0.26-.48.46-0.91,0.64-1.26l0.54-1.1-0.92-.4-0.57,1c-0.19.32-.39,0.71-0.66,1.14L212,337.78a18.62,18.62,0,0,1-3.13,2.87,18,18,0,0,1-2,1.29c-0.71.41-1.49,0.72-2.24,1.09s-1.56.63-2.35,0.86-1.57.48-2.35,0.64-1.52.32-2.24,0.45-1.4.2-2,.3l-3.63.45a14.49,14.49,0,0,1-6.38-6.25c-0.15-.31-0.28-0.63-0.4-1,0.31,0.13.65,0.25,1.05,0.37a11.65,11.65,0,0,0,1.81.36,18.71,18.71,0,0,0,2.17.14c0.77,0,1.59,0,2.43-.1a18.24,18.24,0,0,0,2.57-.41c0.43-.11.87-0.17,1.3-0.31l1.28-.42,0.64-.22,0.61-.28,1.21-.57c0.79-.4,1.51-0.89,2.23-1.32s1.31-1,1.92-1.46a5.47,5.47,0,0,0,.83-0.74l0.73-.74a13.06,13.06,0,0,0,1.23-1.32l0.86-1.09,0.73-1-0.79-.61-0.81.83-0.92,1A12.08,12.08,0,0,1,205,331.8a19.09,19.09,0,0,1-1.57,1.27c-0.59.4-1.19,0.86-1.85,1.26s-1.37.77-2.11,1.1-1.49.66-2.29,0.87l-1.17.35c-0.39.12-.8,0.17-1.19,0.25a20.81,20.81,0,0,1-2.34.33c-0.76.06-1.51,0.08-2.21,0.07s-1.37-.06-2-0.13L186.6,337l-1.3-.11-0.64,0a12.75,12.75,0,0,1-.35-2.72,15.46,15.46,0,0,1,1-5.49,23.42,23.42,0,0,1,1.13-2.6l0.16-.32,0.17-.33c0.1-.19.22-0.39,0.35-0.59,0.25-.4.51-0.79,0.79-1.17a34.79,34.79,0,0,1,3.77-4.33,60.32,60.32,0,0,1,9.08-7.22q9.63-6.72,19.21-13.51c3.19-2.27,6.38-4.54,9.53-6.88s6.13-5,9.11-7.44a22.72,22.72,0,0,1,4.71-3.17,4.67,4.67,0,0,1,2.5-.47,3,3,0,0,1,1.12.41l1.25,0.77q5,3.1,10.05,6.09c3.38,2,6.78,3.94,10.25,5.78,1.74,0.92,3.49,1.81,5.28,2.64,0.9,0.41,1.81.8,2.74,1.15a11.65,11.65,0,0,0,3,.77l0.54,0v-0.54h0a29.67,29.67,0,0,1,.2-3.11c0.11-1,.24-2.08.41-3.11,0.35-2.07.8-4,1.34-6l0.16-.5h0c0.6-3,3.37-16.43,5.65-23.47l-1-.37c-2.33,7.2-5.16,20.91-5.7,23.57-0.25,0-.5-0.09-0.74-0.14s-0.78-.17-1.16-0.27c-0.77-.19-1.53-0.46-2.29-0.73a33.94,33.94,0,0,1-3.77-1.7,3.88,3.88,0,0,0,.43-0.38,6,6,0,0,0,.91-1.13,6.15,6.15,0,0,0,.64-1.26,9.06,9.06,0,0,0,.38-1.35,10.28,10.28,0,0,0,.15-1.38,10.89,10.89,0,0,0,0-1.37,18.93,18.93,0,0,0-.36-2.68c-0.17-.88-0.39-1.74-0.61-2.6l-0.34-1.27-0.16-.63-0.08-.34-0.09-.32a4.87,4.87,0,0,0-.6-1.34,4.53,4.53,0,0,0-1-1.07,5,5,0,0,0-1.31-.67,5.6,5.6,0,0,0-1-.22c0-.11,0-0.21,0-0.32a5,5,0,0,0-.08-0.72,7.19,7.19,0,0,0-.42-1.41c-0.11-.23-0.2-0.46-0.32-0.68l-0.44-.63a3.6,3.6,0,0,0-.52-0.56,3.21,3.21,0,0,0-.59-0.49,3.86,3.86,0,0,0-.65-0.41,5,5,0,0,0-.69-0.32,5.11,5.11,0,0,0-.71-0.23c-0.24,0-.48-0.12-0.73-0.15a7.42,7.42,0,0,0-1.45-.08,6.9,6.9,0,0,0-1.44.17l0.25-.06h0c-1,0-1.94-.34-2.93-0.36l0-.11-0.12-.48-0.24-1-0.47-1.92-0.94-3.85-1.86-7.7-1.82-7.72c-0.6-2.58-1.2-5.16-1.83-7.73h0l-0.15-.6-0.55.24-9.28,4c-1.55.66-3.11,1.3-4.67,1.91q-1.17.46-2.35,0.87-0.59.21-1.18,0.39a7.39,7.39,0,0,1-1.14.26h0l-0.6.09,0.18,0.6,2.07,7c0.16,0.59.32,1.17,0.48,1.75s0.31,1.17.44,1.75,0.28,1.17.39,1.75,0.21,1.17.33,1.76h0l0.11,0.57,0.51-.09a13.24,13.24,0,0,1,1.74-.16,13.08,13.08,0,0,1,1.76.08,9.53,9.53,0,0,1,3.31.92,7.54,7.54,0,0,1,2.61,2.1,8.29,8.29,0,0,1,.9,1.44,12.23,12.23,0,0,1,.63,1.58,12.46,12.46,0,0,1,.4,1.71,8.74,8.74,0,0,1,.11,1.7,7,7,0,0,1-.88,3.19,8.05,8.05,0,0,1-2.28,2.48,10.91,10.91,0,0,1-1.48.87,3.63,3.63,0,0,1-1.63.62h0l-0.29.25,0,0.52a13.6,13.6,0,0,1-.71,3.61,12.47,12.47,0,0,1-1.63,3.26,11.88,11.88,0,0,1-2.5,2.59,13.58,13.58,0,0,1-3.16,1.76,20.61,20.61,0,0,1-3.57,1,20,20,0,0,1-3.68.38,10.82,10.82,0,0,1-11-7.73,18.84,18.84,0,0,1-.88-3.61l-0.12-.92c0-.32-0.06-0.65-0.08-1,0-.6,0-1.23,0-1.85a22,22,0,0,1,1.59-7.31,24.76,24.76,0,0,1,1.68-3.39,22.05,22.05,0,0,1,2.17-3.08h0l0.21-.22-0.1-.29c-1.51-4.5-3-9-4.55-13.5l-0.58-1.69-0.28-.81a2.83,2.83,0,0,1-.16-0.74,3.37,3.37,0,0,1,1.16-2.67,9.39,9.39,0,0,1,2.8-1.77c1.06-.44,2.19-0.92,3.28-1.4,4.35-1.91,8.68-3.92,13-5.93,2.15-1,4.3-2.12,6.43-3.15,1.17-.55,2.33-1.2,3.49-1.83l1.74-.16,6-.82c1-.15,1.93-0.25,2.87-0.43l2.75-.53c1.79-.37,3.52-0.62,5.14-1.05l4.59-1.16c1.42-.44,2.74-0.9,4-1.3s2.31-.92,3.31-1.31a25.59,25.59,0,0,0,4.42-2.37,9.46,9.46,0,0,0,1.08-.83l12.17,6.54c2.66,1.47,5.35,2.9,8,4.41,1.32,0.74,2.64,1.5,3.92,2.29,0.64,0.39,1.28.79,1.9,1.21l0.72,0.51-2.54,0-8.59,0-8.7,0-4,0v1l4,0,8.65,0,8.52,0,3.83-.05v0h0.15c3.52-.3,7.11-0.49,10.64-0.54a68.39,68.39,0,0,1,10.56.54l0.32,0,0.19-.25c1.23-1.7,2.61-3.35,4-4.94s2.89-3.13,4.42-4.62,3.09-2.94,4.72-4.31c0.8-.71,1.64-1.37,2.46-2s1.68-1.31,2.52-2l0.38-.3-0.28-.4a11.59,11.59,0,0,1-.79-1.35,15.49,15.49,0,0,1-.64-1.47,15.72,15.72,0,0,1-.49-1.53c-0.14-.52-0.25-1-0.34-1.57a16,16,0,0,1-.18-1.59,14,14,0,0,1,0-1.6c0-.54.08-1.07,0.11-1.6s0.16-1.07.26-1.58a12.86,12.86,0,0,1,.42-1.54,8.74,8.74,0,0,1,.63-1.43,4.72,4.72,0,0,1,2.09-2.06,4.05,4.05,0,0,1,2.88-.12,6.43,6.43,0,0,1,2.59,1.59h0l0.36,0.35,0.36-.37a38.53,38.53,0,0,1,4.21-3.67,36.22,36.22,0,0,1,4.69-3,27.7,27.7,0,0,1,5.1-2.15,19.19,19.19,0,0,1,5.39-.87A15.68,15.68,0,0,1,380,179a16.24,16.24,0,0,1,4.78,2.49,14.72,14.72,0,0,1,5.55,8.92,17,17,0,0,1,.24,5.37,13.6,13.6,0,0,1-1.56,5.06,29.2,29.2,0,0,1-7.16,8.28,27.61,27.61,0,0,1-9.83,4.84A37.18,37.18,0,0,1,361,215h-0.19l-0.16.12q-4.27,3.26-8.49,6.59c-2.82,2.22-5.66,4.4-8.45,6.64l-4.21,3.35-2.1,1.67c-0.7.55-1.41,1.14-2.1,1.65a9,9,0,0,1-2.27,1,19.77,19.77,0,0,1-2.54.58c-0.57.09-1.14,0.16-1.72,0.22-0.91,0-3.33-.06-6.6-0.08l-7.18,0c-2.63,0-5.43-.05-8.23,0l-15.58.07-7.18.09v1l7.18,0.09L306.67,238c2.8,0,5.65,0,8.27,0l7.2,0,2.76,0a17.6,17.6,0,0,1,1.52,1.46c0.49,0.52.95,1.07,1.4,1.62a30,30,0,0,1,2.45,3.52c0.37,0.61.71,1.24,1,1.87s0.64,1.28.91,1.94,0.53,1.33.8,2l0.34,1c0.09,0.33.2,0.65,0.27,1a20.63,20.63,0,0,1,.57,4.18,26,26,0,0,1-.16,4.25c-0.09.75-.21,1.49-0.35,2.23s-0.59,1.94-1,3.28c-0.23.71-.48,1.47-0.77,2.27s-0.64,1.63-1,2.49-0.76,1.73-1.21,2.6-0.92,1.74-1.42,2.6-1.06,1.68-1.63,2.47a28.67,28.67,0,0,1-1.77,2.27A29.08,29.08,0,0,1,321.3,284.53Zm119.2-24.07a16.66,16.66,0,0,1-1.38,4.93,12.91,12.91,0,0,0-.25-1.3,18.8,18.8,0,0,0-.71-2.33,11.08,11.08,0,0,0-.54-1.3,14.29,14.29,0,0,0-1.58-2.7l-0.51-.67-0.61-.61a10.11,10.11,0,0,0-1.37-1.13c-0.25-.17-0.52-0.31-0.79-0.46a4.53,4.53,0,0,0-.83-0.4,10.19,10.19,0,0,0-3.59-.79,15,15,0,0,0-3.59.3,23.26,23.26,0,0,0-3.3.95,32.44,32.44,0,0,0-5.41,2.61,39.91,39.91,0,0,0-4.8,3.31l0.62,0.78s0.44-.34,1.27-0.9,2-1.33,3.51-2.15a36.39,36.39,0,0,1,5.27-2.37,21.87,21.87,0,0,1,3.11-.82,13.55,13.55,0,0,1,3.24-.21,8.94,8.94,0,0,1,3.07.7,3.46,3.46,0,0,1,.69.34c0.22,0.13.45,0.24,0.66,0.39a8.54,8.54,0,0,1,1.15,1l0.52,0.53,0.44,0.58a7.79,7.79,0,0,1,.78,1.19,7.93,7.93,0,0,1,.61,1.22,9.8,9.8,0,0,1,.48,1.19,18.48,18.48,0,0,1,.65,2.18c0.18,0.66.34,1.23,0.45,1.71s0.26,0.9.35,1.16a23.39,23.39,0,0,1-2.17,3.11,32,32,0,0,1-4,4c-0.7.6-1.49,1.23-2.18,1.74a9.88,9.88,0,0,1-1.18.65c-0.43.19-.85,0.4-1.29,0.58-3.51,1.48-7.12,2.81-10.71,4.17-7.19,2.71-14.39,5.43-21.5,8.36s-14.18,6-21,9.65a80.33,80.33,0,0,0-9.91,6.08c-0.8.56-1.55,1.19-2.31,1.82s-1.47,1.26-2.21,1.78a20.7,20.7,0,0,1-4.76,2.79,7.61,7.61,0,0,1-5.1.44,7.43,7.43,0,0,1-3.89-3.28,21.45,21.45,0,0,1-2.22-5.06c-0.15-.45-0.28-0.9-0.45-1.4l-0.28-.7-0.33-.7c-0.45-.89-0.91-1.75-1.43-2.59a47,47,0,0,0-3.37-4.8,53.16,53.16,0,0,0-4-4.3,43.67,43.67,0,0,0-9.16-6.74c0.37-.38.73-0.78,1.08-1.21,0.62-.75,1.22-1.51,1.83-2.33s1.21-1.64,1.77-2.5,1.11-1.73,1.59-2.62,0.94-1.77,1.36-2.64c0.22-.46.42-0.92,0.6-1.38,1.62,1.29,3.24,2.58,4.87,3.85l5.72,4.41,5.77,4.34q2.9,2.16,5.83,4.26h0l0.27,0.2,0.3-.18c2.92-1.74,5.84-3.46,8.74-5.23l8.71-5.28q8.72-5.25,17.3-10.74l0.2-.13,0-.22h0a53,53,0,0,1,1.38-5.77,59.22,59.22,0,0,1,2-5.6,34.39,34.39,0,0,1,6.08-10,20.53,20.53,0,0,1,2.1-2,18.44,18.44,0,0,1,2.36-1.68c0.42-.23.85-0.47,1.27-0.67s0.92-.44,1.36-0.6a18.89,18.89,0,0,1,2.74-.91,7.88,7.88,0,0,1,5.43.26,5.31,5.31,0,0,1,2,1.77,6.89,6.89,0,0,1,.92,1.91l-0.3.11a16.44,16.44,0,0,0-1.71.8c-0.58.27-1.13,0.63-1.7,1s-1.09.72-1.62,1.08-1,.8-1.47,1.18-0.87.83-1.27,1.22-0.72.81-1,1.18a11,11,0,0,0-.83,1l-0.58.84c-0.32.46-.49,0.74-0.49,0.74l0.8,0.6s0.23-.22.6-0.61,0.9-1,1.57-1.59c0.34-.31.67-0.69,1.09-1s0.81-.72,1.25-1.08c0.89-.72,1.87-1.45,2.89-2.12,0.52-.31,1-0.66,1.57-0.93s1.06-.55,1.57-0.8a22.06,22.06,0,0,1,2.9-1.18,20,20,0,0,1,2.13-.62l0.46-.1a13.83,13.83,0,0,1,5.88.6,15,15,0,0,1,8,7.29A17.68,17.68,0,0,1,440.5,260.46Z"/><circle class="cls-4" cx="290.21" cy="177.97" r="0.58" transform="translate(14.78 378.05) rotate(-67.51)"/><circle class="cls-4" cx="286.96" cy="181.46" r="0.44" transform="translate(9.55 377.2) rotate(-67.51)"/><circle class="cls-4" cx="290.33" cy="183.91" r="0.53" transform="translate(9.37 381.83) rotate(-67.51)"/></svg>