<svg id="Ebene_5" data-name="Ebene 5" xmlns="http://www.w3.org/2000/svg" xmlns:xlink="http://www.w3.org/1999/xlink" width="450" height="450" viewBox="0 0 450 450"><defs><style>.cls-1,.cls-6{fill:none;}.cls-2{fill:#bcbebe;}.cls-3,.cls-4,.cls-6{stroke:#000;stroke-miterlimit:10;}.cls-4,.cls-5{fill:#666;}.cls-7{clip-path:url(#clip-path);}.cls-8{fill:#dec0ca;}.cls-9{fill:#fff;}.cls-10{fill:#1d1d1b;}.cls-11{fill:#c8c8c8;}.cls-12{fill:#e6cad4;}</style><clipPath id="clip-path"><path class="cls-1" d="M194.24,170.74a12.21,12.21,0,0,1-.69-4.35c-0.08-3.64.6-4,1.33-4.35l0.5-.25c2.3-1,24.17-9.13,38.69-14.47,14.67,5.34,36.77,13.46,39.1,14.48l0.65,0.33c1,0.46,1.66.8,1.58,4.28a10.43,10.43,0,0,1-.76,4.28l-40.57,11.55Z"/></clipPath></defs><title>gonimo-Vorteile</title><path class="cls-2" d="M132.47,351.75s-4.58.33-5.75,3.25a8.42,8.42,0,0,0-8.58,4.75,32,32,0,0,0-2,21.58c2.08,7.25,3.67,9.25,12.58,9,0,0,2.75,3.42,9.5,2.83a18,18,0,0,0,10.58-4.42s4.67,3.33,9.08,2.92,11.83-6.33,14.25-8.33A92.35,92.35,0,0,1,190,372.75c6.67-2.75,16.33-5.08,21.67-6.67s10.67-5.42,10.83-9.42-2.67-8.58-3.25-12-0.58-6.58.58-8.75a18.54,18.54,0,0,1,3.75-4.33s6.08,1.83,10,1.92,14.08-1.25,14.08-1.25,5.25,2.17,5.67,7.33A19.91,19.91,0,0,1,251.64,350c-0.92,2-5.17,10.67,2.67,14.83s19.25,2,31.08,13.25,16,13,20.17,13a17.46,17.46,0,0,0,6.83-1.25s7.58,3.58,12.5,2.67,9.33-4.58,9.33-4.58,5,1.42,7.08-.25,5.83-10.5,5.58-20.58-3.67-10.75-5.08-11.42-7.67-2.25-7.67-2.25-8.33-6-22.33-.83c0,0-7.42,2.25-19.25.42s-19.83-3.92-22.33-7.33-3.67-15.33-2.67-24.33c0,0,8.58-15.33,10.25-18.17l-102.08-7.5Z"/><path class="cls-3" d="M306.72,337.33l-28.1-14.5,4.43-9.58L305,329.58l4.67,2.58A17.92,17.92,0,0,0,306.72,337.33Z"/><path class="cls-4" d="M316.64,341.83s2.07,0.72,2.63-.5a2,2,0,0,0-.79-2.62S317.6,341.5,316.64,341.83Z"/><path class="cls-5" d="M199.55,210.88s-3.5-.37-6.17,4.13c-3.19,5.39-12.33,89.33-12.33,89.33s68.5,6.67,96.5-.58c0,0,25.63-62-8.37-93Z"/><path d="M199.45,212a5,5,0,0,0-2.49.47,7.16,7.16,0,0,0-2.11,1.71,10.48,10.48,0,0,0-.83,1.12l0,0h0a0.34,0.34,0,1,0,0,0l0,0-0.08.17-0.15.35a6,6,0,0,0-.22.67c-0.14.42-.26,0.92-0.37,1.41s-0.23,1-.33,1.48c-0.83,4-1.47,8-2.09,12-1.22,8.07-2.09,16.16-3.13,24.26-2.08,16.2-4.59,32.42-5.59,48.66h0l-0.67-.55c4,0.33,7.93.59,11.95,0.84l12,0.68,6,0.28,6,0.23c2,0.09,4,.12,6,0.19s4,0.11,6,.13l6,0.07,6,0c2,0,4-.07,6-0.1l3-.06,3-.15,3-.15c1,0,2-.08,3-0.18l6-.48,6-.73c2-.34,3.93-0.74,5.9-1.1h0l-0.34.29c0.7-1.91,1.32-3.88,1.9-5.84s1.17-3.93,1.67-5.92,1-4,1.46-6,0.88-4,1.25-6,0.71-4,1-6.05c0.16-1,.29-2,0.41-3s0.26-2,.34-3c0.21-2,.33-4.07.44-6.11s0.13-4.08.06-6.11c0-1,0-2-.11-3s-0.09-2-.2-3l-0.31-3-0.45-3c-0.13-1-.36-2-0.55-3s-0.39-2-.67-3-0.48-2-.8-2.93l-1-2.88c-0.34-1-.75-1.87-1.12-2.81A28.45,28.45,0,0,0,279.2,226a56,56,0,0,0-3-5.27,52.69,52.69,0,0,0-3.64-4.82,24.88,24.88,0,0,0-2-2.25,6.22,6.22,0,0,1-1.74-2.57h0l0.34,0.37-69.62.51h-0.11Zm0.1-1.9,69.63-.1h0.25l0.09,0.26v0.07a6.48,6.48,0,0,1,2.64,1.82,26.78,26.78,0,0,1,2.13,2.35,55,55,0,0,1,3.84,5,58.27,58.27,0,0,1,3.13,5.49,30.3,30.3,0,0,1,1.34,2.86c0.39,1,.83,1.94,1.19,2.92l1,3c0.33,1,.56,2,0.85,3s0.51,2,.72,3.06,0.46,2,.58,3.09l0.44,3.11,0.29,3.12c0.11,1,.12,2.09.18,3.13s0.08,2.09.08,3.13c0,2.09,0,4.17-.13,6.25s-0.27,4.15-.51,6.22c-0.09,1-.24,2.07-0.37,3.1s-0.27,2.06-.45,3.08c-0.3,2.06-.71,4.09-1.13,6.13-0.85,4.06-1.86,8.09-3.09,12A109.23,109.23,0,0,1,278,303.94l-0.11.25-0.23,0h0c-2,.45-4,0.93-5.94,1.36l-6,.94-6,.63c-2,.24-4,0.28-6.06.42l-3,.17-3,.09c-2,0-4,.15-6.06.15h-6.06l-6.06-.09c-2,0-4-.09-6.06-0.16s-4-.11-6.06-0.22c-4-.17-8.07-0.4-12.1-0.66s-8.06-.53-12.08-0.89-8-.71-12.06-1.14l-0.29-.05,0.28-.5h0c1-16.25,3.4-32.48,5.42-48.7,1-8.11,2-16.21,3.16-24.3,0.61-4,1.18-8.08,2-12.12,0.1-.5.18-1,0.31-1.51s0.22-1,.4-1.55c0.09-.26.15-0.55,0.25-0.78l0.15-.35,0.07-.18,0,0,0-.08v0l0.05-.09a12.55,12.55,0,0,1,.93-1.33,7.37,7.37,0,0,1,5.8-3.06Z"/><path class="cls-5" d="M204.18,196.5s-5.75,4.88-4.62,14.38l34.13,21.38,35.5-21.5s1.13-9.62-3.49-13.75Z"/><path d="M204.39,197a12.25,12.25,0,0,0-1.14,1.25,15.39,15.39,0,0,0-1.06,1.57c-0.16.27-.32,0.54-0.46,0.83s-0.3.56-.41,0.86a16.42,16.42,0,0,0-.66,1.78c-0.11.3-.16,0.61-0.25,0.92a7.82,7.82,0,0,0-.2.93l-0.16.94L200,207a18.58,18.58,0,0,0-.06,1.9c0,0.32,0,.63,0,1l0,1h0l-0.21-.36,17.05,10.72,17.09,10.65h-0.52L251.14,221l17.78-10.7h0l-0.24.37c0-1.18-.08-2.39-0.17-3.57,0-.59-0.1-1.18-0.16-1.77s-0.14-1.17-.25-1.75c0-.29-0.12-0.57-0.18-0.86a8.17,8.17,0,0,0-.22-0.84l-0.25-.83-0.3-.81c-0.1-.27-0.25-0.51-0.36-0.77a5.21,5.21,0,0,0-.42-0.74,5,5,0,0,0-.47-0.71l-0.54-.66h0l0.33,0.13ZM204,196l61.7,0.5h0.21l0.12,0.13h0l0.73,0.66a6,6,0,0,1,.64.74,4.32,4.32,0,0,1,.56.8c0.16,0.28.35,0.55,0.48,0.85l0.41,0.88c0.13,0.3.22,0.6,0.32,0.91a9.34,9.34,0,0,1,.26.92c0.08,0.31.17,0.62,0.22,0.93a18.06,18.06,0,0,1,.4,3.76c0,0.63,0,1.25-.08,1.88a13.71,13.71,0,0,1-.28,1.87l-0.07.29-0.17.08h0L251.72,222l-17.78,10.7-0.27.16-0.26-.16h0l-17-10.72L199.29,211.3l-0.24-.13,0-.23h0l0-1c0-.33-0.06-0.66,0-1a19.61,19.61,0,0,1,.07-2l0.09-1,0.17-1a8.57,8.57,0,0,1,.21-1c0.09-.32.15-0.65,0.26-1a17.46,17.46,0,0,1,.7-1.89c0.12-.31.29-0.61,0.43-0.91s0.32-.59.49-0.88a16.4,16.4,0,0,1,1.13-1.67,12.45,12.45,0,0,1,1.38-1.51Z"/><path class="cls-5" d="M230.68,210.72s3.16,1.59,5.56,0c0,0-1.75-1.62-2.56-6.41C233.68,204.31,232.74,210.25,230.68,210.72Z"/><path class="cls-2" d="M195.68,176.13c-0.26.27,3.5,22.38,18.38,29.38,0,0,1.6,6.56,8.08,7.25s8.79-1.94,9.79-3.37,1.79-6,1.79-6,0,6,3.9,9a11.33,11.33,0,0,0,9.56,1.81c1.25-.37,4.81-2.87,6.06-7.19,0,0,6.06-2.94,7.56-4.62s6.63-6.69,8.25-10.06l13-17.92S204.14,167.42,195.68,176.13Z"/><path d="M196.19,176.33c0,0.14.05,0.05,0,0l0,0.24,0.08,0.53,0.21,1.08q0.23,1.08.51,2.16c0.38,1.43.81,2.85,1.3,4.25a50.78,50.78,0,0,0,3.63,8.1c0.37,0.64.74,1.28,1.14,1.9s0.82,1.23,1.24,1.83a35.36,35.36,0,0,0,2.83,3.39c0.52,0.51,1,1,1.6,1.52s1.13,0.94,1.7,1.39,1.19,0.85,1.83,1.21,1.28,0.71,1.93,1h0l0.21,0.11,0.06,0.22a10.16,10.16,0,0,0,.6,1.58,11.12,11.12,0,0,0,.85,1.49,10.76,10.76,0,0,0,1.08,1.33l0.62,0.58,0.68,0.51a8.62,8.62,0,0,0,1.49.79,5.29,5.29,0,0,0,.8.27,4.08,4.08,0,0,0,.83.19c0.28,0,.56.11,0.84,0.13l0.9,0.07a16.88,16.88,0,0,0,1.73,0,11,11,0,0,0,1.71-.21,9.58,9.58,0,0,0,1.64-.47,6.9,6.9,0,0,0,2.71-1.92,7.88,7.88,0,0,0,.5-0.65,4.34,4.34,0,0,0,.38-0.73,14.7,14.7,0,0,0,.55-1.64c0.31-1.13.57-2.3,0.78-3.46l1,0.09a13.26,13.26,0,0,0,.16,1.78,14.06,14.06,0,0,0,.38,1.76,12,12,0,0,0,.6,1.69,10.74,10.74,0,0,0,.85,1.55,8.72,8.72,0,0,0,1.14,1.32c0.22,0.18.44,0.39,0.67,0.54s0.52,0.37.77,0.51a10.12,10.12,0,0,0,1.58.77,10.39,10.39,0,0,0,1.71.5,11.53,11.53,0,0,0,3.55.15,6.57,6.57,0,0,0,1.69-.38,7.75,7.75,0,0,0,1.45-.92,11.7,11.7,0,0,0,4-5.8v0l0.07-.21,0.19-.1c1.61-.83,3.21-1.71,4.75-2.64,0.38-.23.76-0.48,1.13-0.73a11.16,11.16,0,0,0,1-.79,5.35,5.35,0,0,0,.44-0.42l0.46-.51,0.94-1c1.25-1.34,2.48-2.67,3.66-4a23.73,23.73,0,0,0,3.08-4.35l0-.05,0,0,13.06-17.85v0l0.36,0.79q-10.84-.92-21.72-1.53c-7.25-.41-14.5-0.74-21.75-0.91s-14.51-.21-21.75.1c-3.62.16-7.23,0.41-10.8,0.89a45.47,45.47,0,0,0-5.28,1,10.91,10.91,0,0,0-4.63,2.13Zm-0.9-.59a11.74,11.74,0,0,1,5.14-2.42,46.49,46.49,0,0,1,5.41-1c3.63-.49,7.27-0.73,10.9-0.89,7.28-.3,14.55-0.25,21.82-0.07s14.53,0.52,21.78.94,14.5,0.93,21.75,1.55l0.88,0.08-0.52.72v0l-12.92,17.95,0.05-.09a24.7,24.7,0,0,1-3.22,4.61c-1.19,1.42-2.44,2.76-3.71,4.08l-0.94,1-0.46.5a6.61,6.61,0,0,1-.55.52,12.23,12.23,0,0,1-1.15.85c-0.39.26-.79,0.51-1.18,0.75-1.59,1-3.23,1.79-4.9,2.58l0.26-.31v0a12.69,12.69,0,0,1-4.33,6.31,8.41,8.41,0,0,1-1.7,1.06,7.52,7.52,0,0,1-1.94.44,12.52,12.52,0,0,1-3.87-.16,11.39,11.39,0,0,1-1.87-.55,11,11,0,0,1-1.76-.87c-0.29-.16-0.52-0.35-0.79-0.52s-0.52-.42-0.78-0.63a9.71,9.71,0,0,1-1.29-1.49,11.71,11.71,0,0,1-.94-1.71,12.94,12.94,0,0,1-.65-1.82,15.06,15.06,0,0,1-.4-1.88,14.11,14.11,0,0,1-.17-1.93l1,0.09c-0.22,1.2-.47,2.38-0.8,3.56a15.64,15.64,0,0,1-.6,1.76,5.56,5.56,0,0,1-.45.87,8.31,8.31,0,0,1-.59.78,7.9,7.9,0,0,1-3.1,2.2,10.58,10.58,0,0,1-1.82.52,12,12,0,0,1-1.85.22,17.87,17.87,0,0,1-1.86,0l-0.9-.07c-0.33,0-.63-0.1-0.94-0.14a4.81,4.81,0,0,1-.92-0.22,6.14,6.14,0,0,1-.9-0.31,9.61,9.61,0,0,1-1.68-.89l-0.76-.57-0.69-.65a11.75,11.75,0,0,1-1.19-1.46,12.12,12.12,0,0,1-.93-1.63,11,11,0,0,1-.67-1.78l0.27,0.33h0c-0.68-.35-1.38-0.68-2-1.09s-1.29-.83-1.92-1.26-1.22-.92-1.78-1.44-1.12-1-1.66-1.57a36.39,36.39,0,0,1-2.93-3.5c-0.44-.62-0.88-1.24-1.28-1.88s-0.8-1.29-1.18-1.94a51.85,51.85,0,0,1-3.74-8.26c-0.5-1.43-1-2.87-1.33-4.34q-0.29-1.1-.52-2.21l-0.21-1.12-0.09-.58,0-.32a2.38,2.38,0,0,1,0-.52Z"/><path class="cls-6" d="M275.43,157.33c-1.5-.83-41.38-15.34-41.38-15.34s-39.46,14.51-41,15.34-4.71,1.67-4.54,9.17,3,8.67,3,8.67l42.5,12.25,43.06-12.25s3.11-1.17,3.28-8.67S276.93,158.17,275.43,157.33Z"/><path class="cls-5" d="M275.43,157.33c-1.5-.83-41.38-15.34-41.38-15.34s-39.46,14.51-41,15.34-4.71,1.67-4.54,9.17,3,8.67,3,8.67l42.5,12.25,43.06-12.25s3.11-1.17,3.28-8.67S276.93,158.17,275.43,157.33Z"/><path d="M275.26,157.7c-0.85-.38-1.67-0.68-2.53-1l-2.58-1L265,153.8l-10.36-4L233.88,142H234v0.23l-30,11.4-7.44,2.92c-1.24.5-2.48,1-3.61,1.54a5.46,5.46,0,0,0-2.68,2.35,9.17,9.17,0,0,0-1,3.58,25.79,25.79,0,0,0,0,3.91,16.26,16.26,0,0,0,.68,3.77,8.4,8.4,0,0,0,.75,1.69,4.56,4.56,0,0,0,.52.7,2.48,2.48,0,0,0,.54.46l-0.07,0L234.18,187v0h-0.28c7.21-2,14.38-4,21.58-6L277,174.85h0a3.16,3.16,0,0,0,.88-0.71,5.73,5.73,0,0,0,.71-1,7.73,7.73,0,0,0,.53-1.14,10.74,10.74,0,0,0,.38-1.21,16.2,16.2,0,0,0,.42-2.52c0.05-.42.06-0.85,0.08-1.28s0-.84,0-1.29a12.39,12.39,0,0,0-.07-1.28,12.64,12.64,0,0,0-.17-1.25,10.81,10.81,0,0,0-.31-1.22l-0.21-.59-0.26-.56a5.72,5.72,0,0,0-1.54-1.87,7.44,7.44,0,0,0-1-.66l-1.18-.59h0Zm0.38-.73a13.68,13.68,0,0,1,2.32,1.33,6.52,6.52,0,0,1,1.74,2.14l0.29,0.62,0.22,0.65a11.55,11.55,0,0,1,.32,1.31,13.42,13.42,0,0,1,.17,1.34,13.28,13.28,0,0,1,.06,1.33c0,0.42,0,.88,0,1.33s0,0.88-.09,1.32a16.92,16.92,0,0,1-.45,2.63,11.47,11.47,0,0,1-.41,1.28,8.44,8.44,0,0,1-.58,1.23,6.4,6.4,0,0,1-.8,1.12,3.63,3.63,0,0,1-1.16.89h0l-21.53,6.11c-7.16,2.1-14.34,4.13-21.48,6.29l-0.13,0-0.14,0h0l-42.53-12.1H191.3a3.29,3.29,0,0,1-1-.79,5.86,5.86,0,0,1-.68-0.9,9.71,9.71,0,0,1-.9-2,17.54,17.54,0,0,1-.77-4.11,24.72,24.72,0,0,1,0-4.12,10.46,10.46,0,0,1,1.19-4.1,6.27,6.27,0,0,1,1.42-1.72,8.92,8.92,0,0,1,1.83-1.12c1.26-.64,2.54-1.06,3.78-1.56l7.52-2.83q15.06-5.6,30.17-11h0l0.17-.06,0.17,0.06,20.71,7.62L265.28,153l5.17,1.94,2.58,1c0.85,0.34,1.76.67,2.59,1h0Z"/><g class="cls-7"><path d="M217.22,182.08h2.08V146.75h-2.08v35.33Zm5.33,0h2.08V146.75h-2.08v35.33Zm-10.67,0H214V146.75h-2.08v35.33Zm58.67-35.33v35.33h2.08V146.75h-2.08Zm-42.67,35.33H230V146.75h-2.08v35.33Zm-21.33,0h2.08V146.75h-2.08v35.33Zm-5.33,0h2.08V146.75h-2.08v35.33Zm-5.33,0H198V146.75h-2.08v35.33Zm64,0H262V146.75h-2.08v35.33Zm-5.33,0h2.08V146.75h-2.08v35.33Zm10.67,0h2.08V146.75h-2.08v35.33Zm-21.33,0H246V146.75h-2.08v35.33Zm-5.33,0h2.08V146.75h-2.08v35.33Zm10.67,0h2.08V146.75h-2.08v35.33Z"/></g><rect x="233.27" y="142" width="1" height="45"/><path class="cls-2" d="M214.8,128.75s-3.5-20-4.75-26.75-9.75-29.75-35-44.25c0,0-5.25-1.5-7,3s0.25,25,.5,29.75,4.25,24.5,12.5,35,15.5,12.25,20.25,19.5l12.75-4.25Z"/><path d="M214.11,128.8c-0.66-3.46-1.36-6.91-2-10.37s-1.29-7-1.89-10.47l-0.92-5.24a25.46,25.46,0,0,0-.57-2.54c-0.21-.82-0.47-1.64-0.76-2.47-0.55-1.65-1.2-3.28-1.91-4.88-0.33-.81-0.73-1.59-1.11-2.38s-0.77-1.57-1.2-2.34c-0.81-1.56-1.73-3-2.65-4.54-0.46-.75-1-1.46-1.46-2.19s-1-1.46-1.52-2.15l-1.59-2.1c-0.53-.7-1.13-1.35-1.69-2-1.1-1.37-2.33-2.62-3.55-3.89-0.59-.65-1.23-1.26-1.88-1.85l-1.93-1.8c-1.31-1.17-2.7-2.24-4-3.37l-4.27-3.09-4.47-2.79,0.15,0.06c-1.86-.46-4.12-0.24-5.34,1.18a4.31,4.31,0,0,0-.75,1.19l-0.08.16,0,0c0-.09,0,0,0,0l0,0.1-0.11.39a4.37,4.37,0,0,0-.18.77,26,26,0,0,0-.31,3.1c-0.19,4.28,0,8.61.26,12.93q0.18,3.24.43,6.48l0.48,6.48a59.58,59.58,0,0,0,1.08,6.33c0.45,2.11,1,4.2,1.56,6.27s1.23,4.13,2,6.16,1.53,4,2.39,6a54.57,54.57,0,0,0,3,5.68L180,123l0.93,1.3c0.6,0.87,1.31,1.67,2,2.52a56.35,56.35,0,0,0,4.45,4.61c1.58,1.45,3.25,2.8,5,4.12s3.43,2.66,5.06,4.14a23.18,23.18,0,0,1,4.3,5h0l-0.58-.2,12.75-4.25h0l-0.34.44Zm1.38-.08-0.94,12.06,0,0.34-0.31.1h0l-12.75,4.25-0.35.12-0.23-.32h0a26,26,0,0,0-4.26-4.7c-1.6-1.41-3.34-2.68-5.06-4s-3.41-2.72-5-4.2a57.52,57.52,0,0,1-4.56-4.75c-0.67-.84-1.4-1.66-2-2.58l-1-1.35-0.87-1.4a55.8,55.8,0,0,1-3-5.82c-0.88-2-1.7-4-2.42-6.09s-1.38-4.14-2-6.24-1.12-4.21-1.57-6.35A60.41,60.41,0,0,1,168,91.31l-0.92-13c-0.25-4.34-.5-8.67-0.34-13.06a25.65,25.65,0,0,1,.32-3.36,5.22,5.22,0,0,1,.19-0.82l0.11-.39,0-.1a0.61,0.61,0,0,1,0-.1l0-.05,0.1-.21a5.63,5.63,0,0,1,1-1.54A5.47,5.47,0,0,1,171.71,57a8.43,8.43,0,0,1,3.54.13l0.08,0,0.07,0L180,60l4.37,3.12c1.38,1.14,2.8,2.23,4.14,3.41l2,1.82c0.67,0.6,1.32,1.21,1.92,1.87,1.24,1.29,2.5,2.56,3.64,3.95,0.58,0.69,1.18,1.34,1.73,2.05l1.64,2.13c0.56,0.7,1.06,1.44,1.57,2.18s1,1.46,1.5,2.23c0.94,1.52,1.9,3,2.73,4.63,0.45,0.78.86,1.57,1.24,2.38s0.81,1.6,1.16,2.43c0.74,1.64,1.41,3.3,2,5,0.3,0.85.57,1.71,0.81,2.61a26.77,26.77,0,0,1,.6,2.64l0.94,5.23c0.64,3.49,1.24,7,1.83,10.48s1.14,7,1.71,10.5Z"/><path class="cls-8" d="M169.89,71.33s1.83,25,2.83,29.67,6.71,24.88,30.71,41.25l5.63-6.62s-5-19.75-6.12-26.37-6-25.25-12.37-33.5-12.92-13.5-14.33-13.33S169,61.83,169.89,71.33Z"/><path d="M170,71.29h0c1,6.84,1.3,13.68,2,20.51,0.17,1.71.43,3.41,0.63,5.11a38.49,38.49,0,0,0,.86,5c0.41,1.62,1,3.25,1.55,4.84l1,2.37,1.05,2.33c0.75,1.53,1.52,3,2.38,4.52,0.4,0.75.86,1.47,1.31,2.19s0.88,1.46,1.38,2.15c1,1.4,1.94,2.8,3,4.12s2.16,2.64,3.28,3.92,2.36,2.46,3.52,3.7,2.5,2.31,3.75,3.47l4,3.23,4.14,3-0.78.11h0l5.38-6.62-0.36.53h0l-2.51-11.65c-0.91-3.89-1.69-7.77-2.5-11.69-0.42-2-.64-4-1.06-5.87s-0.85-3.88-1.36-5.8-1-3.83-1.65-5.73-1.23-3.78-1.93-5.64-1.45-3.7-2.25-5.51A50.17,50.17,0,0,0,192,78.62a36,36,0,0,0-3.5-4.78c-1.26-1.52-2.58-3-4-4.43a56.94,56.94,0,0,0-4.33-4.06,26.7,26.7,0,0,0-2.35-1.76,6.63,6.63,0,0,0-1.23-.65,0.76,0.76,0,0,0-.26-0.07l-0.1,0h-0.2l-0.76,0a5.81,5.81,0,0,0-2.67.71,4.6,4.6,0,0,0-1.91,2A14,14,0,0,0,170,71.29Zm-0.56.11v0a12.48,12.48,0,0,1,.67-6.11,5.13,5.13,0,0,1,2.11-2.42,6.68,6.68,0,0,1,3.06-.81L176,62h0.17l0.28,0a1.46,1.46,0,0,1,.46.12,7.33,7.33,0,0,1,1.41.74,27.51,27.51,0,0,1,2.43,1.83,57.75,57.75,0,0,1,4.38,4.13c1.39,1.44,2.72,2.95,4,4.5a36.82,36.82,0,0,1,3.55,4.88,51,51,0,0,1,2.77,5.35c0.81,1.83,1.57,3.69,2.26,5.57s1.33,3.77,1.93,5.68,1.15,3.83,1.69,5.76,1,3.87,1.45,5.82,0.74,3.93,1.17,5.87c0.84,3.89,2,7.77,2.9,11.64s2.15,7.73,3.15,11.59h0l-0.11.29-0.29.23-5.67,6.62h0l-0.37.42-0.43-.31-4.19-3-4-3.28c-1.27-1.18-2.56-2.32-3.8-3.53s-2.45-2.44-3.57-3.76-2.29-2.6-3.32-4-2.06-2.77-3.05-4.19c-0.51-.7-0.93-1.46-1.4-2.18s-0.92-1.46-1.33-2.23c-0.87-1.5-1.65-3-2.41-4.6L175,109.57l-1-2.42c-0.59-1.63-1.13-3.27-1.56-5a39.54,39.54,0,0,1-.83-5.14c-0.2-1.71-.37-3.42-0.54-5.13C170.43,85.08,169.93,78.24,169.44,71.4Z"/><path class="cls-5" d="M195.22,156.5s14.39-31.83,38.55-40c0,0,21.53,4.5,40.28,40.66L233.55,142Z"/><path d="M194.77,156.29a109.63,109.63,0,0,1,7.16-12.36,99.78,99.78,0,0,1,8.69-11.31q2.39-2.65,5-5.1c0.89-.79,1.76-1.6,2.69-2.35s1.86-1.49,2.8-2.22,1.93-1.41,2.94-2,2-1.25,3.05-1.87,2.1-1.13,3.2-1.62,2.2-.95,3.31-1.4h0l0.12,0,0.15,0a22.7,22.7,0,0,1,3.59,1.14,34.7,34.7,0,0,1,3.36,1.58c1.12,0.54,2.15,1.22,3.21,1.86s2,1.39,3.06,2.08l2.92,2.27c0.95,0.79,1.86,1.62,2.78,2.43s1.77,1.71,2.66,2.57l1.31,1.3,1.23,1.37c0.81,0.92,1.65,1.83,2.45,2.76l2.29,2.89,1.14,1.45,1.06,1.51,2.12,3c0.71,1,1.31,2.07,2,3.11l1.94,3.13,3.52,6.46h0l0.65,1.17-1.27-.32L233.29,143h0.53c-3.17,1-6.35,2.36-9.55,3.57s-6.39,2.33-9.6,3.49L205,153.54c-3.2,1.19-6.43,2.3-9.64,3.44l-1.16.4Zm1.5-.75c2.76-1.11,5.52-2.23,8.3-3.3l9.54-3.73c3.18-1.25,6.37-2.47,9.56-3.68s6.4-2.39,9.62-3.53l0.28-.25,0.25-.05h0l40.41,15.55-0.62.77v0L270,151l-2-3.07c-0.66-1-1.27-2.07-2-3.06l-2.11-3L263,140.4,261.83,139l-2.27-2.85c-0.79-.92-1.62-1.81-2.42-2.72l-1.22-1.35-1.29-1.28c-0.88-.83-1.69-1.74-2.62-2.52s-1.81-1.61-2.74-2.38l-2.87-2.22c-1-.67-2-1.39-3-2s-2.05-1.27-3.13-1.82-2.15-1.09-3.24-1.6a28.53,28.53,0,0,0-3.34-1.24l0.26,0h0c-1.1.39-2.23,0.73-3.3,1.21s-2.13,1-3.19,1.49-2.07,1.12-3,1.78-2,1.31-2.92,2-1.89,1.42-2.77,2.2-1.77,1.56-2.65,2.35q-2.57,2.44-4.92,5.09a99.07,99.07,0,0,0-8.55,11.29q-1.94,3-3.67,6.06C198,152.09,197.1,153.82,196.27,155.54Z"/><path class="cls-2" d="M246.84,123.19s16-13.56,36.34-1.56c0,0,6,16,6.13,28s-1.62,42.25-8.62,50.5c0,0-7.25,1.25-13.12-10.75s-14.12-45.87-15.75-62A55.42,55.42,0,0,0,246.84,123.19Z"/><path d="M246.52,122.8a28,28,0,0,1,4.16-2.62c0.72-.38,1.46-0.72,2.2-1.07s1.51-.63,2.28-0.9,1.55-.52,2.33-0.74l2.38-.57,2.42-.36c0.81-.12,1.63-0.11,2.44-0.17a16.41,16.41,0,0,1,2.44,0,18.84,18.84,0,0,1,2.44.17l2.42,0.35c0.8,0.14,1.58.39,2.38,0.58a15.68,15.68,0,0,1,2.34.71l2.29,0.88,0.57,0.22,0.55,0.27,1.09,0.55,2.19,1.1,0.14,0.07,0.07,0.18h0c1.27,3.14,2.34,6.34,3.31,9.57s1.76,6.53,2.38,9.87c0.29,1.67.55,3.36,0.7,5.06,0.09,0.85.16,1.7,0.18,2.56s0.06,1.71.06,2.55c0,3.39-.1,6.75-0.3,10.12a176.09,176.09,0,0,1-2.19,20.12,84.41,84.41,0,0,1-2.27,9.9,40.12,40.12,0,0,1-1.76,4.8,17.68,17.68,0,0,1-2.69,4.43h0l-0.12.15-0.17,0a9.25,9.25,0,0,1-5.24-1.22,15.76,15.76,0,0,1-4.12-3.29,25.51,25.51,0,0,1-3.07-4.23c-0.43-.76-0.82-1.52-1.24-2.31L266,187.23c-0.65-1.6-1.3-3.21-1.86-4.83s-1.11-3.25-1.65-4.87q-1.56-4.9-2.92-9.86c-0.91-3.3-1.77-6.62-2.57-9.95s-1.57-6.67-2.29-10-1.37-6.71-2-10.09c-0.28-1.69-.58-3.38-0.81-5.08s-0.45-3.4-.66-5.11l0.15,0.31a50.75,50.75,0,0,0-4.91-4.14l-0.55-.4Zm1.14,0.4a56.1,56.1,0,0,1,4.49,3.81l0.13,0.12,0,0.19c0.2,1.69.38,3.38,0.65,5.07s0.53,3.37.81,5.05q0.89,5,2,10.05c0.72,3.34,1.47,6.67,2.28,10s1.66,6.63,2.57,9.92,1.87,6.57,2.91,9.82c0.54,1.62,1.05,3.25,1.64,4.84s1.19,3.18,1.83,4.75l1.06,2.34c0.39,0.72.78,1.49,1.19,2.21a24.52,24.52,0,0,0,2.95,4.06,14.78,14.78,0,0,0,3.85,3.09,10,10,0,0,0,2.26.9,6.83,6.83,0,0,0,2.33.22l-0.3.17h0a17.89,17.89,0,0,0,2.32-4.27,38.83,38.83,0,0,0,1.52-4.71,91.34,91.34,0,0,0,2-9.78c1-6.6,1.59-13.27,1.92-19.95,0.15-3.34.27-6.69,0.3-10,0-.84,0-1.67,0-2.49s-0.07-1.64-.15-2.46c-0.13-1.64-.36-3.29-0.63-4.92-0.51-3.28-1.22-6.54-2-9.77-0.43-1.61-.84-3.23-1.31-4.84s-1-3.21-1.47-4.79h0l0.21,0.26-2.1-1.13-1.05-.57-0.53-.28-0.55-.23-2.22-.88a15.09,15.09,0,0,0-2.27-.72c-0.77-.19-1.53-0.45-2.31-0.59l-2.36-.37a18.16,18.16,0,0,0-2.38-.18,15.83,15.83,0,0,0-2.39,0c-0.79.06-1.59,0.06-2.38,0.19l-2.36.38-2.32.58c-0.77.22-1.51,0.5-2.27,0.74s-1.47.6-2.21,0.9-1.44.69-2.13,1.07A28.13,28.13,0,0,0,247.66,123.2Z"/><path class="cls-8" d="M233.72,203.33L231.14,201a2.48,2.48,0,0,1-.79-1.92c0.08-1.17,3-1,3.67-.92s3.83-.17,3.83,1.21a2.06,2.06,0,0,1-.62,1.58Z"/><path d="M259.64,192.79c1.54-.81,3.21-1.6,4.92-2.44s3.5-1.65,5.36-2.39,3.72-1.56,5.63-2.25l2.85-1.06,2.87-.95c1.89-.66,3.79-1.18,5.62-1.69s3.62-1,5.32-1.34l2.48-.57,2.34-.42c1.5-.26,2.87-0.52,4.1-0.71l3.18-.38,2.77-.33,0-.51-2.79.31-3.2.35c-1.23.18-2.61,0.43-4.12,0.68l-2.35.41-2.5.56c-1.71.38-3.52,0.76-5.36,1.3s-3.76,1-5.67,1.65l-2.89.93-2.88,1c-1.93.67-3.82,1.45-5.68,2.21s-3.66,1.6-5.41,2.36-3.41,1.61-5,2.41-3,1.56-4.38,2.31c-1.5.81-2.84,1.58-4,2.26l-0.11-.17c-1.25-1.91-2.56-3.78-3.83-5.66-0.64-.94-1.28-1.87-1.85-2.84a9.16,9.16,0,0,1-1.32-3h-0.34a8.18,8.18,0,0,0,1.19,3.28c0.55,1,1.15,2,1.76,3,1.24,1.92,2.53,3.79,3.74,5.71l0.09,0.15L248.42,198c-1.52.95-2.37,1.54-2.37,1.54l0.67,1s0.81-.59,2.3-1.55l1.71-1.08c0.37,0.6.72,1.21,1.06,1.83,0.11,0.19.21,0.39,0.3,0.58-3,1.09-4.92,1.86-4.92,1.86l0.42,1.1,5-1.83a8.5,8.5,0,0,1,.47,1.33,4,4,0,0,1,.15,1.15h-0.1c-1,.17-2,0.29-2.7.43l-1.74.32-0.61.13,0.25,1.15,0.6-.12,1.7-.32c0.7-.13,1.55-0.25,2.51-0.41,0,0.27-.1.54-0.16,0.81a13.87,13.87,0,0,1-1.14,3.08,10.93,10.93,0,0,1-1.92,2.62,7.64,7.64,0,0,1-2.66,1.73,8.54,8.54,0,0,1-3.09.56c-0.55,0-1.13-.1-1.69-0.15l-1.55-.36c-0.5-.21-1-0.36-1.5-0.61a8.73,8.73,0,0,1-1.36-.84,6.79,6.79,0,0,1-1.21-1.09s-0.45-.63-0.52-0.73l-0.23-.33c-0.15-.22-0.29-0.46-0.42-0.71a11.82,11.82,0,0,1-.67-1.53,18.8,18.8,0,0,1-.85-3.29l-0.14-.3s0-.06,0-0.09l3.56-2.42a2.62,2.62,0,0,0,.85-2c0-1.77-2.7-1.78-4-1.79H234c-1.13-.07-4.13-0.26-4.25,1.46a3.07,3.07,0,0,0,1,2.4l2.32,2.09a10.91,10.91,0,0,1-2,5.41,6.83,6.83,0,0,1-2.25,2,3.18,3.18,0,0,1-.66.36c-0.24.09-.46,0.21-0.7,0.28a11.31,11.31,0,0,1-1.48.33l-0.76.11-0.75,0c-0.26,0-.49,0-0.76,0l-0.82-.07c-0.25,0-.6,0-0.77-0.07l-0.74-.15a6.83,6.83,0,0,1-.74-0.17l-0.69-.27a7.85,7.85,0,0,1-2.46-1.62,9.45,9.45,0,0,1-1.7-2.5,12.38,12.38,0,0,1-.92-2.64l2.46,0.08,1.81,0.06,0.13-1a17.91,17.91,0,0,0-1.84-.32c-0.75-.1-1.72-0.19-2.83-0.24a18.88,18.88,0,0,1-.22-2l1.92,0.82,0.48-.88s-0.27-.19-0.75-0.47a18.46,18.46,0,0,0-1.7-.85c0-.65,0-1.29,0-1.92,0-.26,0-0.54.07-0.81a5.73,5.73,0,0,1,.14-0.7,11.18,11.18,0,0,1,.55-1.31l0.07,0c0.81,0.4,1.51.78,2.08,1.09s1,0.56,1.3.74l0.45,0.28,0.65-1-0.46-.31c-0.31-.2-0.76-0.48-1.33-0.82s-1.29-.72-2.13-1.13l0,0c0.87-1.57,1.89-3.09,2.89-4.6,1.23-1.82,2.53-3.61,3.83-5.39l-0.18-.15c-1.48,1.65-2.88,3.36-4.25,5.1a51.62,51.62,0,0,0-3.23,4.58c-0.57-.28-1.18-0.56-1.84-0.83-1-.47-2.21-0.87-3.43-1.34s-2.54-.87-3.92-1.23-2.8-.76-4.27-1c-0.73-.14-1.47-0.32-2.22-0.43l-2.25-.32c-1.5-.26-3-0.29-4.51-0.43s-3-.06-4.39-0.09a19.65,19.65,0,0,0-2.09.08l-2,.13a34.88,34.88,0,0,0-3.65.42c-1.12.18-2.17,0.26-3.06,0.49l-2.33.53-2,.46L173,190.5l2-.43,2.31-.49c0.89-.21,1.92-0.28,3-0.44a34.21,34.21,0,0,1,3.6-.36l2-.1a19.15,19.15,0,0,1,2.06,0c1.4,0.06,2.85,0,4.32.15s3,0.21,4.43.48l2.21,0.35c0.73,0.12,1.45.31,2.17,0.46,1.44,0.28,2.83.69,4.18,1.07s2.62,0.85,3.83,1.26,2.33,0.89,3.34,1.36c0.61,0.26,1.16.51,1.7,0.76a12.1,12.1,0,0,0-.67,1.41,6.84,6.84,0,0,0-.24.91c0,0.27-.09.54-0.12,0.83-0.06.51-.1,1-0.12,1.52-0.65-.25-1.36-0.49-2.12-0.72a36.12,36.12,0,0,0-3.62-.92c-0.63-.1-1.25-0.23-1.88-0.29s-1.24-.15-1.84-0.16-1.17-.06-1.72,0-1.07,0-1.54.1l-1.29.18c-0.38.07-.71,0.16-1,0.22l-0.85.2,0.1,0.39,0.84-.14c0.27,0,.59-0.11,1-0.15l1.26-.08c0.46,0,1,0,1.49,0s1.09,0.07,1.66.11,1.17,0.16,1.76.24,1.2,0.25,1.8.37a35,35,0,0,1,3.48,1c0.91,0.31,1.72.65,2.46,1,0,0.19,0,.37,0,0.56,0,0.66.07,1.32,0.15,2h-0.58a63.9,63.9,0,0,0-14.7,1.61c-1.31.33-2.62,0.68-3.88,1.1a38.56,38.56,0,0,0-3.66,1.39,34.25,34.25,0,0,0-3.28,1.62c-0.52.27-1,.58-1.46,0.87s-0.91.58-1.32,0.88c-0.84.57-1.56,1.17-2.21,1.69s-1.15,1-1.59,1.44L179.19,215l0.74,0.68,1.28-1.27c0.43-.38.95-0.84,1.56-1.35s1.34-1,2.16-1.58c0.4-.28.83-0.55,1.29-0.82s0.92-.56,1.42-0.81a33,33,0,0,1,3.19-1.54,37.33,37.33,0,0,1,3.56-1.32c1.23-.4,2.5-0.73,3.78-1a61.08,61.08,0,0,1,14.21-1.46l0.62,0h0c1,1.12.7,2.25,1.21,3.32a11.37,11.37,0,0,0,2,3,9,9,0,0,0,3,2l0.87,0.33a8.59,8.59,0,0,0,.88.21l0.88,0.18c0.37,0.06.58,0.06,0.88,0.09l0.83,0.06c0.28,0,.59,0,0.89,0l0.9,0,0.88-.12a10.31,10.31,0,0,0,1.74-.41c0.28-.1.56-0.23,0.84-0.34a4.21,4.21,0,0,0,.81-0.41,7.71,7.71,0,0,0,1.33-.94,6.42,6.42,0,0,0,.91.37,7.06,7.06,0,0,0,1.36.28l-0.11,2.69c0,1.94-.12,4.52-0.13,7.11s-0.06,5.06,0,7,0.22,3.12.22,3.12h1s0.14-1.18.21-3.12,0.06-4.47,0-7.05-0.08-5.14-.13-7.08l-0.1-2.66a6.53,6.53,0,0,0,.79-0.17,2,2,0,0,0,1.06-.3,7.75,7.75,0,0,0,1.29,1.15,9.81,9.81,0,0,0,1.53.95c0.53,0.27,1.11.45,1.66,0.67s1.12,0.28,1.77.41,1.12,0.13,1.71.15a9.12,9.12,0,0,0,3.57-.67,8.68,8.68,0,0,0,3-2,11.92,11.92,0,0,0,2.06-2.89,14.81,14.81,0,0,0,1.17-3.32c0.08-.37.14-0.75,0.19-1.14,0.84-.11,1.73-0.24,2.71-0.34,1.28-.14,2.66-0.29,4.13-0.4s3-.2,4.62-0.3,3.26-.09,5-0.1,3.4,0,5.11.14,3.42,0.18,5.1.39l2.49,0.27c0.82,0.1,1.62.25,2.42,0.38l2.34,0.38c0.76,0.14,1.49.33,2.21,0.48,1.43,0.33,2.8.59,4,1l3.36,1,2.53,1,2.2,0.83,0.23-.54-2.21-.87-2.54-1-3.38-1c-1.23-.42-2.61-0.7-4.05-1.06-0.72-.17-1.46-0.36-2.23-0.52l-2.35-.41c-0.8-.13-1.61-0.3-2.43-0.41l-2.51-.3c-1.69-.24-3.41-0.34-5.14-0.46s-3.45-.13-5.16-0.21-3.38,0-5,0-3.19.11-4.67,0.24-2.88.22-4.17,0.37c-0.91.09-1.73,0.2-2.52,0.31a4.88,4.88,0,0,0-.19-1.26,9.38,9.38,0,0,0-.51-1.39l0.34-.12c3.72-1.32,8.66-3.12,13.67-4.76,2.5-.82,5-1.61,7.38-2.3s4.59-1.28,6.5-1.75c1-.25,1.84-0.43,2.62-0.59s1.46-.31,2-0.39l1.78-.28-0.05-.49-1.81.23c-0.58.06-1.27,0.19-2.06,0.33s-1.69.3-2.66,0.52c-1.94.4-4.19,1-6.58,1.61s-4.93,1.38-7.45,2.15c-5,1.54-10.06,3.2-13.78,4.55l-0.47.17c-0.12-.23-0.24-0.47-0.37-0.69-0.35-.63-0.73-1.24-1.11-1.85,1.13-.7,2.44-1.47,3.9-2.3C256.64,194.37,258.1,193.61,259.64,192.79Zm-28.12,7.76a1.87,1.87,0,0,1-.59-1.43s0.16-.41,2-0.41c0.3,0,.65,0,1.05,0h0.45c2.56,0,2.83.43,2.83,0.61a1.6,1.6,0,0,1-.37,1.1l-3.12,2.12Zm3.22,10a4.64,4.64,0,0,1-1.24.14,8.57,8.57,0,0,1-1.61-.21c0.15-.18.3-0.35,0.43-0.54a9.49,9.49,0,0,0,1.39-2.84,10.67,10.67,0,0,0,1.3,3l0.17,0.24A2.13,2.13,0,0,1,234.74,210.59Z"/><path class="cls-5" d="M159.3,227.88s12.75-19.75,31.75-14.12c0,0,16.25,10.25-1.87,33l-9.75-2.37S176.05,230.25,159.3,227.88Z"/><path class="cls-5" d="M163.55,228.83s-3.33,5-2.17,14c0,0,16.17,1.17,18,1.54C179.43,244.38,176.05,232.33,163.55,228.83Z"/><path d="M198.06,225.55l-0.13-1.19c0-.2,0-0.4-0.07-0.59l-0.15-.58a14,14,0,0,0-.68-2.29l-0.45-1.11c-0.16-.37-0.37-0.7-0.56-1.06a15.73,15.73,0,0,0-1.3-2,17.51,17.51,0,0,0-1.57-1.81,12.9,12.9,0,0,0-1.85-1.58l-0.05,0-0.07,0h0c-0.76-.23-1.5-0.51-2.28-0.66l-1.17-.26c-0.39-.07-0.79-0.11-1.18-0.17C185.77,212,185,212,184.17,212a20.93,20.93,0,0,0-2.4.1c-0.8.06-1.59,0.21-2.38,0.34s-1.57.34-2.33,0.59a21.43,21.43,0,0,0-2.26.8c-0.73.31-1.46,0.64-2.17,1s-1.4.75-2.08,1.18-1.33.86-2,1.32-1.27.94-1.88,1.46-1.2,1-1.77,1.57a39.75,39.75,0,0,0-3.25,3.43,34.27,34.27,0,0,0-2.8,3.81l-0.37.59,0.71,0.17c0.55,0.13,1.1.25,1.65,0.36s1.11,0.19,1.64.38l0.13,0a8.74,8.74,0,0,0-.64,1,11,11,0,0,0-.77,1.73,17.06,17.06,0,0,0-.82,3.66c-0.06.62-.11,1.24-0.11,1.86s0,1.24.06,1.86c0.08,1.24.63,2.46,0.63,3.65h0l0,0.43h0.33c0.75,0,1.51.07,2.26,0.12l2.26,0.18,4.51,0.37,4.51,0.41,2.25,0.25c0.74,0.08,1.52.34,2.2,0.34h0l0.78,0.06,9,2.18,0.32,0.08,0.19-.25h0l2.74-3.83c0.46-.63.82-1.34,1.23-2l1.2-2c0.37-.69.66-1.43,1-2.14l0.49-1.08a6.11,6.11,0,0,0,.42-1.1l0.71-2.26a5.68,5.68,0,0,0,.27-1.15l0.2-1.17,0.2-1.17c0-.39,0-0.79.05-1.19A12.89,12.89,0,0,0,198.06,225.55ZM175,243.41l-4.51-.36-4.51-.34-2.24-.16c-0.58,0-1.15-.1-1.72-0.16,0-.47,0-0.93,0-1.39s0-1.17,0-1.76,0.07-1.16.13-1.74,0.14-1.15.21-1.72,0.18-1.14.32-1.69,0.26-1.12.39-1.67c0.24-1,.53-1.94.83-2.9l0.29,0.09a10.8,10.8,0,0,1,1.58.58c0.51,0.22,1,.42,1.55.66l1.47,0.81a12.34,12.34,0,0,1,1.41.9c0.34,0.24.69,0.47,1,.73L172,234a12.11,12.11,0,0,1,1,1,13.76,13.76,0,0,1,1,1c0.3,0.36.63,0.71,0.91,1.09l0.85,1.14,0.78,1.19a27.69,27.69,0,0,1,1.35,2.51,20.67,20.67,0,0,1,.81,2c-0.5-.08-1-0.2-1.49-0.25Zm22.31-15.52c0,0.38,0,.76,0,1.14l-0.2,1.13-0.2,1.13a5.35,5.35,0,0,1-.27,1.11l-0.7,2.19a5.82,5.82,0,0,1-.42,1.07l-0.48,1c-0.33.69-.62,1.41-1,2.08l-1.19,2c-0.41.65-.75,1.34-1.22,2L189,246.19,179.82,244a20.74,20.74,0,0,0-1.16-3,25.26,25.26,0,0,0-1.75-3c-0.35-.47-0.66-1-1-1.42s-0.74-.91-1.13-1.35l-1.23-1.26c-0.43-.4-0.89-0.77-1.33-1.15a13.6,13.6,0,0,0-1.41-1.05,13.2,13.2,0,0,0-1.48-1l-1.54-.85c-0.53-.26-1.08-0.47-1.61-0.7a11.55,11.55,0,0,0-1.64-.62l-1.68-.51a13.76,13.76,0,0,0-1.72-.36l-0.86-.14c0.76-1,1.56-2,2.41-2.88,1-1.11,2.13-2.19,3.27-3.19a42.07,42.07,0,0,1,3.58-2.81c0.63-.43,1.25-0.85,1.9-1.23s1.31-.75,2-1.09,1.36-.65,2.05-0.93,1.4-.54,2.12-0.76,1.44-.41,2.17-0.59,1.47-.29,2.21-0.36,1.49-.14,2.24-0.19,1.5,0,2.25,0l1.13,0.06,1.12,0.1a19.64,19.64,0,0,0,2.24.31h0l-0.12.06a13.09,13.09,0,0,1,1.72,1.52,15.71,15.71,0,0,1,1.52,1.68,14.86,14.86,0,0,1,1.24,1.9c0.18,0.33.39,0.65,0.54,1l0.43,1.05a13.21,13.21,0,0,1,.66,2.17l0.14,0.55c0,0.19,0,.38.07,0.56l0.13,1.13A12.17,12.17,0,0,1,197.29,227.9Z"/><path class="cls-5" d="M285.37,253.25s6.56-5.5,13.56-4.12c0,0,3.63-6.37,2.5-9.5C301.43,239.63,288,244.63,285.37,253.25Z"/><path class="cls-2" d="M284.68,254l12.63,21.38a10.28,10.28,0,0,1-.25,4.25,48.19,48.19,0,0,1-2,5.75s5.75-1.25,14.63,3.25c0,0,3.38-8.87,3-11.5s-5.62-13.12-15-27.75C297.68,249.38,293.55,247.63,284.68,254Z"/><path class="cls-5" d="M290.93,293.5l-0.12-7.37s11.75-4.87,26.25,7.63l-5.62,8S302.18,293,290.93,293.5Z"/><path class="cls-5" d="M289.18,294.25l0.88,7.5s13.25,2.25,17.75,8l5.13-6.25S301.55,291.25,289.18,294.25Z"/><path class="cls-5" d="M288.47,301.58l0.33,9.92s-5,.75-5.75,1.75-1.25,3.25,1.5,4.5l-3.62,6.75s-4.12,5.5,1.38,8.5,13.63,5.88,15.88,4.5,7.88-8.75,4.5-20.12l6.29-6.12S304.64,303.63,288.47,301.58Z"/><path d="M289,302.17l0.31,9.31v0.44l-0.44.07c-0.94.15-1.88,0.33-2.8,0.55-0.46.11-.92,0.24-1.36,0.38a4.5,4.5,0,0,0-1.17.53l-0.06.06s0,0,0,0l-0.05.07a2.09,2.09,0,0,0-.16.26,2.58,2.58,0,0,0-.21.56,2.21,2.21,0,0,0,0,1.17,2.29,2.29,0,0,0,.63,1,3.77,3.77,0,0,0,.5.38,5.28,5.28,0,0,0,.57.32h0l0.47,0.24L285,318l-3.58,6.78v0l0,0.05c-1,1.52-1.7,3.55-1.1,5.19a4.38,4.38,0,0,0,1.67,2,22.35,22.35,0,0,0,2.59,1.4,52.66,52.66,0,0,0,5.54,2.31,25.09,25.09,0,0,0,5.73,1.41,5.86,5.86,0,0,0,1.36,0,1.68,1.68,0,0,0,.55-0.15l0.12,0,0.12-.08,0.31-.22a10.14,10.14,0,0,0,1.84-2.11A15.76,15.76,0,0,0,301.5,332a18.17,18.17,0,0,0,.94-2.77,18.66,18.66,0,0,0,.5-2.89,27.43,27.43,0,0,0,.1-2.94c-0.08-1-.12-2-0.29-2.94s-0.37-1.94-.55-2.92h0l-0.1-.19,0.23-.31a29.46,29.46,0,0,1,2.92-3.29,23.29,23.29,0,0,1,3.36-2.83h0l-0.09.61a9.21,9.21,0,0,0-.82-1.08c-0.31-.35-0.63-0.69-1-1a20.34,20.34,0,0,0-2.2-1.78l-1.19-.77-1.24-.7c-0.41-.24-0.85-0.42-1.28-0.64a13.61,13.61,0,0,0-1.31-.58c-0.44-.17-0.88-0.37-1.33-0.54l-1.36-.47c-0.9-.33-1.84-0.53-2.76-0.8s-1.87-.41-2.81-0.62ZM288,301l3.49,0.52c1,0.2,1.92.39,2.88,0.61s1.91,0.47,2.83.81a28.82,28.82,0,0,1,2.77,1,14.35,14.35,0,0,1,1.35.61c0.44,0.22.9,0.41,1.32,0.67l1.29,0.74,1.24,0.82a21.38,21.38,0,0,1,2.31,1.89c0.37,0.34.71,0.71,1,1.08a9.82,9.82,0,0,1,.93,1.24l0.17,0.27-0.25.33h0a23.29,23.29,0,0,1-2.92,3.29,29.44,29.44,0,0,1-3.36,2.83l0.13-.5h0a24.43,24.43,0,0,1,.8,3,21.48,21.48,0,0,1,.41,3.09l0,1.57c0,0.52-.07,1-0.1,1.56a20,20,0,0,1-.55,3.09,19.48,19.48,0,0,1-1,3,17.07,17.07,0,0,1-1.54,2.76,11,11,0,0,1-2.17,2.43,3.36,3.36,0,0,1-1.64.72,7.06,7.06,0,0,1-1.67,0,26.18,26.18,0,0,1-6-1.5,53.85,53.85,0,0,1-5.66-2.39,23,23,0,0,1-2.74-1.51,5.18,5.18,0,0,1-2.16-5.94,9.08,9.08,0,0,1,1.39-2.93l0,0.07,3.67-6.72,0.23,0.69h0a6.24,6.24,0,0,1-.7-0.38,4.77,4.77,0,0,1-.65-0.49,4,4,0,0,1-.54-0.65,3.27,3.27,0,0,1-.36-0.79,3.21,3.21,0,0,1,0-1.7,3.56,3.56,0,0,1,.3-0.79,3.32,3.32,0,0,1,.22-0.36l0.05-.07,0.11-.12,0.2-.19a5.25,5.25,0,0,1,1.46-.68c0.48-.16,1-0.29,1.44-0.41,1-.23,1.92-0.42,2.89-0.57l-0.43.51Z"/><path class="cls-9" d="M308.8,333.25s-4.83,6.25.17,9.58c4.56,3,7.67-.5,8.75-2.17,0,0,3-6.83-.75-9C313.07,329.41,310.72,330.5,308.8,333.25Z"/><path d="M309.21,333.56a11.39,11.39,0,0,0-1.27,2.17,11.25,11.25,0,0,0-.43,1.18,7.61,7.61,0,0,0-.24,1.2,2.9,2.9,0,0,0,0,.6,2.69,2.69,0,0,0,0,.59,5.53,5.53,0,0,0,.1.58l0.19,0.55a3.93,3.93,0,0,0,.62,1,5,5,0,0,0,.4.43l0.47,0.37,0.21,0.17,0.28,0.17,0.57,0.32a6.92,6.92,0,0,0,1.1.41,2.47,2.47,0,0,0,.58.12,2.67,2.67,0,0,0,.58,0,4,4,0,0,0,1.15-.14,4.37,4.37,0,0,0,1.09-.44,5.47,5.47,0,0,0,1-.68,8.34,8.34,0,0,0,1.61-1.84l0,0.09a17.55,17.55,0,0,0,.72-2.19,12.07,12.07,0,0,0,.36-2.25,7.36,7.36,0,0,0,0-1.11,4.57,4.57,0,0,0-.23-1,3.1,3.1,0,0,0-.46-0.9l-0.33-.38-0.41-.3a7.72,7.72,0,0,0-1-.55,9.41,9.41,0,0,0-1-.42,6.84,6.84,0,0,0-1.07-.24,4.3,4.3,0,0,0-1.06,0,4,4,0,0,0-1.92.85,7.78,7.78,0,0,0-1.52,1.66h0Zm-0.82-.61a8.78,8.78,0,0,1,1.69-1.89,5.09,5.09,0,0,1,2.42-1.1,5.4,5.4,0,0,1,1.34,0,7.92,7.92,0,0,1,1.28.27,10.46,10.46,0,0,1,1.2.47,8.07,8.07,0,0,1,1.11.6L318,331.7l0.47,0.53a4.26,4.26,0,0,1,.64,1.22,5.72,5.72,0,0,1,.3,1.3,8.53,8.53,0,0,1,0,1.29,13.27,13.27,0,0,1-.37,2.49,15.69,15.69,0,0,1-.79,2.38l0,0,0,0a9.51,9.51,0,0,1-1.86,2.1,6.64,6.64,0,0,1-1.19.8,5.53,5.53,0,0,1-1.36.53,5.11,5.11,0,0,1-1.46.16,3.66,3.66,0,0,1-.73-0.07,3.35,3.35,0,0,1-.71-0.15,7.58,7.58,0,0,1-1.36-.53L309,343.5l-0.28-.17c-0.15-.1-0.2-0.16-0.31-0.24l-0.56-.45a6.13,6.13,0,0,1-.49-0.54,5,5,0,0,1-.77-1.25l-0.23-.7a6.51,6.51,0,0,1-.12-0.72,3.55,3.55,0,0,1,0-.72,3.73,3.73,0,0,1,0-.71,8.65,8.65,0,0,1,.29-1.38,12.23,12.23,0,0,1,.49-1.29A13.58,13.58,0,0,1,308.39,332.95Z"/><path d="M334.1,386.24l-0.42,1.45a31.72,31.72,0,0,1-4.76,2.7,20.54,20.54,0,0,1-2.62,1l-0.65.18-0.71.15a9.66,9.66,0,0,1-1.32.16,10.38,10.38,0,0,1-1.37,0c-0.46,0-.93-0.09-1.39-0.14-0.93-.15-1.86-0.34-2.78-0.56a46.2,46.2,0,0,1-4.71-1.51l0.82-.93c0.42-.48.84-1.14,1.35-1.88,0.25-.37.46-0.8,0.72-1.23a10.35,10.35,0,0,0,.71-1.41c0.21-.51.48-1,0.66-1.59l0.57-1.75,0.44-1.89,0.32-2,0.19-2.08c0-.7.07-1.41,0.05-2.13a40.1,40.1,0,0,0-.26-4.32c-0.15-1.44-.39-2.86-0.67-4.26-0.16-.69-0.3-1.4-0.46-2.05l-0.25-1a8.16,8.16,0,0,0-.37-1.07,5.75,5.75,0,0,0-3-3.09,8.73,8.73,0,0,0-3.68-.64,19.35,19.35,0,0,0-5.23.94,19.68,19.68,0,0,0-1.89.68l0.44,1.09a18.34,18.34,0,0,1,1.8-.57,18.06,18.06,0,0,1,4.88-.67,7.81,7.81,0,0,1,3,.61,4.08,4.08,0,0,1,2.14,2.28,6.51,6.51,0,0,1,.27.83l0.22,1c0.15,0.67.27,1.33,0.4,2,0.22,1.35.46,2.73,0.59,4.11a38.21,38.21,0,0,1,.21,4.12c0,0.68,0,1.35-.07,2l-0.19,2-0.31,1.87-0.42,1.76-0.5,1.63c-0.17.53-.39,1-0.56,1.49a13.49,13.49,0,0,1-.59,1.34c-0.2.42-.37,0.83-0.58,1.2-0.43.71-.77,1.36-1.09,1.87-0.68,1-1.05,1.58-1.05,1.58h0a17.69,17.69,0,0,1-5.91,1.07,11.53,11.53,0,0,1-5.93-1.42,34.48,34.48,0,0,1-5.26-3.5c-1.67-1.32-3.29-2.71-4.88-4.14l-4.73-4.37c-0.82-.72-1.61-1.48-2.5-2.11l-1.3-1c-0.45-.31-0.91-0.6-1.37-0.9a34.83,34.83,0,0,0-5.8-3,46.34,46.34,0,0,0-6.21-2c-2.1-.55-4.22-1-6.29-1.45a36.15,36.15,0,0,1-6-1.82A9,9,0,0,1,251.2,361a2.84,2.84,0,0,1-.32-0.66c-0.08-.23-0.19-0.45-0.26-0.69a8.46,8.46,0,0,1-.27-1.46,10.25,10.25,0,0,1,.15-3,16.32,16.32,0,0,1,.84-3c0.35-1,.83-1.92,1.25-3a19.52,19.52,0,0,0,1.31-6.46,26,26,0,0,0-.09-3.28,9,9,0,0,0-.93-3.29,8.77,8.77,0,0,0-1.55-2.13l-0.13-.22a5.4,5.4,0,0,0-.59-0.76,7.72,7.72,0,0,0-2.3-1.69,11.27,11.27,0,0,0-1.4-.56,12.42,12.42,0,0,0-1.28-.28,8.59,8.59,0,0,0-.91-0.09l-0.35,0-0.11.77,0.31,0.1c0.2,0.06.48,0.13,0.81,0.26a9.2,9.2,0,0,1,.86.32c-3.58.39-7.18,0.75-10.75,0.9-0.5,0-1,0-1.49,0a12,12,0,0,1-1.46-.1,26.81,26.81,0,0,1-2.92-.52l-2.92-.68c-0.43-.11-0.87-0.22-1.31-0.3,0.39-.37.76-0.72,1-1a8.36,8.36,0,0,0,.6-0.69l-0.41-.69a4,4,0,0,0-.94.35,9.29,9.29,0,0,0-1.77,1.13,19.83,19.83,0,0,0-1.51,1.41l-0.17.2a11.37,11.37,0,0,0-1.74,1.69,13.37,13.37,0,0,0-1.11,1.52l-0.22.38-0.23.46a8.34,8.34,0,0,0-.35.91,16.83,16.83,0,0,0-.23,7.32,34.93,34.93,0,0,0,2.12,6.82,24.22,24.22,0,0,1,1,3.24,11.52,11.52,0,0,1,.22,1.58c0,0.25,0,.62,0,0.82s0,0.48-.11.72c-0.47,1.94-2.13,3.6-3.9,4.89a21.4,21.4,0,0,1-6,3c-2.18.66-4.46,1.27-6.71,1.9s-4.51,1.27-6.75,2-4.47,1.41-6.7,2.26a53.23,53.23,0,0,0-6.45,3c-2.08,1.11-4.11,2.3-6.1,3.55s-3.95,2.55-5.85,3.95c-1,.72-1.85,1.48-2.76,2.2s-1.82,1.43-2.76,2.11a43.17,43.17,0,0,1-5.84,3.67,15.16,15.16,0,0,1-3.09,1.2,8.2,8.2,0,0,1-3.28,0,17.33,17.33,0,0,1-6.07-2.53l0,0-0.51-.84a6,6,0,0,1-.54-1l-0.58-1.34-0.51-1.66-0.39-1.91c-0.08-.68-0.2-1.37-0.25-2.08s-0.11-1.44-.1-2.17a37.91,37.91,0,0,1,.14-4.3c0.11-1.37.26-2.66,0.43-3.75s0.31-2,.44-2.64l0.21-1-1,.53a6.08,6.08,0,0,0-1.06,2.86l-0.31,1.81c-0.08.65-.21,1.32-0.26,2a39.48,39.48,0,0,0-.2,4.47c0,0.76.08,1.53,0.12,2.28s0.2,1.49.29,2.21,0.31,1.39.48,2l0.62,1.78c0.25,0.53.5,1,.71,1.44a7,7,0,0,0,.67,1l0.31,0.45a16.1,16.1,0,0,1-1.83,1.08c-0.39.2-.78,0.39-1.18,0.57s-0.8.35-1.21,0.49a22.82,22.82,0,0,1-2.48.77c-0.42.08-.85,0.2-1.26,0.26s-0.81.15-1.28,0.19l-0.68.07-0.61,0a12.49,12.49,0,0,1-1.28,0,14,14,0,0,1-2.53-.23,11.68,11.68,0,0,1-2.42-.69,9.52,9.52,0,0,1-1.14-.53,9.08,9.08,0,0,1-1-.63l0.08,0-0.61-1.42L127.91,387c-0.28-.62-0.49-1.37-0.78-2.15l-0.44-1.23c-0.14-.43-0.25-0.88-0.38-1.35a28,28,0,0,1-.71-2.93c-0.18-1-.45-2.08-0.54-3.18a31.6,31.6,0,0,1-.3-3.32c0-.56-0.07-1.12-0.07-1.67l0-1.66c0-1.1.12-2.18,0.17-3.23s0.22-2.06.38-3,0.31-1.85.5-2.67a39.36,39.36,0,0,1,1-3.94c0.15-.47.27-0.83,0.36-1.07l0.14-.38-0.08,0h0a4.74,4.74,0,0,1,.45-0.59,4.18,4.18,0,0,1,.52-0.51,6.83,6.83,0,0,1,1.3-.79,13.64,13.64,0,0,1,1.49-.57c0.51-.17,1-0.32,1.57-0.46l0.26-.07,43.18-56,101,7.42-9.86,17.48-0.05.09v0.17a69.09,69.09,0,0,0-.28,11.46c0.1,1.91.28,3.82,0.58,5.72a28,28,0,0,0,1.38,5.65,10,10,0,0,0,.67,1.38l0.19,0.3c0,0.07,0,.06.12,0.19l0.13,0.15c0.17,0.2.33,0.41,0.52,0.59a11.55,11.55,0,0,0,2.45,1.77,29.42,29.42,0,0,0,5.41,2.14,97.61,97.61,0,0,0,11.19,2.47c1.87,0.32,3.75.63,5.67,0.85s3.83,0.34,5.75.38a51,51,0,0,0,5.77-.21c1-.1,1.92-0.21,2.87-0.38a20.23,20.23,0,0,0,2.9-.66,34.81,34.81,0,0,1,5.38-1.44,29.94,29.94,0,0,1,5.52-.49,26.68,26.68,0,0,1,5.48.66,19.39,19.39,0,0,1,4.93,1.84h0l0.2,0.33c0.12,0.2.29,0.54,0.51,1s0.45,0.95.68,1.57,0.48,1.33.74,2.1,0.48,1.63.66,2.56l0.3,1.41,0.22,1.49c0.18,1,.19,2.07.3,3.14s0,2.17,0,3.26-0.09,2.19-.25,3.26-0.25,2.13-.46,3.13l-0.61,2.9-0.69,2.57c-0.21.8-.41,1.53-0.62,2.16S334.23,385.77,334.1,386.24ZM347.66,367l0-.78c0-.52-0.05-1-0.12-1.59s-0.11-1.08-.2-1.61a15.63,15.63,0,0,0-.31-1.6,12.24,12.24,0,0,0-1.13-3.12,6.3,6.3,0,0,0-2.36-2.54,13.29,13.29,0,0,0-1.51-.69c-0.23-.1-0.52-0.2-0.78-0.29l-0.77-.24c-2-.59-4.06-1.09-6.1-1.58a17,17,0,0,0-5.27-2.37,24.2,24.2,0,0,0-5.79-.83,25.79,25.79,0,0,0-2.92.11l-1.45.15-1.44.25a36.28,36.28,0,0,0-5.6,1.53,29.71,29.71,0,0,1-5.42,1,49.55,49.55,0,0,1-5.61.23c-1.87,0-3.75-.14-5.61-0.35s-3.73-.5-5.6-0.82a96.37,96.37,0,0,1-11-2.39,28.2,28.2,0,0,1-5.17-2,10.33,10.33,0,0,1-2.16-1.54c-0.15-.15-0.28-0.32-0.42-0.48l-0.1-.12-0.07-.11-0.19-.3a3.07,3.07,0,0,1-.31-0.59l-0.26-.58a28.76,28.76,0,0,1-1.36-5.38c-0.31-1.85-.51-3.72-0.64-5.6a68,68,0,0,1,.13-11.25l10.19-18.06,0.39-.69-0.79-.06-102.08-7.5-0.27,0-0.16.21-43.1,55.89a7.67,7.67,0,0,0-1.62.15,7.16,7.16,0,0,0-1.76.6,6.75,6.75,0,0,0-.82.48,4.58,4.58,0,0,0-.75.62,4.5,4.5,0,0,0-.61.79,3,3,0,0,0-.28.57,9.46,9.46,0,0,0-2.9.24,8.51,8.51,0,0,0-3,1.38,9.33,9.33,0,0,0-2.28,2.42,15.56,15.56,0,0,0-.78,1.44c-0.23.46-.44,1-0.64,1.46a30.07,30.07,0,0,0-1,3c-0.28,1-.53,2.06-0.71,3.11a31.82,31.82,0,0,0-.42,3.16c-0.1,1.06-.13,2.12-0.13,3.19s0.07,2.13.18,3.19l0.22,1.59c0.11,0.52.2,1.05,0.31,1.57,0.26,1.05.55,2.06,0.88,3.06a21.21,21.21,0,0,0,1.2,3,8,8,0,0,0,2,2.67,7.78,7.78,0,0,0,3,1.49,15.53,15.53,0,0,0,3.21.47c1,0,2,.06,3,0.06a6.79,6.79,0,0,0,.82.78,9.55,9.55,0,0,0,1.19.89,12.23,12.23,0,0,0,1.32.67,12.75,12.75,0,0,0,2.83.79,14.81,14.81,0,0,0,2.91.14l0.76,0,0.68-.09c0.44,0,.93-0.14,1.42-0.23s0.94-.23,1.41-0.35a17.05,17.05,0,0,0,2.68-1,15.59,15.59,0,0,0,2.46-1.46,14,14,0,0,0,1.88-1.66,18.16,18.16,0,0,0,6.2,2.67,9.38,9.38,0,0,0,3.68.06,15.1,15.1,0,0,0,3.46-1.26,44.37,44.37,0,0,0,6.06-3.72c1-.68,1.9-1.39,2.83-2.12s1.83-1.5,2.74-2.14c1.87-1.35,3.83-2.61,5.8-3.83s4-2.37,6-3.44a51.54,51.54,0,0,1,6.31-2.82c2.15-.8,4.37-1.52,6.59-2.19s4.47-1.29,6.72-1.91,4.49-1.21,6.78-1.89a23.11,23.11,0,0,0,6.51-3.17,14.94,14.94,0,0,0,2.75-2.49,8.31,8.31,0,0,0,1.81-3.42,8.64,8.64,0,0,0,.14-1c0-.38,0-0.59,0-0.93a12.8,12.8,0,0,0-.26-1.89,25.81,25.81,0,0,0-1-3.47,33.68,33.68,0,0,1-2.08-6.52,15.35,15.35,0,0,1,.15-6.57,12,12,0,0,1,2.74-4.08,3,3,0,0,0,.61-0.39l0.58-.47a9.27,9.27,0,0,0,2.28.8c1,0.25,2,.45,3,0.61s2.05,0.26,3.1.33c0.5,0,1.09,0,1.58,0s1,0,1.55-.06c4-.27,8-0.8,12-1.34a11.84,11.84,0,0,1,4.31,4,6.58,6.58,0,0,1,1,2.82,24.49,24.49,0,0,1,0,3.15,18.43,18.43,0,0,1-1.31,6.09A26.66,26.66,0,0,0,249.3,355a11.47,11.47,0,0,0-.2,3.37,9.7,9.7,0,0,0,.3,1.7c0.08,0.28.2,0.55,0.3,0.82a3.72,3.72,0,0,0,.37.79,10.27,10.27,0,0,0,5.12,4.36,32.79,32.79,0,0,0,6.29,1.94c2.11,0.48,4.21.88,6.27,1.41a45,45,0,0,1,6,1.94,33.52,33.52,0,0,1,5.6,2.9c0.44,0.29.89,0.56,1.32,0.86l1.26,1c0.86,0.61,1.62,1.34,2.43,2l4.76,4.35c1.62,1.43,3.26,2.83,5,4.16a33.2,33.2,0,0,0,5.48,3.56,12.66,12.66,0,0,0,6.47,1.43,18.61,18.61,0,0,0,6.45-1.36,27,27,0,0,0,5.18,2.17,19,19,0,0,0,6,1,9.51,9.51,0,0,0,1.58-.18L326,393l0.75-.22a21,21,0,0,0,2.82-1.13,23.91,23.91,0,0,0,4.8-3.21,15.27,15.27,0,0,0,2.93.65,8.38,8.38,0,0,0,3.43-.24,4.18,4.18,0,0,0,.87-0.44l0.21-.14h0l0.06-.05,0,0,0,0,0.07-.07,0.29-.27c0.2-.24.42-0.49,0.59-0.74l0.47-.7a20.73,20.73,0,0,0,1.45-2.93,41.69,41.69,0,0,0,2.8-12.48c0.06-1.07.11-2.13,0.09-3.2V367Zm-225,22.31a6.56,6.56,0,0,1-2.55-1.27,6.81,6.81,0,0,1-1.71-2.3,20,20,0,0,1-1.09-2.82c-0.32-1-.59-2-0.83-3-0.11-.5-0.2-1-0.31-1.5l-0.22-1.52c-0.11-1-.18-2-0.19-3.06s0-2,.1-3.07a30.67,30.67,0,0,1,.39-3.05c0.17-1,.4-2,0.66-3a29,29,0,0,1,1-2.91c0.18-.47.38-0.94,0.61-1.41a14.26,14.26,0,0,1,.7-1.31,8.63,8.63,0,0,1,2-2.14,7.42,7.42,0,0,1,2.62-1.25,8.7,8.7,0,0,1,2.16-.28c-0.09.23-.19,0.49-0.31,0.82a40.68,40.68,0,0,0-1.21,4c-0.23.84-.4,1.76-0.58,2.74s-0.31,2-.46,3.1-0.25,2.2-.24,3.34l0,1.72c0,0.58,0,1.16.06,1.74a33.16,33.16,0,0,0,.29,3.45,32.09,32.09,0,0,0,.55,3.31,29.58,29.58,0,0,0,.79,3c0.14,0.48.26,1,.42,1.39l0.5,1.26c0.34,0.8.6,1.56,0.91,2.19l0.85,1.62,0.41,0.76c-0.75,0-1.5-.08-2.25-0.13A17.19,17.19,0,0,1,122.63,389.31Zm223.47-21.49c0,1,0,2.05-.11,3.08a40.1,40.1,0,0,1-2.76,12,27.36,27.36,0,0,1-1.32,2.71l-0.39.61-0.37.5-0.28.28-0.07.07,0,0-0.11.07a2.59,2.59,0,0,1-.52.28,7.15,7.15,0,0,1-2.79.35,18.94,18.94,0,0,1-2.34-.23l0.35-.82c0.2-.45.41-1,0.66-1.65,0.12-.32.27-0.66,0.39-1l0.34-1.17c0.23-.82.51-1.69,0.75-2.64l0.6-3c0.2-1,.29-2.14.44-3.25s0.14-2.25.22-3.38,0-2.27,0-3.39-0.15-2.22-.34-3.27l-0.25-1.55-0.33-1.47c-0.19-1-.51-1.83-0.75-2.65s-0.55-1.54-.85-2.18-0.55-1.18-.77-1.63l-0.11-.19c1.59,0.45,3.18.9,4.74,1.42l0.73,0.25c0.23,0.09.44,0.16,0.69,0.28a12.23,12.23,0,0,1,1.33.66,5.09,5.09,0,0,1,1.81,2.06,10.87,10.87,0,0,1,.94,2.79,14.29,14.29,0,0,1,.26,1.49c0.08,0.5.12,1,.16,1.51s0.07,1,.09,1.55l0,0.79v0.75Z"/><path class="cls-5" d="M284.68,254s2.38-9.62,18.63-14.87c0,0,2.25-8-.25-12.12C303.05,227,286.18,235.38,284.68,254Z"/><path class="cls-5" d="M305.93,225.38s-8.69-20.27-28.62-13.62c-16.12,5.38-12.62,35,7.38,42.25C284.68,254,284.18,236.38,305.93,225.38Z"/><path d="M317.38,293.37L316,292.19c-0.46-.39-0.91-0.8-1.38-1.17L313.16,290a17.82,17.82,0,0,0-1.51-1l-1.28-.74c0.59-1.51,1.16-3,1.67-4.55,0.29-.87.54-1.75,0.79-2.64a19.87,19.87,0,0,0,.55-2.77,4.71,4.71,0,0,0-.05-1.56,9.93,9.93,0,0,0-.42-1.4c-0.32-.89-0.68-1.73-1.06-2.57-0.76-1.67-1.57-3.31-2.41-4.93s-1.74-3.21-2.64-4.79-1.81-3.16-2.77-4.7-1.92-3.09-2.9-4.62l-2.73-4.1,0.43,0.06h0l0.28,0.08,0.25-.33a15,15,0,0,0,1.35-2.2,15.79,15.79,0,0,0,1-2.4,11.74,11.74,0,0,0,.57-2.58,7.3,7.3,0,0,0,0-1.36l-0.09-.7,0-.09,1.3-.45,0.24-.08,0.08-.26a23.15,23.15,0,0,0,1.1-6.23c0-.27,0-0.53,0-0.8s0-.53,0-0.8a11.83,11.83,0,0,0-.21-1.61,7.18,7.18,0,0,0-.22-0.8,5.62,5.62,0,0,0-.31-0.79,8.77,8.77,0,0,0-.45-0.76l-0.16-.18,0.63-.35,2.42-1.34-0.16-.43a22.53,22.53,0,0,0-2.68-5,26.18,26.18,0,0,0-3.73-4.3,22.24,22.24,0,0,0-9.91-5.54,20.52,20.52,0,0,0-5.7-.58,26.11,26.11,0,0,0-5.63.89A16.45,16.45,0,0,0,273.5,213a14.52,14.52,0,0,0-4,4.16A20.1,20.1,0,0,0,266.64,228a26.78,26.78,0,0,0,.59,5.62A30.39,30.39,0,0,0,271.52,244a29.06,29.06,0,0,0,3.55,4.38,26.6,26.6,0,0,0,9.26,6l0,0.05-0.13.35,0.23-.18,12.36,20.93c0,0.15,0,.34.06,0.51s0,0.41,0,.61a10.84,10.84,0,0,1-.06,1.24,11.92,11.92,0,0,1-.2,1.23c-0.09.4-.2,0.82-0.32,1.22-0.43,1.45-1,2.89-1.54,4.31l-0.59.07a17.8,17.8,0,0,0-1.81.36,12.73,12.73,0,0,0-1.79.57h0l-0.31.12v0.35l0.12,7.37-1.8.35,0.93,8,0,0.37,0.37,0.07c1.59,0.29,3.2.68,4.77,1.12a45.34,45.34,0,0,1,4.65,1.55c0.38,0.15.76,0.3,1.13,0.47s0.75,0.32,1.11.5c0.73,0.36,1.45.73,2.13,1.15a9.63,9.63,0,0,1,1,.66,9.19,9.19,0,0,1,1,.72c0.29,0.26.62,0.5,0.89,0.79l0.79,0.87h0l0.33,0.45,0.45-.45c1-1,1.84-2,2.71-3,0.44-.51.84-1.05,1.26-1.58s0.8-1.09,1.15-1.67h0l0.28-.33-0.3-.33c-0.42-.46-0.85-0.89-1.29-1.32a39.93,39.93,0,0,0,2.91-3.62,24.77,24.77,0,0,0,2.55-4.19h0l0.28-.36ZM301,240.88a8.7,8.7,0,0,1-.15,1.13,4.71,4.71,0,0,1-.13.57c-0.06.19-.08,0.38-0.14,0.57-0.11.38-.22,0.77-0.36,1.14-0.28.76-.56,1.52-0.86,2.28s-0.52,1.33-.77,2a8.87,8.87,0,0,0-1.47-.15,12.65,12.65,0,0,0-1.89.05c-0.32,0-.62.09-0.93,0.13a8.21,8.21,0,0,0-.92.18,17,17,0,0,0-1.81.51,22.26,22.26,0,0,0-3.41,1.51c-0.58.32-1.14,0.66-1.69,1,0.14-.27.29-0.53,0.43-0.8l0.32-.57,0.39-.53a12.78,12.78,0,0,1,.79-1l0.88-1c0.31-.31.64-0.61,1-0.92s0.66-.59,1-0.87,0.68-.58,1-0.83c0.71-.54,1.44-1,2.19-1.53s1.52-.94,2.31-1.36c0.49-.27,1-0.53,1.5-0.78l0.89-.39,1.4-.6,0.47-.16Zm2.53-9.39c0,0.25,0,.5,0,0.75s0,0.5,0,.75a27,27,0,0,1-.25,3c-0.12.92-.27,1.85-0.44,2.76l-1,.36s-4,1.51-5.58,2.39c-0.4.22-.8,0.45-1.19,0.68-0.16.09-.32,0.17-0.48,0.27l-1.34.81-1.28.9a15.15,15.15,0,0,0-1.24,1c-0.4.33-.82,0.65-1.19,1s-0.78.7-1.13,1.09-0.72.76-1.06,1.17-0.68.81-1,1.24-0.55.79-.79,1.2a8.27,8.27,0,0,1,.2-0.93l0.5-2c0.18-.67.45-1.32,0.68-2l0.35-1c0.12-.33.29-0.63,0.43-1,0.3-.63.58-1.27,0.9-1.89l1.05-1.81a20.66,20.66,0,0,1,1.16-1.74,17.82,17.82,0,0,1,1.26-1.68c0.45-.53.86-1.11,1.35-1.6s0.95-1,1.44-1.52l1.53-1.44,1.17-1,0.7-.57c0.21-.18.44-0.35,0.66-0.52l0.4-.29,0.81-.55,1.57-1.05c0.35-.21.7-0.42,1.05-0.61l0.09,0.2a6.6,6.6,0,0,1,.22.69,4.59,4.59,0,0,1,.17.7,6,6,0,0,1,.12.72C303.49,230.51,303.54,231,303.56,231.49Zm-19.19,20.11c-0.08.55-.13,1.1-0.16,1.67a25.7,25.7,0,0,1-4.26-2.12,26,26,0,0,1-4.24-3.41,28.17,28.17,0,0,1-3.44-4.23,31.11,31.11,0,0,1-2.55-4.83,30.54,30.54,0,0,1-1.55-5.24,25.79,25.79,0,0,1-.5-5.42,19,19,0,0,1,2.84-10.26A13.31,13.31,0,0,1,274.2,214a15.35,15.35,0,0,1,4.88-2.09,24.78,24.78,0,0,1,5.33-.79,19.13,19.13,0,0,1,5.31.59,20.77,20.77,0,0,1,9.21,5.28A32.94,32.94,0,0,1,302.5,221a43,43,0,0,1,2.74,4.15l-1.59.89-0.63.35-0.17.09c-0.42.23-.84,0.47-1.25,0.73l0,0c-0.82.49-1.62,1-2.39,1.56-0.59.41-1.14,0.87-1.72,1.3l-1.65,1.39L294.24,233c-0.21.21-.41,0.43-0.61,0.65a12.31,12.31,0,0,0-1.07,1.13L291,236.58l-1.39,1.92c-0.49.62-.84,1.33-1.27,2a19.68,19.68,0,0,0-1.13,2.08l-0.53,1.06-0.45,1.1a21.41,21.41,0,0,0-.81,2.23c-0.27.75-.43,1.52-0.64,2.29S284.46,250.82,284.37,251.61Zm12.93,29c0.13-.43.24-0.84,0.34-1.29a12.89,12.89,0,0,0,.22-1.33,11.88,11.88,0,0,0,.07-1.35c0-.23,0-0.45,0-0.68a6.29,6.29,0,0,0-.09-0.71V275.2l0-.07-12.39-21,1.07-.73c0.49-.32,1-0.62,1.48-0.93s1-.57,1.52-0.85,1-.52,1.57-0.74a17.11,17.11,0,0,1,1.61-.61c0.27-.1.55-0.16,0.82-0.24a8.53,8.53,0,0,1,.83-0.19,8.37,8.37,0,0,1,.84-0.13c0.28,0,.56,0,0.84-0.06a7.69,7.69,0,0,1,.82,0,3.88,3.88,0,0,1,.59.11l2.69,4.53q1.39,2.33,2.75,4.69c1.81,3.13,3.61,6.28,5.27,9.48,0.85,1.59,1.66,3.2,2.42,4.83,0.37,0.81.74,1.63,1,2.45a9.4,9.4,0,0,1,.38,1.2,3.23,3.23,0,0,1,.06,1.14,29.75,29.75,0,0,1-1.13,5.17c-0.41,1.48-.88,3-1.37,4.42l-1-.49c-0.56-.25-1.09-0.55-1.66-0.75l-1.72-.63c-0.57-.21-1.17-0.33-1.76-0.5a15,15,0,0,0-1.79-.4,15.81,15.81,0,0,0-1.81-.28,23.77,23.77,0,0,0-3.67-.1H295.9C296.42,283.28,296.9,282,297.3,280.64Zm14.91,22.88c-0.37.37-.73,0.74-1.08,1.13s-0.89,1-1.3,1.55c-0.72.9-1.42,1.82-2.08,2.77l-0.43-.48c-0.3-.31-0.64-0.57-1-0.85a10,10,0,0,0-1-.76,10.4,10.4,0,0,0-1.06-.69c-0.72-.45-1.47-0.82-2.22-1.2-0.38-.19-0.76-0.34-1.15-0.52s-0.77-.33-1.16-0.48A46.35,46.35,0,0,0,295,302.4c-1.49-.41-3-0.77-4.5-1.06l-0.78-6.66,1.16-.17a7.86,7.86,0,0,1,1.6-.1,19,19,0,0,1,6.34.93C307.72,298.78,311.54,302.88,312.21,303.51Zm1.53-6.24c-0.82,1.19-1.73,2.42-2.45,3.7-0.28-.24-2.51-2.73-9.23-5.76a32.26,32.26,0,0,0-4.77-1.59,17.41,17.41,0,0,0-5.87-.65l-0.11-6.49a12.22,12.22,0,0,1,1.33-.31c0.54-.1,1.08-0.17,1.63-0.21l0,0.08,0.59-.11a20.6,20.6,0,0,1,3,0,16.62,16.62,0,0,1,1.72.18,14.63,14.63,0,0,1,1.71.28,13.88,13.88,0,0,1,1.69.4c0.55,0.17,1.12.29,1.66,0.5l1.63,0.6c0.55,0.19,1.07.47,1.6,0.7a16.38,16.38,0,0,1,1.57.76l1.54,0.85a17.21,17.21,0,0,1,1.52.92l1.52,1,2.49,1.77C314.94,294.88,314.57,296.06,313.74,297.28Zm3.26-3.81h0Z"/><circle class="cls-10" cx="225.68" cy="199.55" r="0.58" transform="translate(-45.01 331.75) rotate(-67.51)"/><circle class="cls-10" cx="222.43" cy="203.04" r="0.44" transform="translate(-50.25 330.91) rotate(-67.51)"/><circle class="cls-10" cx="225.8" cy="205.49" r="0.53" transform="translate(-50.43 335.53) rotate(-67.51)"/><circle class="cls-10" cx="243.08" cy="200.55" r="0.58" transform="translate(-58.22 108.22) rotate(-22.49)"/><circle class="cls-10" cx="245.33" cy="204.04" r="0.44" transform="translate(-59.39 109.34) rotate(-22.49)"/><circle class="cls-10" cx="242.96" cy="206.49" r="0.53" transform="translate(-60.5 108.62) rotate(-22.49)"/><polygon class="cls-9" points="274.64 316.42 266.56 340.25 269.31 341.92 278.62 322.83 290.14 299.25 286.97 297.5 274.64 316.42"/><path d="M275,316.6l-4.05,11.86c-1.31,4-2.65,8-3.92,12l-0.21-.59,2.75,1.67-0.71.21c1.59-3.63,3.27-7.21,4.95-10.79l2.56-5.35c0.86-1.78,1.7-3.57,2.59-5.34,1.77-3.54,3.49-7.1,5.29-10.63s3.59-7.05,5.45-10.55l0.21,0.66-3.17-1.75,0.66-.16c-2,3.19-4.07,6.33-6.12,9.49-1,1.59-2.09,3.13-3.14,4.7Zm-0.72-.35,3-4.83c1-1.59,2-3.2,3-4.76,2.07-3.14,4.1-6.31,6.22-9.42l0.26-.39,0.4,0.22,3.17,1.75,0.4,0.22-0.19.44c-1.61,3.62-3.28,7.21-5,10.79s-3.42,7.14-5.13,10.71c-0.85,1.79-1.75,3.55-2.62,5.32l-2.65,5.31c-1.79,3.53-3.59,7.05-5.47,10.54l-0.26.48-0.45-.27-2.75-1.67-0.35-.21,0.14-.38c1.43-3.95,2.78-7.92,4.16-11.88Z"/><polygon class="cls-4" points="267.39 319.17 267.56 321.33 271.81 323.75 274.64 316.42 278.89 310.17 274.72 308 272.89 307.83 267.39 319.17"/><path class="cls-5" d="M164.68,243.13s62.29-.21,77.25,52.5c0,0-32.12,68.88-105.62,71.63C136.3,367.25,115.05,306,164.68,243.13Z"/><path d="M164.68,243c2.12,0,4.21-.06,6.3.11s4.18,0.34,6.26.62,4.14,0.64,6.2,1.07,4.1,0.9,6.12,1.46,4,1.16,6,1.84,4,1.43,5.9,2.22l2.89,1.27c1,0.44,1.89.92,2.84,1.38s1.86,1,2.79,1.48l1.38,0.76,1.35,0.83c1.82,1.07,3.55,2.28,5.27,3.51l2.49,2c0.84,0.64,1.6,1.38,2.4,2.06l1.19,1,1.12,1.12c0.74,0.76,1.52,1.46,2.22,2.26l2.1,2.37c0.69,0.8,1.31,1.66,2,2.49l1,1.26,0.88,1.32c0.58,0.89,1.18,1.75,1.73,2.65,1,1.85,2.14,3.64,3,5.58,0.44,1,.93,1.89,1.31,2.87l1.13,2.95a31.23,31.23,0,0,1,1,3l0.92,3,0.06,0.18-0.08.17h0c-1.21,2.55-2.57,5-4,7.41s-2.91,4.79-4.49,7.1-3.21,4.58-4.9,6.82-3.46,4.4-5.27,6.54-3.69,4.21-5.64,6.23c-0.95,1-2,2-3,3s-2,2-3,2.9-2.05,1.91-3.13,2.8-2.11,1.85-3.22,2.7l-3.3,2.61-3.4,2.47c-1.12.85-2.32,1.57-3.48,2.36l-1.75,1.16L192,351c-1.21.71-2.38,1.47-3.62,2.14l-3.7,2c-1.23.67-2.52,1.23-3.78,1.85l-1.9.91-1.94.82c-1.3.53-2.58,1.1-3.89,1.61l-4,1.42c-1.31.5-2.66,0.87-4,1.28s-2.67.85-4,1.16c-2.73.65-5.44,1.35-8.21,1.78-1.38.22-2.75,0.53-4.14,0.69l-4.17.5c-1.39.2-2.79,0.26-4.18,0.35l-4.19.25-0.29,0,0-.36h0a57.57,57.57,0,0,1-2.24-8c-0.59-2.71-1.1-5.44-1.51-8.17s-0.73-5.49-.91-8.26q-0.17-2.07-.25-4.15c-0.08-1.38-.1-2.77-0.11-4.15s0-2.77,0-4.16,0.07-2.77.14-4.15l0.1-2.08,0.17-2.07c0.11-1.38.21-2.76,0.39-4.14,0.28-2.76.73-5.5,1.16-8.23s1-5.45,1.7-8.14l0.47-2,0.55-2c0.38-1.33.71-2.68,1.12-4,0.84-2.64,1.65-5.3,2.64-7.89s2-5.17,3.05-7.74c0.55-1.27,1.16-2.52,1.74-3.78s1.16-2.52,1.82-3.74L148,266.8c0.63-1.24,1.37-2.41,2-3.62s1.37-2.41,2.13-3.57l2.26-3.49,1.13-1.74,1.2-1.69,2.42-3.37c1.66-2.21,3.41-4.17,5.13-6.32h0.39Zm0.24,0.64c-1.52,2.19-3.12,4.31-4.62,6.51L158,253.58l-1.14,1.71L155.83,257l-2.14,3.51c-0.72,1.16-1.33,2.39-2,3.57s-1.38,2.37-2,3.59l-1.86,3.66c-0.64,1.21-1.19,2.46-1.76,3.7s-1.16,2.48-1.68,3.74c-1,2.53-2.14,5-3,7.62s-1.8,5.16-2.63,7.77c-0.41,1.3-.75,2.63-1.12,3.94l-0.55,2-0.47,2c-0.67,2.65-1.18,5.34-1.71,8s-0.88,5.4-1.2,8.11c-0.19,1.35-.31,2.72-0.44,4.08l-0.19,2-0.13,2c-0.09,1.37-.17,2.73-0.2,4.1s-0.09,2.74-.07,4.1,0,2.74.05,4.1,0.09,2.74.18,4.1c0.15,2.73.4,5.46,0.71,8.18s0.86,5.43,1.38,8.12a46.34,46.34,0,0,0,2.05,8h0l-0.6-.34,4.1-.3c1.38-.1,2.74-0.18,4.11-0.39l4.11-.53c1.38-.16,2.72-0.49,4.09-0.72,2.74-.45,5.41-1.17,8.11-1.82,1.35-.31,2.66-0.78,4-1.16s2.66-.77,4-1.28l3.91-1.42c1.29-.5,2.56-1.07,3.83-1.6l1.91-.81,1.87-.91c1.24-.62,2.51-1.18,3.73-1.84l3.65-2c1.22-.66,2.38-1.42,3.57-2.13l1.77-1.08,1.73-1.16c1.14-.79,2.33-1.51,3.43-2.35l3.35-2.46,3.25-2.59c2.13-1.77,4.25-3.56,6.27-5.46,1-.93,2-1.87,3-2.86s2-1.93,2.94-2.94c1.93-2,3.8-4,5.62-6.14s3.57-4.25,5.26-6.45,3.34-4.43,4.9-6.73,3.09-4.61,4.54-7,2.84-4.78,4.06-7.25h0l0,0.35-1-2.95a30.46,30.46,0,0,0-1.07-2.91L238.2,287c-0.4-1-.91-1.85-1.35-2.79-0.86-1.88-2-3.62-3-5.41-0.55-.87-1.16-1.71-1.73-2.57L231.24,275l-1-1.22c-0.65-.8-1.25-1.64-1.93-2.42L226.29,269c-0.68-.78-1.45-1.46-2.18-2.2l-1.1-1.09-1.17-1c-0.79-.66-1.53-1.38-2.36-2L217,260.85c-1.7-1.17-3.36-2.4-5.14-3.45l-1.31-.82-1.35-.76c-0.91-.49-1.79-1-2.72-1.48s-1.84-.93-2.78-1.38l-2.83-1.27c-1.91-.79-3.84-1.56-5.79-2.24s-3.93-1.31-5.93-1.87-4-1.07-6-1.51-4.07-.81-6.11-1.18-4.1-.64-6.17-0.85S166.9,243.69,164.92,243.64Z"/><path class="cls-9" d="M167.55,250.75s-23.75,34-27.25,58-1.25,44,1.25,51c0,0,57.5-.92,93.17-63.92C234.72,295.83,226.3,259.5,167.55,250.75Z"/><path d="M167.79,251.3c-1.29,1.9-2.53,3.85-3.76,5.8s-2.51,4.11-3.76,6.17-2.44,4.15-3.61,6.26-2.3,4.23-3.44,6.35-2.2,4.28-3.2,6.47-2,4.37-2.95,6.58c-0.5,1.09-.89,2.23-1.33,3.34s-0.9,2.23-1.26,3.37L143.33,299c-0.38,1.14-.65,2.3-1,3.45l-0.47,1.73L141.53,306c-0.21,1.17-.49,2.34-0.64,3.52l-0.48,3.59L140,316.66c-0.23,2.39-.45,4.79-0.58,7.19s-0.23,4.8-.28,7.21,0,4.81,0,7.21,0.2,4.8.4,7.2,0.47,4.78.83,7.15a43,43,0,0,0,1.59,7l-0.48-.33h0a64.92,64.92,0,0,0,7.24-.75c2.41-.37,4.8-0.86,7.18-1.4s4.73-1.18,7.06-1.92,4.64-1.51,6.92-2.38,4.54-1.8,6.75-2.82c1.12-.49,2.21-1,3.31-1.57s2.19-1.08,3.25-1.67c2.16-1.13,4.26-2.38,6.35-3.64l3.08-2c1-.66,2-1.39,3-2.08s2-1.42,3-2.16,2-1.45,2.9-2.24l2.82-2.33c0.94-.78,1.82-1.62,2.74-2.43,1.85-1.59,3.54-3.36,5.3-5.05l2.51-2.66c0.84-.88,1.67-1.78,2.46-2.72l2.39-2.77c0.79-.93,1.52-1.91,2.28-2.86,1.55-1.89,2.95-3.89,4.38-5.87,0.73-1,1.4-2,2.07-3l2-3.06c1.3-2.07,2.51-4.19,3.77-6.28l-0.05.36a31.48,31.48,0,0,0-1.85-4.87,45.56,45.56,0,0,0-2.49-4.63q-1.36-2.25-2.94-4.37c-1.05-1.4-2.15-2.78-3.33-4.08-0.58-.66-1.17-1.31-1.8-1.93s-1.23-1.26-1.88-1.85-1.27-1.21-1.95-1.77-1.32-1.17-2-1.7-1.37-1.11-2.08-1.62l-2.14-1.54c-1.47-1-2.92-2-4.45-2.84s-3.07-1.73-4.61-2.57-3.14-1.6-4.76-2.28l-2.42-1.06c-0.81-.33-1.64-0.64-2.46-1-1.63-.67-3.32-1.2-5-1.77s-3.38-1-5.07-1.53-3.42-.87-5.13-1.3l-5.18-1.11Zm-0.47-1.09,5.58,0.89,5.24,1c1.73,0.43,3.47.83,5.19,1.29s3.44,0.94,5.13,1.52,3.4,1.1,5.05,1.76c0.83,0.32,1.67.62,2.5,1l2.46,1.06c0.83,0.34,1.63.72,2.44,1.11s1.61,0.77,2.41,1.17c1.57,0.86,3.16,1.68,4.67,2.63s3,1.91,4.51,2.91l2.17,1.58c0.72,0.53,1.4,1.11,2.11,1.66s1.37,1.15,2,1.74,1.33,1.19,2,1.82,1.29,1.24,1.9,1.89,1.24,1.3,1.82,2c1.2,1.33,2.31,2.74,3.38,4.18a50.19,50.19,0,0,1,3,4.48,46.69,46.69,0,0,1,2.48,4.77,32.26,32.26,0,0,1,1.85,5.09l0,0.19-0.1.17c-1.27,2.11-2.49,4.24-3.79,6.33l-2,3.09c-0.67,1-1.34,2.06-2.08,3-1.43,2-2.84,4-4.4,5.92-0.77,1-1.51,1.95-2.3,2.89l-2.41,2.8c-0.79.95-1.62,1.85-2.47,2.74l-2.53,2.69c-1.78,1.7-3.47,3.49-5.34,5.1-0.92.81-1.82,1.66-2.76,2.45l-2.85,2.35c-0.94.8-2,1.5-2.92,2.26s-2,1.49-3,2.18-2,1.42-3,2.09l-3.11,2c-2.11,1.26-4.23,2.53-6.41,3.67-1.08.6-2.18,1.15-3.28,1.69s-2.21,1.09-3.34,1.58c-2.24,1-4.51,2-6.81,2.84s-4.63,1.68-7,2.39-4.74,1.35-7.13,1.93-4.82,1-7.25,1.41a65.67,65.67,0,0,1-7.38.76H141.2l-0.12-.34a43.89,43.89,0,0,1-1.72-7.12c-0.4-2.4-.71-4.81-0.93-7.22s-0.37-4.84-.46-7.26-0.11-4.85-.08-7.27,0.1-4.85.25-7.26,0.32-4.83.55-7.25l0.38-3.62,0.47-3.59c0.15-1.21.43-2.4,0.64-3.61l0.35-1.8,0.47-1.76c0.33-1.17.6-2.36,1-3.52l1.15-3.46c0.36-1.16.85-2.27,1.28-3.41s0.86-2.27,1.37-3.37c1-2.22,1.94-4.45,3-6.62s2.16-4.34,3.26-6.49a239.45,239.45,0,0,1,15.07-24.8Z"/><path class="cls-8" d="M182.46,325.67a21.28,21.28,0,0,1,6.27-42.09,20.6,20.6,0,0,1,15.56,11.66,24.94,24.94,0,1,0-3.31,23.5A20.61,20.61,0,0,1,182.46,325.67Z"/><path class="cls-10" d="M182.47,325.24a20.87,20.87,0,0,1,4.79-41.4,20.62,20.62,0,0,1,16.92,11.71c0.2,0.41.43-.29,0.35-0.51a25.11,25.11,0,0,0-43.76-6.26,25.76,25.76,0,0,0-3.58,23.57,25.12,25.12,0,0,0,44,6.78c0.13-.22,0-1-0.25-0.71a20.79,20.79,0,0,1-18.42,6.84c-0.29,0-.31.79,0,0.83a21.09,21.09,0,0,0,18.66-7l-0.28-.7a24.79,24.79,0,0,1-41.61-2.68,24.51,24.51,0,0,1,.41-24.25,24.77,24.77,0,0,1,44.45,4l0.35-.51a21.09,21.09,0,0,0-15.29-11.72,20.72,20.72,0,0,0-15.81,3.84,22.4,22.4,0,0,0-5.53,29.23,21,21,0,0,0,14.65,9.77C182.77,326.12,182.79,325.29,182.47,325.24Z"/><path class="cls-11" d="M174,295a17.38,17.38,0,0,0-9.24,8.25c-3.12,6.23-1.52,8.7.79,12.56,0,0-.16,4.15,3.05,6.09a6,6,0,0,0,4.64.57s0.86,2.23,1.88,2.71a5.89,5.89,0,0,0,5.22.17,1.05,1.05,0,0,0,1.77.62s0,1.46,1.12,1.32a2.57,2.57,0,0,0,1.75-1.06,2.09,2.09,0,0,0,.22,1.15c0.24,0.09,1.18.6,2.51-1.22s-1.28-3.54-1.57-3.61a13.65,13.65,0,0,0,3.67-5.49,1.64,1.64,0,0,0,2.32.05l0.15-.16a47.14,47.14,0,0,0,5.1-8.43c1-2.55,2.78-7.6,1.11-10.22s-3.41-4.88-4.76-5.22a5.82,5.82,0,0,0-4.11.77c-1.55.74-3.83,1.5-4.94,2.87a12.12,12.12,0,0,0-3.42-2.19s2.91-9,1.5-15.4-3.47-10.54-5.57-11.66-2.86.18-3,.61-2.65,8.3-2.8,13.94,0,6.81.21,7.92S173.33,294.86,174,295Z"/><path class="cls-10" d="M172.22,304.44a3.24,3.24,0,0,0-2.66-2.45,3.53,3.53,0,0,0-1.22,0c-0.28.06-.12-0.07,0,0l-0.52-.3a0.39,0.39,0,0,0-.39.67,1.62,1.62,0,0,0,1.16.33,2.57,2.57,0,0,1,2.85,1.93,0.39,0.39,0,0,0,.74-0.18h0Z"/><path class="cls-10" d="M183.43,308.87a2.7,2.7,0,0,1,2-.06,3.28,3.28,0,0,1,1.49,1.69,1.89,1.89,0,0,0,.8.66,0.39,0.39,0,0,0,.39-0.67,1.27,1.27,0,0,1-.58-0.54,8.08,8.08,0,0,0-.62-1,3.09,3.09,0,0,0-1.62-1,3.63,3.63,0,0,0-2.28.25c-0.45.21-.06,0.86,0.38,0.68h0Z"/><circle class="cls-10" cx="170.7" cy="316.13" r="0.21" transform="translate(-188.36 303.51) rotate(-59.62)"/><circle class="cls-10" cx="169.6" cy="317.29" r="0.21" transform="matrix(0.51, -0.86, 0.86, 0.51, -189.9, 303.13)"/><circle class="cls-10" cx="169.74" cy="318.78" r="0.21" transform="translate(-191.11 304) rotate(-59.62)"/><circle class="cls-10" cx="179.02" cy="320.14" r="0.21" transform="translate(-187.69 312.67) rotate(-59.62)"/><circle class="cls-10" cx="178.95" cy="321.36" r="0.21" transform="translate(-188.78 313.22) rotate(-59.62)"/><circle class="cls-10" cx="177.61" cy="322.13" r="0.21" transform="translate(-190.11 312.44) rotate(-59.62)"/><path class="cls-12" d="M172.86,316.69a7.82,7.82,0,0,0-.27,1.2,18,18,0,0,0,1.66,1.95,10.81,10.81,0,0,0,2.63-.33,3.37,3.37,0,0,0,.33-1.2,3.15,3.15,0,0,0-1.9-2.27,1.78,1.78,0,0,0-2.43.63v0Z"/><path class="cls-12" d="M175.05,295.22a5.46,5.46,0,0,1,2.93-.5,13.65,13.65,0,0,1,.57-2.89c0.52-1.7,2.27-9.83,1.28-15.16s-1.47-6.24-4-8.06c0,0-2.4,4.95-2.56,8.18s-1.32,8.27-.8,10.88A56.89,56.89,0,0,0,175.05,295.22Z"/><path class="cls-10" d="M178.34,294.81c-0.19-1.72.89-3.59,1.23-5.29a46.46,46.46,0,0,0,.85-7.25c0.19-4.57,0-11.14-4.42-13.85a0.46,0.46,0,0,0-.51,0c-2.54,4.34-3,9.71-3.4,14.65a18.37,18.37,0,0,0,.53,6.73c0.58,1.8,1.62,3.49,2.06,5.36,0.06,0.23.78,0.41,0.73,0.19-0.43-1.76-1.4-3.36-2-5.07a17.86,17.86,0,0,1-.58-7.19c0.44-4.85.9-10.08,3.41-14.35l-0.51,0c2.22,1.3,3.12,4,3.57,6.42a32.56,32.56,0,0,1,.35,8.27,43.27,43.27,0,0,1-.9,6.47c-0.35,1.54-1.28,3.17-1.1,4.77,0,0.23.75,0.44,0.73,0.19h0Z"/><path class="cls-12" d="M186.54,296.94s4.11,4.27,4.21,5.8l2.18-6.16,0.87-1.93s-0.26-.66-1.7-0.43S186.54,296.94,186.54,296.94Z"/><path class="cls-10" d="M196.4,333.47a38.18,38.18,0,0,0-8.35-7.15,2.5,2.5,0,0,0,.12-1.15,1.62,1.62,0,0,0-.08-0.41,3.33,3.33,0,0,0-1.47-1.9,13.22,13.22,0,0,0,1.81-2.18,40.82,40.82,0,0,1,6.49,1.67c0.27,0.09.34-.18,0.08-0.27a41.66,41.66,0,0,0-6.4-1.66,13.45,13.45,0,0,0,1.21-2.4c1.46,1,2.62-.43,3.49-1.67a37.4,37.4,0,0,0,4.37-7.63c1-2.52,2-5.44,1.62-8.19a9,9,0,0,0-2-4,9.84,9.84,0,0,0-3.18-3.29c-1.33-.67-3.07-0.2-4.41.39-1.8.79-3.88,1.46-5.28,2.9a11.34,11.34,0,0,0-1.56-1.12,9.64,9.64,0,0,0-1.41-.76,39.41,39.41,0,0,0,1.77-10.41A26.27,26.27,0,0,0,182,276a19.64,19.64,0,0,0-3.4-7.22c-0.93-1.08-2.72-2.36-4.16-1.45-0.91.58-1.08,1.85-1.38,2.78a57.34,57.34,0,0,0-2.36,16,17.83,17.83,0,0,0,.31,4.35,17.09,17.09,0,0,0,1.32,3.34,8,8,0,0,0,.81,1.48A17.77,17.77,0,0,0,163,306.62a10.32,10.32,0,0,0-.38,2,62.25,62.25,0,0,0-9.33-5c-0.22-.13-0.49.14-0.17,0.29a60.85,60.85,0,0,1,9.53,5.13,9.16,9.16,0,0,0,.57,3.62,19.2,19.2,0,0,0-2.24-.76c-0.28-.07-0.37.25-0.09,0.32a18.69,18.69,0,0,1,2.51.86c0.09,0.21.18,0.44,0.29,0.65,0.34,0.68.94,1.45,1.28,2.16-5.17-1-11-.48-15.27,2.49-0.21.15,0.16,0.39,0.34,0.27,4.22-2.9,10-3.4,15.08-2.39l-0.07.1c0.21,0.83.16,1.71,0.42,2.56,1,3,4.24,5.46,7.43,4.4A4.91,4.91,0,0,0,175,326a6.27,6.27,0,0,0,5,.23,1.28,1.28,0,0,0,1.68.68h0c0.35,1.41,1.78,1.31,2.84.51a1,1,0,0,0,.77.8c1,0.28,1.87-.55,2.42-1.27a2.49,2.49,0,0,0,.27-0.47,37.69,37.69,0,0,1,8,6.93C196.07,333.56,196.51,333.61,196.4,333.47Zm-9.83-9.62c0.35,0.31,1.06,1,.89,1.54a0.32,0.32,0,0,0,.08.35l-0.11.19a32.8,32.8,0,0,0-6.07-2.88,3.47,3.47,0,0,1,1.44-.54,5,5,0,0,1,1.55,1.27c0.09,0.12.55,0.15,0.42,0a5.58,5.58,0,0,0-1.48-1.28,5,5,0,0,1,3.27,1.38h0Zm-3.38-3.4a20.09,20.09,0,0,1,4.42.1,12.47,12.47,0,0,1-1.69,1.91,5.15,5.15,0,0,0-3-.75l-0.14,0a7.88,7.88,0,0,0,.44-1.26h0ZM164,313a8.33,8.33,0,0,1-.8-2.88c0-.23,0-0.46,0-0.69a32.24,32.24,0,0,1,2.55,2c0.38,0.33.8,0.69,1.17,1.06a10.18,10.18,0,0,0-1,1.54A18.34,18.34,0,0,0,164,313Zm0.5,1-0.25-.5a17.51,17.51,0,0,1,1.55.85,6,6,0,0,0-.39,1.21C165.16,315,164.79,314.52,164.5,314Zm10.75,11.28a4.64,4.64,0,0,1-1.87-2.56l0.84-2.31c0.17,0,.34,0,0.54,0a4.25,4.25,0,0,0,2-.34c1-.76.3-2.35-0.34-3-1-1-3.32-1.71-4.08,0a2,2,0,0,0-.14,1.57,6,6,0,0,0,1.49,1.7h0l-0.81,2.21c-2.2.89-5-.44-6.17-2.33a9.15,9.15,0,0,1-1.06-3.69l0-.07c0.64,0.14,1.27.31,1.88,0.5,0.28,0.09.37-.24,0.09-0.32-0.61-.19-1.23-0.36-1.87-0.5a5.76,5.76,0,0,1,.39-1.45,10.23,10.23,0,0,1,1.12.81c0.2,0.12.55,0,.31-0.22a15.34,15.34,0,0,0-1.26-.91,9.49,9.49,0,0,1,.88-1.49,7.54,7.54,0,0,1,1.4,1.85c0.09,0.18.55,0.18,0.43-.05a8.22,8.22,0,0,0-1.61-2.09l0.07-.12c1.35-1.74,2.74-3.44,4-5.21a8.73,8.73,0,0,0,2.06-5.66,14.11,14.11,0,0,0-.47-3.52c0-.12-0.47-0.18-0.44-0.08a13.75,13.75,0,0,1,.44,3.84,9.12,9.12,0,0,1-2.3,5.63c-1.22,1.63-2.51,3.21-3.73,4.84-0.32-.3-0.64-0.58-0.93-0.85a33.23,33.23,0,0,0-3-2.36c0.21-3.61,2.5-7.33,5-9.66a16,16,0,0,1,5.71-3.62,0.32,0.32,0,0,0,.21-0.35,0.36,0.36,0,0,0-.21-0.35c-0.66-.29-1.13-1.69-1.37-2.25a15.87,15.87,0,0,1-.92-2.45,13.45,13.45,0,0,1-.3-3.17,54.56,54.56,0,0,1,1.78-14.64,21.56,21.56,0,0,1,1.12-3.82c0.95-2,3.32-.2,4.2.95a20.37,20.37,0,0,1,3,6.64,25,25,0,0,1,1.21,8.11,39,39,0,0,1-1.85,10.37,0.43,0.43,0,0,0,.18.52,12.57,12.57,0,0,1,2.55,1.49,9.27,9.27,0,0,1,.77.61,31.53,31.53,0,0,1,2.94,3.34c0.31,0.4.69-.18,0.45-0.5a28.27,28.27,0,0,0-2.69-3.05c1.31-1.27,3.17-1.86,4.81-2.61,1.93-.88,3.68-1.16,5.3.42a13.48,13.48,0,0,1,3.39,4.91,9.63,9.63,0,0,1-.23,4.83,28,28,0,0,1-3.33,7.86c-0.74,1.26-1.55,2.49-2.4,3.68-0.65.91-1.53,1.91-2.61,1a5.78,5.78,0,0,1-.13-1.22,38.23,38.23,0,0,1,.06-4.17,49.28,49.28,0,0,1,2.21-12.48c0.35-1.07.74-2.14,1.19-3.17a3.79,3.79,0,0,0,.54-1.34,1.14,1.14,0,0,0-.71-0.42c-2.32-.62-5.24,1.61-7,2.73-0.2.13,0.24,0.34,0.39,0.23a16.64,16.64,0,0,1,5.23-2.65c0.33-.07,1.39-0.32,1.64.06a23.48,23.48,0,0,1-1.25,2.85c-0.41,1.12-.77,2.24-1.1,3.4a48.68,48.68,0,0,0-1.28,6.6,47.81,47.81,0,0,0-.39,8.87,2.41,2.41,0,0,0,.1.57,0.34,0.34,0,0,0-.08.13,12.61,12.61,0,0,1-1.52,3,21.37,21.37,0,0,0-4.55-.18,17.05,17.05,0,0,0-.31-8.9c0-.11-0.47-0.17-0.44-0.08a17,17,0,0,1,.26,9,14.33,14.33,0,0,0-1.88.32c-0.26.07,0.09,0.31,0.27,0.27a13.57,13.57,0,0,1,1.54-.28,14.14,14.14,0,0,1-.45,1.36l-0.18,0a7.53,7.53,0,0,0-1.65-.39c-0.31,0-.15.25,0.05,0.26a6.75,6.75,0,0,1,1.23.26,3.86,3.86,0,0,0-1.16.8l-1.07-.32c-0.35-.1-0.32.12-0.05,0.19s0.64,0.19,1,.29a2.67,2.67,0,0,0-.67,2.52,5.59,5.59,0,0,1-4.49-.18h0Zm1.33-7a1.21,1.21,0,0,1,.08.74c-0.1.83-.65,0.83-1.41,0.87-0.35,0-.72.07-1.08,0.07l-0.05,0a3,3,0,0,0-.42-0.45,5.5,5.5,0,0,1-.94-1.09,1.79,1.79,0,0,1,.14-1.28c0.82-1.77,3.24,0,3.68,1.17h0ZM174.24,320m10.91,6.69c0-.23-0.28-0.67-0.53-0.37-0.64.73-2.25,1.53-2.34,0a0.35,0.35,0,0,0-.36-0.34l-0.1,0a0.87,0.87,0,0,1-1.31-.34h0a2,2,0,0,1,.71-2.39,32,32,0,0,1,6.16,2.95c-0.65,1.05-2.27,2.11-2.25.5Z"/><polygon class="cls-2" points="155.31 251.25 162.06 262 267.39 319.17 272.89 307.83 167.56 250.75 155.31 251.25"/><path d="M156.19,251.71l6.29,10-0.18-.17L215,290l26.35,14.26c4.39,2.39,8.8,4.73,13.16,7.15s8.76,4.79,13.09,7.28l-0.69.22,5.5-11.33,0.21,0.66-26.29-14.35L220,279.67l-52.7-28.48,0.26,0.06Zm-1.76-.93,13.11-.54h0.14l0.12,0.07,52.63,28.6,26.32,14.29,26.37,14.2,0.42,0.23-0.21.43-5.5,11.33-0.22.46-0.47-.24c-4.45-2.28-8.83-4.67-13.24-7s-8.78-4.76-13.17-7.14l-26.32-14.32-52.61-28.69-0.12-.06-0.07-.11Z"/><path d="M155.54,250.81l5,2.59,13.07,6.9L192,270.15l21,11.42c7.17,3.89,14.28,7.86,21,11.54s12.9,7.2,18.24,10.19,9.74,5.54,12.85,7.3l4.86,2.8-0.48.88-5-2.58c-3.15-1.66-7.69-4-13.07-6.88S239.72,298.62,233,295s-13.9-7.5-21-11.44L191,272l-18.23-10.19-12.86-7.28-4.86-2.79Z"/></svg>