<?xml version="1.0" encoding="utf-8"?>
<!-- Generator: Adobe Illustrator 19.2.1, SVG Export Plug-In . SVG Version: 6.00 Build 0)  -->
<!DOCTYPE svg PUBLIC "-//W3C//DTD SVG 1.1//EN" "http://www.w3.org/Graphics/SVG/1.1/DTD/svg11.dtd">
<svg version="1.1" id="Ebene_1" xmlns="http://www.w3.org/2000/svg" xmlns:xlink="http://www.w3.org/1999/xlink" x="0px" y="0px"
	 viewBox="0 0 130 130" style="enable-background:new 0 0 130 130;" xml:space="preserve">
<style type="text/css">
	.st0{fill:#E0C2CB;}
	.st1{fill:#FFFFFF;}
</style>
<path class="st0" d="M65,130c35.9,0,65-29.1,65-65S100.9,0,65,0S0,29.1,0,65S29.1,130,65,130"/>
<path class="st1" d="M26.2,58.4l3.6,0c0.1,0,0.2-0.1,0.2-0.2c0-0.1-0.1-0.2-0.3-0.2l-3.6,0c-0.1,0-0.2,0.1-0.2,0.2
	S26.1,58.4,26.2,58.4 M45.9,42.8l0-3.4c0-0.1-0.1-0.2-0.3-0.2c-0.1,0-0.2,0.1-0.2,0.2l0,3.4c0,0.1,0.1,0.2,0.3,0.2
	C45.8,43.1,45.9,43,45.9,42.8 M48,63.2c0.4-0.1,0.9-0.1,1.4-0.1c0.1,0,0.2,0,0.3,0c1.7-1.2,3.6-2.3,5.6-3l2.7-0.8
	c1.6-0.4,3.3-0.6,5-0.6c2.7,0,5.3,0.5,7.7,1.3l-3.4-2l4.2,0.3c-2.7-1-5.5-1.5-8.6-1.5c-5.9,0-11.3,2.1-15.5,5.5
	C47.7,62.7,47.8,63,48,63.2 M48.4,43.1l0.6-3.4c0-0.1-0.1-0.3-0.2-0.3c-0.1,0-0.3,0.1-0.3,0.2L47.9,43c0,0.1,0.1,0.3,0.2,0.3
	C48.3,43.3,48.4,43.2,48.4,43.1 M51.1,43.8l1.2-3.2c0-0.1,0-0.3-0.1-0.3c-0.1,0-0.3,0-0.3,0.1l-1.2,3.2c0,0.1,0,0.3,0.1,0.3
	C50.9,44,51,43.9,51.1,43.8 M53.5,45l1.8-3c0.1-0.1,0-0.3-0.1-0.3c-0.1-0.1-0.3,0-0.3,0.1l-1.8,3c-0.1,0.1,0,0.3,0.1,0.3
	C53.3,45.1,53.5,45.1,53.5,45 M42.1,39.4c-0.1,0-0.2,0.1-0.2,0.3l0.6,3.4c0,0.1,0.2,0.2,0.3,0.2c0.1,0,0.2-0.1,0.2-0.3l-0.6-3.4
	C42.3,39.5,42.2,39.4,42.1,39.4 M60.1,45.8l-2.7,2.2c-0.1,0.1-0.1,0.2,0,0.3c0.1,0.1,0.2,0.1,0.4,0l2.7-2.2c0.1-0.1,0.1-0.2,0-0.3
	C60.3,45.8,60.2,45.8,60.1,45.8 M45.5,36.8c-12.1,0-21.9,9.5-21.9,21.2c0,8.1,4.7,15.1,11.6,18.7c0.1-0.5,0.3-1.1,0.4-1.8
	c-6.1-3.3-10.2-9.6-10.2-16.9c0-10.7,9-19.4,20-19.4c9.6,0,17.6,6.5,19.6,15.3c0.6,0,1.3,0.1,1.9,0.2C65.1,44.3,56.2,36.8,45.5,36.8
	 M60,52.9c0,0.1,0.2,0.2,0.3,0.1l3.3-1.2c0.1,0,0.2-0.2,0.1-0.3c0-0.1-0.2-0.2-0.3-0.1l-3.3,1.2C60,52.6,59.9,52.8,60,52.9 M62,48.5
	l-3.1,1.7c-0.1,0.1-0.2,0.2-0.1,0.3c0.1,0.1,0.2,0.2,0.3,0.1l3.1-1.7c0.1-0.1,0.2-0.2,0.1-0.3C62.3,48.5,62.1,48.4,62,48.5
	 M57.2,44.9l0.8-1c0.1-0.1,0.1-0.3,0-0.3c0,0,0,0,0,0l0,0l0,0c-0.1-0.1-0.3-0.1-0.3,0l-0.7,0.8l-13.4,11l1.1,2.1l1.8-1.2l0.3,2.9
	c0.9-0.7,1.9-1.3,2.9-1.8L57.2,44.9z M37.7,45.1c0.1-0.1,0.2-0.2,0.1-0.3l-1.8-3c-0.1-0.1-0.2-0.2-0.3-0.1c-0.1,0.1-0.2,0.2-0.1,0.3
	l1.8,3C37.5,45.1,37.6,45.1,37.7,45.1 M27.2,51.6c0,0.1,0,0.3,0.1,0.3l3.3,1.2c0.1,0,0.3,0,0.3-0.1c0-0.1,0-0.3-0.1-0.3l-3.3-1.2
	C27.3,51.4,27.2,51.5,27.2,51.6 M28.6,48.6c-0.1,0.1,0,0.3,0.1,0.3l3.1,1.7c0.1,0.1,0.3,0,0.3-0.1c0.1-0.1,0-0.3-0.1-0.3l-3.1-1.7
	C28.8,48.4,28.7,48.5,28.6,48.6 M30.5,45.9c-0.1,0.1-0.1,0.3,0,0.3l2.7,2.2c0.1,0.1,0.3,0.1,0.4,0c0.1-0.1,0.1-0.3,0-0.3l-2.7-2.2
	C30.8,45.8,30.6,45.8,30.5,45.9 M32.9,72.3c0,0.1,0,0.2,0.1,0.2c0.1,0.1,0.3,0.1,0.4,0l1.6-1.8l3.2-2.6c0.1-1.1,0.2-2.4,0.6-3.6
	l0-0.1l1-2.9l0.6-0.2c0.3-0.6,1.3-1.4,1.9-1.8l0.3-3L32.9,72.3L32.9,72.3z M33.3,43.6c-0.1-0.1-0.2-0.1-0.4,0
	c-0.1,0.1-0.1,0.2,0,0.3l2.3,2.6c0.1,0.1,0.2,0.1,0.4,0c0.1-0.1,0.1-0.2,0-0.3L33.3,43.6z M26.6,61.5l3.5-0.6c0.1,0,0.2-0.1,0.2-0.3
	s-0.2-0.2-0.3-0.2L26.5,61c-0.1,0-0.2,0.1-0.2,0.3C26.3,61.4,26.4,61.5,26.6,61.5 M30.9,70.2l2.7-2.2c0.1-0.1,0.1-0.2,0-0.3
	c-0.1-0.1-0.2-0.1-0.4,0l-2.7,2.2c-0.1,0.1-0.1,0.2,0,0.3C30.6,70.3,30.8,70.3,30.9,70.2 M28.9,67.6l3.1-1.7
	c0.1-0.1,0.2-0.2,0.1-0.3c-0.1-0.1-0.2-0.2-0.3-0.1l-3.1,1.7c-0.1,0.1-0.2,0.2-0.1,0.3C28.7,67.6,28.8,67.6,28.9,67.6 M40.2,44
	c0.1,0,0.2-0.2,0.2-0.3l-1.2-3.2c0-0.1-0.2-0.2-0.3-0.1c-0.1,0-0.2,0.2-0.1,0.3l1.2,3.2C39.9,44,40.1,44,40.2,44 M27.5,64.6l3.3-1.2
	c0.1,0,0.2-0.2,0.1-0.3c0-0.1-0.2-0.2-0.3-0.1l-3.3,1.2c-0.1,0-0.2,0.2-0.2,0.3C27.2,64.6,27.3,64.7,27.5,64.6 M26.3,54.8
	c0,0.1,0.1,0.3,0.2,0.3l3.5,0.6c0.1,0,0.3-0.1,0.3-0.2c0-0.1-0.1-0.3-0.2-0.3l-3.5-0.6C26.4,54.5,26.3,54.6,26.3,54.8 M46.7,66.8
	c-0.5-0.1-2-2.8-2-2.8l0,0.6c-0.6-0.2-0.9-2.7-0.9-2.7c-0.6,0.4-0.9,1.8-0.9,1.8l-0.6,0.2l-0.5,1.4c-0.6,2.1-0.5,5.2-0.5,5.2
	C38.5,74,38.1,79,38.1,79l1-1.9c-1,1.9-0.6,8.4-0.6,8.4l0.6-2.4c0.7,7.1,3.7,11.6,8,15.7c4.3,4.1,12.1,5.7,12.1,5.7
	s-0.9-0.3-1.4-0.7c-0.4-0.3,0.1-0.4,0.1-0.4c3.6,1.5,6.9,1.2,6.9,1.2c-1.3-0.1-0.8-0.6-0.8-0.6c7.6,0.3,12-2.3,13.2-2.9
	c1.2-0.6,1.7-2.3,1.7-2.3c0.3,0,2.9-1.7,4.9-3.6c1.9-1.9,2.2-3.9,2.5-5.1c0.2-1.2-0.3-1.8-0.3-1.8c1.1-1.7,2.3-6.1,2.3-9.2
	c0-3.1-0.7-4.5-0.7-4.5c-0.1,0.8-0.8,2.1-0.8,2.1s-0.2-4.2-1.2-7.2c-1-3-3.7-5-3.7-5v0.6c-1.3-2-3.1-2.9-3.1-2.9l0.2,0.5l-7.6-3.3
	c4.9,2.5,8.1,8.7,8.1,8.7c-3-2.7-4.7-2.5-4.7-2.5c5.9,4.9,5.3,12.9,5.3,12.9c-0.7-2.3-2.3-3.4-2.3-3.4s0.1,0.1,0.3,4.2
	S77.2,85,77.2,85c-0.1-0.5-0.6-1.9-0.6-1.9s0.1,0.1-0.1,1.4c-0.2,1.3-0.8,3-1.8,4.9c-1,1.9-1.8,2-2,2.1c-0.2,0.1-0.8,0.1-0.6-0.4
	c0.2-0.5,0-0.6-0.2-0.5c-0.1,0-1.1,1-1.1,1v-0.5c0,0,0.1,0.1-0.2,0.5c-0.3,0.4-1,1.2-1.2,1.4c-0.2,0.1-0.3-0.1,0-0.3
	c0.3-0.2,0.4-0.6,0.3-0.6c-0.1,0-0.6,0.4-1,0.6c-0.4,0.2-1.1,0.3-3.4,0.5c-2.3,0.1-4.5-1-4.8-1.2c-0.3-0.2-0.1-0.3-0.1-0.3
	C61.1,91.5,62,92,62,92c-0.2-0.3-0.7-0.5-1.8-0.6c-1.1,0-1.9-0.5-2.2-0.7c-0.4-0.2-1.8-1.7-1.8-1.7s0.5,0.1,2,0.3
	c1.5,0.2,4.1-0.3,5.9-1.5c1.8-1.2,2.9-1.6,2.9-1.6c0.2,0.1,0.8,0.1,1,0.1c0.2,0,1-0.3,0.3-1.3c-0.7-1-2-1.5-3.2-1.6
	c-1.2-0.1-2.2,0.5-4.5,1.2c-2.3,0.7-3.5-0.4-3.5-0.4l0.3-0.2c-0.6,0.1-1.5-0.4-1.5-0.4l0.2-0.2c-1.9-0.8-2.2-2.3-2.2-2.9
	c0-0.6,0.7-1.8,1-1.8c0.3,0,0.6,0.3,0.6,0.3l-0.3-0.5c0.8,0.1,2,1.1,2,1.1c-0.1-0.6-0.6-1-0.6-1l0.7,0.4c0.4-1.2-0.2-2.2-0.2-2.2
	h0.4l-0.2-0.4c0.1-0.2,0.7-0.9,1.1-1.1c0.4-0.1,2.8-1.6,3.6-2.2c0.8-0.6,0.9-1.8,0.8-2.3c-0.1-0.5-0.9-0.5-1.5-0.5
	c-0.5,0-2.2,0-3.5,0c-1.3,0-2-1.9-2-1.9c0.1-1.6,2.9-4.2,2.9-4.2l-0.4,0l0.8-0.5c-1.2-0.3-2.5,0.3-2.5,0.3v-0.3
	c-0.6,0.2-2,1.1-2,1.1l0-0.2L53,65.8l-0.8,0.9C48.8,65.7,46.7,66.8,46.7,66.8 M106.5,59.3H94.3c2,1.9,3.2,4.7,3.2,7.6
	c0,1.7-0.4,3.3-1.1,4.7l0,0l-0.1,0.1c-0.2,0.4-0.4,0.7-0.7,1.1L91.4,80c-0.2,2.4-0.8,5.3-1.7,7.5c10.4-1.5,18.3-10.2,18.3-20.6
	C108,64.2,107.5,61.8,106.5,59.3 M73.6,57.3l-0.7-0.7l-0.5-1.1l6.1,3V58l0.8,0.6c1.9-1.6,4.4-2.5,7.1-2.5H105
	C101.2,49.9,94.3,46,86.5,46c-6.8,0-12.9,3.1-16.8,7.8l0.3,0.5l0.3,0.5l1.4,2.3L73.6,57.3z M92.9,71.2l0.6-1c0.5-1,0.8-2.1,0.8-3.3
	c0-4.2-3.5-7.6-7.8-7.6c-1.7,0-3.2,0.5-4.4,1.3c0.1,0.1,0.1,0.1,0.2,0.2l1.5,1.2c0.4,0.3,3.5,2.7,4.8,6.5c0.3,0.8,0.5,1.6,0.7,2.4
	l1.2,2.3c0,0,0.1,0.1,0.1,0.2C91.5,72.8,92.3,72.1,92.9,71.2 M46.7,66.8c-0.5-0.1-2-2.8-2-2.8l0,0.6c-0.6-0.2-0.9-2.7-0.9-2.7
	c-0.6,0.4-0.9,1.8-0.9,1.8l-0.6,0.2l-0.5,1.4c-0.6,2.1-0.5,5.2-0.5,5.2C38.5,74,38.1,79,38.1,79l1-1.9c-1,1.9-0.6,8.4-0.6,8.4
	l0.6-2.4c0.7,7.1,3.7,11.6,8,15.7c4.3,4.1,12.1,5.7,12.1,5.7s-0.9-0.3-1.4-0.7c-0.4-0.3,0.1-0.4,0.1-0.4c3.6,1.5,6.9,1.2,6.9,1.2
	c-1.3-0.1-0.8-0.6-0.8-0.6c7.6,0.3,12-2.3,13.2-2.9c1.2-0.6,1.7-2.3,1.7-2.3c0.3,0,2.9-1.7,4.9-3.6c1.9-1.9,2.2-3.9,2.5-5.1
	c0.2-1.2-0.3-1.8-0.3-1.8c1.1-1.7,2.3-6.1,2.3-9.2c0-3.1-0.7-4.5-0.7-4.5c-0.1,0.8-0.8,2.1-0.8,2.1s-0.2-4.2-1.2-7.2
	c-1-3-3.7-5-3.7-5v0.6c-1.3-2-3.1-2.9-3.1-2.9l0.2,0.5l-7.6-3.3c4.9,2.5,8.1,8.7,8.1,8.7c-3-2.7-4.7-2.5-4.7-2.5
	c5.9,4.9,5.3,12.9,5.3,12.9c-0.7-2.3-2.3-3.4-2.3-3.4s0.1,0.1,0.3,4.2S77.2,85,77.2,85c-0.1-0.5-0.6-1.9-0.6-1.9s0.1,0.1-0.1,1.4
	c-0.2,1.3-0.8,3-1.8,4.9c-1,1.9-1.8,2-2,2.1c-0.2,0.1-0.8,0.1-0.6-0.4c0.2-0.5,0-0.6-0.2-0.5c-0.1,0-1.1,1-1.1,1v-0.5
	c0,0,0.1,0.1-0.2,0.5c-0.3,0.4-1,1.2-1.2,1.4c-0.2,0.1-0.3-0.1,0-0.3c0.3-0.2,0.4-0.6,0.3-0.6c-0.1,0-0.6,0.4-1,0.6
	c-0.4,0.2-1.1,0.3-3.4,0.5c-2.3,0.1-4.5-1-4.8-1.2c-0.3-0.2-0.1-0.3-0.1-0.3C61.1,91.5,62,92,62,92c-0.2-0.3-0.7-0.5-1.8-0.6
	c-1.1,0-1.9-0.5-2.2-0.7c-0.4-0.2-1.8-1.7-1.8-1.7s0.5,0.1,2,0.3c1.5,0.2,4.1-0.3,5.9-1.5c1.8-1.2,2.9-1.6,2.9-1.6
	c0.2,0.1,0.8,0.1,1,0.1c0.2,0,1-0.3,0.3-1.3c-0.7-1-2-1.5-3.2-1.6c-1.2-0.1-2.2,0.5-4.5,1.2c-2.3,0.7-3.5-0.4-3.5-0.4l0.3-0.2
	c-0.6,0.1-1.5-0.4-1.5-0.4l0.2-0.2c-1.9-0.8-2.2-2.3-2.2-2.9c0-0.6,0.7-1.8,1-1.8c0.3,0,0.6,0.3,0.6,0.3l-0.3-0.5
	c0.8,0.1,2,1.1,2,1.1c-0.1-0.6-0.6-1-0.6-1l0.7,0.4c0.4-1.2-0.2-2.2-0.2-2.2h0.4l-0.2-0.4c0.1-0.2,0.7-0.9,1.1-1.1
	c0.4-0.1,2.8-1.6,3.6-2.2c0.8-0.6,0.9-1.8,0.8-2.3c-0.1-0.5-0.9-0.5-1.5-0.5c-0.5,0-2.2,0-3.5,0c-1.3,0-2-1.9-2-1.9
	c0.1-1.6,2.9-4.2,2.9-4.2l-0.4,0l0.8-0.5c-1.2-0.3-2.5,0.3-2.5,0.3v-0.3c-0.6,0.2-2,1.1-2,1.1l0-0.2L53,65.8l-0.8,0.9
	C48.8,65.7,46.7,66.8,46.7,66.8 M52.3,66.6l0.8-0.9l1.5-1.1l0,0.2c0,0,1.4-0.9,2-1.1v0.3c0,0,1.3-0.6,2.5-0.3l-0.8,0.5l0.4,0
	c0,0-2.8,2.6-2.9,4.2c0,0,0.7,1.9,2,1.9c1.3,0,3,0,3.5,0c0.5,0,1.3,0,1.5,0.5c0.2,0.5,0,1.7-0.8,2.3c-0.8,0.6-3.2,2.1-3.6,2.2
	c-0.4,0.1-1.1,0.9-1.1,1.1l0.2,0.4H57c0,0,0.6,0.9,0.2,2.2l-0.7-0.4c0,0,0.5,0.4,0.6,1c0,0-1.3-1-2-1.1l0.3,0.5c0,0-0.3-0.4-0.6-0.3
	c-0.3,0-1,1.2-1,1.8c0,0.6,0.3,2.1,2.2,2.9l-0.2,0.2c0,0,0.9,0.5,1.5,0.4L57,84.2c0,0,1.2,1.1,3.5,0.4c2.3-0.7,3.3-1.4,4.5-1.2
	c1.2,0.1,2.5,0.6,3.2,1.6c0.7,1-0.1,1.3-0.3,1.3c-0.2,0-0.7,0-1-0.1c0,0-1.1,0.3-2.9,1.6c-1.8,1.2-4.4,1.7-5.9,1.5
	c-1.5-0.2-2-0.3-2-0.3s1.4,1.5,1.8,1.7c0.4,0.2,1.1,0.6,2.2,0.7c1.1,0,1.6,0.3,1.8,0.6c0,0-0.9-0.5-1.7-0.2c0,0-0.2,0.1,0.1,0.3
	c0.3,0.2,2.5,1.3,4.8,1.2c2.3-0.1,3-0.3,3.4-0.5c0.4-0.2,0.9-0.6,1-0.6c0.1,0,0,0.5-0.3,0.6c-0.2,0.2-0.2,0.4,0,0.3
	c0.2-0.1,0.9-1,1.2-1.4c0.3-0.4,0.2-0.5,0.2-0.5v0.5c0,0,1-1,1.1-1c0.1,0,0.3,0,0.2,0.5c-0.2,0.5,0.4,0.5,0.6,0.4
	c0.2-0.1,1-0.2,2-2.1c1-1.9,1.6-3.6,1.8-4.9c0.2-1.3,0.1-1.4,0.1-1.4s0.6,1.4,0.6,1.9c0,0,0.9-1.5,0.7-5.7s-0.3-4.2-0.3-4.2
	s1.7,1,2.3,3.4c0,0,0.6-8-5.3-12.9c0,0,1.7-0.2,4.7,2.5c0,0-3.2-6.1-8.1-8.7l7.6,3.3l-0.2-0.5c0,0,1.8,0.9,3.1,2.9v-0.6
	c0,0,2.7,2,3.7,5c1,3,1.2,7.2,1.2,7.2s0.7-1.3,0.8-2.1c0,0,0.8,1.4,0.7,4.5c0,3.1-1.3,7.5-2.3,9.2c0,0,0.5,0.6,0.3,1.8
	c-0.2,1.2-0.5,3.1-2.5,5.1c-1.9,1.9-4.5,3.6-4.9,3.6c0,0-0.5,1.7-1.7,2.3c-1.2,0.6-5.6,3.3-13.2,2.9c0,0-0.5,0.5,0.8,0.6
	c0,0-3.2,0.3-6.9-1.2c0,0-0.5,0-0.1,0.4c0.4,0.3,1.4,0.7,1.4,0.7s-7.8-1.6-12.1-5.7c-4.3-4.1-7.3-8.6-8-15.7l-0.6,2.4
	c0,0-0.4-6.4,0.6-8.4l-1,1.9c0,0,0.4-5,3.2-8.5c0,0-0.1-3,0.5-5.2l0.5-1.4l0.6-0.2c0,0,0.3-1.4,0.9-1.8c0,0,0.2,2.4,0.9,2.7l0-0.6
	c0,0,1.5,2.7,2,2.8C46.7,66.8,48.8,65.7,52.3,66.6"/>
</svg>
