<?xml version="1.0" encoding="utf-8"?>
<!-- Generator: Adobe Illustrator 19.2.1, SVG Export Plug-In . SVG Version: 6.00 Build 0)  -->
<!DOCTYPE svg PUBLIC "-//W3C//DTD SVG 1.1//EN" "http://www.w3.org/Graphics/SVG/1.1/DTD/svg11.dtd">
<svg version="1.1" id="Ebene_1" xmlns="http://www.w3.org/2000/svg" xmlns:xlink="http://www.w3.org/1999/xlink" x="0px" y="0px"
	 viewBox="0 0 130 130" style="enable-background:new 0 0 130 130;" xml:space="preserve">
<style type="text/css">
	.st0{fill:#E0C2CB;}
	.st1{fill:#FFFFFF;}
</style>
<path class="st0" d="M65,130c35.9,0,65-29.1,65-65S100.9,0,65,0S0,29.1,0,65S29.1,130,65,130"/>
<path class="st1" d="M102.6,61.2c0.7,0,1.1,0.9,0.6,1.4L90.3,75.5c-0.3,0.3-0.8,0.3-1.1,0L76.2,62.6c-0.5-0.5-0.1-1.4,0.6-1.4h7.5
	c0.5,0,0.9-0.5,0.8-1c-1.9-8.3-8.8-14.6-17.2-15.8c-0.7-0.1-1.9-0.2-3-0.2c-0.5,0-0.9-0.5-0.8-1l1.8-6.7c0.1-0.4-0.1-0.9-0.6-1
	L59,33.9c-0.8-0.2-0.8-1.4,0.1-1.6c1.9-0.3,3.9-0.5,5.9-0.5c16.7,0,30.5,12,32.7,28.7c0.1,0.4,0.4,0.7,0.8,0.7H102.6z M47.5,77.6
	c0.5-0.2,0.7-0.8,0.4-1.2c-2.3-3.3-3.6-7.3-3.6-11.7c0-5.4,2.1-10.3,5.4-14c0.4-0.4,1-0.3,1.3,0.1l3.7,6.3c0.4,0.6,1.3,0.5,1.5-0.2
	l4.7-17.7c0.1-0.4-0.1-0.9-0.6-1l-17.7-4.7c-0.7-0.2-1.3,0.6-0.9,1.2l2.1,3.6c0.2,0.3,0.1,0.8-0.2,1c-7.2,6.1-11.7,15.1-11.7,25.2
	c0,7.1,2.2,13.7,6.1,19.1c0.5,0.8,1.7,0.1,1.4-0.8l-0.5-1.3c-0.2-0.4,0.1-0.9,0.5-1L47.5,77.6z M83.6,75.8c-0.4-0.4-1-0.3-1.3,0.2
	c-3.7,5.7-10.1,9.5-17.4,9.5c-1.5,0-3-0.2-4.5-0.5c-0.5-0.1-0.8-0.7-0.5-1.1l2.8-6.1c0.3-0.7-0.3-1.3-1-1.1L44.6,83
	c-0.4,0.2-0.6,0.6-0.5,1l6.4,17.1c0.3,0.7,1.2,0.7,1.5,0.1l2.1-4.6c0.2-0.4,0.6-0.6,1-0.4c3.1,1,6.4,1.5,9.9,1.5
	c13.1,0,24.5-7.7,29.8-18.8c0.4-0.8-0.7-1.6-1.3-0.9l-3.2,3.2c-0.3,0.3-0.8,0.3-1.1,0L83.6,75.8z"/>
</svg>
