<?xml version="1.0" encoding="utf-8"?>
<!-- Generator: Adobe Illustrator 19.2.1, SVG Export Plug-In . SVG Version: 6.00 Build 0)  -->
<!DOCTYPE svg PUBLIC "-//W3C//DTD SVG 1.1//EN" "http://www.w3.org/Graphics/SVG/1.1/DTD/svg11.dtd">
<svg version="1.1" id="Ebene_1" xmlns="http://www.w3.org/2000/svg" xmlns:xlink="http://www.w3.org/1999/xlink" x="0px" y="0px"
	 viewBox="0 0 130 130" style="enable-background:new 0 0 130 130;" xml:space="preserve">
<style type="text/css">
	.st0{fill:#E0C2CB;}
	.st1{fill:#FFFFFF;}
</style>
<g>
	<path class="st0" d="M65,130c35.9,0,65-29.1,65-65S100.9,0,65,0S0,29.1,0,65S29.1,130,65,130"/>
	<path class="st1" d="M82.7,86.6c0-5.7,0.9-7.4,5.9-7.4c5,0,6.1,1.7,6.2,7.4H82.7z M89.3,96.4v2.8c0,0.7-0.5,1.2-1.2,1.2
		s-1.2-0.6-1.2-1.2v-2.8c-1.6-0.5-1.4-1.4-1.4-2.5c0-1.6,1.4-2.8,2.9-2.8s2.7,1.3,2.7,2.8C91.1,95,90.1,96,89.3,96.4 M96.7,86.6
		L96.7,86.6c0-7.3-1.3-9.5-8.2-9.5c-7,0-8.9,1.4-8.9,9.5v0c0,0-1.6,0.5-1.6,1.5v14.5c0,1,1.5,2.5,2.5,2.5h16.3c1,0,1.4-1.5,1.4-2.5
		V88.2C98.2,87.2,97.7,86.6,96.7,86.6 M63.4,91.3l-1.8-45.9l-17.3,3.8C41.2,84.3,63.4,91.3,63.4,91.3 M75.6,43.2l12.8,0.1
		c0,0,0,0,0,0c0,0,0,0.2,0.1,0.2c0,0,0,0.2,0,0.3c0,0.1,0,0.3,0,0.4c0,0.1,0,0.5,0,0.5c0,0.5,0.1,1.2,0.1,2.1
		c0.1,3.4,0.2,9.7-0.2,15.8c-0.3,4.9-0.9,8.3-1.5,10.5c0.5,0,1,0,1.6,0c1.4,0,2.7,0.1,3.8,0.3c0.6-2.8,1.1-6.3,1.4-10.5
		c0.4-6.3,0.3-12.7,0.2-16.2c0-0.9,0-1.5,0-2c0-5.3-3.3-6.7-5-6.7l-13.3-0.1c-2,0-4.3-0.8-6.7-1.6c-2.7-0.9-5.5-1.9-8.3-1.9
		c-1.6,0-3.5,0.7-5.9,1.5c-1.7,0.6-3.7,1.3-5.6,1.8c-4.1,1-8.4,1.4-11,1.7c-1,0.1-1.8,0.2-2.3,0.3c-2.8,0.5-3,3.4-2.8,11.1
		c0.1,4.6,0.5,9.9,0.6,12.9c0.5,7.3,4.3,21.9,12.6,30.2c7.3,7.3,15.1,8.1,18,8.1c0.7,0,1.1,0,1.1,0l0.2,0c3.2-0.6,6-1.6,8.4-2.9
		v-6.2c-2.5,1.8-5.5,3.1-9.3,3.8c-0.9,0.1-8,0.3-14.8-6.5c-7.5-7.5-10.7-21.3-11-26.9c-0.7-11.4-0.8-16.5-0.6-18.6
		c0.1,0,0.2,0,0.3,0c2.7-0.3,7.2-0.8,11.6-1.8c2.2-0.5,4.3-1.3,6.2-1.9c1.6-0.6,3.5-1.2,4.2-1.2c2,0,4.2,0.8,6.6,1.6
		C70,42.2,72.8,43.2,75.6,43.2"/>
</g>
</svg>
