<?xml version="1.0" encoding="utf-8"?>
<!-- Generator: Adobe Illustrator 19.2.1, SVG Export Plug-In . SVG Version: 6.00 Build 0)  -->
<!DOCTYPE svg PUBLIC "-//W3C//DTD SVG 1.1//EN" "http://www.w3.org/Graphics/SVG/1.1/DTD/svg11.dtd">
<svg version="1.1" id="Ebene_2" xmlns="http://www.w3.org/2000/svg" xmlns:xlink="http://www.w3.org/1999/xlink" x="0px" y="0px"
	 viewBox="0 0 1370 544.9" style="enable-background:new 0 0 1370 544.9;" xml:space="preserve">
<style type="text/css">
	.st0{fill:#FFFFFF;stroke:#CDA5B4;stroke-width:1.36;stroke-miterlimit:10;}
	.st1{fill:#DEC0CA;stroke:#CDA5B4;stroke-width:1.36;stroke-miterlimit:10;}
	.st2{fill:#BCBEBE;stroke:#666666;stroke-miterlimit:10;}
	.st3{fill:#666666;}
	.st4{fill:#F0F0F0;}
	.st5{fill:#DEC0CA;stroke:#CDA5B4;stroke-width:1.03;stroke-miterlimit:10;}
	.st6{fill:#CDA5B4;}
	.st7{fill:#FFFFFF;stroke:#CDA5B4;stroke-width:0.77;stroke-miterlimit:10;}
	.st8{fill:#666666;stroke:#000000;stroke-miterlimit:10;}
	.st9{fill:#DEC0CA;}
	.st10{fill:#1D1D1B;}
	.st11{fill:#C9C8C8;}
	.st12{fill:#E5CAD3;}
	.st13{enable-background:new    ;}
	.st14{fill:#BCBEBE;}
	.st15{fill:none;stroke:#666666;stroke-miterlimit:10;}
	.st16{fill:none;}
	.st17{fill:#DEC0CA;stroke:#CDA5B4;stroke-width:0.6;stroke-miterlimit:10;}
	.st18{fill:#FFFFFF;stroke:#CDA5B4;stroke-width:0.45;stroke-miterlimit:10;}
	.st19{fill:#DEC0CA;stroke:#CDA5B4;stroke-width:0.42;stroke-miterlimit:10;}
	.st20{fill:#FFFFFF;stroke:#CDA5B4;stroke-width:0.31;stroke-miterlimit:10;}
	.st21{fill:#DEC0CA;stroke:#CDA5B4;stroke-width:0.25;stroke-miterlimit:10;}
	.st22{fill:#FFFFFF;stroke:#CDA5B4;stroke-width:0.19;stroke-miterlimit:10;}
	.st23{fill:#DEC0CA;stroke:#CDA5B4;stroke-width:0.13;stroke-miterlimit:10;}
	.st24{fill:#FFFFFF;stroke:#CDA5B4;stroke-width:9.000000e-02;stroke-miterlimit:10;}
</style>
<title>gonimo-family</title>
<circle class="st0" cx="329.9" cy="254" r="179.3"/>
<path class="st1" d="M329,62.8c-105.5,0-191,85.5-191,191s85.5,191,191,191s191-85.5,191-191S434.5,62.8,329,62.8z M329,427.8
	c-96.1,0-174-77.9-174-174s77.9-174,174-174s174,77.9,174,174C503,349.9,425.1,427.8,329,427.8C329,427.8,329,427.8,329,427.8
	L329,427.8z"/>
<polygon class="st2" points="476.5,387.5 450.5,387.5 450.5,361.5 424.5,361.5 424.5,387.5 398.5,387.5 398.5,413.5 424.5,413.5 
	424.5,439.5 450.5,439.5 450.5,413.5 476.5,413.5 "/>
<rect x="222.8" y="198.6" class="st3" width="92.7" height="156.4"/>
<rect x="227.4" y="214.3" class="st4" width="83.4" height="121.5"/>
<path class="st5" d="M270,260.8c-1.8,0-4.6,0-6-0.9s-6.9-3.1-11.6-0.1s-7.7,9.1-7,12.8s3.3,9,7.7,9.9c4.4,0.9,10.2-2,12.3-3.1
	c2.8-1.1,5.9-0.9,8.6,0.5c2.4,1.5,10.2,4.9,14.9-0.3s4.4-10.1,4-12s-2.4-10.2-10.8-9.7c0,0-4.6,0.3-6.8,1.9
	C273.5,260.2,271.8,260.6,270,260.8z"/>
<path class="st6" d="M269,267.8c-7.9,0-14.3,4.6-14.3,10.2s6.4,10.2,14.3,10.2s14.3-4.6,14.3-10.2S276.9,267.8,269,267.8z
	 M269,285.8c-6.1,0-11.1-3.5-11.1-7.9s5-7.9,11.1-7.9s11.1,3.5,11.1,7.9S275.1,285.8,269,285.8L269,285.8z"/>
<ellipse class="st7" cx="268.8" cy="270.5" rx="8.7" ry="6.7"/>
<path d="M258.1,205.8h22.2c0.7,0,1.2,0.6,1.2,1.2v0.5c0,0.7-0.6,1.2-1.2,1.2h-22.2c-0.7,0-1.2-0.6-1.2-1.2V207
	C256.8,206.3,257.4,205.8,258.1,205.8z"/>
<circle cx="269.1" cy="345.7" r="5.5"/>
<rect x="339.6" y="196.2" class="st3" width="95.5" height="161.2"/>
<rect x="344.4" y="212.4" class="st4" width="86" height="125.2"/>
<path d="M376,203.6h22.8c0.7,0,1.3,0.6,1.3,1.3v0.5c0,0.7-0.6,1.3-1.3,1.3H376c-0.7,0-1.3-0.6-1.3-1.3v-0.5
	C374.7,204.2,375.3,203.6,376,203.6z"/>
<circle cx="387.4" cy="347.8" r="5.7"/>
<path class="st8" d="M368.3,293.5h39.2V281c0,0-0.4-5.2-5.1-5.7s-7.5-1.5-7.8-3.9c-0.2-2-0.4-4.5,0.5-5.5s3.4-2.3,3.4-5.8
	s-0.9-10-9.3-10s-10.6,5.6-10.6,9.5c0,3.9,2.5,5.4,3,6.8c0.7,1.5,0.9,3.3,0.5,4.9c-0.4,1.6-1.8,4.2-6.7,4.2
	C370.1,275.5,367.6,277.5,368.3,293.5z"/>
<path class="st9" d="M342.5,144.2c-11.2,4.5-24.1-1.2-28.8-12.7c-4.7-11.3,0.7-24.3,12-29c6.8-2.7,14.4-1.8,20.4,2.3
	c-11.3-9.2-27.9-7.6-37.1,3.7c-9.2,11.3-7.6,27.9,3.7,37.1s27.9,7.6,37.1-3.7c3.3-4,5.3-8.8,5.8-13.9
	C354.4,135.3,349.4,141.4,342.5,144.2L342.5,144.2L342.5,144.2z"/>
<path class="st10" d="M342.3,143.8c-11,4.2-23.4-1.1-28.1-11.9c-4.5-10.5,0-23.3,10.3-28.4c7-3.4,15.3-2.7,21.7,1.6
	c0.4,0.3,0.2-0.5,0-0.7c-11.3-9.3-28.1-7.7-37.4,3.7c-3.3,4-5.3,8.9-5.9,14c-0.9,8.9,2.6,17.6,9.3,23.4c11.1,9.6,27.9,8.3,37.4-2.8
	c3.5-4.1,5.7-9.1,6.3-14.5c0-0.3-0.5-0.9-0.6-0.5C354,134.9,349.1,141,342.3,143.8c-0.3,0.1,0.1,0.9,0.4,0.8
	c6.9-2.9,11.9-9,13.3-16.3l-0.6-0.5c-1.5,14.4-14.4,24.8-28.8,23.3c-3.7-0.4-7.3-1.6-10.6-3.5c-7.8-4.7-12.6-13.2-12.6-22.3
	c0.1-14.5,12-26.1,26.4-25.9c5.9,0.1,11.6,2.1,16.2,5.8v-0.7c-5.9-4-13.5-5-20.2-2.5c-5.6,2.1-10,6.4-12.4,11.9
	c-4.5,11.1,0.1,23.8,10.6,29.6c5.7,3.1,12.5,3.5,18.6,1.1C343,144.4,342.6,143.7,342.3,143.8L342.3,143.8L342.3,143.8z"/>
<path class="st11" d="M318.5,120.8c-2.8,3.5-4.2,8-4,12.5c0.5,7.4,3.3,8.7,7.4,11c0,0,2.1,3.9,6,3.9c1.7,0,3.4-0.7,4.5-2
	c0,0,2,1.6,3.2,1.5c1.9-0.1,3.7-1,4.9-2.6c0.4,0.5,1.1,0.6,1.6,0.2c0.2-0.1,0.3-0.3,0.4-0.6c0,0,0.8,1.3,1.7,0.6
	c0.6-0.5,0.9-1.2,1-1.9c0.2,0.4,0.5,0.7,0.8,0.9c0.3,0,1.4-0.1,1.6-2.4s-3.1-2.5-3.4-2.4c0.7-2.3,0.9-4.7,0.4-7
	c0.9,0.3,1.9-0.3,2.1-1.2c0,0,0,0,0,0c0-0.1,0-0.2,0-0.2c0.4-3.5,0.5-6.9,0.1-10.4c-0.4-2.9-1.5-8.4-4.5-9.9s-5.7-2.6-7.1-2.2
	s-2.3,1.4-3.3,2.9s-2.7,3.4-3,5.3c-1.4-0.3-2.9-0.3-4.3-0.2c0,0-2.2-9.8-6.9-14.8s-8.8-7.8-11.3-7.7s-2.5,1.7-2.5,2.2s2,9,4.9,14.2
	s3.6,6.2,4.4,7.1S317.6,120.9,318.5,120.8L318.5,120.8L318.5,120.8z"/>
<path class="st10" d="M321.9,130.3c-1-1-2.4-1.3-3.7-0.8c-0.4,0.1-0.8,0.4-1.1,0.6c-0.2,0.2-0.1,0,0.1,0h-0.6
	c-0.2,0-0.4,0.2-0.4,0.4s0.2,0.4,0.4,0.4c0.4,0.1,0.9-0.1,1.2-0.3c1.1-0.9,2.7-0.8,3.6,0.2c0.2,0.1,0.4,0.1,0.6-0.1
	C321.9,130.6,321.9,130.5,321.9,130.3L321.9,130.3L321.9,130.3z"/>
<path class="st10" d="M334.4,128.4c0.4-0.6,1.1-1,1.8-1.2c0.8,0,1.6,0.2,2.3,0.7c0.3,0.2,0.7,0.2,1.1,0.2c0.2,0,0.4-0.2,0.4-0.4
	c0-0.2-0.2-0.4-0.4-0.4c0,0,0,0,0,0c-0.3,0-0.6,0-0.8-0.2c-0.4-0.2-0.7-0.4-1.1-0.6c-0.7-0.2-1.3-0.2-2,0c-0.8,0.3-1.5,0.8-1.9,1.4
	C333.5,128.4,334.2,128.8,334.4,128.4L334.4,128.4L334.4,128.4z"/>
<path class="st10" d="M326.7,141.6c0.1,0,0.2,0.1,0.2,0.2s-0.1,0.2-0.2,0.2s-0.2-0.1-0.2-0.2S326.6,141.6,326.7,141.6L326.7,141.6
	L326.7,141.6z"/>
<path class="st10" d="M326.3,143.2c0.1,0,0.2,0.1,0.2,0.2s-0.1,0.2-0.2,0.2s-0.2-0.1-0.2-0.2S326.2,143.2,326.3,143.2L326.3,143.2
	L326.3,143.2z"/>
<path class="st10" d="M327.3,144.5c0.1,0,0.2,0.1,0.2,0.2s-0.1,0.2-0.2,0.2s-0.2-0.1-0.2-0.2S327.1,144.5,327.3,144.5L327.3,144.5
	L327.3,144.5z"/>
<path class="st10" d="M336.4,140.8c0.1,0,0.2,0.1,0.2,0.2s-0.1,0.2-0.2,0.2s-0.2-0.1-0.2-0.2S336.3,140.8,336.4,140.8L336.4,140.8
	L336.4,140.8z"/>
<path class="st10" d="M337,141.9c0.1,0,0.2,0.1,0.2,0.2s-0.1,0.2-0.2,0.2s-0.2-0.1-0.2-0.2S336.9,141.9,337,141.9L337,141.9
	L337,141.9z"/>
<path class="st10" d="M336.2,143.3c0.1,0,0.2,0.1,0.2,0.2s-0.1,0.2-0.2,0.2s-0.2-0.1-0.2-0.2S336.1,143.3,336.2,143.3L336.2,143.3
	L336.2,143.3z"/>
<path class="st12" d="M329,141.1c0.1,0.4,0.2,0.8,0.4,1.2c0.8,0.4,1.7,0.7,2.6,0.9c0.8-0.5,1.6-1.1,2.2-1.7c0-0.4-0.1-0.9-0.3-1.3
	c-0.7-0.8-1.9-1.2-3-1.1C329.8,139.2,329,140.1,329,141.1C329,141.1,329,141.1,329,141.1L329,141.1L329,141.1L329,141.1z"/>
<path class="st12" d="M319.5,120.4c0.6-0.9,1.4-1.6,2.4-2c-0.4-0.9-0.8-1.9-1-2.9c-0.4-1.8-3.2-10.2-6.9-14.5s-4.7-4.9-8-5.2
	c0,0,0.5,5.8,2,8.8s3.2,8.2,5.1,10.3C315.1,116.9,317.2,118.7,319.5,120.4L319.5,120.4L319.5,120.4z"/>
<path class="st10" d="M322.3,118.3c-1.1-1.5-1.1-3.8-1.7-5.5c-0.8-2.4-1.9-4.8-3.1-7.1c-2.3-4.3-5.9-10.2-11.4-10.3
	c-0.2,0-0.4,0.1-0.5,0.2c0,5.3,2.5,10.4,4.7,15.2c1,2.2,2.4,4.2,4.1,5.9c1.5,1.3,3.3,2.3,4.7,3.8c0.2,0.2,0.9,0,0.8-0.2
	c-1.3-1.4-3.1-2.3-4.5-3.6c-1.9-1.8-3.4-3.9-4.4-6.2c-2.2-4.7-4.6-9.7-4.6-14.9l-0.5,0.2c2.7,0,5,2,6.7,3.9c1.9,2.2,3.5,4.7,4.7,7.3
	c1,2.1,1.9,4.2,2.6,6.4c0.5,1.6,0.5,3.6,1.5,4.9C321.7,118.6,322.5,118.4,322.3,118.3L322.3,118.3L322.3,118.3L322.3,118.3
	L322.3,118.3z"/>
<path class="st12" d="M330.9,115.8c0,0,6,1.7,6.9,3l-1.3-6.8l-0.2-2.2c0,0-0.6-0.5-1.8,0.5S330.9,115.8,330.9,115.8L330.9,115.8
	L330.9,115.8z"/>
<path class="st10" d="M345.5,143.6c-0.1-0.2-0.6-0.5-0.7-0.1c-0.2,1-1.2,2.6-2.1,1.2c-0.1-0.2-0.3-0.2-0.5-0.1c0,0,0,0,0,0l-0.1,0.1
	c-0.2,0.5-0.7,0.7-1.2,0.5c0,0,0,0,0,0l-0.2-0.1l0,0c-0.8-0.6-1.1-1.7-0.6-2.6c2.4-0.5,4.8-0.7,7.2-0.6
	C347.3,143.3,346.4,145.2,345.5,143.6L345.5,143.6L345.5,143.6L345.5,143.6z M333.2,140.6c0.2,0.2,0.4,0.4,0.5,0.6
	c0.4,0.8-0.2,1.1-0.8,1.5c-0.3,0.2-0.6,0.4-1,0.6h-0.1c-0.2-0.1-0.4-0.1-0.6-0.2c-0.5-0.1-1-0.3-1.4-0.5c-0.3-0.3-0.5-0.8-0.6-1.2
	C329,139.5,332.2,139.8,333.2,140.6L333.2,140.6L333.2,140.6z M335.8,147.7c-1.1-0.1-2.2-0.5-3.1-1.3l-0.5-2.6
	c0.2-0.1,0.3-0.2,0.5-0.3c0.7-0.3,1.2-0.8,1.7-1.4c0.5-1.2-1-2.3-1.9-2.6c-1.5-0.4-3.9,0.2-3.7,2.2c0,0.6,0.3,1.1,0.7,1.5
	c0.7,0.4,1.5,0.6,2.3,0.8l0,0l0.5,2.4c-1.5,2-4.8,2.3-6.9,1.2c-1.2-0.7-2.2-1.7-2.9-2.8l-0.1-0.1c0.7-0.2,1.3-0.4,2-0.6
	c0.3-0.1,0.2-0.4-0.1-0.3c-0.6,0.2-1.3,0.3-2,0.6c-0.2-0.5-0.3-1-0.4-1.5c0.5,0,1,0.1,1.5,0.1c0.2,0,0.5-0.3,0.2-0.4
	c-0.5-0.1-1.1-0.1-1.6-0.2c-0.1-0.6-0.1-1.2,0-1.8c0.8,0.2,1.6,0.5,2.3,0.9c0.2,0.1,0.6-0.1,0.4-0.3c-0.8-0.5-1.7-0.8-2.6-1v-0.1
	c0.3-2.3,0.7-4.6,0.9-6.9c0.4-2.2,0-4.4-1.1-6.3c-0.6-1.1-1.4-2.1-2.3-3c-0.1-0.1-0.5,0.1-0.5,0.2c1,1,1.8,2.1,2.5,3.3
	c1.2,2.1,1.2,4,0.9,6.4c-0.2,2.1-0.6,4.3-0.8,6.4c-0.5-0.1-0.9-0.2-1.3-0.3c-1.3-0.3-2.7-0.5-4-0.6c-1.7-3.4-1.6-8-0.6-11.5
	c0.6-2.3,1.7-4.5,3.3-6.3c0.1-0.1,0.1-0.3,0-0.4c-0.1-0.1-0.2-0.2-0.4-0.2c-0.8,0.1-1.9-0.9-2.5-1.3c-0.8-0.5-1.5-1.1-2.1-1.7
	c-0.8-0.8-1.4-1.7-2-2.7c-2.7-4.5-4.8-9.3-6.2-14.3c-0.5-1.3-0.8-2.7-1-4.1c-0.2-2.3,2.9-2,4.3-1.4c2.3,1.1,4.5,2.6,6.3,4.5
	c2.2,1.9,4,4.2,5.4,6.8c1.8,3.3,3.1,6.8,3.9,10.4c0,0.2,0.2,0.4,0.4,0.4c1-0.1,2.1-0.1,3.1,0c0.3,0,0.7,0.1,1,0.1
	c1.5,0.4,3,0.9,4.5,1.5c0.5,0.2,0.5-0.5,0.1-0.7c-1.3-0.5-2.7-1-4.1-1.3c0.5-1.9,1.9-3.4,3-4.9c1.3-1.8,2.7-3,5.1-2.4
	c2.1,0.4,4,1.4,5.7,2.7c1.2,1.3,2,2.8,2.4,4.5c0.8,2.9,1.2,5.9,1.2,8.9c0,1.5-0.1,3.1-0.2,4.6c-0.1,1.2-0.4,2.6-1.9,2.3
	c-0.3-0.3-0.6-0.6-0.8-1c-0.8-1.2-1.5-2.5-2.2-3.8c-2.1-4-3.7-8.2-4.7-12.6c-0.2-1.2-0.5-2.3-0.6-3.5c0-0.5-0.1-1-0.2-1.5
	c-0.3-0.1-0.6-0.1-0.9,0c-2.5,0.7-3.9,4.3-4.9,6.2c-0.1,0.2,0.4,0.2,0.5,0c0.8-1.9,1.9-3.7,3.4-5.2c0.3-0.2,1.1-1,1.5-0.8
	c0.2,1.1,0.3,2.2,0.4,3.3c0.2,1.2,0.5,2.4,0.8,3.7c0.6,2.3,1.4,4.5,2.4,6.7c1.2,2.9,2.7,5.7,4.4,8.3c0.1,0.2,0.2,0.3,0.4,0.5
	c0,0.1,0,0.1,0,0.2c0.2,1.2,0.3,2.4,0.2,3.6c-1.5,0.6-2.9,1.4-4.2,2.3c-0.9-3.1-2.7-5.8-5-8c-0.1-0.1-0.5,0.1-0.5,0.2
	c2.4,2.2,4.1,5,5.1,8.1c-0.5,0.4-1.1,0.8-1.5,1.3c-0.2,0.2,0.2,0.2,0.4,0.1c0.4-0.4,0.8-0.7,1.2-1.1c0.1,0.5,0.2,1,0.3,1.5l-0.1,0.1
	c-0.6,0.1-1.2,0.3-1.7,0.5c-0.3,0.1,0,0.3,0.2,0.2c0.4-0.2,0.8-0.3,1.3-0.4c-0.3,0.4-0.5,0.9-0.6,1.4l-1.1,0.3
	c-0.4,0.1-0.2,0.3,0.1,0.2s0.7-0.2,1-0.2c-0.2,1,0,2,0.7,2.7C338.9,146.8,337.3,147.6,335.8,147.7L335.8,147.7L335.8,147.7z
	 M319.9,143.2l-0.5-0.3c0.6,0,1.2,0,1.9,0c0.1,0.4,0.1,0.9,0.3,1.3C321.1,143.8,320.5,143.5,319.9,143.2L319.9,143.2L319.9,143.2z
	 M318.9,142.5c-0.9-0.6-1.6-1.3-2.3-2.2c-0.1-0.2-0.3-0.4-0.4-0.6c1.1,0.1,2.3,0.2,3.4,0.4c0.5,0.1,1.1,0.2,1.6,0.3
	c-0.1,0.6-0.1,1.3-0.1,1.9C320.5,142.4,319.7,142.4,318.9,142.5L318.9,142.5z M340.4,139c1.3-0.9,2.6-1.7,4.1-2.3
	c-0.1,0.9-0.3,1.8-0.5,2.6c-1.1,0-2.2,0.3-3.2,0.9l-0.1,0.1C340.6,139.9,340.6,139.5,340.4,139L340.4,139L340.4,139z M345.3,140.3
	c0.5,0.1,1.5,0.3,1.6,0.9c0,0.1,0.1,0.2,0.3,0.3c0,0.1,0,0.2,0,0.2c-2.4,0-4.7,0.2-7.1,0.6c0.2-0.5,0.6-0.9,1-1.3
	c0.7,0,1.4,0.1,2.1,0.3c0.1,0.1,0.6-0.2,0.4-0.2c-0.6-0.2-1.3-0.4-2-0.4C342.7,140.2,344.1,140,345.3,140.3L345.3,140.3L345.3,140.3
	z M359.4,143.8c-3.7-1.2-7.5-1.9-11.4-2c-0.1-0.4-0.3-0.8-0.5-1.1c-0.1-0.1-0.2-0.2-0.3-0.3c-0.6-0.6-1.5-0.9-2.4-0.9
	c0.3-1,0.4-2,0.5-3c2.2-0.8,4.5-1.5,6.8-1.9c0.3-0.1,0.2-0.3-0.1-0.3c-2.3,0.5-4.5,1.1-6.7,1.9c0-0.9,0-1.9-0.2-2.8
	c1.9,0.1,2.2-1.8,2.3-3.4c0.3-3.1,0.3-6.2-0.1-9.3c-0.5-2.8-1.1-6-2.9-8.3c-1.1-1.2-2.4-2-3.9-2.6c-1.4-0.8-3-1.2-4.7-1.3
	c-1.6,0.1-2.9,1.4-3.8,2.7c-1.2,1.7-2.8,3.4-3.3,5.5c-0.7-0.1-1.3-0.2-2-0.2c-0.6,0-1.1,0-1.7,0.1c-0.9-3.6-2.2-7.2-4-10.4
	c-1.5-2.6-3.4-4.9-5.6-6.9c-2-2.1-4.4-3.7-7-4.8c-1.4-0.5-3.7-0.7-4.6,0.9c-0.5,1,0,2.3,0.2,3.3c1.4,5.6,3.5,10.9,6.4,15.8
	c0.7,1.4,1.6,2.6,2.6,3.8c0.9,0.9,1.9,1.7,3,2.3c0.5,0.4,1,0.7,1.5,0.9c-3.4,4.5-4.5,10.3-3.2,15.8c0.2,0.7,0.4,1.4,0.7,2
	c-3.7-0.2-7.5,0-11.2,0.4c-0.3,0-0.4,0.4,0,0.4c3.8-0.5,7.6-0.6,11.4-0.4c0.6,1.2,1.4,2.2,2.5,3c-0.8,0.1-1.6,0.3-2.5,0.5
	c-0.3,0.1-0.2,0.4,0.1,0.3c0.9-0.3,1.8-0.4,2.8-0.6c0.2,0.1,0.4,0.3,0.6,0.4c0.7,0.4,1.6,0.8,2.3,1.3c-5.2,1.9-10.3,5.4-12.6,10.4
	c-0.1,0.2,0.4,0.3,0.5,0.1c2.3-4.9,7.3-8.4,12.5-10.2v0.2c0.6,0.6,1.1,1.5,1.8,2.1c2.5,2.2,6.8,2.7,9.1,0c0.9,0.8,2.1,1.3,3.4,1.3
	c1.8-0.1,3.5-1,4.7-2.4c0.6,0.4,1.5,0.3,1.9-0.3l0,0c1.1,1.1,2.3,0.2,2.9-1.1c0.3,0.3,0.7,0.5,1.1,0.3c1-0.3,1.4-1.5,1.5-2.4
	c0-0.2,0-0.4,0-0.6c3.7,0.1,7.4,0.8,11,2C359.1,144.1,359.5,143.9,359.4,143.8L359.4,143.8L359.4,143.8z"/>
<path class="st9" d="M291.8,159.1c-0.6,0-1.1,0.1-1.6,0.3c-0.5,0.2-0.9,0.5-1.2,0.9c-0.4,0.4-0.6,0.8-0.8,1.3
	c-0.2,0.5-0.3,1.1-0.3,1.7c0,1.1,0.3,2.1,1.1,2.9c1.6,1.5,4.1,1.5,5.8,0c0.7-0.8,1.1-1.9,1.1-2.9c0-0.6-0.1-1.1-0.3-1.7
	c-0.2-0.5-0.5-0.9-0.8-1.3c-0.3-0.4-0.8-0.7-1.2-0.9C292.9,159.2,292.3,159,291.8,159.1L291.8,159.1L291.8,159.1z M298,169.2
	c0,0.9-0.1,1.7-0.5,2.5c-0.3,0.7-0.8,1.4-1.3,1.9c-0.6,0.6-1.3,1-2.1,1.3c-0.9,0.3-1.8,0.5-2.7,0.5c-1.1,0-2.1-0.1-3.2-0.5
	c-1-0.4-1.9-0.9-2.7-1.7l1.5-1.9c0.5,0.6,1.2,1.1,1.9,1.5c0.7,0.3,1.5,0.5,2.4,0.5c0.7,0,1.4-0.1,2.1-0.4c0.5-0.2,1-0.6,1.3-1
	c0.3-0.4,0.6-0.8,0.7-1.3c0.1-0.5,0.2-1,0.2-1.5v-1.8h-0.1c-0.4,0.7-1,1.3-1.8,1.6c-0.7,0.3-1.6,0.5-2.4,0.5c-0.8,0-1.7-0.2-2.5-0.5
	c-0.7-0.3-1.4-0.7-1.9-1.3c-0.6-0.6-1-1.3-1.3-2c-0.3-0.8-0.5-1.6-0.5-2.4c0-0.8,0.1-1.7,0.4-2.4c0.3-0.7,0.7-1.4,1.2-2
	c0.5-0.6,1.2-1,1.9-1.4c0.8-0.3,1.7-0.5,2.5-0.5c0.8,0,1.6,0.2,2.4,0.5c0.7,0.3,1.4,0.8,1.8,1.5l0,0v-1.7h2.4V169.2L298,169.2
	L298,169.2z"/>
<path class="st9" d="M303.3,163.2c0,0.6,0.1,1.1,0.3,1.7c0.2,0.5,0.5,0.9,0.8,1.3c0.3,0.4,0.8,0.7,1.2,0.9c1.1,0.4,2.2,0.4,3.3,0
	c0.5-0.2,0.9-0.5,1.3-0.9c0.4-0.4,0.6-0.8,0.8-1.3c0.4-1.1,0.4-2.3,0-3.4c-0.2-0.5-0.5-0.9-0.8-1.3c-0.4-0.4-0.8-0.7-1.3-0.9
	c-1.1-0.4-2.2-0.4-3.3,0c-0.5,0.2-0.9,0.5-1.2,0.9c-0.4,0.4-0.6,0.8-0.8,1.3C303.4,162.1,303.3,162.7,303.3,163.2L303.3,163.2
	L303.3,163.2z M300.9,163.2c0-0.8,0.2-1.7,0.5-2.4c1.4-3.3,5.2-4.8,8.4-3.4c1.5,0.6,2.7,1.9,3.4,3.4c0.3,0.8,0.5,1.6,0.5,2.4
	c0,1.7-0.7,3.3-1.9,4.5c-0.6,0.6-1.3,1-2,1.4c-2.4,1-5.2,0.5-7.1-1.4C301.6,166.5,300.9,164.9,300.9,163.2L300.9,163.2L300.9,163.2z
	"/>
<path class="st9" d="M316.5,157.3h2.3v1.9l0,0c0.3-0.7,0.8-1.2,1.5-1.6c0.8-0.4,1.6-0.6,2.5-0.6c0.6,0,1.1,0.1,1.6,0.3
	c0.5,0.2,1,0.4,1.4,0.8c0.4,0.4,0.8,0.9,1,1.4c0.3,0.7,0.4,1.4,0.4,2.1v7.7h-2.3v-7.1c0-0.5-0.1-1-0.2-1.4c-0.1-0.4-0.3-0.7-0.6-1
	c-0.2-0.2-0.5-0.4-0.9-0.5c-0.3-0.1-0.7-0.2-1-0.2c-0.5,0-0.9,0.1-1.3,0.2c-0.4,0.2-0.8,0.4-1.1,0.7c-0.3,0.4-0.6,0.8-0.7,1.3
	c-0.2,0.6-0.3,1.2-0.2,1.8v6.2h-2.2L316.5,157.3L316.5,157.3L316.5,157.3z"/>
<polygon class="st9" points="330.6,157.3 332.9,157.3 332.9,169.3 330.6,169.3 330.6,157.3 "/>
<path class="st9" d="M336.5,157.3h2.1v1.9l0,0c0.1-0.2,0.2-0.5,0.4-0.6c0.2-0.3,0.5-0.5,0.8-0.7c0.4-0.2,0.8-0.4,1.2-0.6
	c0.5-0.2,1-0.3,1.5-0.2c0.8,0,1.6,0.2,2.3,0.6c0.6,0.4,1.2,1,1.5,1.7c0.4-0.7,0.9-1.3,1.6-1.7c0.7-0.4,1.4-0.6,2.2-0.6
	c0.8,0,1.6,0.1,2.3,0.5c0.6,0.3,1,0.7,1.4,1.2c0.3,0.5,0.6,1.1,0.7,1.7c0.1,0.7,0.2,1.3,0.2,2v7h-2.3v-6.7c0-0.4,0-0.9-0.1-1.3
	c0-0.4-0.2-0.8-0.4-1.1c-0.2-0.3-0.5-0.6-0.8-0.8c-1.3-0.6-2.8-0.3-3.7,0.7c-0.5,0.8-0.7,1.7-0.7,2.6v6.6h-2.3V163
	c0-0.5,0-1.1-0.1-1.6c0-0.4-0.2-0.8-0.4-1.2c-0.2-0.3-0.4-0.6-0.8-0.8c-0.4-0.2-0.9-0.3-1.3-0.3c-0.4,0-0.8,0.1-1.2,0.2
	c-0.4,0.2-0.7,0.4-1,0.7c-0.3,0.4-0.5,0.8-0.7,1.2c-0.2,0.6-0.3,1.2-0.2,1.8v6.2h-2.2L336.5,157.3L336.5,157.3L336.5,157.3z"/>
<path class="st9" d="M359.8,163.2c0,0.6,0.1,1.1,0.3,1.7c0.2,0.5,0.5,0.9,0.8,1.3c0.3,0.4,0.8,0.7,1.2,0.9c1.1,0.4,2.2,0.4,3.3,0
	c0.5-0.2,0.9-0.5,1.2-0.9c0.4-0.4,0.6-0.8,0.8-1.3c0.4-1.1,0.4-2.3,0-3.4c-0.2-0.5-0.5-0.9-0.8-1.3c-0.3-0.4-0.8-0.7-1.2-0.9
	c-1.1-0.4-2.2-0.4-3.3,0c-0.5,0.2-0.9,0.5-1.2,0.9c-0.4,0.4-0.6,0.8-0.8,1.3C359.9,162.1,359.8,162.7,359.8,163.2L359.8,163.2
	L359.8,163.2z M357.4,163.2c0-0.8,0.2-1.7,0.5-2.4c1.4-3.3,5.2-4.8,8.4-3.4c1.5,0.6,2.7,1.9,3.4,3.4c0.3,0.8,0.5,1.6,0.5,2.4
	c0,1.7-0.7,3.3-1.9,4.5c-2.5,2.5-6.6,2.5-9.1,0C358,166.5,357.4,164.9,357.4,163.2L357.4,163.2L357.4,163.2z"/>
<g class="st13">
	<path class="st3" d="M312.4,183.8V178h-0.9V177h0.9v-0.3c0-0.9,0.2-1.8,0.8-2.4c0.5-0.4,1.1-0.6,1.6-0.6c0.4,0,0.8,0.1,1,0.2
		l-0.2,0.9c-0.2-0.1-0.4-0.2-0.8-0.2c-1,0-1.3,0.9-1.3,1.9v0.4h1.6v0.9h-1.6v5.8H312.4z"/>
	<path class="st3" d="M320.1,183.8l-0.1-0.8h0c-0.4,0.5-1.1,1-2.1,1c-1.4,0-2.1-1-2.1-1.9c0-1.6,1.4-2.5,4-2.5v-0.1
		c0-0.6-0.2-1.6-1.5-1.6c-0.6,0-1.3,0.2-1.8,0.5l-0.3-0.8c0.6-0.4,1.4-0.6,2.2-0.6c2.1,0,2.6,1.4,2.6,2.8v2.5c0,0.6,0,1.2,0.1,1.6
		H320.1z M319.9,180.3c-1.3,0-2.9,0.2-2.9,1.5c0,0.8,0.5,1.2,1.2,1.2c0.9,0,1.4-0.6,1.6-1.1c0-0.1,0.1-0.3,0.1-0.4V180.3z"/>
	<path class="st3" d="M323,178.9c0-0.7,0-1.3-0.1-1.8h1.1l0.1,1.1h0c0.4-0.6,1-1.2,2.1-1.2c0.9,0,1.6,0.6,1.9,1.3h0
		c0.2-0.4,0.5-0.7,0.8-0.9c0.4-0.3,0.8-0.5,1.5-0.5c0.9,0,2.2,0.6,2.2,2.9v4h-1.2V180c0-1.3-0.5-2.1-1.5-2.1c-0.7,0-1.2,0.5-1.4,1.1
		c-0.1,0.2-0.1,0.4-0.1,0.6v4.2h-1.2v-4c0-1.1-0.5-1.9-1.4-1.9c-0.8,0-1.3,0.6-1.5,1.2c-0.1,0.2-0.1,0.4-0.1,0.6v4.1H323V178.9z"/>
	<path class="st3" d="M336,175.2c0,0.4-0.3,0.8-0.8,0.8c-0.4,0-0.7-0.3-0.7-0.8c0-0.4,0.3-0.8,0.8-0.8
		C335.7,174.4,336,174.7,336,175.2z M334.6,183.8V177h1.2v6.7H334.6z"/>
	<path class="st3" d="M337.9,173.9h1.2v9.9h-1.2V173.9z"/>
	<path class="st3" d="M341.6,177l1.5,4c0.2,0.4,0.3,1,0.4,1.4h0c0.1-0.4,0.3-0.9,0.4-1.4l1.3-4h1.3l-1.8,4.8
		c-0.9,2.3-1.5,3.5-2.3,4.2c-0.6,0.5-1.2,0.7-1.5,0.8l-0.3-1c0.3-0.1,0.7-0.3,1.1-0.6c0.3-0.3,0.8-0.7,1-1.4
		c0.1-0.1,0.1-0.2,0.1-0.3c0-0.1,0-0.2-0.1-0.3l-2.5-6.2H341.6z"/>
</g>
<rect x="834.5" y="402.5" class="st4" width="24.5" height="40.5"/>
<rect x="781.5" y="389.5" class="st4" width="44" height="53.5"/>
<rect x="662.5" y="388.5" class="st4" width="89.5" height="52"/>
<rect x="507" y="352" class="st4" width="136.5" height="83.5"/>
<path class="st14" d="M857,399.5h-21.7c-1.1,0-2,0.9-2,2v46.1c0,1.1,0.9,2,2,2H857c1.1,0,2-0.9,2-2v-46.1
	C859,400.4,858.1,399.5,857,399.5z M846.1,401.1c0.4,0,0.7,0.3,0.7,0.7c0,0.4-0.3,0.7-0.7,0.7c-0.4,0-0.7-0.3-0.7-0.7l0,0
	C845.4,401.4,845.7,401.1,846.1,401.1C846.1,401.1,846.1,401.1,846.1,401.1L846.1,401.1z M843.3,403.2h5.6v0.5h-5.6V403.2z
	 M846.1,447.7c-1.1,0-2-0.9-2-2s0.9-2,2-2s2,0.9,2,2C848.1,446.8,847.2,447.7,846.1,447.7L846.1,447.7z M856.5,441.8h-20.8v-36.8
	h20.9L856.5,441.8L856.5,441.8z"/>
<path class="st15" d="M857,399.5h-21.7c-1.1,0-2,0.9-2,2v46.1c0,1.1,0.9,2,2,2H857c1.1,0,2-0.9,2-2v-46.1
	C859,400.4,858.1,399.5,857,399.5z M846.1,401.1c0.4,0,0.7,0.3,0.7,0.7c0,0.4-0.3,0.7-0.7,0.7c-0.4,0-0.7-0.3-0.7-0.7l0,0
	C845.4,401.4,845.7,401.1,846.1,401.1C846.1,401.1,846.1,401.1,846.1,401.1L846.1,401.1z M843.3,403.2h5.6v0.5h-5.6V403.2z
	 M846.1,447.7c-1.1,0-2-0.9-2-2s0.9-2,2-2s2,0.9,2,2C848.1,446.8,847.2,447.7,846.1,447.7L846.1,447.7z M856.5,441.8h-20.8v-36.8
	h20.9L856.5,441.8L856.5,441.8z"/>
<path class="st14" d="M646,348H504c-1.1,0-2,0.9-2,2v86c0,1.1,0.9,2,2,2h65.4c-0.2,0.1-0.4,0.3-0.5,0.6l-3.7,7.6
	c-0.3,0.6-0.8,1-1.4,1.2l-6.9,2.3c-0.5,0.2-0.5,0.3,0,0.3h35.9c0.5,0,0.6-0.1,0-0.3l-6.9-2.3c-0.6-0.2-1.1-0.7-1.4-1.2l-3.7-7.6
	c-0.1-0.2-0.3-0.4-0.5-0.6H646c1.1,0,2-0.9,2-2v-86C648,348.9,647.1,348,646,348z M574.9,350.2c0.6,0,1.1,0.5,1.1,1.1
	c0,0.6-0.5,1.1-1.1,1.1s-1.1-0.5-1.1-1.1v0C573.8,350.7,574.3,350.2,574.9,350.2C574.9,350.2,574.9,350.2,574.9,350.2z M640.6,431.4
	H509.1v-76.7h131.5V431.4z"/>
<path class="st15" d="M646,348H504c-1.1,0-2,0.9-2,2v86c0,1.1,0.9,2,2,2h65.4c-0.2,0.1-0.4,0.3-0.5,0.6l-3.7,7.6
	c-0.3,0.6-0.8,1-1.4,1.2l-6.9,2.3c-0.5,0.2-0.5,0.3,0,0.3h35.9c0.5,0,0.6-0.1,0-0.3l-6.9-2.3c-0.6-0.2-1.1-0.7-1.4-1.2l-3.7-7.6
	c-0.1-0.2-0.3-0.4-0.5-0.6H646c1.1,0,2-0.9,2-2v-86C648,348.9,647.1,348,646,348z M574.9,350.2c0.6,0,1.1,0.5,1.1,1.1
	c0,0.6-0.5,1.1-1.1,1.1s-1.1-0.5-1.1-1.1v0C573.8,350.7,574.3,350.2,574.9,350.2C574.9,350.2,574.9,350.2,574.9,350.2z M640.6,431.4
	H509.1v-76.7h131.5V431.4z"/>
<line class="st16" x1="647.9" y1="347.8" x2="591.1" y2="347.8"/>
<path class="st14" d="M825,384h-44c-1.1,0-2,0.9-2,2v61c0,1.1,0.9,2,2,2h44c1.1,0,2-0.9,2-2v-61C827,384.9,826.1,384,825,384z
	 M803.2,387c0.6,0,1,0.4,1,1s-0.4,1-1,1s-1-0.4-1-1S802.7,387,803.2,387z M803.2,447c-1.3,0-2.3-1-2.3-2.3s1-2.3,2.3-2.3
	c1.3,0,2.3,1,2.3,2.3C805.5,446,804.5,447,803.2,447L803.2,447z M823,440h-39.6v-47.9H823V440L823,440z"/>
<path class="st15" d="M825,384h-44c-1.1,0-2,0.9-2,2v61c0,1.1,0.9,2,2,2h44c1.1,0,2-0.9,2-2v-61C827,384.9,826.1,384,825,384z
	 M803.2,387c0.6,0,1,0.4,1,1s-0.4,1-1,1s-1-0.4-1-1S802.7,387,803.2,387z M803.2,447c-1.3,0-2.3-1-2.3-2.3s1-2.3,2.3-2.3
	c1.3,0,2.3,1,2.3,2.3C805.5,446,804.5,447,803.2,447L803.2,447z M823,440h-39.6v-47.9H823V440L823,440z"/>
<path class="st14" d="M763.5,444.4h-46.8v0.9c0,0.5-0.5,0.9-1,0.9h-17.4c-0.5,0-1-0.4-1-0.9v-0.9h-46.8c-1.1,0-2,0.9-2,2v1
	c0,1.1,0.9,2,2,2h113.1c1.1,0,2-0.9,2-2v-1C765.5,445.3,764.6,444.4,763.5,444.4z"/>
<path class="st15" d="M763.5,444.4h-46.8v0.9c0,0.5-0.5,0.9-1,0.9h-17.4c-0.5,0-1-0.4-1-0.9v-0.9h-46.8c-1.1,0-2,0.9-2,2v1
	c0,1.1,0.9,2,2,2h113.1c1.1,0,2-0.9,2-2v-1C765.5,445.3,764.6,444.4,763.5,444.4z"/>
<path class="st14" d="M661.5,386.7c-0.6,0-1,0.4-1,1v54.5c0,0.6,0.4,1,1,1h90.9c0.6,0,1-0.4,1-1v-54.5c0-0.6-0.4-1-1-1H661.5z
	 M707.4,388.5c0,0.3-0.2,0.5-0.5,0.5c-0.3,0-0.5-0.2-0.5-0.5c0-0.3,0.2-0.5,0.5-0.5l0,0C707.2,388,707.4,388.2,707.4,388.5
	L707.4,388.5z M664.6,391.5c0-0.6,0.4-1,1-1h82.7c0.6,0,1,0.4,1,1v47c0,0.6-0.4,1-1,1h-82.7c-0.6,0-1-0.4-1-1L664.6,391.5
	L664.6,391.5z"/>
<path class="st15" d="M661.5,386.7c-0.6,0-1,0.4-1,1v54.5c0,0.6,0.4,1,1,1h90.9c0.6,0,1-0.4,1-1v-54.5c0-0.6-0.4-1-1-1H661.5z
	 M707.4,388.5c0,0.3-0.2,0.5-0.5,0.5c-0.3,0-0.5-0.2-0.5-0.5c0-0.3,0.2-0.5,0.5-0.5l0,0C707.2,388,707.4,388.2,707.4,388.5
	L707.4,388.5z M664.6,391.5c0-0.6,0.4-1,1-1h82.7c0.6,0,1,0.4,1,1v47c0,0.6-0.4,1-1,1h-82.7c-0.6,0-1-0.4-1-1L664.6,391.5
	L664.6,391.5z"/>
<g class="st13">
	<path class="st3" d="M588.2,378.4L566.5,411H563l21.7-32.6H588.2z"/>
</g>
<path class="st17" d="M552.5,383.2c-1.2,0.1-2.4-0.1-3.5-0.5c-2.1-1.2-4.7-1.2-6.8-0.1c-2.8,1.7-4.5,5.3-4.1,7.5s1.9,5.2,4.5,5.8
	s6-1.2,7.2-1.8c1.6-0.6,3.5-0.5,5,0.3c1.4,0.9,6,2.8,8.7-0.1c1.8-1.8,2.7-4.4,2.3-7c-0.2-1.1-1.4-6-6.3-5.7c0,0-2.7,0.1-4,1.1
	C554.5,382.9,553.5,383,552.5,383.2z"/>
<path class="st6" d="M551.9,387.2c-4.6,0-8.3,2.7-8.3,5.9s3.7,5.9,8.3,5.9s8.3-2.7,8.3-5.9S556.5,387.2,551.9,387.2z M551.9,397.8
	c-3.6,0-6.5-2.1-6.5-4.6s2.9-4.6,6.5-4.6s6.5,2.1,6.5,4.6S555.5,397.8,551.9,397.8z"/>
<ellipse class="st18" cx="551.8" cy="388.9" rx="5.1" ry="3.9"/>
<path class="st8" d="M585.6,407.5h22.9v-7.6c0,0-0.2-3-3-3.3s-4.4-0.9-4.5-2.3c-0.1-1.2-0.2-2.6,0.3-3.2s2-1.3,2-3.4
	s-0.5-5.8-5.4-5.8s-6.2,3.3-6.2,5.5s1.5,3.1,1.8,3.9c0.4,0.9,0.5,1.9,0.3,2.9c-0.2,1-1.1,2.6-3.9,2.6
	C586.7,396.8,585.2,397.5,585.6,407.5z"/>
<g class="st13">
	<path class="st3" d="M717.7,404.8l-15.2,22.8h-2.5l15.2-22.8H717.7z"/>
</g>
<path class="st19" d="M692.7,408.1c-0.8,0.1-1.7-0.1-2.5-0.4c-1.5-0.8-3.3-0.9-4.8,0c-1.9,1.2-3.1,3.7-2.9,5.2s1.4,3.7,3.1,4
	s4.2-0.8,5-1.2c1.1-0.5,2.4-0.4,3.5,0.2c1,0.6,4.2,2,6.1-0.1c1.3-1.3,1.9-3.1,1.6-4.9c-0.2-0.8-1-4.2-4.4-4c-1,0-1.9,0.3-2.8,0.8
	C694.1,407.8,693.4,408,692.7,408.1z"/>
<path class="st6" d="M692.3,410.9c-3.2,0-5.8,1.9-5.8,4.1s2.6,4.1,5.8,4.1s5.8-1.9,5.8-4.1S695.5,410.9,692.3,410.9z M692.3,418.3
	c-2.5,0-4.5-1.4-4.5-3.2s2-3.2,4.5-3.2s4.5,1.4,4.5,3.2S694.8,418.3,692.3,418.3z"/>
<ellipse class="st20" cx="692.3" cy="412.1" rx="3.6" ry="2.7"/>
<path class="st8" d="M715.9,425.5h15.6v-5.7c0.1-1.2-0.8-2.2-1.9-2.3c-2-0.2-3-0.6-3.1-1.6c-0.2-0.8-0.1-1.6,0.3-2.3
	c0.8-0.5,1.3-1.4,1.4-2.4c0-1.4-0.3-4.1-3.8-4.1s-4.3,2.3-4.3,3.9s1,2.2,1.2,2.8c0.3,0.6,0.4,1.3,0.2,2c-0.3,1.3-1.5,2.1-2.8,2
	C716.6,417.9,715.6,418.5,715.9,425.5z"/>
<g class="st13">
	<path class="st3" d="M809.5,409.7l-9.1,13.7h-1.5l9.1-13.7H809.5z"/>
</g>
<path class="st21" d="M794.5,411.7c-0.5,0-1,0-1.5-0.2c-0.9-0.5-2-0.5-2.8,0c-1.1,0.7-1.7,1.9-1.7,3.1c0.1,1.1,0.9,2,1.9,2.4
	c1.1,0,2.1-0.2,3-0.8c0.7-0.3,1.5-0.2,2.1,0.1c0.6,0.4,2.5,1.2,3.6-0.1c0.8-0.8,1.2-1.9,1-3c-0.1-0.5-0.6-2.5-2.6-2.4
	c-0.6,0-1.2,0.2-1.7,0.5C795.3,411.6,794.9,411.7,794.5,411.7z"/>
<path class="st6" d="M794.2,413.5c-1.9,0-3.5,1.1-3.5,2.5s1.6,2.5,3.5,2.5s3.5-1.1,3.5-2.5S796.1,413.5,794.2,413.5z M794.2,417.9
	c-1.5,0-2.7-0.9-2.7-1.9s1.2-1.9,2.7-1.9s2.7,0.9,2.7,1.9S795.7,417.9,794.2,417.9z"/>
<ellipse class="st22" cx="794.2" cy="414.1" rx="2.1" ry="1.6"/>
<path class="st8" d="M808.3,422.5h9.2v-3.8c0.1-0.7-0.3-1.3-1-1.4c-1.2-0.1-1.7-0.4-1.8-1c-0.1-0.5,0-0.9,0.2-1.4
	c0.5-0.3,0.8-0.8,0.9-1.4c0.2-1.2-0.6-2.2-1.8-2.4c-0.2,0-0.3,0-0.5,0c-1.2-0.2-2.4,0.7-2.6,1.9c0,0.1,0,0.3,0,0.4
	c0.1,0.6,0.3,1.2,0.8,1.6c0.2,0.4,0.2,0.8,0.1,1.2c-0.1,0.8-0.8,1.4-1.7,1.4C808.8,417.8,808.2,417.5,808.3,422.5z"/>
<g class="st13">
	<path class="st3" d="M849.2,419.5l-4.6,6.8h-0.7l4.5-6.8H849.2z"/>
</g>
<path class="st23" d="M841.7,420.5c-0.3,0-0.5,0-0.7-0.1c-0.4-0.2-1-0.2-1.4,0c-0.5,0.3-0.9,0.9-0.9,1.6c0.1,0.5,0.4,1,0.9,1.2
	c0.5,0,1.1-0.1,1.5-0.4c0.3-0.1,0.7-0.1,1,0.1c0.5,0.4,1.3,0.4,1.8,0c0.4-0.4,0.6-0.9,0.5-1.5c-0.1-0.7-0.6-1.2-1.3-1.2
	c-0.3,0-0.6,0.1-0.8,0.2C842.1,420.4,841.9,420.5,841.7,420.5z"/>
<path class="st6" d="M841.6,421.3c-0.7,0.2-1.1,1-0.8,1.7c0.2,0.7,1,1.1,1.7,0.8c0.5-0.2,0.9-0.7,0.9-1.2
	C843.2,421.8,842.4,421.2,841.6,421.3z M841.6,423.5c-0.5-0.2-0.8-0.8-0.6-1.3c0.2-0.5,0.8-0.8,1.3-0.6c0.4,0.1,0.6,0.5,0.6,0.9
	C842.8,423.2,842.2,423.6,841.6,423.5z"/>
<ellipse class="st24" cx="841.6" cy="421.7" rx="1.1" ry="0.8"/>
<path class="st8" d="M848.7,425.5h4.8V424c0-0.4-0.3-0.6-0.7-0.7c-0.6-0.1-0.9-0.2-1-0.5c-0.1-0.2,0-0.5,0.1-0.7
	c0.2-0.2,0.4-0.4,0.4-0.7c0.1-0.6-0.3-1.1-0.9-1.2c-0.1,0-0.2,0-0.2,0c-0.6-0.1-1.2,0.3-1.3,1c0,0.1,0,0.1,0,0.2
	c0,0.3,0.2,0.6,0.4,0.8c0.1,0.2,0.1,0.4,0.1,0.6c-0.1,0.4-0.5,0.6-0.8,0.5C848.9,423.3,848.6,423.5,848.7,425.5z"/>
</svg>
