<?xml version="1.0" encoding="utf-8"?>
<!-- Generator: Adobe Illustrator 16.0.0, SVG Export Plug-In . SVG Version: 6.00 Build 0)  -->
<!DOCTYPE svg PUBLIC "-//W3C//DTD SVG 1.1//EN" "http://www.w3.org/Graphics/SVG/1.1/DTD/svg11.dtd">
<svg version="1.1" id="Ebene_2" xmlns="http://www.w3.org/2000/svg" xmlns:xlink="http://www.w3.org/1999/xlink" x="0px" y="0px"
	 width="323.262px" height="174.148px" viewBox="60.966 301.666 323.262 174.148"
	 enable-background="new 60.966 301.666 323.262 174.148" xml:space="preserve">
<title>gonimo-family</title>
<circle fill="#FFFFFF" stroke="#CDA5B4" stroke-width="1.36" stroke-miterlimit="10" cx="147.372" cy="387.758" r="80.096"/>
<path fill="#DEC0CA" stroke="#CDA5B4" stroke-width="1.36" stroke-miterlimit="10" d="M146.969,302.346
	c-47.128,0-85.323,38.194-85.323,85.323c0,47.128,38.194,85.322,85.323,85.322s85.323-38.194,85.323-85.322
	C232.292,340.54,194.098,302.346,146.969,302.346z M146.969,465.397c-42.929,0-77.729-34.8-77.729-77.729
	c0-42.93,34.799-77.729,77.729-77.729s77.729,34.799,77.729,77.729C224.698,430.598,189.898,465.397,146.969,465.397
	L146.969,465.397L146.969,465.397z"/>
<polygon fill="#BCBEBE" stroke="#666666" stroke-miterlimit="10" points="212.86,447.395 201.245,447.395 201.245,435.78 
	189.631,435.78 189.631,447.395 178.016,447.395 178.016,459.009 189.631,459.009 189.631,470.624 201.245,470.624 201.245,459.009 
	212.86,459.009 "/>
<rect x="99.528" y="363.01" fill="#666666" width="41.41" height="69.866"/>
<rect x="101.583" y="370.023" fill="#F0F0F0" width="37.256" height="54.276"/>
<path fill="#DEC0CA" stroke="#CDA5B4" stroke-width="1.03" stroke-miterlimit="10" d="M120.613,390.796
	c-0.804,0-2.055,0-2.681-0.402c-0.625-0.402-3.082-1.385-5.182-0.044s-3.44,4.065-3.127,5.718c0.313,1.652,1.474,4.021,3.439,4.422
	c1.966,0.402,4.557-0.894,5.495-1.385c1.251-0.491,2.636-0.401,3.842,0.224c1.072,0.67,4.557,2.188,6.656-0.134
	c2.1-2.323,1.965-4.512,1.787-5.361s-1.072-4.557-4.824-4.333c0,0-2.055,0.134-3.038,0.849
	C122.177,390.528,121.417,390.707,120.613,390.796z"/>
<path fill="#CDA5B4" d="M120.167,393.923c-3.529,0-6.388,2.055-6.388,4.557c0,2.501,2.859,4.557,6.388,4.557
	c3.529,0,6.388-2.056,6.388-4.557C126.555,395.978,123.695,393.923,120.167,393.923z M120.167,401.964
	c-2.725,0-4.958-1.563-4.958-3.529s2.233-3.529,4.958-3.529s4.958,1.563,4.958,3.529S122.892,401.964,120.167,401.964
	L120.167,401.964z"/>
<ellipse fill="#FFFFFF" stroke="#CDA5B4" stroke-width="0.77" stroke-miterlimit="10" cx="120.077" cy="395.129" rx="3.886" ry="2.993"/>
<path d="M115.297,366.227h9.917c0.313,0,0.536,0.268,0.536,0.536v0.223c0,0.313-0.268,0.536-0.536,0.536h-9.917
	c-0.313,0-0.536-0.268-0.536-0.536v-0.223C114.716,366.45,114.984,366.227,115.297,366.227z"/>
<circle cx="120.211" cy="428.722" r="2.457"/>
<rect x="151.705" y="361.938" fill="#666666" width="42.661" height="72.01"/>
<rect x="153.849" y="369.175" fill="#F0F0F0" width="38.417" height="55.929"/>
<path d="M167.965,365.244h10.185c0.313,0,0.581,0.268,0.581,0.581v0.224c0,0.313-0.268,0.581-0.581,0.581h-10.185
	c-0.313,0-0.581-0.268-0.581-0.581v-0.224C167.384,365.512,167.652,365.244,167.965,365.244z"/>
<circle cx="173.058" cy="429.66" r="2.546"/>
<path fill="#666666" stroke="#000000" stroke-miterlimit="10" d="M164.525,405.403h17.511v-5.584c0,0-0.179-2.323-2.278-2.546
	c-2.1-0.224-3.351-0.67-3.484-1.743c-0.089-0.893-0.179-2.01,0.223-2.457c0.402-0.447,1.519-1.028,1.519-2.591
	s-0.402-4.467-4.154-4.467s-4.735,2.501-4.735,4.244s1.117,2.412,1.34,3.038c0.313,0.67,0.402,1.474,0.223,2.189
	s-0.804,1.876-2.993,1.876C165.329,397.362,164.212,398.256,164.525,405.403z"/>
<path fill="#DEC0CA" d="M153,338.709c-5.003,2.01-10.766-0.536-12.865-5.673c-2.1-5.048,0.313-10.855,5.36-12.955
	c3.038-1.206,6.433-0.804,9.113,1.028c-5.048-4.11-12.463-3.396-16.573,1.653c-4.11,5.048-3.395,12.463,1.653,16.573
	c5.048,4.11,12.463,3.395,16.573-1.653c1.474-1.787,2.367-3.931,2.591-6.209C158.316,334.733,156.083,337.458,153,338.709
	L153,338.709L153,338.709z"/>
<path fill="#1D1D1B" d="M152.911,338.53c-4.914,1.876-10.453-0.492-12.553-5.316c-2.01-4.691,0-10.409,4.601-12.687
	c3.127-1.519,6.835-1.206,9.694,0.715c0.179,0.134,0.089-0.223,0-0.313c-5.048-4.155-12.553-3.44-16.707,1.653
	c-1.474,1.787-2.368,3.976-2.636,6.254c-0.402,3.976,1.162,7.862,4.154,10.453c4.958,4.289,12.463,3.708,16.708-1.251
	c1.563-1.832,2.546-4.065,2.814-6.477c0-0.134-0.223-0.402-0.268-0.224C158.137,334.554,155.948,337.279,152.911,338.53
	c-0.134,0.044,0.044,0.402,0.179,0.357c3.083-1.296,5.316-4.021,5.941-7.282l-0.268-0.223c-0.67,6.433-6.433,11.078-12.865,10.408
	c-1.653-0.179-3.261-0.715-4.735-1.563c-3.484-2.1-5.629-5.896-5.629-9.962c0.045-6.477,5.361-11.659,11.793-11.57
	c2.636,0.045,5.182,0.938,7.237,2.591v-0.313c-2.636-1.787-6.031-2.233-9.023-1.117c-2.502,0.938-4.467,2.859-5.54,5.316
	c-2.01,4.958,0.045,10.632,4.735,13.223c2.546,1.385,5.584,1.563,8.309,0.492C153.223,338.798,153.045,338.485,152.911,338.53
	L152.911,338.53L152.911,338.53z"/>
<path fill="#C9C8C8" d="M142.279,328.256c-1.251,1.563-1.876,3.573-1.787,5.583c0.223,3.306,1.474,3.887,3.306,4.914
	c0,0,0.938,1.742,2.68,1.742c0.759,0,1.519-0.313,2.01-0.894c0,0,0.894,0.715,1.429,0.67c0.849-0.045,1.653-0.447,2.189-1.162
	c0.179,0.223,0.492,0.268,0.715,0.089c0.089-0.045,0.134-0.134,0.179-0.268c0,0,0.357,0.581,0.759,0.268
	c0.268-0.224,0.402-0.536,0.447-0.849c0.089,0.179,0.224,0.313,0.357,0.402c0.134,0,0.625-0.044,0.715-1.072
	c0.089-1.027-1.385-1.117-1.519-1.072c0.313-1.028,0.402-2.1,0.179-3.127c0.402,0.134,0.849-0.134,0.938-0.536l0,0
	c0-0.045,0-0.089,0-0.089c0.179-1.563,0.224-3.083,0.045-4.646c-0.179-1.295-0.67-3.752-2.01-4.422
	c-1.34-0.67-2.546-1.162-3.172-0.983c-0.625,0.179-1.027,0.625-1.474,1.295c-0.446,0.67-1.206,1.519-1.34,2.368
	c-0.625-0.134-1.295-0.134-1.921-0.089c0,0-0.983-4.378-3.083-6.611s-3.931-3.484-5.048-3.44c-1.117,0.045-1.117,0.76-1.117,0.983
	c0,0.224,0.894,4.021,2.189,6.343c1.295,2.323,1.608,2.77,1.965,3.172S141.877,328.3,142.279,328.256L142.279,328.256
	L142.279,328.256z"/>
<path fill="#1D1D1B" d="M143.798,332.5c-0.447-0.447-1.072-0.581-1.653-0.357c-0.179,0.044-0.357,0.179-0.492,0.268
	c-0.089,0.089-0.044,0,0.045,0h-0.268c-0.089,0-0.179,0.089-0.179,0.179s0.089,0.179,0.179,0.179
	c0.179,0.044,0.402-0.045,0.536-0.134c0.491-0.402,1.206-0.357,1.608,0.089c0.089,0.045,0.179,0.045,0.268-0.044
	C143.798,332.633,143.798,332.589,143.798,332.5L143.798,332.5L143.798,332.5z"/>
<path fill="#1D1D1B" d="M149.382,331.651c0.178-0.268,0.491-0.447,0.804-0.536c0.357,0,0.715,0.089,1.027,0.313
	c0.134,0.089,0.313,0.089,0.492,0.089c0.089,0,0.179-0.089,0.179-0.179s-0.089-0.179-0.179-0.179l0,0c-0.134,0-0.268,0-0.357-0.089
	c-0.179-0.089-0.313-0.179-0.491-0.268c-0.313-0.089-0.581-0.089-0.894,0c-0.357,0.134-0.67,0.357-0.849,0.625
	C148.979,331.651,149.292,331.829,149.382,331.651L149.382,331.651L149.382,331.651z"/>
<path fill="#1D1D1B" d="M145.942,337.547c0.044,0,0.089,0.044,0.089,0.089c0,0.044-0.045,0.089-0.089,0.089
	s-0.089-0.045-0.089-0.089C145.853,337.592,145.897,337.547,145.942,337.547L145.942,337.547L145.942,337.547z"/>
<path fill="#1D1D1B" d="M145.763,338.262c0.045,0,0.089,0.044,0.089,0.089c0,0.044-0.044,0.089-0.089,0.089
	c-0.044,0-0.089-0.045-0.089-0.089C145.674,338.307,145.719,338.262,145.763,338.262L145.763,338.262L145.763,338.262z"/>
<path fill="#1D1D1B" d="M146.21,338.843c0.044,0,0.089,0.045,0.089,0.089s-0.045,0.089-0.089,0.089
	c-0.045,0-0.089-0.045-0.089-0.089S146.121,338.843,146.21,338.843L146.21,338.843L146.21,338.843z"/>
<path fill="#1D1D1B" d="M150.275,337.19c0.045,0,0.089,0.044,0.089,0.089c0,0.044-0.044,0.089-0.089,0.089
	c-0.044,0-0.089-0.045-0.089-0.089C150.186,337.234,150.23,337.19,150.275,337.19L150.275,337.19L150.275,337.19z"/>
<path fill="#1D1D1B" d="M150.543,337.681c0.045,0,0.089,0.045,0.089,0.089c0,0.045-0.044,0.089-0.089,0.089
	c-0.044,0-0.089-0.044-0.089-0.089C150.454,337.726,150.499,337.681,150.543,337.681L150.543,337.681L150.543,337.681z"/>
<path fill="#1D1D1B" d="M150.186,338.307c0.045,0,0.089,0.045,0.089,0.089c0,0.045-0.044,0.089-0.089,0.089
	c-0.044,0-0.089-0.044-0.089-0.089C150.096,338.352,150.141,338.307,150.186,338.307L150.186,338.307L150.186,338.307z"/>
<path fill="#E5CAD3" d="M146.969,337.324c0.045,0.179,0.089,0.357,0.179,0.536c0.357,0.179,0.759,0.313,1.162,0.402
	c0.357-0.224,0.715-0.492,0.983-0.76c0-0.179-0.045-0.402-0.134-0.581c-0.313-0.357-0.849-0.536-1.34-0.491
	C147.327,336.475,146.969,336.877,146.969,337.324L146.969,337.324L146.969,337.324L146.969,337.324L146.969,337.324z"/>
<path fill="#E5CAD3" d="M142.726,328.077c0.268-0.402,0.625-0.715,1.072-0.894c-0.179-0.402-0.357-0.849-0.447-1.295
	c-0.179-0.804-1.43-4.557-3.083-6.478s-2.1-2.189-3.574-2.323c0,0,0.224,2.591,0.894,3.931c0.67,1.34,1.429,3.663,2.278,4.601
	C140.76,326.514,141.698,327.317,142.726,328.077L142.726,328.077L142.726,328.077z"/>
<path fill="#1D1D1B" d="M143.977,327.139c-0.492-0.67-0.492-1.697-0.76-2.457c-0.357-1.072-0.849-2.145-1.385-3.172
	c-1.027-1.921-2.636-4.557-5.092-4.601c-0.089,0-0.179,0.044-0.224,0.089c0,2.368,1.117,4.646,2.1,6.79
	c0.447,0.983,1.072,1.876,1.832,2.636c0.67,0.581,1.474,1.027,2.1,1.697c0.089,0.089,0.402,0,0.357-0.089
	c-0.581-0.625-1.385-1.027-2.01-1.608c-0.849-0.804-1.519-1.742-1.965-2.77c-0.983-2.1-2.055-4.333-2.055-6.656l-0.223,0.089
	c1.206,0,2.233,0.893,2.993,1.742c0.849,0.982,1.563,2.1,2.1,3.261c0.447,0.938,0.849,1.876,1.162,2.859
	c0.223,0.714,0.223,1.608,0.67,2.188C143.708,327.273,144.066,327.184,143.977,327.139L143.977,327.139L143.977,327.139
	L143.977,327.139L143.977,327.139z"/>
<path fill="#E5CAD3" d="M147.818,326.022c0,0,2.681,0.759,3.083,1.34l-0.581-3.038l-0.089-0.983c0,0-0.268-0.224-0.804,0.223
	S147.818,326.022,147.818,326.022L147.818,326.022L147.818,326.022z"/>
<path fill="#1D1D1B" d="M154.34,338.441c-0.045-0.089-0.268-0.224-0.313-0.045c-0.089,0.447-0.536,1.162-0.938,0.536
	c-0.045-0.089-0.134-0.089-0.223-0.044l0,0l-0.045,0.044c-0.089,0.223-0.313,0.313-0.536,0.223l0,0l-0.089-0.044l0,0
	c-0.357-0.268-0.491-0.759-0.268-1.162c1.072-0.223,2.145-0.313,3.216-0.268C155.144,338.307,154.742,339.155,154.34,338.441
	L154.34,338.441L154.34,338.441L154.34,338.441z M148.846,337.101c0.089,0.089,0.179,0.179,0.223,0.268
	c0.179,0.357-0.089,0.491-0.357,0.67c-0.134,0.089-0.268,0.179-0.447,0.268h-0.044c-0.089-0.044-0.179-0.044-0.268-0.089
	c-0.224-0.044-0.447-0.134-0.625-0.223c-0.134-0.134-0.223-0.357-0.268-0.536C146.969,336.609,148.399,336.743,148.846,337.101
	L148.846,337.101L148.846,337.101z M150.007,340.272c-0.491-0.045-0.982-0.224-1.385-0.581l-0.223-1.161
	c0.089-0.045,0.134-0.089,0.223-0.134c0.313-0.134,0.536-0.357,0.76-0.625c0.223-0.536-0.447-1.027-0.849-1.161
	c-0.67-0.179-1.742,0.089-1.653,0.982c0,0.268,0.134,0.492,0.313,0.67c0.313,0.179,0.67,0.268,1.027,0.357l0,0l0.223,1.072
	c-0.67,0.894-2.144,1.027-3.082,0.536c-0.536-0.313-0.983-0.759-1.295-1.251l-0.045-0.044c0.313-0.089,0.581-0.179,0.894-0.268
	c0.134-0.044,0.089-0.179-0.045-0.134c-0.268,0.089-0.581,0.134-0.893,0.268c-0.089-0.223-0.134-0.446-0.179-0.67
	c0.223,0,0.446,0.045,0.67,0.045c0.089,0,0.223-0.134,0.089-0.179c-0.224-0.045-0.491-0.045-0.715-0.089
	c-0.044-0.268-0.044-0.536,0-0.804c0.357,0.089,0.715,0.223,1.027,0.402c0.089,0.045,0.268-0.044,0.179-0.134
	c-0.357-0.223-0.759-0.357-1.161-0.447v-0.044c0.134-1.028,0.313-2.055,0.402-3.083c0.179-0.983,0-1.966-0.491-2.814
	c-0.268-0.491-0.625-0.938-1.028-1.34c-0.044-0.045-0.223,0.044-0.223,0.089c0.447,0.446,0.804,0.938,1.117,1.474
	c0.536,0.938,0.536,1.787,0.402,2.859c-0.089,0.938-0.268,1.921-0.357,2.859c-0.224-0.045-0.402-0.089-0.581-0.134
	c-0.581-0.134-1.206-0.224-1.787-0.268c-0.76-1.519-0.715-3.574-0.268-5.137c0.268-1.028,0.759-2.01,1.474-2.814
	c0.044-0.045,0.044-0.134,0-0.179c-0.045-0.045-0.089-0.089-0.179-0.089c-0.357,0.044-0.849-0.402-1.117-0.581
	c-0.357-0.224-0.67-0.492-0.938-0.76c-0.357-0.357-0.625-0.759-0.894-1.206c-1.206-2.01-2.145-4.154-2.77-6.388
	c-0.224-0.581-0.357-1.207-0.447-1.832c-0.089-1.027,1.295-0.893,1.921-0.625c1.027,0.491,2.01,1.161,2.814,2.01
	c0.983,0.849,1.787,1.876,2.413,3.038c0.804,1.474,1.385,3.038,1.742,4.646c0,0.089,0.089,0.179,0.179,0.179
	c0.447-0.044,0.938-0.044,1.385,0c0.134,0,0.313,0.045,0.447,0.045c0.67,0.179,1.34,0.402,2.01,0.67
	c0.223,0.089,0.223-0.223,0.044-0.313c-0.581-0.224-1.206-0.447-1.832-0.581c0.223-0.849,0.849-1.519,1.34-2.188
	c0.581-0.804,1.206-1.34,2.278-1.072c0.938,0.179,1.787,0.625,2.546,1.206c0.536,0.581,0.894,1.251,1.072,2.01
	c0.357,1.295,0.536,2.636,0.536,3.976c0,0.67-0.045,1.385-0.089,2.055c-0.045,0.536-0.179,1.161-0.849,1.027
	c-0.134-0.134-0.268-0.268-0.357-0.447c-0.357-0.536-0.67-1.117-0.983-1.697c-0.938-1.787-1.653-3.663-2.1-5.629
	c-0.089-0.536-0.223-1.027-0.268-1.563c0-0.223-0.044-0.447-0.089-0.67c-0.134-0.045-0.268-0.045-0.402,0
	c-1.117,0.313-1.742,1.921-2.189,2.77c-0.045,0.089,0.179,0.089,0.223,0c0.357-0.849,0.849-1.653,1.519-2.323
	c0.134-0.089,0.491-0.447,0.67-0.357c0.089,0.491,0.134,0.982,0.179,1.474c0.089,0.536,0.224,1.072,0.357,1.653
	c0.268,1.027,0.625,2.01,1.072,2.993c0.536,1.295,1.206,2.546,1.965,3.708c0.045,0.089,0.089,0.134,0.179,0.223
	c0,0.045,0,0.045,0,0.089c0.089,0.536,0.134,1.072,0.089,1.608c-0.67,0.268-1.295,0.625-1.876,1.027
	c-0.402-1.385-1.207-2.591-2.234-3.574c-0.044-0.044-0.223,0.045-0.223,0.089c1.072,0.983,1.832,2.234,2.278,3.619
	c-0.224,0.179-0.492,0.357-0.67,0.581c-0.089,0.089,0.089,0.089,0.179,0.044c0.179-0.179,0.357-0.313,0.536-0.491
	c0.045,0.224,0.089,0.447,0.134,0.67l-0.045,0.045c-0.268,0.044-0.536,0.134-0.759,0.223c-0.134,0.045,0,0.134,0.089,0.089
	c0.179-0.089,0.357-0.134,0.581-0.179c-0.134,0.179-0.223,0.402-0.268,0.625l-0.491,0.134c-0.179,0.044-0.089,0.134,0.044,0.089
	c0.134-0.045,0.313-0.089,0.447-0.089c-0.089,0.446,0,0.893,0.313,1.206C151.392,339.87,150.677,340.228,150.007,340.272
	L150.007,340.272L150.007,340.272z M142.904,338.262l-0.224-0.134c0.268,0,0.536,0,0.849,0c0.044,0.179,0.044,0.402,0.134,0.581
	C143.44,338.53,143.172,338.396,142.904,338.262L142.904,338.262L142.904,338.262z M142.458,337.949
	c-0.402-0.268-0.715-0.581-1.027-0.982c-0.045-0.089-0.134-0.179-0.179-0.268c0.491,0.044,1.027,0.089,1.519,0.179
	c0.224,0.044,0.492,0.089,0.715,0.134c-0.044,0.268-0.044,0.581-0.044,0.849C143.172,337.905,142.815,337.905,142.458,337.949
	L142.458,337.949z M152.062,336.386c0.581-0.402,1.161-0.759,1.832-1.027c-0.045,0.402-0.134,0.804-0.224,1.162
	c-0.491,0-0.982,0.134-1.429,0.402l-0.045,0.045C152.151,336.788,152.151,336.609,152.062,336.386L152.062,336.386L152.062,336.386z
	 M154.251,336.967c0.223,0.044,0.67,0.134,0.714,0.402c0,0.044,0.045,0.089,0.134,0.134c0,0.045,0,0.089,0,0.089
	c-1.072,0-2.1,0.089-3.172,0.268c0.089-0.223,0.268-0.402,0.447-0.581c0.313,0,0.625,0.044,0.938,0.134
	c0.045,0.045,0.268-0.089,0.179-0.089c-0.268-0.089-0.581-0.178-0.893-0.178C153.089,336.922,153.715,336.833,154.251,336.967
	L154.251,336.967L154.251,336.967z M160.549,338.53c-1.653-0.536-3.35-0.849-5.092-0.894c-0.045-0.179-0.134-0.357-0.224-0.491
	c-0.044-0.045-0.089-0.09-0.134-0.134c-0.268-0.268-0.67-0.402-1.072-0.402c0.134-0.447,0.179-0.894,0.224-1.34
	c0.982-0.357,2.01-0.67,3.038-0.849c0.134-0.045,0.089-0.134-0.045-0.134c-1.027,0.224-2.01,0.492-2.993,0.849
	c0-0.402,0-0.849-0.089-1.251c0.849,0.044,0.982-0.804,1.027-1.519c0.134-1.385,0.134-2.77-0.045-4.154
	c-0.223-1.251-0.491-2.68-1.295-3.708c-0.491-0.536-1.072-0.894-1.742-1.162c-0.625-0.357-1.34-0.536-2.1-0.581
	c-0.715,0.044-1.295,0.625-1.697,1.206c-0.536,0.759-1.251,1.519-1.474,2.457c-0.313-0.045-0.581-0.089-0.894-0.089
	c-0.268,0-0.491,0-0.759,0.044c-0.402-1.608-0.983-3.216-1.787-4.646c-0.67-1.161-1.519-2.188-2.501-3.082
	c-0.894-0.938-1.966-1.653-3.127-2.145c-0.625-0.223-1.653-0.313-2.055,0.402c-0.223,0.447,0,1.027,0.089,1.474
	c0.625,2.501,1.563,4.869,2.859,7.058c0.313,0.625,0.714,1.161,1.161,1.697c0.402,0.402,0.849,0.76,1.34,1.028
	c0.223,0.178,0.447,0.313,0.67,0.402c-1.519,2.01-2.01,4.601-1.429,7.058c0.089,0.313,0.178,0.625,0.313,0.894
	c-1.653-0.089-3.351,0-5.003,0.179c-0.134,0-0.179,0.179,0,0.179c1.698-0.224,3.395-0.268,5.093-0.179
	c0.268,0.536,0.625,0.982,1.117,1.34c-0.357,0.045-0.715,0.134-1.117,0.224c-0.134,0.044-0.089,0.179,0.044,0.134
	c0.402-0.134,0.804-0.179,1.251-0.268c0.089,0.045,0.179,0.134,0.268,0.179c0.313,0.179,0.715,0.357,1.027,0.581
	c-2.323,0.849-4.601,2.412-5.628,4.646c-0.045,0.089,0.179,0.134,0.223,0.045c1.027-2.189,3.261-3.752,5.584-4.557v0.089
	c0.268,0.268,0.491,0.67,0.804,0.938c1.117,0.983,3.038,1.206,4.065,0c0.402,0.357,0.938,0.581,1.519,0.581
	c0.804-0.045,1.563-0.447,2.1-1.072c0.268,0.179,0.67,0.134,0.849-0.134l0,0c0.491,0.492,1.027,0.089,1.295-0.491
	c0.134,0.134,0.313,0.223,0.491,0.134c0.447-0.134,0.625-0.67,0.67-1.072c0-0.089,0-0.179,0-0.268
	c1.653,0.044,3.306,0.357,4.914,0.894C160.416,338.664,160.594,338.575,160.549,338.53L160.549,338.53L160.549,338.53z"/>
<path fill="#DEC0CA" d="M130.352,345.365c-0.268,0-0.491,0.045-0.715,0.134c-0.223,0.089-0.402,0.223-0.536,0.402
	c-0.179,0.179-0.268,0.357-0.357,0.581c-0.089,0.224-0.134,0.492-0.134,0.76c0,0.491,0.134,0.938,0.491,1.295
	c0.715,0.67,1.832,0.67,2.591,0c0.313-0.357,0.491-0.849,0.491-1.295c0-0.268-0.045-0.492-0.134-0.76
	c-0.089-0.223-0.223-0.402-0.357-0.581c-0.134-0.179-0.357-0.313-0.536-0.402C130.843,345.41,130.575,345.32,130.352,345.365
	L130.352,345.365L130.352,345.365z M133.121,349.876c0,0.402-0.044,0.76-0.223,1.117c-0.134,0.313-0.357,0.625-0.581,0.849
	c-0.268,0.268-0.581,0.447-0.938,0.581c-0.402,0.134-0.804,0.224-1.206,0.224c-0.491,0-0.938-0.045-1.43-0.224
	c-0.446-0.179-0.849-0.402-1.206-0.759l0.67-0.849c0.223,0.268,0.536,0.491,0.849,0.67c0.313,0.134,0.67,0.223,1.072,0.223
	c0.313,0,0.625-0.044,0.938-0.179c0.223-0.089,0.447-0.268,0.581-0.446s0.268-0.357,0.313-0.581c0.045-0.223,0.089-0.447,0.089-0.67
	v-0.804h-0.044c-0.179,0.313-0.447,0.581-0.804,0.715c-0.313,0.134-0.715,0.223-1.072,0.223c-0.357,0-0.759-0.089-1.117-0.223
	c-0.313-0.134-0.625-0.313-0.849-0.581c-0.268-0.268-0.447-0.581-0.581-0.894c-0.134-0.357-0.224-0.715-0.224-1.072
	s0.045-0.759,0.179-1.072c0.134-0.313,0.313-0.625,0.536-0.893c0.224-0.268,0.536-0.447,0.849-0.625
	c0.357-0.134,0.76-0.224,1.117-0.224c0.357,0,0.714,0.089,1.072,0.224c0.313,0.134,0.625,0.357,0.804,0.67l0,0v-0.759h1.072v5.36
	H133.121L133.121,349.876z"/>
<path fill="#DEC0CA" d="M135.489,347.196c0,0.268,0.044,0.491,0.134,0.759c0.089,0.224,0.224,0.402,0.357,0.581
	c0.134,0.179,0.357,0.313,0.536,0.402c0.492,0.179,0.983,0.179,1.474,0c0.224-0.089,0.402-0.223,0.581-0.402
	s0.268-0.357,0.357-0.581c0.179-0.491,0.179-1.027,0-1.519c-0.089-0.224-0.223-0.402-0.357-0.581
	c-0.179-0.179-0.357-0.313-0.581-0.402c-0.491-0.179-0.982-0.179-1.474,0c-0.223,0.089-0.402,0.224-0.536,0.402
	c-0.179,0.179-0.268,0.357-0.357,0.581C135.533,346.705,135.489,346.973,135.489,347.196L135.489,347.196L135.489,347.196z
	 M134.417,347.196c0-0.357,0.089-0.759,0.224-1.072c0.625-1.474,2.323-2.144,3.752-1.519c0.67,0.268,1.206,0.849,1.519,1.519
	c0.134,0.357,0.224,0.715,0.224,1.072c0,0.759-0.313,1.474-0.849,2.01c-0.268,0.268-0.581,0.447-0.893,0.625
	c-1.072,0.447-2.323,0.223-3.172-0.625C134.729,348.67,134.417,347.956,134.417,347.196L134.417,347.196L134.417,347.196z"/>
<path fill="#DEC0CA" d="M141.385,344.561h1.028v0.849l0,0c0.134-0.313,0.357-0.536,0.67-0.715c0.357-0.179,0.715-0.268,1.117-0.268
	c0.268,0,0.491,0.044,0.715,0.134c0.223,0.089,0.447,0.179,0.625,0.357s0.357,0.402,0.446,0.625
	c0.134,0.313,0.179,0.625,0.179,0.938v3.44h-1.027v-3.172c0-0.223-0.044-0.447-0.089-0.625c-0.044-0.179-0.134-0.313-0.268-0.446
	c-0.089-0.089-0.223-0.179-0.402-0.224c-0.134-0.044-0.313-0.089-0.447-0.089c-0.223,0-0.402,0.045-0.581,0.089
	c-0.179,0.089-0.357,0.179-0.492,0.313c-0.134,0.179-0.268,0.357-0.313,0.581c-0.089,0.268-0.134,0.536-0.089,0.804v2.77h-0.983
	L141.385,344.561L141.385,344.561L141.385,344.561z"/>
<polygon fill="#DEC0CA" points="147.684,344.561 148.711,344.561 148.711,349.921 147.684,349.921 "/>
<path fill="#DEC0CA" d="M150.32,344.561h0.938v0.849l0,0c0.045-0.089,0.089-0.224,0.179-0.268c0.089-0.134,0.223-0.224,0.357-0.313
	c0.179-0.089,0.357-0.179,0.536-0.268c0.223-0.089,0.447-0.134,0.67-0.089c0.357,0,0.715,0.089,1.027,0.268
	c0.268,0.179,0.536,0.447,0.67,0.76c0.179-0.313,0.402-0.581,0.715-0.76c0.313-0.179,0.625-0.268,0.983-0.268
	s0.715,0.045,1.027,0.224c0.268,0.134,0.447,0.313,0.625,0.536c0.134,0.223,0.268,0.491,0.313,0.759
	c0.045,0.313,0.089,0.581,0.089,0.894v3.127h-1.027v-2.993c0-0.179,0-0.402-0.044-0.581c0-0.179-0.089-0.357-0.179-0.492
	c-0.089-0.134-0.224-0.268-0.357-0.357c-0.581-0.268-1.251-0.134-1.653,0.313c-0.224,0.357-0.313,0.759-0.313,1.162v2.948h-1.027
	v-2.904c0-0.223,0-0.491-0.044-0.715c0-0.179-0.089-0.357-0.179-0.536c-0.089-0.134-0.179-0.268-0.357-0.357
	s-0.402-0.134-0.581-0.134s-0.357,0.045-0.536,0.089c-0.179,0.089-0.313,0.179-0.447,0.313c-0.134,0.179-0.224,0.357-0.313,0.536
	c-0.089,0.268-0.134,0.536-0.089,0.804v2.77h-0.983V344.561L150.32,344.561L150.32,344.561z"/>
<path fill="#DEC0CA" d="M160.728,347.196c0,0.268,0.045,0.491,0.134,0.759c0.089,0.224,0.223,0.402,0.357,0.581
	c0.134,0.179,0.357,0.313,0.536,0.402c0.491,0.179,0.982,0.179,1.474,0c0.223-0.089,0.402-0.223,0.536-0.402
	c0.179-0.179,0.268-0.357,0.357-0.581c0.179-0.491,0.179-1.027,0-1.519c-0.089-0.224-0.223-0.402-0.357-0.581
	c-0.134-0.179-0.357-0.313-0.536-0.402c-0.492-0.179-0.983-0.179-1.474,0c-0.224,0.089-0.402,0.224-0.536,0.402
	c-0.179,0.179-0.268,0.357-0.357,0.581C160.773,346.705,160.728,346.973,160.728,347.196L160.728,347.196L160.728,347.196z
	 M159.656,347.196c0-0.357,0.089-0.759,0.223-1.072c0.625-1.474,2.323-2.144,3.752-1.519c0.67,0.268,1.206,0.849,1.519,1.519
	c0.134,0.357,0.223,0.715,0.223,1.072c0,0.759-0.313,1.474-0.849,2.01c-1.117,1.117-2.948,1.117-4.065,0
	C159.924,348.67,159.656,347.956,159.656,347.196L159.656,347.196L159.656,347.196z"/>
<g enable-background="new    ">
	<path fill="#666666" d="M139.554,356.398v-2.591h-0.402v-0.447h0.402v-0.134c0-0.402,0.089-0.804,0.357-1.072
		c0.224-0.179,0.492-0.268,0.715-0.268c0.179,0,0.357,0.045,0.447,0.089l-0.089,0.402c-0.089-0.045-0.179-0.089-0.357-0.089
		c-0.447,0-0.581,0.402-0.581,0.849v0.179h0.714v0.402h-0.714v2.591h-0.492V356.398z"/>
	<path fill="#666666" d="M142.994,356.398l-0.045-0.357l0,0c-0.179,0.223-0.491,0.447-0.938,0.447c-0.625,0-0.938-0.447-0.938-0.849
		c0-0.715,0.625-1.117,1.787-1.117v-0.044c0-0.268-0.089-0.715-0.67-0.715c-0.268,0-0.581,0.089-0.804,0.223l-0.134-0.357
		c0.268-0.179,0.625-0.268,0.983-0.268c0.938,0,1.161,0.625,1.161,1.251v1.117c0,0.268,0,0.536,0.045,0.715h-0.447V356.398z
		 M142.904,354.835c-0.581,0-1.295,0.089-1.295,0.67c0,0.357,0.223,0.536,0.536,0.536c0.402,0,0.625-0.268,0.714-0.492
		c0-0.044,0.045-0.134,0.045-0.179V354.835z"/>
	<path fill="#666666" d="M144.289,354.21c0-0.313,0-0.581-0.045-0.804h0.492l0.044,0.491l0,0c0.179-0.268,0.447-0.536,0.938-0.536
		c0.402,0,0.714,0.268,0.849,0.581l0,0c0.089-0.179,0.223-0.313,0.357-0.402c0.179-0.134,0.357-0.223,0.67-0.223
		c0.402,0,0.983,0.268,0.983,1.295v1.787h-0.536v-1.697c0-0.581-0.224-0.938-0.67-0.938c-0.313,0-0.536,0.223-0.625,0.491
		c-0.045,0.089-0.045,0.179-0.045,0.268v1.876h-0.536v-1.787c0-0.491-0.223-0.849-0.625-0.849c-0.357,0-0.581,0.268-0.67,0.536
		c-0.044,0.089-0.044,0.179-0.044,0.268v1.832h-0.536V354.21z"/>
	<path fill="#666666" d="M150.096,352.557c0,0.179-0.134,0.357-0.357,0.357c-0.178,0-0.313-0.134-0.313-0.357
		c0-0.179,0.134-0.357,0.357-0.357C149.962,352.2,150.096,352.333,150.096,352.557z M149.471,356.398v-3.038h0.536v2.993h-0.536
		V356.398z"/>
	<path fill="#666666" d="M150.945,351.976h0.536v4.422h-0.536V351.976z"/>
	<path fill="#666666" d="M152.598,353.361l0.67,1.787c0.089,0.179,0.134,0.447,0.179,0.625l0,0c0.044-0.179,0.134-0.402,0.179-0.625
		l0.581-1.787h0.581l-0.804,2.145c-0.402,1.027-0.67,1.563-1.028,1.876c-0.268,0.224-0.536,0.313-0.67,0.357l-0.134-0.447
		c0.134-0.044,0.313-0.134,0.491-0.268c0.134-0.134,0.357-0.313,0.447-0.625c0.044-0.044,0.044-0.089,0.044-0.134
		c0-0.044,0-0.089-0.044-0.134l-1.117-2.77H152.598z"/>
</g>
<rect x="372.784" y="454.096" fill="#F0F0F0" width="10.944" height="18.092"/>
<rect x="349.108" y="448.288" fill="#F0F0F0" width="19.655" height="23.899"/>
<rect x="295.949" y="447.842" fill="#F0F0F0" width="39.981" height="23.229"/>
<rect x="226.485" y="431.536" fill="#F0F0F0" width="60.977" height="37.301"/>
<path fill="#BCBEBE" d="M382.835,452.755h-9.693c-0.491,0-0.894,0.402-0.894,0.894v20.594c0,0.491,0.402,0.894,0.894,0.894h9.693
	c0.491,0,0.894-0.402,0.894-0.894v-20.594C383.729,453.157,383.326,452.755,382.835,452.755z M377.966,453.47
	c0.179,0,0.313,0.134,0.313,0.313s-0.134,0.313-0.313,0.313s-0.313-0.135-0.313-0.313l0,0
	C377.653,453.604,377.787,453.47,377.966,453.47L377.966,453.47L377.966,453.47z M376.715,454.408h2.502v0.224h-2.502V454.408z
	 M377.966,474.287c-0.491,0-0.894-0.402-0.894-0.894s0.402-0.894,0.894-0.894s0.894,0.402,0.894,0.894
	S378.457,474.287,377.966,474.287L377.966,474.287z M382.611,471.651h-9.291v-16.439h9.336L382.611,471.651L382.611,471.651z"/>
<path fill="none" stroke="#666666" stroke-miterlimit="10" d="M382.835,452.755h-9.693c-0.491,0-0.894,0.402-0.894,0.894v20.594
	c0,0.491,0.402,0.894,0.894,0.894h9.693c0.491,0,0.894-0.402,0.894-0.894v-20.594C383.729,453.157,383.326,452.755,382.835,452.755z
	 M377.966,453.47c0.179,0,0.313,0.134,0.313,0.313s-0.134,0.313-0.313,0.313s-0.313-0.135-0.313-0.313l0,0
	C377.653,453.604,377.787,453.47,377.966,453.47L377.966,453.47L377.966,453.47z M376.715,454.408h2.502v0.224h-2.502V454.408z
	 M377.966,474.287c-0.491,0-0.894-0.402-0.894-0.894s0.402-0.894,0.894-0.894s0.894,0.402,0.894,0.894
	S378.457,474.287,377.966,474.287L377.966,474.287z M382.611,471.651h-9.291v-16.439h9.336L382.611,471.651L382.611,471.651z"/>
<path fill="#BCBEBE" d="M288.578,429.749h-63.434c-0.491,0-0.894,0.402-0.894,0.894v38.418c0,0.491,0.402,0.894,0.894,0.894h29.215
	c-0.089,0.044-0.179,0.134-0.224,0.268l-1.653,3.396c-0.134,0.268-0.357,0.446-0.625,0.536l-3.082,1.027
	c-0.224,0.089-0.224,0.134,0,0.134h16.037c0.223,0,0.268-0.045,0-0.134l-3.083-1.027c-0.268-0.09-0.491-0.313-0.625-0.536
	l-1.653-3.396c-0.044-0.089-0.134-0.179-0.223-0.268h29.349c0.491,0,0.894-0.402,0.894-0.894v-38.418
	C289.472,430.151,289.069,429.749,288.578,429.749z M256.816,430.732c0.268,0,0.492,0.223,0.492,0.491
	c0,0.268-0.224,0.491-0.492,0.491c-0.268,0-0.491-0.224-0.491-0.491l0,0C256.325,430.955,256.549,430.732,256.816,430.732
	L256.816,430.732z M286.166,467.006h-58.743v-34.264h58.743V467.006z"/>
<path fill="none" stroke="#666666" stroke-miterlimit="10" d="M288.578,429.749h-63.434c-0.491,0-0.894,0.402-0.894,0.894v38.418
	c0,0.491,0.402,0.894,0.894,0.894h29.215c-0.089,0.044-0.179,0.134-0.224,0.268l-1.653,3.396c-0.134,0.268-0.357,0.446-0.625,0.536
	l-3.082,1.027c-0.224,0.089-0.224,0.134,0,0.134h16.037c0.223,0,0.268-0.045,0-0.134l-3.083-1.027
	c-0.268-0.09-0.491-0.313-0.625-0.536l-1.653-3.396c-0.044-0.089-0.134-0.179-0.223-0.268h29.349c0.491,0,0.894-0.402,0.894-0.894
	v-38.418C289.472,430.151,289.069,429.749,288.578,429.749z M256.816,430.732c0.268,0,0.492,0.223,0.492,0.491
	c0,0.268-0.224,0.491-0.492,0.491c-0.268,0-0.491-0.224-0.491-0.491l0,0C256.325,430.955,256.549,430.732,256.816,430.732
	L256.816,430.732z M286.166,467.006h-58.743v-34.264h58.743V467.006z"/>
<line fill="none" x1="289.427" y1="429.66" x2="264.053" y2="429.66"/>
<path fill="#BCBEBE" d="M368.54,445.831h-19.655c-0.491,0-0.894,0.402-0.894,0.894v27.25c0,0.491,0.402,0.893,0.894,0.893h19.655
	c0.491,0,0.894-0.401,0.894-0.893v-27.25C369.434,446.233,369.031,445.831,368.54,445.831z M358.802,447.171
	c0.268,0,0.446,0.179,0.446,0.447c0,0.268-0.179,0.446-0.446,0.446s-0.446-0.179-0.446-0.446
	C358.355,447.35,358.578,447.171,358.802,447.171z M358.802,473.975c-0.581,0-1.027-0.447-1.027-1.028
	c0-0.58,0.446-1.027,1.027-1.027s1.027,0.447,1.027,1.027C359.829,473.527,359.383,473.975,358.802,473.975L358.802,473.975z
	 M367.646,470.848h-17.689v-21.398h17.689V470.848L367.646,470.848z"/>
<path fill="none" stroke="#666666" stroke-miterlimit="10" d="M368.54,445.831h-19.655c-0.491,0-0.894,0.402-0.894,0.894v27.25
	c0,0.491,0.402,0.893,0.894,0.893h19.655c0.491,0,0.894-0.401,0.894-0.893v-27.25C369.434,446.233,369.031,445.831,368.54,445.831z
	 M358.802,447.171c0.268,0,0.446,0.179,0.446,0.447c0,0.268-0.179,0.446-0.446,0.446s-0.446-0.179-0.446-0.446
	C358.355,447.35,358.578,447.171,358.802,447.171z M358.802,473.975c-0.581,0-1.027-0.447-1.027-1.028
	c0-0.58,0.446-1.027,1.027-1.027s1.027,0.447,1.027,1.027C359.829,473.527,359.383,473.975,358.802,473.975L358.802,473.975z
	 M367.646,470.848h-17.689v-21.398h17.689V470.848L367.646,470.848z"/>
<path fill="#BCBEBE" d="M341.067,472.813h-20.906v0.402c0,0.224-0.224,0.402-0.447,0.402h-7.772c-0.224,0-0.447-0.179-0.447-0.402
	v-0.402h-20.906c-0.491,0-0.894,0.402-0.894,0.894v0.446c0,0.492,0.402,0.894,0.894,0.894h50.523c0.492,0,0.894-0.401,0.894-0.894
	v-0.446C341.961,473.215,341.559,472.813,341.067,472.813z"/>
<path fill="none" stroke="#666666" stroke-miterlimit="10" d="M341.067,472.813h-20.906v0.402c0,0.224-0.224,0.402-0.447,0.402
	h-7.772c-0.224,0-0.447-0.179-0.447-0.402v-0.402h-20.906c-0.491,0-0.894,0.402-0.894,0.894v0.446c0,0.492,0.402,0.894,0.894,0.894
	h50.523c0.492,0,0.894-0.401,0.894-0.894v-0.446C341.961,473.215,341.559,472.813,341.067,472.813z"/>
<path fill="#BCBEBE" d="M295.502,447.037c-0.268,0-0.446,0.179-0.446,0.447v24.346c0,0.268,0.179,0.446,0.446,0.446h40.606
	c0.269,0,0.447-0.179,0.447-0.446v-24.346c0-0.269-0.179-0.447-0.447-0.447H295.502z M316.007,447.842
	c0,0.134-0.09,0.223-0.224,0.223s-0.224-0.089-0.224-0.223c0-0.135,0.09-0.224,0.224-0.224l0,0
	C315.917,447.618,316.007,447.707,316.007,447.842L316.007,447.842z M296.887,449.182c0-0.269,0.179-0.447,0.446-0.447h36.944
	c0.268,0,0.446,0.179,0.446,0.447v20.995c0,0.269-0.179,0.447-0.446,0.447h-36.944c-0.268,0-0.446-0.179-0.446-0.447V449.182
	L296.887,449.182z"/>
<path fill="none" stroke="#666666" stroke-miterlimit="10" d="M295.502,447.037c-0.268,0-0.446,0.179-0.446,0.447v24.346
	c0,0.268,0.179,0.446,0.446,0.446h40.606c0.269,0,0.447-0.179,0.447-0.446v-24.346c0-0.269-0.179-0.447-0.447-0.447H295.502z
	 M316.007,447.842c0,0.134-0.09,0.223-0.224,0.223s-0.224-0.089-0.224-0.223c0-0.135,0.09-0.224,0.224-0.224l0,0
	C315.917,447.618,316.007,447.707,316.007,447.842L316.007,447.842z M296.887,449.182c0-0.269,0.179-0.447,0.446-0.447h36.944
	c0.268,0,0.446,0.179,0.446,0.447v20.995c0,0.269-0.179,0.447-0.446,0.447h-36.944c-0.268,0-0.446-0.179-0.446-0.447V449.182
	L296.887,449.182z"/>
<g enable-background="new    ">
	<path fill="#666666" d="M262.758,443.329l-9.693,14.563h-1.563l9.693-14.563H262.758z"/>
</g>
<path fill="#DEC0CA" stroke="#CDA5B4" stroke-width="0.6" stroke-miterlimit="10" d="M246.81,445.474
	c-0.536,0.045-1.072-0.045-1.563-0.224c-0.938-0.536-2.1-0.536-3.038-0.044c-1.251,0.759-2.01,2.367-1.832,3.35
	c0.179,0.983,0.849,2.323,2.01,2.592c1.162,0.268,2.68-0.536,3.216-0.805c0.715-0.268,1.563-0.224,2.234,0.134
	c0.625,0.402,2.68,1.251,3.886-0.044c0.804-0.805,1.206-1.966,1.027-3.127c-0.089-0.492-0.625-2.681-2.814-2.547
	c0,0-1.207,0.045-1.787,0.491C247.704,445.34,247.257,445.385,246.81,445.474z"/>
<path fill="#CDA5B4" d="M246.542,447.261c-2.055,0-3.708,1.206-3.708,2.636s1.653,2.636,3.708,2.636
	c2.055,0,3.708-1.206,3.708-2.636S248.597,447.261,246.542,447.261z M246.542,451.996c-1.608,0-2.903-0.938-2.903-2.056
	c0-1.116,1.295-2.055,2.903-2.055c1.608,0,2.904,0.938,2.904,2.055C249.446,451.058,248.15,451.996,246.542,451.996z"/>
<ellipse fill="#FFFFFF" stroke="#CDA5B4" stroke-width="0.45" stroke-miterlimit="10" cx="246.498" cy="448.02" rx="2.278" ry="1.742"/>
<path fill="#666666" stroke="#000000" stroke-miterlimit="10" d="M261.597,456.329h10.229v-3.396c0,0-0.089-1.34-1.34-1.474
	c-1.251-0.134-1.966-0.402-2.01-1.027c-0.045-0.536-0.089-1.162,0.134-1.43c0.224-0.269,0.894-0.581,0.894-1.519
	c0-0.938-0.224-2.592-2.413-2.592c-2.188,0-2.77,1.475-2.77,2.457c0,0.983,0.67,1.385,0.804,1.742
	c0.179,0.402,0.223,0.849,0.134,1.296c-0.09,0.446-0.492,1.161-1.742,1.161C262.088,451.549,261.418,451.861,261.597,456.329z"/>
<g enable-background="new    ">
	<path fill="#666666" d="M320.607,455.123l-6.79,10.185h-1.116l6.79-10.185H320.607z"/>
</g>
<path fill="#DEC0CA" stroke="#CDA5B4" stroke-width="0.42" stroke-miterlimit="10" d="M309.439,456.597
	c-0.357,0.045-0.759-0.044-1.116-0.179c-0.67-0.357-1.475-0.401-2.145,0c-0.849,0.536-1.385,1.653-1.295,2.323
	s0.625,1.653,1.384,1.787c0.76,0.134,1.877-0.357,2.234-0.536c0.491-0.224,1.072-0.179,1.563,0.089
	c0.446,0.269,1.876,0.894,2.725-0.044c0.581-0.581,0.849-1.385,0.715-2.189c-0.09-0.357-0.447-1.876-1.966-1.787
	c-0.446,0-0.849,0.135-1.251,0.357C310.065,456.463,309.752,456.553,309.439,456.597z"/>
<path fill="#CDA5B4" d="M309.261,457.848c-1.43,0-2.591,0.849-2.591,1.832c0,0.982,1.161,1.831,2.591,1.831s2.591-0.849,2.591-1.831
	C311.852,458.696,310.69,457.848,309.261,457.848z M309.261,461.153c-1.116,0-2.01-0.625-2.01-1.43c0-0.804,0.894-1.429,2.01-1.429
	c1.117,0,2.011,0.625,2.011,1.429C311.271,460.528,310.378,461.153,309.261,461.153z"/>
<ellipse fill="#FFFFFF" stroke="#CDA5B4" stroke-width="0.31" stroke-miterlimit="10" cx="309.261" cy="458.384" rx="1.608" ry="1.206"/>
<path fill="#666666" stroke="#000000" stroke-miterlimit="10" d="M319.804,464.37h6.969v-2.547c0.045-0.536-0.357-0.982-0.849-1.027
	c-0.894-0.089-1.341-0.268-1.385-0.715c-0.09-0.357-0.045-0.715,0.134-1.027c0.357-0.224,0.581-0.625,0.625-1.072
	c0-0.625-0.134-1.831-1.697-1.831s-1.921,1.027-1.921,1.742s0.446,0.982,0.536,1.251c0.134,0.268,0.179,0.58,0.089,0.894
	c-0.134,0.58-0.67,0.938-1.25,0.893C320.116,460.975,319.67,461.243,319.804,464.37z"/>
<g enable-background="new    ">
	<path fill="#666666" d="M361.616,457.312l-4.065,6.12h-0.67l4.065-6.12H361.616z"/>
</g>
<path fill="#DEC0CA" stroke="#CDA5B4" stroke-width="0.25" stroke-miterlimit="10" d="M354.915,458.205c-0.223,0-0.446,0-0.67-0.089
	c-0.402-0.224-0.894-0.224-1.251,0c-0.491,0.313-0.759,0.849-0.759,1.385c0.044,0.491,0.401,0.894,0.849,1.071
	c0.491,0,0.938-0.089,1.34-0.357c0.313-0.134,0.67-0.089,0.938,0.045c0.268,0.179,1.116,0.536,1.608-0.045
	c0.356-0.356,0.535-0.849,0.446-1.34c-0.045-0.223-0.269-1.116-1.161-1.072c-0.269,0-0.536,0.09-0.76,0.224
	S355.094,458.205,354.915,458.205z"/>
<path fill="#CDA5B4" d="M354.781,459.009c-0.849,0-1.563,0.492-1.563,1.117s0.715,1.117,1.563,1.117s1.563-0.492,1.563-1.117
	S355.63,459.009,354.781,459.009z M354.781,460.975c-0.67,0-1.206-0.402-1.206-0.849s0.536-0.849,1.206-0.849
	s1.206,0.402,1.206,0.849S355.451,460.975,354.781,460.975z"/>
<ellipse fill="#FFFFFF" stroke="#CDA5B4" stroke-width="0.19" stroke-miterlimit="10" cx="354.781" cy="459.277" rx="0.938" ry="0.715"/>
<path fill="#666666" stroke="#000000" stroke-miterlimit="10" d="M361.08,463.029h4.109v-1.697c0.045-0.313-0.134-0.581-0.446-0.625
	c-0.536-0.045-0.76-0.179-0.804-0.447c-0.045-0.223,0-0.401,0.089-0.625c0.224-0.134,0.357-0.357,0.402-0.626
	c0.089-0.536-0.269-0.982-0.805-1.071c-0.089,0-0.134,0-0.223,0c-0.536-0.09-1.072,0.313-1.162,0.849c0,0.044,0,0.134,0,0.179
	c0.045,0.268,0.135,0.536,0.357,0.715c0.09,0.179,0.09,0.357,0.045,0.536c-0.045,0.356-0.357,0.625-0.76,0.625
	C361.304,460.93,361.035,460.796,361.08,463.029z"/>
<g enable-background="new    ">
	<path fill="#666666" d="M379.351,461.689l-2.055,3.038h-0.313l2.01-3.038H379.351z"/>
</g>
<path fill="#DEC0CA" stroke="#CDA5B4" stroke-width="0.13" stroke-miterlimit="10" d="M376,462.137c-0.134,0-0.223,0-0.313-0.045
	c-0.179-0.09-0.446-0.09-0.625,0c-0.224,0.134-0.402,0.401-0.402,0.715c0.045,0.223,0.179,0.446,0.402,0.536
	c0.223,0,0.491-0.045,0.67-0.179c0.134-0.045,0.313-0.045,0.446,0.044c0.224,0.179,0.581,0.179,0.805,0
	c0.179-0.179,0.268-0.401,0.223-0.67c-0.044-0.313-0.268-0.536-0.58-0.536c-0.135,0-0.269,0.045-0.357,0.09
	C376.179,462.092,376.09,462.137,376,462.137z"/>
<path fill="#CDA5B4" d="M375.956,462.493c-0.313,0.09-0.492,0.447-0.357,0.76c0.089,0.313,0.446,0.491,0.759,0.357
	c0.224-0.089,0.402-0.313,0.402-0.536C376.67,462.717,376.313,462.449,375.956,462.493z M375.956,463.477
	c-0.224-0.09-0.357-0.357-0.269-0.581c0.09-0.224,0.357-0.357,0.581-0.268c0.179,0.044,0.268,0.223,0.268,0.401
	C376.491,463.343,376.224,463.521,375.956,463.477z"/>
<ellipse fill="#FFFFFF" stroke="#CDA5B4" stroke-width="0.09" stroke-miterlimit="10" cx="375.956" cy="462.672" rx="0.491" ry="0.357"/>
<path fill="#666666" stroke="#000000" stroke-miterlimit="10" d="M379.127,464.37h2.145v-0.671c0-0.178-0.134-0.268-0.313-0.313
	c-0.269-0.044-0.402-0.089-0.447-0.223c-0.044-0.09,0-0.224,0.045-0.313c0.09-0.089,0.179-0.179,0.179-0.313
	c0.045-0.268-0.134-0.491-0.402-0.536c-0.044,0-0.089,0-0.089,0c-0.269-0.045-0.536,0.134-0.581,0.447c0,0.044,0,0.044,0,0.089
	c0,0.134,0.09,0.269,0.179,0.357c0.045,0.09,0.045,0.179,0.045,0.269c-0.045,0.179-0.224,0.268-0.357,0.223
	C379.217,463.387,379.083,463.477,379.127,464.37z"/>
</svg>
