<?xml version="1.0" encoding="utf-8"?>
<!-- Generator: Adobe Illustrator 19.2.1, SVG Export Plug-In . SVG Version: 6.00 Build 0)  -->
<!DOCTYPE svg PUBLIC "-//W3C//DTD SVG 1.1//EN" "http://www.w3.org/Graphics/SVG/1.1/DTD/svg11.dtd">
<svg version="1.1" id="Ebene_1" xmlns="http://www.w3.org/2000/svg" xmlns:xlink="http://www.w3.org/1999/xlink" x="0px" y="0px"
	 viewBox="0 0 53.8 52.5" style="enable-background:new 0 0 53.8 52.5;" xml:space="preserve">
<style type="text/css">
	.st0{fill:#5C5E5F;}
</style>
<path class="st0" d="M26.9,52.5C12.1,52.5,0,40.8,0,26.3S12.1,0,26.9,0s26.9,11.8,26.9,26.3S41.8,52.5,26.9,52.5z M26.9,5
	C14.8,5,5,14.5,5,26.3C5,38,14.8,47.5,26.9,47.5S48.8,38,48.8,26.3C48.8,14.5,39,5,26.9,5z M37.6,24.2h-6.5
	c-0.1-0.1-0.2-0.3-0.3-0.4l3.9-11.9c0.4-1.2-0.3-2.5-1.5-2.9l-1.1-0.4c-1.2-0.4-2.6,0.3-3,1.5l-3.9,11.8c-1.7,0.7-3,2.4-3,4.3
	c0,2.5,2.1,4.5,4.7,4.5c0,0,2,0.2,2.4-0.7h8.3c1.3,0,2-0.8,2-2.1v-1.2C39.7,25.4,39,24.2,37.6,24.2"/>
</svg>
