<?xml version="1.0" encoding="utf-8"?>
<!-- Generator: Adobe Illustrator 19.2.1, SVG Export Plug-In . SVG Version: 6.00 Build 0)  -->
<!DOCTYPE svg PUBLIC "-//W3C//DTD SVG 1.1//EN" "http://www.w3.org/Graphics/SVG/1.1/DTD/svg11.dtd">
<svg version="1.1" id="Ebene_1" xmlns="http://www.w3.org/2000/svg" xmlns:xlink="http://www.w3.org/1999/xlink" x="0px" y="0px"
	 viewBox="0 0 59.9 58.3" style="enable-background:new 0 0 59.9 58.3;" xml:space="preserve">
<style type="text/css">
	.st0{fill:#5C5E5F;}
</style>
<path class="st0" d="M59.4,28.7h-1.9L56,26.9l-2.2,1.6L53,23.2l-1.1,4.9L49.7,19l-2.6,6.4c0,0-0.7-11.7-2.1-11.7
	c-1.3,0.1-2.4,5-2.4,5L41,7.4l-1.1,10.9c0,0-1.3-18.6-1.9-18.3c-0.7,0.3-1.4,20.4-1.4,20.4l-1.8-4.8l-2.2,11c0,0-0.8-5.2-1.7-5.2
	c-0.9,0-1.6,5.9-1.6,5.9L28,25.7l-1.8-0.8l-0.7-3.2l-1.3-0.3c0,0-0.9-6.2-1.4-7.7c-0.6-1.5-1.1-0.4-1.7,4.5s-1.5,4-1.5,4
	c-0.9-5.9-1.5-5-1.5-5c-1.2,1.8-0.9,10.1-0.9,10.1l-1.5-0.9c0,0-0.7,1.9-1,1.9s-0.6-3.2-0.6-3.2s-1-4.5-0.9-0.4
	c0.1,4-0.6,3.1-0.6,3.1L12.2,27h-0.8l-0.5,1.4L10,27l-1.8-0.5l-0.9-2.3l-1,0.3c0,0-0.5-3.7-0.8-3.9c-0.3-0.2-0.8,2.1-1.4,5.4
	c-0.3,1.8-0.6,2.4-0.8,2.9H0.6c-0.3,0-0.6,0.3-0.6,0.6c0,0.3,0.3,0.6,0.6,0.6h3.2C4,30,4.3,30.9,4.5,32.3c0.5,3.3,1,5.5,1.4,5.3
	c0.3-0.2,0.8-3.9,0.8-3.9l1,0.3l0.9-2.3l1.8-0.5l0.9-1.4l0.5,1.4h0.8l0.4-0.8c0,0,0.7-0.9,0.6,3.1c-0.1,4,0.9-0.4,0.9-0.4
	s0.2-3.2,0.6-3.2c0.3,0,1,1.9,1,1.9l1.5-0.9c0,0-0.3,8.3,0.9,10.1c0,0,0.6,0.9,1.5-5c0,0,0.9-0.9,1.5,4s1.1,6,1.7,4.5
	s1.4-7.7,1.4-7.7l1.3-0.3l0.7-3.2l1.8-0.8l1.4-1.5c0,0,0.7,5.9,1.6,5.9s1.7-5.2,1.7-5.2l2.2,11l1.8-4.8c0,0,0.7,20.1,1.4,20.4
	c0.7,0.3,1.9-18.3,1.9-18.3L41,50.6l1.6-11.3c0,0,1.1,4.9,2.4,5c1.3,0.1,2.1-11.7,2.1-11.7l2.6,6.4l2.3-9.1l1.1,5l0.7-5.1H54l2,1.5
	l1.2-1.5h2.1c0.3,0,0.6-0.3,0.6-0.6C59.9,28.9,59.7,28.7,59.4,28.7"/>
</svg>
