<?xml version="1.0" encoding="utf-8"?>
<!-- Generator: Adobe Illustrator 19.2.1, SVG Export Plug-In . SVG Version: 6.00 Build 0)  -->
<!DOCTYPE svg PUBLIC "-//W3C//DTD SVG 1.1//EN" "http://www.w3.org/Graphics/SVG/1.1/DTD/svg11.dtd">
<svg version="1.1" id="Ebene_1" xmlns="http://www.w3.org/2000/svg" xmlns:xlink="http://www.w3.org/1999/xlink" x="0px" y="0px"
	 viewBox="0 0 56.5 50.6" style="enable-background:new 0 0 56.5 50.6;" xml:space="preserve">
<style type="text/css">
	.st0{fill:#5C5E5F;}
</style>
<path class="st0" d="M46.9,30.4h-0.7V30c3.5-2.4,5.7-6.2,5.7-9.8c0-3.4-1.4-6.6-4-8.8c-2.5-2.2-5.7-3.1-9.1-2.7
	c-1.5,0.2-3.1,0.7-4.5,1.5c-1.8-0.9-3.8-1.3-6.1-1.2c-0.4-2.4-1.7-4.7-3.6-6.4c-2.4-2.1-5.6-3-8.7-2.6c-5.4,0.7-9.5,5.2-9.7,10.6
	c-0.2,4.2,1.7,7.9,5.2,9.9v0.3h-2c-5.1,0-9.5,4.4-9.5,9.4V37c0,1.5,1.5,2.5,2.9,2.5h8.2c-0.6,1.4-1,2.9-1,4.3v4.9
	c0,1,0.7,1.7,1.7,1.7h33.4c0.9,0,1.9-0.7,1.9-1.7v-1.5h7.1c1.4,0,2.5-1.2,2.5-2.8v-4C56.7,35,52.2,30.4,46.9,30.4z M40.8,21
	c0-3.3-1.3-6.3-3.6-8.6c0.6-0.2,1.2-0.4,1.8-0.4c2.4-0.3,4.8,0.4,6.5,2c1.8,1.6,2.8,3.9,2.8,6.3c0,2.8-1.7,5.6-4.3,7.2
	c-0.8,0.5-1.3,1.3-1.3,2.3v1.6c0,1.5,1,2.5,2.5,2.5h1.5c3.6,0,6.5,3,6.5,6.9v3.3h-6.1c-0.2-5.3-4.7-9.6-10.3-9.6H35
	c-0.4,0-0.7-0.5-0.7-0.9v-2c0.1-0.1,0.2-0.2,0.3-0.4C37.6,29.4,40.8,25.7,40.8,21z M17.1,20.5c-0.2,4.3,2.1,8.5,5.9,10.8
	c0.2,0.1,0.3,0.3,0.3,0.6v1.8c0,0.4-0.4,0.9-0.8,0.9h-2.8c-2.5,0-4.5,0.6-6.1,1.8H3.3v-6c0-3.3,2.9-6.2,6.2-6.2h2.4
	c1.5,0,2.8-1.1,2.8-2.4v-1.5c0-0.8-0.5-1.7-1.3-2.2c-2.5-1.5-4-4.3-3.9-7.1c0.2-3.8,3.1-7,7-7.5c2.3-0.3,4.4,0.4,6.1,1.9
	c1.3,1.2,2.2,2.7,2.6,4.6C20.5,11.4,17.3,15.6,17.1,20.5z"/>
</svg>
