<?xml version="1.0" encoding="utf-8"?>
<!-- Generator: Adobe Illustrator 19.2.1, SVG Export Plug-In . SVG Version: 6.00 Build 0)  -->
<!DOCTYPE svg PUBLIC "-//W3C//DTD SVG 1.1//EN" "http://www.w3.org/Graphics/SVG/1.1/DTD/svg11.dtd">
<svg version="1.1" id="Ebene_1" xmlns="http://www.w3.org/2000/svg" xmlns:xlink="http://www.w3.org/1999/xlink" x="0px" y="0px"
	 viewBox="0 0 53.8 51.7" style="enable-background:new 0 0 53.8 51.7;" xml:space="preserve">
<style type="text/css">
	.st0{fill:#5C5E5F;}
</style>
<path class="st0" d="M29.9,0v7.6h3.8v1.8h-5.9V0H29.9z M34.9,9.4H37V0h-2.1V9.4z M43.6,9.4L46.8,0h-2.3l-1.2,4
	c-0.3,1.1-0.6,2.2-0.9,3.3l0,0c-0.2-1.2-0.5-2.3-0.8-3.4l-1.1-4h-2.3l3,9.4h2.4V9.4z M47.8,0v9.4h6V7.7h-3.9V5.4h3.5V3.7h-3.5v-2
	h3.7V0H47.8z M42.4,28.4c0.1-0.1,0.5-0.2,0.5-0.7S42.6,27,42.4,27L6.1,8.7C6,8.6,5.9,8.6,5.8,8.6C5.5,8.6,5,8.8,5,9.4v36.3
	c0,0.6,0.5,0.8,0.8,0.8c0.1,0,0.2,0,0.3-0.1L42.4,28.4 M44.7,22.4c4.3,2.1,4.3,8.3,0,10.4L8.4,51C4.5,52.9,0,50.1,0,45.8V9.4
	c0-4.3,4.5-7.2,8.4-5.2L44.7,22.4"/>
</svg>
