<?xml version="1.0" encoding="utf-8"?>
<!-- Generator: Adobe Illustrator 19.2.1, SVG Export Plug-In . SVG Version: 6.00 Build 0)  -->
<!DOCTYPE svg PUBLIC "-//W3C//DTD SVG 1.1//EN" "http://www.w3.org/Graphics/SVG/1.1/DTD/svg11.dtd">
<svg version="1.1" id="Ebene_1" xmlns="http://www.w3.org/2000/svg" xmlns:xlink="http://www.w3.org/1999/xlink" x="0px" y="0px"
	 viewBox="0 0 40.8 52.5" style="enable-background:new 0 0 40.8 52.5;" xml:space="preserve">
<style type="text/css">
	.st0{fill:#5C5E5F;}
</style>
<path class="st0" d="M11.1,44.4v1.3c0,0.4,0.3,0.8,0.7,0.8h3.6c0.4,0,0.7-0.3,0.7-0.8v-1.3c0-0.4-0.3-0.8-0.7-0.8h-3.6
	C11.4,43.7,11.1,44,11.1,44.4 M7.3,21.2v17.7c0,0.4,0.3,0.8,0.7,0.8h11c0.4,0,0.7-0.3,0.7-0.8V21.2c0-0.4-0.3-0.8-0.7-0.8H8
	C7.6,20.4,7.3,20.8,7.3,21.2 M5.6,16.5c-1,0-1.9,0.8-1.9,1.9v28.5c0,1,0.8,1.9,1.9,1.9h15.9c1,0,1.9-0.8,1.9-1.9V18.4
	c0-1-0.8-1.9-1.9-1.9H5.6z M21.5,52.5H5.6C2.5,52.5,0,50,0,46.9V18.4c0-3.1,2.5-5.7,5.6-5.7h15.9c3.1,0,5.6,2.5,5.6,5.7v28.5
	C27.2,50,24.6,52.5,21.5,52.5 M31,27.1V16.6c0-4.2-3.4-7.5-7.5-7.5h-2.2V8.7c0-0.4,0.2-0.4,0.6-0.4H33c0.4,0,1.1,0,1.1,0.4v17.7
	c0,0.4-0.6,0.7-1.1,0.7C33,27.1,31,27.1,31,27.1z M35.4,0c3.1,0,5.4,2.9,5.4,6v28.5c0,3.1-2.3,5.5-5.4,5.5H31v-3.8h4.4
	c1,0,1.6-0.7,1.6-1.8V6c0-1-0.6-2.2-1.6-2.2H19.5c-1,0-1.9,1.2-1.9,2.2v3h-3.7V6c0-3.1,2.6-6,5.7-6H35.4"/>
</svg>
