<?xml version="1.0" encoding="utf-8"?>
<!-- Generator: Adobe Illustrator 19.2.1, SVG Export Plug-In . SVG Version: 6.00 Build 0)  -->
<!DOCTYPE svg PUBLIC "-//W3C//DTD SVG 1.1//EN" "http://www.w3.org/Graphics/SVG/1.1/DTD/svg11.dtd">
<svg version="1.1" id="Ebene_1" xmlns="http://www.w3.org/2000/svg" xmlns:xlink="http://www.w3.org/1999/xlink" x="0px" y="0px"
	 viewBox="0 0 45.4 51.1" style="enable-background:new 0 0 45.4 51.1;" xml:space="preserve">
<style type="text/css">
	.st0{fill:#5C5E5F;}
</style>
<path class="st0" d="M45.2,30.9L37.6,3c-0.2-0.7-1.1-3-4.5-3H12.3c-2.3,0-4,1.1-4.5,3L0.2,31c-0.4,1.4-0.1,2.8,0.7,3.9
	c0.9,1.1,2.3,1.8,3.8,1.8l11.1-0.1v2.1h-3.2c-2.7,0-4.6,1.9-4.6,4.4v2.3c0,2.3,1,5.4,3.9,5.4h20.6c1.7,0,3.5-0.9,3.5-5.4v-2.3
	c0-2.7-1.5-4.4-4-4.4l-3.5-0.1c0-0.7,0.1-1.4,0.1-2.1h8.6c-0.5,0.5-0.8,1.1-0.8,1.9c0,1.6,1.3,2.9,2.9,2.9s3-1.3,3-2.9
	c0-0.8-0.4-1.5-0.9-2c1.2-0.2,2.4-0.9,3.1-1.9C45.3,33.6,45.6,32.2,45.2,30.9z M24.7,32.5l-0.1,1.9c0,0.5-0.3,5.7-0.2,6.4l0.1,1.9
	l7.5,0.1c0,0.1,0,0.2,0,0.3v2.3c0,0.7,0,1.4-0.1,1.4H12c-0.2,0,0-0.8,0-1.4v-2.3c0-0.1,0.1-0.3,0.6-0.3H20v-2.3c0-0.6,0-1.8,0-2.9
	c0-1.1,0-2.2,0-2.7v-2.4L4.7,32.7c-0.3,0-0.4-0.1-0.5-0.2c-0.1-0.1-0.1-0.2,0-0.3l7.6-28C11.8,4.1,12,4,12.3,4h20.8
	c0.3,0,0.5,0.1,0.6,0.1l7.6,27.8c0,0,0,0.2-0.1,0.3c-0.1,0.2-0.4,0.3-0.6,0.3H24.7z"/>
</svg>
