<?xml version="1.0" encoding="utf-8"?>
<!-- Generator: Adobe Illustrator 19.2.1, SVG Export Plug-In . SVG Version: 6.00 Build 0)  -->
<!DOCTYPE svg PUBLIC "-//W3C//DTD SVG 1.1//EN" "http://www.w3.org/Graphics/SVG/1.1/DTD/svg11.dtd">
<svg version="1.1" id="Ebene_1" xmlns="http://www.w3.org/2000/svg" xmlns:xlink="http://www.w3.org/1999/xlink" x="0px" y="0px"
	 viewBox="0 0 49.5 49.1" style="enable-background:new 0 0 49.5 49.1;" xml:space="preserve">
<style type="text/css">
	.st0{fill:#5C5E5F;}
</style>
<path class="st0" d="M3.8,49.1c-0.6,0-1.1-0.2-1.6-0.5c-2.8-1.7-1.2-5.1,1.6-11.3c0.8-1.7,1.9-4.1,2.3-5.4C2.1,28.4,0,24,0,19.3
	C0,8.7,11.1,0,24.7,0s24.7,8.7,24.7,19.3s-11,19.3-24.7,19.3c-2.2,0-4.4-0.2-6.5-0.7c-1,0.7-2.9,2.6-4.4,4C9,46.5,6.1,49.1,3.8,49.1
	z M24.7,5C13.9,5,5,11.4,5,19.3c0,3.5,1.8,6.9,5,9.5c2.2,1.8,0.9,4.7-1.8,10.6c-0.2,0.5-0.4,1-0.7,1.5c1.1-1,2.1-1.9,2.9-2.7
	c4.7-4.4,6.3-5.8,8.2-5.4c2,0.5,4,0.7,6.1,0.7c10.9,0,19.7-6.4,19.7-14.3C44.5,11.4,35.6,5,24.7,5z"/>
</svg>
