<?xml version="1.0" encoding="utf-8"?>
<!-- Generator: Adobe Illustrator 19.2.1, SVG Export Plug-In . SVG Version: 6.00 Build 0)  -->
<!DOCTYPE svg PUBLIC "-//W3C//DTD SVG 1.1//EN" "http://www.w3.org/Graphics/SVG/1.1/DTD/svg11.dtd">
<svg version="1.1" id="Ebene_1" xmlns="http://www.w3.org/2000/svg" xmlns:xlink="http://www.w3.org/1999/xlink" x="0px" y="0px"
	 viewBox="0 0 53.8 53.6" style="enable-background:new 0 0 53.8 53.6;" xml:space="preserve">
<style type="text/css">
	.st0{clip-path:url(#SVGID_2_);fill:#5C5E5F;}
</style>
<g>
	<g>
		<defs>
			<rect id="SVGID_1_" width="53.8" height="53.6"/>
		</defs>
		<clipPath id="SVGID_2_">
			<use xlink:href="#SVGID_1_"  style="overflow:visible;"/>
		</clipPath>
		<path class="st0" d="M34.4,13.2l0.6-1.8c0.1-0.2,0-0.4-0.2-0.5s-0.4,0-0.5,0.2L33.7,13c-0.1,0.2,0,0.4,0.2,0.5H34
			C34.2,13.5,34.3,13.4,34.4,13.2 M30.5,12.4l0.2-2.1c0-0.4-0.3-0.7-0.7-0.8c-0.4,0-0.8,0.3-0.8,0.7L29,12.3c0,0.4,0.3,0.7,0.7,0.8
			c0,0,0,0,0.1,0C30.1,13,30.4,12.8,30.5,12.4 M26.1,14.4c0.6-0.2,0.9-0.7,0.8-1.3l-0.7-2.8c-0.2-0.6-0.8-0.9-1.3-0.8
			c-0.6,0.2-0.9,0.7-0.8,1.3l0.7,2.8c0.1,0.5,0.6,0.8,1.1,0.8C25.9,14.4,26,14.4,26.1,14.4 M22.9,16.2c0.7-0.4,0.9-1.3,0.5-2
			l-1.6-2.8c-0.4-0.7-1.3-0.9-2-0.5s-0.9,1.3-0.5,2l1.6,2.8c0.3,0.5,0.8,0.7,1.3,0.7C22.4,16.4,22.7,16.3,22.9,16.2 M23.3,22.4
			c0.7-0.7,0.6-1.9-0.1-2.6l-6.8-6.3c-0.7-0.7-1.9-0.6-2.6,0.1c-0.7,0.7-0.6,1.9,0.1,2.6l6.8,6.3c0.4,0.3,0.8,0.5,1.2,0.5
			C22.5,23,23,22.8,23.3,22.4 M26.9,3.6C14.1,3.6,3.6,14,3.6,26.8S14.1,50,26.9,50s23.3-10.4,23.3-23.2C50.2,14,39.7,3.6,26.9,3.6
			 M26.9,53.6C12.1,53.6,0,41.6,0,26.8S12.1,0,26.9,0s26.9,12,26.9,26.8S41.8,53.6,26.9,53.6"/>
	</g>
</g>
</svg>
