<?xml version="1.0" encoding="utf-8"?>
<!-- Generator: Adobe Illustrator 19.2.1, SVG Export Plug-In . SVG Version: 6.00 Build 0)  -->
<!DOCTYPE svg PUBLIC "-//W3C//DTD SVG 1.1//EN" "http://www.w3.org/Graphics/SVG/1.1/DTD/svg11.dtd">
<svg version="1.1" id="Ebene_1" xmlns="http://www.w3.org/2000/svg" xmlns:xlink="http://www.w3.org/1999/xlink" x="0px" y="0px"
	 viewBox="0 0 73.5 54.8" style="enable-background:new 0 0 73.5 54.8;" xml:space="preserve">
<style type="text/css">
	.st0{fill:#5C5E5F;}
</style>
<path class="st0" d="M56.3,0.2V2L50,11.1v0.1h6.4v2.5H46V12l6.4-9.2V2.7h-5.8V0.2H56.3z M57.4,13.7h7.7v-2.2h-4.2l0,0
	c0.5-0.5,1-1,1.4-1.6l2.6-3.3V4.9h-7.2V7h3.9l0,0c-0.5,0.5-0.9,1-1.4,1.6l-2.8,3.5V13.7z M65.9,13.7h7.7v-2.2h-4.2l0,0
	c0.5-0.5,1-1,1.4-1.6l2.6-3.3V4.9h-7.2V7h3.9l0,0c-0.5,0.5-0.9,1-1.4,1.6l-2.8,3.5V13.7z M57.4,13.7h7.7v-2.2h-4.2l0,0
	c0.5-0.5,1-1,1.4-1.6l2.6-3.3V4.9h-7.2V7h3.9l0,0c-0.5,0.5-0.9,1-1.4,1.6l-2.8,3.5V13.7z M65.9,13.7h7.7v-2.2h-4.2l0,0
	c0.5-0.5,1-1,1.4-1.6l2.6-3.3V4.9h-7.2V7h3.9l0,0c-0.5,0.5-0.9,1-1.4,1.6l-2.8,3.5V13.7z M42.9,8.6l-2.7,1.9v3.1L23.6,11l0.1,30.6
	c-0.2,6-5.4,11.2-11.8,11.2C5.3,52.8,0,47.3,0,40.8S5.1,29,11.6,29c2.5,0,5.5,0.8,6.5,2.1V10.2V1.8V0l23,3.2v5.3h1.8V8.6z
	 M18.6,40.8c0-3.7-3-6.8-6.8-6.8S5,37,5,40.8s3,6.8,6.8,6.8S18.6,44.6,18.6,40.8z M56.6,43.6c-0.2,6-5.4,11.2-11.8,11.2
	c-6.5,0-11.8-5.5-11.8-12S38.1,31,44.6,31c2.5,0,5.5,0.8,6.5,2.2V19.6h1.5h4V43V43.6z M51.6,42.8c0-3.7-3-6.8-6.8-6.8S38,39,38,42.8
	s3,6.8,6.8,6.8S51.6,46.6,51.6,42.8z"/>
</svg>
