<?xml version="1.0" encoding="utf-8"?>
<!-- Generator: Adobe Illustrator 19.2.1, SVG Export Plug-In . SVG Version: 6.00 Build 0)  -->
<!DOCTYPE svg PUBLIC "-//W3C//DTD SVG 1.1//EN" "http://www.w3.org/Graphics/SVG/1.1/DTD/svg11.dtd">
<svg version="1.1" id="Ebene_1" xmlns="http://www.w3.org/2000/svg" xmlns:xlink="http://www.w3.org/1999/xlink" x="0px" y="0px"
	 viewBox="0 0 27 50" style="enable-background:new 0 0 27 50;" xml:space="preserve">
<style type="text/css">
	.st0{fill:#5C5E5F;}
</style>
<path class="st0" d="M16.5,14.4l-2.7,8.8c-0.1,0.3,0,0.6,0.3,0.8l6.2,4.4c0.3,0.2,0.4,0.7,0.1,1l-8.7,11c-0.5,0.6-1.5,0.1-1.2-0.6
	l2.9-9.4c0.1-0.3-0.1-0.7-0.4-0.8l-5.7-2.7c-0.4-0.2-0.5-0.7-0.3-1l8.2-12C15.7,13.2,16.8,13.7,16.5,14.4 M23.5,46.5H3.8V7h19.7
	V46.5z M23.7,3.5h-2.3V2.1c0-1.4-1-2.1-2.3-2.1H8.5C7.1,0,5.9,0.8,5.9,2.1v1.4H3.8C2,3.5,0.2,5.1,0.2,6.8v39.9C0.2,48.5,2,50,3.8,50
	h20c1.7,0,3.3-1.5,3.3-3.3V6.8C27,5.1,25.5,3.5,23.7,3.5"/>
</svg>
