<?xml version="1.0" encoding="utf-8"?>
<!-- Generator: Adobe Illustrator 19.2.1, SVG Export Plug-In . SVG Version: 6.00 Build 0)  -->
<!DOCTYPE svg PUBLIC "-//W3C//DTD SVG 1.1//EN" "http://www.w3.org/Graphics/SVG/1.1/DTD/svg11.dtd">
<svg version="1.1" id="Ebene_1" xmlns="http://www.w3.org/2000/svg" xmlns:xlink="http://www.w3.org/1999/xlink" x="0px" y="0px"
	 viewBox="0 0 67.4 49.6" style="enable-background:new 0 0 67.4 49.6;" xml:space="preserve">
<style type="text/css">
	.st0{fill:#5C5E5F;}
</style>
<path class="st0" d="M66.7,5.2l-2.1-1.9c-0.4-0.3-0.9-0.3-1.3,0l-8.2,8.2c-0.4,0.4-0.4,1,0,1.3l5.4,5.4c0.4,0.4,0.4,1,0,1.3
	l-5.4,5.4c-0.4,0.4-0.4,1,0,1.3l5.7,5.7c0.4,0.4,0.4,1,0,1.3l-5.6,5.6c-0.4,0.4-0.4,1,0,1.3l8.4,8.4c0.4,0.4,1,0.4,1.3,0l1.3-1.3
	c0.4-0.4,0.4-1,0-1.3l-5.4-5.4c-0.4-0.4-0.4-1,0-1.3l5.3-5.3c0.4-0.4,0.4-1,0-1.3l-6.3-6.3c-0.4-0.4-0.4-1,0-1.3l6.5-6.5
	c0.4-0.4,0.4-1,0-1.3l-4.6-4.6c-0.4-0.4-0.4-1,0-1.3l5.6-5.6L66.7,5.2z M0,5.6l5.6,5.6c0.4,0.4,0.4,1,0,1.3L1,17.2
	c-0.4,0.4-0.4,1,0,1.3L7.5,25c0.4,0.4,0.4,1,0,1.3l-6.3,6.3c-0.4,0.4-0.4,1,0,1.3l5.3,5.3c0.4,0.4,0.4,1,0,1.3L1.2,46
	c-0.4,0.4-0.4,1,0,1.3l1.3,1.3c0.4,0.4,1,0.4,1.3,0l8.4-8.4c0.4-0.4,0.4-1,0-1.3l-5.6-5.6c-0.4-0.4-0.4-1,0-1.3l5.7-5.7
	c0.4-0.4,0.4-1,0-1.3l-5.4-5.4c-0.4-0.4-0.4-1,0-1.3l5.4-5.4c0.4-0.4,0.4-1,0-1.3L3.9,3.3C3.5,2.9,3,2.9,2.6,3.3L0.5,5.2L0,5.6z
	 M30.5,39.4V41c0,0.5,0.4,0.9,0.9,0.9h4.5c0.5,0,0.9-0.4,0.9-0.9v-1.6c0-0.5-0.4-0.9-0.9-0.9h-4.5C30.9,38.5,30.5,38.9,30.5,39.4
	 M25.8,10.5v22.1c0,0.5,0.4,0.9,0.9,0.9h13.8c0.5,0,0.9-0.4,0.9-0.9V10.5c0-0.5-0.4-0.9-0.9-0.9H26.7C26.2,9.5,25.8,10,25.8,10.5
	 M23.7,4.7c-1.3,0-2.3,1.1-2.3,2.3v35.4c0,1.3,1.1,2.3,2.3,2.3h19.9c1.3,0,2.3-1.1,2.3-2.3V7c0-1.3-1.1-2.3-2.3-2.3H23.7z
	 M43.6,49.5H23.7c-3.9,0-7-3.2-7-7V7c0-3.9,3.2-7,7-7h19.9c3.9,0,7,3.2,7,7v35.4C50.7,46.4,47.5,49.5,43.6,49.5"/>
</svg>
