<?xml version="1.0" encoding="utf-8"?>
<!-- Generator: Adobe Illustrator 19.2.1, SVG Export Plug-In . SVG Version: 6.00 Build 0)  -->
<!DOCTYPE svg PUBLIC "-//W3C//DTD SVG 1.1//EN" "http://www.w3.org/Graphics/SVG/1.1/DTD/svg11.dtd">
<svg version="1.1" id="Ebene_1" xmlns="http://www.w3.org/2000/svg" xmlns:xlink="http://www.w3.org/1999/xlink" x="0px" y="0px"
	 viewBox="0 0 72.1 49.5" style="enable-background:new 0 0 72.1 49.5;" xml:space="preserve">
<style type="text/css">
	.st0{fill:#5C5E5F;}
</style>
<path class="st0" d="M46.4,31h2.8v10.1h5v2.4h-7.8V31z M56.4,43.5h2.8V33.4h3.4V31H53v2.4h3.3v10.1H56.4z M64.1,31v12.5h8v-2.3H67
	v-3h4.6v-2.3H67v-2.6h4.9V31H64.1z M27.4,49.2c1,0.5,2.2,0.2,2.7-0.8L55.4,3c0.5-1,0.2-2.2-0.8-2.7s-2.2-0.2-2.7,0.8L26.6,46.5
	C26.1,47.5,26.4,48.7,27.4,49.2L27.4,49.2 M34.9,18l2.1-3.7c0.4-0.8,0-1.8-0.9-2c-2-0.4-4-0.6-6.1-0.6c-8.1,0-15.7,3-21.6,8.5
	c-0.5,0.5-0.5,1.4,0,1.9l2.8,2.8c0.5,0.5,1.3,0.5,1.8,0c4.7-4.2,10.6-6.6,17-6.6c1.2,0,2.4,0.1,3.6,0.3C34.1,18.7,34.7,18.5,34.9,18
	 M40.8,7.5l2-3.5c0.4-0.7,0-1.7-0.8-1.9C38.2,1,34.1,0.4,30,0.4C18.9,0.4,8.5,4.5,0.4,12.1c-0.5,0.5-0.5,1.4,0,1.9l2.7,2.7
	c0.5,0.5,1.3,0.5,1.8,0c6.8-6.4,15.7-9.9,25-9.9c3.2,0,6.3,0.4,9.3,1.2C39.9,8.2,40.5,8,40.8,7.5 M27.7,29.9c0.4-0.1,0.8-0.3,1-0.7
	l3.4-6.1c-0.7,0-1.4-0.1-2.1-0.1c-5,0-9.8,1.8-13.6,5.1c-0.6,0.5-0.6,1.4,0,1.9l2.8,2.8c0.5,0.5,1.2,0.5,1.8,0.1
	C22.9,31.3,25.2,30.3,27.7,29.9"/>
</svg>
