<svg id="Ebene_2" data-name="Ebene 2" xmlns="http://www.w3.org/2000/svg" xmlns:xlink="http://www.w3.org/1999/xlink" width="1370" height="800" viewBox="0 0 1370 800"><defs><style>.cls-1,.cls-11,.cls-2{fill:none;}.cls-11,.cls-12,.cls-13,.cls-14,.cls-2,.cls-5,.cls-6{stroke:#000;stroke-miterlimit:10;}.cls-3{clip-path:url(#clip-path);}.cls-4{clip-path:url(#clip-path-2);}.cls-13,.cls-14,.cls-5{fill:#fff;}.cls-6,.cls-8{fill:#bcbebe;}.cls-7{clip-path:url(#clip-path-3);}.cls-9{fill:#666;}.cls-10{fill:#dec0ca;}.cls-11,.cls-12,.cls-13{stroke-width:1.89px;}.cls-14{stroke-width:2.1px;}</style><clipPath id="clip-path"><rect class="cls-1" width="1370" height="800"/></clipPath><clipPath id="clip-path-2"><rect class="cls-2" x="-171.46" y="327.5" width="1720" height="123.25" transform="translate(42.37 -66.91) rotate(5.74)"/></clipPath><clipPath id="clip-path-3"><rect class="cls-2" x="-100.66" y="441.7" width="1720" height="123.25" transform="translate(1598.59 857.69) rotate(169.35)"/></clipPath></defs><title>gonimo-error-umgewandelt</title><g class="cls-3"><g class="cls-4"><rect class="cls-5" x="-21.07" y="233.08" width="91.36" height="179.01" transform="translate(-105.03 26.17) rotate(-19.26)"/><rect class="cls-6" x="79.65" y="243.2" width="91.36" height="179.01" transform="translate(-102.73 59.96) rotate(-19.26)"/><rect class="cls-5" x="180.38" y="253.32" width="91.36" height="179.01" transform="translate(-100.43 93.76) rotate(-19.26)"/><rect class="cls-6" x="281.11" y="263.45" width="91.36" height="179.01" transform="translate(-98.14 127.55) rotate(-19.26)"/><rect class="cls-5" x="381.83" y="273.57" width="91.36" height="179.01" transform="translate(-95.84 161.34) rotate(-19.26)"/><rect class="cls-6" x="482.56" y="283.7" width="91.36" height="179.01" transform="translate(-93.54 195.13) rotate(-19.26)"/><rect class="cls-5" x="583.29" y="293.82" width="91.36" height="179.01" transform="translate(-91.24 228.93) rotate(-19.26)"/><rect class="cls-6" x="684.02" y="303.95" width="91.36" height="179.01" transform="translate(-88.94 262.72) rotate(-19.26)"/><rect class="cls-5" x="784.74" y="314.07" width="91.36" height="179.01" transform="translate(-86.64 296.51) rotate(-19.26)"/><rect class="cls-6" x="885.47" y="324.19" width="91.36" height="179.01" transform="translate(-84.35 330.31) rotate(-19.26)"/><rect class="cls-5" x="986.2" y="334.32" width="91.36" height="179.01" transform="translate(-82.05 364.1) rotate(-19.26)"/><rect class="cls-6" x="1086.92" y="344.44" width="91.36" height="179.01" transform="translate(-79.75 397.89) rotate(-19.26)"/><rect class="cls-5" x="1187.65" y="354.57" width="91.36" height="179.01" transform="translate(-77.45 431.68) rotate(-19.26)"/><rect class="cls-6" x="1288.38" y="364.69" width="91.36" height="179.01" transform="translate(-75.15 465.48) rotate(-19.26)"/><rect class="cls-5" x="1389.1" y="374.82" width="91.36" height="179.01" transform="translate(-72.86 499.27) rotate(-19.26)"/></g><rect class="cls-2" x="-171.46" y="327.5" width="1720" height="123.25" transform="translate(42.37 -66.91) rotate(5.74)"/><g class="cls-7"><rect class="cls-5" x="1369.46" y="290.72" width="91.36" height="179.01" transform="translate(2691.86 1099.4) rotate(-165.65)"/><rect class="cls-6" x="1269.97" y="309.43" width="91.36" height="179.01" transform="translate(2491.34 1111.56) rotate(-165.65)"/><rect class="cls-5" x="1170.48" y="328.13" width="91.36" height="179.01" transform="translate(2290.83 1123.72) rotate(-165.65)"/><rect class="cls-6" x="1070.99" y="346.83" width="91.36" height="179.01" transform="translate(2090.31 1135.88) rotate(-165.65)"/><rect class="cls-5" x="971.5" y="365.54" width="91.36" height="179.01" transform="translate(1889.8 1148.04) rotate(-165.65)"/><rect class="cls-6" x="872" y="384.24" width="91.36" height="179.01" transform="translate(1689.28 1160.2) rotate(-165.65)"/><rect class="cls-5" x="772.51" y="402.95" width="91.36" height="179.01" transform="translate(1488.77 1172.36) rotate(-165.65)"/><rect class="cls-6" x="673.02" y="421.65" width="91.36" height="179.01" transform="translate(1288.25 1184.52) rotate(-165.65)"/><rect class="cls-5" x="573.53" y="440.35" width="91.36" height="179.01" transform="translate(1087.74 1196.68) rotate(-165.65)"/><rect class="cls-6" x="474.04" y="459.06" width="91.36" height="179.01" transform="translate(887.22 1208.84) rotate(-165.65)"/><rect class="cls-5" x="374.55" y="477.76" width="91.36" height="179.01" transform="translate(686.71 1221) rotate(-165.65)"/><rect class="cls-6" x="275.05" y="496.47" width="91.36" height="179.01" transform="translate(486.19 1233.16) rotate(-165.65)"/><rect class="cls-5" x="175.56" y="515.17" width="91.36" height="179.01" transform="translate(285.68 1245.32) rotate(-165.65)"/><rect class="cls-6" x="76.07" y="533.87" width="91.36" height="179.01" transform="translate(85.17 1257.48) rotate(-165.65)"/><rect class="cls-5" x="-23.42" y="552.58" width="91.36" height="179.01" transform="translate(-115.35 1269.64) rotate(-165.65)"/></g><rect class="cls-2" x="-100.66" y="441.7" width="1720" height="123.25" transform="translate(1598.59 857.69) rotate(169.35)"/></g><path d="M135.42,648.83a13.45,13.45,0,0,1-6.19-.24,15,15,0,0,1-5.33-2.73,16.69,16.69,0,0,1-4-4.62,18,18,0,0,1-2.2-5.9,19.29,19.29,0,0,1-.12-6.57,16.51,16.51,0,0,1,2-5.83,14.61,14.61,0,0,1,4-4.43,13.85,13.85,0,0,1,5.76-2.43,12.45,12.45,0,0,1,7.31.66,18.17,18.17,0,0,1,5.85,4l-1.18-6.34,4.75-.88L152,645a13.62,13.62,0,0,1-.17,6.24,13,13,0,0,1-2.67,5,15.62,15.62,0,0,1-4.65,3.64,21.58,21.58,0,0,1-6.14,2.08,18.54,18.54,0,0,1-9.15-.22,16.55,16.55,0,0,1-6.59-4.1l2.6-3.32a12.09,12.09,0,0,0,5.66,3.3,15.29,15.29,0,0,0,6.72.2,14.4,14.4,0,0,0,4.06-1.38,10,10,0,0,0,3.1-2.47,9.17,9.17,0,0,0,1.78-3.48,10,10,0,0,0,.08-4.49l-1-5.61a14,14,0,0,1-4,5.57,13.13,13.13,0,0,1-2.88,1.83A13.53,13.53,0,0,1,135.42,648.83Zm0.83-4.69a9.25,9.25,0,0,0,3.18-1.22,12.26,12.26,0,0,0,2.63-2.16,10.64,10.64,0,0,0,1.83-2.71,7.42,7.42,0,0,0,.73-2.85l-1.7-9.14a12.37,12.37,0,0,0-2.29-2.66,13.38,13.38,0,0,0-2.84-1.9,11,11,0,0,0-3.18-1,9.57,9.57,0,0,0-3.24,0,9.2,9.2,0,0,0-4.17,1.85,10.55,10.55,0,0,0-2.75,3.35,13.12,13.12,0,0,0-1.35,4.26,13.77,13.77,0,0,0,.08,4.49,12.4,12.4,0,0,0,4.7,7.64,11.36,11.36,0,0,0,3.91,1.89A10,10,0,0,0,136.25,644.13Z"/><path d="M174.73,641.78A15.88,15.88,0,0,1,162.2,639a16.44,16.44,0,0,1-4.23-4.64,17.5,17.5,0,0,1-2.32-6.06,17.28,17.28,0,0,1,0-6.56,16.92,16.92,0,0,1,2.32-5.85,16,16,0,0,1,4.39-4.54,15.8,15.8,0,0,1,6.24-2.55,16,16,0,0,1,12.53,2.78,16.93,16.93,0,0,1,4.27,4.63,17.28,17.28,0,0,1,2.37,6.12,17.52,17.52,0,0,1,0,6.49,16.1,16.1,0,0,1-6.74,10.4A16,16,0,0,1,174.73,641.78Zm-13.59-14.44a13,13,0,0,0,1.68,4.48,12,12,0,0,0,2.95,3.3,10.82,10.82,0,0,0,3.82,1.88,9.88,9.88,0,0,0,8.23-1.53,11,11,0,0,0,2.91-3.16,12,12,0,0,0,1.58-4.2,13.23,13.23,0,0,0,0-4.82,13.06,13.06,0,0,0-1.68-4.45,12,12,0,0,0-3-3.36,11,11,0,0,0-3.85-1.9,9.61,9.61,0,0,0-4.28-.15,9.36,9.36,0,0,0-3.94,1.71,11,11,0,0,0-2.88,3.18,12.37,12.37,0,0,0-1.55,4.2A13.25,13.25,0,0,0,161.14,627.34Z"/><path d="M224.84,631.84l-5.36,1-3.3-17.8q-1-5.12-2.94-7.15a5.39,5.39,0,0,0-5.15-1.44,9.2,9.2,0,0,0-3.17,1.25,13.28,13.28,0,0,0-2.79,2.32,12.28,12.28,0,0,0-2.07,3.1,11.41,11.41,0,0,0-1,3.66L202.6,636l-5.36,1-5.91-31.82,4.88-.91,1.27,6.83a14.23,14.23,0,0,1,4.46-6.38,15.82,15.82,0,0,1,7.4-3.46,9.55,9.55,0,0,1,4.76.16,7.88,7.88,0,0,1,3.45,2.26,12.69,12.69,0,0,1,2.34,3.95,29.33,29.33,0,0,1,1.44,5.22Z"/><path d="M226.18,592.5l-1.25-6.71,5.36-1,1.24,6.71Zm7,37.79-5.91-31.82,5.36-1,5.91,31.82Z"/><path d="M295.19,618.78l-5.36,1L286.52,602q-0.93-5-3-7.08a5.5,5.5,0,0,0-5.23-1.49,8.67,8.67,0,0,0-5.45,3.44,13.13,13.13,0,0,0-2.56,6.75l3.55,19.14-5.36,1-3.31-17.8q-1-5.12-3-7.14a5.47,5.47,0,0,0-5.18-1.43,8.83,8.83,0,0,0-5.43,3.37,12.62,12.62,0,0,0-2.59,6.76l3.57,19.2-5.36,1-5.91-31.82,4.88-.91,1.27,6.83a14.69,14.69,0,0,1,4-6.39,13.29,13.29,0,0,1,6.65-3.22,9.19,9.19,0,0,1,6.77,1,9.52,9.52,0,0,1,3.93,5q2.83-8.53,10.69-10a9.75,9.75,0,0,1,4.79.15,7.83,7.83,0,0,1,3.48,2.25,13.19,13.19,0,0,1,2.37,3.94,27.59,27.59,0,0,1,1.47,5.21Z"/><path d="M317.56,615.26A15.88,15.88,0,0,1,305,612.48a16.44,16.44,0,0,1-4.23-4.64,17.5,17.5,0,0,1-2.32-6.06,17.29,17.29,0,0,1,0-6.56,16.92,16.92,0,0,1,2.32-5.85,16,16,0,0,1,4.39-4.54,15.8,15.8,0,0,1,6.24-2.55A16,16,0,0,1,324,585.06a16.92,16.92,0,0,1,4.27,4.63,17.27,17.27,0,0,1,2.37,6.12,17.52,17.52,0,0,1,0,6.49,16.1,16.1,0,0,1-6.74,10.4A16,16,0,0,1,317.56,615.26ZM304,600.82a13,13,0,0,0,1.68,4.48,12,12,0,0,0,2.95,3.3,10.82,10.82,0,0,0,3.82,1.88,9.88,9.88,0,0,0,8.23-1.53,11,11,0,0,0,2.91-3.16,12,12,0,0,0,1.58-4.2,13.22,13.22,0,0,0,0-4.82,13.06,13.06,0,0,0-1.68-4.45,12,12,0,0,0-3-3.36,11,11,0,0,0-3.85-1.9,9.61,9.61,0,0,0-4.28-.15,9.36,9.36,0,0,0-3.94,1.71,11,11,0,0,0-2.88,3.18,12.35,12.35,0,0,0-1.55,4.2A13.24,13.24,0,0,0,304,600.82Z"/><path d="M1130.09,466.74a13.45,13.45,0,0,1-6.19-.24,15,15,0,0,1-5.33-2.73,16.7,16.7,0,0,1-4-4.62,18,18,0,0,1-2.2-5.9,19.29,19.29,0,0,1-.12-6.57,16.51,16.51,0,0,1,2-5.83,14.61,14.61,0,0,1,4-4.43,13.85,13.85,0,0,1,5.76-2.43,12.45,12.45,0,0,1,7.31.66,18.17,18.17,0,0,1,5.85,4l-1.18-6.34,4.75-.88,5.84,31.45a13.62,13.62,0,0,1-.17,6.24,13,13,0,0,1-2.67,5,15.61,15.61,0,0,1-4.65,3.64,21.58,21.58,0,0,1-6.14,2.08,18.54,18.54,0,0,1-9.15-.22,16.55,16.55,0,0,1-6.59-4.1l2.6-3.32a12.09,12.09,0,0,0,5.66,3.3,15.29,15.29,0,0,0,6.72.2,14.4,14.4,0,0,0,4.06-1.38,10,10,0,0,0,3.1-2.47,9.17,9.17,0,0,0,1.78-3.48,10,10,0,0,0,.08-4.49l-1-5.61a14,14,0,0,1-4,5.57,13.11,13.11,0,0,1-2.88,1.83A13.51,13.51,0,0,1,1130.09,466.74Zm0.83-4.69a9.25,9.25,0,0,0,3.18-1.22,12.26,12.26,0,0,0,2.63-2.16,10.66,10.66,0,0,0,1.83-2.71,7.42,7.42,0,0,0,.73-2.85l-1.7-9.14a12.39,12.39,0,0,0-2.29-2.66,13.41,13.41,0,0,0-2.84-1.9,11,11,0,0,0-3.18-1,9.57,9.57,0,0,0-3.24,0,9.2,9.2,0,0,0-4.17,1.85,10.57,10.57,0,0,0-2.75,3.35,13.13,13.13,0,0,0-1.35,4.26,13.77,13.77,0,0,0,.08,4.49,12.4,12.4,0,0,0,4.7,7.64,11.37,11.37,0,0,0,3.91,1.89A10,10,0,0,0,1130.92,462Z"/><path d="M1169.4,459.69a15.88,15.88,0,0,1-12.53-2.78,16.44,16.44,0,0,1-4.24-4.64,17.52,17.52,0,0,1-2.32-6.06,17.29,17.29,0,0,1,0-6.56,16.92,16.92,0,0,1,2.32-5.85,16,16,0,0,1,4.39-4.54,15.8,15.8,0,0,1,6.24-2.55,16,16,0,0,1,12.53,2.78,16.92,16.92,0,0,1,4.27,4.63,17.27,17.27,0,0,1,2.37,6.12,17.5,17.5,0,0,1,0,6.49,16.1,16.1,0,0,1-6.74,10.4A16,16,0,0,1,1169.4,459.69Zm-13.59-14.44a13,13,0,0,0,1.68,4.48,12,12,0,0,0,2.95,3.3,10.82,10.82,0,0,0,3.82,1.88,9.88,9.88,0,0,0,8.23-1.53,11,11,0,0,0,2.91-3.16A12,12,0,0,0,1177,446a13.24,13.24,0,0,0,0-4.82,13.06,13.06,0,0,0-1.68-4.45,12,12,0,0,0-3-3.36,11,11,0,0,0-3.85-1.9,9.61,9.61,0,0,0-4.28-.15,9.36,9.36,0,0,0-3.94,1.71,11,11,0,0,0-2.88,3.18,12.37,12.37,0,0,0-1.55,4.2A13.24,13.24,0,0,0,1155.81,445.25Z"/><path d="M1219.51,449.75l-5.36,1-3.3-17.8q-1-5.12-2.94-7.15a5.39,5.39,0,0,0-5.15-1.44,9.2,9.2,0,0,0-3.17,1.25,13.29,13.29,0,0,0-2.79,2.32,12.27,12.27,0,0,0-2.07,3.1,11.41,11.41,0,0,0-1,3.66l3.57,19.2-5.36,1L1186,423.06l4.88-.91,1.27,6.83a14.24,14.24,0,0,1,4.46-6.38,15.82,15.82,0,0,1,7.4-3.46,9.55,9.55,0,0,1,4.76.16,7.88,7.88,0,0,1,3.45,2.26,12.68,12.68,0,0,1,2.34,3.95,29.33,29.33,0,0,1,1.44,5.22Z"/><path d="M1220.85,410.41l-1.25-6.71,5.37-1,1.24,6.71Zm7,37.79L1222,416.38l5.36-1,5.91,31.82Z"/><path d="M1289.86,436.69l-5.36,1-3.31-17.8q-0.93-5-3-7.08a5.51,5.51,0,0,0-5.23-1.49,8.67,8.67,0,0,0-5.45,3.44,13.13,13.13,0,0,0-2.56,6.75l3.55,19.14-5.36,1-3.3-17.8q-1-5.12-3-7.14a5.47,5.47,0,0,0-5.18-1.43,8.83,8.83,0,0,0-5.43,3.37,12.62,12.62,0,0,0-2.59,6.76l3.57,19.2-5.36,1L1236,413.78l4.88-.91,1.27,6.83a14.69,14.69,0,0,1,4-6.39,13.29,13.29,0,0,1,6.65-3.22,9.19,9.19,0,0,1,6.77,1,9.53,9.53,0,0,1,3.93,5q2.83-8.53,10.69-10a9.75,9.75,0,0,1,4.79.15,7.84,7.84,0,0,1,3.48,2.25,13.2,13.2,0,0,1,2.37,3.94,27.63,27.63,0,0,1,1.47,5.21Z"/><path d="M1312.23,433.17a15.88,15.88,0,0,1-12.53-2.78,16.44,16.44,0,0,1-4.24-4.64,17.52,17.52,0,0,1-2.32-6.06,17.31,17.31,0,0,1,0-6.56,16.92,16.92,0,0,1,2.32-5.85,16,16,0,0,1,4.39-4.54,15.8,15.8,0,0,1,6.24-2.55,16,16,0,0,1,12.53,2.78,16.91,16.91,0,0,1,4.27,4.63,17.26,17.26,0,0,1,2.37,6.12,17.5,17.5,0,0,1,0,6.49,16.1,16.1,0,0,1-6.74,10.4A16,16,0,0,1,1312.23,433.17Zm-13.59-14.44a13,13,0,0,0,1.68,4.48,12,12,0,0,0,2.95,3.3,10.82,10.82,0,0,0,3.82,1.88,9.88,9.88,0,0,0,8.23-1.53,11,11,0,0,0,2.91-3.16,12,12,0,0,0,1.58-4.2,13.22,13.22,0,0,0,0-4.82,13.06,13.06,0,0,0-1.68-4.45,12,12,0,0,0-3-3.36,11,11,0,0,0-3.85-1.9,9.61,9.61,0,0,0-4.28-.15,9.36,9.36,0,0,0-3.94,1.71,11,11,0,0,0-2.88,3.18,12.37,12.37,0,0,0-1.55,4.2A13.24,13.24,0,0,0,1298.64,418.73Z"/><path d="M340.29,377.35a13.44,13.44,0,0,1-5.87-2,15,15,0,0,1-4.34-4.13,16.71,16.71,0,0,1-2.51-5.56,17.94,17.94,0,0,1-.44-6.28,19.26,19.26,0,0,1,1.75-6.33,16.51,16.51,0,0,1,3.61-5,14.63,14.63,0,0,1,5.09-3.12,13.86,13.86,0,0,1,6.21-.7,12.44,12.44,0,0,1,6.83,2.7,18.15,18.15,0,0,1,4.48,5.51l0.67-6.41,4.81,0.5-3.3,31.82a13.62,13.62,0,0,1-1.93,5.94,13,13,0,0,1-4,4,15.64,15.64,0,0,1-5.49,2.17,21.6,21.6,0,0,1-6.48.26,18.54,18.54,0,0,1-8.71-2.81,16.55,16.55,0,0,1-5.16-5.8l3.43-2.45a12.1,12.1,0,0,0,4.49,4.77,15.3,15.3,0,0,0,6.39,2.1,14.38,14.38,0,0,0,4.29-.18,10,10,0,0,0,3.68-1.49,9.17,9.17,0,0,0,2.69-2.84,10,10,0,0,0,1.35-4.29l0.59-5.67a14,14,0,0,1-5.42,4.21,13.25,13.25,0,0,1-3.28.94A13.58,13.58,0,0,1,340.29,377.35Zm2.13-4.27a9.26,9.26,0,0,0,3.39-.27,12.24,12.24,0,0,0,3.13-1.33,10.63,10.63,0,0,0,2.52-2.08,7.42,7.42,0,0,0,1.51-2.52l1-9.25a12.41,12.41,0,0,0-1.44-3.2,13.39,13.39,0,0,0-2.19-2.63,11,11,0,0,0-2.77-1.88,9.55,9.55,0,0,0-3.12-.88,9.19,9.19,0,0,0-4.52.59,10.55,10.55,0,0,0-3.59,2.43,13.14,13.14,0,0,0-2.5,3.7,13.76,13.76,0,0,0-1.2,4.33,12.41,12.41,0,0,0,2.34,8.66,11.34,11.34,0,0,0,3.22,2.92A10,10,0,0,0,342.42,373.08Z"/><path d="M380,381.72a15.88,15.88,0,0,1-11.23-6.22,16.44,16.44,0,0,1-2.75-5.65,17.5,17.5,0,0,1-.51-6.47,17.28,17.28,0,0,1,1.87-6.29,16.92,16.92,0,0,1,3.88-5,16,16,0,0,1,5.5-3.11,15.79,15.79,0,0,1,6.71-.67,16,16,0,0,1,11.23,6.21,16.89,16.89,0,0,1,2.78,5.65,17.28,17.28,0,0,1,.54,6.54,17.52,17.52,0,0,1-1.83,6.23,16.11,16.11,0,0,1-9.41,8.06A16,16,0,0,1,380,381.72ZM371,364a13,13,0,0,0,.35,4.77,12,12,0,0,0,1.89,4,10.83,10.83,0,0,0,3.13,2.88,9.88,9.88,0,0,0,8.33.86,10.94,10.94,0,0,0,3.69-2.2,12,12,0,0,0,2.71-3.58,13.22,13.22,0,0,0,1.32-4.63,13.08,13.08,0,0,0-.35-4.74,12,12,0,0,0-1.92-4.06A11,11,0,0,0,387,354.4,9.61,9.61,0,0,0,383,353a9.37,9.37,0,0,0-4.26.52,11,11,0,0,0-3.66,2.24,12.34,12.34,0,0,0-2.68,3.59A13.23,13.23,0,0,0,371,364Z"/><path d="M430.86,386.38l-5.43-.56,1.87-18q0.54-5.18-.79-7.69a5.39,5.39,0,0,0-4.54-2.84,9.2,9.2,0,0,0-3.4.3,13.29,13.29,0,0,0-3.33,1.43,12.31,12.31,0,0,0-2.87,2.38,11.42,11.42,0,0,0-2,3.22l-2,19.42-5.43-.56,3.34-32.19,4.93,0.51-0.72,6.91a14.25,14.25,0,0,1,6.08-4.85,15.83,15.83,0,0,1,8.07-1.22,9.55,9.55,0,0,1,4.52,1.5,7.89,7.89,0,0,1,2.67,3.14,12.72,12.72,0,0,1,1.13,4.45,29.24,29.24,0,0,1-.09,5.41Z"/><path d="M439.32,387.26l3.34-32.19,5.43,0.56-3.34,32.19Zm4-38.23,0.7-6.78,5.43,0.56-0.71,6.78Z"/><path d="M502,393.78l-5.43-.56,1.87-18q0.52-5.06-.86-7.63a5.5,5.5,0,0,0-4.59-2.91,8.67,8.67,0,0,0-6.2,1.76,13.14,13.14,0,0,0-4.37,5.75l-2,19.36L475,391l1.87-18q0.54-5.18-.82-7.69a5.47,5.47,0,0,0-4.57-2.84,8.84,8.84,0,0,0-6.16,1.7,12.62,12.62,0,0,0-4.4,5.74l-2,19.43-5.43-.56,3.34-32.19,4.93,0.51L461.06,364a14.7,14.7,0,0,1,5.69-5,13.3,13.3,0,0,1,7.29-1.21,9.19,9.19,0,0,1,6.22,2.86,9.53,9.53,0,0,1,2.34,5.95q5.13-7.38,13.08-6.56a9.76,9.76,0,0,1,4.55,1.5,7.83,7.83,0,0,1,2.7,3.15,13.19,13.19,0,0,1,1.16,4.45,27.63,27.63,0,0,1-.06,5.42Z"/><path d="M524.48,396.73a15.89,15.89,0,0,1-11.23-6.21,16.45,16.45,0,0,1-2.75-5.65,17.5,17.5,0,0,1-.51-6.47,17.27,17.27,0,0,1,1.87-6.29,16.9,16.9,0,0,1,3.88-5,16,16,0,0,1,5.5-3.11,15.8,15.8,0,0,1,6.71-.67,16,16,0,0,1,11.23,6.22,16.86,16.86,0,0,1,2.78,5.65,17.26,17.26,0,0,1,.54,6.54,17.52,17.52,0,0,1-1.83,6.23,16.1,16.1,0,0,1-9.41,8.06A16,16,0,0,1,524.48,396.73ZM515.53,379a13,13,0,0,0,.35,4.77,12,12,0,0,0,1.89,4,10.81,10.81,0,0,0,3.13,2.88,9.88,9.88,0,0,0,8.33.86,10.93,10.93,0,0,0,3.69-2.2,12,12,0,0,0,2.71-3.58,13.23,13.23,0,0,0,1.32-4.63,13.06,13.06,0,0,0-.35-4.74,12.06,12.06,0,0,0-1.92-4.06,11,11,0,0,0-3.16-2.91,9.63,9.63,0,0,0-4.07-1.36,9.37,9.37,0,0,0-4.26.52,11,11,0,0,0-3.66,2.24,12.35,12.35,0,0,0-2.68,3.59A13.25,13.25,0,0,0,515.53,379Z"/><path class="cls-8" d="M722.86,611.05s24.08,73.65,54.29,82.15c0,0,27.13,80.16,93.59,29.46,0,0,13.35,12.74,28.1-.57,0,0,13.34,30.13,67.16,8.88,0,0,17.94-8,27.86-30.69,0,0,58.54-47.21,67.82-89.23,8.75-39.65,32.28-188.38,32.28-188.38L930.59,391.51,684.14,425S704.92,502,722.86,611.05Z"/><path class="cls-9" d="M870.74,722.66s13.89,12,28.1-.57c0,0-9.85-16-10.79-33.46C888.06,688.63,879.9,717.2,870.74,722.66Z"/><path class="cls-10" d="M888.06,688.63l-15.38-13.36s-4.46-8.27-1.23-14.12,14.72-7.65,18.75-7.39,17.48-.23,19.58,7.93-1.2,12.83-1.2,12.83Z"/><path d="M911.78,665.84a23.72,23.72,0,0,0-.24-2.39,22.68,22.68,0,0,0-.46-2.32,9.14,9.14,0,0,0-2.74-4.44,13.18,13.18,0,0,0-4.3-2.53,25.41,25.41,0,0,0-4.59-1.22,45.48,45.48,0,0,0-4.6-.54c-1.52-.11-3.05-0.15-4.48-0.22a25.64,25.64,0,0,0-4.75.28,36.32,36.32,0,0,0-4.56,1,27.91,27.91,0,0,0-4.43,1.6,16,16,0,0,0-4.11,2.62l-0.47.42c-0.16.15-.31,0.34-0.46,0.51a7.79,7.79,0,0,0-.82,1l-0.3.47-0.15.23,0,0.06-0.08.13,0,0-0.07.15c-0.18.4-.36,0.79-0.52,1.19a12.44,12.44,0,0,0-.63,4.94,20.1,20.1,0,0,0,.91,4.68,23.26,23.26,0,0,0,1.84,4.34h0l0,0.08,0.21,0.23a94.93,94.93,0,0,0,7.45,7q1.93,1.66,3.91,3.26c0.66,0.53,1.31,1.08,2,1.59l1.48,1.13c-0.93,2.81-1.86,5.61-2.9,8.39-1.14,3-2.26,6-3.55,8.88-0.65,1.46-1.34,2.89-2.06,4.31-0.36.71-.72,1.41-1.09,2.11s-0.76,1.39-1.17,2.06-0.83,1.33-1.24,2-0.87,1.29-1.35,1.89-1,1.18-1.49,1.73a13.16,13.16,0,0,1-1.67,1.44l-1,.78,0.92,0.76c0.52,0.43,1.08.83,1.63,1.2s1.12,0.72,1.7,1,1.18,0.61,1.77.91,1.23,0.52,1.84.78,1.27,0.42,1.9.62,1.3,0.3,2,.46a19.71,19.71,0,0,0,2,.27,12.77,12.77,0,0,0,2,.08h1c0.34,0,.67-0.07,1-0.11,0.66-.1,1.34-0.13,2-0.3l2-.52a16.14,16.14,0,0,0,1.87-.73,11.14,11.14,0,0,0,1.81-.86l1.73-1a4.9,4.9,0,0,0,.83-0.56l0.81-.61,1.61-1.23,0.7-.48L900,721.6h0l-1.08-2-1.06-2c-0.59-1.33-1.16-2.67-1.73-4s-1.1-2.69-1.62-4c-0.27-.67-0.51-1.36-0.77-2s-0.51-1.36-.73-2.05c-0.47-1.37-.91-2.75-1.32-4.14-0.22-.69-0.38-1.4-0.58-2.09s-0.4-1.4-.55-2.1L890.07,695l-0.4-2.13c-0.15-.71-0.28-1.43-0.37-2.14l-0.22-1.41q2.55-1.39,5-3c1.74-1.13,3.47-2.27,5.17-3.47s3.39-2.39,5.06-3.63,3.31-2.51,4.92-3.83l0.21-.17,0.07-.1h0a13.34,13.34,0,0,0,1.87-4.55A19.35,19.35,0,0,0,911.78,665.84Zm-22.31,38.44c0.2,0.73.45,1.44,0.68,2.15s0.47,1.43.73,2.13,0.5,1.42.8,2.11l0.86,2.08,0.94,2c0.66,1.35,1.34,2.68,2.1,4,0.62,1.06,1.28,2.09,2,3.11l-0.81.63-0.73.57a4.2,4.2,0,0,1-.76.52l-1.59.94a9.73,9.73,0,0,1-1.65.79,14.41,14.41,0,0,1-1.7.67l-1.77.49c-0.59.15-1.2,0.21-1.8,0.3a9.1,9.1,0,0,1-.91.17h-0.91a11,11,0,0,1-1.83-.15,18.05,18.05,0,0,1-1.82-.32c-0.6-.14-1.2-0.24-1.79-0.42s-1.18-.36-1.75-0.57-1.15-.45-1.7-0.72-1.12-.52-1.65-0.85-1.07-.62-1.58-1l-0.41-.3a12.11,12.11,0,0,0,1-.76,17.08,17.08,0,0,0,1.8-1.82c0.56-.64,1.07-1.3,1.57-2s0.95-1.37,1.38-2.08a65.73,65.73,0,0,0,4.49-8.76q2-4.49,3.53-9.11c0.47-1.35.88-2.71,1.28-4.07,0,0.43.08,0.86,0.14,1.29l0.37,2.23c0.11,0.75.28,1.48,0.43,2.22s0.3,1.48.51,2.2Zm19.45-34.16a14.48,14.48,0,0,1-.5,2,10.24,10.24,0,0,1-.68,1.62q-2.61,1.5-5.15,3.11t-5.2,3.42c-1.73,1.15-3.41,2.36-5.09,3.58-1.24.92-2.44,1.89-3.64,2.88l-1.24-.25L887,686c-0.61-.59-1.24-1.16-1.86-1.74q-1.86-1.75-3.78-3.42a96.15,96.15,0,0,0-7.76-6.28,24.49,24.49,0,0,1-1.34-3.78,17.55,17.55,0,0,1-.6-4.1,9.91,9.91,0,0,1,.6-3.85l0.4-.84,0-.1v0l0.16-.23,0.32-.46a4,4,0,0,1,.61-0.69c0.1-.1.18-0.2,0.3-0.31l0.38-.31a14.44,14.44,0,0,1,3.45-2.08,24.87,24.87,0,0,1,4-1.39,33.22,33.22,0,0,1,4.18-.83,22.62,22.62,0,0,1,4.15-.21c1.55,0.08,3,.09,4.45.18a42.39,42.39,0,0,1,4.28.45,22.38,22.38,0,0,1,4,1,11.32,11.32,0,0,1,3.4,1.89,6.22,6.22,0,0,1,2,3,20.57,20.57,0,0,1,.47,2c0.13,0.65.2,1.35,0.27,2A16.78,16.78,0,0,1,908.92,670.11Z"/><path class="cls-11" d="M646.84,465.16C616.3,496.26,636.46,575.64,645,587.45s29.74,43.44,77.9,23.61,80.73-43,99.62-68,26.92-42.67,30.69-53.35C864.5,457.61,699.25,411.81,646.84,465.16Z"/><path class="cls-11" d="M645.19,532.68s1.65,21.72,5.43,28.56l8.73-3.54s-3.78-22.19-3.78-27.38Z"/><path class="cls-11" d="M662,536.46l3.54,18.41,6.37-1.42-3.07-20.77S663.13,535.28,662,536.46Z"/><path class="cls-11" d="M661.24,563.37l-7.55,3.3s4.49,14.4,11.57,19.12l6.37-5A50.59,50.59,0,0,1,661.24,563.37Z"/><polygon class="cls-11" points="667.38 560.3 674.7 577.53 678.24 574.7 672.81 557.7 667.38 560.3"/><path class="cls-9" d="M887.47,78.33s-93.8,55.4-268.8,40.29c0,0-16.37,59.17-105.76,119.61,0,0,6.92,44.69,136,122.12,0,0,174.69-42.81,478.11,0,0,0,120.86-85,134.08-121.81h0s-73.65-29.74-102-120.16h0S980,138.14,887.47,78.33Z"/><path class="cls-12" d="M885.42,329.75c-8.53-2.52-83.81-25-100.65-36.91-20.11-14.19-28.34-35.51-22.6-58.48,4.16-16.65,13.93-30,19.76-38,1.57-2.16,3.2-4.38,3.71-5.34l0.37-.7c1.94-3.64,6.49-12.15,4-19.62-1.64-4.9-6.29-9.16-13.84-12.68l-11.74-5.46,29.59-32,6.58,3.95c8.88,5.32,26.5,13.75,35.95,13.75,0.34,0,.67,0,1,0,11.68-1,38.27-9.35,47.53-12.51l3-1,3,1c9.36,3.16,36.21,11.56,47.91,12.52,0.32,0,.65,0,1,0,9.52,0,27.34-8.45,36.34-13.78l6.56-3.89,29.56,31.95L1000.74,158c-7.57,3.52-12.23,7.8-13.88,12.72-2.5,7.49,2,16,4,19.62l0.35,0.66c0.51,1,2.12,3.18,3.69,5.33,5.81,8,15.53,21.35,19.69,38,5.73,22.9-2.57,44.22-22.77,58.48-16.84,11.89-92.44,34.38-101,36.91l-2.68.79Z"/><path class="cls-13" d="M1005.39,236.65c-5-20.14-19.43-35.25-22.58-41.23s-17.85-31.16,13.94-46l-15.58-16.84s-27.49,16.29-42.92,15-50.16-13-50.16-13-34.39,11.72-49.81,13-42.57-15-42.57-15l-15.58,16.84c31.79,14.79,17,40,13.85,46s-17.63,21.09-22.66,41.23,2.83,37.14,18.89,48.47,97.89,35.57,97.89,35.57,82.18-24.24,98.23-35.57S1010.43,256.8,1005.39,236.65Z"/><path d="M1020.79,327.7l0.59-1c0.38-.62.95-1.53,1.68-2.67,1.46-2.29,3.55-5.57,6.13-9.45s5.63-8.38,8.94-13.17,6.91-9.85,10.51-14.91L1054,279c1.79-2.48,3.53-4.93,5.26-7.27l9.41-12.84,6.76-9,2.6-3.39,1.54,1.09-2.33,3.59-6.22,9.39-8.94,13.17c-1.63,2.42-3.35,4.88-5.09,7.4l-5.29,7.61c-3.56,5.09-7.13,10.17-10.52,14.91s-6.62,9.11-9.4,12.84-5.18,6.8-6.85,8.94c-0.83,1.08-1.49,1.91-2,2.48l-0.7.87Z"/><path d="M710.4,333.13s-1.31-2.08-3.52-5.77-5.37-8.95-9-15.34L692,301.68c-2.06-3.68-4.26-7.55-6.43-11.61s-4.46-8.23-6.72-12.51-4.57-8.61-6.79-13-4.4-8.78-6.56-13.11-4.17-8.65-6.18-12.79-3.75-8.25-5.51-12.09-3.25-7.56-4.71-10.94-2.62-6.57-3.73-9.36c-0.54-1.4-1.07-2.7-1.51-3.92L642.66,199l-2.22-6.4,1.78-.62,2.49,6.25,1.29,3.3c0.48,1.2,1.05,2.47,1.64,3.84,1.2,2.73,2.48,5.84,4,9.18s3.13,7,4.92,10.78l5.71,11.94c2,4.12,4.06,8.41,6.25,12.7s4.35,8.69,6.63,13l3.35,6.53,3.36,6.46c2.22,4.28,4.45,8.48,6.61,12.53l6.23,11.69,5.63,10.45L712,332.18Z"/><path d="M834.38,215.58V205.23H813.6v-10.8l24.63-31.58h8.23v31.5h6.65v10.88h-6.65v10.35H834.38Zm-8.84-21.23h10.27V181Z"/><path d="M900.62,183.85a26.9,26.9,0,0,1-1.51,9.18,22.78,22.78,0,0,1-4.16,7.25,18.81,18.81,0,0,1-6.23,4.76,18,18,0,0,1-7.82,1.7,18.27,18.27,0,0,1-7.86-1.7,18.68,18.68,0,0,1-6.27-4.76,22.21,22.21,0,0,1-4.12-7.25,29.32,29.32,0,0,1,0-18.36,22.21,22.21,0,0,1,4.12-7.25,19.14,19.14,0,0,1,6.27-4.8,18,18,0,0,1,7.86-1.74,17.71,17.71,0,0,1,7.82,1.74,19.28,19.28,0,0,1,6.23,4.8,22.78,22.78,0,0,1,4.16,7.25A26.9,26.9,0,0,1,900.62,183.85Zm-12.16,0a15.62,15.62,0,0,0-2.12-8.57,6.24,6.24,0,0,0-11,0,15.83,15.83,0,0,0-2.08,8.57,15.63,15.63,0,0,0,2.08,8.54,6.27,6.27,0,0,0,11,0A15.42,15.42,0,0,0,888.46,183.85Z"/><path d="M935.6,188.08a13.27,13.27,0,0,1,4.31,1.62,12.19,12.19,0,0,1,3.36,2.95,13.17,13.17,0,0,1,2.15,4.08,15.82,15.82,0,0,1,.75,4.95,13.93,13.93,0,0,1-1.43,6.38,13.75,13.75,0,0,1-4.12,4.83,20,20,0,0,1-6.46,3.1,30.38,30.38,0,0,1-8.46,1.1q-11.48,0-18-6.72l6.5-8.61a13.85,13.85,0,0,0,4.65,3.21,16,16,0,0,0,6.23,1.1q8.54,0,8.54-6.27a5.83,5.83,0,0,0-2.53-5.14q-2.53-1.74-8-1.74h-2.27v-8.69h2.49A11,11,0,0,0,930,182.5a5.43,5.43,0,0,0,2.38-4.61,4.4,4.4,0,0,0-1.74-3.78,7.58,7.58,0,0,0-4.61-1.28,11,11,0,0,0-5.63,1.47,12.55,12.55,0,0,0-4.27,4.19l-7.63-8.76a13.79,13.79,0,0,1,3.17-2.95,20.64,20.64,0,0,1,4.46-2.3,31,31,0,0,1,5.36-1.47,32.49,32.49,0,0,1,5.89-.53,26.77,26.77,0,0,1,7.33.94,17,17,0,0,1,5.67,2.72,12.64,12.64,0,0,1,3.63,4.23,11.64,11.64,0,0,1,1.28,5.48,12.88,12.88,0,0,1-.72,4.31,13.13,13.13,0,0,1-2,3.7,11.4,11.4,0,0,1-3.06,2.76A11,11,0,0,1,935.6,188.08Z"/><path d="M794,269.73V256.09h-2.53v-4.57H794V249.9a10.84,10.84,0,0,1,.49-3.36,7.41,7.41,0,0,1,1.4-2.57,6.08,6.08,0,0,1,2.19-1.62,6.94,6.94,0,0,1,2.83-.57,13.29,13.29,0,0,1,5.17,1.17l-1.1,4.53a7.66,7.66,0,0,0-1.34-.43,6.15,6.15,0,0,0-1.38-.17q-2.23,0-2.23,2.79v1.85h4.61v4.57h-4.61v13.64h-6Z"/><path d="M816.67,270.1a11.6,11.6,0,0,1-4.51-.83,9.82,9.82,0,0,1-3.34-2.25,9.48,9.48,0,0,1-2.06-3.29,11.28,11.28,0,0,1,0-7.82,9.47,9.47,0,0,1,2.06-3.29,10.06,10.06,0,0,1,3.34-2.27,11.36,11.36,0,0,1,4.51-.85,11.23,11.23,0,0,1,4.5.85,10.13,10.13,0,0,1,3.32,2.27,9.73,9.73,0,0,1,2.08,3.29,10.84,10.84,0,0,1,.72,3.91,11.07,11.07,0,0,1-.7,3.91,9.49,9.49,0,0,1-2.06,3.29,9.82,9.82,0,0,1-3.34,2.25A11.6,11.6,0,0,1,816.67,270.1Zm-4.42-10.27a5.48,5.48,0,0,0,1.25,3.76,4,4,0,0,0,3.17,1.42,4,4,0,0,0,1.74-.38,4.16,4.16,0,0,0,1.38-1.06,5.07,5.07,0,0,0,.93-1.64,6.26,6.26,0,0,0,.34-2.1,5.49,5.49,0,0,0-1.25-3.76,4,4,0,0,0-3.14-1.42,4.1,4.1,0,0,0-3.15,1.44,5.07,5.07,0,0,0-.93,1.64A6.26,6.26,0,0,0,812.25,259.83Z"/><path d="M843.75,255.07a11.57,11.57,0,0,0-4,.72,4.83,4.83,0,0,0-2.57,2v11.9h-6V249.9h5.55v4a8.42,8.42,0,0,1,2.63-3.13,6,6,0,0,1,3.42-1.17h0.6a2,2,0,0,1,.38,0v5.44Z"/><path d="M859.08,270.1a7.91,7.91,0,0,1-4-1,7,7,0,0,1-2.68-2.7v3.29h-5.25V242.15h6v11a7.19,7.19,0,0,1,2.63-2.66,8.06,8.06,0,0,1,7.35-.15,8.4,8.4,0,0,1,2.72,2.21,10.55,10.55,0,0,1,1.78,3.31,12.65,12.65,0,0,1,.64,4.06,11.4,11.4,0,0,1-.7,4,10,10,0,0,1-1.95,3.25,8.91,8.91,0,0,1-2.95,2.15A8.74,8.74,0,0,1,859.08,270.1Zm-1.7-5.1a4.54,4.54,0,0,0,3.42-1.47,5,5,0,0,0,1-1.61,5.54,5.54,0,0,0,.36-2,6,6,0,0,0-.34-2,5.58,5.58,0,0,0-.92-1.68,4.3,4.3,0,0,0-1.42-1.13,3.92,3.92,0,0,0-1.78-.42,4,4,0,0,0-2.62,1,6.5,6.5,0,0,0-1.83,2.46v4.15a4.72,4.72,0,0,0,1.76,2A4.39,4.39,0,0,0,857.38,265Z"/><path d="M872.26,247.63v-5.48h6v5.48h-6Zm0,22.1V249.9h6v19.83h-6Z"/><path d="M891.6,270.1a9.05,9.05,0,0,1-3.76-.77,8.74,8.74,0,0,1-3-2.17,10.23,10.23,0,0,1-1.95-3.27,11.62,11.62,0,0,1-.7-4.1,12.48,12.48,0,0,1,.64-4,9.92,9.92,0,0,1,1.81-3.27,8.6,8.6,0,0,1,2.78-2.17,7.86,7.86,0,0,1,3.53-.79,7.31,7.31,0,0,1,3.76,1,6.79,6.79,0,0,1,2.59,2.64v-11h6v20.77a2.11,2.11,0,0,0,.28,1.27,1.4,1.4,0,0,0,1,.43v5.1a11.62,11.62,0,0,1-1.44.25q-0.6.06-1.13,0.06a4.52,4.52,0,0,1-2.57-.66,2.55,2.55,0,0,1-1.13-1.91l-0.11-1a6.76,6.76,0,0,1-2.85,2.76A8.38,8.38,0,0,1,891.6,270.1Zm1.62-5.1a4.39,4.39,0,0,0,2.4-.74,4.73,4.73,0,0,0,1.76-2v-4.15a5.45,5.45,0,0,0-1.83-2.47,4.28,4.28,0,0,0-2.62-1,3.75,3.75,0,0,0-1.79.43,4.8,4.8,0,0,0-1.42,1.15,5.1,5.1,0,0,0-.93,1.66,6.19,6.19,0,0,0-.32,2,5.69,5.69,0,0,0,.36,2,5,5,0,0,0,1,1.62,4.3,4.3,0,0,0,1.51,1.06A4.81,4.81,0,0,0,893.22,265Z"/><path d="M917.21,270.1a9.05,9.05,0,0,1-3.76-.77,8.74,8.74,0,0,1-3-2.17,10.23,10.23,0,0,1-1.95-3.27,11.62,11.62,0,0,1-.7-4.1,12.48,12.48,0,0,1,.64-4,9.92,9.92,0,0,1,1.81-3.27,8.6,8.6,0,0,1,2.78-2.17,7.86,7.86,0,0,1,3.53-.79,7.31,7.31,0,0,1,3.76,1,6.79,6.79,0,0,1,2.59,2.64v-11h6v20.77a2.11,2.11,0,0,0,.28,1.27,1.4,1.4,0,0,0,1,.43v5.1a11.62,11.62,0,0,1-1.44.25q-0.6.06-1.13,0.06a4.52,4.52,0,0,1-2.57-.66,2.55,2.55,0,0,1-1.13-1.91l-0.11-1A6.76,6.76,0,0,1,921,269.2,8.38,8.38,0,0,1,917.21,270.1Zm1.62-5.1a4.39,4.39,0,0,0,2.4-.74,4.73,4.73,0,0,0,1.76-2v-4.15a5.45,5.45,0,0,0-1.83-2.47,4.28,4.28,0,0,0-2.62-1,3.75,3.75,0,0,0-1.79.43,4.8,4.8,0,0,0-1.42,1.15,5.1,5.1,0,0,0-.93,1.66,6.19,6.19,0,0,0-.32,2,5.69,5.69,0,0,0,.36,2,5,5,0,0,0,1,1.62,4.3,4.3,0,0,0,1.51,1.06A4.81,4.81,0,0,0,918.83,265Z"/><path d="M944.06,270.1a11.71,11.71,0,0,1-4.48-.81,9.93,9.93,0,0,1-3.36-2.21,9.45,9.45,0,0,1-2.1-3.23,10.42,10.42,0,0,1-.72-3.83,11.43,11.43,0,0,1,.72-4.06,9.85,9.85,0,0,1,2.08-3.34,9.72,9.72,0,0,1,3.34-2.27,11.59,11.59,0,0,1,4.51-.83,11.46,11.46,0,0,1,4.5.83,9.88,9.88,0,0,1,3.32,2.25,9.54,9.54,0,0,1,2.06,3.27,10.93,10.93,0,0,1,.7,3.89c0,0.35,0,.7,0,1a7.51,7.51,0,0,1-.11.89H939.83a4.08,4.08,0,0,0,1.45,3,4.63,4.63,0,0,0,3,1,5.43,5.43,0,0,0,2.55-.64,3.28,3.28,0,0,0,1.64-1.74l5.14,1.44a9.25,9.25,0,0,1-3.63,3.81A11.25,11.25,0,0,1,944.06,270.1Zm4.19-12.16a4.54,4.54,0,0,0-1.36-3,4.1,4.1,0,0,0-2.91-1.1,4,4,0,0,0-2.93,1.11,4.62,4.62,0,0,0-1.34,3h8.54Z"/><path d="M977.41,269.73h-6V258.58a4.45,4.45,0,0,0-.74-2.85,2.4,2.4,0,0,0-1.95-.89,3.36,3.36,0,0,0-1.28.26,5.32,5.32,0,0,0-1.25.74,5.65,5.65,0,0,0-1.08,1.11,5.28,5.28,0,0,0-.74,1.4v11.37h-6V249.9h5.44v3.32a7.21,7.21,0,0,1,3.1-2.74,10.51,10.51,0,0,1,4.61-1,6,6,0,0,1,3.1.7,5,5,0,0,1,1.81,1.81,7,7,0,0,1,.85,2.44,16.64,16.64,0,0,1,.21,2.57v12.69Z"/><circle cx="835.2" cy="683.25" r="2.52"/><circle cx="841.87" cy="708.81" r="2.52"/><circle cx="933.65" cy="698.61" r="2.52"/><circle cx="853.01" cy="659.89" r="2.52"/><circle cx="943.29" cy="685.39" r="2.52"/><circle cx="934.98" cy="669.53" r="2.52"/><path d="M1177.71,677.56c-3-.63-6.62-1.23-10.78-2-2.08-.4-4.31-0.71-6.66-1.08s-4.81-.78-7.4-1.11l-8.07-1.05c-2.79-.36-5.68-0.62-8.65-1s-6-.56-9.16-0.82l-4.74-.37-4.84-.28-4.92-.29-5-.19-5.06-.19-5.11-.09c-3.42-.08-6.87-0.08-10.34-0.06s-6.94.08-10.42,0.15-7,.25-10.41.37-6.91.37-10.32,0.58c-6.83.49-13.55,1-20,1.75-3.49.36-6.9,0.77-10.24,1.2q5.4-5.69,10.43-11.73,4.8-5.77,9.16-11.91l2,0c1.4,0,2.76,0,4.08,0s2.59,0,3.81.13,2.39,0.11,3.5.23l3.15,0.31c2,0.22,3.68.51,5.09,0.7l4.4,0.85,0.24-1-4.43-1c-1.42-.23-3.15-0.57-5.14-0.85l-3.18-.4c-1.12-.15-2.3-0.21-3.54-0.32s-2.52-.18-3.85-0.23-2.71-.13-4.13-0.11h-0.83c0.41-.6.84-1.18,1.24-1.78a136.33,136.33,0,0,0,9.75-16.7,80.11,80.11,0,0,0,6.53-18.4c0.64-3.11,1.3-6.21,1.91-9.34l1.8-9.39c1.14-6.26,2.3-12.51,3.39-18.77s2.21-12.52,3.25-18.79l3.12-18.8,6.08-37.63,3-18.82,2.89-18.84q2.88-18.84,5.64-37.69v0l0.14-.91-0.9-.17L932.41,401.62,918.1,398,684,424h0l-1.06.19,0.27,1.09c2,7.64,3.88,15.34,5.72,23s3.64,15.41,5.36,23.13q1.32,5.79,2.58,11.59l2.51,11.6c1.66,7.74,3.26,15.49,4.84,23.25l2.32,11.64c0.77,3.88,1.54,7.76,2.27,11.65l2.22,11.66,2.14,11.68c1.45,7.78,2.77,15.59,4.13,23.38,0.69,3.9,1.31,7.8,2,11.71l1.38,8.34c-1.08-.41-2.17-0.81-3.27-1.19l-9.68-3.23-4.82-1.6-2.4-.8-2.42-.7-9.58-2.75-4.71-1.35c-1.56-.43-3.1-0.93-4.66-1.27l-17.89-4.31-2.12-.51-2.11-.41-4.12-.79-7.82-1.5-7.19-1.38-1.69-.32-1.66-.25-3.17-.47-10.62-1.56-9.25-1.36-0.14,1,9.21,1.51,10.57,1.73,3.16,0.52,1.65,0.27,1.68,0.35,7.15,1.5,7.77,1.63,4.09,0.86,2.09,0.44,2.11,0.53L678.62,597c1.55,0.36,3.07.86,4.62,1.31l4.67,1.4,9.5,2.84,2.4,0.72,2.38,0.82,4.78,1.65,9.6,3.3c1.53,0.55,3.06,1.13,4.57,1.72l0.11,0.64,0,0.12c1.33,4.06,2.77,8,4.28,12s3.09,7.89,4.76,11.79c0.84,1.94,1.69,3.89,2.57,5.82s1.77,3.86,2.71,5.76,1.89,3.8,2.88,5.68,2,3.76,3,5.6,2.14,3.68,3.26,5.49c0.91,1.44,1.82,2.88,2.77,4.3-0.84,0-1.68-.06-2.52-0.08l-4.56-.12-1.13,0-1.13,0-2.23.07-4.38.15c-1.44,0-2.84.22-4.22,0.33l-4,.39c-2.63.19-5.07,0.72-7.34,1.07l-3.25.54-1.51.25-1.41.33-4.7,1.11L701,673l0.19,0.73,4.1-.84,4.7-1,1.4-.29,1.5-.2,3.24-.44c2.26-.27,4.69-0.73,7.31-0.84l4-.29c1.37-.08,2.76-0.26,4.18-0.24l4.33-.05,2.21,0h1.11l1.12,0.05,4.5,0.21c1.34,0.06,2.69.13,4,.27q1.46,2.12,3,4.19c1.31,1.69,2.61,3.39,4,5,0.7,0.81,1.4,1.62,2.16,2.39s1.46,1.58,2.26,2.3,1.56,1.49,2.37,2.2l2.5,2.06,2.67,1.87c0.92,0.58,1.88,1.1,2.82,1.65s2,0.92,3,1.38,1.77,0.59,2.66.86c0.77,2.27,1.63,4.45,2.6,6.61q1.13,2.49,2.38,4.94c-3.36.56-6.92,1.2-10.66,1.94-2.2.42-4.46,0.93-6.76,1.4s-4.65,1-7,1.63-4.8,1.17-7.23,1.84-4.89,1.34-7.36,2.06-4.94,1.51-7.43,2.27-4.95,1.65-7.42,2.5c-4.92,1.77-9.81,3.61-14.54,5.64-2.37,1-4.72,2-7,3.1l-3.41,1.58-3.31,1.67L696,732.79l-3.13,1.72c-1,.57-2.06,1.12-3.06,1.69L686.9,738l-2.84,1.72-2.69,1.78c-1.76,1.17-3.48,2.27-5,3.45s-3.13,2.23-4.53,3.33l-4,3.16c-1.27,1-2.34,2-3.38,2.9l-2.84,2.51-5.13,5,0.59,0.58,5.19-4.9,2.86-2.44c1.06-.87,2.13-1.89,3.41-2.82l4-3.07c1.41-1.07,3-2.1,4.56-3.22s3.3-2.21,5.07-3.33l2.7-1.71,2.85-1.65,2.93-1.7c1-.56,2-1.09,3.05-1.65l3.12-1.67,3.24-1.6,3.3-1.62,3.4-1.54c2.27-1.06,4.61-2,7-3,4.71-2,9.59-3.74,14.49-5.45,2.46-.82,4.93-1.63,7.39-2.4s4.93-1.52,7.4-2.18,4.9-1.36,7.33-2,4.83-1.2,7.2-1.75,4.71-1,7-1.54,4.54-.93,6.73-1.32c4-.76,7.88-1.4,11.47-1.95,1.1,2,2.3,4,3.53,5.92,0.72,1,1.41,2.1,2.14,3.13s1.49,2.05,2.28,3a70.54,70.54,0,0,0,5,5.73c0.92,0.88,1.8,1.8,2.77,2.64s1.92,1.69,2.93,2.47,2,1.55,3.1,2.27l3.27,2,3.43,1.78,3.58,1.47c1.21,0.45,2.47.76,3.7,1.14a13.37,13.37,0,0,0,1.89.43l1.91,0.35a28.57,28.57,0,0,0,3.85.44L828,741l1.93,0,1.93,0c0.32,0,.64,0,1,0l1-.12,3.82-.49a57.14,57.14,0,0,0,7.42-1.94c1.2-.43,2.44-0.77,3.6-1.27l3.49-1.53c0.58-.26,1.17-0.49,1.73-0.78l1.67-.9,3.34-1.8c2.16-1.31,4.25-2.72,6.37-4.08l5.43-4.07c0.33,0.27.65,0.52,1,.77q0.82,0.6,1.68,1.12c0.56,0.37,1.18.65,1.76,1s1.23,0.56,1.84.83l1.91,0.67c0.65,0.18,1.32.32,2,.48s1.35,0.18,2,.28a14.22,14.22,0,0,0,2,.07c0.34,0,.68,0,1,0l1-.13a12.25,12.25,0,0,0,2-.35l2-.55c0.64-.23,1.25-0.53,1.87-0.79l0.93-.41c0.3-.15.58-0.34,0.87-0.51l1.72-1.05a18.07,18.07,0,0,0,1.59-1.21l0.64-.51a25.4,25.4,0,0,0,3.78,5.14,32.16,32.16,0,0,0,5.74,4.84,35.8,35.8,0,0,0,6.68,3.41c1.16,0.48,2.36.83,3.55,1.21s2.41,0.65,3.64.86a49.4,49.4,0,0,0,7.4.89q1.86,0,3.71,0c1.23-.06,2.47-0.08,3.7-0.18s2.46-.21,3.68-0.37l3.65-.54,3.62-.7c1.2-.26,2.39-0.56,3.58-0.85s2.36-.65,3.54-1,2.35-.68,3.51-1.09,2.32-.77,3.48-1.18l3.43-1.3,0.86-.32,0.5-.2L967,732c0.6-.3,1.13-0.59,1.68-0.91,1.08-.63,2.14-1.28,3.16-2s2-1.44,3-2.18,1.94-1.54,2.84-2.38,1.84-1.65,2.7-2.54c0.43-.44.88-0.86,1.31-1.31l1.24-1.37c0.85-.9,1.62-1.86,2.39-2.82s1.51-1.95,2.23-3c0.35-.5.72-1,1.06-1.51l1-1.57,1-1.57c0.32-.52.59-1.08,0.89-1.61,0.56-1.09,1.22-2.14,1.7-3.27l1.42-3.14c5.1-3.77,9.93-7.82,14.65-12q3.58-3.18,7-6.49,3.28-3.12,6.45-6.37c4.29-.61,8.73-1.19,13.3-1.7,6.45-.76,13.13-1.35,19.93-1.89,3.4-.23,6.83-0.46,10.27-0.65s6.9-.37,10.37-0.44,6.92-.22,10.37-0.23,6.89-.07,10.3,0l5.09,0.05,5,0.15,5,0.15,4.9,0.25,4.82,0.25,4.73,0.34c3.12,0.23,6.17.43,9.13,0.73s5.85,0.52,8.63.83l8.05,0.94c2.58,0.3,5,.69,7.39,1s4.58,0.62,6.65,1c4.16,0.72,7.81,1.26,10.78,1.85l9.36,1.82,0.2-1Zm-145.09-19c-4,4.86-8.18,9.58-12.45,14.22l-1.1,1.15-1.94.27c-5.92.87-11.5,1.78-16.64,2.72l-2.34.43a100.27,100.27,0,0,0-2.38-19q2.43-.77,5-1.51c2.93-.87,6-1.67,9.11-2.44,1.56-.39,3.14-0.73,4.72-1.1s3.18-.68,4.79-1c3.2-.6,6.42-1.17,9.6-1.59l2.37-.32,2.36-.26c1.56-.19,3.11-0.31,4.63-0.42l1.21-.09Q1036.19,654.25,1032.61,658.61Zm-256.55,25.7c-0.09,2.84,0,5.07,0,6.6l0,0.89c-0.52-.2-1-0.4-1.55-0.62-0.9-.48-1.82-0.91-2.69-1.42s-1.72-1.09-2.56-1.68l-2.42-1.88-2.3-2c-0.75-.71-1.46-1.46-2.19-2.18s-1.39-1.53-2.09-2.29-1.35-1.57-2-2.38c-1.33-1.59-2.53-3.28-3.77-4.94l-1.29-1.85c1.74,0.18,3.48.38,5.18,0.68l4.38,0.68,4.23,0.87,2.07,0.42,2,0.5,3.88,1,1.67,0.5C776.3,678.65,776.15,681.74,776.07,684.31Zm-0.43-12-4-.95-2-.48-2.11-.4-4.31-.82-4.45-.63c-2.29-.37-4.63-0.57-7-0.76-0.24-.37-0.49-0.73-0.73-1.1-1.15-1.74-2.21-3.53-3.28-5.32s-2.09-3.61-3.08-5.45-2-3.67-2.95-5.53-1.89-3.73-2.8-5.61-1.83-3.76-2.7-5.67-1.74-3.81-2.59-5.72q-2.54-5.75-4.86-11.6c-1.3-3.3-2.55-6.63-3.73-10l1,0.38c3.14,1.25,6.3,2.39,9.36,3.7l9.08,4,4.46,1.95,4.32,2.09,8.42,4.06c2.72,1.39,5.34,2.82,7.92,4.17l3.8,2c1.24,0.68,2.43,1.39,3.62,2.07l6.86,4q1.66,1,3.27,2l-1,1.59-0.28.44-0.27.49-0.52.94A64.4,64.4,0,0,0,779.22,661,91.86,91.86,0,0,0,777,672.72Zm214,33.89c-0.31.51-.58,1-0.91,1.53l-1,1.48-1,1.48c-0.34.48-.71,0.95-1.07,1.43-0.71,1-1.41,1.91-2.2,2.8s-1.52,1.83-2.35,2.67l-1.22,1.3c-0.41.42-.85,0.82-1.28,1.24-0.84.84-1.73,1.62-2.63,2.39a59.76,59.76,0,0,1-5.64,4.29c-1,.66-2,1.28-3,1.86-0.5.29-1,.57-1.52,0.81l-0.37.18-0.05,0-0.11,0-0.21.08-0.84.31-3.37,1.25-3.41,1.13c-1.13.39-2.28,0.72-3.43,1s-2.29.68-3.45,0.95-2.31.58-3.48,0.84l-3.5.7-3.53.54c-1.18.16-2.36,0.25-3.54,0.38s-2.37.13-3.55,0.19-2.36,0-3.54,0a52.56,52.56,0,0,1-7-.74c-1.17-.17-2.29-0.49-3.44-0.74s-2.26-.64-3.34-1.08a34.26,34.26,0,0,1-6.29-3.06,29.91,29.91,0,0,1-5.47-4.34,25.74,25.74,0,0,1-2.3-2.62,19.16,19.16,0,0,1-1.86-2.86l-0.56-1.1-0.94.78h0l-1.47,1.17a16.5,16.5,0,0,1-1.49,1.14l-1.59,1c-0.27.16-.52,0.34-0.8,0.47l-0.85.37c-0.57.24-1.12,0.52-1.7,0.72l-1.78.49a10.62,10.62,0,0,1-1.81.31l-0.91.12c-0.31,0-.61,0-0.92,0a12.47,12.47,0,0,1-1.84-.06c-0.61-.09-1.22-0.12-1.83-0.25s-1.2-.28-1.8-0.44l-1.75-.61c-0.56-.26-1.14-0.49-1.69-0.77s-1.11-.56-1.63-0.91-1.05-.66-1.55-1a17.6,17.6,0,0,1-1.42-1.14l-0.58-.53-0.64.46h0L864,726.09c-2.13,1.25-4.22,2.55-6.37,3.74l-3.28,1.67-1.64.83c-0.55.27-1.13,0.47-1.69,0.72l-3.39,1.39c-1.13.46-2.32,0.75-3.47,1.13a28.14,28.14,0,0,1-3.51,1l-3.55.78-3.6.43-0.9.11c-0.3,0-.6,0-0.9,0l-1.8,0-1.8,0-1.79-.16a25.87,25.87,0,0,1-3.57-.44L821,737a11.75,11.75,0,0,1-1.75-.41c-1.14-.36-2.31-0.66-3.44-1.06l-3.34-1.35-3.22-1.64-3.08-1.9c-1-.68-2-1.42-2.94-2.12s-1.86-1.55-2.8-2.32-1.77-1.67-2.66-2.5-1.67-1.77-2.52-2.65-1.6-1.85-2.4-2.77-1.51-1.93-2.27-2.89-1.43-2-2.15-3-1.36-2-2-3.09c-0.35-.59-0.71-1.17-1.07-1.76,6.92-1,12.75-1.62,16.91-2a49.57,49.57,0,0,0,5.22-.6,16.58,16.58,0,0,0,1.83-.42l-0.1-1.89a12.51,12.51,0,0,0-1.91-.19,34.8,34.8,0,0,0-5.32.28c-4.41.45-10.65,1.17-18.06,2.36q-1.53-2.68-2.9-5.46c-1.05-2.18-2.07-4.41-2.93-6.63,0-.68-0.1-3.71.19-8.6,0.14-2.42.37-5.3,0.8-8.52,1,0.3,2,.61,2.93.95l3.07,1.06,2.73,1.06c0.86,0.32,1.65.66,2.38,1l2,0.83c1.21,0.51,2.18.87,2.84,1.1l1,0.37,0.89-1.67a9.19,9.19,0,0,0-.92-0.63,25.23,25.23,0,0,0-2.77-1.54c-1.23-.57-2.74-1.23-4.5-1.88l-2.81-1-3.15-1c-1.07-.37-2.19-0.7-3.36-1a96.68,96.68,0,0,1,2.51-11.7,61.5,61.5,0,0,1,5.8-14l0.5-.88,0.24-.42,0.29-.44,1.06-1.63c2.07,1.27,4,2.49,5.8,3.71s3.37,2.14,4.82,3.17l4,2.77c2.39,1.72,4.32,3,5.54,4s1.93,1.47,1.93,1.47l1.23-1.43s-0.6-.59-1.83-1.65-3-2.55-5.39-4.41-5.28-4-8.76-6.29c-1.77-1.23-3.71-2.48-5.77-3.77l0.87-1.26c0.8-1.18,1.65-2.37,2.51-3.56s1.73-2.4,2.63-3.6c3.57-4.82,7.34-9.77,11.23-14.77s7.83-10.08,11.72-15.24,7.72-10.37,11.14-15.8c0.88-1.34,1.66-2.75,2.47-4.13s1.48-2.79,2.22-4.17c1.47-2.71,2.78-5.55,4.09-8.31s2.43-5.52,3.57-8.21,2.19-5.35,3.09-8l1.39-3.87,1.27-3.78c0.85-2.47,1.58-4.89,2.29-7.2,1.4-4.64,2.61-8.91,3.55-12.73s1.71-7.16,2.29-9.92,1-4.94,1.26-6.43l0.39-2.29-0.65-.12-0.53,2.24c-0.37,1.46-.9,3.6-1.63,6.32s-1.66,6-2.78,9.74L852,532.79c-0.69,2.08-1.36,4.29-2.16,6.55s-1.59,4.64-2.51,7.06l-1.38,3.7-1.5,3.78c-1,2.57-2.13,5.15-3.24,7.82s-2.38,5.33-3.68,8-2.6,5.4-4.13,8.12c-0.74,1.34-1.47,2.8-2.22,4.07s-1.55,2.66-2.43,4c-3.39,5.25-7.15,10.44-11,15.57s-7.8,10.2-11.68,15.21-7.69,10-11.24,14.87c-0.89,1.22-1.76,2.45-2.61,3.68s-1.7,2.43-2.51,3.66l-0.91,1.36-3.35-2.08-6.94-3.95c-1.2-.68-2.41-1.39-3.67-2.06l-3.84-2c-2.6-1.35-5.26-2.77-8-4.15l-8.51-4-4.37-2.07-4.51-1.93L736.41,614c-3.09-1.3-6.28-2.43-9.44-3.67l-2.74-1-1.77-10.24c-0.68-3.9-1.33-7.81-2.05-11.71-1.43-7.8-2.8-15.6-4.31-23.38l-2.23-11.68-2.31-11.66c-0.76-3.89-1.56-7.77-2.36-11.65l-2.41-11.64c-1.64-7.75-3.3-15.5-5-23.23l-2.6-11.6q-1.3-5.8-2.67-11.58-2.68-11.58-5.54-23.11c-1.82-7.34-3.67-14.66-5.63-22l245-28.81,162.53,26.38-12.72,74.23-6.49,37.54-6.68,37.5c-1.11,6.25-2.29,12.48-3.45,18.72l-1.82,9.31c-0.62,3.1-1.3,6.21-1.94,9.32a76,76,0,0,1-6.26,17.39,132.09,132.09,0,0,1-9.51,16.14c-1,1.45-2,2.89-3,4.31-0.9,0-1.8.07-2.71,0.13-1.54.09-3.11,0.18-4.7,0.34l-2.39.22-2.41.28c-3.23.37-6.49,0.87-9.74,1.44-1.62.28-3.24,0.62-4.85,0.93s-3.21.68-4.79,1.06c-3.16.74-6.26,1.52-9.23,2.36q-2.51.69-4.89,1.42l-0.1-.41a145.53,145.53,0,0,0-6.62-20.08l1.54-1c1.92-1.23,3.89-2.38,5.79-3.56s3.88-2.17,5.77-3.16,3.76-1.87,5.55-2.65l5.09-2.11,4.42-1.47,1-.32,0.91-.22,1.6-.38,3-.74-0.13-.83-3.13.57-1.65.31-0.94.18-1,.28-4.56,1.29c-1.64.58-3.4,1.23-5.27,1.92s-3.74,1.64-5.73,2.51-3.94,2-6,3-4,2.23-6,3.44l-1.23.77c-0.36-.84-0.71-1.68-1.08-2.52a218.43,218.43,0,0,0-12-23.26c-1.09-1.78-2.11-3.55-3.1-5.28-0.52-.85-1-1.74-1.4-2.61s-0.9-1.72-1.31-2.57a91.42,91.42,0,0,1-4-9.91,76.24,76.24,0,0,1-2.41-8.72,63.53,63.53,0,0,1-1.12-6.88c-0.22-1.92-.26-3.44-0.29-4.47s0-1.57,0-1.57l-0.69,0a39.62,39.62,0,0,0,.21,6.16,64.34,64.34,0,0,0,1.05,7,77.13,77.13,0,0,0,2.34,8.85,92.41,92.41,0,0,0,4,10.07c0.41,0.87.86,1.73,1.29,2.62s0.87,1.78,1.39,2.65c1,1.76,2,3.56,3.06,5.35a217.12,217.12,0,0,1,11.71,23.25q0.58,1.37,1.14,2.74c-1.11.69-2.22,1.39-3.28,2.13-1.89,1.26-3.75,2.51-5.5,3.79s-3.44,2.51-5,3.7-3,2.37-4.4,3.46-2.54,2.14-3.58,3.1-1.93,1.79-2.65,2.51l-1.64,1.7-0.56.62,1.3,1.37,2.46-1.94,2.8-2.26c1.07-.88,2.31-1.85,3.62-3s2.75-2.27,4.3-3.47,3.16-2.5,4.89-3.76,3.5-2.57,5.35-3.85c0.91-.66,1.85-1.29,2.8-1.91a153,153,0,0,1,6.26,19.63c0,0.17.08,0.34,0.12,0.51-3.44,1.07-6.65,2.17-9.54,3.2-2.33.83-4.43,1.68-6.3,2.44s-3.45,1.5-4.77,2.1c-2.61,1.23-4.06,2.06-4.06,2.06l0.82,1.7,4.15-1.65,4.79-1.87c1.85-.73,3.95-1.51,6.24-2.36,2.79-1,5.89-2.13,9.21-3.21a98.06,98.06,0,0,1,2.21,18.77c-8.41,1.61-15.43,3.18-20.51,4.5-2.95.78-5.23,1.53-6.78,2.07s-2.36.89-2.36,0.89l0.55,1.81s3.38-.67,9.27-2.06c2.94-.7,6.5-1.59,10.62-2.5,2.81-.64,5.9-1.29,9.19-1.94-0.07,2.48-.24,4.79-0.48,6.87-0.16,1.33-.36,2.56-0.55,3.7s-0.43,2.17-.64,3.11L994,696.67c-0.19.72-.41,1.31-0.55,1.8L993,699.94C991.9,702.06,990.88,704.21,989.63,706.23ZM1007,686.45q-5.5,5.43-11.17,10.71l0.65-2.53c0.22-1,.42-2,0.66-3.2s0.4-2.45.56-3.81c0.26-2.25.42-4.76,0.47-7.46l2.82-.55c4.72-.9,9.84-1.77,15.24-2.62Q1011.66,681.77,1007,686.45Z"/><path class="cls-9" d="M835.71,522.76A57.94,57.94,0,0,1,887.42,491a59,59,0,0,1,52.31,31.93l0.24-2.6c2.05-22-23-39.36-45.09-39.4l-13.06-.06c-22.37,0-53,19.76-46.34,41.11Z"/><path d="M836,520.26l0.8-1.48,2.2-3.47c0.81-1.09,1.6-2.2,2.42-3.28s1.74-2.09,2.64-3.11,1.88-2,2.86-2.91,2-1.84,3.06-2.7,2.12-1.71,3.24-2.49,2.23-1.56,3.4-2.26,2.33-1.41,3.55-2,2.42-1.25,3.68-1.77,2.5-1.09,3.8-1.51,2.57-.91,3.89-1.24,2.63-.73,4-1,2.68-.53,4-0.69,2.71-.33,4.07-0.41,2.69-.13,4.12-0.13l4,0.16,4.11,0.45,4,0.73c1.33,0.32,2.64.67,4,1s2.59,0.85,3.88,1.27,2.52,1,3.79,1.53,2.45,1.19,3.67,1.78,2.36,1.35,3.55,2,2.27,1.51,3.4,2.26,2.16,1.66,3.24,2.48,2,1.8,3.07,2.69,1.92,1.93,2.88,2.9,1.77,2.07,2.66,3.1l2.44,3.27,2.2,3.43,2,3.58-1.78.34h0l0.23-2.38c0.05-.72.11-1.58,0.14-2.35a27,27,0,0,0-.34-4.57,27.93,27.93,0,0,0-3-8.75A39.92,39.92,0,0,0,923.34,491a52.1,52.1,0,0,0-17-7.86,48.58,48.58,0,0,0-9.29-1.48c-1.56-.07-3.15-0.07-4.75-0.06l-4.79,0c-3.19,0-6.41-.15-9.49.16a50.37,50.37,0,0,0-9.23,1.79,61.26,61.26,0,0,0-17,7.95,42.34,42.34,0,0,0-13,13.25,22.88,22.88,0,0,0-3,8.63,19.62,19.62,0,0,0-.06,4.55C835.69,518.77,835.82,519.51,836,520.26ZM834.81,523c-0.25-.74-0.44-1.57-0.65-2.38s-0.28-1.64-.43-2.46-0.12-1.67-.11-2.5a20.18,20.18,0,0,1,.19-2.49,24.7,24.7,0,0,1,3.31-9.29,37.65,37.65,0,0,1,6.08-7.66,51.7,51.7,0,0,1,7.56-6.1,62.91,62.91,0,0,1,17.55-8.08,51.93,51.93,0,0,1,9.54-1.8c3.27-.29,6.45-0.15,9.64-0.17s6.35,0.07,9.6.16a50.05,50.05,0,0,1,9.59,1.46,53.67,53.67,0,0,1,17.59,8A41.6,41.6,0,0,1,937.39,504a29.72,29.72,0,0,1,3.21,9.28,28.59,28.59,0,0,1,.4,5c0,0.83-.07,1.56-0.13,2.43L940.66,523h0l-0.26,3-1.52-2.7-1.94-3.43-2.17-3.28-2.4-3.12c-0.87-1-1.72-2-2.61-2.95s-1.84-1.87-2.79-2.78-2-1.75-3-2.58-2.07-1.61-3.14-2.38-2.17-1.47-3.29-2.16-2.27-1.32-3.43-1.93-2.35-1.17-3.55-1.7-2.42-1-3.65-1.46-2.49-.83-3.74-1.2l-3.81-.95-3.87-.68-3.87-.41-4-.14c-1.23,0-2.6.08-3.89,0.11s-2.61.26-3.91,0.38-2.58.43-3.87,0.64-2.55.61-3.82,0.91-2.5.79-3.75,1.17-2.44,1-3.66,1.43-2.36,1.13-3.55,1.68-2.28,1.29-3.43,1.93-2.19,1.44-3.29,2.16-2.08,1.59-3.13,2.38-2,1.73-3,2.59-1.85,1.86-2.78,2.79-1.73,2-2.59,3-1.59,2.09-2.39,3.13l-2.15,3.26-3,5.36Z"/><path d="M646.84,465.16C616.3,496.26,636.46,575.64,645,587.45s29.74,43.44,77.9,23.61,80.73-43,99.62-68,26.92-42.67,30.69-53.35C864.5,457.61,699.25,411.81,646.84,465.16Z"/><path class="cls-9" d="M648.4,466.55l-1.2,1.36-1.47,1.67-1.67,2.31a55.51,55.51,0,0,0-7.83,17.52,85.9,85.9,0,0,0-2.56,13.71,134.43,134.43,0,0,0-.82,16.53,198.61,198.61,0,0,0,4.75,39.58A139.86,139.86,0,0,0,644,581a30,30,0,0,0,2.5,5c1.1,1.61,2.33,3.3,3.52,4.91a82.26,82.26,0,0,0,8,9.29A58.11,58.11,0,0,0,667.7,608a49,49,0,0,0,11.47,5.34,53.77,53.77,0,0,0,26.07,1.21,87.1,87.1,0,0,0,13.2-3.61l3.25-1.23c1.05-.4,2.17-0.89,3.25-1.34l6.57-2.75c8.68-3.77,17.37-7.89,25.92-12.42a264.85,264.85,0,0,0,25.05-15A191.69,191.69,0,0,0,805.54,560a144.24,144.24,0,0,0,10.23-10.53c0.8-.93,1.62-1.83,2.4-2.77l2.28-2.87c1.55-1.88,3-3.91,4.44-5.86a264.63,264.63,0,0,0,16-24.43c2.4-4.2,4.64-8.46,6.66-12.8,1-2.17,2-4.35,2.86-6.56q0.67-1.65,1.29-3.32l0.31-.83,0.15-.42,0.08-.21,0-.14,0.23-.86,0.12-.43c0-.14,0-0.26,0-0.38a7.14,7.14,0,0,0,.05-1.55l0-.81-0.17-.8a8.07,8.07,0,0,0-.47-1.57,10.2,10.2,0,0,0-.69-1.51,23.45,23.45,0,0,0-4.11-5.37,56.7,56.7,0,0,0-11-8.22,141.71,141.71,0,0,0-24.59-11.2,231.57,231.57,0,0,0-24.94-7.26,272.35,272.35,0,0,0-47-6.77,202.5,202.5,0,0,0-40,1.54,117.08,117.08,0,0,0-29.53,8,74.42,74.42,0,0,0-10,5.16c-1.42.81-2.62,1.72-3.77,2.48s-2.09,1.59-3,2.26l-2.24,1.93c-0.65.55-1.14,1.08-1.56,1.47l-1.25,1.22Zm-3-2.84,1.36-1.29c0.46-.41,1-1,1.69-1.56l2.43-2a75.84,75.84,0,0,1,17.8-10.23,120.69,120.69,0,0,1,30.55-7.87,205.64,205.64,0,0,1,40.65-1.06,278,278,0,0,1,47.42,7.39,251.15,251.15,0,0,1,25.1,7.57,143.67,143.67,0,0,1,24.91,11.46,58.57,58.57,0,0,1,11.33,8.56A25.33,25.33,0,0,1,853,480.5a12.35,12.35,0,0,1,1.49,7.48c0,0.17,0,.35-0.06.5l-0.11.43-0.23.86c0,0.1,0,.07-0.08.29l-0.08.21-0.15.42-0.31.85q-0.62,1.7-1.29,3.38c-0.89,2.24-1.86,4.46-2.87,6.66-2,4.4-4.27,8.73-6.68,13a266.64,266.64,0,0,1-16,24.71c-1.48,2-2.87,4-4.45,5.92l-2.31,2.93c-0.79,1-1.62,1.88-2.43,2.83-3.23,3.78-6.75,7.3-10.33,10.75A194.12,194.12,0,0,1,784,580.36a267.59,267.59,0,0,1-25.15,15.39c-8.59,4.65-17.28,8.91-26,12.83l-6.54,2.83c-1.1.47-2.14,0.94-3.29,1.4l-3.34,1.31A90.56,90.56,0,0,1,705.9,618a57.51,57.51,0,0,1-27.87-1,52.86,52.86,0,0,1-12.46-5.67,62.18,62.18,0,0,1-10.42-8.27,86.42,86.42,0,0,1-8.44-9.68c-1.28-1.69-2.46-3.3-3.67-5a33.56,33.56,0,0,1-3-5.75,143.87,143.87,0,0,1-6.87-22.43,192.42,192.42,0,0,1-4.93-40.53c-0.1-12.21,1.23-22.93,3.72-31.47,0.54-2.15,1.32-4.12,1.94-6,0.37-.92.75-1.81,1.11-2.67a26.79,26.79,0,0,1,1.11-2.46,47.64,47.64,0,0,1,2.29-4.26,37.55,37.55,0,0,1,2.21-3.41l2-2.62,1.49-1.65,1.21-1.35Z"/><path class="cls-13" d="M645.19,532.68s1.65,21.72,5.43,28.56l8.73-3.54s-3.78-22.19-3.78-27.38Z"/><path class="cls-13" d="M662,536.46l3.54,18.41,6.37-1.42-3.07-20.77S663.13,535.28,662,536.46Z"/><path class="cls-13" d="M661.24,563.37l-7.55,3.3s4.49,14.4,11.57,19.12l6.37-5A50.59,50.59,0,0,1,661.24,563.37Z"/><polygon class="cls-13" points="667.38 560.3 674.7 577.53 678.24 574.7 672.81 557.7 667.38 560.3"/><path d="M1128.24,465.16c30.54,31.09,10.39,110.48,1.89,122.28s-29.74,43.44-77.9,23.61-80.73-43-99.62-68-26.92-42.67-30.69-53.35C910.59,457.61,1075.84,411.81,1128.24,465.16Z"/><path class="cls-9" d="M1130.08,463.53l1.21,1.35,1.49,1.65,2,2.65a37.94,37.94,0,0,1,2.24,3.44,48,48,0,0,1,2.32,4.29,27.08,27.08,0,0,1,1.12,2.48c0.36,0.87.75,1.76,1.12,2.69,0.63,1.89,1.42,3.87,2,6,2.51,8.58,3.87,19.34,3.81,31.59a167.86,167.86,0,0,1-1.27,19.42,202.64,202.64,0,0,1-3.69,21.21,144.35,144.35,0,0,1-6.93,22.5,34,34,0,0,1-3,5.83c-0.63.92-1.2,1.67-1.82,2.53l-1.87,2.51a86.87,86.87,0,0,1-8.49,9.72,62.6,62.6,0,0,1-10.51,8.32,53.3,53.3,0,0,1-12.57,5.7c-9,2.76-18.73,2.81-28.05,1a90.88,90.88,0,0,1-13.76-4L1052,613.1c-1.16-.46-2.19-0.94-3.29-1.41l-6.53-2.85q-13.13-5.92-26-12.9A267.76,267.76,0,0,1,991,580.49a194.26,194.26,0,0,1-23.13-18.72c-3.57-3.47-7.08-7-10.32-10.78-0.81-.95-1.64-1.87-2.43-2.83l-2.31-2.93c-1.57-1.94-3-4-4.44-5.93a266.69,266.69,0,0,1-16-24.73c-2.4-4.25-4.65-8.58-6.67-13-1-2.2-2-4.42-2.87-6.66q-0.67-1.68-1.29-3.38l-0.31-.85-0.15-.42-0.08-.21c-0.07-.22-0.05-0.18-0.08-0.29l-0.23-.86-0.11-.43c0-.16,0-0.34-0.06-0.5a12.49,12.49,0,0,1,1.5-7.48,25.32,25.32,0,0,1,4.43-5.85,58.58,58.58,0,0,1,11.33-8.56,143.69,143.69,0,0,1,24.91-11.47,258.44,258.44,0,0,1,25.1-7.6,280.82,280.82,0,0,1,47.42-7.51,205.3,205.3,0,0,1,40.71.92,121,121,0,0,1,30.64,7.85,76.2,76.2,0,0,1,17.9,10.25l2.45,2c0.71,0.58,1.24,1.15,1.71,1.56l1.38,1.3Zm-3.6,3.37-1.24-1.21c-0.42-.39-0.9-0.92-1.55-1.46l-2.23-1.92c-0.89-.67-1.86-1.45-3-2.25s-2.34-1.66-3.75-2.47a74,74,0,0,0-9.93-5.15,116.74,116.74,0,0,0-29.44-8,202.81,202.81,0,0,0-40-1.67,269.62,269.62,0,0,0-47,6.65,225.59,225.59,0,0,0-24.95,7.23,141.7,141.7,0,0,0-24.6,11.19,56.7,56.7,0,0,0-11,8.21,23.45,23.45,0,0,0-4.11,5.36,10.21,10.21,0,0,0-.69,1.51,8.07,8.07,0,0,0-.48,1.57l-0.17.8,0,0.81a7.13,7.13,0,0,0,.06,1.55c0,0.13,0,.25,0,0.38l0.12,0.43,0.23,0.86,0,0.14,0.08,0.21,0.15,0.42,0.31,0.83q0.62,1.67,1.29,3.32c0.89,2.2,1.86,4.39,2.87,6.55,2,4.34,4.27,8.6,6.67,12.79a264.6,264.6,0,0,0,16,24.41c1.49,2,2.9,4,4.45,5.86l2.28,2.86c0.78,0.94,1.6,1.84,2.4,2.77A139.34,139.34,0,0,0,969.61,560a191.58,191.58,0,0,0,23.08,18.13A264.68,264.68,0,0,0,1017.76,593c8.55,4.51,17.25,8.6,25.93,12.35l6.57,2.74c1.08,0.44,2.21.94,3.25,1.33l3.24,1.22a86.77,86.77,0,0,0,13.16,3.56,53.54,53.54,0,0,0,25.89-1.25,48.52,48.52,0,0,0,11.37-5.31,57.7,57.7,0,0,0,9.59-7.77,81.84,81.84,0,0,0,7.9-9.25l1.78-2.45c0.57-.81,1.22-1.69,1.72-2.45a29.67,29.67,0,0,0,2.45-4.92,139.46,139.46,0,0,0,6.39-21.68c1.53-7.14,2.69-14.05,3.47-20.66a186.57,186.57,0,0,0,1.25-18.81,134.71,134.71,0,0,0-.77-16.47,85.46,85.46,0,0,0-2.52-13.65,55.12,55.12,0,0,0-7.73-17.4l-1.64-2.28-1.47-1.67-1.2-1.36Z"/><path class="cls-13" d="M968.36,545.43S980,559,981.9,559.91l7.24-6.3-14.48-14.79Z"/><path class="cls-13" d="M989.14,565.57s44.38,32.42,55.71,36.83l6-6.61s-42.18-22-56.34-34.62Z"/><ellipse cx="887.79" cy="417.32" rx="238.9" ry="56.97"/><path class="cls-9" d="M1128.12,417.4l0,0.74c0,0.26,0,.52-0.07.94l-0.22,1.45a20.21,20.21,0,0,1-4,8.19,44,44,0,0,1-10.64,9.37,106.3,106.3,0,0,1-16.73,8.7c-13,5.51-29.35,10.37-48.39,14.52a598.55,598.55,0,0,1-64.61,10.07c-23.82,2.51-49.74,4.12-77.17,4.67s-56.39-.14-86.25-2.27-60.65-5.78-91.46-12.32c-15.38-3.33-30.79-7.36-45.71-13.19a110.08,110.08,0,0,1-21.51-10.95,51.12,51.12,0,0,1-4.86-3.74,34.32,34.32,0,0,1-4.34-4.45,23,23,0,0,1-3.33-5.42,16.3,16.3,0,0,1-1.33-6.38l0.09-1.57c0.08-.57.17-1.14,0.27-1.7l0.43-1.58L648.8,411a22.92,22.92,0,0,1,3.35-5.39,34.25,34.25,0,0,1,4.35-4.43,51,51,0,0,1,4.87-3.72,109.92,109.92,0,0,1,21.53-10.85c14.93-5.77,30.34-9.73,45.72-13,30.8-6.42,61.6-9.88,91.43-12,14.92-1,29.62-1.65,44-2s28.47-.29,42.17-0.09c27.41,0.48,53.31,2,77.11,4.48a626.39,626.39,0,0,1,64.58,9.8c19,4,35.43,8.82,48.41,14.24a106.08,106.08,0,0,1,16.75,8.6,43.93,43.93,0,0,1,10.67,9.3,20.17,20.17,0,0,1,4,8.15,15.93,15.93,0,0,1,.3,2.39l0,0.81v0.08Zm-2.88-.08,0-.66a13.08,13.08,0,0,0-.23-1.95,17.32,17.32,0,0,0-3.45-7,41.22,41.22,0,0,0-9.95-8.73,103.45,103.45,0,0,0-16.27-8.46c-12.73-5.41-29-10.24-47.88-14.36a595.69,595.69,0,0,0-64.3-10c-23.74-2.51-49.57-4.11-76.93-4.65s-56.23.14-86,2.26-60.45,5.76-91.06,12.27c-15.27,3.31-30.57,7.31-45.25,13.05a107.31,107.31,0,0,0-20.94,10.64,48.25,48.25,0,0,0-4.6,3.54,31.45,31.45,0,0,0-4,4.09,14.3,14.3,0,0,0,0,19.93,31.4,31.4,0,0,0,4,4.07,48.19,48.19,0,0,0,4.61,3.51,107.2,107.2,0,0,0,21,10.55c14.69,5.68,30,9.62,45.26,12.86,30.61,6.38,61.3,9.83,91,11.9,14.87,1,29.52,1.64,43.87,2s28.39,0.29,42.05.09c27.33-.48,53.15-2,76.87-4.47a623.59,623.59,0,0,0,64.27-9.75c18.92-4,35.15-8.75,47.89-14.08a103.3,103.3,0,0,0,16.29-8.35,41.14,41.14,0,0,0,10-8.66,17.29,17.29,0,0,0,3.49-7l0.18-1.06c0.05-.3,0-0.65.07-0.88l0-.74v0.08Z"/><path class="cls-9" d="M888.1,395.29c105.51,0,175.25,6.8,238.89,20.25,1.89-8.66,7-36,0-55.19,0,0-155.17-20.77-240.79-18.89,0,0-157.38-1.89-237.32,18.89,0,0-6.78,31.51,0,57C702.9,401.92,782.48,395.29,888.1,395.29Z"/><path d="M1261.44,237.67h0c-3-1.39-6-3-8.86-4.66s-5.75-3.44-8.56-5.27-5.55-3.75-8.25-5.74c-1.36-1-2.7-2-4-3s-2.64-2.06-3.94-3.11-2.6-2.11-3.86-3.2-2.55-2.17-3.78-3.3-2.49-2.23-3.7-3.39-2.46-2.27-3.63-3.47l-3.54-3.55-3.44-3.65c-1.14-1.22-2.22-2.5-3.34-3.74s-2.2-2.52-3.26-3.8c-2.18-2.53-4.2-5.2-6.26-7.83l-3-4.05c-1-1.34-2-2.71-2.88-4.1s-1.9-2.75-2.8-4.16l-2.67-4.24c-0.92-1.4-1.74-2.86-2.59-4.29s-1.72-2.87-2.51-4.34c-1.55-3-3.25-5.85-4.68-8.88l-2.23-4.5-2.08-4.57c-1.44-3-2.64-6.16-4-9.26-0.68-1.54-1.22-3.13-1.82-4.7L1160,118.1l-0.29-.76-0.71.11h0c-5.77.36-11.58,0.61-17.37,0.84s-11.59.39-17.38,0.53-11.59.19-17.38,0.25-11.58,0-17.37-.06-11.58-.2-17.36-0.39c-2.89-.06-5.78-0.18-8.68-0.3s-5.78-.22-8.67-0.4l-8.66-.49-8.66-.59c-5.76-.48-11.53-0.92-17.28-1.57s-11.48-1.34-17.22-2c-5.72-.84-11.45-1.61-17.13-2.65-2.85-.48-5.7-1-8.52-1.55s-5.67-1.09-8.5-1.68l-8.45-1.91c-1.41-.3-2.81-0.65-4.21-1L952,103.35l-4.19-1.08-4.15-1.21c-2.76-.84-5.56-1.57-8.28-2.5l-8.2-2.77c-2.72-1-5.39-2-8.09-3.06s-5.33-2.19-8-3.34l-4-1.73c-1.33-.57-2.59-1.27-3.89-1.89l-3.87-1.93c-1.29-.64-2.59-1.27-3.83-2l-8-4.57-0.48.27c-4.95,2.74-10.16,5.14-15.39,7.41s-10.55,4.37-15.92,6.33-10.77,3.83-16.22,5.55c-2.73.85-5.45,1.72-8.2,2.5s-5.49,1.6-8.25,2.33-5.51,1.51-8.29,2.18-5.54,1.41-8.33,2c-5.56,1.32-11.16,2.48-16.76,3.62l-8.43,1.59c-2.81.5-5.64,0.95-8.46,1.43s-5.65.89-8.48,1.31-5.65.87-8.49,1.19L747.28,116l-8.53.9-4.27.44-4.27.35-8.55.7-8.56.51-4.28.26-4.29.17-8.57.34c-2.86.11-5.72,0.12-8.58,0.18s-5.72.14-8.58,0.12l-8.58,0h-4.29l-4.29-.09-8.58-.18c-5.72-.16-11.43-0.43-17.15-0.68l-17.13-1h0l-0.73-.24-0.26.61c-0.52,1.53-1.16,3.1-1.81,4.63s-1.37,3.05-2,4.58c-1.47,3-3,6-4.65,8.9s-3.36,5.79-5.11,8.65c-0.84,1.45-1.78,2.84-2.72,4.22l-2.8,4.18c-1.88,2.77-3.93,5.43-5.88,8.15-1,1.37-2,2.67-3.07,4l-3.14,3.93c-1.06,1.3-2,2.66-3.17,3.9l-3.31,3.78c-2.23,2.5-4.35,5.1-6.72,7.49L566.39,192c-2.37,2.37-4.84,4.66-7.24,7l-3.63,3.49c-1.19,1.19-2.51,2.23-3.75,3.36l-7.57,6.67-1.89,1.67c-0.64.55-1.31,1.06-2,1.59L536.42,219l-7.84,6.36c-2.66,2.06-5.39,4-8.09,6.05s-5.4,4-8.09,6.06h0l-0.5.36,0.1,0.57a15.26,15.26,0,0,0,.38,1.52,12.53,12.53,0,0,0,.46,1.43c0.35,0.93.65,1.88,1.08,2.76l1.21,2.69,1.38,2.59c0.48,0.85.89,1.75,1.42,2.57l1.55,2.48,1.55,2.48,1.69,2.38c1.14,1.57,2.23,3.2,3.43,4.73l3.67,4.54,1.84,2.27,1.95,2.17,3.91,4.33c0.66,0.72,1.29,1.45,2,2.15l2.06,2.06,4.11,4.12c2.69,2.8,5.61,5.35,8.47,8l4.3,3.92,1.07,1,1.11,0.93,2.23,1.87,8.92,7.47c3,2.43,6.12,4.75,9.17,7.14l4.61,3.54,2.31,1.77,2.37,1.68,9.47,6.74,4.73,3.37c1.57,1.14,3.22,2.16,4.82,3.24l9.68,6.41c3.24,2.12,6.42,4.33,9.74,6.32l19.18,11.79c-0.58,2.14-1,4.28-1.46,6.44-0.24,1.18-.42,2.38-0.62,3.57s-0.34,2.39-.52,3.58-0.29,2.4-.42,3.6-0.24,2.41-.34,3.61-0.2,2.41-.24,3.62-0.2,2.42-.2,3.63v3.63c0,1.21.14,2.42,0.19,3.63s0.2,2.42.32,3.63,0.19,2.42.36,3.62l0.52,3.61c0.16,1.2.46,2.39,0.7,3.58s0.5,2.37.87,3.54,0.67,2.34,1,3.49h0l0.26,0.89,0.91-.23,7.28-1.82c1.22-.3,2.42-0.62,3.64-0.89l3.67-.8,7.33-1.61,7.37-1.42,3.68-.71,3.7-.62,7.4-1.23c4.95-.76,9.91-1.45,14.86-2.14s9.93-1.3,14.9-1.84,9.95-1.13,14.94-1.55,10-1,15-1.3,10-.79,15-1.07,10-.64,15-0.87l15-.76,15-.6,15-.45c5-.17,10-0.2,15-0.32s10-.16,15-0.2,10-.09,15-0.08l15,0,15,0c5,0,10,0,15,0s10,0.11,15,.22,10,0.17,15,.34,10,0.28,15,.47l15,0.62,15,0.78,15,0.9,14.94,1.09,14.93,1.31c5,0.52,9.94,1,14.9,1.54s9.93,1.12,14.88,1.78,9.91,1.23,14.85,2l7.42,1.06,7.4,1.17c4.94,0.75,9.86,1.65,14.78,2.5s9.83,1.81,14.75,2.71h0l0.88,0.16,0.24-.89q0.46-1.7.85-3.41c0.26-1.14.52-2.29,0.75-3.43s0.44-2.3.63-3.46,0.41-2.31.56-3.47,0.32-2.32.44-3.49,0.28-2.33.36-3.5,0.21-2.34.27-3.51l0.14-3.52,0-3.53c0-1.18-.06-2.36-0.08-3.53s-0.13-2.36-.21-3.53-0.22-2.35-.38-3.52-0.29-2.35-.53-3.51-0.38-2.34-.72-3.48-0.58-2.3-.94-3.43l-0.95-2.68c6.08-4.18,12.07-8.47,18.05-12.79q9.22-6.73,18.33-13.61c3-2.29,6-4.63,9.05-7s6-4.68,9-7l8.91-7.14q4.44-3.59,8.81-7.27t8.7-7.4c2.88-2.49,5.75-5,8.58-7.55s5.65-5.12,8.44-7.71l4.14-3.94,4.08-4c1.37-1.33,2.68-2.72,4-4.08l2-2.05,1.95-2.1c1.29-1.41,2.61-2.79,3.85-4.25s2.55-2.85,3.72-4.37a108.5,108.5,0,0,0,6.85-9.25l1.56-2.43c0.49-.83.93-1.7,1.4-2.54a45,45,0,0,0,2.43-5.31l0.36-.83ZM1128.73,374.1c0.12,1.14.22,2.28,0.25,3.42s0.16,2.28.16,3.43,0.06,2.29,0,3.44l-0.07,3.45c-0.11,2.3-.23,4.59-0.4,6.89-0.07,1.15-.21,2.29-0.3,3.44s-0.25,2.29-.38,3.44c-0.25,2.29-.55,4.58-0.88,6.87l-0.52,3.43-0.4,2.49c-4.57-1-9.14-2.05-13.72-3-4.91-1-9.82-2-14.76-2.87l-7.4-1.36-7.42-1.25c-4.94-.86-9.9-1.58-14.86-2.34s-9.94-1.34-14.91-2-10-1.18-14.94-1.77l-15-1.53-15-1.32-15-1.12-15-.87-15-.69c-5-.22-10-0.35-15-0.54s-10-.26-15-0.4-10-.2-15-0.26-10-.11-15-0.12l-15,0h0L873,393c-5,0-10,0-15.07,0s-10,.15-15.07.29-10,.21-15.07.4l-15.07.53-15.06.68-15.06.86c-5,.31-10,0.74-15,1.1s-10,.87-15,1.3-10,1-15,1.53-10,1.2-15,1.78-10,1.38-14.95,2.08-9.93,1.63-14.89,2.51l-7.42,1.42-3.71.71-3.69.8-7.37,1.61-7.33,1.8-3.65.92c-1.22.31-2.4,0.68-3.61,1l-6,1.73c-0.15-.84-0.43-1.67-0.58-2.5-0.23-1.15-.45-2.33-0.59-3.5s-0.34-2.33-.41-3.51L648,403c-0.1-1.17-.11-2.36-0.19-3.53s-0.12-2.35-.12-3.54l-0.07-3.54,0-3.54c0-1.18.06-2.36,0.09-3.55s0.09-2.37.15-3.55,0.1-2.37.2-3.55l0.25-3.55c0.2-2.36.4-4.74,0.65-7.1,0.11-1.18.23-2.4,0.37-3.58l0.35-2.87c9.49-2.17,19.16-3.83,28.8-5.44,4.92-.84,9.88-1.48,14.82-2.23,4-.63,8.05-1.13,12.09-1.62l2.74-.3,7.44-.83c2.48-.29,5-0.56,7.45-0.76L738,348.62c5-.41,10-0.73,14.95-1.09s10-.66,15-0.93c10-.6,20-1,29.94-1.49l15-.54c5-.18,10-0.28,15-0.42q15-.38,30-0.51l15-.07,15,0.05,14.95-.12,15,0.27c2.49,0,5,.12,7.48.22l7.48,0.29,7.48,0.29,7.48,0.41c5,0.29,10,.51,15,0.85l15,1,15,1.13,7.48,0.56,7.47,0.62c10,0.8,19.92,1.72,29.88,2.63s19.91,1.93,29.85,3,19.9,2,29.84,3.14q14.6,1.62,29.2,3.32L1127,364c0.29,1.1.48,2.23,0.73,3.34s0.36,2.26.56,3.38S1128.62,373,1128.73,374.1Zm129.06-130.87c-0.47.81-.9,1.63-1.4,2.42l-1.57,2.33a106.33,106.33,0,0,1-6.89,8.93c-2.45,2.87-5,5.7-7.58,8.42l-1.95,2.06-2,2c-1.34,1.34-2.65,2.7-4,4l-4.09,3.94-4.16,3.88c-2.79,2.57-5.58,5.14-8.42,7.64s-5.7,5-8.57,7.48-5.78,4.92-8.7,7.34l-8.79,7.24-8.86,7.16c-5.92,4.75-11.92,9.41-17.92,14.06s-12,9.26-18.12,13.82-12,9-18,13.37q-14.68-2.13-29.39-4-14.89-1.91-29.8-3.68c-9.94-1.17-19.9-2.24-29.85-3.31s-19.92-2.05-29.89-3-20-1.78-29.94-2.56l-15-1.07c-5-.36-10-0.6-15-0.91l-7.5-.44-7.51-.32-7.51-.32c-2.5-.12-5-0.21-7.52-0.25l-15-.33-15.07.06h-15l-15,.13q-15,.2-30,0.62c-5,.16-10,0.28-15,0.48l-15,.6-15,.76c-5,.24-10,0.64-15,1s-10,.66-15,1.11-10,.8-15,1.26l-15,1.51c-2.49.23-5,.53-7.47,0.85l-7.46.92-7.46.94-7.43,1.14-7.43,1.14-3.72.55-3.7.65c-4.92,1-9.87,1.71-14.77,2.77L648.65,359h0l-0.07,0-18.85-11.79c-3.31-2-6.48-4.2-9.7-6.33l-9.64-6.42c-1.6-1.09-3.24-2.11-4.8-3.24l-4.71-3.37-9.41-6.74-2.35-1.68-2.29-1.77-4.58-3.54c-3-2.37-6.14-4.67-9.15-7.08l-8.88-7.41L562,297.83l-1.11-.93-1.07-1L555.53,292c-2.84-2.6-5.76-5.13-8.43-7.91L543,280.06l-2-2c-0.67-.69-1.3-1.42-1.95-2.13l-3.88-4.28-1.93-2.14-1.82-2.24-3.64-4.47c-1.18-1.51-2.26-3.1-3.4-4.64l-1.68-2.34-1.53-2.43-1.53-2.43c-0.52-.8-0.93-1.67-1.4-2.5l-1.36-2.52-1.18-2.59c-0.43-.86-0.71-1.75-1-2.63a11.26,11.26,0,0,1-.44-1.33c-0.07-.24-0.14-0.49-0.2-0.72q4-2.64,7.9-5.31c2.79-1.91,5.63-3.78,8.4-5.74l8.11-6.14,4.05-3.08c0.67-.52,1.36-1,2-1.56l1.95-1.64,7.78-6.57c1.28-1.12,2.63-2.16,3.84-3.34l3.72-3.48c2.47-2.33,5-4.61,7.4-7l7.07-7.35c2.41-2.4,4.58-5,6.82-7.59l3.34-3.86c1.14-1.26,2.13-2.65,3.2-4l3.15-4c1.05-1.34,2.1-2.68,3.06-4.09l2.95-4.17c1-1.4,2-2.75,2.88-4.21l2.73-4.31c0.92-1.44,1.83-2.86,2.65-4.35,1.68-3,3.39-5.88,4.88-9s2.94-6.1,4.29-9.23A86.83,86.83,0,0,0,619.3,120l16.46,1.09c5.73,0.31,11.46.5,17.2,0.72l8.61,0.29,4.3,0.14,4.31,0,8.61,0.09c2.87,0,5.74,0,8.61-.06s5.74,0,8.61-.13l8.61-.29,4.3-.16,4.3-.25,8.6-.5,8.59-.69,4.29-.35,4.29-.44,8.57-.89,8.55-1.06c2.85-.32,5.69-0.78,8.54-1.18s5.69-.81,8.52-1.31,5.67-.94,8.5-1.45l8.47-1.61c5.63-1.15,11.26-2.33,16.84-3.68,2.8-.63,5.59-1.35,8.37-2.06s5.56-1.44,8.33-2.22,5.53-1.57,8.28-2.4,5.49-1.7,8.23-2.57q8.21-2.65,16.28-5.7c5.39-2,10.7-4.23,16-6.56,5.07-2.28,10.08-4.67,15-7.43l6.93,4.42c1.22,0.82,2.5,1.51,3.78,2.22L902,88.18c1.29,0.69,2.54,1.45,3.86,2.09l3.95,1.91c2.64,1.26,5.26,2.58,8,3.67s5.38,2.31,8.1,3.38l8.23,3c2.74,1,5.55,1.84,8.33,2.76l4.18,1.34,4.22,1.19,4.22,1.19c1.4,0.41,2.82.79,4.24,1.12l8.51,2.1c5.71,1.25,11.41,2.55,17.17,3.53s11.51,2,17.28,2.88,11.57,1.6,17.38,2.18,11.62,1.14,17.43,1.65l8.73,0.62c2.91,0.21,5.82.32,8.74,0.47s5.83,0.25,8.74.35,5.83,0.21,8.74.25c5.83,0.13,11.66.11,17.49,0.09,2.91,0,5.83-.05,8.74-0.13l8.74-.27,8.73-.38q4.36-.26,8.72-0.55c5.81-.35,11.62-0.92,17.42-1.46,5.52-.54,11-1.15,16.54-2.07,0.89,3.07,1.73,6.28,2.74,9.3,1.14,3.2,2.15,6.46,3.48,9.59l1.9,4.74,2.1,4.66c1.36,3.13,3,6.14,4.5,9.19,0.77,1.52,1.65,3,2.47,4.48s1.64,3,2.55,4.44l2.7,4.35c0.91,1.44,1.89,2.84,2.83,4.27,1.85,2.87,3.94,5.57,6,8.33s4.19,5.39,6.43,8c1.1,1.31,2.19,2.61,3.35,3.87s2.27,2.55,3.46,3.78l3.56,3.68,3.66,3.58c2.47,2.35,5,4.66,7.59,6.86,1.28,1.12,2.6,2.21,3.93,3.27s2.65,2.14,4,3.17l2,1.56,2.07,1.5c1.37,1,2.77,2,4.18,2.94,2.8,1.94,5.68,3.76,8.6,5.52s5.9,3.4,8.93,5c2.75,1.42,5.53,2.73,8.42,3.91A31.17,31.17,0,0,1,1257.79,243.22Z"/><path class="cls-14" d="M664.94,423l10.7-8.5c0.17,0.49,35.18,28.4,77.11,40C752.76,454.46,702.4,452.57,664.94,423Z"/></svg>