<svg id="Ebene_1" data-name="Ebene 1" xmlns="http://www.w3.org/2000/svg" width="1370" height="800" viewBox="0 0 1370 800"><defs><style>.cls-1{fill:#dec0ca;}.cls-2{fill:#fff;}.cls-3,.cls-4{fill:#bcbebe;}.cls-3{stroke:#000;stroke-miterlimit:10;stroke-width:1.55px;}.cls-5{fill:#666;}</style></defs><title>gonimo-error-umgewandelt</title><circle class="cls-1" cx="1019.91" cy="469.34" r="20.01"/><path d="M998.23,469.26l0.11-1.41c0-.24,0-0.47.07-0.78l0.17-1c0.07-.37.12-0.77,0.22-1.18l0.35-1.27a20.91,20.91,0,0,1,2.86-6,21.18,21.18,0,0,1,6.13-5.89,21.66,21.66,0,0,1,9.4-3.16c0.44-.06.88,0,1.33-0.06a12.91,12.91,0,0,1,1.37,0,20.59,20.59,0,0,1,2.66.29,20.15,20.15,0,0,1,5.37,1.67,22.45,22.45,0,0,1,4.85,3.11A23.35,23.35,0,0,1,1037,458a21,21,0,0,1,3.44,11.35,23.58,23.58,0,0,1-.83,6,23,23,0,0,1-2.48,5.47,22.33,22.33,0,0,1-3.87,4.51,21.77,21.77,0,0,1-4.88,3.18,21.15,21.15,0,0,1-20.4-1.3,21.83,21.83,0,0,1-6.16-6,20.42,20.42,0,0,1-2.86-6l-0.33-1.28c-0.09-.41-0.13-0.79-0.18-1.15a12.74,12.74,0,0,1-.18-1.83l-0.05-1.53v-0.08Zm3.34,0.08,0.09,1.29a10,10,0,0,0,.21,1.54c0.06,0.3.09,0.63,0.17,1l0.28,1.08a18.52,18.52,0,0,0,2.22,5.2,18.77,18.77,0,0,0,5.07,5.37,19.64,19.64,0,0,0,8.13,3.23c0.38,0.07.83,0.08,1.25,0.12l0.64,0,0.32,0h0.25a18.46,18.46,0,0,0,2.48-.14,18.05,18.05,0,0,0,5-1.28,20,20,0,0,0,4.6-2.72,20.88,20.88,0,0,0,3.77-4,19.91,19.91,0,0,0,2.48-5.06,20.57,20.57,0,0,0,.89-5.63,21.54,21.54,0,0,0-.81-5.65,20.49,20.49,0,0,0-2.43-5.12,20,20,0,0,0-3.75-4.12,19.45,19.45,0,0,0-4.64-2.79,18.79,18.79,0,0,0-5-1.31,19.08,19.08,0,0,0-2.57-.16c-0.77,0-1.63.09-2.42,0.18a18.84,18.84,0,0,0-13.4,8.78,18,18,0,0,0-2.21,5.27l-0.25,1.09c-0.07.34-.08,0.65-0.13,0.94l-0.11.81c0,0.25,0,.53,0,0.75l0,1.41v-0.08Z"/><path class="cls-2" d="M1005,473.65c0.28-.42,5.55-1.53,5.55-1.53l5.41,3.75v8.48Z"/><path d="M1004.58,473a2,2,0,0,1,.19-0.14,2.62,2.62,0,0,1,.37-0.2l0.4-.15,0.74-.22,1.44-.37c1-.23,1.91-0.45,2.87-0.65h0l0.34-.07,0.3,0.2,2.75,1.86c0.92,0.62,1.85,1.21,2.78,1.81h0l0.41,0.29v0.48l-0.1,8.48h0l0.28,1.79-1.7-1.19a58.76,58.76,0,0,1-11.09-10.7l-0.59-.77Zm2.24,0.87a57.8,57.8,0,0,1,4.8,4.13,52,52,0,0,1,5.19,5.71l-1.41.6h0l-0.1-8.48,0.41,0.77h0c-0.9-.64-1.79-1.3-2.7-1.94l-2.72-1.9,0.64,0.13h0c-0.94.2-1.89,0.41-2.82,0.64Z"/><circle class="cls-1" cx="1026.44" cy="371.84" r="14.41" transform="translate(482.35 1318.32) rotate(-80.02)"/><path d="M1010.53,369l0.26-1c0-.17.08-0.33,0.16-0.55l0.27-.74c0.1-.26.2-0.56,0.33-0.84L1012,365a15.55,15.55,0,0,1,2.9-4,15.61,15.61,0,0,1,12.5-4.52c0.66,0.08,1.26.16,2,.32a15.4,15.4,0,0,1,1.87.56,14.78,14.78,0,0,1,3.66,1.93,15.74,15.74,0,0,1,3,2.92,16.09,16.09,0,0,1,2.14,3.71,17,17,0,0,1,1,8.56,16.4,16.4,0,0,1-1.24,4.19,16.13,16.13,0,0,1-2.42,3.68,16.9,16.9,0,0,1-3.34,2.83,16.09,16.09,0,0,1-3.94,1.76,15.69,15.69,0,0,1-14.85-3.45,16.38,16.38,0,0,1-3.82-5.2,14,14,0,0,1-1.27-4.86,12.4,12.4,0,0,1,0-1.86,9.65,9.65,0,0,1,.12-1.37l0.17-1.13Zm3.44,0.7-0.08.89a6.72,6.72,0,0,0,0,1.07,9,9,0,0,0,.1,1.43,14.79,14.79,0,0,0,.93,3.75,12.86,12.86,0,0,0,2.73,4.26,13.23,13.23,0,0,0,2.28,1.85,13.41,13.41,0,0,0,2.78,1.38c0.24,0.1.57,0.17,0.86,0.25l0.45,0.12,0.22,0.06h0l0.1,0a12.79,12.79,0,0,0,1.71.23,12.94,12.94,0,0,0,3.57-.22,14,14,0,0,0,3.53-1.24,14.23,14.23,0,0,0,3.15-2.27,14.71,14.71,0,0,0,2.42-3.17,13.25,13.25,0,0,0,1.62-7.89,13.32,13.32,0,0,0-1.13-3.9A15,15,0,0,0,1037,363a14.38,14.38,0,0,0-2.95-2.46,13.22,13.22,0,0,0-3.33-1.48,13.71,13.71,0,0,0-1.79-.41c-0.51-.07-1.13-0.12-1.68-0.15a13.54,13.54,0,0,0-6.12,1.33A13.27,13.27,0,0,0,1017,363a12.46,12.46,0,0,0-2.1,3.37l-0.29.72c-0.08.22-.13,0.43-0.19,0.62l-0.16.52c0,0.16-.08.37-0.11,0.53l-0.19,1Z"/><path class="cls-2" d="M1017.79,370.5l5.22,8.82,2.32-3.54-1.55-5.63S1017.22,367.3,1017.79,370.5Z"/><path d="M1018.46,370l0,0a29,29,0,0,1,3,4.2,26.49,26.49,0,0,1,2.25,4.62l-1.42,0h0a9.89,9.89,0,0,0,1.36-1.64,6.74,6.74,0,0,0,1-1.9l-0.11.68h0a17.9,17.9,0,0,0-.59-2.87c-0.15-.46-0.27-0.94-0.43-1.4s-0.32-.87-0.53-1.32l0.47,0.59h0c-0.43-1-1-.77-1.49-1a6.54,6.54,0,0,0-1.68-.51,2.91,2.91,0,0,0-1.58.09,0.34,0.34,0,0,0-.26.33A0.66,0.66,0,0,0,1018.46,370Zm-1.5.61a2.75,2.75,0,0,1,.33-1.3,1.63,1.63,0,0,1,.51-0.52,2.07,2.07,0,0,1,.59-0.22,3.85,3.85,0,0,1,1.05,0c0.33,0,.64.09,0.95,0.14l1.82,0.4a14.85,14.85,0,0,0,1.89.28h0l0.44,0.26,0,0.29c0.05,0.49.15,1,.25,1.45s0.16,0.95.28,1.42a12.24,12.24,0,0,1,.9,2.76h0l0,0.61-0.05.07a6.11,6.11,0,0,0-1.19,1.64,3.82,3.82,0,0,0-.8,1.9h0l-0.58,1.07-1.06-1.11a26.72,26.72,0,0,1-3-4.2,29.12,29.12,0,0,1-2.27-4.62Z"/><circle class="cls-1" cx="1020.81" cy="285.64" r="20.01" transform="translate(562.59 1241.51) rotate(-80.02)"/><path d="M999.47,281.8l0.35-1.37c0.06-.23.1-0.46,0.21-0.76l0.35-1c0.13-.35.25-0.74,0.42-1.12l0.57-1.19a20.92,20.92,0,0,1,3.85-5.39,21.18,21.18,0,0,1,7.05-4.74,21.66,21.66,0,0,1,9.81-1.48c0.44,0,.88.11,1.32,0.17a12.83,12.83,0,0,1,1.35.23,20.56,20.56,0,0,1,2.57.74,20.16,20.16,0,0,1,5,2.57,22.45,22.45,0,0,1,4.23,3.91,23.35,23.35,0,0,1,3.07,5A21,21,0,0,1,1041,289.2a23.58,23.58,0,0,1-1.85,5.74,23,23,0,0,1-3.39,5,22.35,22.35,0,0,1-4.59,3.77,21.78,21.78,0,0,1-5.36,2.29,21.15,21.15,0,0,1-19.86-4.81,21.83,21.83,0,0,1-5-7,20.43,20.43,0,0,1-1.77-6.45l-0.1-1.32c0-.42,0-0.81,0-1.17a12.74,12.74,0,0,1,.14-1.83l0.22-1.51Zm3.28,0.66-0.13,1.29a10,10,0,0,0-.06,1.55c0,0.3,0,.63,0,1l0.09,1.11a18.51,18.51,0,0,0,1.28,5.51,18.77,18.77,0,0,0,4.06,6.16,19.64,19.64,0,0,0,7.45,4.59c0.36,0.14.81,0.22,1.21,0.33l0.62,0.16,0.31,0.08,0.25,0a18.48,18.48,0,0,0,2.47.29,18.06,18.06,0,0,0,5.12-.4,20,20,0,0,0,5-1.88,20.88,20.88,0,0,0,4.41-3.31,19.9,19.9,0,0,0,3.32-4.55A20.57,20.57,0,0,0,1040,289a21.55,21.55,0,0,0,.18-5.71,20.5,20.5,0,0,0-1.51-5.46,20,20,0,0,0-3-4.71,19.45,19.45,0,0,0-4.09-3.56,18.79,18.79,0,0,0-4.72-2.16,19.09,19.09,0,0,0-2.5-.6c-0.76-.12-1.62-0.2-2.41-0.24a18.84,18.84,0,0,0-14.72,6.33,18,18,0,0,0-3.09,4.81l-0.44,1c-0.12.32-.2,0.63-0.29,0.91l-0.24.77c-0.07.24-.11,0.52-0.16,0.74l-0.28,1.38Z"/><path class="cls-2" d="M1005.53,287.33c0.35-.36,5.79-0.53,5.79-0.53l4.74,4.64-1.47,8.35Z"/><path d="M1005.07,286.63a2,2,0,0,1,.21-0.11,2.6,2.6,0,0,1,.4-0.13l0.42-.08,0.76-.09,1.48-.12c1-.06,2-0.11,2.94-0.14h0.35l0.26,0.25,2.39,2.3c0.8,0.77,1.62,1.51,2.42,2.27h0l0.35,0.36-0.09.51-1.78,8.36H1015v1.78l-1.29-1.5a60.58,60.58,0,0,1-8.91-12.46l-0.42-.86Zm2.06,1.24a57.85,57.85,0,0,1,4,4.89,52,52,0,0,1,4.12,6.53l-1.5.35h0l1.37-8.36,0.27,0.83h0c-0.77-.79-1.54-1.59-2.32-2.37l-2.35-2.34,0.61,0.24h0c-1,0-1.93.08-2.89,0.14Z"/><circle class="cls-1" cx="1069.39" cy="311.26" r="14.41"/><path d="M1053.23,311.17l0.09-1c0-.17,0-0.33.06-0.57l0.14-.77c0.05-.28.1-0.58,0.17-0.89L1054,307a15.55,15.55,0,0,1,2.17-4.42,15.61,15.61,0,0,1,11.52-6.62c0.66,0,1.27-.06,2,0a15.37,15.37,0,0,1,1.94.23,14.77,14.77,0,0,1,3.94,1.26,15.74,15.74,0,0,1,3.51,2.34,16.09,16.09,0,0,1,2.75,3.28,17,17,0,0,1,2.51,8.23,16.44,16.44,0,0,1-.5,4.36,16.13,16.13,0,0,1-1.74,4,16.89,16.89,0,0,1-2.8,3.36,16.09,16.09,0,0,1-3.58,2.42,15.69,15.69,0,0,1-15.22-.82,16.38,16.38,0,0,1-4.67-4.46,14,14,0,0,1-2.09-4.57,12.37,12.37,0,0,1-.34-1.83,9.65,9.65,0,0,1-.12-1.37l0-1.14v-0.09Zm3.51,0.09,0.08,0.89a6.75,6.75,0,0,0,.16,1.06,8.92,8.92,0,0,0,.35,1.39,14.77,14.77,0,0,0,1.56,3.54,12.86,12.86,0,0,0,3.42,3.72,13.22,13.22,0,0,0,2.57,1.42,13.4,13.4,0,0,0,3,.87c0.25,0.06.59,0.06,0.89,0.1l0.46,0,0.23,0h0.15a12.79,12.79,0,0,0,1.72-.07,12.94,12.94,0,0,0,3.47-.83,14,14,0,0,0,3.26-1.84,14.24,14.24,0,0,0,2.7-2.78,14.71,14.71,0,0,0,1.83-3.54,15.21,15.21,0,0,0,.74-4,15,15,0,0,0-.51-4.06,13.33,13.33,0,0,0-1.79-3.65,15,15,0,0,0-2.75-2.87,14.38,14.38,0,0,0-3.33-1.91,13.22,13.22,0,0,0-3.54-.88,13.72,13.72,0,0,0-1.83-.09c-0.51,0-1.14.08-1.68,0.15a13.54,13.54,0,0,0-5.79,2.37,13.27,13.27,0,0,0-3.52,3.85,12.46,12.46,0,0,0-1.49,3.68l-0.16.76c0,0.23,0,.44-0.08.64l-0.07.54c0,0.17,0,.38,0,0.54v0.93Z"/><path class="cls-2" d="M1060.64,311.44l6.67,7.78,1.67-3.89-2.5-5.28S1059.53,308.38,1060.64,311.44Z"/><path d="M1061.22,310.85l0.05,0a29,29,0,0,1,3.65,3.62,26.5,26.5,0,0,1,3,4.16l-1.4.21h0a9.89,9.89,0,0,0,1.05-1.85,6.75,6.75,0,0,0,.62-2v0.68h0a17.88,17.88,0,0,0-1.07-2.72c-0.22-.43-0.43-0.87-0.67-1.3a14,14,0,0,0-.76-1.18l0.56,0.53h0a10.19,10.19,0,0,1-1.64-.77,6.52,6.52,0,0,0-1.74-.22,2.9,2.9,0,0,0-1.54.35,0.34,0.34,0,0,0-.2.36A0.66,0.66,0,0,0,1061.22,310.85Zm-1.37.86a2.75,2.75,0,0,1,.1-1.33,1.63,1.63,0,0,1,.42-0.6,2.05,2.05,0,0,1,.54-0.32,3.85,3.85,0,0,1,1-.22c0.33,0,.64,0,1,0l1.86,0.08a14.83,14.83,0,0,0,1.91-.05h0l0.48,0.18,0.08,0.28c0.14,0.47.31,0.93,0.49,1.38s0.53,0.89.72,1.34A5.66,5.66,0,0,0,1070,315h0l-0.05.6-0.14.08a7,7,0,0,0-1.12,1.85,5.77,5.77,0,0,0-.69,2h0l-0.2,1.13-1.14-.92a26.44,26.44,0,0,1-3.64-3.62,29,29,0,0,1-3-4.16Z"/><circle class="cls-1" cx="1171.39" cy="284.26" r="14.41"/><path d="M1155.23,284.17l0.09-1c0-.17,0-0.33.06-0.57l0.14-.77c0.05-.28.1-0.58,0.17-0.89L1156,280a15.55,15.55,0,0,1,2.17-4.42,15.61,15.61,0,0,1,11.52-6.62c0.66,0,1.27-.06,2,0a15.37,15.37,0,0,1,1.94.23,14.77,14.77,0,0,1,3.94,1.26,15.74,15.74,0,0,1,3.51,2.34,16.09,16.09,0,0,1,2.75,3.28,17,17,0,0,1,2.51,8.23,16.44,16.44,0,0,1-.5,4.36,16.13,16.13,0,0,1-1.74,4,16.89,16.89,0,0,1-2.8,3.36,16.09,16.09,0,0,1-3.58,2.42,15.69,15.69,0,0,1-15.22-.82,16.38,16.38,0,0,1-4.67-4.46,14,14,0,0,1-2.09-4.57,12.37,12.37,0,0,1-.34-1.83,9.65,9.65,0,0,1-.12-1.37l0-1.14v-0.09Zm3.51,0.09,0.08,0.89a6.75,6.75,0,0,0,.16,1.06,8.92,8.92,0,0,0,.35,1.39,14.77,14.77,0,0,0,1.56,3.54,12.86,12.86,0,0,0,3.42,3.72,13.22,13.22,0,0,0,2.57,1.42,13.4,13.4,0,0,0,3,.87c0.25,0.06.59,0.06,0.89,0.1l0.46,0,0.23,0h0.15a12.79,12.79,0,0,0,1.72-.07,12.94,12.94,0,0,0,3.47-.83,14,14,0,0,0,3.26-1.84,14.24,14.24,0,0,0,2.7-2.78,14.71,14.71,0,0,0,1.83-3.54,15.21,15.21,0,0,0,.74-4,15,15,0,0,0-.51-4.06,13.33,13.33,0,0,0-1.79-3.65,15,15,0,0,0-2.75-2.87,14.38,14.38,0,0,0-3.33-1.91,13.22,13.22,0,0,0-3.54-.88,13.72,13.72,0,0,0-1.83-.09c-0.51,0-1.14.08-1.68,0.15a13.54,13.54,0,0,0-5.79,2.37,13.27,13.27,0,0,0-3.52,3.85,12.46,12.46,0,0,0-1.49,3.68l-0.16.76c0,0.23,0,.44-0.08.64l-0.07.54c0,0.17,0,.38,0,0.54v0.93Z"/><path class="cls-2" d="M1162.64,284.44l6.67,7.78,1.67-3.89-2.5-5.28S1161.53,281.38,1162.64,284.44Z"/><path d="M1163.22,283.85l0.05,0a29,29,0,0,1,3.65,3.62,26.5,26.5,0,0,1,3,4.16l-1.4.21h0a9.89,9.89,0,0,0,1.05-1.85,6.75,6.75,0,0,0,.62-2v0.68h0a17.88,17.88,0,0,0-1.07-2.72c-0.22-.43-0.43-0.87-0.67-1.3a14,14,0,0,0-.76-1.18l0.56,0.53h0a10.19,10.19,0,0,1-1.64-.77,6.52,6.52,0,0,0-1.74-.22,2.9,2.9,0,0,0-1.54.35,0.34,0.34,0,0,0-.2.36A0.66,0.66,0,0,0,1163.22,283.85Zm-1.37.86a2.75,2.75,0,0,1,.1-1.33,1.63,1.63,0,0,1,.42-0.6,2.05,2.05,0,0,1,.54-0.32,3.85,3.85,0,0,1,1-.22c0.33,0,.64,0,1,0l1.86,0.08a14.83,14.83,0,0,0,1.91-.05h0l0.48,0.18,0.08,0.28c0.14,0.47.31,0.93,0.49,1.38s0.53,0.89.72,1.34A5.66,5.66,0,0,0,1172,288h0l-0.05.6-0.14.08a7,7,0,0,0-1.12,1.85,5.77,5.77,0,0,0-.69,2h0l-0.2,1.13-1.14-.92a26.44,26.44,0,0,1-3.64-3.62,29,29,0,0,1-3-4.16Z"/><circle class="cls-1" cx="1140.91" cy="329.34" r="20.01"/><path d="M1119.23,329.26l0.11-1.41c0-.24,0-0.47.07-0.78l0.17-1c0.07-.37.12-0.77,0.22-1.18l0.35-1.27a20.91,20.91,0,0,1,2.86-6,21.18,21.18,0,0,1,6.13-5.89,21.66,21.66,0,0,1,9.4-3.16c0.44-.06.88,0,1.33-0.06a12.91,12.91,0,0,1,1.37,0,20.59,20.59,0,0,1,2.66.29,20.15,20.15,0,0,1,5.37,1.67,22.45,22.45,0,0,1,4.85,3.11A23.35,23.35,0,0,1,1158,318a21,21,0,0,1,3.44,11.35,23.58,23.58,0,0,1-.83,6,23,23,0,0,1-2.48,5.47,22.33,22.33,0,0,1-3.87,4.51,21.77,21.77,0,0,1-4.88,3.18,21.15,21.15,0,0,1-20.4-1.3,21.83,21.83,0,0,1-6.16-6,20.42,20.42,0,0,1-2.86-6l-0.33-1.28c-0.09-.41-0.13-0.79-0.18-1.15a12.74,12.74,0,0,1-.18-1.83l-0.05-1.53v-0.08Zm3.34,0.08,0.09,1.29a10,10,0,0,0,.21,1.54c0.06,0.3.09,0.63,0.17,1l0.28,1.08a18.52,18.52,0,0,0,2.22,5.2,18.77,18.77,0,0,0,5.07,5.37,19.64,19.64,0,0,0,8.13,3.23c0.38,0.07.83,0.08,1.25,0.12l0.64,0,0.32,0h0.25a18.46,18.46,0,0,0,2.48-.14,18.05,18.05,0,0,0,5-1.28,20,20,0,0,0,4.6-2.72,20.88,20.88,0,0,0,3.77-4,19.91,19.91,0,0,0,2.48-5.06,20.57,20.57,0,0,0,.89-5.63,21.54,21.54,0,0,0-.81-5.65,20.49,20.49,0,0,0-2.43-5.12,20,20,0,0,0-3.75-4.12,19.45,19.45,0,0,0-4.64-2.79,18.79,18.79,0,0,0-5-1.31,19.08,19.08,0,0,0-2.57-.16c-0.77,0-1.63.09-2.42,0.18a18.84,18.84,0,0,0-13.4,8.78,18,18,0,0,0-2.21,5.27l-0.25,1.09c-0.07.34-.08,0.65-0.13,0.94l-0.11.81c0,0.25,0,.53,0,0.75l0,1.41v-0.08Z"/><path class="cls-2" d="M1126,333.65c0.28-.42,5.55-1.53,5.55-1.53l5.41,3.75v8.48Z"/><path d="M1125.58,333a2,2,0,0,1,.19-0.14,2.62,2.62,0,0,1,.37-0.2l0.4-.15,0.74-.22,1.44-.37c1-.23,1.91-0.45,2.87-0.65h0l0.34-.07,0.3,0.2,2.75,1.86c0.92,0.62,1.85,1.21,2.78,1.81h0l0.41,0.29v0.48l-0.1,8.48h0l0.28,1.79-1.7-1.19a58.76,58.76,0,0,1-11.09-10.7l-0.59-.77Zm2.24,0.87a57.8,57.8,0,0,1,4.8,4.13,52,52,0,0,1,5.19,5.71l-1.41.6h0l-0.1-8.48,0.41,0.77h0c-0.9-.64-1.79-1.3-2.7-1.94l-2.72-1.9,0.64,0.13h0c-0.94.2-1.89,0.41-2.82,0.64Z"/><circle class="cls-1" cx="817.73" cy="403.84" r="13.39"/><path d="M802.71,403.76l0.08-.94a9.86,9.86,0,0,1,.18-1.25,11.21,11.21,0,0,1,.42-1.7,14.43,14.43,0,0,1,2-4.11,14.5,14.5,0,0,1,10.7-6.15c0.62,0,1.18-.05,1.86,0a14.28,14.28,0,0,1,1.8.21,13.72,13.72,0,0,1,3.66,1.17,14.62,14.62,0,0,1,3.26,2.18,15,15,0,0,1,2.55,3,15.74,15.74,0,0,1,2.33,7.66,15.24,15.24,0,0,1-.46,4,15,15,0,0,1-1.62,3.75,15.7,15.7,0,0,1-2.6,3.12,14.93,14.93,0,0,1-3.32,2.25,14.57,14.57,0,0,1-14.14-.76,15.21,15.21,0,0,1-4.33-4.14,13,13,0,0,1-1.94-4.24,11.49,11.49,0,0,1-.31-1.7,9,9,0,0,1-.11-1.27l0-1.06v-0.08Zm3.26,0.08,0.07,0.83a6.24,6.24,0,0,0,.15,1,8.31,8.31,0,0,0,.33,1.3,13.72,13.72,0,0,0,1.45,3.29,12,12,0,0,0,3.18,3.46,12.74,12.74,0,0,0,5.15,2.13c0.23,0.05.55,0.06,0.83,0.09l0.43,0,0.22,0h0.13a11.87,11.87,0,0,0,1.6-.07,12,12,0,0,0,3.23-.77,13,13,0,0,0,3-1.71,13.22,13.22,0,0,0,2.51-2.59,13.67,13.67,0,0,0,1.7-3.29,12.3,12.3,0,0,0,.21-7.48,12.38,12.38,0,0,0-1.66-3.39A14,14,0,0,0,826,394a13.36,13.36,0,0,0-3.09-1.78,12.28,12.28,0,0,0-3.29-.82,12.77,12.77,0,0,0-1.7-.08c-0.48,0-1.06.07-1.56,0.14a12.57,12.57,0,0,0-5.38,2.2,12.32,12.32,0,0,0-3.27,3.58,11.57,11.57,0,0,0-1.38,3.42,8.2,8.2,0,0,0-.22,1.3l-0.06.51c0,0.16,0,.35,0,0.5v0.86Z"/><circle class="cls-1" cx="847.92" cy="572.03" r="18.58"/><path d="M827.79,571.95l0.1-1.31c0-.22,0-0.44.07-0.73l0.16-1c0.06-.34.11-0.72,0.21-1.09l0.33-1.18a19.42,19.42,0,0,1,2.66-5.55,19.67,19.67,0,0,1,5.69-5.47,20.12,20.12,0,0,1,8.73-2.93c0.83-.05,1.62-0.09,2.51-0.06a19.1,19.1,0,0,1,2.47.26,18.72,18.72,0,0,1,5,1.55,20.84,20.84,0,0,1,4.5,2.89,21.69,21.69,0,0,1,3.61,4.1A19.49,19.49,0,0,1,867,572.05a21.93,21.93,0,0,1-.77,5.52,21.36,21.36,0,0,1-2.31,5.08,20.75,20.75,0,0,1-3.59,4.19,20.23,20.23,0,0,1-4.54,3,19.64,19.64,0,0,1-18.94-1.2,20.28,20.28,0,0,1-5.72-5.56,18.6,18.6,0,0,1-2.65-5.62l-0.31-1.19c-0.08-.38-0.13-0.74-0.18-1.07a11.83,11.83,0,0,1-.17-1.7l0-1.42v-0.08Zm3.11,0.08,0.09,1.2a9.25,9.25,0,0,0,.19,1.43c0.06,0.28.08,0.58,0.15,0.9l0.25,1a17.64,17.64,0,0,0,2.07,4.83,17.43,17.43,0,0,0,4.71,5,18.24,18.24,0,0,0,7.55,3c0.35,0.07.77,0.07,1.16,0.11l0.6,0,0.3,0h0.23a17.16,17.16,0,0,0,2.3-.13,16.77,16.77,0,0,0,4.62-1.19,18.62,18.62,0,0,0,4.28-2.53,19.38,19.38,0,0,0,3.5-3.74,18.49,18.49,0,0,0,2.3-4.7A19.08,19.08,0,0,0,866,572a20.09,20.09,0,0,0-.76-5.22A19,19,0,0,0,863,562a18.57,18.57,0,0,0-3.48-3.83,18.08,18.08,0,0,0-4.31-2.6,17.45,17.45,0,0,0-4.66-1.22,17.73,17.73,0,0,0-2.39-.14c-0.71,0-1.51.08-2.24,0.16a17.5,17.5,0,0,0-12.45,8.16,16.69,16.69,0,0,0-2.06,4.9l-0.23,1c-0.06.32-.08,0.6-0.12,0.88l-0.1.75c0,0.23,0,.49,0,0.7l0,1.31V572Z"/><circle class="cls-1" cx="918.51" cy="431.49" r="59.62"/><path d="M857.32,431.45l0-1.07c0-.72,0-1.73.17-3.17a58.24,58.24,0,0,1,2.15-12,60.28,60.28,0,0,1,7.9-17.08,60.73,60.73,0,0,1,29.63-23.35,60.35,60.35,0,0,1,14.46-3.35c1.27-.15,2.55-0.2,3.84-0.29s2.58-.09,3.91,0l1.94,0.06c0.65,0,1.32.1,2,.15,1.33,0.08,2.64.29,4,.47a61,61,0,0,1,15.64,4.59,60.26,60.26,0,0,1,14.26,8.95,62.7,62.7,0,0,1,11.5,12.85,60.22,60.22,0,0,1,10.14,33.31,67.84,67.84,0,0,1-.62,8.85,62.56,62.56,0,0,1-1.88,8.66,60.65,60.65,0,0,1-33.21,38c-1.26.61-2.58,1.08-3.86,1.6s-2.61.94-3.94,1.29a60.14,60.14,0,0,1-8,1.78c-1.34.17-2.66,0.38-4,.47s-2.65.18-4,.22l-1,0-1,0-1.92,0c-1.3-.09-2.63-0.14-3.9-0.3a60.86,60.86,0,0,1-14.58-3.4,62.38,62.38,0,0,1-12.51-6.32,60.54,60.54,0,0,1-17.28-17.29,59.23,59.23,0,0,1-7.78-17.24,58.44,58.44,0,0,1-2-12c-0.13-1.4-.09-2.48-0.12-3.21l0-1.1v0Zm3.14,0,0,1c0,0.69,0,1.72.15,3a55.21,55.21,0,0,0,2,11.37A58.68,58.68,0,0,0,870,463.23a58.46,58.46,0,0,0,28,22.7,58,58,0,0,0,13.85,3.43c1.22,0.16,2.43.22,3.66,0.33l1.92,0.06,1,0h0.91c1.26,0,2.53,0,3.81-.15s2.55-.25,3.83-0.39a57.7,57.7,0,0,0,7.67-1.61c1.28-.32,2.53-0.78,3.8-1.19s2.51-.91,3.73-1.49a58.58,58.58,0,0,0,.2-107.35c-1.23-.58-2.51-1-3.76-1.52s-2.53-.89-3.82-1.22a55,55,0,0,0-7.73-1.64c-1.3-.15-2.58-0.34-3.86-0.39-0.64,0-1.27-.1-1.92-0.12l-1.94,0c-1.26,0-2.53.06-3.79,0.08s-2.5.17-3.73,0.34a58.54,58.54,0,0,0-14,3.47,59.85,59.85,0,0,0-11.9,6.24,59,59,0,0,0-16.28,16.72A57.56,57.56,0,0,0,862.44,416a55.36,55.36,0,0,0-1.85,11.4c-0.12,1.29-.08,2.39-0.11,3.09l0,1.07v0Z"/><circle class="cls-1" cx="795.66" cy="496.53" r="48.26"/><path d="M745.82,496.45l0.2-3.4c0-.56,0-1.16.14-1.87l0.36-2.31c0.14-.83.25-1.74,0.46-2.67l0.77-2.93a48.36,48.36,0,0,1,6.4-13.93,49.26,49.26,0,0,1,35.93-21.82c1-.15,2.08-0.12,3.13-0.19l1.58-.07,0.8,0c0.37,0,.55,0,0.83,0a50.71,50.71,0,0,1,19.14,4.35l3.06,1.5c1,0.51,2,1.18,2.94,1.76L823,455.8c0.47,0.33.92,0.69,1.38,1,0.91,0.71,1.86,1.37,2.74,2.13l2.57,2.37c0.21,0.2.43,0.39,0.64,0.6l0.58,0.65,1.17,1.31,1.18,1.31c0.39,0.44.71,0.93,1.07,1.4,0.69,1,1.44,1.87,2.09,2.86a49.62,49.62,0,0,1,8.22,27.07l-0.16,3.59a17.58,17.58,0,0,1-.12,1.78l-0.26,1.8-0.27,1.8-0.13.9-0.22.87-0.88,3.49a49.13,49.13,0,0,1-15.37,23.47c-0.88.76-1.84,1.42-2.76,2.13-0.46.35-.92,0.7-1.39,1l-1.47.9c-1,.58-1.93,1.24-3,1.75l-3.07,1.49a50.75,50.75,0,0,1-19.23,4.3c-0.29,0-.48,0-0.85,0l-0.78,0-1.55-.07c-1-.07-2,0-3.08-0.2a50.52,50.52,0,0,1-21.94-7.91,51.62,51.62,0,0,1-14-14,48.3,48.3,0,0,1-6.46-13.9l-0.79-2.93c-0.22-.93-0.3-1.82-0.45-2.64L746.13,502c-0.1-.7-0.09-1.34-0.13-1.91l-0.18-3.51v-0.08Zm3.16,0.08,0.16,3.29c0,0.54,0,1.14.12,1.79l0.32,2.14c0.13,0.77.22,1.6,0.4,2.48l0.68,2.76a45.53,45.53,0,0,0,5.78,13.23,46.43,46.43,0,0,0,13.09,13.43l2.24,1.37a19.69,19.69,0,0,0,2.33,1.32,41.36,41.36,0,0,0,5,2.24c0.88,0.32,1.76.66,2.65,1l2.78,0.73,1.41,0.37c0.47,0.12,1,.16,1.43.25l2.89,0.46c1,0.16,2,.14,3,0.22l1.55,0.09,0.78,0,0.71,0a48.68,48.68,0,0,0,18.45-4l3-1.41c1-.48,1.89-1.11,2.85-1.66l1.42-.86c0.45-.32.89-0.66,1.34-1,0.88-.68,1.82-1.3,2.67-2a47.38,47.38,0,0,0,15-22.51l0.88-3.37,0.22-.84,0.13-.85,0.27-1.71,0.27-1.71A17.11,17.11,0,0,0,843,500l0.19-3.51a52.5,52.5,0,0,0-2-13.79,46.85,46.85,0,0,0-15-22.6c-0.86-.72-1.8-1.35-2.69-2-0.45-.33-0.89-0.67-1.35-1l-1.43-.85c-1-.55-1.88-1.18-2.87-1.66l-3-1.4a48.77,48.77,0,0,0-18.54-3.89c-0.24,0-.58,0-0.73,0l-0.76,0-1.52.09c-1,.08-2,0.06-3,0.23a48.44,48.44,0,0,0-20.77,7.77,47.66,47.66,0,0,0-13.08,13.41,45.48,45.48,0,0,0-5.84,13.2l-0.69,2.76c-0.18.87-.26,1.69-0.38,2.44l-0.31,2.1c-0.09.64-.07,1.29-0.11,1.84l-0.15,3.4v-0.08Z"/><circle class="cls-3" cx="513.82" cy="431.1" r="95.7"/><path class="cls-4" d="M680.82,368.39S725.06,455,743,459s13.42-34.07,4.39-68.52S724,308.77,714.75,296.38,685.83,270.83,667.38,267Z"/><path d="M681.57,368.14q5.12,9.38,10.4,18.69c3.57,6.22,7.12,12.44,10.81,18.58s7.48,12.22,11.34,18.23,7.89,11.93,12.2,17.58c2.15,2.83,4.39,5.58,6.76,8.18a39.13,39.13,0,0,0,7.68,6.78,10.18,10.18,0,0,0,2.07,1l0.5,0.15,0.54,0.09,0.66,0.11,0.33,0.05h0.25c0.34,0,.66,0,1,0s0.71-.08,1-0.18,0.66-.2,1-0.36a7.68,7.68,0,0,0,.87-0.54,8.79,8.79,0,0,0,2.62-3.61A24,24,0,0,0,753,448a55.86,55.86,0,0,0,.66-10.41c-0.06-3.52-.34-7.06-0.72-10.59-0.78-7.06-2-14.09-3.49-21.08s-3.22-13.89-5.08-20.84-3.77-13.82-5.73-20.72-4-13.76-6.15-20.6-4.37-13.64-6.78-20.37a202,202,0,0,0-8.1-19.78c-0.37-.81-0.82-1.55-1.23-2.34a25.68,25.68,0,0,0-1.3-2.27c-0.47-.71-0.94-1.48-1.41-2.14L712,294.81a71.53,71.53,0,0,0-7.41-7.5,93.37,93.37,0,0,0-27.18-16.51,77.7,77.7,0,0,0-10.17-3.1h0l0.93-.86Zm-1.5.47L666.61,267.06l-0.15-1.12,1.07,0.26h0a79.3,79.3,0,0,1,10.46,3,95.31,95.31,0,0,1,28,16.44,73.31,73.31,0,0,1,7.82,7.69l1.7,2.09c0.59,0.79,1.06,1.55,1.6,2.33a25.56,25.56,0,0,1,1.4,2.38c0.43,0.81.92,1.59,1.3,2.41a204.19,204.19,0,0,1,8.39,20c2.49,6.76,4.77,13.58,7,20.42s4.3,13.72,6.35,20.61,4,13.82,5.85,20.76,3.69,13.93,5.18,21,2.78,14.17,3.6,21.38c0.41,3.6.7,7.23,0.77,10.88a59,59,0,0,1-.68,11.05,27.17,27.17,0,0,1-1.56,5.54,12.07,12.07,0,0,1-3.67,5,10.77,10.77,0,0,1-1.41.87,12.36,12.36,0,0,1-1.55.59,14.51,14.51,0,0,1-1.61.29,13.06,13.06,0,0,1-1.68,0h-0.42l-0.33-.05-0.66-.1-0.33-.05-0.17,0h-0.08l-0.2,0-0.79-.22a13.48,13.48,0,0,1-2.78-1.31,41,41,0,0,1-8.4-7.43c-2.45-2.72-4.72-5.56-6.9-8.45-4.35-5.79-8.36-11.79-12.23-17.87S704,413,700.39,406.81,693.3,394.29,690,387.93s-6.68-12.72-9.83-19.19Z"/><path class="cls-4" d="M521.56,287.47S504.65,246,502.07,197.66s4.39-68.52,7.1-73.94,10.07-13.16,19-4.65,49.17,56.14,55,67S604,223.59,610,237.92c0,0,4.49,13.55,8,22.07Z"/><path d="M520.84,287.76c-2.67-6.52-4.92-13.16-7-19.87s-3.91-13.48-5.55-20.31c-0.75-3.43-1.59-6.84-2.24-10.29l-1-5.17-0.89-5.19c-0.64-3.45-1-6.95-1.56-10.42s-0.81-7-1.16-10.48L501,200.77c-0.14-1.74-.27-3.52-0.33-5.27-0.16-3.49-.34-7-0.4-10.51q-0.31-10.55.16-21.09a188.18,188.18,0,0,1,2-21c0.52-3.5,1.24-7,2.11-10.42,0.45-1.72.95-3.44,1.54-5.14a32.37,32.37,0,0,1,2.15-5,20.48,20.48,0,0,1,3.4-4.53,14,14,0,0,1,4.84-3.25,10.21,10.21,0,0,1,6-.41,13.44,13.44,0,0,1,5.21,2.66l1.08,0.92,0.27,0.23,0.07,0.06,0.09,0.08,0.12,0.12,0.46,0.47c0.61,0.63,1.24,1.22,1.84,1.88,1.22,1.3,2.44,2.59,3.61,3.9,2.37,2.6,4.69,5.23,7,7.87q6.93,7.92,13.66,16t13.33,16.26c4.37,5.5,8.71,11,12.75,16.83a51.61,51.61,0,0,1,2.85,4.59l2.49,4.61,5,9.24c3.31,6.17,6.61,12.35,9.81,18.59s6.24,12.57,9,19.09l0,0.05v0c1.2,3.7,2.39,7.43,3.64,11.12s2.53,7.38,3.9,11h0L619,260.5l-0.81.23-97.07,27.68Zm1.21-1.23,95.7-27.29-0.5,1h0c-1.57-3.6-3-7.26-4.38-10.92s-2.74-7.33-4-11l0,0.09c-2.8-6.34-6-12.54-9.3-18.7s-6.58-12.32-9.95-18.45L584.56,192,582,187.43a48,48,0,0,0-2.68-4.32c-3.91-5.68-8.25-11.18-12.57-16.65s-8.78-10.87-13.25-16.23-9-10.69-13.59-16c-2.29-2.63-4.6-5.26-6.94-7.83-1.17-1.31-2.34-2.55-3.51-3.81-0.57-.63-1.22-1.25-1.83-1.87l-0.46-.47-0.12-.12,0,0-0.06,0-0.23-.2-0.91-.78a10.48,10.48,0,0,0-4-2.1,7.17,7.17,0,0,0-4.26.29c-2.77,1.06-5.13,3.63-6.68,6.39a45,45,0,0,0-3.46,9.51c-0.85,3.33-1.59,6.71-2.12,10.13a185.43,185.43,0,0,0-2.1,20.72c-0.34,6.95-.45,13.93-0.29,20.89,0,3.47.19,7,.33,10.47,0.05,1.76.17,3.46,0.29,5.21l0.36,5.21c0.32,3.47.67,6.93,1.08,10.39s0.87,6.92,1.48,10.35l0.85,5.16,1,5.14c0.62,3.43,1.43,6.82,2.15,10.24,1.6,6.79,3.31,13.55,5.28,20.25,1,3.35,2,6.68,3.12,10C519.84,280.41,520.91,283.49,522,286.53Z"/><path class="cls-4" d="M534.72,533.15s-2.32,21.26,5.23,29.2,20.07,11.24,31.17,10.19c12.92-1.22,24-5.55,28.26-13.87a48.77,48.77,0,0,0,3.29-16.45s-4.26,22.84,12.58,28.65,38.13,3.16,48.39-14.39c0,0,5-8.58,11.23-13.36s22.07-14.2,27.87-22.84,13.94-17.81,17.94-39.88,4.26-33.17,4-37.81c0,0-9.16-14.48-13.81-21.89s-30.06-52.32-30.06-52.32S661,392,611.42,394.7l-56.47-59.3,3.4,18.66s5,39.1-3.48,55.75-50.33,73.56-52.65,80.91-10.44,23.53-5.55,34.59Z"/><path class="cls-2" d="M869.47,415.1s36.39,9,39.23,10.07l9.81,20.65-18.32,35.62S862,469,869.47,415.1Z"/><path d="M868.83,414.17l5.78,1.25,4.93,1.14c3.29,0.77,6.56,1.6,9.84,2.4s6.54,1.68,9.8,2.57l4.88,1.36c1.63,0.5,3.22.92,4.9,1.54l0.31,0.11,0.12,0.28h0c1.53,3.49,3.14,6.94,4.76,10.39l2.47,5.15q1.26,2.56,2.57,5.11l0.06,0.32-0.28.37h0c-1,2.89-3.16,5.83-4.75,8.77s-3.07,5.9-4.56,8.89-3,5.94-4.47,8.95-2.93,6-4.35,9l-0.27.5-0.65-.28h0c-1.67,0-3.2-1.08-4.72-1.83a45,45,0,0,1-4.4-2.44,49.92,49.92,0,0,1-4.09-3c-1.32-1.05-2.58-2.18-3.79-3.36-0.6-.6-1.16-1.23-1.74-1.84s-1.1-1.29-1.65-1.93c-1.06-1.32-2.07-2.68-3-4.1-0.49-.69-0.9-1.44-1.34-2.15s-0.85-1.46-1.24-2.22c-0.8-1.49-1.46-3.05-2.12-4.61L871,452.2c-0.29-.79-0.52-1.61-0.78-2.41l-0.38-1.21-0.31-1.23c-0.2-.82-0.43-1.63-0.61-2.45-0.3-1.65-.69-3.3-0.87-5l-0.3-2.5-0.18-2.51c-0.16-1.67-.11-3.35-0.16-5s0.08-3.34.15-5l0.46-5Zm1.34,1.93-0.33,4L869.64,425c0,1.63,0,3.26,0,4.88s0.11,3.25.31,4.86l0.25,2.42,0.37,2.4c0.21,1.61.59,3.18,0.89,4.76,0.18,0.79.41,1.56,0.6,2.34l0.31,1.17,0.37,1.15c0.26,0.76.48,1.54,0.77,2.29l0.88,2.25c0.65,1.47,1.28,2.95,2.06,4.35,0.36,0.72.73,1.43,1.15,2.11s0.78,1.4,1.24,2.06c0.86,1.35,1.8,2.65,2.78,3.92,0.51,0.62,1,1.25,1.54,1.85s1.07,1.2,1.63,1.77c1.11,1.16,2.25,2.29,3.47,3.34a47.81,47.81,0,0,0,3.78,3c1.32,0.92,2.66,2,4.05,2.79s2.86,1.3,4.29,2.3h0l-0.93.23c1.64-2.91,3.23-5.92,4.8-8.87s3.11-5.94,4.66-8.9,3.12-6,4.64-8.94,2.4-6,4.4-9.05h0l-0.1.68c-0.76-1.75-1.58-3.49-2.38-5.22L913.07,436c-1.65-3.44-3.31-7-5.06-10h0l0.43,0.15c-1.53-.41-3.23-0.93-4.85-1.32l-4.92-1.25-9.83-2.46c-3.26-.85-6.54-1.69-9.8-2.56l-4.89-1.32Z"/><path class="cls-2" d="M809.6,404l6.19,7.23,1.55-3.61-2.32-4.9S808.56,401.17,809.6,404Z"/><path d="M810.14,403.46l0,0a27,27,0,0,1,3.39,3.36,24.6,24.6,0,0,1,2.8,3.86l-1.3.2h0a9.19,9.19,0,0,0,1-1.72,6.28,6.28,0,0,0,.57-1.89v0.64h0a17.35,17.35,0,0,0-1-2.53,23,23,0,0,0-1.32-2.61l0.52,0.19h0a7,7,0,0,1-1.52-.41,5.93,5.93,0,0,0-1.61-.06,2.71,2.71,0,0,0-1.43.4,0.36,0.36,0,0,0-.19.38A0.86,0.86,0,0,0,810.14,403.46Zm-1.27.8A2.55,2.55,0,0,1,809,403a1.51,1.51,0,0,1,.39-0.56,1.91,1.91,0,0,1,.51-0.3,3.57,3.57,0,0,1,1-.2c0.3,0,.6,0,0.89,0l1.72,0.07a13.8,13.8,0,0,0,1.77,0h0l0.44,0.17,0.07,0.26a19.82,19.82,0,0,0,1,2.53c0.4,0.81,1.3,1.62,1.3,2.37h0l0.1,0.56-0.06.08a5.55,5.55,0,0,0-.72,1.72,4.93,4.93,0,0,0-.32,1.89h0l-0.47,1.05-1.21-.85a25.08,25.08,0,0,1-3.45-3.36,27.15,27.15,0,0,1-2.84-3.86Z"/><path class="cls-2" d="M782.75,487.5s2.45,15.23,12.9,19.87l-11.49,27.87s-31-10.19-29.94-42.33Z"/><path d="M783.52,487.37c0.17,1,.41,2,0.68,2.91s0.57,1.93.92,2.87c0.16,0.48.35,0.94,0.54,1.4s0.38,0.93.6,1.38,0.41,0.91.65,1.35l0.71,1.32,0.79,1.26a14.37,14.37,0,0,0,.86,1.21,11.43,11.43,0,0,0,.93,1.16c0.33,0.36.65,0.74,1,1.09l1.09,1a10,10,0,0,0,1.17.89,8.83,8.83,0,0,0,1.23,1L796,507h0l0.68,0.25-0.28.5c-1.1,2.27-2.11,4.52-3.12,6.82-0.5,1.15-1,2.29-1.47,3.45s-1,2.3-1.45,3.47c-0.93,2.33-1.9,4.65-2.79,7s-1.81,4.69-2.64,7.06l-0.23.65-0.73-.21h0a30.09,30.09,0,0,1-3.42-1.08c-1.11-.42-2.2-0.89-3.27-1.39a46.63,46.63,0,0,1-6.18-3.55c-1-.66-1.95-1.39-2.88-2.14s-1.85-1.52-2.71-2.36-1.7-1.7-2.51-2.59l-1.18-1.37-1.1-1.44c-0.7-1-1.4-2-2-3s-1.19-2.1-1.74-3.18-1-2.2-1.4-3.34-0.75-2.29-1.09-3.44-0.58-2.33-.74-3.52l-0.26-1.78c-0.07-.59-0.11-1.19-0.15-1.78-0.11-1.19-.32-2.38-0.31-3.56s0-2.37,0-3.54h0v-0.62l0.86-.12,29.4-5.57Zm-1.35,1-27.8,5.28,0.63-.74h0a28,28,0,0,0,.31,3.4c0.16,1.12.25,2.25,0.49,3.35,0.11,0.55.19,1.11,0.31,1.66l0.39,1.63c0.11,0.55.29,1.08,0.45,1.61s0.3,1.07.48,1.6c0.38,1,.74,2.09,1.2,3.1s0.93,2,1.41,3,1.07,1.94,1.67,2.86,1.23,1.84,1.88,2.73,1.36,1.75,2.09,2.58,1.48,1.66,2.28,2.43a53.45,53.45,0,0,0,5,4.44q1.32,1,2.71,2t2.82,1.87q1.43,0.91,2.92,1.73c1,0.55,2,1.09,3,1.56h0l-1,.44c1.08-2.27,2.1-4.57,3.1-6.87s2-4.63,2.95-6.94c0.5-1.15.95-2.33,1.42-3.49s0.94-2.33,1.4-3.5c0.9-2.35,1.8-4.73,2.62-7.11l0.4,1h0l-1.43-.71a8.76,8.76,0,0,1-1.35-.84,11.33,11.33,0,0,1-1.28-1l-1.19-1.07c-0.37-.38-0.71-0.78-1.07-1.18a12.62,12.62,0,0,1-1-1.24,15.61,15.61,0,0,1-.92-1.29l-0.84-1.34L785.53,498c-0.26-.46-0.45-0.94-0.68-1.41s-0.43-1-.62-1.44-0.4-1-.56-1.46q-0.54-1.47-1-3C782.49,489.94,782.33,489.17,782.17,488.4Z"/><path class="cls-2" d="M834.46,576c0.26-.39,5.33-1.42,5.33-1.42l5.21,3.48V586Z"/><path d="M833.69,575.46a1.85,1.85,0,0,1,.18-0.13,2.42,2.42,0,0,1,.34-0.19l0.37-.14,0.68-.21,1.34-.35c0.89-.22,1.77-0.41,2.67-0.6h0l0.32-.07,0.28,0.19c1.7,1.15,3.4,2.31,5.14,3.41h0l0.38,0.27v0.45L845.3,586l0.26,1.66L844,586.52a54.59,54.59,0,0,1-10.3-9.94l-0.54-.72Zm2.08,0.81a53.76,53.76,0,0,1,4.46,3.83,48.22,48.22,0,0,1,4.82,5.31l-1.31.56-0.09-7.87L844,578.8h0c-1.65-1.22-3.35-2.39-5-3.56l0.6,0.12h0c-0.87.18-1.75,0.38-2.62,0.59Z"/><path class="cls-1" d="M784.69,617.45s8.65-2.58,14.84-2.84c0,0,4.9-2.45,3.61-7.36s-3.74-8.13-3.36-11.49,3.1-7,5.42-7.87,7.1-1.81,10.58,1.68,7.48,8.9,7.61,10.32-0.26,13,0,15.1a23.59,23.59,0,0,0,4.52,10.45c3.1,4.13,1.94,11.87,1.94,11.87Z"/><path d="M784.43,616.58c2.46-.71,4.92-1.32,7.42-1.83a51.57,51.57,0,0,1,7.64-1l-0.37.1h0a6.45,6.45,0,0,0,3.27-3.78,5.17,5.17,0,0,0,0-2.52c-0.23-.93-0.5-1.83-0.82-2.74-0.62-1.82-1.46-3.59-2-5.56a9,9,0,0,1-.38-3.1,9.54,9.54,0,0,1,.76-3,12.13,12.13,0,0,1,3.68-4.85,6.48,6.48,0,0,1,1.39-.79,12.8,12.8,0,0,1,1.46-.45,12.23,12.23,0,0,1,3-.37,9.11,9.11,0,0,1,5.72,1.92,20.24,20.24,0,0,1,2.12,2.12c0.66,0.74,1.3,1.48,1.93,2.24a45.4,45.4,0,0,1,3.48,4.79,12.53,12.53,0,0,1,.72,1.33,3.4,3.4,0,0,1,.25.79,7.52,7.52,0,0,1,0,.76c0,1,0,2,0,3l-0.1,5.87,0,2.93a23.32,23.32,0,0,0,.12,2.89,21.58,21.58,0,0,0,1.71,5.52,26.82,26.82,0,0,0,3,5,10.17,10.17,0,0,1,.75,1.32,13.5,13.5,0,0,1,.53,1.41,17,17,0,0,1,.68,2.93,33.12,33.12,0,0,1,.36,6v0l-0.12,1.2-1.15-.51L782,617.27Zm3.07,1.12,42.72,18.8-1.27.7v0a20.4,20.4,0,0,0,.51-5.68A11.56,11.56,0,0,0,828,626a32.49,32.49,0,0,1-3-5.07,22.09,22.09,0,0,1-1.79-5.66,23.69,23.69,0,0,1-.14-3V609.4l0.06-5.87c0-1,0-2,0-2.92,0-.23,0-0.5,0-0.7a3,3,0,0,0-.2-0.6,12,12,0,0,0-.69-1.25,44.74,44.74,0,0,0-3.45-4.69c-0.62-.75-1.26-1.48-1.92-2.19a19.7,19.7,0,0,0-2.07-2,8.26,8.26,0,0,0-5.24-1.65,11.31,11.31,0,0,0-2.79.39,11.76,11.76,0,0,0-1.34.44,5.52,5.52,0,0,0-1.14.68,11.11,11.11,0,0,0-3.26,4.47,8.42,8.42,0,0,0-.62,2.66,7.69,7.69,0,0,0,.42,2.68c0.58,1.79,1.47,3.55,2.18,5.41,0.36,0.93.69,1.89,1,2.86a6.76,6.76,0,0,1,.07,3.29,7.11,7.11,0,0,1-1.51,2.93,9.4,9.4,0,0,1-2.52,2.08h0l-0.17.09h-0.2a49.87,49.87,0,0,0-7.35,1C790.64,616.86,789.07,617.29,787.51,617.69Z"/><path class="cls-2" d="M802.72,599a52.6,52.6,0,0,1,2.23,6.68c0.19,1.55,1.36,4.37,0,6.49s-0.64,3.18.65,2.22,2.74-1.36,2.55-6.68a66.54,66.54,0,0,1,0-7.55l-4.37-4.55Z"/><path d="M803.54,599c0.41,1.22.81,2.42,1.19,3.65,0.2,0.66.39,1.33,0.56,2a8.42,8.42,0,0,1,.2,1.07c0,0.33.1,0.63,0.17,1a10,10,0,0,1,.22,4.25,6.83,6.83,0,0,1-.91,1.95,3.44,3.44,0,0,0-.33.85,0.74,0.74,0,0,0,0,.59,0.61,0.61,0,0,0,.54-0.14c0.23-.15.56-0.39,0.82-0.57a3.34,3.34,0,0,0,1.23-1.39,9.09,9.09,0,0,0,.56-3.88c0-1.35-.14-2.73-0.21-4.1l-0.32-2.07L807,600.13v0l0.41,0.61-4.27-4.55,1.35-.3Zm-1.64.05,1.15-3.67,0.39-1.25,0.91,0.94,4.37,4.55,0.28,0.29-0.06.32h0c-0.13.63-.2,1.32-0.27,2s-0.1,1.36-.14,2c-0.06,1.37,0,2.72,0,4.1a18.26,18.26,0,0,1-.1,2.09,6.64,6.64,0,0,1-.52,2.08,4,4,0,0,1-1.43,1.67c-0.3.21-.52,0.38-0.86,0.61a2,2,0,0,1-.58.25,0.89,0.89,0,0,1-1.14-.85,1.89,1.89,0,0,1,0-.62,4.17,4.17,0,0,1,.39-1.06,5.39,5.39,0,0,0,.79-1.77,9.2,9.2,0,0,0-.39-3.86c-0.08-.32-0.17-0.69-0.23-1a7.25,7.25,0,0,0-.22-0.94c-0.19-.63-0.43-1.27-0.67-1.9-0.49-1.26-1-2.53-1.57-3.76Z"/><path class="cls-5" d="M687.77,646s-1.68,50.38,0,56.83,8.26,26.87,23.62,37.06,35.75,12.59,53.68,2.14,43.75-46.87,45.94-50.61,13.68-26.86,13.68-26.86,1.94-3.68,8.32-4.85,12.58-4.46,13-8.13-3.61-10.52-16.13-14.26-53.17-22.55-53.17-22.55-8.9-6-17.62,5.06c0,0-2.52.58,3.87,11s4.64,17.42,3.58,22.65S761.4,685.27,755,695.33,737.2,708.11,729.46,705s-11-9.86-13.55-21.47S709.33,646,709.33,646H687.77Z"/><path d="M847.34,650.48a8.84,8.84,0,0,0-1-3.23,14.46,14.46,0,0,0-1.71-2.64,20.85,20.85,0,0,0-4.53-4,33.12,33.12,0,0,0-5.23-2.8c-0.91-.37-1.82-0.73-2.74-1.05l-2.74-.88c-1.83-.56-3.55-1.21-5.31-1.85s-3.53-1.35-5.28-2.05c-7-2.79-14-5.76-21-8.77s-13.89-6.09-20.8-9.21a9.29,9.29,0,0,0-1.13-.58c-0.41-.19-0.84-0.33-1.27-0.48s-0.87-.26-1.31-0.33a10.87,10.87,0,0,0-1.34-.2,9.18,9.18,0,0,0-1.35-.05,8.8,8.8,0,0,0-1.35.09,10.12,10.12,0,0,0-1.33.23c-0.43.12-.87,0.23-1.3,0.36l-1.24.51a9.09,9.09,0,0,0-1.18.62,8.63,8.63,0,0,0-1.13.7l-1.06.79a9.75,9.75,0,0,0-1,.87l-1,.9-1.58,1.83-0.15.11a1.31,1.31,0,0,0-.25.27,1.75,1.75,0,0,0-.26.53,3,3,0,0,0-.11.91,6.39,6.39,0,0,0,.24,1.52,17.16,17.16,0,0,0,1,2.66,47.55,47.55,0,0,0,2.61,4.86c0.93,1.53,1.88,3.12,2.64,4.68a30.42,30.42,0,0,1,1.88,5,24.29,24.29,0,0,1,.37,10.52l-1,5.33-1,5.35c-1.31,7.12-2.8,14.21-4.78,21.15a70.91,70.91,0,0,1-3.68,10.13,26.74,26.74,0,0,1-2.73,4.6,21.82,21.82,0,0,1-8.12,6.71,20.64,20.64,0,0,1-5,1.73,19,19,0,0,1-5.27.41,16.57,16.57,0,0,1-13.19-7.62,25.35,25.35,0,0,1-2.42-4.73,45.89,45.89,0,0,1-1.69-5.1c-1-3.46-1.65-7-2.32-10.56s-1.3-7.11-1.9-10.68q-1.77-10.72-3.37-21.45v0L710,645h-1l6.41-24.23-8.17-6.8,3.4-4.26-5.26-7a60.65,60.65,0,0,0-1.85-21.16c-3.39-12.71-12.72-19.75-18-22.82-6.37-3.72-21.26-3.29-21.89-3.26h-0.37L656.38,564l0.79-.4c20.33-2,26.32,5.25,31.14,11.1l0.77,0.93c4.58,5.49,4.91,24.61,4.93,27.1l-4.47,7.63,3.7,3.31-7.55,5.85L689,645H687l0,0.65c-0.39,7.59-.67,15.08-0.91,22.67s-0.4,15.19-.37,22.8c0,1.91,0,3.81.11,5.73,0,1,.07,1.92.15,2.9,0,0.49.06,1,.12,1.47l0.25,1.57a80.72,80.72,0,0,0,3.63,11,77.18,77.18,0,0,0,5.15,10.39,58.73,58.73,0,0,0,6.85,9.45,46.82,46.82,0,0,0,8.91,7.75l2.42,1.51c0.85,0.48,1.74.95,2.6,1.42s1.77,0.85,2.65,1.28l1.33,0.61,1.37,0.53a52,52,0,0,0,23.05,3.51,53.3,53.3,0,0,0,11.52-2.32l2.77-1c0.91-.36,1.8-0.78,2.7-1.17a26.59,26.59,0,0,0,2.63-1.31l1.29-.69,0.65-.35,0.66-.43,2.38-1.56c0.8-.5,1.57-1.18,2.35-1.76s1.59-1.19,2.31-1.83l2.18-1.91c2.89-2.56,5.59-5.28,8.24-8,5.27-5.56,10.19-11.39,14.93-17.37,2.36-3,4.69-6,6.95-9.08,1.14-1.53,2.25-3.08,3.36-4.64,0.55-.79,1.1-1.56,1.64-2.36s1.09-1.6,1.61-2.5c3.67-6.78,7-13.55,10.36-20.36l2.53-5.1,0.63-1.28,0.24-.35c0.12-.15.24-0.3,0.38-0.44a9.09,9.09,0,0,1,1.9-1.54,14,14,0,0,1,4.84-1.78c0.9-.18,1.91-0.4,2.87-0.69a28.83,28.83,0,0,0,2.83-1,20.54,20.54,0,0,0,5.31-3,9.43,9.43,0,0,0,2.2-2.49,4.14,4.14,0,0,0,.4-0.82,3.84,3.84,0,0,0,.28-0.91l0.09-.48a1.82,1.82,0,0,0,0-.2v-0.62C847.37,650.82,847.35,650.64,847.34,650.48Zm-2.71.73v0.24h0l-0.05.22a1.47,1.47,0,0,1-.14.45,1.84,1.84,0,0,1-.23.45,6.73,6.73,0,0,1-1.58,1.72,17.86,17.86,0,0,1-4.59,2.53,26,26,0,0,1-2.57.85c-0.86.25-1.7,0.43-2.67,0.61a16.9,16.9,0,0,0-5.79,2.11,12,12,0,0,0-2.52,2c-0.19.2-.37,0.42-0.55,0.64l-0.26.36a4.57,4.57,0,0,0-.29.48l-0.64,1.27-2.56,5.08L815,680.39c-1.73,3.36-3.44,6.78-5.24,10-0.44.74-.95,1.49-1.48,2.27s-1.08,1.54-1.61,2.31c-1.1,1.53-2.2,3.06-3.33,4.57-2.24,3-4.56,6-6.91,9-4.7,5.91-9.59,11.67-14.78,17.11-2.61,2.7-5.27,5.36-8.07,7.83l-2.11,1.84c-0.7.62-1.44,1.13-2.15,1.7s-1.39,1.14-2.2,1.65l-2.39,1.55-0.53.34-0.61.32-1.22.65a24.18,24.18,0,0,1-2.47,1.22c-0.84.36-1.67,0.76-2.53,1.09l-2.59.91a46.37,46.37,0,0,1-21.71,1.69,48,48,0,0,1-10.62-2.81l-1.29-.49-1.26-.57c-0.83-.39-1.7-0.73-2.48-1.18s-1.6-.84-2.4-1.29l-2.42-1.49a43.81,43.81,0,0,1-8.24-7.12,67.3,67.3,0,0,1-11.57-18.87,77.93,77.93,0,0,1-3.66-10.53l-0.21-1.24c-0.06-.43-0.08-0.92-0.13-1.37-0.09-.91-0.15-1.87-0.19-2.81-0.11-1.87-.14-3.81-0.2-5.69-0.15-7.56-.11-15.23-0.1-22.81L688.54,646h0.55l19.55,0.18q1.73,10.51,3.6,21c0.63,3.57,1.27,7.14,2,10.71s1.4,7.13,2.4,10.65a47,47,0,0,0,1.76,5.21,26.46,26.46,0,0,0,2.54,4.92,18.38,18.38,0,0,0,3.73,4.14,18,18,0,0,0,4.84,2.77,17.54,17.54,0,0,0,5.46,1.11,20,20,0,0,0,5.53-.46,21.6,21.6,0,0,0,5.23-1.83,25.33,25.33,0,0,0,2.42-1.36,26.08,26.08,0,0,0,2.22-1.66,25.15,25.15,0,0,0,3.85-4,27.82,27.82,0,0,0,2.83-4.72,71.85,71.85,0,0,0,3.78-10.27c2-7,3.56-14.1,4.91-21.23l1-5.35c0.31-1.78.72-3.53,1-5.35a25.66,25.66,0,0,0-.34-11,31.68,31.68,0,0,0-1.89-5.22c-0.81-1.71-1.7-3.25-2.63-4.82a46.21,46.21,0,0,1-2.46-4.75,15.77,15.77,0,0,1-.87-2.44,5,5,0,0,1-.18-1.16,1.58,1.58,0,0,1,0-.43,0.22,0.22,0,0,1,0-.08l0,0a0.37,0.37,0,0,1-.17.07l0.43-.27h0l1.62-1.82,0.89-.82a8.56,8.56,0,0,1,.91-0.79l1-.7a7.35,7.35,0,0,1,1-.61,7.72,7.72,0,0,1,1.05-.54l1.09-.44,1.13-.3a8.45,8.45,0,0,1,1.15-.18,7.24,7.24,0,0,1,1.16-.06,7.57,7.57,0,0,1,1.16.06,9.16,9.16,0,0,1,1.15.18c0.38,0.07.75,0.2,1.13,0.3s0.73,0.26,1.08.43a7.83,7.83,0,0,1,1,.51l0.08,0,0,0q10.32,4.84,20.7,9.52c6.93,3.12,13.88,6.19,20.91,9.09,1.75,0.73,3.54,1.42,5.31,2.12s3.62,1.37,5.42,1.94l2.67,0.89c0.87,0.31,1.72.65,2.56,1a30.52,30.52,0,0,1,4.77,2.6,18.22,18.22,0,0,1,3.93,3.54,11.78,11.78,0,0,1,1.36,2.14,8.3,8.3,0,0,1,.46,1.13,6.42,6.42,0,0,1,.22,1.06,1.91,1.91,0,0,1,0,.24v0.36Z"/><path d="M515.36,659.32V646.59H489.81V633.3l30.29-38.84h10.13v38.75h8.18v13.38h-8.18v12.73H515.36Zm-10.87-26.11h12.64V616.76Z"/><path d="M596.84,620.29A33.07,33.07,0,0,1,595,631.58a28,28,0,0,1-5.11,8.92,23.15,23.15,0,0,1-7.67,5.85,22.18,22.18,0,0,1-9.62,2.09,22.48,22.48,0,0,1-9.66-2.09,23,23,0,0,1-7.71-5.85,27.32,27.32,0,0,1-5.06-8.92,36.08,36.08,0,0,1,0-22.58,27.31,27.31,0,0,1,5.06-8.92,23.55,23.55,0,0,1,7.71-5.9,22.07,22.07,0,0,1,9.66-2.14,21.77,21.77,0,0,1,9.62,2.14,23.71,23.71,0,0,1,7.67,5.9A28,28,0,0,1,595,609,33.07,33.07,0,0,1,596.84,620.29Zm-15,0q0-6.5-2.6-10.55t-6.69-4a7.77,7.77,0,0,0-6.83,4q-2.56,4-2.55,10.55t2.55,10.5a7.78,7.78,0,0,0,6.83,4q4.09,0,6.69-4T581.88,620.29Z"/><path d="M630.57,659.32V646.59H605V633.3l30.29-38.84h10.13v38.75h8.18v13.38h-8.18v12.73H630.57ZM619.7,633.21h12.64V616.76Z"/><path d="M499.82,708.69h-5.95v-11a4.38,4.38,0,0,0-.72-2.81,2.37,2.37,0,0,0-1.91-.87,3.29,3.29,0,0,0-1.26.26,5.2,5.2,0,0,0-1.23.72,5.56,5.56,0,0,0-1.06,1.1,5.21,5.21,0,0,0-.73,1.38v11.19H481V689.18h5.35v3.27a7.09,7.09,0,0,1,3-2.7,10.34,10.34,0,0,1,4.53-.95,5.91,5.91,0,0,1,3,.69,4.94,4.94,0,0,1,1.78,1.78,6.92,6.92,0,0,1,.84,2.4,16.34,16.34,0,0,1,.21,2.53v12.49Z"/><path d="M513.94,709.06a11.4,11.4,0,0,1-4.44-.82,9.66,9.66,0,0,1-3.29-2.21,9.34,9.34,0,0,1-2-3.23,11.11,11.11,0,0,1,0-7.69,9.33,9.33,0,0,1,2-3.23,9.89,9.89,0,0,1,3.29-2.23,11.18,11.18,0,0,1,4.44-.84,11,11,0,0,1,4.42.84,10,10,0,0,1,3.27,2.23,9.57,9.57,0,0,1,2,3.23,10.64,10.64,0,0,1,.71,3.85,10.91,10.91,0,0,1-.69,3.85,9.35,9.35,0,0,1-2,3.23,9.67,9.67,0,0,1-3.29,2.21A11.41,11.41,0,0,1,513.94,709.06ZM509.6,699a5.4,5.4,0,0,0,1.23,3.7,4,4,0,0,0,3.12,1.39,3.92,3.92,0,0,0,1.71-.37,4.09,4.09,0,0,0,1.36-1,5,5,0,0,0,.91-1.62,6.16,6.16,0,0,0,.33-2.06,5.39,5.39,0,0,0-1.23-3.7,3.94,3.94,0,0,0-3.08-1.39,4,4,0,0,0-3.1,1.41,5,5,0,0,0-.91,1.62A6.16,6.16,0,0,0,509.6,699Z"/><path d="M540.59,707.65a23.68,23.68,0,0,1-2.81,1,11.67,11.67,0,0,1-3.18.45,7.69,7.69,0,0,1-2.1-.28,4.69,4.69,0,0,1-1.73-.89,4.16,4.16,0,0,1-1.17-1.62,6.14,6.14,0,0,1-.43-2.42V693.67h-2.49v-4.5h2.49V683h5.95v6.21h4v4.5h-4v8.14a1.59,1.59,0,0,0,1.71,1.82,4.56,4.56,0,0,0,1.38-.22,8.37,8.37,0,0,0,1.23-.48Z"/><path d="M554.6,708.69V695.27h-2.49v-4.5h2.49v-1.6a10.67,10.67,0,0,1,.48-3.31,7.29,7.29,0,0,1,1.38-2.53,6,6,0,0,1,2.16-1.6,6.83,6.83,0,0,1,2.79-.56,13.09,13.09,0,0,1,5.09,1.15l-1.08,4.46a7.52,7.52,0,0,0-1.32-.43,6.06,6.06,0,0,0-1.36-.17q-2.19,0-2.19,2.75v1.82h4.54v4.5h-4.54v13.42H554.6Z"/><path d="M576.87,709.06a11.4,11.4,0,0,1-4.44-.82,9.66,9.66,0,0,1-3.29-2.21,9.34,9.34,0,0,1-2-3.23,11.11,11.11,0,0,1,0-7.69,9.33,9.33,0,0,1,2-3.23,9.89,9.89,0,0,1,3.29-2.23,11.18,11.18,0,0,1,4.44-.84,11,11,0,0,1,4.42.84,10,10,0,0,1,3.27,2.23,9.57,9.57,0,0,1,2,3.23,10.64,10.64,0,0,1,.71,3.85,10.91,10.91,0,0,1-.69,3.85,9.35,9.35,0,0,1-2,3.23,9.67,9.67,0,0,1-3.29,2.21A11.41,11.41,0,0,1,576.87,709.06ZM572.52,699a5.4,5.4,0,0,0,1.23,3.7,4,4,0,0,0,3.12,1.39,3.92,3.92,0,0,0,1.71-.37,4.09,4.09,0,0,0,1.36-1,5,5,0,0,0,.91-1.62,6.16,6.16,0,0,0,.33-2.06,5.39,5.39,0,0,0-1.23-3.7,3.94,3.94,0,0,0-3.08-1.39,4,4,0,0,0-3.1,1.41,5,5,0,0,0-.91,1.62A6.16,6.16,0,0,0,572.52,699Z"/><path d="M597,709.06a5.55,5.55,0,0,1-4.55-1.88,8.52,8.52,0,0,1-1.54-5.52V689.18h5.95v11.19a4.52,4.52,0,0,0,.71,2.73,2.35,2.35,0,0,0,2,.95,4.62,4.62,0,0,0,2.3-.63,5.4,5.4,0,0,0,2-2.19v-12h5.95V702a2.07,2.07,0,0,0,.28,1.25,1.38,1.38,0,0,0,1,.43v5a12.48,12.48,0,0,1-1.45.24q-0.59.06-1.08,0.06-3.2,0-3.64-2.49l-0.11-1.19a8.13,8.13,0,0,1-3.33,2.84A10.54,10.54,0,0,1,597,709.06Z"/><path d="M634.14,708.69h-5.95v-11a4.38,4.38,0,0,0-.72-2.81,2.37,2.37,0,0,0-1.91-.87,3.29,3.29,0,0,0-1.26.26,5.2,5.2,0,0,0-1.23.72,5.56,5.56,0,0,0-1.06,1.1,5.21,5.21,0,0,0-.73,1.38v11.19h-5.95V689.18h5.35v3.27a7.09,7.09,0,0,1,3-2.7,10.34,10.34,0,0,1,4.53-.95,5.91,5.91,0,0,1,3,.69,4.94,4.94,0,0,1,1.78,1.78,6.92,6.92,0,0,1,.84,2.4,16.34,16.34,0,0,1,.21,2.53v12.49Z"/><path d="M647.07,709.06a8.9,8.9,0,0,1-3.7-.76,8.57,8.57,0,0,1-2.92-2.14,10,10,0,0,1-1.91-3.21,11.42,11.42,0,0,1-.69-4,12.28,12.28,0,0,1,.63-4,9.76,9.76,0,0,1,1.78-3.21,8.48,8.48,0,0,1,2.73-2.14,7.74,7.74,0,0,1,3.48-.78,7.2,7.2,0,0,1,3.7,1,6.68,6.68,0,0,1,2.55,2.6V681.56h5.95V702a2.08,2.08,0,0,0,.28,1.25,1.38,1.38,0,0,0,1,.43v5a11.23,11.23,0,0,1-1.41.24q-0.59.06-1.12,0.06a4.45,4.45,0,0,1-2.53-.65,2.51,2.51,0,0,1-1.12-1.88l-0.11-1a6.66,6.66,0,0,1-2.81,2.71A8.25,8.25,0,0,1,647.07,709.06Zm1.6-5a4.33,4.33,0,0,0,2.36-.72,4.66,4.66,0,0,0,1.73-2v-4.09a5.37,5.37,0,0,0-1.8-2.43,4.21,4.21,0,0,0-2.58-.95,3.68,3.68,0,0,0-1.77.43,4.72,4.72,0,0,0-1.39,1.13,5,5,0,0,0-.91,1.64,6.07,6.07,0,0,0-.32,2,5.58,5.58,0,0,0,.35,2,4.9,4.9,0,0,0,1,1.6,4.24,4.24,0,0,0,1.49,1A4.74,4.74,0,0,0,648.67,704Z"/><path class="cls-2" d="M449.29,387s-8.26,25.54-6.71,39.22,3.74,19-.19,23.61-9.61,7-10.65,2.38-4.9-20.86-1.81-38.15S443.36,387,443.36,387h5.94Z"/><path d="M450,387.11c-1.75,5.83-3.21,11.82-4.4,17.79-0.58,3-1.08,6-1.47,9a63.68,63.68,0,0,0-.57,9,78.59,78.59,0,0,0,1,9c0.43,3,1,6,1.26,9.19a18.49,18.49,0,0,1-.18,4.94,10.1,10.1,0,0,1-2.29,4.71l-0.77.86-0.9.89a19.35,19.35,0,0,1-1.92,1.57,13,13,0,0,1-2.2,1.28,7.38,7.38,0,0,1-2.68.72,4.17,4.17,0,0,1-3.13-1,5.13,5.13,0,0,1-1.41-2.73c-0.34-1.49-.68-3-1-4.53-0.6-3-1.09-6.1-1.43-9.19a89.12,89.12,0,0,1-.19-18.62c0.18-1.55.34-3.1,0.61-4.64l0.19-1.15,0-.29,0-.18,0-.14,0.12-.56,0.49-2.24a60.5,60.5,0,0,1,3.06-8.91,52.26,52.26,0,0,1,4.5-8.21,43.13,43.13,0,0,1,6-7.24v-0.1l0.23-.31h7.28Zm-1.78.89h-4.89l0.53-.34V387.6a46,46,0,0,0-5.33,7.17,54.82,54.82,0,0,0-6.71,16.54l-0.45,2.25-0.12.56,0,0.14,0,0.1,0,0.28L431,415.75c-0.25,1.48-.39,3-0.55,4.48a87,87,0,0,0-.3,9q0.12,4.52.59,9c0.32,3,.78,6,1.35,9,0.28,1.49.6,3,.93,4.46a2.51,2.51,0,0,0,.59,1.32,1.44,1.44,0,0,0,1.12.31,4.76,4.76,0,0,0,1.72-.48,10.37,10.37,0,0,0,1.76-1,16.69,16.69,0,0,0,1.64-1.33l0.74-.72,0.77-.85a7.43,7.43,0,0,0,1.68-3.45,16,16,0,0,0,.15-4.21c-0.22-2.95-.72-6-1.11-9a80.28,80.28,0,0,1-.87-9.29,65.72,65.72,0,0,1,.72-9.32c0.43-3.07,1-6,1.7-9A153.07,153.07,0,0,1,448.25,388Z"/><path class="cls-5" d="M465.7,523.48a8,8,0,0,0-4.79,7.89c0.26,6,2.39,7.16,2.39,7.16l27.29,8.32s8.27-1,8.71-6.78-2.13-6.17-2.13-6.17S479.13,530.69,465.7,523.48Z"/><path d="M465.74,524.36a7.87,7.87,0,0,0-1.32,1,7.09,7.09,0,0,0-.67.7,7.88,7.88,0,0,0-.57.77,8.68,8.68,0,0,0-.44.84,5.36,5.36,0,0,0-.34.88c-0.11.29-.14,0.61-0.23,0.92s-0.08.63-.11,1v1l0.07,1.09a16.68,16.68,0,0,0,.3,2,9.24,9.24,0,0,0,.59,1.87,5.28,5.28,0,0,0,.44.78,2.46,2.46,0,0,0,.25.31l0.12,0.12s0.11,0.08,0,0l-0.21-.09q6.82,2.09,13.62,4.25c4.54,1.42,9.05,2.91,13.58,4.38h0l-0.32,0a12.65,12.65,0,0,0,3.05-.57,10.33,10.33,0,0,0,2.8-1.33,6.11,6.11,0,0,0,2-2.24,6.87,6.87,0,0,0,.56-3,8.39,8.39,0,0,0-.45-3,3.17,3.17,0,0,0-.76-1.19,1.65,1.65,0,0,0-.53-0.33,2.49,2.49,0,0,0-.33-0.07l-0.4-.08c-2.15-.42-4.27-0.9-6.39-1.41-4.23-1-8.44-2.21-12.57-3.64-1-.34-2.06-0.73-3.09-1.1s-2-.78-3.06-1.19-2-.87-3-1.3S466.59,524.78,465.74,524.36Zm0.33-1.56c1,0.5,1.89,1,2.86,1.5s1.93,1,2.93,1.37c2,0.87,4,1.71,6,2.43,1,0.38,2,.73,3.06,1.07s2.06,0.66,3.09,1c2.07,0.62,4.15,1.23,6.26,1.75s4.21,1,6.33,1.44l0.4,0.08a3.17,3.17,0,0,1,.46.11,2.52,2.52,0,0,1,.84.52,4,4,0,0,1,1,1.53,9.21,9.21,0,0,1,.49,3.38,8.14,8.14,0,0,1-.64,3.35,7,7,0,0,1-2.23,2.62,13.28,13.28,0,0,1-3,1.66,20.3,20.3,0,0,1-3.26,1l-0.12.23-0.19.14h0c-4.57-2-9.15-2.79-13.71-4.14s-9.12-2.79-13.67-4.17l-0.12-.09-0.08-.07a2.43,2.43,0,0,1-.42-0.32l-0.27-.27a4.59,4.59,0,0,1-.44-0.55,7.45,7.45,0,0,1-.65-1.13,11.41,11.41,0,0,1-.76-2.31,18.75,18.75,0,0,1-.36-2.34l-0.08-1.1c0-.44,0-0.83,0-1.24s0.09-.82.16-1.23a8.85,8.85,0,0,1,.34-1.21,7.5,7.5,0,0,1,.51-1.15,7.85,7.85,0,0,1,.67-1.06,9.86,9.86,0,0,1,.83-0.93,7.37,7.37,0,0,1,.93-0.8,8,8,0,0,1,2.18-1.13l0.36-.11Z"/><path d="M443.87,380.13A17.06,17.06,0,0,0,456.65,391c10.19,2.19,28.13,4.52,37.42,9.55a126.14,126.14,0,0,1,23.36,17c4,3.87,8.65,8.9,12.78,7.74s-3.36-11.74-9.29-17.29S498.3,390.59,485,387c-9.94-2.71-19.86-1.63-24.13-3.48-3.87-1.68-6.71-8.52-9.55-9.16S442.84,376.39,443.87,380.13Z"/><path d="M694.25,406.24a9,9,0,0,1-6.73,5.71c-5.37,1.16-14.81,2.38-19.71,5a66.42,66.42,0,0,0-12.3,9c-2.11,2-4.55,4.69-6.73,4.08s1.77-6.18,4.89-9.11,11.91-9.17,18.89-11.08c5.23-1.43,10.46-.86,12.71-1.83,2-.88,3.53-4.48,5-4.82S694.79,404.27,694.25,406.24Z"/><path class="cls-4" d="M521.18,535s6.19,11.49,13.54,13.81c0,0-1.16-11.17,0-15.65Z"/><path d="M522.53,535.58c0.23,0.34.46,0.68,0.71,1,0.47,0.66.93,1.32,1.43,2s1,1.26,1.49,1.89,1,1.23,1.56,1.82c0.26,0.3.54,0.58,0.81,0.87s0.54,0.59.83,0.85l0.85,0.82,0.89,0.76a10.63,10.63,0,0,0,.91.72,7.5,7.5,0,0,0,.95.66c0.33,0.19.64,0.42,1,.57a2.92,2.92,0,0,0,1,.49h0l-1,.85c-0.26-2.63-.43-5.24-0.5-7.88,0-1.32,0-2.64,0-4,0-.67.08-1.33,0.14-2l0.14-1,0.21-1,0.85,1ZM520,534.36l14.57-2,1.08-.15-0.23,1.11-0.18.89-0.13.93c-0.06.63-.11,1.26-0.13,1.91-0.05,1.28-.06,2.58,0,3.87,0.07,2.59.24,5.2,0.49,7.77l0.12,1.43-1.12-.15h0c-0.42-1-.85-0.48-1.27-0.62a11.28,11.28,0,0,1-1.21-.64,9.41,9.41,0,0,1-1.14-.7,12.8,12.8,0,0,1-1.09-.74l-1-.81-1-.87c-0.33-.28-0.61-0.6-0.91-0.9s-0.59-.62-0.86-0.94c-0.57-.63-1.1-1.29-1.61-2s-1-1.36-1.44-2.07a32.72,32.72,0,0,1-2.46-4.39Z"/><path class="cls-5" d="M591.11,567s9.69,4.11,17.62,0c0,0-7.42-6.18-6.06-24.76C602.67,542.22,603.22,560.76,591.11,567Z"/><path class="cls-1" d="M602.67,542.22S591.87,532,591.11,531s-1.69-5,0-7.48,6.77-2.84,8.81-3,10.94,0,10.94,0,6.47,0.93,5.16,6.27C614,535.25,602.67,542.22,602.67,542.22Z"/><circle cx="573.92" cy="526.57" r="1.26"/><circle cx="581.95" cy="538.99" r="1.98"/><circle cx="572.66" cy="552.67" r="1.26"/><circle cx="632.67" cy="522.86" r="2"/><circle cx="639.33" cy="537.01" r="1.98"/><circle cx="630.67" cy="554.35" r="2"/><path d="M491.35,546.74l-0.08-.48-27.75-8.46-0.37-.11-0.31.23a6.68,6.68,0,0,0-2.58,4.31,5.93,5.93,0,0,0,1.88,4.66l0.14,0.15,23.94,7.42,0.2,0.06,0.2,0A6.5,6.5,0,0,0,491.35,546.74Z"/><path class="cls-5" d="M462.71,546.34L414.71,683s10.07,11.1,26.58,5.94L486.46,553.7Z"/><path d="M463.2,547.31q-5.7,16.79-11.5,33.55l-11.92,34.19-12.07,34.14-6.1,17-6.17,17-0.16-.78h0a15.85,15.85,0,0,0,1.24,1.15c0.43,0.38.9,0.72,1.36,1.07a26.7,26.7,0,0,0,2.94,1.84c0.52,0.25,1,.54,1.56.77s1.07,0.46,1.6.67l1.65,0.54c0.55,0.17,1.12.28,1.68,0.42a13.28,13.28,0,0,0,1.71.3,14.33,14.33,0,0,0,1.72.2l1.73,0.08c0.58,0,1.16,0,1.74-.07a12.19,12.19,0,0,0,1.73-.15l1.72-.27a14.53,14.53,0,0,0,1.7-.39l1.69-.44h0l-0.5.49L452,654.94l11.35-33.79,11.35-33.79,5.61-16.92q2.75-8.48,5.4-17l0.51,1Zm-1-1.92L486.69,553l0.51,1q-3,8.39-5.89,16.82l-5.68,16.89L464.39,621.5l-11.23,33.83L442,689.19l-0.13.39-0.37.1h0l-1.78.46a15.69,15.69,0,0,1-1.79.41l-1.82.28a13.3,13.3,0,0,1-1.83.16c-0.61,0-1.23.09-1.84,0.07l-1.84-.09a15.59,15.59,0,0,1-1.83-.21,14.5,14.5,0,0,1-1.81-.32c-0.6-.15-1.2-0.27-1.79-0.45l-1.75-.58c-0.57-.22-1.13-0.47-1.7-0.71s-1.1-.54-1.65-0.81a28.27,28.27,0,0,1-3.12-2c-0.49-.37-1-0.74-1.45-1.14a17,17,0,0,1-1.38-1.29h0l-0.31-.32,0.15-.45,5.83-17.14,5.9-17.12,11.93-34.19,12.08-34.14q6.07-17.06,12.26-34.08Z"/><path d="M441.89,688.45l-0.34-.42-0.51.18c-0.15.05-15.16,5.11-25.78-5.75l-0.25-.25-0.36,0c-0.12,0-12.15,1-18,14.14a15.35,15.35,0,0,0,0,13.34c3.45,7.2,11.72,11.65,17.76,13.27a35.91,35.91,0,0,0,9.19,1.15,36.48,36.48,0,0,0,9-1.09c6.72-1.73,11.23-5.33,12.71-10.14C448.4,703.14,447.22,694.9,441.89,688.45Z"/><path class="cls-5" d="M408,719.58a37.15,37.15,0,0,1,1.25,6.27c0,1.81,1.29,4.9,4.32,5.48s6-.52,7.1-3.36,2.7-4.59,3.61-4.62C424.32,723.36,414,723.11,408,719.58Z"/><path d="M409.48,721.17c0.18,0.54.35,1.09,0.5,1.65a18.51,18.51,0,0,1,.38,1.83,9.29,9.29,0,0,1,.1,1v0.43c0,0.15,0,.2,0,0.31a5.24,5.24,0,0,0,1.18,2.63,4.11,4.11,0,0,0,1.06.92,3.78,3.78,0,0,0,1.35.5,7.73,7.73,0,0,0,.78.12,6.82,6.82,0,0,0,.79,0,6.13,6.13,0,0,0,1.54-.23,4.58,4.58,0,0,0,2.43-1.76,8.47,8.47,0,0,0,.73-1.49,13.82,13.82,0,0,1,.87-1.67,10.35,10.35,0,0,1,1.11-1.56,6.45,6.45,0,0,1,.74-0.72,2.4,2.4,0,0,1,1.19-.54h0v1.55c-1.45-.05-2.85-0.18-4.27-0.35s-2.82-.39-4.22-0.68a38.41,38.41,0,0,1-4.16-1.1c-0.68-.25-1.37-0.47-2-0.78Zm-2.37-3,2.21,1.18c0.29,0.17.61,0.28,0.92,0.43,0.61,0.29,1.26.5,1.9,0.73a36.87,36.87,0,0,0,4,1.05c1.35,0.28,2.72.49,4.1,0.66s2.77,0.29,4.13.33l1.15,0-1.14,1.51h0a0.77,0.77,0,0,0-.42.17,3.51,3.51,0,0,0-.58.49,8.21,8.21,0,0,0-1,1.31,12.54,12.54,0,0,0-.76,1.5l-0.34.83a6.72,6.72,0,0,1-.44.9,6.2,6.2,0,0,1-3.09,2.54,7.83,7.83,0,0,1-1.95.48,8.67,8.67,0,0,1-1,.05,9.36,9.36,0,0,1-1-.06,5.82,5.82,0,0,1-2-.58,6.19,6.19,0,0,1-1.73-1.27,7.48,7.48,0,0,1-1.83-3.74c0-.19-0.06-0.43-0.07-0.57l0-.46A7.09,7.09,0,0,0,408,725c-0.07-.54-0.15-1.11-0.25-1.68-0.19-1.14-.36-2.31-0.5-3.49Z"/><path d="M527.59,510s-0.56-.19-1.57-0.61-2.45-1.11-4.25-2.06c-3.61-1.89-8.76-4.58-15-7.75l-10-5.1-11.25-5.62-12.08-5.92-12.54-6c-4.23-1.95-8.43-4-12.61-5.82S440,467.36,436,465.67s-7.87-3.41-11.58-4.89-7.19-3-10.47-4.15-6.25-2.38-9-3.21l-3.77-1.24c-1.16-.39-2.23-0.74-3.22-1l-6.18-1.6,0.13-.64,6.24,1.51c1,0.22,2.08.55,3.25,0.92l3.8,1.18c2.73,0.79,5.74,1.91,9,3.09s6.83,2.54,10.56,4,7.62,3.1,11.66,4.78,8.15,3.53,12.36,5.35,8.43,3.8,12.68,5.72l12.61,5.87,12.15,5.81,11.32,5.52,10.11,5c6.25,3.12,11.44,5.77,15.07,7.62a37.77,37.77,0,0,1,5.53,3.25Z"/><path d="M765.77,546.09l-6-1.51-7.85-1.51c-1.44-.25-2.93-0.61-4.5-0.81l-4.85-.66-5.12-.68-5.38-.47-5.56-.47-5.71-.25c-1.92-.07-3.86-0.18-5.81-0.22l-5.86,0c-3.91-.08-7.82.16-11.67,0.27-1.93,0-3.83.21-5.71,0.33l-5.57.38-5.31.51c3.83-2.59,7.7-5.2,11.45-8a66.31,66.31,0,0,0,9.79-8.72l1.53-.2,2.26-.29,2-.18c1.29-.11,2.41-0.23,3.33-0.23l2.91-.07,0-.78-3-.05c-0.94,0-2.08,0-3.38.09l-2.08.09-2.29.2-0.23,0,0.86-1.16c0.36-.49.67-1,1-1.45l2-2.86c1.35-1.92,2.71-3.88,4-5.91a73.42,73.42,0,0,0,6.52-12.84c0.53-1.36,1-2.73,1.45-4.1,1.45-.35,2.87-0.76,4.29-1l4.61-.88,4.37-.85,4.12-.56c2.64-.34,5.06-0.71,7.22-0.93l5.6-.38,4.88-.33v-0.77l-4.91.2-5.64.23c-2.17.16-4.61,0.47-7.29,0.74l-4.16.45-4.42.74-4.67.79c-1.13.17-2.26,0.45-3.4,0.72q1.17-3.88,2-7.84c0.94-4.7,1.62-9.3,2.26-14s1.14-9.35,1.46-14.06q0.23-3.53.29-7.08a62.51,62.51,0,0,0-.24-7.12v-0.22l-0.11-.18L714,423.88c-0.95-1.52-1.93-3-2.84-4.56s-1.83-3.07-2.73-4.62L703,405.37c-7.14-12.46-14.11-25-21.5-37.34v0l-0.54-.93-0.73.82a38.64,38.64,0,0,1-3.31,3.22c-0.57.53-1.2,1-1.79,1.5s-1.21,1-1.85,1.44l-1.89,1.39-2,1.3c-1.28.9-2.66,1.65-4,2.46s-2.75,1.49-4.13,2.24-2.82,1.37-4.24,2l-2.14,1-2.19.86c-1.47.55-2.91,1.19-4.4,1.66l-4.48,1.46c-1.49.5-3,.82-4.54,1.25s-3,.85-4.58,1.12l-4.62.93c-1.53.35-3.1,0.52-4.65,0.75l-4.67.66c-1.56.19-3.13,0.28-4.7,0.42l-4.35.36-56.21-59h0l-1.7-1.82,0.38,2.49q1,6.42,2,12.84l0.52,3.21,0.26,1.6,0.13,0.8,0,0.2v0.05h0v0.1l0,0.4c0.21,2.13.37,4.28,0.51,6.43a194.67,194.67,0,0,1,.23,25.75,95.76,95.76,0,0,1-1.63,12.62,45.17,45.17,0,0,1-1.65,6,33.23,33.23,0,0,1-2.66,5.58c-2.1,3.64-4.42,7.32-6.76,10.93s-4.75,7.21-7.17,10.79l-14.58,21.49c-4.83,7.19-9.74,14.33-14.43,21.64-2.34,3.66-4.69,7.3-6.84,11.19a20.39,20.39,0,0,0-1.48,3.2c-0.33,1-.67,2-1,3-0.73,2-1.48,4.07-2.19,6.14a67.31,67.31,0,0,0-3.13,12.83,31.56,31.56,0,0,0-.18,6.7,21.22,21.22,0,0,0,1.71,6.54v0l0.14,0.36,0.41,0.08,37.41,7.7q-0.12,1.24-.21,2.48l-1.82.15c-1.18.1-2.39,0.3-3.62,0.45s-2.5.3-3.77,0.56c-2.54.48-5.18,0.9-7.8,1.58l-4,.94-4,1.12-3.95,1.16-3.86,1.33-3.79,1.31c-1.24.45-2.45,1-3.65,1.42-2.38,1-4.72,1.8-6.86,2.78l-6,2.73c-1.88.82-3.55,1.68-5,2.44l-3.85,1.95-3.34,1.71,0.28,0.57,3.43-1.52,3.92-1.76c1.51-.68,3.21-1.47,5.12-2.2l6.11-2.46c2.16-.9,4.51-1.66,6.89-2.54,1.2-.42,2.41-0.89,3.65-1.3l3.79-1.18,3.85-1.19,3.92-1,3.92-1,3.93-.85c2.59-.62,5.19-1,7.68-1.42,1.25-.24,2.49-0.34,3.69-0.49s2.39-.31,3.54-0.38l1.43-.1c0,0.07,0,.14,0,0.21-0.07,2,0,4.09.06,6.13,0.06,1,.11,2,0.24,3.07s0.24,2,.42,3.06,0.43,2,.64,3,0.54,1.9.89,2.83c-4.27,1.61-8.95,3.46-13.83,5.51-3.23,1.37-6.55,2.79-9.9,4.32s-6.73,3.1-10.1,4.72-6.7,3.3-10,5-6.46,3.4-9.52,5.09-6,3.37-8.77,5-5.35,3.22-7.72,4.71c-4.75,3-8.63,5.56-11.33,7.4L450.42,602l0.32,0.46,4.27-2.83c2.73-1.78,6.65-4.29,11.44-7.16,2.39-1.44,5-3,7.79-4.55s5.73-3.22,8.81-4.87,6.28-3.31,9.55-5,6.63-3.27,10-4.86,6.76-3.12,10.12-4.58,6.68-2.86,9.91-4.18c4.91-2,9.62-3.79,13.9-5.34,0.19,0.44.46,0.85,0.68,1.28a16.14,16.14,0,0,0,1.89,2.67,29.66,29.66,0,0,0,2.27,2.16,31.41,31.41,0,0,0,2.5,2,36.11,36.11,0,0,0,5.47,3.06,39.82,39.82,0,0,0,5.87,2.1,42.09,42.09,0,0,0,6.1,1.23,44,44,0,0,0,6.21.38,49,49,0,0,0,6.17-.45c2.06-.3,4.09-0.61,6.1-1.09a47.69,47.69,0,0,0,6-1.74,35.41,35.41,0,0,0,5.69-2.6l0.12-.07a25.21,25.21,0,0,0,3.72,1.12q1.14,0.25,2.31.39c0.39,0.06.77,0.1,1.17,0.12s0.78,0.08,1.17.07h1.18l1.18-.07a11.19,11.19,0,0,0,1.18-.13,10.1,10.1,0,0,0,1.17-.2l1.16-.28c0.38-.1.76-0.25,1.13-0.38a7.36,7.36,0,0,0,1.1-.46l0.43-.21c0.31,0.29.62,0.57,1,.84a20.13,20.13,0,0,0,6.54,3.33c1.12,0.35,2.21.73,3.41,1s2.34,0.6,3.52.77a48.94,48.94,0,0,0,14.31.53A39.81,39.81,0,0,0,651,570.35a34.16,34.16,0,0,0,11.21-9.23c0.19-.24.4-0.47,0.58-0.71l0.51-.76,1-1.52,0.51-.76,0.45-.71,0.94-1.43a62.39,62.39,0,0,1,4.16-5.44,37.15,37.15,0,0,1,4.77-4.74c0.44-.35.83-0.67,1.32-1l0.34-.24c1.39-.19,2.8-0.35,4.25-0.5l5.33-.57,5.52-.44c1.87-.14,3.76-0.32,5.67-0.38,3.82-.16,7.69-0.41,11.58-0.41l5.82-.08c1.93,0,3.86.08,5.77,0.12l5.68,0.15L732,542l5.35,0.37,5.1,0.59,4.83,0.54c1.56,0.16,3,.48,4.49.69l7.85,1.3,6,1.36,5.22,1.18,0.18-.67Zm-163-5.08-7.37-7.22-2-2-0.94-1a2.63,2.63,0,0,1-.62-0.81,7.73,7.73,0,0,1-.52-2.31,7.1,7.1,0,0,1,.2-2.36,3.38,3.38,0,0,1,1.07-1.74,6.38,6.38,0,0,1,2.07-1,21.49,21.49,0,0,1,5.17-.82c0.89,0,1.77,0,2.7,0h2.77l5.43,0.06a8,8,0,0,1,1.47.43,6,6,0,0,1,1.36.74,3.3,3.3,0,0,1,.94,1,2.77,2.77,0,0,1,.39,1.21,6.82,6.82,0,0,1,0,.69c0,0.22-.08.54-0.12,0.68l-0.28.9a4.92,4.92,0,0,1-.31.84,14.14,14.14,0,0,1-.73,1.5,14.29,14.29,0,0,1-.92,1.5L612,532l-0.55.7c-0.35.48-.75,0.93-1.15,1.38s-0.82.88-1.23,1.33-0.86.85-1.29,1.28c-0.88.84-1.78,1.67-2.73,2.45C604.3,539.79,603.51,540.41,602.73,541Zm3.63,26c-0.34.1-.68,0.22-1,0.3l-1.05.22c-0.35.09-.71,0.1-1.07,0.16a9.75,9.75,0,0,1-1.07.11l-1.08.05-1.09,0c-0.36,0-.73,0-1.09-0.06s-0.73-.05-1.09-0.1-0.73-.08-1.08-0.15-0.72-.11-1.08-0.19c-0.76-.15-1.52-0.34-2.27-0.54a21.22,21.22,0,0,0,6.95-7.69l0,0v0c0.27-.7.49-1.37,0.72-2.05s0.41-1.37.61-2.06c0-.17.08-0.35,0.13-0.53,0.1,0.65.22,1.3,0.36,1.94a25,25,0,0,0,2.5,6.82,19.9,19.9,0,0,0,2.58,3.56A6.7,6.7,0,0,1,606.37,567Zm59.56-24.19c-2.76.39-5.28,0.86-7.53,1.23s-4.39.84-6.05,1.27-3,.83-3.83,1.13-1.33.5-1.33,0.5l0.38,1.5,1.4-.16c0.9-.12,2.22-0.31,3.89-0.59s3.7-.66,6-1.13c2-.36,4.32-0.8,6.79-1.2-0.09.68-.2,1.35-0.32,2a41.18,41.18,0,0,1-1.48,5.65l-0.19.53c-0.32.49-.63,1-0.93,1.49l-0.47.78-0.45.71L660.9,558l-0.45.71c-0.17.23-.35,0.44-0.52,0.66A31.39,31.39,0,0,1,649.79,568a37,37,0,0,1-12.89,4.09,46.73,46.73,0,0,1-13.67-.32c-1.14-.15-2.24-0.43-3.35-0.68s-2.23-.6-3.35-0.93a18.12,18.12,0,0,1-6-2.91,16.27,16.27,0,0,1-3.18-3.28l0,0a21.72,21.72,0,0,1-1.44-2.79l-0.58-1.48-0.5-1.51c-0.16-.5-0.28-1-0.42-1.54s-0.25-1-.35-1.56-0.23-1-.3-1.57l-0.23-1.59c-0.15-1.06-.22-2.14-0.31-3.21,0-.56-0.05-1.12-0.09-1.69,0.05-.39.11-0.79,0.14-1.18,0.09-1,.16-2,0.17-3.06,0.46-.26.9-0.52,1.34-0.8s1.09-.69,1.6-1.07c1-.74,2.05-1.55,3-2.38a34.55,34.55,0,0,0,2.78-2.72c0.44-.49.87-1,1.27-1.5l0.61-.78,0.56-.82a16.7,16.7,0,0,0,1-1.71,16.2,16.2,0,0,0,.9-1.89,6.39,6.39,0,0,0,.33-0.93l0.28-.9a10.33,10.33,0,0,0,.22-1.17,8.66,8.66,0,0,0,0-1.19,5.39,5.39,0,0,0-.77-2.34,5.92,5.92,0,0,0-1.62-1.74,8.63,8.63,0,0,0-1.94-1.08,10.35,10.35,0,0,0-2.09-.65L611,519h-0.09l-5.57.09-2.79.14c-0.92,0-1.89,0-2.85.08a23.76,23.76,0,0,0-5.76,1,8.59,8.59,0,0,0-2.84,1.51,5.7,5.7,0,0,0-1.78,2.92,9.37,9.37,0,0,0-.23,3.16,9.78,9.78,0,0,0,.77,3.07,4.61,4.61,0,0,0,1,1.39l1,1,2,1.93,7.73,7.2a33.33,33.33,0,0,0-.27,5.18c-0.15.91-.32,1.83-0.52,2.73-0.3,1.34-.66,2.68-1.07,4-0.2.66-.41,1.32-0.64,2s-0.39,1.08-.6,1.6c-0.11.21-.21,0.43-0.33,0.64a20.14,20.14,0,0,1-7.92,7.43,33.09,33.09,0,0,1-5.34,2.4,45.3,45.3,0,0,1-5.68,1.62c-1.93.45-3.9,0.74-5.84,1a54.19,54.19,0,0,1-5.92.44,41.59,41.59,0,0,1-5.88-.33,39.65,39.65,0,0,1-5.78-1.13,37.43,37.43,0,0,1-5.54-2,34.12,34.12,0,0,1-5.12-2.82c-0.79-.56-1.6-1.12-2.31-1.74a27.67,27.67,0,0,1-2.15-2,15.63,15.63,0,0,1-2.13-3.16l1.87-.66c5.26-1.85,9.71-3.18,12.8-4.14,1.54-.49,2.76-0.86,3.57-1.11,0.45-.14.6-0.17,0.79-0.24l0.34-.05v-1.55h-0.34a11.47,11.47,0,0,0-1.17.15c-0.9.13-2.16,0.43-3.75,0.84s-3.49,1-5.66,1.73-4.6,1.56-7.24,2.51l-2,.73c-0.34-.85-0.6-1.74-0.87-2.62s-0.5-1.89-.65-2.88a55.12,55.12,0,0,1-.78-5.9c-0.17-2.1-.23-4.22-0.22-6.33,1.16-.07,2.29-0.12,3.36-0.11s2-.07,2.88,0l2.6,0c1.62,0.07,3,.1,4.2.2,0.59,0,1.1.07,1.55,0.12s0.84,0.06,1.13.11c0.59,0.06.94,0.12,0.94,0.12l0.43-1.49s-0.3-.13-1-0.35a24,24,0,0,0-2.78-.71,43.19,43.19,0,0,0-4.36-.63,54.92,54.92,0,0,0-5.68-.14c-1,0-2.13.07-3.24,0.15q0.06-1.45.17-2.89l0.05-.7-38.3-7.89a23.63,23.63,0,0,1-.67-12,65,65,0,0,1,3.54-12.23c0.75-2,1.54-4,2.33-6,0.4-1,.79-2.08,1.14-3.1a17.92,17.92,0,0,1,1.33-2.65c2.14-3.64,4.57-7.24,7-10.8q7.32-10.69,14.74-21.36c4.91-7.13,9.84-14.26,14.68-21.46q3.62-5.41,7.16-10.88c2.35-3.67,4.67-7.32,6.83-11.21a37,37,0,0,0,2.83-6.17,48.75,48.75,0,0,0,1.7-6.52,88.75,88.75,0,0,0,1.43-13.15c0.18-4.38.16-8.76,0-13.12s-0.45-8.71-.88-13c-0.22-2.17-.48-4.33-0.77-6.49l-0.06-.41,0-.26,0-.2-0.16-.8L559,351.17,558.33,348c-0.67-3.37-1.38-6.73-2.08-10.09l54.61,57.34,0.26,0.27,0.35,0,4.75-.39c1.58-.14,3.17-0.23,4.75-0.42l4.72-.67c1.57-.23,3.15-0.41,4.7-0.76l4.68-.94c1.57-.27,3.09-0.75,4.63-1.13s3.09-.76,4.6-1.26l4.54-1.48c1.52-.47,3-1.13,4.47-1.68l2.22-.87,2.17-1c1.45-.67,2.91-1.29,4.31-2.06s2.85-1.43,4.2-2.28,2.76-1.59,4.07-2.51l2-1.33,1.93-1.42c0.65-.47,1.28-1,1.89-1.47s1.25-1,1.84-1.54c0.94-.83,1.84-1.66,2.72-2.57,1.54,2.86,3.08,5.71,4.66,8.55l5.28,9.4,10.75,18.68,5.43,9.31c0.91,1.54,1.84,3.11,2.78,4.64s1.93,3,2.89,4.57l11.56,18a108.43,108.43,0,0,1-1.12,13.64c-0.58,4.62-1.38,9.22-2.17,13.81-0.4,2.3-.82,4.58-1.26,6.88s-0.9,4.56-1.38,6.81c-0.78,3.26-1.67,6.49-2.76,9.64l-2,.46c-1.69.35-3.35,0.91-5.06,1.36l-5.13,1.44c-1.7.53-3.4,1.12-5.1,1.67s-3.42,1.09-5.08,1.73l-5,1.91-2.46.95-2.4,1-4.71,2c-1.53.68-3,1.41-4.49,2.09s-2.91,1.34-4.27,2.06c-2.75,1.39-5.35,2.71-7.69,4l-0.85.46c-0.82-1.41-1.69-2.8-2.67-4.15a28.15,28.15,0,0,0-1.82-2.29l-0.9-1.06a11.71,11.71,0,0,1-.84-1.07,51.51,51.51,0,0,1-3.06-4.68c-1.9-3.25-3.61-6.64-5.18-10s-3-6.78-4.2-10.11c-0.6-1.66-1.18-3.33-1.62-4.93-0.24-.78-0.43-1.66-0.62-2.43s-0.3-1.6-.38-2.4c-0.41-3.21-.62-6.3-0.78-9.14-0.3-5.7-.38-10.47-0.43-13.81s0-5.24,0-5.24l-0.94,0-0.11,5.26c0,3.35-.1,8.12.05,13.87,0.09,2.87.19,6,.56,9.3a46,46,0,0,0,2.53,10.18c1.18,3.42,2.55,6.88,4.08,10.34a109.26,109.26,0,0,0,5.14,10.29,53.64,53.64,0,0,0,3.15,4.92c0.53,0.79,1.27,1.59,1.83,2.29a25.38,25.38,0,0,1,1.68,2.15c0.9,1.27,1.72,2.6,2.49,3.95l-3.46,2c-1.87,1.13-3.5,2.13-4.83,3a17.4,17.4,0,0,0-2.91,2.23,6.41,6.41,0,0,0-.88,1l0.9,1.26a11,11,0,0,0,1.22-.48,23.18,23.18,0,0,0,3.11-1.79c1.29-.85,2.89-1.85,4.72-3l3.34-2c0.55,1.07,1.08,2.15,1.55,3.23a58.58,58.58,0,0,1,2.87,8.17c-2.62.61-5.07,1.19-7.26,1.72-3.11.77-5.71,1.36-7.48,2a18.13,18.13,0,0,0-2.73,1.14l0.41,1.49a20.35,20.35,0,0,0,2.92-.39c1.83-.34,4.38-1.11,7.47-1.9,2.17-.57,4.62-1.2,7.22-1.85,0.11,0.5.21,1,.31,1.49l0.37,2.26a34.55,34.55,0,0,1,.2,4.26C666.06,540.9,666,541.89,665.93,542.86ZM664,520.49c-0.52-1.15-1.1-2.3-1.7-3.44l0.85-.47c2.3-1.33,4.86-2.66,7.57-4.07,1.34-.73,2.76-1.38,4.2-2.08s2.91-1.42,4.42-2.12l4.64-2,2.36-1,2.42-1,4.91-1.94c1.64-.66,3.33-1.2,5-1.8s3.34-1.2,5-1.75l5.05-1.52c1.68-.48,3.32-1.06,5-1.44l0.85-.21c-0.19.51-.37,1-0.57,1.53a77.44,77.44,0,0,1-6.21,12.17c-1.21,1.95-2.52,3.84-3.85,5.76l-2,2.9c-0.33.48-.66,1-1,1.44l-1,1.3c-0.78.94-1.61,1.85-2.49,2.74-1.56.2-3.17,0.42-4.83,0.69-2,.29-4,0.64-6.09,1s-4.17.76-6.27,1.15-4.18.86-6.24,1.27l-6,1.32-0.93.21A61,61,0,0,0,664,520.49Zm3.94,27.23-0.3.38,0.06-.22c0.21-.9.38-1.87,0.53-2.88l2.49-.39C669.73,545.62,668.81,546.65,667.93,547.72Zm7.94-7.48c-0.49.36-1,.71-1.43,1.07l-0.59.46-3,.37-2.31.34c0.07-.84.12-1.69,0.14-2.57a31.39,31.39,0,0,0-.23-4.66L668,532.86c-0.12-.53-0.23-1.07-0.36-1.61l0.88-.22c3.87-.93,8-1.9,12.17-2.81,2.08-.45,4.15-0.92,6.2-1.32s4.07-.83,6-1.17l2.71-.49c-1.77,1.64-3.66,3.21-5.58,4.72-3.64,2.84-7.45,5.51-11.29,8.21C677.8,538.85,676.85,539.52,675.88,540.24Z"/><path class="cls-1" d="M535.11,277s-18.19-43-21.29-70.85-3.87-42.2,0-61.17,7.74-17.81,12.78-10.45,24,33.68,31.75,45.68,28.26,52.26,30.2,58.46,2.32,18.2,2.32,18.2Z"/><path d="M534.27,277.37c-2.42-5.81-4.67-11.67-6.83-17.57S523.23,248,521.34,242s-3.65-12-5.15-18.16a152.3,152.3,0,0,1-3.4-18.61c-0.69-6.23-1.35-12.48-1.83-18.75a188.93,188.93,0,0,1-.65-18.89,123,123,0,0,1,1.85-18.84c0.57-3.11,1.16-6.2,2-9.27,0.4-1.54.84-3.07,1.4-4.58a16.54,16.54,0,0,1,2.28-4.44,4.45,4.45,0,0,1,2.38-1.68,3.82,3.82,0,0,1,3,.61,14.46,14.46,0,0,1,3.49,3.62l5.41,7.72,10.86,15.36q5.42,7.69,10.76,15.45c1.77,2.6,3.53,5.19,5.25,7.84s3.31,5.38,4.85,8.12c3.09,5.47,6.06,11,9,16.57s5.77,11.15,8.57,16.77c1.39,2.81,2.78,5.63,4.12,8.47s2.69,5.65,3.83,8.71a48.28,48.28,0,0,1,1.92,9.41,85.7,85.7,0,0,1,.81,9.45h0l-0.09.66-0.68.23-56.59,20.43Zm1.37-1.51L590.58,256l-0.58.89h0a83.54,83.54,0,0,0-.73-9.3,46.31,46.31,0,0,0-1.75-9c-1.06-2.81-2.44-5.68-3.77-8.5s-2.73-5.63-4.12-8.44q-4.19-8.41-8.58-16.72c-2.92-5.54-5.88-11.06-9-16.5-1.53-2.73-3.11-5.4-4.79-8s-3.46-5.21-5.22-7.8q-5.3-7.75-10.73-15.44L530.5,141.79l-5.39-7.69a12.9,12.9,0,0,0-3-3.14,2,2,0,0,0-1.51-.38,2.65,2.65,0,0,0-1.35,1,14.91,14.91,0,0,0-2,3.91c-0.53,1.43-1,2.91-1.35,4.41-0.79,3-1.38,6.06-1.94,9.12a121.1,121.1,0,0,0-1.84,18.56,187.1,187.1,0,0,0,.63,18.7c0.48,6.24,1.13,12.46,1.81,18.7,1.39,12.37,4.72,24.49,8.44,36.42,1.88,6,3.94,11.88,6.08,17.76Q532.22,267.58,535.64,275.86Z"/><path class="cls-5" d="M684.94,360.13s18.32-3.1,24.52-19.87S719,265.15,630,261c0,0-27.62,38.24-15.49,80.42C614.47,341.43,650.87,345.16,684.94,360.13Z"/><path d="M684.84,360.93l-0.21-.09c-33.57-14.75-69.87-18.59-70.23-18.63l-0.52-.05-0.14-.5c-12.09-42.05,15.32-80.7,15.6-81.08l0.25-.34,0.42,0c36.23,1.68,61.1,12.34,73.92,31.68,12.3,18.55,9.47,39.9,6.26,48.59-6.28,17-24.93,20.34-25.12,20.37Zm-69.76-20.21c4.59,0.53,38.43,4.8,69.95,18.6,2.07-.42,18.1-4.17,23.7-19.34,3.12-8.44,5.85-29.17-6.1-47.2-12.48-18.83-36.8-29.25-72.28-31C627.7,265.68,604.14,301.68,615.08,340.72Z"/><path class="cls-5" d="M630,261s-68.65-7.74-99.88,19.87c0,0-20.65,16.26-24.26,46.07,0,0,33.92-4.42,64.58,16.7,0,0,22.69-3.62,44.08-2.22,0,0-4.61-15.83-3.08-28.51S616.6,280.92,630,261Z"/><path class="cls-5" d="M505.82,327l-8.05,1.23s1.93-10.78,5-17.62,9.13-18.17,17.24-27.12a141.74,141.74,0,0,1,22.18-12.11c13.42-5.94,32.4-9.1,40.38-9.88,0,0-38.06,4.84-52.51,19.43S511.37,302.18,505.82,327Z"/><path class="cls-5" d="M684.94,360.13s19,5,29.23-4.52,12.27-27.27,10.59-38.51S708.47,276.83,667.38,267c0,0,38.64,10.13,44,46.59S693.07,358.45,684.94,360.13Z"/><path class="cls-5" d="M641.74,253.49a52.82,52.82,0,0,1,23.19-5.76c9.68-.16,14.71,2.58,15.49,4.65s2.84,8.21-3.61,9.85-33.38-3.44-33.38-3.44,22.8,3.27,27.7,0,1.29-7.61-5.55-6.84-18.53,2-22.69,4.86Z"/><path d="M641.36,252.81a42.52,42.52,0,0,1,5-2.34c1.71-.67,3.46-1.25,5.22-1.76a54.62,54.62,0,0,1,5.38-1.2c1.81-.32,3.65-0.52,5.48-0.66,0.93,0,1.83-.1,2.77-0.11s1.81,0,2.76,0a34.55,34.55,0,0,1,5.55.68,17.9,17.9,0,0,1,5.4,2,6,6,0,0,1,2.34,2.3,14.54,14.54,0,0,1,.9,2.83,10,10,0,0,1,.2,3,6.21,6.21,0,0,1-1.12,3,6.13,6.13,0,0,1-2.5,2,8.31,8.31,0,0,1-1.44.53l-0.18.06h-0.07l-0.1,0H676.9l-0.33.05-0.67.11a11.92,11.92,0,0,1-1.44.11c-0.49,0-1,.05-1.44,0-0.93,0-1.85,0-2.77-.09-1.84-.09-3.65-0.26-5.46-0.48-7.24-.83-14.38-2.06-21.5-3.48h0l0.25-1.53a137.63,137.63,0,0,0,16.08,1.69,45.91,45.91,0,0,0,8-.27,13.76,13.76,0,0,0,1.92-.42,4.48,4.48,0,0,0,1.67-.82,4.13,4.13,0,0,0,.74-0.62c0.1-.11.22-0.21,0.31-0.32l0.26-.37a2.21,2.21,0,0,0,.39-1.63,3.53,3.53,0,0,0-2.49-2.36,10,10,0,0,0-3.82-.51c-1.29.06-2.67,0.29-4,.43s-2.68.34-4,.53-2.67.4-4,.63-2.65.48-4,.79a38.73,38.73,0,0,0-3.84,1.09,13.77,13.77,0,0,0-3.46,1.63h0l-0.86.53-0.31-.92-1.36-4Zm1.33,1.08,0.93,2.7-1.17-.39h0a15.08,15.08,0,0,1,3.92-1.68,40,40,0,0,1,4-1c2.68-.53,5.37-0.93,8.07-1.25l4-.46c1.36-.13,2.65-0.34,4.07-0.4a10.93,10.93,0,0,1,4.17.6,6.05,6.05,0,0,1,1.88,1.09,3.48,3.48,0,0,1,1.15,2c0.27,1.66-1,3-2,3.79a5.39,5.39,0,0,1-1.94,1,14.67,14.67,0,0,1-2,.46,50.69,50.69,0,0,1-8.19.37c-2.72,0-5.44-.2-8.14-0.41s-5.41-.45-8.12-0.76l0.25-1.54h0c3.55,1,7.13,1.16,10.7,1.66s7.15,1,10.72,1.33c0.89,0.1,1.79.17,2.68,0.24s1.78,0.14,2.67.18,1.77,0.06,2.66.07c0.45,0,.86,0,1.27,0a8.93,8.93,0,0,0,1.26-.1l0.67-.11,0.33-.05h0.08l0.14,0a6.24,6.24,0,0,0,1.1-.41,4,4,0,0,0,1.67-1.34,5.52,5.52,0,0,0,.55-4.37,12.87,12.87,0,0,0-.71-2.34,4.06,4.06,0,0,0-1.51-1.42,15.93,15.93,0,0,0-4.74-1.76,32.56,32.56,0,0,0-5.2-.69c-0.86-.05-1.76-0.07-2.67-0.07s-1.77.06-2.65,0.08c-1.77.12-3.54,0.3-5.29,0.59s-3.49.67-5.22,1.1-3.43,1-5.1,1.57A42.9,42.9,0,0,0,642.7,253.89Z"/><path class="cls-5" d="M618,248.24s-18.71-13.55-36.26-5.42-15.1,13-13.81,14.58,12,7.12,23,1.17c0,0,.68-4.43,13.55-6.46,0,0-20.78,5.29-25,4.65s-7.61-3.1-4.39-5.16,18.07-7.87,31.36.13c0,0,4.2-1.73,10.36.3Z"/><path d="M617,248.59c-1.3-.81-2.67-1.56-4-2.25-0.78-.39-1.57-0.74-2.36-1.1s-1.6-.67-2.41-1-1.63-.59-2.46-0.84l-2.49-.71-2.52-.57-2.54-.38a31.61,31.61,0,0,0-5.1-.2l-1.27,0c-0.42,0-.84.11-1.26,0.16a23.92,23.92,0,0,0-2.5.41l-2.45.63c-0.8.26-1.57,0.6-2.36,0.9-0.38.16-.8,0.3-1.15,0.47l-1.19.58c-0.79.39-1.61,0.77-2.35,1.19-1.51.8-3,1.67-4.43,2.61a24.35,24.35,0,0,0-3.88,3.12,5.29,5.29,0,0,0-1.8,3.54,2.12,2.12,0,0,0,.7,1.43,11.51,11.51,0,0,0,1.86,1.13,20.58,20.58,0,0,0,4.68,1.65,21.63,21.63,0,0,0,10,.11,19.68,19.68,0,0,0,2.44-.68c0.8-.27,1.58-0.63,2.38-0.94l-0.4.56h0a3.34,3.34,0,0,1,.53-1.18,5.65,5.65,0,0,1,.7-0.87,7.16,7.16,0,0,1,.79-0.72,9.77,9.77,0,0,1,.84-0.62c0.28-.21.59-0.36,0.88-0.54s0.6-.32.9-0.47c0.6-.32,1.24-0.54,1.85-0.8s1.26-.45,1.9-0.63,1.27-.38,1.92-0.51,1.29-.31,1.93-0.42l1.94-.35h0l0.31,1.52c-2.76.63-5.51,1.21-8.28,1.78s-5.52,1.14-8.31,1.63c-1.39.24-2.78,0.48-4.19,0.67a20.42,20.42,0,0,1-4.32.26,9.18,9.18,0,0,1-1.07-.18c-0.36-.09-0.72-0.16-1.06-0.28a10,10,0,0,1-2-.84,4.64,4.64,0,0,1-1.74-1.51,2,2,0,0,1-.31-1.27,2.31,2.31,0,0,1,.58-1.14,4.76,4.76,0,0,1,.91-0.76c0.31-.17.59-0.36,0.93-0.52,0.65-.34,1.31-0.63,2-0.9a35,35,0,0,1,4.05-1.35c0.68-.2,1.38-0.36,2.08-0.5s1.4-.28,2.1-0.38,1.41-.21,2.12-0.27l1.06-.11,1.07,0a20.37,20.37,0,0,1,2.14,0c0.71,0,1.43,0,2.14.12s1.43,0.14,2.13.26l2.11,0.41a29.17,29.17,0,0,1,4.12,1.29,32.8,32.8,0,0,1,3.92,1.84h0L606,251a7.45,7.45,0,0,1,.71-0.23l0.68-.17a13.71,13.71,0,0,1,1.37-.23,17.73,17.73,0,0,1,2.76-.1,19.49,19.49,0,0,1,2.72.32,22.41,22.41,0,0,1,2.65.68l-1,.49Zm1.84-.64-1.44,4.32-0.24.72-0.74-.23a20.87,20.87,0,0,0-2.45-.63,17.94,17.94,0,0,0-2.5-.3,16.2,16.2,0,0,0-2.5.09,12.15,12.15,0,0,0-1.23.2l-0.59.15-0.54.17-0.36.14-0.34-.19h0a31.39,31.39,0,0,0-3.65-1.89,27.87,27.87,0,0,0-3.88-1.38l-2-.46c-0.68-.13-1.37-0.19-2.05-0.29s-1.38-.11-2.07-0.16a19.47,19.47,0,0,0-2.08,0h-1l-1,.08c-0.69,0-1.39.11-2.07,0.22s-1.38.2-2.05,0.36-1.36.28-2,.47a34.15,34.15,0,0,0-4,1.29c-0.64.27-1.28,0.54-1.88,0.84-0.3.14-.61,0.34-0.92,0.51a4.07,4.07,0,0,0-.71.59,1.51,1.51,0,0,0-.38.7,1.17,1.17,0,0,0,.19.74,3.73,3.73,0,0,0,1.43,1.2,9.21,9.21,0,0,0,1.87.75c0.33,0.11.65,0.17,1,.25a8.47,8.47,0,0,0,1,.16,20,20,0,0,0,4.09-.29c1.38-.2,2.76-0.43,4.14-0.71,5.5-1.1,11-2.47,16.37-4l0.31,1.52h0l-1.89.34c-0.63.11-1.25,0.27-1.87,0.41s-1.23.33-1.84,0.49-1.2.4-1.8,0.59-1.17.45-1.72,0.74c-0.28.14-.56,0.26-0.82,0.43s-0.54.3-.78,0.48a8.37,8.37,0,0,0-.72.53,5.68,5.68,0,0,0-.65.59,4.15,4.15,0,0,0-.52.65,2.46,2.46,0,0,0-.29.57h0l-0.4.56c-0.81.43-1.59,0.93-2.44,1.28a21.63,21.63,0,0,1-2.6,1,20.89,20.89,0,0,1-5.49.94,23.72,23.72,0,0,1-10.93-2.14,11.83,11.83,0,0,1-2.65-1.65,5,5,0,0,1-1.57-3.23,5.89,5.89,0,0,1,.79-3.35,13.06,13.06,0,0,1,.85-1.31c0.32-.38.65-0.75,1-1.12a27,27,0,0,1,4.39-3.5c1.54-1,3.11-1.89,4.74-2.73,0.81-.45,1.6-0.8,2.4-1.19l1.2-.57c0.45-.21.87-0.35,1.31-0.52,0.87-.32,1.73-0.69,2.61-1l2.7-.66a26.48,26.48,0,0,1,2.75-.38c0.46,0,.92-0.12,1.38-0.14H593a34.09,34.09,0,0,1,5.48.36l2.69,0.48,2.64,0.67c0.87,0.25,1.73.56,2.59,0.84s1.68,0.66,2.53,1,1.64,0.75,2.47,1.12,1.61,0.81,2.4,1.25a41.94,41.94,0,0,1,4.58,2.9Z"/><path class="cls-5" d="M684.94,360.13s-0.53,13.25-31.11,25.6a123,123,0,0,1-42.41,9s-10.51-32.92-41-51C570.4,343.66,618.35,332.51,684.94,360.13Z"/><path class="cls-5" d="M618,248.24s-3.1,7.16-1.55,11.78l27.76,2.2s-2.33-14.62-9.17-17.46Z"/><path d="M618.53,249a27.81,27.81,0,0,0-1.5,5.21c-0.08.48-.16,1-0.2,1.44a14,14,0,0,0-.07,1.43c0,0.24,0,.47,0,0.71a4.46,4.46,0,0,0,.07.69,5.93,5.93,0,0,0,0,.68l0.1,0.66h0l-0.6-.53c2.32,0.07,4.68.2,7,.34s4.65,0.31,7,.52,4.63,0.15,6.94.39,4.62,0.51,6.93.51h0l-0.82,1.12a45.5,45.5,0,0,0-1.13-4.76c-0.23-.8-0.48-1.54-0.76-2.33-0.13-.4-0.29-0.75-0.44-1.14s-0.3-.76-0.47-1.14-0.32-.76-0.51-1.12l-0.56-1.1c-0.2-.36-0.42-0.7-0.63-1a9.5,9.5,0,0,0-.69-1,6.83,6.83,0,0,0-.76-0.93,7.52,7.52,0,0,0-.83-0.84c-0.31-.23-0.6-0.5-0.92-0.71l-1-.54h0l0.45,0a77.44,77.44,0,0,1-8.43,2.17A74.38,74.38,0,0,1,618.53,249Zm-0.73-1.47a72.41,72.41,0,0,1,8.43-2.17,77.49,77.49,0,0,1,8.6-1.31l0.34,0,0.11,0.07h0l1.24,0.67c0.39,0.25.73,0.56,1.1,0.85a9,9,0,0,1,1,1,8.05,8.05,0,0,1,.85,1,10.78,10.78,0,0,1,.76,1.1c0.23,0.38.47,0.75,0.68,1.13l0.6,1.17c0.2,0.39.36,0.79,0.54,1.19s0.35,0.8.5,1.21,0.32,0.81.45,1.22q0.43,1.23.79,2.47a48.8,48.8,0,0,1,1.18,5.05l0.17,1-1-.08h0c-2.32-.1-4.64-0.22-7-0.37s-4.63-.33-6.94-0.49-4.62-.39-6.94-0.58-4.62-.46-6.92-0.76l-0.41-.07,0.06-.45h0l-0.38-.8a7.83,7.83,0,0,1-.22-0.81,5.77,5.77,0,0,1-.12-0.81c0-.27-0.06-0.54,0-0.8a15.51,15.51,0,0,1,.07-1.58c0-.52.12-1,0.21-1.56a26.65,26.65,0,0,1,.72-3,29.49,29.49,0,0,1,1-2.93l0.13-.31Z"/><path class="cls-5" d="M513.82,327A104.14,104.14,0,1,0,618,431.1,104.14,104.14,0,0,0,513.82,327Zm0,199.85a95.7,95.7,0,1,1,95.7-95.7A95.7,95.7,0,0,1,513.82,526.8Z"/><path d="M513.84,327.92L512,328c-1.23.05-3.1,0-5.44,0.23a98.33,98.33,0,0,0-20.23,3.45l-3.28.94-3.4,1.15c-1.17.37-2.33,0.85-3.52,1.32s-2.42.92-3.63,1.5a99,99,0,0,0-15.18,8.23,104.15,104.15,0,0,0-29.28,29,105.36,105.36,0,0,0-10.81,21,102.9,102.9,0,0,0-5.91,24.6c-0.16,1.08-.22,2.17-0.31,3.26L410.74,426l-0.08,3.32,0,1.67c0,0.51,0,1.11,0,1.66l0.09,3.39c0,1.13.16,2.24,0.23,3.36,0.12,2.24.47,4.5,0.74,6.77a102,102,0,0,0,2.93,13.53c0.59,2.26,1.41,4.46,2.15,6.69,0.41,1.1.86,2.2,1.29,3.3l0.65,1.65,0.73,1.62a103.6,103.6,0,0,0,37.28,44.18A102.67,102.67,0,0,0,483.87,530a102.59,102.59,0,0,0,14.8,3.29,113.6,113.6,0,0,0,15.15,1.08c2.5-.1,5.12-0.07,7.61-0.33,1.26-.11,2.51-0.15,3.77-0.33l3.77-.48a107,107,0,0,0,14.78-3.31,102.78,102.78,0,0,0,27.14-12.8,103.57,103.57,0,0,0,37.27-44.17l0.73-1.62,0.65-1.65c0.43-1.1.88-2.19,1.29-3.3,0.74-2.24,1.56-4.43,2.15-6.69a102,102,0,0,0,2.93-13.53c0.28-2.27.62-4.52,0.74-6.78,0.08-1.13.19-2.25,0.23-3.37l0.08-3.36,0-1.65,0-1.68-0.09-3.35-0.24-3.28c-0.09-1.09-.14-2.17-0.31-3.25a102.89,102.89,0,0,0-5.91-24.6,105.35,105.35,0,0,0-10.81-21,104.13,104.13,0,0,0-29.27-29,99,99,0,0,0-15.18-8.23c-1.21-.58-2.44-1-3.63-1.5s-2.35-.95-3.52-1.31l-3.4-1.15-3.28-.94a98.45,98.45,0,0,0-20.24-3.47c-2.36-.23-4.19-0.18-5.41-0.24l-1.86,0h0Zm0-1.92,1.89,0c1.25,0.06,3.11,0,5.52.24a100.09,100.09,0,0,1,20.63,3.51l3.34,1,3.46,1.17c1.19,0.38,2.37.86,3.58,1.34s2.47,0.94,3.69,1.53a100.9,100.9,0,0,1,15.47,8.39,106.06,106.06,0,0,1,29.81,29.53,107.27,107.27,0,0,1,11,21.43,104.81,104.81,0,0,1,6,25.06c0.16,1.09.22,2.21,0.31,3.33l0.24,3.36,0.08,3.35,0,1.68c0,0.61,0,1.15,0,1.73l-0.09,3.42c0,1.14-.16,2.29-0.24,3.43-0.12,2.3-.48,4.59-0.76,6.9a103.87,103.87,0,0,1-3,13.78c-0.6,2.3-1.44,4.54-2.19,6.82-0.42,1.12-.87,2.24-1.31,3.36L610.64,472l-0.75,1.65a105.45,105.45,0,0,1-38,45A104.55,104.55,0,0,1,529.23,535a112.24,112.24,0,0,1-15.41,1.11,105.06,105.06,0,0,1-96.06-62.47L417,472l-0.66-1.68c-0.44-1.12-.89-2.23-1.31-3.36-0.75-2.28-1.59-4.51-2.19-6.81a103.88,103.88,0,0,1-3-13.78c-0.28-2.31-.63-4.6-0.76-6.91-0.08-1.15-.2-2.31-0.24-3.44l-0.09-3.39c0-.57,0-1.1,0-1.71l0-1.7,0.09-3.38,0.25-3.35c0.09-1.11.15-2.22,0.31-3.32a104.79,104.79,0,0,1,6-25.06,107.25,107.25,0,0,1,11-21.43,106,106,0,0,1,29.81-29.52,100.89,100.89,0,0,1,15.46-8.39c1.23-.59,2.48-1,3.69-1.53s2.39-1,3.58-1.34l3.46-1.17,3.34-1a100.21,100.21,0,0,1,20.64-3.52c2.43-.23,4.25-0.19,5.49-0.24l1.88,0h0Z"/><path d="M513.79,527.77l-1.72,0c-1.14-.05-2.81,0-5-0.22a92.16,92.16,0,0,1-19-3.24,95.9,95.9,0,0,1-27.17-12.31,97.52,97.52,0,0,1-27.41-27.15,98.63,98.63,0,0,1-10.12-19.71,96.37,96.37,0,0,1-5.53-23c-0.15-1-.21-2-0.29-3.05l-0.23-3.08-0.08-3.11,0-1.56c0-.57,0-1,0-1.58l0.08-3.12c0-1,.15-2.11.22-3.17,0.12-2.13.44-4.23,0.7-6.36A95.52,95.52,0,0,1,421,404.36c0.55-2.12,1.32-4.17,2-6.27,0.38-1,.8-2.06,1.21-3.09l0.61-1.55,0.69-1.52a96.61,96.61,0,0,1,88.34-57.45,103,103,0,0,1,14.17,1,100.07,100.07,0,0,1,13.84,3.09,96.25,96.25,0,0,1,25.42,12,97,97,0,0,1,34.92,41.35l0.69,1.52,0.61,1.55c0.4,1,.82,2.05,1.21,3.09,0.69,2.09,1.46,4.15,2,6.27A95.57,95.57,0,0,1,609.44,417c0.26,2.12.58,4.23,0.7,6.35,0.07,1.06.18,2.11,0.22,3.16l0.08,3.15c0,0.53,0,1,0,1.59l0,1.55-0.08,3.08L610.13,439c-0.08,1-.14,2.06-0.29,3.06a96.38,96.38,0,0,1-5.53,23,98.64,98.64,0,0,1-10.12,19.71A97.54,97.54,0,0,1,566.78,512a95.82,95.82,0,0,1-46.15,15.54c-2.22.21-3.92,0.17-5.07,0.22l-1.74,0h0Zm0-1.92,1.71,0c1.13-.05,2.8,0,5-0.22a90.4,90.4,0,0,0,18.59-3.19,94,94,0,0,0,26.63-12.05,95.61,95.61,0,0,0,26.88-26.61,96.75,96.75,0,0,0,9.93-19.31,94.47,94.47,0,0,0,5.42-22.59c0.15-1,.2-2,0.28-3l0.22-3,0.08-3.08,0-1.55,0-1.51-0.08-3.08c0-1-.15-2.06-0.21-3.1-0.11-2.07-.43-4.14-0.68-6.22a93.64,93.64,0,0,0-2.69-12.42c-0.54-2.07-1.3-4.09-2-6.14-0.38-1-.79-2-1.18-3l-0.6-1.52-0.67-1.49a95.1,95.1,0,0,0-34.22-40.56,94.29,94.29,0,0,0-38.5-14.79,108.31,108.31,0,0,0-13.9-1,104.31,104.31,0,0,0-13.91,1,93.87,93.87,0,0,0-13.59,3,94.26,94.26,0,0,0-24.91,11.82,95.13,95.13,0,0,0-34.23,40.56l-0.67,1.49-0.6,1.52c-0.39,1-.81,2-1.18,3-0.68,2.05-1.43,4.07-2,6.15a93.64,93.64,0,0,0-2.69,12.42c-0.25,2.08-.57,4.15-0.68,6.21-0.07,1-.18,2-0.22,3.09l-0.08,3.12,0,1.53,0,1.53,0.08,3,0.22,3c0.08,1,.13,2,0.28,3a94.49,94.49,0,0,0,5.42,22.59A96.76,96.76,0,0,0,435,483.75a95.63,95.63,0,0,0,26.88,26.61,94.2,94.2,0,0,0,45.21,15.23c2.15,0.21,3.87.16,5,.21l1.72,0h0Z"/><path d="M667,267.85V268h0.18l0-.19-0.13,0Z"/><path d="M726.36,322.49a35.73,35.73,0,0,0-1.5-9.63,47.52,47.52,0,0,0-3.86-8.93c-0.39-.71-0.77-1.42-1.18-2.12l-1.3-2c-0.83-1.38-1.82-2.66-2.78-4s-2-2.51-3-3.74-2.17-2.37-3.29-3.52c-0.57-.57-1.11-1.16-1.71-1.7l-1.81-1.59-1.81-1.59c-0.6-.53-1.27-1-1.9-1.48l-1.92-1.46a21.65,21.65,0,0,0-2-1.39l-4-2.61c-1.38-.81-2.82-1.53-4.22-2.3-0.71-.37-1.4-0.78-2.13-1.11l-2.2-1c-1.47-.63-2.91-1.34-4.41-1.9l-4.52-1.6a44.62,44.62,0,0,0-4.59-1.39l-0.45-.12c-1.35-.41-2.74-0.64-4.18-1l-0.33,1.46c0.42,0.11.86,0.21,1.27,0.34,6.76,2.21,37,13.79,42,45.39,0,0.05,0,.09,0,0.14,0.15,1.31.36,2.64,0.47,3.94a64.13,64.13,0,0,1,.26,7.84,49.35,49.35,0,0,1-.86,7.78,38.07,38.07,0,0,1-2.3,7.44,31.11,31.11,0,0,1-6.45,9.62,37.55,37.55,0,0,1-16.71,9c-2.15-1-4.33-1.88-6.5-2.82-1.12-.49-2.26-0.95-3.4-1.42s-2.27-.94-3.43-1.33q-3.46-1.24-6.95-2.44l-3.49-1.19-3.54-1-7.1-2c-2.38-.6-4.79-1.1-7.18-1.65l-3.59-.81c-1.2-.27-2.42-0.45-3.62-0.68l-7.25-1.29-7.3-1c-2.13-.33-4.29-0.47-6.44-0.65-0.7-3.35-1.26-6.76-1.71-10.15a97.59,97.59,0,0,1-.86-10.34V318l0.1-2.56,0.25-2.53,0.33-2.61c0.23-1.72.49-3.44,0.78-5.16s0.62-3.42,1-5.13,0.75-3.4,1.21-5.08,0.93-3.35,1.42-5,1-3.33,1.61-5,1.21-3.26,1.83-4.89,1.33-3.22,2.08-4.79l1.1-2.37c0.37-.79.78-1.56,1.17-2.34,0.76-1.57,1.63-3.08,2.48-4.61s1.78-3,2.67-4.51l0.63-1.08-1.19-.12c-6.58-.66-13.15-0.92-19.73-1s-13.17.14-19.74,0.66c-2.69.21-5.38,0.48-8.07,0.8l0-.14c-1.35.19-2.69,0.41-4,.64a74.68,74.68,0,0,0-7.47,1.23h0c-1.91.38-3.82,0.78-5.71,1.22a145.61,145.61,0,0,0-15.63,4c-1.33.46-2.66,0.91-4,1.43s-2.59,1-3.9,1.6q-3.84,1.71-7.59,3.63t-7.39,4c-2.43,1.42-4.81,2.87-7.15,4.48l-0.06,0-0.05.06a89.05,89.05,0,0,0-7.78,10.09A119.37,119.37,0,0,0,505.25,304c-1,1.87-1.94,3.78-2.83,5.7a49.87,49.87,0,0,0-2.3,6c-0.65,2-1.21,4.08-1.72,6.14s-1,4.12-1.4,6.22h0l-0.19,1.07,1.07-.16,7-1.07V328h0l0.95-.18,4.26,0.12,0.07-.48c1.38-.07,2.76-0.07,4.14-0.08s2.81,0.05,4.21.11,2.81,0.15,4.21.29,2.8,0.27,4.19.45l4.17,0.62,4.14,0.8c1.39,0.24,2.74.65,4.1,1l2,0.51c0.68,0.18,1.34.41,2,.61,1.34,0.42,2.69.81,4,1.26l3.95,1.48c1.33,0.46,2.6,1.07,3.88,1.65s2.58,1.11,3.82,1.77l3.71,2A39.69,39.69,0,0,1,566.4,342l2,1.28,1.59,1h0l3.47,2.25,1.73,1.12c0.57,0.38,1.1.83,1.66,1.24l3.29,2.5c1.07,0.87,2.08,1.81,3.12,2.71l1.55,1.37c0.51,0.47,1,1,1.47,1.45l2.91,2.93,2.74,3.1c0.94,1,1.76,2.12,2.62,3.2s1.73,2.15,2.5,3.29,1.62,2.23,2.38,3.39l2.24,3.48,2.09,3.57,2,3.64c0.61,1.24,1.23,2.45,1.81,3.71s1.15,2.48,1.66,3.76,1,2.51,1.46,3.78l0.19,0.45,0.57-.26h0c1.79,0,3.58.14,5.36,0s3.57,0,5.35-.22,3.56-.41,5.33-0.68,3.53-.6,5.29-0.93a115.36,115.36,0,0,0,20.65-6l4.93-2.1c1.67-.67,3.25-1.53,4.88-2.3s3.16-1.72,4.74-2.58c0.8-.42,1.53-1,2.3-1.43s1.53-1,2.26-1.49a52.1,52.1,0,0,0,4.29-3.35l1-.89,1-1a24.39,24.39,0,0,0,1.87-2l0.89-1,0.82-1.11a23.72,23.72,0,0,0,1.49-2.34,20.58,20.58,0,0,0,1.16-2.55,11.63,11.63,0,0,0,.54-1.93,47.22,47.22,0,0,0,8.72,1.3,39.34,39.34,0,0,0,9.73-.63,24.16,24.16,0,0,0,9.14-3.85c0.67-.55,1.31-1,2-1.63l1.67-1.69,1.59-2c0.5-.67.92-1.37,1.39-2.05a40,40,0,0,0,4-8.9,51.6,51.6,0,0,0,2.07-9.49A60,60,0,0,0,726.36,322.49Zm-221.27,3.79-6.36,1a97.89,97.89,0,0,1,2.73-11.13,48.5,48.5,0,0,1,2.21-5.83c0.87-1.91,1.8-3.79,2.77-5.65a118,118,0,0,1,6.43-10.81,87.75,87.75,0,0,1,7.63-9.86c2.25-1.54,4.61-3,7-4.36s4.85-2.72,7.33-4c0.89-.45,1.78-0.88,2.68-1.32l-0.44.3-0.5.3a42.15,42.15,0,0,0-5.65,4.13c-0.43.4-.86,0.8-1.27,1.21l-0.28.23c-0.32.28-.65,0.55-1,0.83-0.63.55-1.22,1.13-1.82,1.71a70.83,70.83,0,0,0-6.55,7.48c-1,1.31-2,2.66-2.89,4h0c-0.66,1-1.28,1.94-1.9,2.92s-1.2,2-1.7,3l-0.07.15c-0.44.82-.88,1.64-1.3,2.47-0.68,1.51-1.45,3-2,4.53L509.2,310c-0.31.77-.61,1.54-0.84,2.34l-0.74,2.37c-0.25.79-.51,1.58-0.68,2.39-0.36,1.62-.84,3.22-1.13,4.85Zm62.13,14.44a40.76,40.76,0,0,0-3.68-2.19l-3.78-2c-1.26-.67-2.59-1.2-3.88-1.8s-2.59-1.21-3.94-1.67l-4-1.51c-1.35-.46-2.72-0.85-4.09-1.28-0.68-.2-1.36-0.44-2-0.62l-2.08-.52c-1.39-.32-2.76-0.74-4.17-1l-4.2-.81-4.23-.63c-1.41-.18-2.84-0.3-4.26-0.46s-2.85-.2-4.27-0.3-2.85-.1-4.28-0.12-2.58,0-3.87.06c1.28-6.47,8.2-35.35,32.13-52.44l0.76-.37A100.82,100.82,0,0,1,556,268.21c4.34-1.36,8.76-2.47,13.21-3.46s8.95-1.75,13.44-2.37l0-.13c2.67-.32,5.34-0.59,8-0.8,6.52-.52,13.06-0.69,19.6-0.66,6.1,0.06,12.21.33,18.27,0.89-0.76,1.09-1.54,2.17-2.24,3.3-0.93,1.51-1.9,3-2.75,4.56s-1.74,3.1-2.53,4.7-1.53,3.22-2.27,4.83-1.41,3.27-2,4.95-1.22,3.35-1.81,5-1.06,3.4-1.5,5.13-0.88,3.45-1.29,5.19-0.74,3.48-1.06,5.24-0.6,3.51-.85,5.28l-0.36,2.62c-0.1.91-.16,1.82-0.24,2.73L609.57,318c0,0.9,0,1.81.06,2.71,0.1,1.8.24,3.6,0.48,5.37s0.51,3.56.86,5.31,0.74,3.53,1.21,5.25c0.38,1.42.79,2.88,1.26,4.3l-2.81-.23h-0.16c-0.5,0-1-.08-1.5-0.09-1.85-.06-3.7-0.24-5.55-0.24h-0.31c-1.18,0-2.36,0-3.53,0l-3.68,0c-1.23,0-2.46.07-3.68,0.1s-2.46.07-3.68,0.16l-3.68.27c-1.23.07-2.45,0.22-3.67,0.35s-2.45.25-3.66,0.44c-2.33.31-4.64,0.71-7,1.23Zm116.23,21.66a18.81,18.81,0,0,1-1.17,2.24,24.12,24.12,0,0,1-1.48,2.09l-0.79,1-0.87,1a22.5,22.5,0,0,1-1.83,1.83l-0.94.89-1,.82c-1.31,1.13-2.74,2.13-4.15,3.15-0.71.5-1.47,0.94-2.2,1.42s-1.46,1-2.24,1.36l-2.3,1.27-1.15.64-1.18.58c-1.58.76-3.12,1.61-4.75,2.27L652.52,385c-1.61.67-3.26,1.28-4.92,1.86s-3.34,1.12-5,1.61-3.38,1-5.09,1.42-3.42.84-5.14,1.22-3.45.72-5.19,1-3.48.6-5.23,0.82-3.5.44-5.26,0.63c-1.56.16-3.14,0.36-4.71,0.4-0.41-1.18-.84-2.35-1.32-3.48-0.53-1.3-1.11-2.58-1.69-3.85s-1.22-2.52-1.84-3.78l-2-3.7L603,375.56,600.73,372c-0.76-1.17-1.61-2.29-2.41-3.44s-1.67-2.25-2.54-3.34-1.71-2.22-2.66-3.25l-2.78-3.15-3-3c-0.5-.49-1-1-1.49-1.48L584.3,353c-1.06-.92-2.09-1.87-3.17-2.76l-3.35-2.55c-0.56-.42-1.1-0.87-1.69-1.26l-1.77-1.15-1.76-1.14q4.36-.61,8.75-1.06h0c1.21-.1,2.42-0.2,3.63-0.24l3.64-.16c1.21,0,2.43,0,3.64-.05s2.43-.05,3.64,0l3.64,0.08c1.21,0,2.43,0,3.64.1l3.63,0.22,3.63,0.22,3.62,0.37,3.62,0.37c1.21,0.1,2.41.26,3.61,0.44l7.21,1,7.16,1.32c1.19,0.23,2.39.41,3.57,0.69l3.55,0.82c2.36,0.56,4.74,1.07,7.09,1.67l7,2,3.51,1,3.47,1.1c2.31,0.75,4.63,1.46,7,2.17s4.58,1.62,6.89,2.39L682,360l-0.38.08,0.3,0.08,2,0.84A11.6,11.6,0,0,1,683.45,362.38Zm40.22-30.5a49.3,49.3,0,0,1-2,9.06,37.67,37.67,0,0,1-3.84,8.35c-0.43.62-.83,1.29-1.28,1.88l-1.39,1.73-1.65,1.71c-0.48.44-1.13,0.92-1.68,1.38a21.86,21.86,0,0,1-8.23,3.54,37.52,37.52,0,0,1-9.18.84c-1.29,0-2.59-.13-3.88-0.26,8.14-1.61,22.77-6.38,26.15-20.2,4.73-19.31-3.26-38.44-6.71-43.22l-0.77-1.1a74.8,74.8,0,0,0-15.53-16.93l3.52,2.31a20.72,20.72,0,0,1,1.91,1.37l1.86,1.43c0.61,0.49,1.26.93,1.85,1.45l1.75,1.56,1.75,1.56c0.58,0.53,1.1,1.11,1.65,1.66,1.08,1.13,2.21,2.21,3.18,3.44s2.06,2.35,2.94,3.64,1.87,2.5,2.67,3.84l1.25,2c0.39,0.67.75,1.36,1.12,2a45.52,45.52,0,0,1,3.64,8.51,33.53,33.53,0,0,1,1.37,9.11A57.72,57.72,0,0,1,723.67,331.88Z"/><path class="cls-2" d="M449.29,458.46l11.61,31.23s-5.42,6.19-11.61,0-12.13-11.87-13.68-17.55a12,12,0,0,1,5.68-13.68C445.94,455.62,449.29,458.46,449.29,458.46Z"/><path d="M450,458.19c3.87,10.41,7.69,20.84,11.61,31.23l0.17,0.44-0.31.34h0a9.57,9.57,0,0,1-3.24,2.56,7.64,7.64,0,0,1-4.23.78,8.61,8.61,0,0,1-4-1.56,14.74,14.74,0,0,1-1.63-1.31l-1.36-1.3c-0.91-.87-1.79-1.76-2.68-2.65s-1.77-1.8-2.63-2.74a48.57,48.57,0,0,1-4.82-6,21.28,21.28,0,0,1-1.89-3.53,16.22,16.22,0,0,1-.69-2l-0.2-.92c-0.06-.32-0.11-0.71-0.16-1.06a12.82,12.82,0,0,1,1.78-8,14.05,14.05,0,0,1,4.22-4.38c0.31-.19.53-0.34,0.9-0.55l0.84-.43a8.5,8.5,0,0,1,4.18-.78,7.16,7.16,0,0,1,3.93,1.57l0.15,0.12Zm-1.36.79a6,6,0,0,0-2.9-.85,6.65,6.65,0,0,0-3.1.76l-0.81.47-0.67.48a15.39,15.39,0,0,0-1.32,1.12,11.49,11.49,0,0,0-2.08,2.69,10.34,10.34,0,0,0-1.13,3.14,10.6,10.6,0,0,0-.07,3.31c0,0.27.06,0.5,0.12,0.8l0.22,0.91a15.1,15.1,0,0,0,.56,1.54,18.57,18.57,0,0,0,1.7,3.06,45.9,45.9,0,0,0,4.61,5.63l2.57,2.69,2.61,2.68,1.3,1.35a16.52,16.52,0,0,0,1.25,1.1,6.46,6.46,0,0,0,2.82,1.33,6,6,0,0,0,3.11-.28,9.1,9.1,0,0,0,2.87-1.72h0l-0.14.78C456.4,479.61,452.5,469.31,448.66,459Z"/><path class="cls-5" d="M616.7,252s-12-4.14-25.85,6.56c0,0-1,8.51,0,13,0,0,8-14.71,27.1-11.61Z"/><path d="M616,252.65c-0.37-.1-0.74-0.2-1.14-0.27s-1.1-.17-1.65-0.24a24,24,0,0,0-3.34-.11,16,16,0,0,0-1.67.11,16.72,16.72,0,0,0-1.67.21c-0.55.1-1.11,0.16-1.65,0.3l-1.63.39-1.6.51a14.36,14.36,0,0,0-1.58.59c-0.52.22-1,.41-1.55,0.65l-1.51.76a13.18,13.18,0,0,0-1.48.82l-1.45.87c-0.48.29-.92,0.65-1.39,1l-1.38,1h0l0.29-.52c-0.18,1-.31,2.13-0.41,3.2s-0.16,2.15-.17,3.23,0,2.15.08,3.22c0,0.53.29,1.06,0.37,1.58s-0.49,1,.51,1.52h0l-1.63-.2a17.24,17.24,0,0,1,1-1.72c0.4-.55.78-1.06,1.22-1.57s0.89-1,1.36-1.47,1-.93,1.48-1.36,1-.86,1.58-1.25,1.1-.77,1.66-1.13l1.75-1c0.59-.31,1.22-0.56,1.83-0.84a28.69,28.69,0,0,1,3.82-1.27l2-.43c0.66-.11,1.33-0.15,2-0.23a12.7,12.7,0,0,1,2-.13h2a17.83,17.83,0,0,1,2,.06l2,0.11h0l-0.89,1Zm1.37-1.23,1.33,8.44,0.16,1.12h-1l-1.9-.34a16.87,16.87,0,0,0-1.9-.23l-1.91,0a11.66,11.66,0,0,0-1.9.1c-0.63.07-1.27,0.11-1.89,0.21l-1.86.4a27,27,0,0,0-3.6,1.19c-0.57.27-1.17,0.5-1.73,0.79l-1.65.93c-0.53.34-1,.71-1.57,1.07s-1,.79-1.49,1.18-0.93.86-1.4,1.29-0.88.92-1.29,1.39-0.81,1-1.18,1.48a16.61,16.61,0,0,0-1,1.54l-1.12,1.82-0.42-2h0c0-1.14-.21-2.26-0.26-3.37s0-2.21,0-3.32,0.08-2.2.15-3.29l0.18-3.3,0-.3,0.28-.18h0l1.43-1c0.48-.33.94-0.71,1.44-1l1.51-.92a14.13,14.13,0,0,1,1.54-.86l1.58-.79c0.53-.25,1.09-0.45,1.63-0.68a15.45,15.45,0,0,1,1.66-.61l1.69-.53,1.72-.42c0.57-.15,1.16-0.21,1.74-0.32s1.17-.16,1.76-0.22a17.25,17.25,0,0,1,1.77-.11,25.53,25.53,0,0,1,3.55.12c0.59,0.07,1.18.14,1.77,0.26a14.74,14.74,0,0,1,1.77.43Z"/><path class="cls-5" d="M641.74,258.58l58.94,7.09-5.2,13s-41.77-14.39-52.87-16.58Z"/><path d="M640.71,257.66l15.83,2.07,14.73,1.85,14.73,1.8c2.46,0.27,4.91.58,7.37,0.82s4.92,0.5,7.39.69l1,0.07-0.35,1h0a64.54,64.54,0,0,0-2.91,6.36,65.37,65.37,0,0,0-2.29,6.61l-0.17.62-0.8-.18-26.35-8.54-6.59-2.12-6.6-2.08c-2.2-.68-4.4-1.37-6.61-2-1.1-.34-2.21-0.65-3.31-1s-2.21-.56-3.31-0.84h0l-0.49-.12-0.11-.45Zm2,1.81,0.6,2.39-0.6-.57h0c1.14,0.25,2.31.46,3.43,0.75s2.26,0.54,3.38.85c2.24,0.6,4.46,1.25,6.69,1.89,4.44,1.31,8.84,2.71,13.25,4.12s8.78,2.89,13.15,4.39,8.73,3,13.07,4.62h0l-1,.44a65.44,65.44,0,0,0,2.91-6.36,64.5,64.5,0,0,0,2.29-6.61h0l0.63,1.06c-2.44-.4-4.89-0.75-7.34-1.08s-4.91-.63-7.36-0.95l-14.74-1.74L656.4,261Z"/></svg>