<svg id="Ebene_1" data-name="Ebene 1" xmlns="http://www.w3.org/2000/svg" xmlns:xlink="http://www.w3.org/1999/xlink" viewBox="0 0 926.88 487.5"><defs><style>.cls-1,.cls-4{fill:none;}.cls-2{fill:#b22234;}.cls-3{clip-path:url(#clip-path);}.cls-4{stroke:#fff;stroke-width:37.5px;}.cls-5{fill:#3c3b6e;}.cls-6{fill:#fff;}.cls-7{fill:#00247d;}.cls-8{fill:#cf142b;}</style><clipPath id="clip-path"><rect class="cls-1" width="926.88" height="488"/></clipPath></defs><title>eng</title><rect class="cls-2" width="926.25" height="487.5"/><path d="M0,56.25H926.25m0,75H0m0,75H926.25m0,75H0m0,75H926.25m0,75H0"/><g class="cls-3"><path class="cls-4" d="M0,56.25H926.25m0,75H0m0,75H926.25m0,75H0m0,75H926.25m0,75H0"/></g><rect class="cls-5" width="370.5" height="262.5"/><path class="cls-6" d="M30.88,11.25l8.82,27.14L16.61,21.61H45.14L22.06,38.39Zm0,0"/><path class="cls-6" d="M30.88,63.75l8.82,27.14L16.61,74.11H45.14L22.06,90.89Zm0,0"/><path class="cls-6" d="M30.88,116.25l8.82,27.14L16.61,126.61H45.14L22.06,143.39Zm0,0"/><path class="cls-6" d="M30.88,168.75l8.82,27.14L16.61,179.11H45.14L22.06,195.89Zm0,0"/><path class="cls-6" d="M30.88,221.25l8.82,27.14L16.61,231.61H45.14L22.06,248.39Zm0,0"/><path class="cls-6" d="M61.75,37.5l8.82,27.14L47.48,47.86H76L52.93,64.64Zm0,0"/><path class="cls-6" d="M61.75,90l8.82,27.14L47.48,100.36H76L52.93,117.14Zm0,0"/><path class="cls-6" d="M61.75,142.5l8.82,27.14L47.48,152.86H76L52.93,169.64Zm0,0"/><path class="cls-6" d="M61.75,195l8.82,27.14L47.48,205.36H76L52.93,222.14Zm0,0"/><path class="cls-6" d="M92.63,11.25l8.82,27.14L78.36,21.61h28.53L83.81,38.39Zm0,0"/><path class="cls-6" d="M92.63,63.75l8.82,27.14L78.36,74.11h28.53L83.81,90.89Zm0,0"/><path class="cls-6" d="M92.63,116.25l8.82,27.14L78.36,126.61h28.53L83.81,143.39Zm0,0"/><path class="cls-6" d="M92.63,168.75l8.82,27.14L78.36,179.11h28.53L83.81,195.89Zm0,0"/><path class="cls-6" d="M92.63,221.25l8.82,27.14L78.36,231.61h28.53L83.81,248.39Zm0,0"/><path class="cls-6" d="M123.5,37.5l8.82,27.14L109.23,47.86h28.53L114.68,64.64Zm0,0"/><path class="cls-6" d="M123.5,90l8.82,27.14-23.08-16.77h28.53l-23.08,16.77Zm0,0"/><path class="cls-6" d="M123.5,142.5l8.82,27.14-23.08-16.77h28.53l-23.08,16.77Zm0,0"/><path class="cls-6" d="M123.5,195l8.82,27.14-23.08-16.77h28.53l-23.08,16.77Zm0,0"/><path class="cls-6" d="M154.38,11.25l8.82,27.14L140.11,21.61h28.53L145.56,38.39Zm0,0"/><path class="cls-6" d="M154.38,63.75l8.82,27.14L140.11,74.11h28.53L145.56,90.89Zm0,0"/><path class="cls-6" d="M154.38,116.25l8.82,27.14-23.08-16.77h28.53l-23.08,16.77Zm0,0"/><path class="cls-6" d="M154.38,168.75l8.82,27.14-23.08-16.77h28.53l-23.08,16.77Zm0,0"/><path class="cls-6" d="M154.38,221.25l8.82,27.14-23.08-16.77h28.53l-23.08,16.77Zm0,0"/><path class="cls-6" d="M185.25,37.5l8.82,27.14L171,47.86h28.53L176.43,64.64Zm0,0"/><path class="cls-6" d="M185.25,90l8.82,27.14L171,100.36h28.53l-23.08,16.77Zm0,0"/><path class="cls-6" d="M185.25,142.5l8.82,27.14L171,152.86h28.53l-23.08,16.77Zm0,0"/><path class="cls-6" d="M185.25,195l8.82,27.14L171,205.36h28.53l-23.08,16.77Zm0,0"/><path class="cls-6" d="M216.13,11.25l8.82,27.14L201.86,21.61h28.53L207.31,38.39Zm0,0"/><path class="cls-6" d="M216.13,63.75l8.82,27.14L201.86,74.11h28.53L207.31,90.89Zm0,0"/><path class="cls-6" d="M216.13,116.25l8.82,27.14-23.08-16.77h28.53l-23.08,16.77Zm0,0"/><path class="cls-6" d="M216.13,168.75l8.82,27.14-23.08-16.77h28.53l-23.08,16.77Zm0,0"/><path class="cls-6" d="M216.13,221.25l8.82,27.14-23.08-16.77h28.53l-23.08,16.77Zm0,0"/><path class="cls-6" d="M247,37.5l8.82,27.14L232.73,47.86h28.53L238.18,64.64Zm0,0"/><path class="cls-6" d="M247,90l8.82,27.14-23.08-16.77h28.53l-23.08,16.77Zm0,0"/><path class="cls-6" d="M247,142.5l8.82,27.14-23.08-16.77h28.53l-23.08,16.77Zm0,0"/><path class="cls-6" d="M247,195l8.82,27.14-23.08-16.77h28.53l-23.08,16.77Zm0,0"/><path class="cls-6" d="M277.88,11.25l8.82,27.14L263.61,21.61h28.53L269.06,38.39Zm0,0"/><path class="cls-6" d="M277.88,63.75l8.82,27.14L263.61,74.11h28.53L269.06,90.89Zm0,0"/><path class="cls-6" d="M277.88,116.25l8.82,27.14-23.08-16.77h28.53l-23.08,16.77Zm0,0"/><path class="cls-6" d="M277.88,168.75l8.82,27.14-23.08-16.77h28.53l-23.08,16.77Zm0,0"/><path class="cls-6" d="M277.88,221.25l8.82,27.14-23.08-16.77h28.53l-23.08,16.77Zm0,0"/><path class="cls-6" d="M308.75,37.5l8.82,27.14L294.48,47.86H323L299.93,64.64Zm0,0"/><path class="cls-6" d="M308.75,90l8.82,27.14-23.08-16.77H323l-23.08,16.77Zm0,0"/><path class="cls-6" d="M308.75,142.5l8.82,27.14-23.08-16.77H323l-23.08,16.77Zm0,0"/><path class="cls-6" d="M308.75,195l8.82,27.14-23.08-16.77H323l-23.08,16.77Zm0,0"/><path class="cls-6" d="M339.63,11.25l8.82,27.14L325.36,21.61h28.53L330.81,38.39Zm0,0"/><path class="cls-6" d="M339.63,63.75l8.82,27.14L325.36,74.11h28.53L330.81,90.89Zm0,0"/><path class="cls-6" d="M339.63,116.25l8.82,27.14-23.08-16.77h28.53l-23.08,16.77Zm0,0"/><path class="cls-6" d="M339.63,168.75l8.82,27.14-23.08-16.77h28.53l-23.08,16.77Zm0,0"/><path class="cls-6" d="M339.63,221.25l8.82,27.14-23.08-16.77h28.53l-23.08,16.77Zm0,0"/><polygon class="cls-7" points="926.88 487.1 926.88 0 0 487.1 926.88 487.1"/><polygon class="cls-6" points="92.96 487.1 457.43 297.68 821.91 487.1 926.88 487.1 926.88 432.55 562.4 243.12 926.88 53.7 926.88 0 926.88 0 0 487.1 92.96 487.1"/><polygon class="cls-8" points="57.97 487.1 457.43 279.49 856.9 487.1 926.88 487.1 926.88 450.73 527.41 243.12 926.88 35.51 926.88 0 926.88 0 0 487.1 57.97 487.1"/><rect class="cls-6" x="379.19" y="487.1" width="156.48"/><polygon class="cls-6" points="926.88 324.45 926.88 161.79 619.01 161.79 309.5 324.45 379.19 324.45 379.19 487.1 535.67 487.1 535.67 324.45 926.88 324.45"/><rect class="cls-8" x="410.49" y="487.1" width="93.89"/><polygon class="cls-8" points="926.88 291.92 926.88 194.32 557.11 194.32 371.41 291.92 410.49 291.92 410.49 487.1 504.38 487.1 504.38 291.92 926.88 291.92"/></svg>