<?xml version="1.0" encoding="utf-8"?>
<!-- Generator: Adobe Illustrator 19.2.1, SVG Export Plug-In . SVG Version: 6.00 Build 0)  -->
<!DOCTYPE svg PUBLIC "-//W3C//DTD SVG 1.1//EN" "http://www.w3.org/Graphics/SVG/1.1/DTD/svg11.dtd">
<svg version="1.1" id="Ebene_1" xmlns="http://www.w3.org/2000/svg" xmlns:xlink="http://www.w3.org/1999/xlink" x="0px" y="0px"
	 viewBox="0 0 33.3 33.3" style="enable-background:new 0 0 33.3 33.3;" xml:space="preserve">
<style type="text/css">
	.st0{fill:#FFFFFF;}
</style>
<path class="st0" d="M21.7,5.6c-2.3-0.5-4.5-0.8-6.5,0.2c-2.9,1.5-1.8,4.6-2.2,7c-0.7,0.1-1.3,0.3-1.9,0.4v3
	c0.8,0.1,1.4,0.2,2.3,0.3v11.2h4.6V16.5c1.1-0.1,2-0.1,3-0.2c0.1-1,0.2-2,0.2-3.1c-1.2-0.1-2.2-0.2-3.1-0.3c-0.5-3.8-0.5-3.8,3-4.2
	C21.4,7.8,21.5,6.8,21.7,5.6 M33.3,16.6c0,9.2-7.4,16.7-16.6,16.7C7.5,33.3,0,25.8,0,16.7C0,7.5,7.5,0,16.6,0
	C25.8-0.1,33.3,7.4,33.3,16.6"/>
</svg>
