<?xml version="1.0" encoding="utf-8"?>
<!-- Generator: Adobe Illustrator 19.2.1, SVG Export Plug-In . SVG Version: 6.00 Build 0)  -->
<!DOCTYPE svg PUBLIC "-//W3C//DTD SVG 1.1//EN" "http://www.w3.org/Graphics/SVG/1.1/DTD/svg11.dtd">
<svg version="1.1" id="Ebene_1" xmlns="http://www.w3.org/2000/svg" xmlns:xlink="http://www.w3.org/1999/xlink" x="0px" y="0px"
	 viewBox="0 0 33.3 33.3" style="enable-background:new 0 0 33.3 33.3;" xml:space="preserve">
<style type="text/css">
	.st0{fill:#FFFFFF;}
</style>
<path class="st0" d="M27.4,18v2.5h-2.9V18H22v-3.3h2.5v-2.5h2.9v2.5h2.5V18H27.4z M14.6,24.4c-3.4,1.2-7.2,0-9.4-2.8
	C3,18.9,2.8,15,4.6,12.1c2.7-4.4,8.5-5.3,12.8-1.7c-0.9,0.7-1.7,1.2-2.5,1.9c-4-1.4-6.6-0.6-7.7,2.5c-0.9,2.6,0.4,5.5,3,6.4
	c2.6,0.9,4.9-0.1,6-3c-1.4-0.1-2.7-0.1-4.4-0.2v-3.2c2.5,0,5.6,0.1,8,0.1c0,0,0.1,1.2,0.1,1.9C19.8,20.5,17.8,23.3,14.6,24.4
	 M16.7,0C7.5,0,0,7.5,0.1,16.7c0,9.2,7.4,16.6,16.7,16.6c9.2,0,16.6-7.4,16.6-16.6C33.4,7.4,25.9,0,16.7,0"/>
</svg>
