<?xml version="1.0" encoding="utf-8"?>
<!-- Generator: Adobe Illustrator 19.2.1, SVG Export Plug-In . SVG Version: 6.00 Build 0)  -->
<!DOCTYPE svg PUBLIC "-//W3C//DTD SVG 1.1//EN" "http://www.w3.org/Graphics/SVG/1.1/DTD/svg11.dtd">
<svg version="1.1" id="Ebene_1" xmlns="http://www.w3.org/2000/svg" xmlns:xlink="http://www.w3.org/1999/xlink" x="0px" y="0px"
	 viewBox="0 0 33.3 33.3" style="enable-background:new 0 0 33.3 33.3;" xml:space="preserve">
<style type="text/css">
	.st0{fill:#FFFFFF;}
</style>
<path class="st0" d="M26.2,23.5c0,0.7-0.1,1.2-0.4,1.6c-0.4,0.7-1.1,1-2.3,1c-4.6,0-9.2,0-13.8,0h0c-0.3,0-0.6,0-0.9-0.1
	c-0.4-0.1-0.7-0.2-0.9-0.4c-0.5-0.5-0.8-1.2-0.8-2.2c0-2.3,0-4.7,0-7c0-2,0-4.1,0-6.1c0-0.2,0-0.5,0-0.7C7.1,9,7.3,8.4,7.5,8
	c0.1-0.1,0.2-0.3,0.3-0.4C7.9,7.5,8,7.4,8.2,7.3c0.3-0.2,0.6-0.2,1-0.2c0.2,0,0.4,0.1,0.6,0.1h0c4.5-0.4,9.1-0.1,13.6-0.1
	c0.1,0,0.2,0,0.3,0c0.1,0,0.2,0,0.3,0c0.4,0.1,0.8,0.1,1,0.3c0.1,0.1,0.3,0.2,0.4,0.3c0.5,0.4,0.7,1.1,0.7,2.1c0,2.3,0,4.6,0,6.9v0
	C26.1,18.9,26.2,21.2,26.2,23.5 M16.7,0C7.5,0,0.1,7.4,0.1,16.6c0,9.3,7.3,16.6,16.6,16.6c9.2,0,16.7-7.4,16.6-16.6
	C33.2,7.4,25.9,0,16.7,0 M22.6,14.6c-0.3,5.4-2.4,7.9-6,7.9c-3.6,0-5.6-2.5-5.9-7.2c-0.2-0.1-0.4-0.3-0.6-0.4
	c-0.3,0.5-0.8,1-0.8,1.5c-0.1,2.1-0.1,4.1,0,6.2c0,0.5,0.9,1.4,1.4,1.4c3.9,0.1,7.8,0.1,11.7,0c0.5,0,1.4-0.8,1.4-1.2
	c0.1-2.2,0.1-4.4,0-6.6C23.9,15.7,23.3,15.3,22.6,14.6 M16.6,20.3c2,0.1,3.7-1.6,3.7-3.6c0-2-1.6-3.7-3.6-3.7c-2,0-3.7,1.6-3.8,3.6
	C12.9,18.5,14.6,20.2,16.6,20.3 M22.2,12.9c1.5,0,2-0.6,1.7-2c0.3-1.6-0.6-1.7-1.9-1.8c-1.5-0.1-1.8,0.6-1.8,2
	C20.3,12.6,20.9,12.9,22.2,12.9"/>
</svg>
