<?xml version="1.0" encoding="utf-8"?>
<!-- Generator: Adobe Illustrator 19.2.1, SVG Export Plug-In . SVG Version: 6.00 Build 0)  -->
<!DOCTYPE svg PUBLIC "-//W3C//DTD SVG 1.1//EN" "http://www.w3.org/Graphics/SVG/1.1/DTD/svg11.dtd">
<svg version="1.1" id="Ebene_1" xmlns="http://www.w3.org/2000/svg" xmlns:xlink="http://www.w3.org/1999/xlink" x="0px" y="0px"
	 viewBox="0 0 33.3 33.3" style="enable-background:new 0 0 33.3 33.3;" xml:space="preserve">
<style type="text/css">
	.st0{clip-path:url(#SVGID_2_);fill:#FFFFFF;}
</style>
<g>
	<defs>
		<rect id="SVGID_1_" x="0" y="0" width="33.3" height="33.3"/>
	</defs>
	<clipPath id="SVGID_2_">
		<use xlink:href="#SVGID_1_"  style="overflow:visible;"/>
	</clipPath>
	<path class="st0" d="M26.6,10.8c-1.1,0.7-1.4,1.6-1.5,2.9c-0.3,7.5-8.6,13.2-15.6,11C8.7,24.4,7.9,24,7,23.6c1.9-0.7,3.5-1.3,5.4-2
		c-1.4-1-2.5-1.8-3.7-2.7c0.6-0.4,0.9-0.7,1-0.8c-1-1.2-1.9-2.4-3.2-4c1.2,0.1,1.6,0.1,1.7,0.1C7.7,12.6,7.3,10.9,7,9.2
		C7.2,9,7.4,8.8,7.7,8.6c2.4,2.5,5.2,4.3,8.8,4.3c0.1-0.5,0.2-1.1,0.3-1.6c0.7-3.3,3.6-4.5,6.6-2.9c0.8,0.4,1.8,0.3,2.9,0.5
		c-0.2,0.3-0.5,0.8-0.9,1.4c0.5,0.1,0.8,0.1,1.2,0.1C26.6,10.6,26.7,10.8,26.6,10.8 M16.8,0C7.7-0.1,0.1,7.4,0,16.5
		c-0.1,9.1,7.4,16.7,16.5,16.8c9.2,0.1,16.7-7.4,16.8-16.5C33.4,7.6,25.9,0.1,16.8,0"/>
</g>
</svg>
