<svg id="Ritter" xmlns="http://www.w3.org/2000/svg" width="210" height="210" viewBox="0 0 210 210"><defs><style>.cls-1{fill:#e6cad4;}.cls-2{fill:#656564;}.cls-2,.cls-3,.cls-4,.cls-5,.cls-6{stroke:#000;stroke-miterlimit:10;}.cls-2,.cls-3,.cls-4{stroke-width:0.4px;}.cls-3,.cls-6,.cls-7{fill:#c8c8c8;}.cls-4,.cls-5,.cls-9{fill:#fff;}.cls-5,.cls-6{stroke-width:0.1px;}.cls-8{fill:#1d1d1b;}</style></defs><title>gonimo-illu</title><g id="ALLES"><rect class="cls-1" width="210" height="210"/></g><g id="Alles-2" data-name="Alles"><path class="cls-2" d="M146.48,39.19s8.09,8.36,9.35,20.2S155,84.86,154.31,87.77s-1.59,16.67-1.59,20.83-0.2,12.9,1.19,21,2.05,9.66,1.92,10.52,0.6,4.5-3.37,5.49-4.73-3.1-4.73-3.1,1-11.43,1.1-14.28,0.7-25.4.7-25.4l-10.34-55A10.25,10.25,0,0,1,146.48,39.19Z"/><path class="cls-2" d="M89.85,31.81s3.35,1.24,4.94,8.26l0.26,3.51-10.58.32L88.77,33Z"/><path class="cls-2" d="M68,47.23a17.12,17.12,0,0,0,3.17-4.17c1.52-2.71,4.5-7.41,7.14-9.06s5-3,8.27-2.84,4.3,1.12,4,1.85a30.37,30.37,0,0,1-6.08,10.91,27.88,27.88,0,0,0-12.76,2A56.13,56.13,0,0,0,65.88,49Z"/><path class="cls-3" d="M95.05,43.58s7.69,0.37,10.66.32a229,229,0,0,1,26.93,1.83c13.39,1.64,15.18,15,16.22,20.24s1,34.67,0,61.45-6.1,39.13-8.63,45.09-8.78,7.29-13.84,8.24-23.81,1.06-37.43,0-16.8-5.42-20-9.06-5-11.38-6.15-16.86-2.71-20.57-2.71-20.57l-2-29.56c0-.7-0.82-22.9-0.79-24.47,0-2.45.07-13.36,1.79-19.44S65.88,49,65.88,49s5.65-3.35,8.37-4a31.6,31.6,0,0,1,10.22-1.08Z"/><path class="cls-2" d="M121.93,44.65c0.11,0,3.42-7.39,10.26-9.18s11,1,14.28,3.72a10.18,10.18,0,0,0-7.29,8.67,22.75,22.75,0,0,0-6.55-2.12C129.52,45.38,121.93,44.65,121.93,44.65Z"/><path class="cls-2" d="M94,43.58v-3.5a2.16,2.16,0,0,1,2.23-1.85c2.05-.07,17.92.09,17.92,0.09s2.25-.1,2.25,2.76v3.17h-1.58l0-1.31s0.28-2.1-2.76-2.1H99.65c-1.79,0-2.75.34-2.71,2.74H94Z"/><path class="cls-4" d="M65,77.58s0.33,44.64.86,53.77S71.77,173,88.24,173.61s27,0.79,30.75,0,11.9-4.17,14.29-13.49S139,125.4,139.19,106s1.23-31.55-1.75-35.32-6.15-9.72-25.2-10.71-29.36-.6-36.31,2.58S65,69.05,65,77.58Z"/><path class="cls-2" d="M65.88,131.15c0.53,9.13,3,41.67,22.35,42.26,16.47,0.51,27,.79,30.75,0s11.9-4.17,14.29-13.49,5.68-34.72,5.91-54.16c0,0,2.49-18.25-12.69-20.33s-41.37-3.57-50.6,0-10.75,6.76-10.68,13.1S65.88,131.15,65.88,131.15Z"/><path class="cls-4" d="M72.23,114.63s0.89,30.8,1.79,34.52,2.83,17.11,12.35,18.75,26.78,2.08,32.29,0,8.33-3.57,10-8.78,5.36-31.88,5.06-43c0,0-12.05-3-17.71-3.61C116,112.55,82.5,110.32,72.23,114.63Z"/><path d="M80.41,112.8l4.09,54.6a22.63,22.63,0,0,0,4.46.89l-3.89-55.94Z"/><polygon points="121.39 113.42 111.55 169.09 115.48 168.67 126.1 114.38 121.39 113.42"/><path d="M80.41,112.8s3.71-.42,6.78-1A36.07,36.07,0,0,0,92,110.57v0.74l-0.38.69Z"/><path d="M110.37,111l5.61,1.5-5.46-.28a2.16,2.16,0,0,0-.15-1.22"/><ellipse class="cls-5" cx="129.22" cy="87.87" rx="1.84" ry="1.08" transform="translate(-3.85 169.8) rotate(-65.83)"/><ellipse class="cls-5" cx="128.4" cy="90.68" rx="1.19" ry="0.92" transform="translate(13.06 197.47) rotate(-78.02)"/><ellipse class="cls-6" cx="102" cy="60.99" rx="1.84" ry="1.08" transform="translate(4.6 129.08) rotate(-65.83)"/><ellipse class="cls-6" cx="101.18" cy="63.8" rx="1.19" ry="0.92" transform="translate(17.78 149.54) rotate(-78.02)"/><ellipse class="cls-6" cx="85.27" cy="113.73" rx="1.84" ry="1.08" transform="matrix(0.41, -0.91, 0.91, 0.41, -53.4, 144.97)"/><ellipse class="cls-6" cx="84.45" cy="116.53" rx="1.19" ry="0.92" transform="translate(-47.07 174.97) rotate(-78.02)"/><ellipse class="cls-6" cx="104.6" cy="61.17" rx="1.08" ry="1.84" transform="translate(-7.93 16.24) rotate(-8.55)"/><ellipse class="cls-6" cx="105.43" cy="63.97" rx="0.92" ry="1.19" transform="translate(-15.82 41.49) rotate(-20.74)"/><ellipse class="cls-6" cx="114.53" cy="113.69" rx="1.08" ry="1.84" transform="translate(-15.64 18.3) rotate(-8.55)"/><ellipse class="cls-6" cx="115.36" cy="116.49" rx="0.92" ry="1.19" transform="translate(-33.78 48.41) rotate(-20.74)"/><polygon class="cls-2" points="150.67 144.69 151.4 148.01 155.08 147.51 154.72 144.19 150.67 144.69"/><path class="cls-2" d="M145,158s1.07,4,2.91,4.1,3.41-2.29,3.88-3.92a23.12,23.12,0,0,0,.67-10.35l1.73-.2s1,5.65,0,9.73c-0.82,3.27-2.33,6.19-5.13,7a4.17,4.17,0,0,1-5-2.41C144,161.81,145,158,145,158Z"/><path class="cls-7" d="M93.53,107.94s-2.15,2.25-1.09,4.42a131.44,131.44,0,0,1,17.26.35s-0.43-5.88-1.71-7.54c0,0-1.3,3.15-2.9,3.89a14.19,14.19,0,0,1-9.51.39A3.89,3.89,0,0,1,93.53,107.94Z"/><path d="M93.53,108l-0.13.21-0.15.26-0.15.26L93,109l-0.13.26-0.12.26-0.11.27c0,0.09-.07.18-0.1,0.27s-0.06.18-.08,0.28,0,0.19-.06.28l0,0.14,0,0.14s0,0.09,0,.14,0,0.1,0,.14,0,0.1,0,.14v0.14s0,0.1,0,.14,0,0.1,0,.14l0,0.14L92.2,112s-0.2.1-.2,0.14V112h0.13l0.13,0.14c0.72,0,1.53,0,2.25,0l1.12,0h5.44l1.08,0,1.08,0,1.08,0,1.08,0,1.08,0.06,1.08,0.08,1.08,0.12,1.08,0.13h0l-0.05,0c0-.32-0.07-0.66-0.11-1s-0.08-.65-0.12-1-0.09-.64-0.14-1-0.1-.64-0.16-1-0.12-.64-0.2-1l-0.11-.47c0-.16-0.08-0.31-0.12-0.47s-0.09-.31-0.14-0.46-0.1-.31-0.16-0.45-0.08-.3-0.15-0.44a1.2,1.2,0,0,1-.19-0.41h0c-0.12.28-.27,0.56-0.41,0.83s-0.3.54-.45,0.81a9,9,0,0,1-1.08,1.49,4.12,4.12,0,0,1-.7.61,2.49,2.49,0,0,1-.41.22l-0.42.18-0.43.16-0.44.14-0.44.12-0.45.1-0.45.08-0.23,0-0.23,0-0.46.05-0.46,0c-0.15,0-.31,0-0.46,0l-0.23,0H100.1c-0.15,0-.31.06-0.46,0.05H99.18l-0.46,0-0.46,0c-0.3,0-.61-0.07-0.91-0.12l-0.45-.08-0.45-.09c-0.15,0-.3-0.31-0.45-0.35L95.57,109h0c-0.06,0-.11.22-0.16,0.2s-0.1.09-.15,0.06-0.1,0-.15,0-0.1,0-.15,0l-0.14-.07-0.14-.08L94.54,109l-0.13-.1-0.25-.21L94,108.57l-0.12-.11-0.22-.24Zm0-.11,0.21,0.24L94,108.39l0.11,0.11,0.12,0.11,0.25,0.2,0.13,0.09L94.73,109l0.13,0.09L95,109.16l0.14,0.07,0.15,0.06,0.15,0.06s0.1-.16.15-0.16V109h0L96,109.31c0.15,0,.29.18,0.44,0.2l0.45,0.14,0.45,0.1,0.9,0.14,0.45,0,0.45,0,0.46,0h0.91l0.46,0,0.45,0,0.45-.05,0.23,0,0.22,0,0.45-.08,0.44-.1,0.44-.12,0.43-.14,0.43-.16L105,109a2.37,2.37,0,0,0,.39-0.21,4,4,0,0,0,.68-0.59,8.88,8.88,0,0,0,1.06-1.47q0.23-.39.44-0.8c0.14-.27.27-0.55,0.39-0.82l0-.08,0.05,0.07h0c0,0.07.1,0.13,0.15,0.2s0.09,0.14.13,0.21a4.42,4.42,0,0,1,.22.44c0.07,0.15.12,0.3,0.18,0.46s0.1,0.31.15,0.47,0.09,0.31.13,0.47,0.08,0.32.11,0.48c0.07,0.32.13,0.64,0.19,1,0.12,0.64.21,1.29,0.28,1.93,0,0.32.07,0.65,0.1,1s0.05,0.65.07,1h0l-0.06-.06h0l-1.07-.05c-0.36,0-.72,0-1.08-0.06l-1.08-.06-1.08-.06-1.08,0-1.08,0-1.08,0-1.08,0H96.76l-1.08,0-1.08,0-2.16.08H92.33l-0.09,0h0a0.71,0.71,0,0,0-.08-0.27s0-.09,0-0.14l0-.15a1.34,1.34,0,0,1,0-.15c0-.05,0-0.1,0-0.15l0-.16c0-.05,0-0.11,0-0.16s0-.11,0-0.16,0-.11,0-0.16a2.79,2.79,0,0,1,0-.32c0-.1,0-0.21.05-0.31s0.05-.2.08-0.31,0.06-.2.1-0.3,0.08-.19.12-0.29l0.14-.28,0.16-.26,0.18-.25,0.2-.24,0.22-.22a2.64,2.64,0,0,1,.24-0.2l0,0Z"/><path class="cls-7" d="M95.08,110.39s2.48,0,2.78,1.26-0.1,3-1.92,3.24-4,.07-4.33-1,0.07-2.65,1.09-3A9.8,9.8,0,0,1,95.08,110.39Z"/><path d="M95.08,110a0.29,0.29,0,0,0,.21.17c0.13,0,.33.1,0.58,0.13a5.55,5.55,0,0,1,.89.23,2.92,2.92,0,0,1,.52.25,1.58,1.58,0,0,1,.49.43,1.11,1.11,0,0,1,.16.32l0,0.09,0,0.08,0,0.17a3.74,3.74,0,0,1,0,.73,3.1,3.1,0,0,1-.13.77,2.43,2.43,0,0,1-.35.74,1.23,1.23,0,0,1-.13.17,1.25,1.25,0,0,1-.15.16l-0.16.14-0.18.12a2.32,2.32,0,0,1-.82.29L96,115H95.9l-0.21,0-0.43,0c-0.29,0-.57,0-0.86,0a6.86,6.86,0,0,1-1.71-.22,2.4,2.4,0,0,1-.79-0.37,1.24,1.24,0,0,1-.31-0.33l-0.05-.1,0-.11v0h0v-0.07l0-.1a2.94,2.94,0,0,1-.05-0.82,3.19,3.19,0,0,1,.14-0.76,2.88,2.88,0,0,1,.3-0.67A2.09,2.09,0,0,1,92.3,111a2,2,0,0,1,.57-0.27l0.54-.15c0.34-.08.64-0.13,0.89-0.17a5.66,5.66,0,0,0,.58-0.24l0.21-.19h0Zm0,0.44-0.2,0-0.57.08c-0.24,0-.54.1-0.87,0.19l-0.52.16a1.79,1.79,0,0,0-.52.26,1.91,1.91,0,0,0-.41.48,2.68,2.68,0,0,0-.27.63,3,3,0,0,0-.11.71,2.74,2.74,0,0,0,.06.74l0,0.1v0.07h0l0,0.08,0,0.08a1,1,0,0,0,.25.26,2.28,2.28,0,0,0,.71.32,6.6,6.6,0,0,0,1.64.19l0.84,0,0.42,0,0.21,0H96l0.1,0a2,2,0,0,0,1.29-.75,2.59,2.59,0,0,0,.47-1.37,3.56,3.56,0,0,0,0-.68l0-.17,0-.08,0-.07a0.9,0.9,0,0,0-.13-0.27,1.38,1.38,0,0,0-.42-0.38,2.62,2.62,0,0,0-.48-0.23,4.85,4.85,0,0,0-.86-0.21c-0.24,0-.44-0.05-0.57-0.06h-0.2Z"/><path class="cls-7" d="M107.25,109.48s2-.25,2.61.61a2.51,2.51,0,0,1,.46,2.59c-0.4.69-1.12,1.88-2.45,1.88s-3.24-.13-3.57-1.65-0.09-2.28.79-2.78A5.82,5.82,0,0,1,107.25,109.48Z"/><path d="M107.24,109h0a0.27,0.27,0,0,0,.21.19c0.14,0,.34.08,0.59,0.09a4.88,4.88,0,0,1,.92.16,2.38,2.38,0,0,1,.54.22,1.53,1.53,0,0,1,.26.19l0.12,0.13,0.05,0.07,0,0.07a3.5,3.5,0,0,1,.59,1.3,2.21,2.21,0,0,1,0,.8,1.82,1.82,0,0,1,0,.21,1.75,1.75,0,0,1-.08.2l0,0.1,0,0.09-0.1.18a4,4,0,0,1-1.12,1.29,2.29,2.29,0,0,1-.83.36l-0.23,0h-0.67a6.46,6.46,0,0,1-1.73-.26,2.69,2.69,0,0,1-.79-0.39,1.81,1.81,0,0,1-.56-0.67,1.86,1.86,0,0,1-.14-0.4c0-.14-0.05-0.26-0.07-0.39a4.62,4.62,0,0,1-.07-0.78,2.36,2.36,0,0,1,.11-0.74,1.6,1.6,0,0,1,.36-0.6,2.16,2.16,0,0,1,.51-0.39,4.7,4.7,0,0,1,.52-0.24,5.72,5.72,0,0,1,.88-0.27,6.1,6.1,0,0,0,.58-0.32A0.54,0.54,0,0,0,107.24,109Zm0,0.27a0.3,0.3,0,0,1-.2.15c-0.13,0-.33.12-0.57,0.18a6.17,6.17,0,0,0-.86.31,2.82,2.82,0,0,0-1,.63,1.47,1.47,0,0,0-.31.56,2.21,2.21,0,0,0-.09.69,4.45,4.45,0,0,0,.08.74c0,0.12.05,0.26,0.08,0.38a1.64,1.64,0,0,0,.13.35,1.59,1.59,0,0,0,.5.57,2.6,2.6,0,0,0,.72.35,6.21,6.21,0,0,0,1.67.23h0.63l0.2,0a2,2,0,0,0,.74-0.32,3.93,3.93,0,0,0,1.06-1.2c0.07-.11.15-0.23,0.2-0.34a1.53,1.53,0,0,0,.07-0.17,1.59,1.59,0,0,0,0-.18,2,2,0,0,0,0-.72,3.31,3.31,0,0,0-.53-1.24,1.45,1.45,0,0,0-.92-0.59,4.23,4.23,0,0,0-.89-0.12c-0.25,0-.45-0.13-0.58-0.13l-0.21-.12h0Z"/><path class="cls-7" d="M92.08,97.55a12.1,12.1,0,0,0-.52,5.25,10.43,10.43,0,0,0,2,5.13c0.83,1,1.29,2.12,6.94,2.18s6.84-2.59,7-3.33a17,17,0,0,0,.6-8.67s0.09-4.12.09-5.34c0,0-2.36.58-4.59-7.22,0,0-.67.29-0.89,3.08-0.28,3.53-.46,5.36-0.46,5.36A7.92,7.92,0,0,0,97.5,94S93.84,85.32,91,81.3s-5.11-7.44-6.2-7.44a1.28,1.28,0,0,0-1.49,1.49c0.1,0.89,1.54,10.66,2.43,12.35s2.28,5.06,3.32,6.1A44.53,44.53,0,0,1,92.08,97.55Z"/><path d="M92.13,97.57a10.13,10.13,0,0,0-.45,2.16,16,16,0,0,0-.07,2.21v0.28l0,0.28,0,0.28,0,0.28a10,10,0,0,0,.19,1.08,10.52,10.52,0,0,0,.73,2.07,9.24,9.24,0,0,0,1.15,1.87,4.32,4.32,0,0,0,.74.8,3.5,3.5,0,0,0,.94.52,9.2,9.2,0,0,0,2.14.47C98.31,110,99,110,99.79,110a18.43,18.43,0,0,0,2.21,0,10.45,10.45,0,0,0,2.16-.41,6.15,6.15,0,0,0,2-1,3.77,3.77,0,0,0,1.29-1.72c0.2-.71.4-1.42,0.56-2.14a14,14,0,0,0,.33-2.19,17.2,17.2,0,0,0,0-2.21c0-.74-0.16-1.47-0.26-2.21h0l0.09-2.67c0-.89.05-1.78,0.06-2.67l0.07,0a0.86,0.86,0,0,1-.3,0,1.43,1.43,0,0,1-.28-0.08,2.3,2.3,0,0,1-.5-0.27,3.59,3.59,0,0,1-.44-0.36,5.27,5.27,0,0,1-.38-0.42c-0.12-.14-0.23-0.3-0.34-0.45L105.81,91l-0.15-.24c-0.1-.16-0.19-0.32-0.28-0.49s-0.18-.33-0.26-0.5-0.16-.34-0.24-0.51-0.15-.34-0.22-0.52-0.14-.35-0.21-0.52-0.13-.35-0.2-0.53-0.12-.35-0.19-0.53-0.12-.36-0.18-0.53-0.12-.36-0.17-0.54l-0.16-.54,0.07,0h0l-0.09.07-0.08.1-0.07.11-0.06.12c0,0.08-.07.16-0.11,0.24s-0.06.17-.09,0.25S103,86.84,103,87s-0.07.35-.1,0.53,0,0.35-.07.53,0,0.36-.05.54l-0.09,1.08-0.09,1.08c0,0.36-.06.72-0.09,1.08-0.07.72-.13,1.44-0.21,2.15v0.08l-0.06,0h0A0.42,0.42,0,0,0,102,94l-0.29-.07-0.29-.05-0.3,0-0.3,0h-0.9l-0.3,0-0.3,0-0.3,0-0.3,0-0.3,0L98.1,94l-0.59.12h0v0h0c-0.4-1-.86-1.94-1.3-2.91s-0.9-1.92-1.37-2.88-0.95-1.9-1.45-2.83-1-1.86-1.57-2.76c-0.28-.45-0.57-0.89-0.87-1.33L90,80.06c-0.61-.87-1.22-1.73-1.85-2.59-0.31-.43-0.63-0.85-1-1.27s-0.66-.83-1-1.21a7.28,7.28,0,0,0-.56-0.55A2.13,2.13,0,0,0,85,74l-0.16,0H84.66a2,2,0,0,0-.37.06,1.12,1.12,0,0,0-.6.35,1.06,1.06,0,0,0-.23.65,2,2,0,0,0,0,.37l0.05,0.39c0.07,0.52.15,1,.23,1.57Q84,79,84.28,80.54c0.18,1,.37,2.09.57,3.13s0.43,2.08.72,3.09a6.64,6.64,0,0,0,.26.73l0.08,0.17L86,87.83l0.18,0.36c0.24,0.48.46,1,.69,1.44s0.46,1,.69,1.43,0.48,0.94.74,1.4a6.66,6.66,0,0,0,.89,1.28c0.18,0.19.36,0.4,0.53,0.6L90.23,95c0.33,0.42.65,0.84,1,1.27s0.62,0.86.92,1.3v0Zm-0.1,0c-0.64-.83-1.29-1.66-2-2.47l-0.51-.6c-0.17-.2-0.35-0.39-0.54-0.58a4.57,4.57,0,0,1-.52-0.63c-0.16-.22-0.3-0.45-0.43-0.68-0.54-.92-1-1.88-1.46-2.84L85.9,88.33,85.72,88l-0.09-.18-0.09-.19a6.93,6.93,0,0,1-.27-0.77c-0.15-.52-0.28-1-0.39-1.55s-0.22-1-.33-1.56c-0.21-1-.39-2.09-0.57-3.14s-0.34-2.1-.5-3.15q-0.12-.79-0.23-1.58l-0.05-.4a2.31,2.31,0,0,1,0-.42,1.35,1.35,0,0,1,.3-0.82,1.41,1.41,0,0,1,.75-0.44,2.44,2.44,0,0,1,.42.08s0.07,0.14.1,0.14h0s0-.14.06-0.14a1,1,0,0,1,.23,0,2.3,2.3,0,0,1,.71.42,7.13,7.13,0,0,1,.58.55c0.36,0.4.7,0.8,1,1.23s0.64,0.85,1,1.28c0.62,0.86,1.23,1.73,1.84,2.6l0.91,1.31c0.3,0.44.59,0.89,0.87,1.34,0.55,0.91,1.07,1.84,1.55,2.79s1,1.9,1.42,2.86,0.91,1.92,1.34,2.89S97.17,93,97.56,94h0l-0.07,0,0.29-.08,0.29-.08,0.3-.06,0.3-.06,0.3,0,0.3,0,0.3,0,0.3,0h0.61l0.3,0,0.3,0,0.3,0,0.3,0.06,0.3,0.08a0.51,0.51,0,0,1,.29.11h0l-0.07,0c0-.36.06-0.72,0.09-1.08l0.09-1.08,0.18-2.15,0.09-1.08c0-.18,0-0.36.05-0.54s0-.36.08-0.54,0.06-.36.1-0.53,0.09-.35.14-0.53,0.06-.17.09-0.26,0.07-.17.11-0.25l0.07-.12,0.08-.11a0.35,0.35,0,0,1,.21-0.2h0l0.05,0,0,0.05,0.16,0.54c0.05,0.18.11,0.36,0.17,0.53s0.11,0.36.17,0.53,0.12,0.35.18,0.53,0.13,0.35.2,0.52,0.13,0.35.21,0.52,0.14,0.35.22,0.51,0.15,0.34.24,0.51,0.17,0.33.26,0.5,0.18,0.32.28,0.48L105.9,91l0.16,0.23c0.11,0.15.22,0.3,0.34,0.44a5.19,5.19,0,0,0,.38.41,3.5,3.5,0,0,0,.43.35,2.2,2.2,0,0,0,.48.26l0.26,0.07a0.21,0.21,0,0,0,.13,0H108v0.06c0,0.89.11,1.78,0.1,2.67l0,2.67h0c0.11,0.74.22,1.47,0.27,2.22a16.63,16.63,0,0,1,0,2.23,14.13,14.13,0,0,1-.32,2.21c-0.16.73-.36,1.44-0.56,2.16a3.93,3.93,0,0,1-1.34,1.8,6.31,6.31,0,0,1-2,1,10.62,10.62,0,0,1-2.2.42,18.6,18.6,0,0,1-2.23,0c-0.74,0-1.49-.06-2.23-0.15a9.37,9.37,0,0,1-2.19-.48,3.69,3.69,0,0,1-1-.55,4.5,4.5,0,0,1-.77-0.83c-0.11-.14-0.23-0.29-0.34-0.45s-0.21-.31-0.31-0.47a11,11,0,0,1-.53-1,10.72,10.72,0,0,1-.75-2.11,9.11,9.11,0,0,1-.19-1.11l0-.28,0-.28,0-.28v-0.28a14.15,14.15,0,0,1,.1-2.23c0-.37.11-0.74,0.19-1.1A7.32,7.32,0,0,1,92,97.56Z"/><path class="cls-1" d="M95.43,94.94a15.93,15.93,0,0,1-2.58-3.77,77.28,77.28,0,0,0-4.32-9.82c-1.14-1.74-1.84-3-2.28-3.12s-0.5.3-.25,1.34,0.74,5.8.89,6.5A22.13,22.13,0,0,0,90,92.31a44.07,44.07,0,0,1,3,4.22A4.6,4.6,0,0,1,95.43,94.94Z"/><path d="M95.34,94.91a21.15,21.15,0,0,1-1.53-1.85,11.14,11.14,0,0,1-.69-1L93,91.74c0-.1-0.09-0.19-0.13-0.29s-0.15-.39-0.21-0.59c-0.28-.77-0.59-1.54-0.9-2.3S91.1,87,90.78,86.28s-0.66-1.51-1-2.26-0.7-1.49-1.1-2.21c-0.2-.35-0.43-0.69-0.66-1l-0.67-1c-0.22-.34-0.45-0.69-0.7-1l-0.1-.11-0.1-.11a0.76,0.76,0,0,0-.22-0.16H86a0.29,0.29,0,0,0-.07.2,2.44,2.44,0,0,0,0,.59c0,0.1,0,.2.06,0.3l0,0.15,0,0.15c0.08,0.41.13,0.82,0.19,1.23,0.11,0.82.21,1.64,0.31,2.46S86.83,85,87,85.86a3.44,3.44,0,0,0,.15.59q0.1,0.29.21,0.58c0.15,0.38.3,0.77,0.46,1.15,0.32,0.76.67,1.5,1.06,2.23a11.16,11.16,0,0,0,1.36,2c0.53,0.64,1,1.31,1.49,2S92.6,95.8,93,96.5H93a2.79,2.79,0,0,1,.23-0.3l0.26-.27,0.14-.13,0.15-.12L94,95.46l0.16-.1,0.16-.09,0.17-.08,0.17-.08L94.88,95,95.05,95l0.18,0ZM95.51,95L95.27,95l-0.17.06-0.17.07-0.16.08-0.16.08-0.16.09-0.16.09-0.15.1-0.15.1-0.15.11-0.14.11-0.14.12-0.27.25-0.13.13L93,96.56h0l0,0.06,0-.06q-0.67-1-1.38-2.05c-0.48-.67-1-1.33-1.5-2l-0.39-.48L89.5,91.8l-0.18-.26C89.21,91.37,89.1,91.2,89,91l-0.16-.27-0.15-.27c-0.4-.73-0.75-1.48-1.08-2.24-0.16-.38-0.32-0.76-0.47-1.15Q87,86.8,86.93,86.5c0-.1-0.07-0.2-0.09-0.3l0-.07V86l0-.16c-0.12-.82-0.22-1.64-0.32-2.46s-0.2-1.64-.32-2.46c-0.06-.41-0.12-0.82-0.19-1.22l0-.15,0-.15c0-.1,0-0.2-0.06-0.31a2.61,2.61,0,0,1-.05-0.64,0.73,0.73,0,0,1,0-.18,0.38,0.38,0,0,1,0-.09l0,0,0,0a0.31,0.31,0,0,1,.11,0h0.11l0.09,0h0.09l0.08,0,0.07,0.05,0.13,0.11,0.11,0.12,0.1,0.12c0.26,0.33.49,0.68,0.72,1l0.67,1c0.22,0.35.45,0.69,0.67,1.05,0.41,0.73.76,1.47,1.11,2.22s0.68,1.51,1,2.27,0.65,1.52,1,2.29,0.62,1.53.9,2.32c0.07,0.2.13,0.39,0.2,0.58s0.08,0.18.12,0.27l0.14,0.27c0.2,0.35.42,0.7,0.65,1,0.47,0.67,1,1.33,1.5,2Z"/><path class="cls-7" d="M107.41,95.65s2.87,4.17,5.12,4.16a0.9,0.9,0,0,0,.83-0.58c0.31-2.49.63-9.08-3.46-12.77-3.49-3.15-6.3-.91-6.3-0.91S104.77,92.24,107.41,95.65Z"/><path d="M107.58,95.53c0.34,0.47.72,0.92,1.11,1.37s0.77,0.88,1.18,1.3a7.37,7.37,0,0,0,1.34,1.12,3.14,3.14,0,0,0,.79.36,2.17,2.17,0,0,0,.43.07h0.1l0.11,0,0.21-.05a0.82,0.82,0,0,0,.35-0.22,0.45,0.45,0,0,0,.1-0.17,1.61,1.61,0,0,0,0-.21q0.05-.44.09-0.88,0.07-.89.06-1.78c0-.59,0-1.19-0.09-1.77s-0.14-1.18-.26-1.76a13.53,13.53,0,0,0-1.1-3.35,10.4,10.4,0,0,0-.91-1.51A9.48,9.48,0,0,0,110,86.72l-0.16-.15-0.17-.14-0.17-.14-0.17-.13a7.23,7.23,0,0,0-.72-0.49,6,6,0,0,0-.78-0.38c-0.13-.06-0.27-0.1-0.41-0.15L107,85a4.26,4.26,0,0,0-1.71,0,7.28,7.28,0,0,0-1.63.57h0l0,0c0.09,0.44.19,0.88,0.29,1.32s0.22,0.88.34,1.31c0.24,0.87.51,1.73,0.82,2.58a23.77,23.77,0,0,0,1,2.49l0.15,0.3,0.16,0.3,0.16,0.29,0.17,0.29L107,94.71,107.18,95c0.12,0.18.26,0.36,0.39,0.54h0Zm-0.35.21c-0.13-.18-0.26-0.35-0.37-0.53l-0.18-.29-0.18-.3-0.17-.3-0.16-.3L106,93.7l-0.15-.31a24.07,24.07,0,0,1-1-2.55c-0.29-.86-0.53-1.74-0.75-2.62q-0.16-.66-0.3-1.33c-0.09-.44-0.18-0.89-0.25-1.34v0l0,0h0a2.55,2.55,0,0,1,.75-0.53,3.62,3.62,0,0,1,.88-0.28,4.58,4.58,0,0,1,1.83,0l0.45,0.11c0.14,0,.29.09,0.43,0.16a6,6,0,0,1,.82.41,7.52,7.52,0,0,1,.75.52l0.18,0.14,0.17,0.15L110,86.35l0.17,0.16a9.17,9.17,0,0,1,1.17,1.38,10.65,10.65,0,0,1,.9,1.56,13.85,13.85,0,0,1,1.05,3.42c0.1,0.59.18,1.18,0.23,1.77s0.07,1.19.07,1.79,0,1.19-.07,1.78q0,0.45-.09.89a1.64,1.64,0,0,1,0,.23,0.55,0.55,0,0,1-.12.21,0.92,0.92,0,0,1-.4.24l-0.22.06-0.11,0h-0.12a2.28,2.28,0,0,1-.45-0.07,4,4,0,0,1-.85-0.32,8,8,0,0,1-1.51-1,11.41,11.41,0,0,1-1.29-1.27,16.36,16.36,0,0,1-1.09-1.44Z"/><path d="M102.27,93.94s0.21,0.06.51,0.16l0.51,0.19,0.57,0.25,0.56,0.28L104.66,95l0.22,0.13,0.32,0.21,0.12,0.08-0.06.08-0.12-.08-0.33-.19L104.35,95l-0.55-.28-0.56-.26-0.5-.21L102.24,94Z"/><path class="cls-8" d="M96.37,101.84c-0.27-.65-0.87-1.49-1.7-1.24a0.23,0.23,0,0,0,.12.45,1.16,1.16,0,0,1,1.13.92c0.11,0.27.56,0.15,0.45-.12h0Z"/><path class="cls-8" d="M103.77,100.6a1.06,1.06,0,0,1,1.12-1c0.3,0,.29-0.44,0-0.46a1.5,1.5,0,0,0-1.57,1.34c-0.05.29,0.39,0.42,0.45,0.12h0Z"/><path class="cls-8" d="M103.92,99.73a1.19,1.19,0,0,0,0,1.32c0.43,0.79,1.86,0,.89-1.65A0.7,0.7,0,0,0,103.92,99.73Z"/><ellipse class="cls-9" cx="104.77" cy="100.17" rx="0.15" ry="0.2"/><ellipse class="cls-9" cx="104.61" cy="100.63" rx="0.09" ry="0.11"/><path class="cls-8" d="M95.56,101.12a1.38,1.38,0,0,1,.39,1.26c-0.11.86-1.5,0.44-1.21-1.35A0.54,0.54,0,0,1,95.56,101.12Z"/><ellipse class="cls-9" cx="95.58" cy="101.53" rx="0.13" ry="0.2" transform="translate(-23.15 28.4) rotate(-15.1)"/><ellipse class="cls-9" cx="95.57" cy="102.01" rx="0.07" ry="0.11" transform="translate(-23.27 28.42) rotate(-15.1)"/><path class="cls-8" d="M102.53,101.82a7.9,7.9,0,0,1,2.16,3.35,3.45,3.45,0,0,1,.29,1.26,2.77,2.77,0,0,1-.62,1.38c-0.8,1-2.07.72-3.09,0.28-0.06,0-.25.06-0.17,0.1,1.35,0.58,3,.64,3.74-0.8a2.62,2.62,0,0,0,.36-1.07,3.91,3.91,0,0,0-.31-1.25,7.94,7.94,0,0,0-2.15-3.32c-0.05,0-.25,0-0.2.08h0Z"/><path class="cls-8" d="M101.08,107.57a1.43,1.43,0,0,1,0,.64,1.88,1.88,0,0,1-.62.55,2.76,2.76,0,0,1-3.41-.81c-0.64-.77-0.26-2.14-0.13-3,0.09-.67.19-1.34,0.26-2a4.74,4.74,0,0,0,0-1.75,5.63,5.63,0,0,0-1.53-2.46s-0.25,0-.2.08A5.18,5.18,0,0,1,97,101.54a9,9,0,0,1-.18,2.35c-0.09.69-.19,1.38-0.28,2.07a3.74,3.74,0,0,0,.06,1.6,2.32,2.32,0,0,0,1.24,1.24,2.62,2.62,0,0,0,2.67.05,2.37,2.37,0,0,0,.72-0.61,1.17,1.17,0,0,0,.09-0.73c0-.06-0.21,0-0.21.06h0Z"/><path class="cls-1" d="M100.08,106.55a4.21,4.21,0,0,0,.15.56,6.41,6.41,0,0,0,1,.4,4.38,4.38,0,0,0,.83-0.76,1.82,1.82,0,0,0-.13-0.57,1.17,1.17,0,0,0-1.11-.47A0.8,0.8,0,0,0,100.08,106.55Z"/><path class="cls-8" d="M100,106.6a1.1,1.1,0,0,0,.23.65,2.44,2.44,0,0,0,.86.34,0.52,0.52,0,0,0,.45-0.22,1.86,1.86,0,0,0,.6-0.59,1,1,0,0,0-.12-0.68,1.19,1.19,0,0,0-.71-0.48,1,1,0,0,0-1.32,1c0,0.15.24,0,.23-0.09-0.08-.82,1-0.81,1.46-0.4a0.58,0.58,0,0,1,.19.33,0.5,0.5,0,0,1-.26.62c-0.14.12-.3,0.21-0.43,0.34,0,0,.1,0,0,0a1.09,1.09,0,0,0-.27-0.1,1.71,1.71,0,0,1-.55-0.23,1.19,1.19,0,0,1-.16-0.54C100.16,106.36,99.94,106.48,100,106.6Z"/></g></svg>