<svg id="Ritter" xmlns="http://www.w3.org/2000/svg" width="210" height="210" viewBox="0 0 210 210"><defs><style>.cls-1,.cls-2{fill:#e6cad4;}.cls-2,.cls-3,.cls-4,.cls-5{stroke:#000;stroke-miterlimit:10;stroke-width:0.5px;}.cls-3{fill:#656564;}.cls-4{fill:#c8c8c8;}.cls-5{fill:#fff;}</style></defs><title>gonimo-illu</title><g id="ALLES"><rect class="cls-1" width="210" height="210"/><path class="cls-2" d="M77.21,195.74l-1.19,5s36.12,11.07,64.54-4.17l-1.89-3.84-16-37.17-35.91,5.3Z"/><path class="cls-3" d="M106,166.21l7.53,33s14.76,1.53,27.14-7.93c0,0-2.65-27-15-40.86a189.32,189.32,0,0,1-18,6.55l-4.18,3.53Z"/><path class="cls-3" d="M84.43,154.59l-10.06,39.7s11.43,7.18,24.49,3.08c0,0,.92-0.2,2.27-5.64S107.69,157,107.69,157,92.65,156.87,84.43,154.59Z"/><path class="cls-4" d="M78.09,121.52s6.25,25.15,6.34,33.07c0,0,4.84,3.51,14.38,3s18.51-.41,26.87-7.09l4.82-37.37s-13.37-9-17.59-19.54L98.78,99.63,76,106.48Z"/><path class="cls-4" d="M52.18,185.35l30.48-9,1.17,4.79-31.06,7-0.25,1a1.49,1.49,0,0,1,1,1.6,1.3,1.3,0,0,1-2,1.13,2,2,0,0,1-.23-2.57A2.14,2.14,0,0,1,50,187.56c-0.21-1.29,0-1.87.45-2.06,0,0-1.19-.6-1-1.48a1.28,1.28,0,0,1,1.24-1.32A1.17,1.17,0,0,1,52,183.76a1.58,1.58,0,0,1-.23,1.28Z"/><polygon class="cls-3" points="75.28 173.37 80.23 176.53 78.22 177.04 75.28 173.37"/><path class="cls-4" d="M87.24,81s0.61,4.85-.43,6.9A12.75,12.75,0,0,1,83,92.17s12.22,12,13.19,12.73,4.27,2.63,5.17,2.16,5-5.3,6.4-7.08S117,88.22,118.09,87.71c0,0-4.06-1.88-4.44-4.9s-0.79-5.61-.79-5.61l-9.93,7.6-6.6,3.28-7.89-7.7Z"/><path class="cls-3" d="M88.31,77.65s-2.52.18-1.93,2A5.29,5.29,0,0,0,87.24,81c2.19,2.78,7.72,7.86,8.57,7.92,1,0.08,1.21.87,7.14-3.32s8.76-6.68,9.52-7.69a14.69,14.69,0,0,0,1.42-6c-0.21-.65-1.34-1-1.56,0s-0.66,2.89-.66,2.89S108,80.75,99.11,85.74a3.63,3.63,0,0,1-4.54-.57A76.81,76.81,0,0,1,88.31,77.65Z"/><path class="cls-3" d="M83,92.17s-14.13,1.63-18.38,8.62a38.55,38.55,0,0,0-5.34,23s8.32,4.44,23.59-4.93c0,0,7.71-5.23,9.65-17.45Z"/><path class="cls-3" d="M59.33,123.81l-0.27,30.11,13.64-3.79S75,142,75.85,137.42s2.24-15.9,2.24-15.9S68.53,125.83,59.33,123.81Z"/><path class="cls-3" d="M54.71,156.25L60,168.38l5.42,7.47,9.85-2.48,2.07-23.48s-3.85-1.65-10.33-.27S56.17,154.15,54.71,156.25Z"/><polygon class="cls-3" points="65.3 175.92 65.05 185.38 81.82 181.63 75.17 173.36 65.3 175.92"/><polygon class="cls-3" points="65.2 185.39 66.88 189.87 80.61 187.22 81.9 181.63 65.2 185.39"/><path class="cls-3" d="M118.09,87.71l0.4-.14c2-.65,11.79-3,26.25,5.58l10,8.14s-6.71,15-24.19,11.8c0,0-8.46-4.86-12.79-10.89s-4.8-8.64-4.8-8.64S116.86,88.44,118.09,87.71Z"/><path class="cls-2" d="M96.63,127.76l16.47,24.11c12.16,18.85,36.17,33.84,59.09,26.69,19.26-16.37,8.32-47.62-3.5-64.66L152.36,90C130.53,99.33,113.23,110.87,96.63,127.76Z"/><path class="cls-5" d="M133.43,131.78a3,3,0,0,0,.39-4.16l-14-20.36a127,127,0,0,0-23.24,20.62l14.34,21C118.15,142.86,125.72,137.12,133.43,131.78Z"/><path class="cls-5" d="M138.43,124.49a3.21,3.21,0,0,0,4.23,1c7.76-5.15,15.78-10,23.89-14.62L152.33,90.09a137.84,137.84,0,0,0-27.85,14.06Z"/><path class="cls-5" d="M141.52,138.86a2.72,2.72,0,0,0-3.86-.91c-7.73,5.31-15.37,10.81-22.82,16.51,11.88,16.28,33.5,30.38,54.47,24.92Z"/><path class="cls-5" d="M146.89,131.69a2.88,2.88,0,0,0-.75,4l28.09,41c15.13-16.51,7.35-43.87-3.81-60.18Q158.53,123.9,146.89,131.69Z"/><path class="cls-4" d="M81.68,172l3,12.92a2,2,0,0,0,1,1.4,1.79,1.79,0,0,0-.84,1.09c-0.21.77,0,2.48,1.34,2.51s1.79-.51,1.88-1.17,0.31-2.11-.75-2.63c0,0,.58-0.78,0-2.94s-2.82-12.36-2.82-12.36,1.54-2-.27-3a2.52,2.52,0,0,0-3.13.62A3.09,3.09,0,0,0,81.68,172Z"/><polygon class="cls-4" points="85.08 173.62 156.56 150.47 171.19 149.47 160.61 157.78 87.06 182.31 85.08 173.62"/><path class="cls-2" d="M85.71,176.39l74.52-22.86S86.53,180,86.49,179.8Z"/><path class="cls-4" d="M82.94,7.36s-9.26,31.43,5.72,53l6.23-11.83S90.53,17.18,82.94,7.36Z"/><path class="cls-4" d="M108.38,47.54s3.1-16.79,6.71-19.07,8.62-1.4,8.62-1.4-3.31,19-4.59,22.67-3.37,10.12-4.92,12.75C114.21,62.49,114,58.34,108.38,47.54Z"/><path class="cls-4" d="M115.1,28.48s-2.66,1.88.9,10.83,8.16,21.82,14.1,26.86c0,0-1.08-37.92-6.38-39.09C123.72,27.07,118.55,26.49,115.1,28.48Z"/><path class="cls-3" d="M94.89,48.52l-8.7,15.86,2.12,13.28s5.75,8.46,8.41,8.73,9.56-5.4,11.79-7.71a24.17,24.17,0,0,0,3.16-3.86l3-13.22-6.31-14a3,3,0,0,0-2.2-.9C104.71,46.61,97,46.41,94.89,48.52Z"/><path class="cls-2" d="M114.19,60.33l-1.53-3.25-13.88,8L105,46.62l-2.48,0S96.93,64,96.16,65.07l-8.88-2.55-1.1,1.85,0.41,2.57L96.29,70l0.42,16.34a4.48,4.48,0,0,0,2.4-.65L98.86,69.86Z"/><polygon points="100.59 64.54 100.65 68.55 108.63 63.54 108.47 59.85 100.59 64.54"/><polygon points="88.56 63.31 88.67 67.34 94.85 69.24 94.8 65.1 88.56 63.31"/></g></svg>