<svg id="Ebene_2" data-name="Ebene 2" xmlns="http://www.w3.org/2000/svg" width="350" height="350" viewBox="0 0 350 350"><defs><style>.cls-1{fill:#1d1d1b;}.cls-2{fill:#c8c8c8;}.cls-3{font-size:18px;font-family:Raleway;}.cls-3,.cls-6{fill:#fff;}.cls-4{letter-spacing:-1px;}.cls-5{fill:#e6cad4;}</style></defs><title>LOGO</title><path class="cls-1" d="M231,148.87A63,63,0,0,1,193.37,195c-31.38,12.3-67.41-3.23-80.54-34.22C100,130.53,112.77,94,142.44,79.39c20.06-9.85,43.72-7.55,62.15,4.74,1.16,0.77.68-1.42,0.12-1.87-23.41-18.74-55.85-22.67-82.77-9.07a76.63,76.63,0,0,0-41.18,59.58A78.05,78.05,0,0,0,107.51,200a76.1,76.1,0,0,0,125.27-49.63C232.86,149.57,231.29,147.64,231,148.87Zm-42,59.74a75.51,75.51,0,0,1-70.84-3,74.25,74.25,0,0,1-36.08-64A75,75,0,0,1,188.92,74.43a62,62,0,0,0-77.79,34.72c-13.18,31.25.44,68.92,30.3,84.86a62.05,62.05,0,0,0,84.3-24.61A75.29,75.29,0,0,1,189,208.61Z"/><path class="cls-2" d="M125.07,128.94s-12.92,14.57-11.51,35.71,9.31,25,21.29,31.63c0,0,6,11.1,17.31,11.24,5.17,0.06,11.29-3,13-5.63,0,0,5.66,4.53,9.05,4.21,6-.55,10.43-2.72,13.91-7.54,0,0,3.37,3.45,5.56-1.1,0,0,2.35,3.76,4.93,1.72a7.79,7.79,0,0,0,3-5.4s1.57,2.82,2.43,2.66,4-.23,4.7-7-8.77-7.28-9.63-7c0,0,3.45-10.1,1.17-20,0,0,5.48,1.25,6.27-4.07s1.64-21.62.39-29.84-4.39-24.12-12.77-28.43-16.45-7.52-20.44-6.34-6.66,4-9.56,8.3-7.83,9.63-8.62,15a36.71,36.71,0,0,0-12.3-.47s-6.19-28-19.66-42.53S98.37,51.87,91.16,52.18,84,57,84.11,58.45s5.8,25.85,13.94,40.73,10.34,17.86,12.69,20.36S123,129.56,125.07,128.94Z"/><path class="cls-1" d="M200.61,181.21a40.7,40.7,0,0,0,.92-17.5c5.28,0.29,6.18-5.13,6.55-9.72,0.7-8.78,1.11-17.91-.29-26.63-1.29-8.1-3.16-17.25-8.3-23.88-2.87-3.7-7-5.46-11.17-7.33-4-1.78-8.82-4-13.34-3.73-4.75.29-8.33,4.16-10.93,7.77-3.48,4.83-7.89,9.75-9.34,15.65a37.32,37.32,0,0,0-10.7-.42,119.37,119.37,0,0,0-11.23-29.82c-4.17-7.64-9.72-13.92-16.05-19.85-5.77-5.4-12.36-11-20-13.67-4.07-1.41-10.71-2-13.08,2.57-1.5,2.9-.08,6.48.65,9.39a173.71,173.71,0,0,0,18.35,45.43c2.2,3.78,4.39,7.73,7.47,10.88A51.78,51.78,0,0,0,118.6,127a24.08,24.08,0,0,0,4.39,2.62c-9.88,12.36-12.72,30.25-9,45.3a28.38,28.38,0,0,0,12.38,17.59c2.37,1.56,6.19,2.93,7.86,4.64,1.82,1.86,3,4.25,5,6,7,6.28,19.48,7.79,26.17.15,2.78,2.09,6.05,4,9.57,3.77a19,19,0,0,0,13.39-7.07,3.89,3.89,0,0,0,5.43-.84c3.06,3.16,6.67.7,8.2-3a3,3,0,0,0,3.28,1.14c3-.76,4.06-4.3,4.38-7C210.31,185.17,205.6,181.32,200.61,181.21Zm1.94,12.24c-0.34-.6-1.75-1.31-2-0.18-0.55,2.88-3.52,7.45-6.1,3.59a1.05,1.05,0,0,0-1.69-.14c-0.9,1.51-2.71,2.33-4.09,1a1,1,0,0,0-1.47.08,17.2,17.2,0,0,1-12.64,7.1c-3.28.18-6.35-1.9-8.85-3.86a1,1,0,0,0-1.47.08c-4.38,5.7-13.68,6.5-19.69,3.35-3.7-1.94-5.87-4.88-8.43-8-1.76-2.15-4.55-3.13-7-4.58a28.94,28.94,0,0,1-9.32-8.14c-6.75-9.85-6.58-24.86-3.37-35.87,1.88-6.45,5-13.11,9.47-18.22a1,1,0,0,0-.15-1.39,1,1,0,0,0-1-.47c-2.18.25-5.54-2.7-7.08-3.8a48,48,0,0,1-6.12-5,40.71,40.71,0,0,1-5.64-7.83,165.28,165.28,0,0,1-17.9-41c-1.05-3.7-2.61-7.8-2.94-11.67-0.57-6.65,8.39-5.61,12.43-4,6.78,2.77,12.66,7.82,18,12.77,6.17,5.78,11.54,11.87,15.56,19.33a118.08,118.08,0,0,1,11.07,29.94,1.3,1.3,0,0,0,1.25,1.07,35.58,35.58,0,0,1,12,.45,0.9,0.9,0,0,0,1.07-.58c1.17-5.9,5.52-10.58,8.89-15.37,3.71-5.27,7.85-8.68,14.49-7,5.22,1.35,12.39,3.86,16.38,7.63,3.55,3.35,5.44,8.39,6.82,13a84.81,84.81,0,0,1,3.34,25.63c0,4.43-.24,8.87-0.64,13.29-0.31,3.43-1.1,7.48-5.52,6.58a0.93,0.93,0,0,0-1.1,1.13,38.41,38.41,0,0,1-1.14,19.42,1.29,1.29,0,0,0,1.22,1.62c2.42-.38,6.41.71,7.75,2.84C209,189.39,205.57,198.7,202.55,193.46Z"/><path class="cls-1" d="M134.73,156.18c-3-2.83-6.75-3.93-10.71-2.39a10.71,10.71,0,0,0-3.22,1.84c-0.66.6-.42,0.09,0.16,0.08h-1.82a1.18,1.18,0,0,0,0,2.35,4.92,4.92,0,0,0,3.53-.9c3.48-2.39,7.25-2.25,10.4.69,1.11,1,2.77-.63,1.66-1.66h0Z"/><path class="cls-1" d="M170.81,150.68a8.17,8.17,0,0,1,5.25-3.3c2.65-.39,4.31,1,6.49,2.13a5.7,5.7,0,0,0,3.1.5,1.18,1.18,0,0,0,0-2.35,3.87,3.87,0,0,1-2.36-.51,24.49,24.49,0,0,0-3.17-1.65,9.3,9.3,0,0,0-5.76-.15,11,11,0,0,0-5.58,4.14c-0.87,1.24,1.16,2.41,2,1.19h0Z"/><path class="cls-1" d="M189.12,185.61c-1.57-11-7.71-21.76-15.87-29.19-0.27-.24-1.49.27-1.28,0.46,8.1,7.38,14.23,18.11,15.79,29.09,0,0.27,1.41,0,1.36-.36h0Z"/><path class="cls-1" d="M126.11,137.31a41.64,41.64,0,0,1,7,9.29c3.41,6.09,3.4,11.5,2.63,18.24-0.71,6.22-1.67,12.4-2.48,18.6-0.57,4.4-.62,8.71,1.32,12.85,0.16,0.33,1.47-.13,1.36-0.36-1.95-4.14-1.9-8.44-1.32-12.85,0.86-6.6,1.89-13.19,2.61-19.81s0.23-12.06-3.29-17.95a42.73,42.73,0,0,0-6.6-8.48c-0.25-.25-1.49.26-1.28,0.46h0Z"/><circle class="cls-1" cx="148.65" cy="189.18" r="0.63"/><circle class="cls-1" cx="147.55" cy="193.88" r="0.63"/><circle class="cls-1" cx="150.22" cy="197.56" r="0.63"/><circle class="cls-1" cx="176.53" cy="186.89" r="0.63"/><circle class="cls-1" cx="178.25" cy="190.18" r="0.63"/><circle class="cls-1" cx="175.9" cy="194.26" r="0.63"/><path class="cls-1" d="M168.67,120.25c-7.76-3.07-17.25-6.12-25.75-4.67-1.36.23-.47,2.32,0.66,2.13,8.12-1.38,17.32,1.55,24.71,4.48,1.42,0.56,1.55-1.47.39-1.93h0Z"/><text class="cls-3" transform="translate(157.08 294.87)">g<tspan x="11.15" y="0">o</tspan><tspan x="21.9" y="0">o</tspan><tspan x="32.64" y="0">d </tspan><tspan x="48.52" y="0">n</tspan><tspan x="59.03" y="0">i</tspan><tspan x="63.1" y="0">g</tspan><tspan x="74.19" y="0">h</tspan><tspan x="84.52" y="0">t </tspan><tspan x="95.41" y="0">m</tspan><tspan x="111.98" y="0">o</tspan><tspan x="122.67" y="0">n</tspan><tspan x="133.19" y="0">i</tspan><tspan x="137.12" y="0">t</tspan><tspan x="143.1" y="0">o</tspan><tspan class="cls-4" x="153.79" y="0">r</tspan><tspan x="159.08" y="0">.</tspan></text><path class="cls-1" d="M208.66,186c-0.54-2.11-3.14-3.35-5-3.92-4.7-1.45-10.38-1-14.46,1.87-5.07,3.61-7.2,11.24-1.73,15.46a1,1,0,1,0,1.29-1.63c-4.32-3.33-2-9.16,1.76-11.89,3.28-2.36,7.56-2.73,11.44-2,1.41,0.28,4.26.93,4.7,2.67a1,1,0,1,0,2-.6h0Z"/><path class="cls-1" d="M142,186.5c-3.58-2.33-8.34-3.28-12.45-4.09C114.67,179.48,99,180.34,84,182c-0.76.08-1,1.12-.12,1,14.71-1.62,29.94-2.46,44.58.28,4.08,0.76,9,1.68,12.52,4,0.51,0.33,1.7-.37,1-0.8h0Z"/><path class="cls-1" d="M139.17,190.29a55.74,55.74,0,0,0-22.68,1.59c-0.84.23-.58,1.23,0.27,1a54,54,0,0,1,22-1.54c0.7,0.1,1.37-.91.46-1h0Z"/><path class="cls-1" d="M141.39,193.76c-17.83,4.13-36.53,15.4-44.46,32.36-0.34.72,1,.76,1.31,0.18,7.74-16.54,26-27.52,43.42-31.55,0.86-.2.59-1.19-0.26-1h0Z"/><path class="cls-1" d="M183.17,184.14c9.88-9.6,25.32-14.25,38.35-17,0.84-.18.62-1-0.22-0.81-13.37,2.78-29.13,7.62-39.25,17.46-0.59.57,0.74,0.68,1.12,0.31h0Z"/><path class="cls-1" d="M182.88,187.82c4.1-1.83,9.08-2.4,13.32-.77,0.43,0.17,1.66-.46,1.08-0.68-4.77-1.83-10.32-1.21-14.94.85-0.86.38-.08,0.88,0.55,0.6h0Z"/><path class="cls-1" d="M181.54,191.66c19.18-5.14,41.15-3.36,59.76,2.9,0.37,0.13,1.6-.44,1.1-0.61-19-6.4-41.41-8.13-61-2.88-0.81.22-.66,0.81,0.16,0.59h0Z"/><path class="cls-1" d="M162.89,193.7l1.54,8.39c0.12,0.63,1.58.27,1.46-.39l-1.54-8.39c-0.12-.63-1.58-0.27-1.46.39h0Z"/><path class="cls-5" d="M155.17,187.33a23.69,23.69,0,0,0,1.11,3.57c0.37,0.52,7.33,2.56,7.33,2.56s6-3.81,6.36-4.88c0.25-.85-1-3.65-1-3.65a9.55,9.55,0,0,0-8.45-3C156.15,182.4,154.89,185.86,155.17,187.33Z"/><path class="cls-1" d="M154.38,187.65c0.4,1.6.56,3.47,2,4.34a18.17,18.17,0,0,0,6.5,2.15c1.17,0.06,1.85-.6,2.87-1.28,1.43-1,4.13-2.31,4.83-4,1.43-3.52-2.83-6.6-5.56-7.39-4.18-1.22-11.3.61-10.68,6.2,0.11,1,1.67.2,1.58-.65-0.64-5.76,8.48-4.72,11.35-2.45a3.65,3.65,0,0,1,1.33,1.8c1,2.42-.44,3.15-2.26,4.43a31.53,31.53,0,0,1-2.95,2c0.47-.26.72,0.17,0-0.24a9,9,0,0,0-1.79-.55,16.66,16.66,0,0,1-4.11-1.4c-1.14-.77-1.27-2.23-1.6-3.56C155.71,186,154.17,186.82,154.38,187.65Z"/><path class="cls-5" d="M128,127.84s3-4.53,6.89-5.8a41.37,41.37,0,0,1-2.92-8.43c-1.27-5.24-9.13-29.18-19.87-41.6S98.69,58.08,89.28,57.07c0,0,1.32,16.6,5.85,25.31s9.22,23.64,14.58,29.67S128,127.84,128,127.84Z"/><path class="cls-1" d="M136,121.73c-3.13-4.22-3.18-10.75-4.89-15.7a140.76,140.76,0,0,0-8.89-20.26c-6.52-12.25-16.94-29.19-32.67-29.42-0.37,0-1.39.19-1.39,0.72,0.09,15.25,7.14,30,13.56,43.49a55.64,55.64,0,0,0,11.69,16.78c4.19,3.94,9.49,6.68,13.5,10.82,0.51,0.52,2.67-.14,2.19-0.63-3.82-3.94-8.8-6.65-12.91-10.26-5.48-4.82-9.5-11.37-12.56-17.91C97.48,86.25,90.79,72.2,90.47,57.5c7.17,0.72,13.18,6,17.74,11.22a98.67,98.67,0,0,1,13.57,21.17,131.18,131.18,0,0,1,7.57,18.29c1.46,4.56,1.51,10.26,4.42,14.17C134.19,122.93,136.41,122.34,136,121.73Z"/><path class="cls-5" d="M160.63,114.74s17.28,4.86,19.89,8.72L176.77,104l-0.67-6.37s-1.68-1.34-5.11,1.51S160.63,114.74,160.63,114.74Z"/><path class="cls-1" d="M205.8,158.47c-2.77,7-5.41,3.19-7.45-.05-2.25-3.56-4.3-7.24-6.23-11a149.28,149.28,0,0,1-13.34-36c-0.74-3.35-1.33-6.72-1.74-10.12-0.12-1,.09-3.7-0.64-4.32-0.55-.47-1.93-0.09-2.51.07C167,99,162.68,109.28,159.95,114.86c-0.32.65,1.14,0.51,1.36,0.05,2.54-5.19,5.32-10.93,9.61-14.94,0.76-.71,3.15-3,4.37-2.26,0.55,0.31.9,8.28,1.1,9.4,0.62,3.56,1.43,7.1,2.38,10.59a147.53,147.53,0,0,0,6.76,19.21,144.84,144.84,0,0,0,12.56,23.78c3.06,4.56,7.31,2.29,9.17-2.4,0.2-.5-1.26-0.33-1.46.17h0Z"/><path class="cls-6" d="M66.45,267.65a18.51,18.51,0,0,1-1.35,7.17,16.37,16.37,0,0,1-3.82,5.61,17.33,17.33,0,0,1-6,3.68,21.82,21.82,0,0,1-7.72,1.31A28.31,28.31,0,0,1,38.53,284a21.88,21.88,0,0,1-7.83-4.81l4.44-5.53a18.13,18.13,0,0,0,5.53,4.19,15.57,15.57,0,0,0,6.77,1.42,15.08,15.08,0,0,0,6-1.06,10.39,10.39,0,0,0,3.82-2.73,9.82,9.82,0,0,0,2-3.82,16.5,16.5,0,0,0,.58-4.33v-5.1H59.68a11.53,11.53,0,0,1-5.13,4.62,16.08,16.08,0,0,1-6.81,1.49,18.1,18.1,0,0,1-7-1.35,16.7,16.7,0,0,1-5.57-3.71,16.92,16.92,0,0,1-3.64-5.61,18.56,18.56,0,0,1-1.31-7,20.1,20.1,0,0,1,1.24-7.1A17.35,17.35,0,0,1,35,237.81a16,16,0,0,1,5.53-3.86,18.28,18.28,0,0,1,7.24-1.38,16.08,16.08,0,0,1,6.81,1.53,12.49,12.49,0,0,1,5.21,4.29H59.9v-5h6.55v34.22Zm-17.91-29a11.85,11.85,0,0,0-4.73.91,10.45,10.45,0,0,0-3.57,2.48A10.91,10.91,0,0,0,38,245.85a14.16,14.16,0,0,0-.8,4.84,11.59,11.59,0,0,0,3.06,8.41,11,11,0,0,0,8.3,3.17,11,11,0,0,0,8.3-3.17,11.59,11.59,0,0,0,3.06-8.41,14.18,14.18,0,0,0-.8-4.84,11,11,0,0,0-2.26-3.79,10.48,10.48,0,0,0-3.57-2.48A11.85,11.85,0,0,0,48.54,238.68Z"/><path class="cls-6" d="M74.58,250.69A17.57,17.57,0,0,1,76,243.63a18.39,18.39,0,0,1,3.89-5.75,18.54,18.54,0,0,1,26.06,0,18.41,18.41,0,0,1,3.89,5.75,17.57,17.57,0,0,1,1.42,7.06A17.94,17.94,0,0,1,106,263.54a18.48,18.48,0,0,1-5.82,3.86,18.65,18.65,0,0,1-20.24-3.86A17.94,17.94,0,0,1,74.58,250.69Zm7,0a14.15,14.15,0,0,0,.8,4.84,10.89,10.89,0,0,0,2.26,3.79,10.41,10.41,0,0,0,3.57,2.48,12.76,12.76,0,0,0,9.46,0,10.43,10.43,0,0,0,3.57-2.48,10.92,10.92,0,0,0,2.26-3.79,15,15,0,0,0,0-9.68,11,11,0,0,0-2.26-3.79,10.48,10.48,0,0,0-3.57-2.48,12.76,12.76,0,0,0-9.46,0,10.45,10.45,0,0,0-3.57,2.48,10.91,10.91,0,0,0-2.26,3.79A14.16,14.16,0,0,0,81.56,250.69Z"/><path class="cls-6" d="M119.35,233.44h6.55v5.31h0.15a9.66,9.66,0,0,1,4.3-4.48,14.22,14.22,0,0,1,7.06-1.71,15,15,0,0,1,4.77.76,10.77,10.77,0,0,1,4,2.37,11.43,11.43,0,0,1,2.73,4.11,15.74,15.74,0,0,1,1,5.93v22.2h-6.55V247.56a11.53,11.53,0,0,0-.66-4.11,7.52,7.52,0,0,0-1.75-2.77,6.57,6.57,0,0,0-2.51-1.53,9.27,9.27,0,0,0-2.95-.47,10.7,10.7,0,0,0-3.79.66,7.89,7.89,0,0,0-3.06,2.07,9.79,9.79,0,0,0-2,3.6,16.38,16.38,0,0,0-.73,5.17v17.76h-6.55V233.44Z"/><path class="cls-6" d="M159.88,233.44h6.55v34.51h-6.55V233.44Z"/><path class="cls-6" d="M176.58,233.44h6.12v5.39h0.15A5.69,5.69,0,0,1,184,237a11.59,11.59,0,0,1,2.33-2.07,14.4,14.4,0,0,1,3.35-1.67,12.55,12.55,0,0,1,4.26-.69,12.22,12.22,0,0,1,6.48,1.6,11.92,11.92,0,0,1,4.3,4.8,11,11,0,0,1,4.73-4.8,13.22,13.22,0,0,1,6.19-1.6,14.31,14.31,0,0,1,6.55,1.31,10.56,10.56,0,0,1,4,3.46,13.21,13.21,0,0,1,2,4.88,28.69,28.69,0,0,1,.55,5.64v20.09h-6.55V248.73a27.36,27.36,0,0,0-.25-3.79,8.78,8.78,0,0,0-1.06-3.2,6,6,0,0,0-2.26-2.22,7.72,7.72,0,0,0-3.86-.84q-4.73,0-6.77,2.91a12.79,12.79,0,0,0-2,7.5v18.85h-6.55V249.89a36.67,36.67,0,0,0-.25-4.51,10.62,10.62,0,0,0-1-3.53,5.63,5.63,0,0,0-2.18-2.33,7.51,7.51,0,0,0-3.82-.84,8.63,8.63,0,0,0-3.39.69,8,8,0,0,0-2.88,2.07,10.06,10.06,0,0,0-2,3.53,15.79,15.79,0,0,0-.73,5.06v17.91h-6.55V233.44Z"/><path class="cls-6" d="M236.56,250.69a17.57,17.57,0,0,1,1.42-7.06,18.39,18.39,0,0,1,3.89-5.75,18.54,18.54,0,0,1,26.06,0,18.41,18.41,0,0,1,3.89,5.75,17.57,17.57,0,0,1,1.42,7.06,17.94,17.94,0,0,1-5.31,12.85,18.48,18.48,0,0,1-5.82,3.86,18.65,18.65,0,0,1-20.24-3.86A17.94,17.94,0,0,1,236.56,250.69Zm7,0a14.15,14.15,0,0,0,.8,4.84,10.89,10.89,0,0,0,2.26,3.79,10.41,10.41,0,0,0,3.57,2.48,12.76,12.76,0,0,0,9.46,0,10.43,10.43,0,0,0,3.57-2.48,10.92,10.92,0,0,0,2.26-3.79,15,15,0,0,0,0-9.68,11,11,0,0,0-2.26-3.79,10.48,10.48,0,0,0-3.57-2.48,12.76,12.76,0,0,0-9.46,0,10.45,10.45,0,0,0-3.57,2.48,10.91,10.91,0,0,0-2.26,3.79A14.16,14.16,0,0,0,243.55,250.69Z"/></svg>