<?xml version="1.0" encoding="utf-8"?>
<!-- Generator: Adobe Illustrator 19.2.1, SVG Export Plug-In . SVG Version: 6.00 Build 0)  -->
<!DOCTYPE svg PUBLIC "-//W3C//DTD SVG 1.1//EN" "http://www.w3.org/Graphics/SVG/1.1/DTD/svg11.dtd">
<svg version="1.1" id="Ebene_1" xmlns="http://www.w3.org/2000/svg" xmlns:xlink="http://www.w3.org/1999/xlink" x="0px" y="0px"
	 viewBox="0 0 346.7 214.7" style="enable-background:new 0 0 346.7 214.7;" xml:space="preserve">
<style type="text/css">
	.st0{clip-path:url(#SVGID_2_);fill:#FFFFFF;}
	.st1{clip-path:url(#SVGID_2_);fill:#111516;}
	.st2{clip-path:url(#SVGID_2_);fill:#BCBEBE;}
	.st3{clip-path:url(#SVGID_2_);fill:#DEC0CA;}
</style>
<g>
	<defs>
		<rect id="SVGID_1_" x="0.7" y="0.2" width="346.4" height="213.8"/>
	</defs>
	<clipPath id="SVGID_2_">
		<use xlink:href="#SVGID_1_"  style="overflow:visible;"/>
	</clipPath>
	<path class="st0" d="M200.2,119.2c-23.8,9.5-51.1-2.5-61-26.9c-9.8-24.4,1.5-52,25.4-61.6c14.3-5.7,30.6-3.9,43.3,4.9
		c-23.9-19.5-59.1-15.9-78.6,8s-15.9,59.1,8,78.6s59.1,15.9,78.6-8c6.9-8.4,11.1-18.6,12.3-29.4
		C225.3,100.3,214.7,113.3,200.2,119.2"/>
	<path class="st1" d="M199.7,118.4c-23.4,8.9-49.7-2.3-59.6-25.3c-9.6-22.3-0.1-49.4,21.9-60.2c14.8-7.1,32.4-5.8,46,3.5
		c0.8,0.6,0.5-1.1,0.1-1.4c-24-19.7-59.5-16.3-79.2,7.7c-7,8.5-11.3,18.8-12.5,29.7c-1.9,18.8,5.5,37.3,19.8,49.6
		c23.6,20.3,59.1,17.6,79.4-6c7.4-8.7,12.1-19.4,13.3-30.7c0-0.6-1.1-2-1.3-1.1C224.6,99.6,214.1,112.4,199.7,118.4
		c-0.6,0.3,0.3,1.9,1,1.6c14.6-6.1,25.2-19.1,28.2-34.6l-1.3-1c-3.2,30.5-30.6,52.6-61.1,49.4c-7.9-0.8-15.5-3.4-22.4-7.4
		c-16.6-10-26.8-28-26.7-47.3c0.3-30.7,25.4-55.3,56-55c12.5,0.1,24.7,4.5,34.4,12.4l0.1-1.4c-12.6-8.6-28.5-10.6-42.8-5.3
		c-11.8,4.5-21.3,13.7-26.2,25.3c-9.7,23.1,0.4,51,22.4,62.8c12.2,6.5,26.6,7.3,39.4,2.3C201.3,119.7,200.4,118.1,199.7,118.4"/>
	<path class="st2" d="M149.2,69.5c-6,7.5-9,16.9-8.5,26.4c1,15.6,6.9,18.5,15.8,23.4c0,0,4.4,8.2,12.8,8.3c3.8,0,8.3-2.2,9.6-4.2
		c0,0,4.2,3.3,6.7,3.1c4.1-0.2,7.9-2.2,10.3-5.6c0.8,1,2.3,1.2,3.3,0.4c0.4-0.3,0.7-0.7,0.8-1.2c0,0,1.7,2.8,3.7,1.3
		c1.3-1,2-2.4,2.2-4c0,0,1.2,2.1,1.7,2c0.6-0.1,3-0.2,3.5-5.2s-6.5-5.4-7.1-5.2c1.5-4.8,1.8-9.9,0.9-14.8c1.9,0.6,4-0.6,4.5-2.5
		c0-0.2,0.1-0.3,0.1-0.5c0.9-7.3,1-14.7,0.3-22.1c-0.9-6.1-3.2-17.8-9.4-21c-6.2-3.2-12.1-5.6-15.1-4.7s-4.9,3-7.1,6.1
		c-2.1,3.2-5.7,7.2-6.3,11.2c-3-0.6-6.1-0.7-9.1-0.3c0,0-4.6-20.7-14.5-31.5c-10-10.8-18.7-16.5-24-16.2c-5.3,0.2-5.3,3.6-5.2,4.6
		c0.1,1.1,4.3,19.1,10.4,30.1c6.1,11.1,7.7,13.2,9.4,15.1C140.4,64.4,147.6,70,149.2,69.5"/>
	<path class="st1" d="M156.3,89.8c-2-2.1-5.2-2.8-7.9-1.7c-0.9,0.3-1.7,0.8-2.4,1.4c-0.5,0.4-0.3,0,0.1,0h-1.4
		c-0.5,0-0.9,0.4-0.9,0.9c0,0.5,0.4,0.9,0.9,0.9c0.9,0.1,1.9-0.1,2.6-0.7c2.3-1.8,5.6-1.6,7.7,0.5c0.4,0.3,0.9,0.2,1.2-0.2
		C156.5,90.5,156.5,90.1,156.3,89.8"/>
	<path class="st1" d="M183,85.6c0.9-1.3,2.3-2.2,3.9-2.4c2-0.3,3.2,0.7,4.8,1.6c0.7,0.3,1.5,0.5,2.3,0.4c0.5,0,0.9-0.4,0.9-0.9
		s-0.4-0.9-0.9-0.9c-0.6,0.1-1.2-0.1-1.7-0.4c-0.7-0.5-1.5-0.9-2.3-1.2c-1.4-0.5-2.9-0.5-4.3-0.1c-1.7,0.6-3.1,1.6-4.1,3.1
		C180.9,85.6,182.4,86.5,183,85.6L183,85.6z"/>
	<path class="st1" d="M166.6,113.6c0.3,0,0.5,0.2,0.5,0.5c0,0.3-0.2,0.5-0.5,0.5c-0.3,0-0.5-0.2-0.5-0.5
		C166.1,113.8,166.3,113.6,166.6,113.6"/>
	<path class="st1" d="M165.8,117.1c0.3,0,0.5,0.2,0.5,0.5c0,0.3-0.2,0.5-0.5,0.5c-0.3,0-0.5-0.2-0.5-0.5
		C165.3,117.3,165.5,117.1,165.8,117.1"/>
	<path class="st1" d="M167.8,119.8c0.3,0,0.5,0.2,0.5,0.5c0,0.3-0.2,0.5-0.5,0.5c-0.3,0-0.5-0.2-0.5-0.5
		C167.3,120,167.5,119.8,167.8,119.8"/>
	<path class="st1" d="M187.2,111.9c0.3,0,0.5,0.2,0.5,0.5c0,0.3-0.2,0.5-0.5,0.5c-0.3,0-0.5-0.2-0.5-0.5
		C186.8,112.1,187,111.9,187.2,111.9"/>
	<path class="st1" d="M188.5,114.4c0.3,0,0.5,0.2,0.5,0.5c0,0.3-0.2,0.5-0.5,0.5c-0.3,0-0.5-0.2-0.5-0.5
		C188,114.6,188.2,114.4,188.5,114.4"/>
	<path class="st1" d="M186.8,117.4c0.3,0,0.5,0.2,0.5,0.5c0,0.3-0.2,0.5-0.5,0.5c-0.3,0-0.5-0.2-0.5-0.5
		C186.3,117.6,186.5,117.4,186.8,117.4"/>
	<path class="st0" d="M185,187.9v2.8v5.8c0.2,1.7-0.3,3.3-1.4,4.6c-1,0.8-2.3,1.3-3.6,1.2c-1.2,0-2.3-0.3-3.3-0.8l0.5-1.4
		c0.9,0.5,1.9,0.8,2.9,0.8c1.7,0.1,3.1-1.1,3.2-2.8c0-0.2,0-0.5,0-0.7v-1.1c-0.7,1.1-1.9,1.8-3.2,1.7c-2.5-0.1-4.4-2.2-4.3-4.7
		c0-0.1,0-0.1,0-0.2c-0.3-2.6,1.6-5,4.2-5.3c0.1,0,0.2,0,0.3,0c1.3-0.1,2.5,0.6,3.1,1.7V188L185,187.9L185,187.9z M183.2,191.9
		c0-0.3,0-0.6-0.1-0.8c-0.3-1.1-1.4-1.9-2.5-1.9c-1.7,0-3,1.5-3,3.8c-0.3,1.7,0.9,3.3,2.6,3.6c0.1,0,0.2,0,0.3,0
		c1.2,0,2.2-0.8,2.5-1.9c0.1-0.3,0.1-0.6,0.1-1V191.9L183.2,191.9z"/>
	<path class="st0" d="M196.9,192.8c0.2,2.7-1.7,5.1-4.4,5.3c-0.2,0-0.4,0-0.5,0c-2.6,0-4.8-2.1-4.8-4.7c0-0.2,0-0.4,0-0.5
		c-0.2-2.7,1.7-5.1,4.4-5.3c0.2,0,0.3,0,0.5,0c2.6-0.1,4.8,2,4.8,4.6C196.9,192.5,196.9,192.7,196.9,192.8 M188.9,192.9
		c-0.4,1.7,0.7,3.3,2.3,3.7c1.7,0.4,3.3-0.7,3.7-2.3c0.1-0.5,0.1-0.9,0-1.4c0-1.7-0.8-3.8-3-3.8C189.9,189.1,188.9,191,188.9,192.9"
		/>
	<path class="st0" d="M208.2,192.8c0.2,2.7-1.7,5.1-4.4,5.3c-0.2,0-0.4,0-0.5,0c-2.6,0-4.8-2.1-4.8-4.7c0-0.2,0-0.4,0-0.5
		c-0.2-2.7,1.7-5.1,4.4-5.3c0.2,0,0.3,0,0.5,0c2.6-0.1,4.8,2,4.8,4.6C208.2,192.5,208.2,192.7,208.2,192.8 M200.3,192.9
		c-0.4,1.7,0.7,3.3,2.3,3.7c1.7,0.4,3.3-0.7,3.7-2.3c0.1-0.5,0.1-0.9,0-1.4c0-1.7-0.8-3.8-3-3.8C201.2,189.1,200.3,191,200.3,192.9"
		/>
	<path class="st0" d="M219.1,183.3v12.1v2.6h-1.6v-1.7c-0.7,1.3-2,2-3.5,2c-2.4,0-4.3-2-4.3-5.1c0-3.3,2-5.4,4.5-5.4
		c1.2-0.1,2.4,0.5,3,1.5v-6h1.7H219.1z M217.4,191.9c0-0.3,0-0.5,0-0.8c-0.3-1.2-1.4-2.1-2.6-2.1c-1.9,0-3,1.7-3,3.9s1,3.7,3,3.7
		c1.3,0,2.4-0.9,2.7-2.2c0-0.3,0-0.5,0-0.8L217.4,191.9L217.4,191.9z"/>
	<path class="st0" d="M226.5,190.6v-2.7h1.6l0.1,1.7c0.7-1.2,1.9-1.9,3.3-1.9c1.4,0,3.5,0.8,3.5,4.3v6h-1.8v-5.8c0-1.6-0.6-3-2.3-3
		c-1.4,0.1-2.6,1.3-2.6,2.7v6h-1.8L226.5,190.6L226.5,190.6z"/>
	<path class="st0" d="M239.8,185.1c0,0.6-0.5,1.1-1.1,1.1c-0.6,0-1.1-0.5-1.1-1.1c0-0.6,0.5-1.1,1.1-1.1h0.1c0.6,0,1.1,0.4,1.1,1
		C239.8,185,239.8,185.1,239.8,185.1 M237.7,187.9h1.8v10h-1.8V187.9z"/>
	<path class="st0" d="M251,187.9v2.8v5.8c0.2,1.7-0.3,3.3-1.4,4.6c-1,0.8-2.3,1.3-3.6,1.2c-1.2,0-2.3-0.3-3.3-0.8l0.5-1.4
		c0.9,0.5,1.9,0.8,2.9,0.8c1.7,0.1,3.1-1.1,3.2-2.8c0-0.2,0-0.5,0-0.7v-1.1c-0.7,1.1-1.9,1.8-3.2,1.7c-2.5-0.1-4.4-2.2-4.3-4.7
		c0-0.1,0-0.1,0-0.2c-0.3-2.6,1.6-5,4.2-5.3c0.1,0,0.2,0,0.3,0c1.3-0.1,2.5,0.6,3.1,1.7V188L251,187.9L251,187.9z M249.1,191.9
		c0-0.3,0-0.6-0.1-0.8c-0.3-1.1-1.4-1.9-2.5-1.9c-1.7,0-3,1.5-3,3.8c-0.3,1.7,0.9,3.3,2.6,3.6c0.1,0,0.2,0,0.3,0
		c1.1,0,2.2-0.8,2.5-1.9c0.1-0.3,0.1-0.6,0.1-1L249.1,191.9L249.1,191.9z"/>
	<path class="st0" d="M253.7,183.3h1.8v6.2c0.3-0.5,0.8-1,1.3-1.3c0.6-0.3,1.2-0.5,1.9-0.5c1.4,0,3.5,0.8,3.5,4.3v6h-1.7v-5.7
		c0-1.6-0.6-3-2.3-3c-1.1,0-2.1,0.7-2.4,1.7c-0.1,0.3-0.1,0.6-0.1,0.9v6h-1.8L253.7,183.3L253.7,183.3z"/>
	<path class="st0" d="M267,185v2.9h2.6v1.4H267v5.4c0,1.2,0.3,1.9,1.4,1.9c0.4,0,0.7,0,1.1-0.1v1.4c-0.5,0.2-1.1,0.3-1.6,0.2
		c-0.7,0-1.4-0.2-2-0.8c-0.6-0.7-0.8-1.7-0.7-2.6v-5.5h-1.5v-1.4h1.5v-2.4L267,185z"/>
	<path class="st0" d="M276,190.6v-2.7h1.6v1.6c0.6-1.2,1.8-1.9,3.1-1.8c1.3,0,2.4,0.8,2.8,2c0.3-0.5,0.7-0.9,1.1-1.3
		c0.6-0.5,1.4-0.7,2.2-0.7c1.3,0,3.3,0.9,3.3,4.3v5.9h-1.7v-5.7c0-1.9-0.7-3.1-2.2-3.1c-1,0.1-1.9,0.8-2.1,1.7
		c-0.1,0.3-0.1,0.6-0.1,0.9v6.2h-1.7v-6.1c0.3-1.2-0.6-2.5-1.8-2.7c-0.1,0-0.2,0-0.3,0c-1.4,0.1-2.5,1.3-2.4,2.8v6H276V190.6
		L276,190.6z"/>
	<path class="st0" d="M302.1,192.8c0.2,2.7-1.7,5.1-4.4,5.3c-0.2,0-0.4,0-0.5,0c-2.6,0-4.8-2.1-4.8-4.7c0-0.2,0-0.4,0-0.5
		c-0.2-2.7,1.7-5.1,4.4-5.3c0.2,0,0.3,0,0.5,0c2.6-0.1,4.8,2,4.8,4.6C302.2,192.5,302.2,192.7,302.1,192.8 M294.2,192.9
		c-0.4,1.7,0.7,3.3,2.3,3.7c1.7,0.4,3.3-0.7,3.7-2.3c0.1-0.5,0.1-0.9,0-1.4c0-1.7-0.8-3.8-3-3.8C295.1,189.1,294.2,191,294.2,192.9"
		/>
	<path class="st0" d="M304.3,190.6v-2.7h1.6l0.1,1.7c0.7-1.2,1.9-1.9,3.3-1.9c1.4,0,3.5,0.8,3.5,4.3v6H311v-5.8c0-1.6-0.6-3-2.3-3
		c-1.4,0.1-2.6,1.3-2.6,2.7v6h-1.8L304.3,190.6L304.3,190.6z"/>
	<path class="st0" d="M317.6,185.1c0,0.6-0.5,1.1-1.1,1.1c-0.6,0-1.1-0.5-1.1-1.1c0-0.6,0.5-1.1,1.1-1.1h0.1c0.6,0,1.1,0.4,1.1,1
		C317.6,185,317.6,185.1,317.6,185.1 M315.6,197.9v-10h1.8v10H315.6L315.6,197.9z"/>
	<path class="st0" d="M322.3,185v2.9h2.6v1.4h-2.6v5.4c0,1.2,0.3,1.9,1.4,1.9c0.4,0,0.7,0,1.1-0.1v1.4c-0.5,0.2-1.1,0.3-1.6,0.2
		c-0.7,0-1.4-0.2-2-0.8c-0.6-0.7-0.8-1.7-0.7-2.6v-5.5h-1.5v-1.4h1.5v-2.4L322.3,185z"/>
	<path class="st0" d="M335.6,192.8c0.2,2.7-1.7,5.1-4.4,5.3c-0.2,0-0.4,0-0.5,0c-2.6,0-4.8-2.1-4.8-4.7c0-0.2,0-0.4,0-0.5
		c-0.2-2.7,1.7-5.1,4.4-5.3c0.2,0,0.3,0,0.5,0c2.6-0.1,4.8,2,4.8,4.6C335.7,192.5,335.7,192.7,335.6,192.8 M327.7,192.9
		c-0.4,1.7,0.7,3.3,2.3,3.7c1.7,0.4,3.3-0.7,3.7-2.3c0.1-0.5,0.1-0.9,0-1.4c0-1.7-0.8-3.8-3-3.8C328.6,189.1,327.7,191,327.7,192.9"
		/>
	<path class="st0" d="M337.8,191v-3.1h1.6v2c0.4-1.3,1.5-2.1,2.8-2.2c0.2,0,0.3,0,0.5,0v1.7c-0.2,0-0.4,0-0.6,0
		c-1.3,0-2.3,1.1-2.4,2.3c0,0.3,0,0.6,0,0.8v5.3h-1.7L337.8,191L337.8,191z"/>
	<path class="st0" d="M343,196.8c0-0.7,0.5-1.3,1.2-1.3c0,0,0.1,0,0.1,0c0.7,0,1.3,0.5,1.3,1.2c0,0.7-0.5,1.3-1.2,1.4
		C343.6,198.2,343,197.6,343,196.8C343,196.9,343,196.9,343,196.8"/>
	<path class="st3" d="M171.4,112.7c0.2,0.9,0.5,1.8,0.8,2.6c1.8,0.8,3.6,1.4,5.4,1.9c0,0,4.5-2.8,4.7-3.6c-0.1-0.9-0.3-1.9-0.7-2.7
		c-1.6-1.7-3.9-2.6-6.3-2.2C173.2,108.7,171.4,110.5,171.4,112.7C171.4,112.7,171.4,112.7,171.4,112.7"/>
	<path class="st3" d="M151.3,68.7c1.3-1.9,3-3.4,5.1-4.3c-0.9-2-1.7-4.1-2.2-6.2c-0.9-3.9-6.8-21.6-14.7-30.8
		c-7.9-9.2-9.9-10.4-16.9-11c0,0,1,12.3,4.3,18.7c3.4,6.4,6.8,17.5,10.8,21.9C142,61.2,146.6,65.2,151.3,68.7"/>
	<path class="st1" d="M157.2,64.2c-2.3-3.1-2.4-7.9-3.6-11.6c-1.8-5.2-4-10.2-6.6-15c-4.8-9.1-12.5-21.6-24.2-21.8
		c-0.4,0-0.8,0.2-1,0.5c0,11.3,5.2,22.2,10,32.2c2.1,4.6,5,8.8,8.7,12.4c3.2,2.8,7.1,4.9,10.1,8c0.4,0.4,2-0.1,1.6-0.5
		c-2.8-2.9-6.5-4.9-9.5-7.6c-4-3.7-7.1-8.2-9.3-13.2c-4.6-9.9-9.7-20.5-9.7-31.6l-1,0.5c5.8,0,10.6,4.2,14.2,8.4
		c4,4.7,7.4,10,10,15.6c2.2,4.4,4.1,8.9,5.6,13.5c1.1,3.4,1.1,7.6,3.3,10.5c0.3,0.4,2,0,1.6-0.5L157.2,64.2z"/>
	<path class="st3" d="M175.5,59c0,0,12.8,3.6,14.7,6.4l-2.8-14.4l-0.5-4.7c0,0-1.2-1-3.8,1.1C180.6,49.6,175.5,59,175.5,59"/>
	<path class="st1" d="M235.9,118.5c-7.8-2.6-16-4.1-24.2-4.4c-0.2-0.9-0.5-1.7-1.1-2.4c-0.2-0.3-0.4-0.5-0.6-0.7c-1.4-1.3-3.1-2-5-2
		c0.6-2,0.9-4.1,1-6.3c4.7-1.8,9.5-3.1,14.4-4.1c0.6-0.1,0.5-0.7-0.2-0.6c-4.9,1-9.6,2.3-14.3,4.1c0.1-2-0.1-4-0.4-6
		c3.9,0.2,4.6-3.8,4.8-7.2c0.7-6.6,0.6-13.2-0.2-19.7c-1-6-2.3-12.8-6.1-17.7c-2.1-2.7-5.2-4-8.3-5.4c-3.1-1.4-6.5-3-9.9-2.8
		c-3.3,0.2-6.2,3.1-8.1,5.8c-2.6,3.6-5.8,7.2-6.9,11.6c-1.4-0.3-2.9-0.4-4.3-0.4c-1.2-0.1-2.4,0-3.6,0.1c-1.8-7.7-4.6-15.2-8.4-22.1
		c-3.1-5.5-7.2-10.5-11.9-14.7c-4.3-4-9.1-8.2-14.8-10.1c-3-1-7.9-1.5-9.7,1.9c-1.1,2.1,0,4.8,0.5,6.9c2.9,11.8,7.5,23.1,13.6,33.6
		c1.5,2.9,3.4,5.6,5.5,8.1c1.9,1.9,4.1,3.5,6.3,5c1,0.8,2.1,1.4,3.2,1.9c-7.3,9.1-9.4,22.3-6.7,33.5c0.4,1.5,0.9,2.9,1.5,4.3
		c-7.9-0.4-15.8-0.1-23.7,0.9c-0.6,0-0.8,0.8,0,0.7c8-1,16.2-1.3,24.2-0.9c1.3,2.4,3.1,4.6,5.2,6.4c-1.8,0.2-3.5,0.6-5.2,1.1
		c-0.6,0.2-0.4,0.9,0.2,0.7c1.9-0.5,3.9-0.9,5.8-1.2c0.4,0.3,0.8,0.6,1.3,0.9c1.4,0.9,3.5,1.7,4.9,2.7
		c-11.1,3.9-21.8,11.5-26.7,22.1c-0.2,0.5,0.8,0.6,1,0.1c4.9-10.4,15.5-17.9,26.4-21.7l0,0.3c1.4,1.4,2.3,3.1,3.7,4.5
		c5.2,4.6,14.4,5.8,19.3,0.1c2,1.8,4.5,2.7,7.1,2.8c3.9-0.3,7.5-2.2,9.9-5.2c1.3,0.9,3.1,0.7,4-0.6c0,0,0,0,0,0
		c2.3,2.3,4.9,0.5,6.1-2.2c0.6,0.7,1.5,0.9,2.4,0.7c2.2-0.6,3-3.2,3.2-5.2c0-0.4,0-0.8,0-1.2c8,0.3,15.8,1.8,23.4,4.3
		C235.4,119,236.3,118.6,235.9,118.5 M206,111c1,0.2,3.2,0.7,3.5,2c0.1,0.3,0.3,0.5,0.6,0.6c0,0.2,0,0.3,0,0.5
		c-5-0.1-10.1,0.4-15,1.3c0.5-1,1.3-2,2.2-2.7c1.5-0.1,3,0.2,4.4,0.7c0.3,0.1,1.2-0.3,0.8-0.5c-1.4-0.5-2.8-0.8-4.3-0.8
		C200.6,110.8,203.4,110.4,206,111L206,111z M195.6,108.3c2.7-1.9,5.6-3.5,8.7-4.8c-0.2,1.9-0.5,3.8-1.1,5.6c-2.4,0-4.7,0.6-6.7,2
		l-0.2,0.2C196.2,110.3,196,109.3,195.6,108.3L195.6,108.3z M150.1,115.6c-1.9-1.3-3.5-2.8-4.8-4.7c-0.3-0.4-0.6-0.9-0.8-1.3
		c2.4,0.2,4.8,0.5,7.2,1c1.1,0.2,2.3,0.4,3.5,0.7c-0.2,1.4-0.2,2.7-0.1,4.1C153.4,115.4,151.7,115.5,150.1,115.6 M152.2,117
		l-1.1-0.7c1.3-0.1,2.6-0.1,4-0.1c0.1,0.9,0.3,1.9,0.6,2.8C154.6,118.2,153.4,117.7,152.2,117 M185.8,126.6
		c-2.4-0.2-4.7-1.2-6.5-2.8l-1-5.4c0.3-0.2,0.6-0.4,1-0.7c1.1-0.7,3.1-1.7,3.6-3c1.1-2.6-2.1-4.9-4.1-5.5c-3.1-0.9-8.4,0.4-7.9,4.6
		c0.1,1.2,0.6,2.4,1.5,3.2c1.5,0.8,3.1,1.4,4.8,1.6l1,5.2c-3.2,4.2-10.1,4.8-14.6,2.5c-2.5-1.5-4.6-3.5-6.2-5.9l-0.1-0.1
		c1.4-0.5,2.8-0.8,4.2-1.2c0.6-0.1,0.4-0.9-0.2-0.7c-1.4,0.3-2.8,0.7-4.2,1.2c-0.4-1-0.7-2.1-0.9-3.3c1,0,2.1,0.2,3.1,0.3
		c0.5,0,1-0.7,0.3-0.8c-1.2-0.2-2.3-0.3-3.5-0.3c-0.1-1.3-0.1-2.6,0-3.9c1.7,0.4,3.3,1.1,4.8,2c0.4,0.2,1.3-0.3,0.8-0.6
		c-1.7-1-3.6-1.8-5.5-2.2v-0.3c0.6-4.9,1.4-9.8,1.9-14.7c0.8-4.6-0.1-9.3-2.4-13.3c-1.4-2.3-3-4.4-4.9-6.3c-0.2-0.2-1.1,0.2-1,0.3
		c2,2.1,3.8,4.4,5.2,6.9c2.5,4.5,2.5,8.5,1.9,13.5c-0.5,4.5-1.2,9-1.7,13.6c-1-0.2-1.9-0.4-2.8-0.6c-2.8-0.6-5.6-0.9-8.5-1.2
		c-3.7-7.2-3.5-17-1.2-24.4c1.3-4.9,3.7-9.5,6.9-13.5c0.2-0.3,0.2-0.7,0-0.9c-0.1-0.3-0.5-0.5-0.8-0.5c-1.6,0.2-4.1-2-5.2-2.8
		c-1.6-1.1-3.1-2.3-4.6-3.7c-1.6-1.8-3-3.7-4.2-5.8c-5.7-9.5-10.2-19.7-13.1-30.3c-1-2.8-1.7-5.7-2.2-8.7c-0.4-4.9,6.2-4.2,9.2-2.9
		c5,2.3,9.5,5.5,13.3,9.5c4.6,4.1,8.5,8.9,11.5,14.3c3.7,7,6.5,14.4,8.2,22.1c0.1,0.5,0.5,0.8,0.9,0.8c2.2-0.3,4.4-0.3,6.6,0
		c0.7,0.1,1.5,0.2,2.2,0.3c3.2,0.8,6.4,1.9,9.5,3.1c1.1,0.4,1.1-1.1,0.3-1.5c-2.8-1.2-5.7-2.1-8.7-2.9c1.1-3.9,4-7.2,6.3-10.5
		c2.7-3.9,5.8-6.4,10.7-5.2c3.9,1,9.2,2.9,12.1,5.6c2.5,2.7,4.2,6,5,9.6c1.8,6.2,2.6,12.6,2.5,19c0,3.3-0.2,6.6-0.5,9.8
		c-0.2,2.5-0.8,5.4-3.9,4.9c-0.6-0.7-1.2-1.4-1.6-2.2c-1.7-2.6-3.2-5.4-4.6-8.1c-4.4-8.4-7.7-17.4-9.9-26.6c-0.5-2.5-1-5-1.3-7.5
		c-0.1-0.7,0-2.7-0.5-3.2c-0.6-0.2-1.3-0.2-1.9,0c-5.2,1.4-8.3,9.1-10.4,13.2c-0.2,0.5,0.8,0.4,1,0c1.7-4.1,4.1-7.8,7.1-11
		c0.6-0.5,2.3-2.2,3.2-1.7c0.4,0.2,0.7,6.1,0.8,6.9c0.5,2.6,1.1,5.2,1.7,7.8c1.3,4.8,3,9.6,5,14.2c2.5,6.1,5.7,12,9.3,17.6
		c0.2,0.4,0.5,0.7,0.8,1c0,0.1,0,0.2,0,0.3c0.5,2.5,0.7,5,0.5,7.6c-3.2,1.3-6.2,2.9-9,4.8c-2-6.5-5.7-12.3-10.7-16.9
		c-0.2-0.2-1.1,0.2-1,0.3c5.1,4.6,8.8,10.6,10.7,17.2c-1.2,0.8-2.2,1.8-3.3,2.8c-0.4,0.4,0.5,0.5,0.8,0.2c0.8-0.8,1.7-1.6,2.6-2.3
		c0.3,1,0.5,2.1,0.7,3.1l-0.3,0.3c-1.2,0.2-2.5,0.6-3.6,1.1c-0.6,0.3,0,0.7,0.4,0.4c0.9-0.4,1.8-0.7,2.7-0.9
		c-0.6,0.9-1.1,1.8-1.4,2.9c-0.8,0.2-1.6,0.4-2.4,0.6c-0.8,0.2-0.5,0.6,0.1,0.4c0.6-0.2,1.5-0.4,2.2-0.5c-0.5,2,0.1,4.2,1.6,5.6
		C192.5,124.6,189.3,126.3,185.8,126.6L185.8,126.6z M180.4,111.6c0.5,0.3,0.8,0.8,1,1.3c0.7,1.7-0.3,2.3-1.7,3.3
		c-0.7,0.5-1.3,1-2,1.4h-0.1c-0.4-0.2-0.9-0.3-1.3-0.4c-1.1-0.2-2.1-0.6-3-1c-0.7-0.7-1.1-1.6-1.2-2.6
		C171.5,109.1,178.3,109.9,180.4,111.6L180.4,111.6z M206.5,118c-0.3-0.4-1.3-1-1.5-0.1c-0.4,2.1-2.6,5.5-4.5,2.6
		c-0.2-0.4-0.7-0.5-1.1-0.3c-0.1,0-0.1,0.1-0.2,0.1c-0.4,1-1.6,1.5-2.5,1c-0.1-0.1-0.3-0.1-0.4-0.2c-1.7-1.3-2.2-3.5-1.3-5.4
		c5-1,10.1-1.4,15.3-1.3C210.2,117.4,208.3,121.3,206.5,118L206.5,118z"/>
	<path class="st0" d="M105.8,172.2c0,1.8-0.3,3.6-1,5.3c-0.6,1.5-1.6,2.9-2.8,4.1c-1.3,1.2-2.8,2.1-4.4,2.7c-1.8,0.7-3.8,1-5.7,1
		c-2.3,0-4.5-0.3-6.7-1c-2.2-0.8-4.1-2-5.8-3.6l3.3-4.1c1.2,1.3,2.5,2.3,4.1,3.1c1.6,0.7,3.3,1.1,5,1.1c1.5,0,3-0.2,4.5-0.8
		c1.1-0.5,2-1.1,2.8-2c0.7-0.8,1.2-1.8,1.5-2.8c0.3-1,0.4-2.1,0.4-3.2v-3.8h-0.2c-0.9,1.5-2.2,2.7-3.8,3.5c-1.6,0.7-3.3,1.1-5,1.1
		c-1.8,0-3.5-0.3-5.2-1c-1.5-0.6-2.9-1.6-4.1-2.8c-1.2-1.2-2.1-2.6-2.7-4.1c-0.7-1.7-1-3.4-1-5.2c0-1.8,0.3-3.5,0.9-5.2
		c0.6-1.6,1.5-3,2.6-4.3c1.1-1.2,2.5-2.2,4.1-2.9c1.7-0.7,3.5-1,5.4-1c1.7,0,3.5,0.4,5,1.1c1.5,0.7,2.9,1.8,3.8,3.2h0.1v-3.6h4.8
		L105.8,172.2L105.8,172.2z M92.6,150.7c-1.2,0-2.4,0.2-3.5,0.7c-1,0.4-1.9,1-2.6,1.8c-0.8,0.8-1.4,1.8-1.7,2.8
		c-0.4,1.2-0.6,2.4-0.6,3.6c-0.1,2.3,0.7,4.5,2.3,6.2c3.5,3.1,8.8,3.1,12.3,0c1.5-1.7,2.4-3.9,2.3-6.2c0-1.2-0.2-2.4-0.6-3.6
		c-0.4-1-1-2-1.7-2.8c-0.7-0.8-1.6-1.4-2.6-1.8C94.9,150.9,93.7,150.7,92.6,150.7"/>
	<path class="st0" d="M111.8,159.6c0-1.8,0.4-3.6,1.1-5.2c0.7-1.6,1.7-3,2.9-4.3c5.3-5.3,13.9-5.3,19.3,0c1.2,1.2,2.2,2.7,2.9,4.3
		c0.7,1.6,1.1,3.4,1.1,5.2c0,3.6-1.4,7-3.9,9.5c-1.2,1.2-2.7,2.2-4.3,2.9c-5.1,2.1-11,1-15-2.9C113.2,166.6,111.8,163.2,111.8,159.6
		 M117,159.6c0,1.2,0.2,2.4,0.6,3.6c0.4,1,1,2,1.7,2.8c0.7,0.8,1.6,1.4,2.6,1.8c2.2,0.9,4.7,0.9,6.9,0c1-0.4,1.9-1,2.7-1.9
		c0.8-0.8,1.4-1.8,1.7-2.8c0.8-2.3,0.8-4.8,0-7.2c-0.4-1-1-2-1.7-2.8c-0.8-0.8-1.7-1.4-2.7-1.8c-2.2-0.9-4.7-0.9-6.9,0
		c-1,0.4-1.9,1-2.6,1.8c-0.8,0.8-1.4,1.8-1.7,2.8C117.1,157.2,116.9,158.4,117,159.6L117,159.6z"/>
	<path class="st0" d="M144.9,146.9h4.8v3.9h0.1c0.7-1.5,1.8-2.6,3.2-3.4c1.6-0.9,3.4-1.3,5.2-1.3c1.2,0,2.3,0.2,3.5,0.6
		c1.1,0.4,2.1,0.9,3,1.7c0.9,0.9,1.6,1.9,2,3c0.5,1.4,0.8,2.9,0.8,4.4v16.4h-4.8v-15c0-1-0.1-2.1-0.5-3c-0.3-0.8-0.7-1.5-1.3-2
		c-0.5-0.5-1.2-0.9-1.9-1.1c-0.7-0.2-1.4-0.3-2.2-0.3c-1,0-1.9,0.2-2.8,0.5c-0.9,0.3-1.6,0.9-2.3,1.5c-0.7,0.8-1.2,1.7-1.5,2.7
		c-0.4,1.2-0.6,2.5-0.5,3.8v13.1h-4.8V146.9z"/>
	<rect x="174.9" y="146.9" class="st0" width="4.8" height="25.5"/>
	<path class="st0" d="M187.3,146.9h4.5v4h0.1c0.2-0.5,0.5-1,0.8-1.4c0.5-0.6,1.1-1.1,1.7-1.5c0.8-0.5,1.6-0.9,2.5-1.2
		c1-0.4,2.1-0.5,3.2-0.5c1.7-0.1,3.3,0.3,4.8,1.2c1.4,0.9,2.5,2.1,3.2,3.5c0.8-1.5,2-2.8,3.5-3.5c1.4-0.8,3-1.2,4.6-1.2
		c1.7-0.1,3.3,0.3,4.8,1c1.2,0.6,2.2,1.5,3,2.6c0.7,1.1,1.2,2.3,1.5,3.6c0.3,1.4,0.4,2.8,0.4,4.2v14.9h-4.8v-14.2
		c0-0.9-0.1-1.9-0.2-2.8c-0.1-0.8-0.4-1.6-0.8-2.4c-0.4-0.7-1-1.3-1.7-1.6c-2.7-1.2-5.8-0.6-7.9,1.5c-1.1,1.6-1.6,3.6-1.5,5.5v13.9
		H204V159c0-1.1-0.1-2.2-0.2-3.3c-0.1-0.9-0.4-1.8-0.8-2.6c-0.4-0.7-0.9-1.3-1.6-1.7c-0.9-0.5-1.8-0.7-2.8-0.6
		c-0.9,0-1.7,0.2-2.5,0.5c-0.8,0.3-1.5,0.9-2.1,1.5c-0.7,0.8-1.2,1.7-1.5,2.6c-0.4,1.2-0.6,2.5-0.5,3.7v13.2h-4.8v-25.5H187.3z"/>
	<path class="st0" d="M231.6,159.6c0-1.8,0.4-3.6,1.1-5.2c0.7-1.6,1.7-3,2.9-4.3c5.3-5.3,13.9-5.3,19.3,0c1.2,1.2,2.2,2.7,2.9,4.3
		c0.7,1.6,1.1,3.4,1.1,5.2c0,3.6-1.4,7-3.9,9.5c-1.2,1.2-2.7,2.2-4.3,2.9c-5.1,2.1-11,1-15-2.9C233,166.6,231.6,163.2,231.6,159.6
		 M236.8,159.6c0,1.2,0.2,2.4,0.6,3.6c0.4,1,1,2,1.7,2.8c0.7,0.8,1.6,1.4,2.6,1.8c2.2,0.9,4.7,0.9,6.9,0c1-0.4,1.9-1,2.6-1.8
		c0.8-0.8,1.4-1.8,1.7-2.8c0.8-2.3,0.8-4.8,0-7.2c-0.4-1-1-2-1.7-2.8c-0.7-0.8-1.6-1.4-2.6-1.8c-2.2-0.9-4.7-0.9-6.9,0
		c-1,0.4-1.9,1-2.6,1.8c-0.8,0.8-1.4,1.8-1.7,2.8C237,157.2,236.8,158.4,236.8,159.6L236.8,159.6z"/>
</g>
</svg>
