<?xml version="1.0" encoding="utf-8"?>
<!-- Generator: Adobe Illustrator 19.2.1, SVG Export Plug-In . SVG Version: 6.00 Build 0)  -->
<!DOCTYPE svg PUBLIC "-//W3C//DTD SVG 1.1//EN" "http://www.w3.org/Graphics/SVG/1.1/DTD/svg11.dtd">
<svg version="1.1" xmlns="http://www.w3.org/2000/svg" xmlns:xlink="http://www.w3.org/1999/xlink" x="0px" y="0px"
	 viewBox="0 0 1037.1 800" style="enable-background:new 0 0 1037.1 800;" xml:space="preserve">
<style type="text/css">
	.st0{display:none;}
	.st1{fill:none;stroke:#000000;stroke-miterlimit:10;}
	.st2{fill:#C1272D;stroke:#000000;stroke-miterlimit:10;}
	.st3{fill:#FFFFFF;stroke:#000000;stroke-miterlimit:10;}
	.st4{fill:#E6CAD4;}
	.st5{fill:#1D1D1B;}
	.st6{fill:#C8C8C8;}
	.st7{fill:#656564;}
	.st8{fill:#FFFFFF;}
	.st9{fill:#C1272D;stroke:#000000;stroke-width:1.1534;stroke-miterlimit:10;}
	.st10{fill:#FFFFFF;stroke:#000000;stroke-width:1.1534;stroke-miterlimit:10;}
	.st11{fill:none;stroke:#000000;stroke-width:1.1534;stroke-miterlimit:10;}
	.st12{fill:#FFFFFF;stroke:#000000;stroke-width:1.0931;stroke-miterlimit:10;}
	.st13{fill:#A3182B;stroke:#000000;stroke-miterlimit:10;}
	.st14{fill:#A3182B;stroke:#000000;stroke-width:1.305;stroke-miterlimit:10;}
	.st15{fill:#FFFFFF;stroke:#000000;stroke-width:1.305;stroke-miterlimit:10;}
	.st16{fill:none;stroke:#000000;stroke-width:1.305;stroke-miterlimit:10;}
	.st17{fill:#A3182B;stroke:#000000;stroke-width:1.3302;stroke-miterlimit:10;}
	.st18{fill:#FFFFFF;stroke:#000000;stroke-width:1.3302;stroke-miterlimit:10;}
	.st19{fill:none;stroke:#000000;stroke-width:1.3302;stroke-miterlimit:10;}
	.st20{fill:#A3182B;stroke:#000000;stroke-width:1.1745;stroke-miterlimit:10;}
	.st21{fill:#FFFFFF;stroke:#000000;stroke-width:1.1745;stroke-miterlimit:10;}
	.st22{fill:none;stroke:#000000;stroke-width:1.1745;stroke-miterlimit:10;}
	.st23{fill:#A3182B;}
</style>
<g id="Ebene_2" class="st0">
</g>
<g id="Ebene_1">
</g>
<g id="logo">
	<path class="st8" d="M600.5,478.8c-71.3,28.6-153-7.4-182.5-80.5s4.6-155.5,75.9-184.3c42.9-17.1,91.6-11.5,129.6,14.7
		c-71.6-58.4-177-47.7-235.4,23.9s-47.7,177,23.9,235.4s177,47.7,235.4-23.9c20.6-25.2,33.3-55.8,36.7-88.1
		C675.6,422.2,644.1,460.9,600.5,478.8z"/>
	<path class="st5" d="M599,476.2c-70.1,26.6-148.8-6.8-178.3-75.7c-28.6-66.9-0.2-147.9,65.6-180.1c44.4-21.3,96.9-17.4,137.6,10.4
		c2.5,1.7,1.5-3.2,0.3-4.1c-71.9-59.1-178-48.7-237.1,23.2c-20.9,25.4-33.9,56.3-37.4,89c-5.7,56.2,16.4,111.7,59.2,148.6
		c70.6,60.6,177,52.6,237.6-18c22.2-25.9,36.1-57.9,39.7-91.9c0-1.7-3.3-6-3.8-3.3C673.5,420,642.2,458.4,599,476.2
		c-1.8,0.8,0.9,5.7,3,4.8c43.7-18.3,75.3-57.2,84.3-103.7l-4-3.1c-9.7,91.3-91.6,157.5-182.9,147.8c-23.7-2.5-46.5-10.1-67-22.2
		c-49.8-29.8-80.1-83.7-79.9-141.7c0.8-91.8,75.9-165.5,167.7-164.7c37.6,0.3,73.9,13.4,103.1,37.1l0.3-4.1
		c-37.7-25.7-85.4-31.6-128.2-16c-35.4,13.5-63.8,40.9-78.5,75.8c-29.2,69.2,1.1,152.6,67.1,187.9c36.4,19.4,79.5,21.9,117.9,6.8
		C603.8,480.3,601.1,475.4,599,476.2z"/>
	<path class="st6" d="M447.8,330c-17.9,22.3-27,50.5-25.5,79.1c3.1,46.7,20.7,55.5,47.2,70c0,0,13.2,24.6,38.3,24.9
		c11.5,0,25-6.6,28.8-12.4c0,0,12.5,10,20.1,9.3c12.3-0.5,23.7-6.6,30.8-16.7c2.4,3.1,6.8,3.6,9.9,1.2c1.2-0.9,2-2.2,2.4-3.6
		c0,0,5.2,8.3,10.9,3.8c3.8-2.9,6.1-7.3,6.5-12.1c0,0,3.5,6.2,5.2,5.9s8.9-0.5,10.4-15.6s-19.4-16.1-21.4-15.6
		c4.5-14.3,5.4-29.5,2.6-44.2c5.8,1.7,11.9-1.7,13.6-7.6c0.1-0.5,0.2-1,0.3-1.5c2.6-21.9,2.9-44.1,0.9-66.1
		c-2.8-18.2-9.7-53.4-28.3-62.9s-36.3-16.6-45.3-14c-9,2.6-14.7,8.9-21.1,18.4c-6.4,9.5-17.1,21.7-18.9,33.4
		c-8.9-1.9-18.1-2.2-27.2-1l-43.5-94.2c0,0-74.5,22.3-56.2,55.5s22.9,39.6,28.1,45.1S443.1,331.4,447.8,330z"/>
	<path class="st5" d="M469.2,390.6c-6.1-6.4-15.5-8.4-23.7-5.2c-2.6,0.9-5,2.3-7.2,4c-1.5,1.3-0.9,0,0.4,0h-4
		c-1.4,0-2.6,1.2-2.6,2.6c0,1.4,1.2,2.6,2.6,2.6c2.8,0.4,5.6-0.4,7.8-2c6.9-5.5,16.9-4.8,23,1.5c1.2,0.8,2.8,0.6,3.6-0.6
		C469.7,392.7,469.7,391.5,469.2,390.6L469.2,390.6z"/>
	<path class="st5" d="M549,378.2c2.8-3.9,6.9-6.5,11.6-7.3c5.9-0.9,9.5,2.2,14.4,4.7c2.2,1,4.5,1.4,6.9,1.1c1.4,0,2.6-1.2,2.6-2.6
		c0-1.4-1.2-2.6-2.6-2.6c-1.8,0.2-3.6-0.2-5.2-1.1c-2.2-1.4-4.6-2.6-7-3.7c-4.1-1.4-8.6-1.5-12.8-0.3c-5,1.6-9.3,4.9-12.3,9.2
		c-1.9,2.7,2.6,5.2,4.5,2.6l0,0H549z"/>
	<circle class="st5" cx="500" cy="463.5" r="1.4"/>
	<circle class="st5" cx="497.6" cy="473.9" r="1.4"/>
	<circle class="st5" cx="503.5" cy="482" r="1.4"/>
	<circle class="st5" cx="561.7" cy="458.4" r="1.4"/>
	<circle class="st5" cx="565.5" cy="465.7" r="1.4"/>
	<circle class="st5" cx="560.3" cy="474.7" r="1.4"/>
	<path class="st8" d="M555.2,684.4c0,2.2,0,4.6,0,8.2v17.4c0.6,5-0.9,10-4.3,13.7c-3.1,2.5-6.9,3.8-10.9,3.6
		c-3.5,0.1-6.9-0.8-10-2.5l1.3-4.1c2.7,1.6,5.7,2.4,8.8,2.3c5,0.4,9.3-3.3,9.7-8.3c0.1-0.7,0-1.4-0.1-2.1v-3.3l0,0
		c-2,3.3-5.7,5.3-9.5,5.2c-7.4-0.3-13.1-6.5-12.8-13.9c0-0.2,0-0.4,0-0.6c-0.9-7.9,4.8-15,12.7-15.8c0.3,0,0.5-0.1,0.8-0.1
		c3.9-0.2,7.5,1.8,9.3,5.2l0,0v-4.5h4.8L555.2,684.4z M549.6,696.5c0-0.8-0.1-1.7-0.3-2.5c-0.9-3.4-4.1-5.8-7.6-5.8
		c-5.2,0-8.9,4.4-8.9,11.3c-0.8,5.1,2.7,9.9,7.9,10.7c0.3,0.1,0.7,0.1,1,0.1c3.5,0,6.5-2.3,7.6-5.5c0.3-0.9,0.4-1.9,0.4-2.9v-5.2
		V696.5z"/>
	<path class="st8" d="M590.6,699.2c0.7,8-5.2,15.1-13.3,15.9c-0.5,0-1.1,0.1-1.6,0.1c-7.8,0.1-14.3-6.1-14.4-14c0-0.5,0-1,0.1-1.6
		c-0.7-8,5.2-15.1,13.3-15.9c0.5,0,1-0.1,1.6-0.1c7.8-0.2,14.3,6,14.5,13.8C590.7,698,590.7,698.6,590.6,699.2z M566.9,699.5
		c-1.1,5,2,10,7,11.2c5,1.1,10-2,11.2-7c0.3-1.4,0.3-2.8,0-4.1c0-5.2-2.5-11.5-9-11.5C569.7,688,566.9,693.8,566.9,699.5z"/>
	<path class="st8" d="M624.5,699.2c0.7,8-5.2,15.1-13.3,15.9c-0.5,0-1.1,0.1-1.6,0.1c-7.8,0.1-14.3-6.1-14.4-14c0-0.5,0-1,0.1-1.6
		c-0.7-8,5.2-15.1,13.3-15.9c0.5,0,1-0.1,1.6-0.1c7.8-0.2,14.3,6,14.5,13.8C624.5,698,624.5,698.6,624.5,699.2z M600.7,699.5
		c-1.1,5,2,10,7,11.2c5,1.1,10-2,11.2-7c0.3-1.4,0.3-2.8,0-4.1c0-5.2-2.5-11.5-9-11.5C603.5,688,600.7,693.8,600.7,699.5z"/>
	<path class="st8" d="M657.2,670.6v36.3c0,2.6,0,5.7,0,7.7h-4.9v-5.2l0,0c-2,3.8-6.1,6.1-10.4,5.9c-7.3,0-12.8-6.1-12.8-15.2
		c0-10,6.1-16.1,13.4-16.1c3.6-0.2,7.1,1.5,9,4.6l0,0v-18h5.2H657.2z M652,696.5c0.1-0.8,0.1-1.5,0-2.3c-0.8-3.7-4.1-6.3-7.8-6.3
		c-5.7,0-9,5.2-9,11.6c0,6.4,3,11.1,8.9,11.1c3.9,0,7.2-2.7,8-6.5c0.1-0.8,0.1-1.6,0-2.3L652,696.5L652,696.5z"/>
	<path class="st8" d="M679.3,692.5c0-3.1,0-5.7,0-8.1h4.8l0.3,5.2l0,0c2-3.6,5.8-5.8,9.9-5.7c4.1,0,10.4,2.5,10.4,12.8v17.9h-5.4
		v-17.3c0-4.8-1.8-8.9-6.9-8.9c-4.3,0.2-7.7,3.8-7.7,8.1v18h-5.4v-21.8L679.3,692.5z"/>
	<path class="st8" d="M719,676c0,1.9-1.5,3.4-3.4,3.4c-1.9,0-3.4-1.5-3.4-3.4c-0.1-1.8,1.4-3.4,3.2-3.4c0.1,0,0.1,0,0.2,0
		c1.8-0.1,3.3,1.3,3.3,3.1C719,675.8,719,675.9,719,676z M712.9,714.4v-29.9h5.4v29.9H712.9z"/>
	<path class="st8" d="M752.5,684.4c0,2.2,0,4.6,0,8.2v17.4c0.6,5-0.9,10-4.3,13.7c-3.1,2.5-6.9,3.8-10.9,3.6
		c-3.5,0.1-6.9-0.8-10-2.5l1.3-4.1c2.7,1.6,5.7,2.4,8.8,2.3c5,0.4,9.3-3.3,9.7-8.3c0.1-0.7,0-1.4-0.1-2.1v-3.3l0,0
		c-2,3.3-5.7,5.3-9.5,5.2c-7.4-0.3-13.1-6.5-12.8-13.9c0-0.2,0-0.4,0-0.6c-0.9-7.9,4.8-15,12.7-15.8c0.3,0,0.5-0.1,0.8-0.1
		c3.9-0.2,7.5,1.8,9.3,5.2l0,0v-4.5h4.8L752.5,684.4z M746.9,696.5c0-0.8-0.1-1.7-0.3-2.5c-0.9-3.4-4.1-5.8-7.6-5.8
		c-5.2,0-8.9,4.4-8.9,11.3c-0.8,5.1,2.7,9.9,7.9,10.7c0.3,0.1,0.7,0.1,1,0.1c3.4,0,6.5-2.3,7.5-5.5c0.3-0.9,0.4-1.9,0.4-2.9v-5.2
		L746.9,696.5z"/>
	<path class="st8" d="M760.6,670.6h5.4v18.7l0,0c0.9-1.6,2.3-2.9,3.9-3.8c1.7-1,3.6-1.5,5.5-1.6c4,0,10.4,2.5,10.4,12.8v17.8h-5
		v-17.2c0-4.8-1.8-8.9-6.9-8.9c-3.3,0-6.2,2.1-7.3,5.2c-0.3,0.8-0.4,1.7-0.4,2.6v18h-5.4v-43.6H760.6z"/>
	<path class="st8" d="M800.4,675.7v8.6h7.8v4.1h-7.8v16.1c0,3.7,1,5.8,4.1,5.8c1.1,0,2.1-0.1,3.2-0.4v4.1c-1.5,0.5-3.2,0.8-4.8,0.7
		c-2.2,0.1-4.3-0.7-5.9-2.3c-1.7-2.2-2.4-5-2.1-7.8v-16.3h-4.6v-4.1h4.6v-7.2L800.4,675.7z"/>
	<path class="st8" d="M827.5,692.5c0-3.1,0-5.7,0-8.1h4.8v4.8l0,0c1.8-3.5,5.5-5.6,9.4-5.5c3.8,0,7.2,2.4,8.4,6l0,0
		c0.8-1.5,2-2.8,3.3-3.9c1.9-1.5,4.2-2.2,6.6-2.1c3.9,0,9.8,2.6,9.8,13v17.6h-5.2v-17c0-5.8-2.1-9.2-6.5-9.2c-3,0.2-5.6,2.3-6.4,5.2
		c-0.3,0.9-0.4,1.8-0.4,2.7v18.5h-5.2v-18.1c0.8-3.7-1.7-7.4-5.4-8.1c-0.3-0.1-0.6-0.1-0.8-0.1c-4.2,0.4-7.4,4-7.3,8.2v18h-5.2
		v-21.8V692.5z"/>
	<path class="st8" d="M905.7,699.2c0.7,8-5.2,15.1-13.3,15.9c-0.5,0-1.1,0.1-1.6,0.1c-7.8,0.1-14.3-6.1-14.4-14c0-0.5,0-1,0.1-1.6
		c-0.7-8,5.2-15.1,13.3-15.9c0.5,0,1-0.1,1.6-0.1c7.8-0.2,14.3,6,14.5,13.8C905.7,698,905.7,698.6,905.7,699.2z M881.9,699.5
		c-1.1,5,2,10,7,11.2c5,1.1,10-2,11.2-7c0.3-1.4,0.3-2.8,0-4.1c0-5.2-2.5-11.5-9-11.5C884.7,688,881.9,693.8,881.9,699.5z"/>
	<path class="st8" d="M912.1,692.5c0-3.1,0-5.7,0-8.1h4.8l0.3,5.2l0,0c2-3.6,5.8-5.8,9.9-5.7c4.1,0,10.4,2.5,10.4,12.8v17.9h-5.4
		v-17.3c0-4.8-1.8-8.9-6.9-8.9c-4.3,0.2-7.7,3.8-7.7,8.1v18H912v-21.8L912.1,692.5z"/>
	<path class="st8" d="M951.9,676c0,1.9-1.5,3.4-3.4,3.4s-3.4-1.5-3.4-3.4c-0.1-1.8,1.4-3.4,3.2-3.4c0.1,0,0.1,0,0.2,0
		c1.8-0.1,3.3,1.3,3.3,3.1C951.9,675.8,951.9,675.9,951.9,676z M945.8,714.4v-29.9h5.4v29.9h-5.6H945.8z"/>
	<path class="st8" d="M966.1,675.7v8.6h7.8v4.1h-7.8v16.1c0,3.7,1,5.8,4.1,5.8c1.1,0,2.1-0.1,3.2-0.4v4.1c-1.5,0.5-3.2,0.8-4.8,0.7
		c-2.2,0.1-4.3-0.7-5.9-2.3c-1.7-2.2-2.4-5-2.1-7.8v-16.3h-4.6v-4.1h4.6v-7.2L966.1,675.7z"/>
	<path class="st8" d="M1006,699.2c0.7,8-5.2,15.1-13.3,15.9c-0.5,0-1.1,0.1-1.6,0.1c-7.8,0.1-14.3-6.1-14.4-14c0-0.5,0-1,0.1-1.6
		c-0.7-8,5.2-15.1,13.3-15.9c0.5,0,1-0.1,1.6-0.1c7.8-0.2,14.3,6,14.5,13.8C1006,698,1006,698.6,1006,699.2z M982.2,699.5
		c-1.1,5,2,10,7,11.2c5,1.1,10-2,11.2-7c0.3-1.4,0.3-2.8,0-4.1c0-5.2-2.5-11.5-9-11.5C985,688,982.2,693.8,982.2,699.5L982.2,699.5z
		"/>
	<path class="st8" d="M1012.5,693.8c0-3.5,0-6.5,0-9.3h4.8v5.9l0,0c1.1-3.7,4.4-6.4,8.3-6.5c0.5-0.1,1-0.1,1.6,0v5.2
		c-0.6-0.1-1.2-0.1-1.9,0c-3.9,0.1-7,3.2-7.3,7c-0.1,0.8-0.1,1.7,0,2.5v16h-5.2v-20.7L1012.5,693.8z"/>
	<path class="st8" d="M1028,711.1c-0.1-2,1.4-3.8,3.5-3.9c0.1,0,0.2,0,0.3,0c2.1-0.1,4,1.6,4,3.7s-1.6,4-3.7,4c-2.1,0.1-4-1.6-4-3.7
		C1028,711.2,1028,711.2,1028,711.1z"/>
	<path class="st4" d="M514.4,459.4c0.6,2.7,1.5,5.3,2.5,7.9c5.3,2.3,10.7,4.2,16.2,5.7c0,0,13.4-8.4,14.1-10.8
		c-0.2-2.8-1-5.6-2.2-8.1c-4.7-5.2-11.8-7.7-18.7-6.7c-6.6,0-11.9,5.3-11.9,11.9C514.4,459.3,514.4,459.3,514.4,459.4z"/>
	<path class="st4" d="M454.3,327.7c3.8-5.6,9.1-10.1,15.2-12.9c-2.8-6-5-12.2-6.5-18.7c-2.8-11.6-43.5-90.3-43.5-90.3
		s-48.1,1.9-38.1,21.2c10.1,19.3,20.4,52.4,32.3,65.7C426.5,305.3,440,317,454.3,327.7z"/>
	<path class="st5" d="M471.9,314.1c-6.9-9.3-7-23.8-10.8-34.8c-5.4-15.4-12-30.4-19.7-44.8c-14.4-27.1-60.1,2.8-45.6,32.8
		c6.3,13.9,15.1,26.5,25.9,37.2c9.5,8.4,21.2,14.7,30.1,24c1.1,1.1,5.9-0.3,4.9-1.4c-8.4-8.7-19.5-14.7-28.6-22.7
		c-11.9-11.2-21.3-24.7-27.8-39.7c-13.9-29.5,32.4-38.1,40.4-21.3c6.6,13.1,12.2,26.6,16.7,40.5c3.2,10.1,3.4,22.7,9.8,31.4
		c0.9,1.2,5.9,0,4.9-1.4l0,0L471.9,314.1z"/>
	<path class="st4" d="M526.5,298.6c0,0,38.3,10.8,44.1,19.3l-8.3-43.1l-1.5-14.1c0,0-3.7-3-11.3,3.3
		C541.9,270.3,526.5,298.6,526.5,298.6z"/>
	<path class="st5" d="M707.6,476.6c-23.4-7.8-47.9-12.2-72.6-13.1c-0.5-2.6-1.6-5-3.2-7c-0.5-0.8-1.2-1.5-1.9-2.1
		c-4.1-3.8-9.4-5.9-14.9-6c1.7-6.1,2.7-12.4,3.1-18.8c14-5.3,28.5-9.4,43.2-12.3c1.9-0.4,1.3-2.2-0.5-1.8
		c-14.5,2.9-28.8,7-42.7,12.1c0.2-6-0.2-12-1.1-18c11.7,0.6,13.7-11.4,14.5-21.5c2.1-19.6,1.9-39.4-0.6-59
		c-2.9-17.9-7-38.2-18.4-52.9c-6.4-8.2-15.6-12.1-24.7-16.2c-9.2-4.1-19.5-8.9-29.5-8.2c-10,0.6-18.5,9.2-24.2,17.2
		c-7.7,10.7-17.5,21.6-20.7,34.7c-4.2-0.8-8.5-1.2-12.9-1.2c-3.6-0.2-7.2,0-10.7,0.4c-5.4-23.1-13.8-45.4-25.1-66.2
		c-9.4-16.5-84.8,21.4-66.6,52.8c4.5,8.7,10.1,16.8,16.5,24.1c5.8,5.6,12.1,10.6,19,14.8c3,2.3,6.3,4.2,9.7,5.8
		c-21.9,27.4-28.3,66.8-20.1,100.3c1.1,4.4,2.6,8.7,4.6,12.8c-23.7-1.1-47.4-0.2-71,2.7c-1.7,0-2.3,2.5,0,2.2
		c24.1-3,48.3-3.9,72.6-2.6c3.8,7.3,9.1,13.8,15.6,19c-5.2,0.8-10.4,1.8-15.6,3.2c-1.9,0.5-1.3,2.7,0.6,2.2
		c5.7-1.6,11.6-2.8,17.5-3.5c1.2,0.9,2.5,1.9,3.9,2.8c4.3,2.8,10.4,5.2,14.7,8.1c-33.3,11.8-65.1,34.5-79.9,66.2
		c-0.7,1.6,2.3,1.7,2.9,0.4c14.6-31.1,46.3-53.5,79.2-65l-0.1,0.8c4,4.1,6.7,9.4,11.1,13.4c15.6,13.9,43.1,17.2,57.9,0.3
		c5.9,5.2,13.4,8.2,21.3,8.4c11.6-0.9,22.3-6.5,29.6-15.6c3.8,2.8,9.2,2,12-1.8c0,0,0,0,0-0.1c6.8,7,14.8,1.6,18.1-6.7
		c1.8,2,4.6,2.8,7.2,2c6.6-1.7,9-9.5,9.7-15.6c0.1-1.2,0.1-2.4,0-3.6c23.8,1,47.4,5.3,70,12.9C706,478.2,708.7,477,707.6,476.6z
		 M618,454.3c3.1,0.6,9.4,2.1,10.4,5.9c0.2,0.8,0.8,1.5,1.7,1.7c0,0.5,0,1,0,1.5c-15.1-0.2-30.1,1.1-44.9,3.9c1.5-3.1,3.8-5.8,6.5-8
		c4.5-0.2,9,0.5,13.3,2.1c0.9,0.4,3.7-1,2.4-1.5c-4.1-1.5-8.5-2.4-12.9-2.4C601.6,453.6,610,452.5,618,454.3L618,454.3z
		 M586.9,446.1c8.1-5.7,16.8-10.6,25.9-14.4c-0.5,5.7-1.6,11.3-3.3,16.8c-7.1-0.1-14.1,1.9-20.1,5.9l-0.7,0.6
		c-0.3-2.9-0.9-5.9-1.7-8.8L586.9,446.1z M450.7,468c-5.6-3.7-10.5-8.5-14.4-13.9c-0.9-1.2-1.7-2.6-2.4-3.9
		c7.2,0.6,14.4,1.5,21.5,2.9c3.3,0.6,6.9,1.3,10.4,2.2c-0.5,4.1-0.6,8.2-0.4,12.2C460.4,467.3,455.5,467.5,450.7,468z M456.9,472.1
		l-3.2-2c3.9-0.3,7.9-0.4,11.9-0.3c0.3,2.8,1,5.6,1.9,8.3C464.2,475.9,460.3,474.2,456.9,472.1z M557.4,500.9
		c-7.3-0.5-14.2-3.5-19.5-8.5l-3-16.2c1-0.5,1.9-1.3,3-2c3.2-2.1,9.2-5.2,10.7-8.9c3.2-7.8-6.3-14.6-12.3-16.4
		c-9.2-2.7-25,1.3-23.6,13.7c0.2,3.7,1.8,7.1,4.5,9.6c4.5,2.5,9.3,4.1,14.4,4.8l0,0l2.9,15.6c-9.7,12.6-30.3,14.4-43.6,7.4
		c-7.4-4.5-13.8-10.6-18.7-17.7l-0.4-0.4c4.2-1.3,8.4-2.5,12.6-3.5c1.9-0.4,1.3-2.6-0.6-2.2c-4.1,1-8.3,2.1-12.5,3.5
		c-1.3-3.1-2.2-6.4-2.6-9.7c3.1,0,6.2,0.5,9.2,0.9c1.6,0,3.1-2,1-2.3c-3.5-0.5-7-0.8-10.4-1c-0.4-3.9-0.4-7.7,0-11.6
		c5.1,1.2,9.9,3.2,14.4,6c1.1,0.7,3.8-0.8,2.3-1.8c-5.1-3.1-10.6-5.3-16.4-6.6v-0.9c1.9-14.6,4.2-29.2,5.8-43.9
		c2.4-13.7-0.2-27.8-7.3-39.8c-4.1-6.8-9-13.1-14.6-18.8c-0.6-0.6-3.3,0.6-2.9,1c6.1,6.1,11.4,13.1,15.6,20.7
		c7.5,13.5,7.5,25.5,5.8,40.4c-1.6,13.6-3.6,27.1-5.2,40.6c-2.9-0.7-5.7-1.2-8.3-1.8c-8.4-1.7-16.8-2.8-25.3-3.5
		c-11-21.6-10.4-50.9-3.7-73c4-14.8,11-28.5,20.7-40.3c0.7-0.8,0.7-2,0-2.7c-0.4-0.9-1.4-1.4-2.4-1.3c-4.8,0.6-12.3-6-15.6-8.4
		c-4.8-3.3-9.4-7-13.6-11c-4.8-5.3-9-11.1-12.5-17.3c-17.2-28.3,6.5-86.4,17.9-74.7c13.8,12.3,29,4.3,38,20.3
		c11.1,20.9,19.4,43.2,24.5,66.3c0.2,1.4,1.4,2.4,2.8,2.4c6.6-0.8,13.2-0.8,19.8,0c2.2,0.2,4.4,0.5,6.5,0.9
		c9.7,2.4,19.1,5.6,28.4,9.3c3.2,1.2,3.4-3.4,0.9-4.4c-8.4-3.5-17.1-6.3-25.9-8.6c3.3-11.8,12-21.5,19-31.4
		c8.2-11.7,17.4-19.2,32.1-15.6c11.6,3,27.4,8.6,36.3,16.9c7.4,8.1,12.6,18,15.1,28.7c5.4,18.4,7.9,37.6,7.4,56.8
		c0,9.8-0.5,19.6-1.4,29.4c-0.7,7.5-2.4,16.2-11.7,14.6c-1.9-2-3.5-4.3-4.9-6.6c-5.2-7.9-9.5-16-13.8-24.3
		c-13.2-25.2-23.2-52-29.5-79.7c-1.6-7.4-3-14.9-3.8-22.4c-0.3-2.2,0-8.2-1.4-9.6c-1.8-0.7-3.8-0.7-5.5,0
		c-15.6,4.3-24.8,27.1-31.1,39.4c-0.7,1.5,2.5,1.1,3,0c5.1-12.2,12.3-23.4,21.3-33.1c1.7-1.6,6.9-6.5,9.7-5.2
		c1.2,0.7,2,18.3,2.4,20.7c1.4,7.9,3.2,15.6,5.2,23.4c4,14.5,9,28.7,15,42.6c7.6,18.4,16.9,36,27.8,52.7c0.7,1.1,1.6,2.1,2.5,3
		c-0.1,0.3-0.1,0.7,0,1c1.5,7.4,1.9,15,1.4,22.6c-9.5,3.8-18.5,8.7-26.9,14.4c-6-19.4-17-36.8-32-50.5c-0.6-0.5-3.3,0.6-2.9,1
		c15.1,13.9,26.3,31.7,32.1,51.4c-3.4,2.5-6.7,5.3-9.8,8.2c-1.3,1.3,1.6,1.5,2.5,0.7c2.5-2.4,5.2-4.7,7.9-6.8c0.8,3.1,1.5,6.2,2,9.4
		l-0.9,0.9c-3.7,0.7-7.4,1.8-10.9,3.4c-1.9,0.8,0,2,1.2,1.3c2.6-1.1,5.2-2,8-2.6c-1.9,2.6-3.2,5.5-4,8.6c-2.4,0.6-4.9,1.1-7.3,1.8
		c-2.4,0.6-1.5,1.8,0.4,1.3c1.8-0.5,4.4-1.1,6.5-1.6c-1.5,6.1,0.3,12.5,4.7,16.9C577.5,495,567.9,500.1,557.4,500.9L557.4,500.9z
		 M541.3,455.8c1.4,1,2.4,2.4,3,4c2.2,5.2-1,7-5.2,9.8c-2,1.3-3.9,2.9-6,4h-0.4c-1.3-0.5-2.6-0.9-4-1.2c-3.2-0.6-6.2-1.7-9.1-3.1
		c-2.1-2.1-3.4-4.9-3.5-7.9C514.8,448.5,534.9,450.8,541.3,455.8L541.3,455.8z M533.5,473.6 M619.3,475.3c-0.8-1.3-3.9-2.9-4.4-0.4
		c-1.2,6.4-7.8,16.5-13.5,7.9c-0.7-1.1-2.1-1.4-3.2-0.8c-0.2,0.1-0.4,0.3-0.5,0.4c-1.2,3-4.6,4.3-7.6,3.1c-0.4-0.2-0.8-0.4-1.1-0.6
		l0,0c-5-3.8-6.7-10.6-4-16.2c15-2.9,30.4-4.2,45.7-3.8c-0.2,8.3-6,19.9-11.4,10.5V475.3z"/>
	<path class="st8" d="M318,637.2c0.1,5.4-1,10.8-3,15.9c-1.9,4.6-4.8,8.8-8.4,12.3c-3.8,3.6-8.3,6.4-13.2,8.1
		c-5.5,2-11.3,3-17.1,2.9c-6.8,0.1-13.6-1-20.1-3.1c-6.5-2.3-12.4-5.9-17.3-10.6l9.8-12.2c3.4,3.9,7.6,7,12.2,9.3
		c4.7,2.2,9.8,3.2,15,3.2c4.6,0.1,9.1-0.6,13.4-2.3c3.2-1.4,6.1-3.4,8.4-6.1c2.1-2.5,3.6-5.3,4.5-8.4c0.9-3.1,1.3-6.3,1.3-9.6v-11.3
		H303c-2.6,4.5-6.6,8.2-11.4,10.4c-4.7,2.2-9.9,3.3-15.1,3.3c-5.3,0-10.6-1-15.6-3c-4.6-1.9-8.8-4.7-12.3-8.2
		c-3.5-3.6-6.2-7.8-8-12.4c-2-4.9-3-10.2-2.9-15.6c0-5.3,0.9-10.6,2.7-15.6c1.7-4.7,4.4-9.1,7.8-12.8c3.4-3.7,7.6-6.6,12.2-8.6
		c5.1-2.1,10.5-3.1,16-3.1c5.2,0,10.4,1.2,15.1,3.4c4.6,2,8.6,5.3,11.5,9.5h0.3v-10.9H318v75.8L318,637.2z M278.3,573
		c-3.6,0-7.1,0.7-10.4,2c-3,1.3-5.7,3.1-7.9,5.5c-2.3,2.4-4.1,5.3-5.2,8.4c-1.2,3.4-1.8,7.1-1.8,10.7c-0.3,6.9,2.2,13.5,6.8,18.6
		c10.5,9.4,26.3,9.4,36.8,0c4.6-5.1,7.1-11.8,6.8-18.6c0-3.7-0.6-7.3-1.8-10.7c-1.1-3.1-2.9-6-5.2-8.4c-2.2-2.4-4.9-4.2-7.9-5.5
		C285.4,573.7,281.9,573,278.3,573z"/>
	<path class="st8" d="M336,599.6c0-5.3,1.1-10.6,3.2-15.6c2-4.8,5-9.1,8.6-12.8c16-15.8,41.7-15.8,57.7,0c3.7,3.7,6.6,8,8.6,12.8
		c2.1,4.9,3.2,10.2,3.2,15.6c0.1,10.7-4.2,20.9-11.8,28.5c-3.7,3.6-8.1,6.5-12.9,8.6c-15.3,6.4-32.9,3-44.8-8.6
		C340.1,620.6,335.9,610.3,336,599.6z M351.5,599.6c0,3.7,0.5,7.3,1.8,10.7c1.1,3.1,2.9,6,5.2,8.4c2.2,2.3,4.8,4.2,7.7,5.5
		c6.7,2.6,14.1,2.6,20.7,0c3.1-1.2,5.8-3.1,8.1-5.5c2.3-2.4,4.1-5.3,5.2-8.4c2.4-7,2.4-14.5,0-21.5c-1.1-3.1-2.9-6-5.2-8.4
		c-2.3-2.3-5-4.2-8.1-5.4c-6.7-2.6-14.1-2.6-20.7,0c-3,1.3-5.7,3.1-7.9,5.5c-2.3,2.4-4.1,5.3-5.2,8.4c-1.2,3.4-1.7,7-1.7,10.7H351.5
		z"/>
	<path class="st8" d="M435.1,561.7h14.5v11.8h0.3c2-4.4,5.3-7.9,9.5-10.2c4.8-2.6,10.1-3.9,15.6-3.8c3.5,0,7,0.6,10.4,1.7
		c3.3,1.1,6.3,2.8,8.9,5.2c2.7,2.6,4.7,5.7,6.1,9.1c1.6,4.2,2.4,8.6,2.3,13.1v49.1h-14.5v-45c0.1-3.1-0.4-6.2-1.5-9.1
		c-0.8-2.3-2.2-4.4-3.9-6.1c-1.6-1.5-3.5-2.7-5.5-3.4c-2.1-0.7-4.3-1-6.5-1c-2.9,0-5.7,0.5-8.4,1.5c-2.6,1-4.9,2.6-6.8,4.6
		c-2.1,2.3-3.6,5-4.5,8c-1.1,3.7-1.7,7.6-1.6,11.5V638h-14.3V561.7z"/>
	<path class="st8" d="M524.9,561.7h14.5v76.4h-14.5V561.7z"/>
	<path class="st8" d="M561.8,561.7h13.5v11.9h0.3c0.6-1.5,1.4-2.9,2.5-4c1.5-1.8,3.3-3.3,5.2-4.6c2.3-1.6,4.8-2.8,7.4-3.7
		c3-1.1,6.2-1.6,9.4-1.6c5-0.2,10,1,14.4,3.5c4.1,2.6,7.4,6.3,9.5,10.6c2.3-4.5,5.9-8.2,10.4-10.6c4.2-2.3,8.9-3.5,13.7-3.5
		c5-0.2,10,0.8,14.5,2.9c3.6,1.8,6.6,4.4,8.9,7.7c2.2,3.3,3.7,6.9,4.5,10.8c0.8,4.1,1.2,8.3,1.2,12.5V638h-14.5v-42.6
		c0-2.8-0.2-5.6-0.6-8.4c-0.3-2.5-1.1-4.9-2.3-7.1c-1.2-2.1-3-3.8-5.2-4.9c-8-3.6-17.5-1.8-23.5,4.6c-3.2,4.9-4.8,10.7-4.5,16.6
		v41.7H612v-40c0-3.3-0.2-6.7-0.6-10c-0.3-2.7-1.1-5.4-2.3-7.8c-1.1-2.2-2.7-4-4.8-5.2c-2.6-1.4-5.5-2-8.4-1.9
		c-2.6,0-5.1,0.5-7.5,1.6c-2.4,1-4.6,2.6-6.4,4.6c-2,2.3-3.4,5-4.4,7.8c-1.1,3.6-1.7,7.4-1.6,11.2v39.7h-14.5v-76.3H561.8z"/>
	<path class="st8" d="M694.6,599.6c0-5.3,1.1-10.6,3.2-15.6c2-4.8,5-9.1,8.6-12.8c16-15.8,41.7-15.8,57.7,0c3.7,3.7,6.6,8,8.6,12.8
		c2.1,4.9,3.2,10.2,3.2,15.6c0.1,10.7-4.2,20.9-11.8,28.5c-3.7,3.6-8.1,6.5-12.9,8.6c-15.3,6.4-32.9,3-44.8-8.6
		C698.8,620.6,694.6,610.3,694.6,599.6z M710.2,599.6c0,3.7,0.5,7.3,1.8,10.7c1.1,3.1,2.9,6,5.2,8.4c2.2,2.4,4.9,4.2,7.9,5.5
		c6.7,2.6,14.1,2.6,20.7,0c3-1.3,5.7-3.1,7.9-5.5c2.3-2.4,4.1-5.3,5.2-8.4c2.4-7,2.4-14.5,0-21.5c-1.1-3.1-2.9-6-5.2-8.4
		c-2.2-2.4-4.9-4.2-7.9-5.5c-6.7-2.6-14.1-2.6-20.7,0c-3,1.3-5.7,3.1-7.9,5.5c-2.3,2.4-4.1,5.3-5.2,8.4
		C710.7,592.4,710.1,596,710.2,599.6L710.2,599.6z"/>
</g>
<g id="Ebene_4">
	<g>
		<path class="st23" d="M534.9,264.6c0,0-34.7-51.9-111.1-56.9c-19-1.2-49.5-2.7-64.8,6.5s-15.6,10.4-35.6,47.7
			c-20.1,37.6-39.8,85.7-57.6,194.8l8.8,5.9l8,6.7l9.2-8.1c0,0,35-86.7,73.9-132.8c0,0,10.4,4.3,17.2,19.7l18.2,10.1L534.9,264.6z"
			/>
		<path d="M535.3,264.2c-2.6-4.1-5.7-7.8-8.9-11.4c-3.2-3.6-6.6-7-10.3-10.2c-7.2-6.4-15.1-12.1-23.5-17c-4.2-2.4-8.5-4.6-12.9-6.7
			c-4.4-2-8.9-3.8-13.6-5.3c-9.2-3.1-18.7-5.4-28.3-6.8c-2.4-0.3-4.8-0.6-7.2-0.9l-7.2-0.6c-4.8-0.3-9.6-0.6-14.4-0.7
			c-9.6-0.3-19.3-0.2-29,1c-4.8,0.6-9.7,1.6-14.4,3.2c-2.4,0.8-4.7,1.8-6.9,3.1l-0.9,0.5l-0.8,0.5l-1.5,0.9c-1,0.6-2.1,1.3-3.1,2
			c-2.1,1.4-4.1,2.9-6,4.6c-1.9,1.7-3.5,3.7-5,5.7c-3,4-5.3,8.2-7.7,12.4c-2.3,4.2-4.6,8.4-6.9,12.7c-2.3,4.2-4.5,8.4-6.7,12.7
			c-4.4,8.5-8.6,17.2-12.4,26c-3.8,8.8-7.3,17.8-10.5,26.9c-1.6,4.5-3.1,9.1-4.6,13.7c-1.5,4.6-2.8,9.2-4.2,13.8
			c-1.3,4.6-2.6,9.2-3.8,13.9c-1.2,4.7-2.4,9.3-3.5,14l-3.2,14l-2.9,14.1c-1.8,9.4-3.7,18.8-5.3,28.2c-1.7,9.4-3.1,18.9-4.6,28.4
			l0,0l-0.1,0.4l0.3,0.2l8.8,5.9l0.2,0.2l0.3-0.1l9.2-2.7l7.7,1.2l0,0l0.4,0.1l0.2-0.4c2.6-5.8,5.3-11.6,8-17.3
			c1.3-2.9,2.7-5.8,4.1-8.6c1.4-2.9,2.8-5.7,4.2-8.6c1.4-2.8,2.8-5.7,4.2-8.5c1.4-2.8,2.8-5.7,4.3-8.5l4.3-8.5l4.4-8.4
			c1.5-2.8,3-5.6,4.5-8.4l2.3-4.2l2.4-4.1c1.6-2.7,3.1-5.5,4.7-8.2l4.9-8.1c1.6-2.7,3.4-5.3,5.1-8l2.6-4l2.7-3.9l2.7-3.9l1.3-2
			c0.5-0.6,0.9-1.3,1.4-1.9c1.7-2.3,3.5-4.6,5.2-6.9c0.1,0,0.2,0.1,0.2,0.1c0.8,0.4,1.5,0.8,2.2,1.2c0.2,0.1,0.4,0.2,0.6,0.3
			c0.7,0.5,1.3,1.1,2,1.7c0.4,0.3,0.8,0.7,1.2,1.1c0.4,0.4,0.8,0.8,1.1,1.2c0.4,0.4,0.8,0.8,1.1,1.2l1.1,1.2l1,1.3
			c0.4,0.4,0.7,0.9,1,1.3c0.3,0.4,0.7,0.9,1,1.3l0.9,1.4c0.6,0.9,1.1,1.8,1.7,2.8c0.6,0.9,1.1,1.9,1.7,2.8l0,0l0.1,0.2l0.1,0.1
			l18.2,10.1l0.3,0.2l0.3-0.2l134.2-93.9L535.3,264.2z M401.1,357.4l-17.7-9.8c-0.2-0.5-0.4-1-0.5-1.4c-0.2-0.5-0.4-1.1-0.6-1.6
			c-0.5-1-1-2.1-1.5-3l-0.9-1.5c-0.3-0.5-0.6-0.9-0.9-1.4c-0.6-0.9-1.4-1.8-2.1-2.7c-0.8-0.8-1.5-1.7-2.3-2.5
			c-0.4-0.4-0.8-0.8-1.3-1.2c-0.4-0.4-0.9-0.8-1.3-1.1c-0.6-0.5-1.3-1-2-1.4c-0.8-0.6-1.7-1.4-2.9-2.2c-0.8-0.5-1.6-1.1-2.5-1.7
			c-0.9-0.5-1.9-1.1-2.9-1.7c-0.5-0.3-1-0.5-1.6-0.8c-0.5-0.3-1.1-0.5-1.6-0.8c-1.1-0.5-2.3-1-3.4-1.5c-1.1-0.5-2.3-0.9-3.5-1.3
			c-1.1-0.4-2.3-0.8-3.4-1.1c-1.1-0.3-2.2-0.6-3.2-0.9c-1-0.3-2-0.5-2.9-0.7c-0.9-0.2-1.7-0.4-2.5-0.5c-0.7-0.1-1.4-0.2-1.9-0.3
			c-1.1-0.1-1.7-0.2-1.7-0.2l-0.2,1.2c0,0,0.6,0.2,1.6,0.4c0.5,0.1,1.1,0.3,1.9,0.5c0.7,0.2,1.5,0.5,2.4,0.7
			c0.9,0.3,1.8,0.5,2.8,0.9c1,0.4,2,0.7,3.1,1.1c1.1,0.4,2.2,0.8,3.3,1.2c1.1,0.5,2.2,0.9,3.3,1.4c1.1,0.5,2.2,1,3.3,1.5
			c1.1,0.5,2.1,1,3.1,1.6c1,0.5,2,1,2.9,1.5c0.4,0.2,0.8,0.5,1.3,0.7c-1.8,2.1-3.7,4.3-5.5,6.5c-0.5,0.6-1,1.2-1.5,1.8l-1.4,1.9
			l-2.9,3.8l-2.9,3.8l-2.7,3.9c-1.8,2.6-3.7,5.2-5.4,7.9l-5.1,8.1c-1.7,2.7-3.3,5.5-4.9,8.2l-2.4,4.1l-2.3,4.2
			c-1.5,2.8-3.1,5.6-4.6,8.4l-4.4,8.5l-4.3,8.5c-1.4,2.8-2.8,5.7-4.2,8.6l-2.1,4.3l-2,4.3c-1.3,2.9-2.6,5.8-3.9,8.7
			c-1.3,2.9-2.6,5.8-3.8,8.8c-1.2,2.9-2.4,5.9-3.6,8.8c-1.1,2.8-2.2,5.6-3.3,8.5l-7.4-1.2l-0.1,0l-0.1,0l-9,2.6l-8.3-5.6
			c1.7-9.3,3.3-18.6,5.2-27.9c1.8-9.4,3.8-18.8,5.8-28.1l3.2-14l3.4-13.9l3.7-13.9c1.3-4.6,2.6-9.2,3.9-13.8
			c1.4-4.6,2.8-9.1,4.3-13.7c1.5-4.5,3-9.1,4.7-13.5c3.2-9,6.8-17.8,10.6-26.5c3.8-8.7,8.1-17.2,12.6-25.7c4.5-8.4,9-16.9,13.7-25.2
			c2.3-4.1,4.7-8.3,7.5-11.9c1.4-1.8,2.9-3.5,4.5-5c1.7-1.5,3.5-2.8,5.4-4.1c1-0.6,2-1.3,3-1.9l1.5-0.9l0.8-0.5l0.7-0.4
			c1.9-1.1,4-2,6.2-2.7c4.3-1.5,8.9-2.4,13.6-2.9c9.3-1.2,18.8-1.2,28.3-0.9c4.8,0.2,9.5,0.4,14.3,0.8l7.1,0.6l7,0.9
			c9.3,1.4,18.5,3.6,27.5,6.6c9,3,17.6,6.7,25.9,11.2c8.3,4.5,16.2,9.8,23.6,15.7c7.2,5.8,14,12.3,19.8,19.5L401.1,357.4z"/>
		<g>
			<path class="st8" d="M395.1,344.5c0,0-7.2-4.1-13.9,4.4c-6.7,8.5-2,15.7,2.1,15.8c0,0,1.8-0.1,2.4,1.7c0.7,1.7,0,7.6,5.6,7.7
				c0,0,1.1,4.7,4.7,8s6.6,4.4,7.9,7.9s4.7,7.2,11.3,4.3c6.6-2.9,10-8.3,12.2-10.5c2.3-2.1,4.5-5.2,9-1.5
				c4.5,3.6,12.2-10.8,14.5-12.9c2.3-2.1,6.5-6.4,15.8-2.4c0,0,13.5-14.3,21.8-14.7c8.2-0.3,10.8-1.6,15.4-5
				c4.6-3.4,8.2-1.2,8.2-1.2l10.7-12.5c0,0,7.5,4.7,13,0.7c5.4-4,7.4-6.8,11.3-12.5s14.8-4.7,18.1-11.6s2.3-9.2-0.8-12.9
				c0,0,0.1-4.4-3.3-8.7c-3.4-4.3-6-9.5-6.7-12.4s-7.3-21.5-31.4-5.5c0,0-0.5,2.1-5.8,2.3c-5.3,0.2-7.8,3.5-10.3,6.9
				s-9.1,0.6-12.3,0.8c-3.2,0.1-7.1-1.2-14.4,7.3c-7.3,8.5-13.5,7.6-18.2,8.6s-7.4,5-9.1,8.3s-7.6,1.8-9.9,1.9
				c-2.3,0.1-4.1,5.5-9.1,7.1c-3.7,1.2-10.9-0.8-16,3.3c-5.1,4-1.5,5.9-5,7.8s-7.8,2.7-10,7.4C400.6,337.3,395.1,344.5,395.1,344.5z
				"/>
			<path d="M394.8,345.1c-0.6-0.3-1.3-0.5-1.9-0.6c-0.7-0.1-1.4-0.2-2-0.2c-1.4,0-2.7,0.3-4,0.9c-1.3,0.6-2.4,1.4-3.4,2.4
				c-0.5,0.5-1,1-1.4,1.6c-0.4,0.5-0.9,1.2-1.3,1.7c-1.5,2.3-2.5,5.1-2.1,7.8c0.2,1.3,0.7,2.6,1.5,3.7c0.8,1,2,1.9,3.1,1.9h-0.1
				c0.5,0,0.8,0,1.1,0.1c0.3,0.1,0.7,0.3,1,0.5c0.6,0.5,1,1.2,1.2,1.8c0.1,0.3,0.1,0.6,0.2,0.9l0.1,0.9c0.1,0.6,0.2,1.1,0.3,1.6
				c0.3,1,0.7,2,1.4,2.6c0.7,0.7,1.7,0.9,2.8,1l0.5,0l0.1,0.4c0.6,1.9,1.6,3.7,2.7,5.3c0.6,0.8,1.2,1.5,2,2.2
				c0.8,0.7,1.5,1.3,2.3,1.9c0.8,0.6,1.7,1.2,2.5,1.9c0.8,0.7,1.7,1.4,2.4,2.4c0.4,0.5,0.6,1,0.9,1.5c0.3,0.6,0.4,1,0.6,1.4
				c0.4,0.8,0.9,1.6,1.6,2.2c1.3,1.2,3,1.7,4.8,1.5c0.9-0.1,1.8-0.4,2.7-0.7l0.3-0.1c0,0,0.2-0.1,0.3-0.1l0.7-0.3
				c0.5-0.2,0.8-0.5,1.3-0.7c1.7-1,3.2-2.3,4.6-3.7c1.4-1.4,2.7-3,4.1-4.6c0.3-0.4,0.8-0.8,1.1-1.2l1.1-1.1c0.8-0.7,1.7-1.5,3-2
				c1.3-0.4,2.8-0.2,3.9,0.3c0.6,0.2,1.1,0.6,1.6,0.9c0.5,0.3,1,0.8,1.1,0.8c0.4,0.2,1.1,0.1,1.9-0.3c0.7-0.4,1.5-1,2.2-1.7
				c1.4-1.4,2.6-3,3.8-4.6c1.2-1.7,2.3-3.4,3.6-5.1c0.3-0.4,0.7-0.9,1.1-1.3c0.4-0.4,0.8-0.7,1.2-1.1c0.8-0.7,1.8-1.4,2.8-1.9
				c2-1,4.4-1.3,6.6-1.1c2.2,0.3,4.2,1,6.1,2l0,0l-0.7,0.1c0.7-0.9,1.4-1.7,2.1-2.5c0.7-0.8,1.5-1.6,2.3-2.4c1.6-1.5,3.2-3,4.9-4.3
				c1.7-1.4,3.6-2.6,5.5-3.7c1-0.5,2-1,3.1-1.5c1.1-0.4,2.2-0.8,3.4-0.9c0.6-0.1,1.2-0.1,1.7-0.1c0.5,0,1.1-0.1,1.6-0.1
				c1.1-0.1,2.1-0.2,3.1-0.3c2.1-0.3,4-0.9,5.8-1.9c0.9-0.5,1.8-1.1,2.7-1.7c0.9-0.6,1.8-1.3,2.9-1.7c1.1-0.5,2.3-0.7,3.4-0.7
				c1.2,0,2.3,0.3,3.5,0.9l0,0l-0.8,0.1c0.6-1.3,1.4-2.4,2.1-3.6c0.4-0.6,0.8-1.1,1.2-1.7c0.4-0.5,0.8-1.1,1.3-1.6
				c0.9-1.1,1.7-2.1,2.7-3.1c0.5-0.5,1-0.9,1.6-1.4c0.5-0.4,1.1-0.8,1.8-1.2l0,0l0.2-0.3l0.6,0.2c2.6,0.8,5.2,1.4,7.6,1.3
				c1.2-0.1,2.3-0.3,3.3-0.9c0.5-0.3,0.9-0.6,1.5-1c0.6-0.4,1.1-0.8,1.6-1.2c2.1-1.7,3.9-3.6,5.5-5.8c0.8-1.1,1.6-2.2,2.4-3.3
				l0.6-0.9l0.3-0.5l0.3-0.4c0.6-0.7,1.2-1.2,1.8-1.7c1.3-1,2.6-1.6,4-2.1c1.3-0.5,2.7-1,4-1.4c1.3-0.4,2.6-0.9,3.7-1.5
				c1.2-0.6,2.2-1.2,3.1-2.1c0.4-0.4,0.8-0.9,1.1-1.4c0.3-0.5,0.6-1.2,0.9-1.8c0.6-1.2,1.1-2.5,1.3-3.7c0.3-1.2,0.3-2.5-0.2-3.6
				c-0.4-1.2-1.2-2.3-2-3.4l0,0l-0.1-0.1l0-0.3c-0.2-1.2-0.5-2.4-1-3.5c-0.4-1.1-1-2.2-1.7-3.2c-0.6-1-1.5-1.9-2.3-3
				c-0.8-1.1-1.5-2.2-2.2-3.3c-0.7-1.2-1.3-2.3-1.8-3.6c-0.5-1.2-1.1-2.5-1.4-3.8c-0.3-1.2-0.7-2.3-1.3-3.4
				c-0.5-1.1-1.2-2.1-1.9-3.1c-1.5-1.9-3.4-3.4-5.7-4.2c-1.1-0.4-2.3-0.7-3.5-0.8c-1.2-0.1-2.4-0.1-3.7,0.1
				c-1.2,0.2-2.4,0.5-3.6,0.8c-1.2,0.4-2.4,0.8-3.6,1.3c-1.2,0.5-2.3,1-3.4,1.7c-1.1,0.6-2.2,1.3-3.3,1.9l0,0l0.2-0.4
				c-0.1,0.4-0.3,0.6-0.4,0.8c-0.2,0.2-0.3,0.4-0.5,0.5c-0.4,0.3-0.8,0.5-1.2,0.7c-0.8,0.4-1.7,0.5-2.5,0.7
				c-0.4,0.1-0.9,0.1-1.3,0.1l-1.2,0.1c-0.7,0.1-1.5,0.3-2.2,0.6c-1.4,0.5-2.7,1.5-3.8,2.6c-1.1,1.1-2,2.4-3.1,3.8
				c-0.7,0.8-1.6,1.2-2.6,1.4c-0.9,0.2-1.8,0.3-2.7,0.2c-1.7-0.1-3.4-0.4-5-0.6c-0.8-0.1-1.6,0-2.3,0c-0.4,0-0.8,0.2-1.3,0.2h-1.2
				c-0.8,0-1.5-0.1-2.3,0.1c-0.7,0.2-1.4,0.3-2.1,0.7c-1.4,0.7-2.6,1.6-3.8,2.7c-0.6,0.5-1.2,1.1-1.7,1.7l-1.6,1.8
				c-1.1,1.2-2.3,2.5-3.7,3.5c-1.3,1.1-2.8,2-4.4,2.7c-1.6,0.7-3.3,1.2-4.9,1.5c-1.7,0.3-3.3,0.5-4.9,0.8c-3.1,0.5-5.6,2.5-7.4,5.1
				c-0.5,0.6-0.9,1.3-1.2,2l-0.3,0.5l-0.2,0.3l-0.2,0.3c-0.3,0.5-0.7,0.9-1.1,1.2c-0.8,0.6-1.8,0.9-2.7,1c-0.9,0.1-1.8,0.1-2.6,0.1
				c-0.9,0-1.7-0.1-2.5-0.2c-0.4,0-0.8-0.1-1.2-0.1l-0.3,0c0,0-0.1,0-0.1,0l-0.2,0c-0.1,0-0.1,0-0.3,0.1c-0.5,0.3-1.1,0.9-1.6,1.4
				c-0.5,0.6-1.1,1.3-1.7,1.9c-1.2,1.2-2.5,2.4-4.2,3.2c-0.8,0.4-1.7,0.6-2.6,0.8c-0.9,0.1-1.7,0.1-2.6,0.2c-3.3,0.1-6.6,0-9.5,1.3
				c-0.7,0.3-1.4,0.7-2,1.1c-0.6,0.5-1.2,1-1.7,1.5c-0.5,0.6-0.9,1.2-1.1,1.8c-0.3,0.7-0.2,1.4-0.5,2.4c-0.1,0.5-0.4,1-0.8,1.4
				c-0.4,0.4-0.8,0.7-1.2,0.9c-0.8,0.4-1.5,0.8-2.3,1.1c-1.5,0.7-3,1.3-4.3,2.2c-1.3,0.9-2.3,2-3,3.4c-0.4,0.7-0.7,1.5-1.1,2.2
				c-0.4,0.7-0.8,1.5-1.3,2.2c-1.8,2.8-3.7,5.5-5.7,8.2l-0.3,0.4L394.8,345.1z M394.9,343.8c1.9-2.5,3.7-5.1,5.3-7.8
				c0.4-0.7,0.8-1.4,1.2-2.1c0.4-0.7,0.7-1.4,1.1-2.2c0.8-1.6,2-3,3.4-4c1.4-1,3-1.7,4.5-2.4c0.7-0.3,1.5-0.7,2.2-1.1
				c0.7-0.4,1.1-0.8,1.2-1.4c0.2-0.6,0.2-1.6,0.5-2.5c0.3-0.9,0.8-1.7,1.4-2.4c0.6-0.7,1.3-1.2,2-1.8c0.7-0.5,1.5-1,2.3-1.3
				c3.3-1.4,6.8-1.4,10-1.4c0.8,0,1.6-0.1,2.4-0.2c0.8-0.1,1.4-0.3,2.1-0.6c1.4-0.6,2.6-1.6,3.6-2.8c0.5-0.6,1.1-1.2,1.6-1.8
				c0.6-0.6,1.1-1.3,2.1-1.8c0.2-0.1,0.5-0.2,0.9-0.3l0.2,0c0.2,0,0.1,0,0.2,0h0.3c0.5,0,0.9,0,1.3,0.1c0.8,0.1,1.6,0.1,2.4,0.2
				c1.6,0.1,3.2,0,4.2-0.8c0.2-0.2,0.5-0.4,0.6-0.6l0.2-0.3l0.1-0.2l0.3-0.6c0.4-0.8,0.8-1.5,1.3-2.2c1-1.4,2.2-2.7,3.6-3.8
				c0.7-0.5,1.5-1,2.3-1.3c0.4-0.2,0.9-0.4,1.3-0.5l0.6-0.2l0.7-0.1c1.7-0.3,3.3-0.5,4.9-0.8c1.6-0.3,3.1-0.7,4.5-1.4
				c1.4-0.6,2.8-1.5,4-2.5c1.3-1,2.3-2.1,3.5-3.3l1.7-1.8c0.6-0.6,1.2-1.2,1.8-1.8c1.3-1.1,2.6-2.2,4.2-3c0.8-0.4,1.6-0.7,2.5-0.9
				c0.9-0.2,1.8-0.3,2.6-0.3c0.4,0,0.9,0,1.3,0c0.4,0,0.8,0,1.2,0c0.9,0,1.8,0.1,2.6,0.3c1.7,0.3,3.2,0.6,4.8,0.7
				c1.5,0.1,3.1-0.2,4-1c1-1.2,2-2.6,3.2-3.8c1.2-1.2,2.7-2.3,4.4-2.9c0.8-0.3,1.7-0.5,2.6-0.6l1.3-0.1c0.4,0,0.8,0,1.2-0.1
				c0.8-0.1,1.6-0.3,2.2-0.5c0.3-0.1,0.7-0.3,0.9-0.5c0.1-0.1,0.3-0.2,0.4-0.3c0.1-0.1,0.2-0.3,0.2-0.3l0.2-0.4l0,0
				c1.1-0.7,2.1-1.5,3.3-2.1c1.1-0.7,2.3-1.3,3.5-1.9c1.2-0.6,2.4-1.1,3.7-1.5c1.3-0.4,2.6-0.8,3.9-1c1.3-0.3,2.7-0.3,4.1-0.3
				c1.4,0.1,2.8,0.3,4.1,0.8c1.3,0.4,2.6,1.1,3.7,1.9c1.1,0.8,2.1,1.8,3,2.9c0.9,1.1,1.6,2.2,2.2,3.5c0.6,1.2,1.1,2.5,1.5,3.8
				c0.3,1.1,0.8,2.3,1.3,3.4c0.5,1.1,1.1,2.2,1.8,3.3c0.6,1.1,1.3,2.1,2,3.2c0.7,1,1.5,2,2.2,3.2c0.7,1.2,1.2,2.5,1.6,3.8
				c0.3,1.3,0.5,2.7,0.4,4.1l-0.1-0.4l0,0c0.9,1,1.9,2.1,2.5,3.5c0.7,1.4,0.8,3.1,0.6,4.5c-0.2,1.5-0.7,2.9-1.2,4.2
				c-0.3,0.7-0.5,1.3-0.9,2c-0.4,0.7-0.8,1.3-1.4,1.9c-1.1,1.2-2.3,2-3.6,2.7c-1.3,0.7-2.6,1.2-4,1.7c-2.6,1-5.2,1.9-7.1,3.4
				c-0.5,0.4-0.9,0.8-1.2,1.2l-0.3,0.4l-0.3,0.4l-0.6,0.9c-0.8,1.2-1.6,2.3-2.4,3.5c-1.7,2.3-3.7,4.5-5.9,6.3
				c-0.5,0.5-1.1,0.9-1.7,1.3c-0.5,0.4-1.2,0.9-1.9,1.3c-1.5,0.8-3.1,1.1-4.7,1.1c-1.6,0-3.1-0.4-4.5-1c-1.4-0.6-2.6-1.3-3.8-2.3
				l0.8-0.1l0,0c-0.2,0.7-0.5,1.3-0.9,2c-0.3,0.6-0.7,1.2-1.1,1.8c-0.8,1.1-1.7,2.1-2.6,3.2c-0.5,0.5-0.9,1-1.4,1.5
				c-0.5,0.5-1,1-1.5,1.4c-1,0.9-2,1.8-3.2,2.7l-0.5,0.4l-0.2-0.3l0,0c-0.8-0.4-1.9-0.6-2.8-0.5c-1,0.1-1.9,0.3-2.8,0.8
				c-0.9,0.4-1.7,1-2.5,1.7c-0.9,0.7-1.8,1.3-2.8,1.9c-1,0.6-2,1.1-3.1,1.5c-1.1,0.4-2.2,0.7-3.3,0.9c-1.1,0.2-2.2,0.3-3.3,0.4
				c-0.6,0-1.1,0.1-1.6,0.1c-0.5,0-1.1,0.1-1.5,0.1c-1.9,0.3-3.8,1.2-5.6,2.2c-1.8,1-3.5,2.3-5.2,3.5c-3.4,2.6-6.7,5.4-9.9,8.2
				l-0.3,0.3l-0.3-0.2l0,0c-1.9-0.7-3.9-1.2-5.8-1.3c-1.9-0.1-3.8,0.3-5.5,1.2c-0.8,0.4-1.6,1-2.3,1.7c-0.4,0.3-0.7,0.7-1.1,1
				c-0.3,0.3-0.6,0.6-0.9,1l-3.6,5.1c-1.2,1.7-2.5,3.4-4.1,4.9c-0.8,0.8-1.6,1.5-2.7,2.1c-0.5,0.3-1.1,0.6-1.8,0.7
				c-0.7,0.1-1.5,0.1-2.2-0.3c-0.9-0.4-1-0.7-1.5-1c-0.4-0.3-0.8-0.5-1.1-0.6c-0.8-0.3-1.5-0.4-2.2-0.2c-0.7,0.2-1.4,0.8-2.1,1.4
				l-1.1,1.1c-0.4,0.4-0.7,0.7-1,1.1c-1.3,1.5-2.7,3.2-4.2,4.6c-1.5,1.5-3.3,2.8-5.1,4c-0.5,0.3-1,0.6-1.5,0.8l-0.7,0.3
				c-0.1,0.1-0.2,0.1-0.4,0.2l-0.4,0.2c-1,0.4-2.1,0.7-3.3,0.9c-1.2,0.1-2.4,0.1-3.5-0.3c-1.2-0.4-2.2-1-3.1-1.9
				c-0.9-0.8-1.5-1.8-2-2.8c-0.3-0.5-0.4-1.1-0.6-1.5c-0.2-0.4-0.4-0.8-0.7-1.2c-1.1-1.5-2.8-2.6-4.4-4c-0.8-0.7-1.6-1.4-2.4-2.1
				c-0.8-0.8-1.5-1.6-2.1-2.5c-1.2-1.8-2-3.8-2.5-6l0,0l0.6,0.5c-0.6,0-1.3-0.1-1.9-0.2c-0.6-0.2-1.2-0.5-1.8-0.9
				c-1.1-0.9-1.6-2.1-1.9-3.3c-0.2-0.6-0.3-1.2-0.4-1.8l-0.1-0.9c0-0.3-0.1-0.6-0.2-0.8c-0.1-0.4-0.3-0.8-0.6-1
				c-0.2-0.1-0.3-0.4-0.5-0.5c-0.2-0.1-0.4-0.3-0.6-0.3h0h0c-1.8,0-3.3-0.9-4.3-2.1c-1-1.3-1.6-2.7-1.8-4.3c-0.2-1.6,0-3.1,0.4-4.6
				c0.5-1.5,1.2-2.8,2-4.1c0.5-0.7,0.8-1.2,1.4-1.8c0.5-0.6,1-1.1,1.6-1.7c1.1-1,2.4-2,3.8-2.6c1.4-0.6,3-1,4.6-0.9
				c0.8,0,1.6,0.1,2.3,0.3C393.7,343.3,394.3,343.5,394.9,343.8z"/>
		</g>
		<g>
			<path class="st8" d="M265.8,456.7c0,0-15-1.8-14.5,10.7c0,0-13.7,9.2-17.2,21.8c0,0-8.8,14.4-6.2,21.4c2.6,7,4.5,15.5,13.2,16.7
				c0,0,10.7,14.5,16.2,14.3c5.5-0.2,11.9,3.5,17.3,0.9c5.4-2.6,7.6-6.6,13.1-6.8c5.5-0.2,10.1-1.2,14.3-13.9c0,0,5.6-2.8,7.4-6.6
				s1-9.2,4-12.7s3.4-8.2,0.9-11.6c-2.5-3.4-3.1-3.2-3.3-8.9c-0.2-5.7-5.3-6.5-8.1-6.3c-2.7,0.1-6.7-1.1-7.3-6
				c-0.6-4.9,1-10.2-11.7-9.9c0,0-6.5,4.4-12.7,0.1C269.6,458.9,268.5,457.2,265.8,456.7z"/>
			<path d="M265.7,457.3c-0.8-0.1-1.7-0.1-2.5-0.1c-0.8,0-1.7,0.1-2.5,0.2c-1.7,0.3-3.3,0.8-4.7,1.6c-0.3,0.2-0.7,0.4-1,0.7
				c-0.3,0.3-0.6,0.5-0.9,0.8c-0.3,0.3-0.5,0.6-0.8,0.9c-0.2,0.3-0.4,0.7-0.6,1.1c-0.2,0.4-0.3,0.8-0.4,1.1
				c-0.1,0.4-0.2,0.8-0.3,1.2c-0.1,0.8-0.2,1.6-0.1,2.5l0,0.3l-0.3,0.2c-0.9,0.6-1.9,1.4-2.8,2.1c-0.9,0.7-1.8,1.5-2.6,2.3
				c-0.4,0.4-0.8,0.8-1.3,1.2c-0.4,0.4-0.8,0.8-1.2,1.2c-0.4,0.4-0.8,0.8-1.2,1.3c-0.4,0.4-0.8,0.9-1.1,1.3l-1.1,1.4
				c-0.4,0.5-0.7,0.9-1,1.4c-0.3,0.5-0.7,0.9-1,1.4c-0.3,0.5-0.6,1-0.9,1.5l-0.8,1.5c-0.3,0.5-0.5,1.1-0.7,1.6
				c-0.2,0.5-0.5,1.1-0.6,1.6l-0.5,1.6l0,0.1l0,0.1c-1.9,3.2-3.6,6.6-4.9,10.1l-0.5,1.3l-0.4,1.3c-0.1,0.4-0.2,0.9-0.3,1.3
				c-0.1,0.5-0.2,0.9-0.3,1.4c-0.1,0.5-0.2,0.9-0.2,1.4l-0.1,1.4l0.1,1.3c0.1,0.4,0.2,0.8,0.3,1.3l1.9,5.3c0.3,0.9,0.7,1.7,1.1,2.6
				c0.4,0.8,0.8,1.7,1.3,2.5c0.2,0.4,0.5,0.8,0.7,1.2l0.8,1.1c0.3,0.3,0.6,0.7,0.9,1c0.3,0.3,0.7,0.6,1,0.9c0.4,0.2,0.7,0.5,1.1,0.7
				c0.4,0.2,0.8,0.4,1.2,0.6c0.4,0.1,0.8,0.3,1.3,0.4l1.3,0.3l0.3,0.1l0.1,0.2l0,0c2,2.4,4.1,4.8,6.3,7.1c1.1,1.1,2.2,2.2,3.4,3.2
				c1.2,1,2.4,1.9,3.7,2.6c0.6,0.3,1.3,0.6,1.9,0.6c0.1,0,0.3,0,0.4,0l0.6,0c0.4,0,0.8,0,1.3,0c1.7,0.1,3.3,0.4,4.9,0.7
				c1.6,0.3,3.1,0.6,4.6,0.7c1.5,0.1,2.9,0.1,4.2-0.3c0.3-0.1,0.6-0.2,0.9-0.3c0.1,0,0.2-0.1,0.2-0.1l0.3-0.1l0.5-0.3
				c0.4-0.2,0.6-0.4,0.9-0.5l0.9-0.6c1.3-0.9,2.4-1.8,3.8-2.8c1.3-1,3-1.9,4.7-2.3c0.4-0.1,0.9-0.2,1.4-0.3c0.4,0,1-0.1,1.3-0.1
				c0.8-0.1,1.5-0.1,2.2-0.2c1.4-0.2,2.7-0.7,3.7-1.4c1.1-0.8,2-1.8,2.8-3c0.4-0.6,0.8-1.2,1.2-1.9c0.4-0.6,0.7-1.3,1.1-2l1-2.1
				c0.3-0.7,0.6-1.4,1-2.1l0.3-0.6l0.3-0.1h0c1.4-0.8,2.9-1.8,4.2-2.9c0.6-0.5,1.2-1.1,1.7-1.8c0.3-0.3,0.5-0.6,0.7-1
				c0.1-0.1,0.2-0.4,0.2-0.5l0.3-0.6c0.5-1.4,0.8-3.2,1.1-5c0.3-1.8,0.7-3.7,1.7-5.5c0.2-0.4,0.5-0.9,0.8-1.3l0.9-1.1
				c0.4-0.6,0.9-1.3,1.2-2c0.6-1.5,0.8-3.1,0.5-4.6c-0.1-0.8-0.4-1.5-0.8-2.2c-0.4-0.7-0.9-1.4-1.4-2.1c-0.5-0.7-1.1-1.5-1.6-2.5
				c-0.4-1-0.6-2-0.7-2.9c-0.1-0.9-0.1-1.9-0.2-2.7c-0.1-1-0.2-1.6-0.5-2.3c-0.6-1.4-1.9-2.3-3.4-2.8c-0.8-0.2-1.6-0.2-2.4-0.3
				c-0.2,0-0.4,0.1-0.6,0.1h-0.7c-0.5,0-1-0.2-1.5-0.3c-1.9-0.4-3.9-1.5-4.9-3.3c-0.5-0.9-0.8-1.9-1-2.8l-0.1-0.4l0-0.2l0-0.2
				l-0.1-0.7l-0.1-1.4c-0.1-0.9-0.1-1.8-0.3-2.5c-0.2-0.8-0.5-1.5-1-2.1c-0.2-0.3-0.5-0.5-0.8-0.8c-0.4-0.2-0.7-0.4-1-0.5
				c-0.7-0.3-1.6-0.5-2.4-0.6c-1.7-0.3-3.4-0.2-5.2-0.2h0l0.6-0.2c-0.4,0.3-0.8,0.4-1.2,0.6c-0.4,0.2-0.8,0.3-1.2,0.5
				c-0.8,0.3-1.7,0.5-2.6,0.6c-0.4,0.1-0.9,0.1-1.3,0.1c-0.4,0-0.9,0-1.3,0c-0.4-0.1-0.9-0.1-1.3-0.2c-0.4-0.1-0.9-0.2-1.3-0.3
				c-0.4-0.2-0.8-0.3-1.2-0.5c-0.4-0.2-0.8-0.4-1.2-0.6c-0.4-0.2-0.7-0.5-1.1-0.7c-0.3-0.3-0.7-0.6-1-0.8c-0.6-0.6-1.2-1.1-1.9-1.5
				C267.2,457.7,266.4,457.4,265.7,457.3z M265.9,456.1c0.9,0.2,1.8,0.5,2.5,1c0.8,0.5,1.4,1.1,2,1.6c0.3,0.3,0.6,0.5,0.9,0.7
				c0.3,0.2,0.7,0.4,1,0.6c0.3,0.2,0.7,0.3,1.1,0.5c0.4,0.2,0.7,0.2,1.1,0.3c0.4,0.1,0.8,0.1,1.1,0.2c0.4,0.1,0.8,0,1.2,0.1
				c0.4,0,0.8,0,1.2-0.1c0.4-0.1,0.8-0.1,1.1-0.2c0.4-0.1,0.8-0.2,1.1-0.3c0.4-0.1,0.7-0.3,1.1-0.4c0.4-0.2,0.7-0.3,1-0.5
				c0.3-0.2,0.7-0.4,0.9-0.6l0.3-0.1l0.3,0.1h0c1.8,0,3.7,0,5.6,0.4c0.9,0.2,1.9,0.4,2.8,0.8c0.5,0.2,0.9,0.5,1.3,0.7
				c0.4,0.4,0.8,0.6,1.1,1.1c0.7,0.8,1.1,1.8,1.3,2.8c0.2,1,0.3,1.9,0.3,2.8l0.1,1.3l0.1,0.7l0,0.2l0,0.1l0.1,0.3
				c0.1,0.8,0.4,1.6,0.8,2.2c0.8,1.3,2.3,2.1,3.9,2.4c0.4,0.1,0.8,0.1,1.2,0.1l0.7,0c0.2,0,0.5,0,0.7,0c1,0,1.9,0.1,2.9,0.4
				c1,0.3,1.9,0.7,2.7,1.3c0.8,0.6,1.5,1.5,1.9,2.5c0.2,0.5,0.4,1,0.5,1.5c0.1,0.6,0.1,0.9,0.2,1.4c0.1,1,0.1,1.8,0.2,2.7
				c0.1,0.9,0.3,1.6,0.6,2.3c0.3,0.7,0.8,1.3,1.4,2c0.6,0.7,1.1,1.4,1.7,2.3c0.5,0.9,0.9,1.8,1.1,2.8c0.4,2,0.2,4.1-0.6,5.9
				c-0.4,0.9-0.9,1.8-1.5,2.6l-0.8,1c-0.2,0.3-0.4,0.6-0.6,1c-0.7,1.4-1,3.1-1.3,4.8c-0.3,1.8-0.5,3.6-1.2,5.6l-0.3,0.6
				c-0.1,0.3-0.3,0.5-0.4,0.7c-0.3,0.4-0.5,0.9-0.9,1.3c-0.6,0.8-1.3,1.5-2.1,2.1c-1.5,1.3-3,2.2-4.8,3.1l0,0l0.6-0.7
				c-0.2,0.8-0.4,1.6-0.6,2.4c-0.3,0.8-0.5,1.6-0.8,2.3c-0.6,1.5-1.3,3.1-2.3,4.5c-1,1.4-2.2,2.8-3.8,3.8c-1.5,1-3.4,1.6-5.1,1.8
				c-0.9,0.1-1.8,0.2-2.5,0.2l-0.3,0l-0.3,0l-0.5,0c-0.3,0.1-0.7,0.1-1,0.2c-1.3,0.3-2.5,0.9-3.8,1.8c-1.2,0.8-2.5,1.8-3.9,2.8
				l-1.1,0.7c-0.4,0.2-0.8,0.4-1.1,0.6c-0.6,0.3-1.6,0.8-2.5,1c-1.8,0.5-3.6,0.5-5.2,0.3c-1.7-0.2-3.3-0.6-4.8-0.9
				c-1.5-0.4-3.1-0.7-4.5-0.9c-0.3,0-0.7-0.1-1.1-0.1l-0.6,0c-0.3,0-0.5,0-0.8-0.1c-1-0.2-1.8-0.5-2.6-1c-1.5-0.9-2.8-1.9-4-3
				c-1.2-1.1-2.3-2.3-3.4-3.5c-2.1-2.4-4.1-4.9-6-7.5l0,0l0.4,0.2l-1.5-0.3c-0.5-0.1-0.9-0.3-1.4-0.5c-0.5-0.2-0.9-0.4-1.4-0.6
				c-0.4-0.2-0.8-0.5-1.3-0.8c-0.4-0.3-0.8-0.6-1.1-1c-0.4-0.3-0.7-0.7-1-1.1c-0.3-0.4-0.6-0.8-0.9-1.2c-0.3-0.4-0.5-0.8-0.8-1.2
				c-0.5-0.8-0.9-1.7-1.3-2.6c-0.4-0.9-0.7-1.8-1.1-2.7l-1.9-5.4c-0.1-0.5-0.3-1-0.4-1.5l-0.1-1.5l0.1-1.5c0-0.5,0.1-1,0.2-1.5
				c0.1-0.5,0.2-1,0.3-1.4c0.1-0.5,0.2-0.9,0.4-1.4l0.4-1.4l0.5-1.4c0.7-1.8,1.4-3.6,2.3-5.3c0.8-1.7,1.7-3.4,2.7-5l-0.1,0.2
				l0.6-1.7c0.2-0.6,0.4-1.1,0.7-1.7c0.3-0.5,0.4-1.1,0.7-1.6l0.8-1.6c0.3-0.5,0.6-1,0.9-1.5c0.3-0.5,0.6-1,1-1.5
				c0.4-0.5,0.7-1,1.1-1.4l1.1-1.4c0.4-0.5,0.8-0.9,1.2-1.3c0.4-0.5,0.8-0.9,1.2-1.3c0.4-0.4,0.8-0.9,1.3-1.3
				c0.4-0.4,0.8-0.8,1.3-1.2c0.9-0.8,1.8-1.6,2.7-2.3c0.9-0.8,1.9-1.5,2.9-2.2l-0.3,0.5c0-0.9,0-1.8,0.2-2.7
				c0.1-0.5,0.2-0.9,0.3-1.3c0.1-0.4,0.3-0.9,0.5-1.3c0.2-0.4,0.4-0.8,0.7-1.2c0.3-0.4,0.5-0.8,0.9-1.1c0.3-0.4,0.7-0.7,1-0.9
				c0.4-0.3,0.7-0.5,1.1-0.8c1.6-0.9,3.4-1.5,5.1-1.8c0.9-0.1,1.8-0.2,2.7-0.3C264,456,264.9,456,265.9,456.1L265.9,456.1
				L265.9,456.1z"/>
		</g>
	</g>
</g>
</svg>
